M48
; DRILL file {KiCad (5.1.4)-1} date 2/10/2023 9:12:40 PM
; FORMAT={-:-/ absolute / metric / decimal}
; #@! TF.CreationDate,2023-02-10T21:12:40-05:00
; #@! TF.GenerationSoftware,Kicad,Pcbnew,(5.1.4)-1
; #@! TF.FileFunction,Plated,1,2,PTH
FMAT,2
METRIC
T1C1.000
T2C1.470
%
G90
G05
T1
X117.087Y-325.191
X119.54Y-324.533
X121.994Y-323.876
X124.447Y-323.218
X129.682Y-335.659
X129.682Y-338.199
X129.682Y-340.739
X129.682Y-343.279
X96.171Y-346.875
X98.711Y-346.875
X101.251Y-346.875
X103.791Y-346.875
X90.963Y-339.158
X90.963Y-341.698
X90.963Y-344.238
X90.963Y-346.778
T2
X96.226Y-334.55
X97.536Y-333.09
X102.536Y-332.59
X102.576Y-332.01
X115.29Y-334.55
X116.6Y-333.09
X121.6Y-332.59
X121.64Y-332.01
T0
M30
