G04 #@! TF.GenerationSoftware,KiCad,Pcbnew,(5.1.4)-1*
G04 #@! TF.CreationDate,2023-02-10T21:12:28-05:00*
G04 #@! TF.ProjectId,ThumbsUp,5468756d-6273-4557-902e-6b696361645f,rev?*
G04 #@! TF.SameCoordinates,Original*
G04 #@! TF.FileFunction,Copper,L2,Bot*
G04 #@! TF.FilePolarity,Positive*
%FSLAX46Y46*%
G04 Gerber Fmt 4.6, Leading zero omitted, Abs format (unit mm)*
G04 Created by KiCad (PCBNEW (5.1.4)-1) date 2023-02-10 21:12:28*
%MOMM*%
%LPD*%
G04 APERTURE LIST*
%ADD10R,2.550000X2.500000*%
%ADD11C,2.250000*%
%ADD12C,2.250000*%
%ADD13C,1.700000*%
%ADD14C,1.700000*%
%ADD15C,0.100000*%
%ADD16O,1.700000X1.700000*%
%ADD17R,1.700000X1.700000*%
%ADD18C,0.200000*%
%ADD19C,0.250000*%
G04 APERTURE END LIST*
D10*
X107121046Y-339630061D03*
X94194046Y-342170061D03*
D11*
X97536046Y-333090061D03*
X96881047Y-333820061D03*
D12*
X96226046Y-334550061D02*
X97536048Y-333090061D01*
D11*
X102576046Y-332010061D03*
X102556046Y-332300061D03*
D12*
X102536046Y-332590061D02*
X102576046Y-332010061D01*
D10*
X126185000Y-339630061D03*
X113258000Y-342170061D03*
D11*
X116600000Y-333090061D03*
X115945001Y-333820061D03*
D12*
X115290000Y-334550061D02*
X116600002Y-333090061D01*
D11*
X121640000Y-332010061D03*
X121620000Y-332300061D03*
D12*
X121600000Y-332590061D02*
X121640000Y-332010061D01*
D13*
X124447136Y-323218390D03*
D14*
X124447136Y-323218390D02*
X124447136Y-323218390D01*
D13*
X121993684Y-323875790D03*
D14*
X121993684Y-323875790D02*
X121993684Y-323875790D01*
D13*
X119540233Y-324533191D03*
D14*
X119540233Y-324533191D02*
X119540233Y-324533191D01*
D13*
X117086781Y-325190591D03*
D15*
G36*
X116045748Y-324589550D02*
G01*
X117687822Y-324149558D01*
X118127814Y-325791632D01*
X116485740Y-326231624D01*
X116045748Y-324589550D01*
X116045748Y-324589550D01*
G37*
D16*
X90963380Y-346777892D03*
X90963380Y-344237892D03*
X90963380Y-341697892D03*
D17*
X90963380Y-339157892D03*
D16*
X129681859Y-343278713D03*
X129681859Y-340738713D03*
X129681859Y-338198713D03*
D17*
X129681859Y-335658713D03*
D16*
X103790670Y-346874574D03*
X101250670Y-346874574D03*
X98710670Y-346874574D03*
D17*
X96170670Y-346874574D03*
D18*
X122220000Y-332590061D02*
X121600000Y-332590061D01*
X126185000Y-336555061D02*
X122220000Y-332590061D01*
X126185000Y-339630061D02*
X126185000Y-336555061D01*
X126185000Y-341080061D02*
X126185000Y-339630061D01*
X122165061Y-345100000D02*
X126185000Y-341080061D01*
X103790670Y-346874574D02*
X105565244Y-345100000D01*
X105565244Y-345100000D02*
X122165061Y-345100000D01*
X107121046Y-341278954D02*
X107121046Y-339630061D01*
X104450000Y-343950000D02*
X107121046Y-341278954D01*
X98710670Y-346874574D02*
X101635244Y-343950000D01*
X101635244Y-343950000D02*
X104450000Y-343950000D01*
X103785061Y-332010061D02*
X102576046Y-332010061D01*
X107121046Y-339630061D02*
X107121046Y-335346046D01*
X107121046Y-335346046D02*
X103785061Y-332010061D01*
D19*
X96806000Y-331185015D02*
X96761046Y-331140061D01*
X96761046Y-331140061D02*
X96761046Y-332690061D01*
X96761046Y-332690061D02*
X97974985Y-333904000D01*
D18*
X94219046Y-342170061D02*
X94194046Y-342170061D01*
X96170670Y-344121685D02*
X94219046Y-342170061D01*
X96170670Y-346874574D02*
X96170670Y-344121685D01*
X113233000Y-342170061D02*
X113258000Y-342170061D01*
X111783000Y-340720061D02*
X113233000Y-342170061D01*
X111783000Y-336217000D02*
X111783000Y-340720061D01*
X115290000Y-334550061D02*
X113449939Y-334550061D01*
X113449939Y-334550061D02*
X111783000Y-336217000D01*
X96875000Y-335199015D02*
X96226046Y-334550061D01*
X96875000Y-338625000D02*
X96875000Y-335199015D01*
X94194046Y-342170061D02*
X94194046Y-341305954D01*
X94194046Y-341305954D02*
X96875000Y-338625000D01*
X115475001Y-331965062D02*
X116600000Y-333090061D01*
X113509939Y-330000000D02*
X115475001Y-331965062D01*
X100626107Y-330000000D02*
X113509939Y-330000000D01*
X96226046Y-334550061D02*
X96226046Y-334400061D01*
X96226046Y-334400061D02*
X100626107Y-330000000D01*
M02*
