G04 #@! TF.GenerationSoftware,KiCad,Pcbnew,(5.1.4)-1*
G04 #@! TF.CreationDate,2023-01-09T13:42:12-05:00*
G04 #@! TF.ProjectId,ThumbsUp,5468756d-6273-4557-902e-6b696361645f,rev?*
G04 #@! TF.SameCoordinates,Original*
G04 #@! TF.FileFunction,Copper,L2,Bot*
G04 #@! TF.FilePolarity,Positive*
%FSLAX46Y46*%
G04 Gerber Fmt 4.6, Leading zero omitted, Abs format (unit mm)*
G04 Created by KiCad (PCBNEW (5.1.4)-1) date 2023-01-09 13:42:12*
%MOMM*%
%LPD*%
G04 APERTURE LIST*
%ADD10C,1.700000*%
%ADD11C,1.700000*%
%ADD12C,0.100000*%
%ADD13O,1.700000X1.700000*%
%ADD14R,1.700000X1.700000*%
%ADD15R,2.600000X2.600000*%
%ADD16C,0.250000*%
G04 APERTURE END LIST*
D10*
X124447136Y-343218390D03*
D11*
X124447136Y-343218390D02*
X124447136Y-343218390D01*
D10*
X121993684Y-343875790D03*
D11*
X121993684Y-343875790D02*
X121993684Y-343875790D01*
D10*
X119540233Y-344533191D03*
D11*
X119540233Y-344533191D02*
X119540233Y-344533191D01*
D10*
X117086781Y-345190591D03*
D12*
G36*
X116045748Y-344589550D02*
G01*
X117687822Y-344149558D01*
X118127814Y-345791632D01*
X116485740Y-346231624D01*
X116045748Y-344589550D01*
X116045748Y-344589550D01*
G37*
D13*
X90963380Y-366777892D03*
X90963380Y-364237892D03*
X90963380Y-361697892D03*
D14*
X90963380Y-359157892D03*
D15*
X96761046Y-351140061D03*
X108311046Y-353340061D03*
X115261045Y-351140061D03*
X126811045Y-353340061D03*
D13*
X129681859Y-363278713D03*
X129681859Y-360738713D03*
X129681859Y-358198713D03*
D14*
X129681859Y-355658713D03*
D13*
X103790670Y-366874574D03*
X101250670Y-366874574D03*
X98710670Y-366874574D03*
D14*
X96170670Y-366874574D03*
D16*
X103790670Y-362519330D02*
X103790670Y-366874574D01*
X105206000Y-361104000D02*
X103790670Y-362519330D01*
X123306000Y-361104000D02*
X105206000Y-361104000D01*
X126811045Y-353340061D02*
X126811045Y-357598955D01*
X126811045Y-357598955D02*
X123306000Y-361104000D01*
X108311046Y-357274198D02*
X98710670Y-366874574D01*
X108311046Y-353340061D02*
X108311046Y-357274198D01*
X115261045Y-351140061D02*
X115261045Y-349590061D01*
X115261045Y-349590061D02*
X114374984Y-348704000D01*
X96761046Y-352690061D02*
X97974985Y-353904000D01*
X96761046Y-351140061D02*
X96761046Y-352690061D01*
X101771105Y-353904000D02*
X102506000Y-353169105D01*
X97974985Y-353904000D02*
X101771105Y-353904000D01*
X102506000Y-353169105D02*
X102506000Y-349904000D01*
X103706000Y-348704000D02*
X114374984Y-348704000D01*
X102506000Y-349904000D02*
X103706000Y-348704000D01*
X96806000Y-351185015D02*
X96761046Y-351140061D01*
X96170670Y-366874574D02*
X96806000Y-366239244D01*
X96806000Y-366239244D02*
X96806000Y-351185015D01*
M02*
