G04 #@! TF.GenerationSoftware,KiCad,Pcbnew,(5.1.4)-1*
G04 #@! TF.CreationDate,2023-01-09T13:42:12-05:00*
G04 #@! TF.ProjectId,ThumbsUp,5468756d-6273-4557-902e-6b696361645f,rev?*
G04 #@! TF.SameCoordinates,Original*
G04 #@! TF.FileFunction,Legend,Bot*
G04 #@! TF.FilePolarity,Positive*
%FSLAX46Y46*%
G04 Gerber Fmt 4.6, Leading zero omitted, Abs format (unit mm)*
G04 Created by KiCad (PCBNEW (5.1.4)-1) date 2023-01-09 13:42:12*
%MOMM*%
%LPD*%
G04 APERTURE LIST*
%ADD10C,0.150000*%
%ADD11C,0.120000*%
G04 APERTURE END LIST*
D10*
X106206513Y-375673139D02*
X106648029Y-375494755D01*
X106273422Y-374567571D01*
X105701229Y-375312340D02*
X105392167Y-375437209D01*
X105455935Y-375976392D02*
X105897451Y-375798008D01*
X105522845Y-374870824D01*
X105081329Y-375049208D01*
X104553287Y-375776139D02*
X104862348Y-375651270D01*
X105058571Y-376136938D02*
X104683964Y-375209754D01*
X104242448Y-375388138D01*
X104021690Y-375477330D02*
X103491870Y-375691391D01*
X104131387Y-376511545D02*
X103756780Y-375584361D01*
X109365791Y-375611343D02*
X109674852Y-375486474D01*
X109871075Y-375972142D02*
X109496468Y-375044958D01*
X109054952Y-375223342D01*
X108546526Y-376507294D02*
X108677204Y-375940909D01*
X109076346Y-376293233D02*
X108701739Y-375366050D01*
X108348526Y-375508757D01*
X108278061Y-375588585D01*
X108251748Y-375650575D01*
X108243273Y-375756717D01*
X108296789Y-375889172D01*
X108376617Y-375959637D01*
X108438607Y-375985950D01*
X108544749Y-375994425D01*
X108897962Y-375851717D01*
X107597949Y-375812010D02*
X107421342Y-375883364D01*
X107350878Y-375963192D01*
X107298251Y-376087172D01*
X107325453Y-376281617D01*
X107450322Y-376590678D01*
X107565827Y-376749446D01*
X107689807Y-376802073D01*
X107795949Y-376810547D01*
X107972555Y-376739194D01*
X108043020Y-376659365D01*
X108095647Y-376535385D01*
X108068445Y-376340940D01*
X107943576Y-376031879D01*
X107828071Y-375873111D01*
X107704090Y-375820485D01*
X107597949Y-375812010D01*
X107177826Y-377060285D02*
X106803220Y-376133101D01*
X106761735Y-376920244D01*
X106185097Y-376382839D01*
X106559704Y-377310023D01*
X104906478Y-377413023D02*
X104791862Y-377510689D01*
X104765549Y-377572679D01*
X104757074Y-377678821D01*
X104810589Y-377811276D01*
X104890417Y-377881741D01*
X104952407Y-377908054D01*
X105058549Y-377916529D01*
X105411762Y-377773821D01*
X105037155Y-376846638D01*
X104728094Y-376971506D01*
X104657629Y-377051335D01*
X104631316Y-377113325D01*
X104622841Y-377219467D01*
X104658518Y-377307770D01*
X104738346Y-377378235D01*
X104800337Y-377404548D01*
X104906478Y-377413023D01*
X105215539Y-377288154D01*
X104288356Y-377662760D02*
X103979294Y-377787629D01*
X104043062Y-378326812D02*
X104484578Y-378148428D01*
X104109971Y-377221244D01*
X103668455Y-377399628D01*
X103204181Y-378665742D02*
X103645697Y-378487358D01*
X103271091Y-377560174D01*
X102343907Y-377934781D02*
X102167301Y-378006134D01*
X102096836Y-378085963D01*
X102044209Y-378209943D01*
X102071411Y-378404388D01*
X102196280Y-378713449D01*
X102311785Y-378872217D01*
X102435766Y-378924843D01*
X102541907Y-378933318D01*
X102718514Y-378861964D01*
X102788978Y-378782136D01*
X102841605Y-378658156D01*
X102814403Y-378463711D01*
X102689534Y-378154650D01*
X102574029Y-377995882D01*
X102450049Y-377943255D01*
X102343907Y-377934781D01*
X101637481Y-378220195D02*
X101791330Y-379236571D01*
X101347147Y-378645650D01*
X101438117Y-379379278D01*
X100842752Y-378541286D01*
D11*
X115457870Y-344250139D02*
X115802100Y-345534820D01*
X116742552Y-343905910D02*
X115457870Y-344250139D01*
X117969277Y-343577209D02*
X118657736Y-346146572D01*
X118657736Y-346146572D02*
X126076046Y-344158842D01*
X117969277Y-343577209D02*
X125387588Y-341589479D01*
X125387588Y-341589479D02*
X126076046Y-344158842D01*
X92293380Y-357827892D02*
X90963380Y-357827892D01*
X92293380Y-359157892D02*
X92293380Y-357827892D01*
X92293380Y-360427892D02*
X89633380Y-360427892D01*
X89633380Y-360427892D02*
X89633380Y-368107892D01*
X92293380Y-360427892D02*
X92293380Y-368107892D01*
X92293380Y-368107892D02*
X89633380Y-368107892D01*
D10*
X102536046Y-354890061D02*
X102536046Y-355590061D01*
X102536046Y-355590061D02*
X107036046Y-355590061D01*
X101036046Y-353390061D02*
G75*
G02X102536046Y-354890061I0J-1500000D01*
G01*
X101536046Y-348890061D02*
X102036046Y-349390061D01*
X102036046Y-350390061D02*
X102036046Y-349390061D01*
X107036046Y-350890061D02*
X102536046Y-350890061D01*
X98036046Y-352890061D02*
X98536046Y-353390061D01*
X107036046Y-351490061D02*
X107036046Y-350890061D01*
X98536046Y-353390061D02*
X101036046Y-353390061D01*
X98036046Y-349390061D02*
X98536046Y-348890061D01*
X98536046Y-348890061D02*
X101536046Y-348890061D01*
X102536046Y-350890061D02*
G75*
G02X102036046Y-350390061I0J500000D01*
G01*
X107036046Y-355590061D02*
X107036046Y-355090061D01*
X121036045Y-354890061D02*
X121036045Y-355590061D01*
X121036045Y-355590061D02*
X125536045Y-355590061D01*
X119536045Y-353390061D02*
G75*
G02X121036045Y-354890061I0J-1500000D01*
G01*
X120036045Y-348890061D02*
X120536045Y-349390061D01*
X120536045Y-350390061D02*
X120536045Y-349390061D01*
X125536045Y-350890061D02*
X121036045Y-350890061D01*
X116536045Y-352890061D02*
X117036045Y-353390061D01*
X125536045Y-351490061D02*
X125536045Y-350890061D01*
X117036045Y-353390061D02*
X119536045Y-353390061D01*
X116536045Y-349390061D02*
X117036045Y-348890061D01*
X117036045Y-348890061D02*
X120036045Y-348890061D01*
X121036045Y-350890061D02*
G75*
G02X120536045Y-350390061I0J500000D01*
G01*
X125536045Y-355590061D02*
X125536045Y-355090061D01*
D11*
X131011859Y-354328713D02*
X129681859Y-354328713D01*
X131011859Y-355658713D02*
X131011859Y-354328713D01*
X131011859Y-356928713D02*
X128351859Y-356928713D01*
X128351859Y-356928713D02*
X128351859Y-364608713D01*
X131011859Y-356928713D02*
X131011859Y-364608713D01*
X131011859Y-364608713D02*
X128351859Y-364608713D01*
X94840670Y-365544574D02*
X94840670Y-366874574D01*
X96170670Y-365544574D02*
X94840670Y-365544574D01*
X97440670Y-365544574D02*
X97440670Y-368204574D01*
X97440670Y-368204574D02*
X105120670Y-368204574D01*
X97440670Y-365544574D02*
X105120670Y-365544574D01*
X105120670Y-365544574D02*
X105120670Y-368204574D01*
D10*
X115574653Y-346433844D02*
X114884706Y-346618715D01*
X114759041Y-346701686D01*
X114691698Y-346818328D01*
X114682676Y-346968642D01*
X114707325Y-347060635D01*
X114349908Y-345726737D02*
X114497805Y-346278695D01*
X114423856Y-346002716D02*
X115389782Y-345743897D01*
X115276442Y-345872864D01*
X115209099Y-345989507D01*
X115187752Y-346093824D01*
X114753969Y-345026883D02*
X114824615Y-345106551D01*
X114882936Y-345140223D01*
X114987254Y-345161570D01*
X115033250Y-345149246D01*
X115112919Y-345078600D01*
X115146590Y-345020278D01*
X115167937Y-344915961D01*
X115118639Y-344731975D01*
X115047993Y-344652307D01*
X114989671Y-344618635D01*
X114885354Y-344597288D01*
X114839357Y-344609613D01*
X114759689Y-344680259D01*
X114726017Y-344738580D01*
X114704670Y-344842897D01*
X114753969Y-345026883D01*
X114732622Y-345131201D01*
X114698950Y-345189522D01*
X114619282Y-345260168D01*
X114435296Y-345309467D01*
X114330979Y-345288120D01*
X114272657Y-345254448D01*
X114202012Y-345174780D01*
X114152713Y-344990794D01*
X114174060Y-344886476D01*
X114207732Y-344828155D01*
X114287400Y-344757509D01*
X114471386Y-344708210D01*
X114575703Y-344729557D01*
X114634024Y-344763229D01*
X114704670Y-344842897D01*
X91772903Y-356280272D02*
X91772903Y-356994558D01*
X91820522Y-357137415D01*
X91915760Y-357232653D01*
X92058618Y-357280272D01*
X92153856Y-357280272D01*
X90772903Y-357280272D02*
X91344332Y-357280272D01*
X91058618Y-357280272D02*
X91058618Y-356280272D01*
X91153856Y-356423130D01*
X91249094Y-356518368D01*
X91344332Y-356565987D01*
X90153856Y-356280272D02*
X90058618Y-356280272D01*
X89963380Y-356327892D01*
X89915760Y-356375511D01*
X89868141Y-356470749D01*
X89820522Y-356661225D01*
X89820522Y-356899320D01*
X89868141Y-357089796D01*
X89915760Y-357185034D01*
X89963380Y-357232653D01*
X90058618Y-357280272D01*
X90153856Y-357280272D01*
X90249094Y-357232653D01*
X90296713Y-357185034D01*
X90344332Y-357089796D01*
X90391951Y-356899320D01*
X90391951Y-356661225D01*
X90344332Y-356470749D01*
X90296713Y-356375511D01*
X90249094Y-356327892D01*
X90153856Y-356280272D01*
X106242950Y-349922441D02*
X106242950Y-348922441D01*
X105909617Y-349636727D01*
X105576284Y-348922441D01*
X105576284Y-349922441D01*
X105195331Y-348922441D02*
X104528665Y-349922441D01*
X104528665Y-348922441D02*
X105195331Y-349922441D01*
X104195331Y-349017680D02*
X104147712Y-348970061D01*
X104052474Y-348922441D01*
X103814379Y-348922441D01*
X103719141Y-348970061D01*
X103671522Y-349017680D01*
X103623903Y-349112918D01*
X103623903Y-349208156D01*
X103671522Y-349351013D01*
X104242950Y-349922441D01*
X103623903Y-349922441D01*
X103242950Y-349017680D02*
X103195331Y-348970061D01*
X103100093Y-348922441D01*
X102861998Y-348922441D01*
X102766760Y-348970061D01*
X102719141Y-349017680D01*
X102671522Y-349112918D01*
X102671522Y-349208156D01*
X102719141Y-349351013D01*
X103290569Y-349922441D01*
X102671522Y-349922441D01*
X124742949Y-349922441D02*
X124742949Y-348922441D01*
X124409616Y-349636727D01*
X124076283Y-348922441D01*
X124076283Y-349922441D01*
X123695330Y-348922441D02*
X123028664Y-349922441D01*
X123028664Y-348922441D02*
X123695330Y-349922441D01*
X122123902Y-349922441D02*
X122695330Y-349922441D01*
X122409616Y-349922441D02*
X122409616Y-348922441D01*
X122504854Y-349065299D01*
X122600092Y-349160537D01*
X122695330Y-349208156D01*
X121552473Y-349351013D02*
X121647711Y-349303394D01*
X121695330Y-349255775D01*
X121742949Y-349160537D01*
X121742949Y-349112918D01*
X121695330Y-349017680D01*
X121647711Y-348970061D01*
X121552473Y-348922441D01*
X121361997Y-348922441D01*
X121266759Y-348970061D01*
X121219140Y-349017680D01*
X121171521Y-349112918D01*
X121171521Y-349160537D01*
X121219140Y-349255775D01*
X121266759Y-349303394D01*
X121361997Y-349351013D01*
X121552473Y-349351013D01*
X121647711Y-349398632D01*
X121695330Y-349446251D01*
X121742949Y-349541489D01*
X121742949Y-349731965D01*
X121695330Y-349827203D01*
X121647711Y-349874822D01*
X121552473Y-349922441D01*
X121361997Y-349922441D01*
X121266759Y-349874822D01*
X121219140Y-349827203D01*
X121171521Y-349731965D01*
X121171521Y-349541489D01*
X121219140Y-349446251D01*
X121266759Y-349398632D01*
X121361997Y-349351013D01*
X130491382Y-352781093D02*
X130491382Y-353495379D01*
X130539001Y-353638236D01*
X130634239Y-353733474D01*
X130777097Y-353781093D01*
X130872335Y-353781093D01*
X129491382Y-353781093D02*
X130062811Y-353781093D01*
X129777097Y-353781093D02*
X129777097Y-352781093D01*
X129872335Y-352923951D01*
X129967573Y-353019189D01*
X130062811Y-353066808D01*
X128634239Y-353114427D02*
X128634239Y-353781093D01*
X128872335Y-352733474D02*
X129110430Y-353447760D01*
X128491382Y-353447760D01*
X93293050Y-366541240D02*
X94007336Y-366541240D01*
X94150193Y-366493621D01*
X94245431Y-366398383D01*
X94293050Y-366255526D01*
X94293050Y-366160288D01*
X93626384Y-367446002D02*
X94293050Y-367446002D01*
X93245431Y-367207907D02*
X93959717Y-366969812D01*
X93959717Y-367588859D01*
M02*
