G04 #@! TF.GenerationSoftware,KiCad,Pcbnew,(5.1.4)-1*
G04 #@! TF.CreationDate,2023-02-10T21:12:28-05:00*
G04 #@! TF.ProjectId,ThumbsUp,5468756d-6273-4557-902e-6b696361645f,rev?*
G04 #@! TF.SameCoordinates,Original*
G04 #@! TF.FileFunction,Soldermask,Top*
G04 #@! TF.FilePolarity,Negative*
%FSLAX46Y46*%
G04 Gerber Fmt 4.6, Leading zero omitted, Abs format (unit mm)*
G04 Created by KiCad (PCBNEW (5.1.4)-1) date 2023-02-10 21:12:28*
%MOMM*%
%LPD*%
G04 APERTURE LIST*
%ADD10C,0.100000*%
G04 APERTURE END LIST*
D10*
G36*
X97071670Y-347775574D02*
G01*
X95269670Y-347775574D01*
X95269670Y-345973574D01*
X97071670Y-345973574D01*
X97071670Y-347775574D01*
X97071670Y-347775574D01*
G37*
G36*
X98821112Y-345980092D02*
G01*
X98887297Y-345986611D01*
X99057136Y-346038131D01*
X99213661Y-346121796D01*
X99233047Y-346137706D01*
X99350856Y-346234388D01*
X99434118Y-346335845D01*
X99463448Y-346371583D01*
X99547113Y-346528108D01*
X99598633Y-346697947D01*
X99616029Y-346874574D01*
X99598633Y-347051201D01*
X99547113Y-347221040D01*
X99463448Y-347377565D01*
X99434118Y-347413303D01*
X99350856Y-347514760D01*
X99249399Y-347598022D01*
X99213661Y-347627352D01*
X99057136Y-347711017D01*
X98887297Y-347762537D01*
X98821113Y-347769055D01*
X98754930Y-347775574D01*
X98666410Y-347775574D01*
X98600227Y-347769055D01*
X98534043Y-347762537D01*
X98364204Y-347711017D01*
X98207679Y-347627352D01*
X98171941Y-347598022D01*
X98070484Y-347514760D01*
X97987222Y-347413303D01*
X97957892Y-347377565D01*
X97874227Y-347221040D01*
X97822707Y-347051201D01*
X97805311Y-346874574D01*
X97822707Y-346697947D01*
X97874227Y-346528108D01*
X97957892Y-346371583D01*
X97987222Y-346335845D01*
X98070484Y-346234388D01*
X98188293Y-346137706D01*
X98207679Y-346121796D01*
X98364204Y-346038131D01*
X98534043Y-345986611D01*
X98600228Y-345980092D01*
X98666410Y-345973574D01*
X98754930Y-345973574D01*
X98821112Y-345980092D01*
X98821112Y-345980092D01*
G37*
G36*
X103901112Y-345980092D02*
G01*
X103967297Y-345986611D01*
X104137136Y-346038131D01*
X104293661Y-346121796D01*
X104313047Y-346137706D01*
X104430856Y-346234388D01*
X104514118Y-346335845D01*
X104543448Y-346371583D01*
X104627113Y-346528108D01*
X104678633Y-346697947D01*
X104696029Y-346874574D01*
X104678633Y-347051201D01*
X104627113Y-347221040D01*
X104543448Y-347377565D01*
X104514118Y-347413303D01*
X104430856Y-347514760D01*
X104329399Y-347598022D01*
X104293661Y-347627352D01*
X104137136Y-347711017D01*
X103967297Y-347762537D01*
X103901113Y-347769055D01*
X103834930Y-347775574D01*
X103746410Y-347775574D01*
X103680227Y-347769055D01*
X103614043Y-347762537D01*
X103444204Y-347711017D01*
X103287679Y-347627352D01*
X103251941Y-347598022D01*
X103150484Y-347514760D01*
X103067222Y-347413303D01*
X103037892Y-347377565D01*
X102954227Y-347221040D01*
X102902707Y-347051201D01*
X102885311Y-346874574D01*
X102902707Y-346697947D01*
X102954227Y-346528108D01*
X103037892Y-346371583D01*
X103067222Y-346335845D01*
X103150484Y-346234388D01*
X103268293Y-346137706D01*
X103287679Y-346121796D01*
X103444204Y-346038131D01*
X103614043Y-345986611D01*
X103680228Y-345980092D01*
X103746410Y-345973574D01*
X103834930Y-345973574D01*
X103901112Y-345980092D01*
X103901112Y-345980092D01*
G37*
G36*
X101361112Y-345980092D02*
G01*
X101427297Y-345986611D01*
X101597136Y-346038131D01*
X101753661Y-346121796D01*
X101773047Y-346137706D01*
X101890856Y-346234388D01*
X101974118Y-346335845D01*
X102003448Y-346371583D01*
X102087113Y-346528108D01*
X102138633Y-346697947D01*
X102156029Y-346874574D01*
X102138633Y-347051201D01*
X102087113Y-347221040D01*
X102003448Y-347377565D01*
X101974118Y-347413303D01*
X101890856Y-347514760D01*
X101789399Y-347598022D01*
X101753661Y-347627352D01*
X101597136Y-347711017D01*
X101427297Y-347762537D01*
X101361113Y-347769055D01*
X101294930Y-347775574D01*
X101206410Y-347775574D01*
X101140227Y-347769055D01*
X101074043Y-347762537D01*
X100904204Y-347711017D01*
X100747679Y-347627352D01*
X100711941Y-347598022D01*
X100610484Y-347514760D01*
X100527222Y-347413303D01*
X100497892Y-347377565D01*
X100414227Y-347221040D01*
X100362707Y-347051201D01*
X100345311Y-346874574D01*
X100362707Y-346697947D01*
X100414227Y-346528108D01*
X100497892Y-346371583D01*
X100527222Y-346335845D01*
X100610484Y-346234388D01*
X100728293Y-346137706D01*
X100747679Y-346121796D01*
X100904204Y-346038131D01*
X101074043Y-345986611D01*
X101140228Y-345980092D01*
X101206410Y-345973574D01*
X101294930Y-345973574D01*
X101361112Y-345980092D01*
X101361112Y-345980092D01*
G37*
G36*
X91073823Y-345883411D02*
G01*
X91140007Y-345889929D01*
X91309846Y-345941449D01*
X91466371Y-346025114D01*
X91482232Y-346038131D01*
X91603566Y-346137706D01*
X91686828Y-346239163D01*
X91716158Y-346274901D01*
X91799823Y-346431426D01*
X91851343Y-346601265D01*
X91868739Y-346777892D01*
X91851343Y-346954519D01*
X91799823Y-347124358D01*
X91716158Y-347280883D01*
X91686828Y-347316621D01*
X91603566Y-347418078D01*
X91502109Y-347501340D01*
X91466371Y-347530670D01*
X91309846Y-347614335D01*
X91140007Y-347665855D01*
X91073822Y-347672374D01*
X91007640Y-347678892D01*
X90919120Y-347678892D01*
X90852938Y-347672374D01*
X90786753Y-347665855D01*
X90616914Y-347614335D01*
X90460389Y-347530670D01*
X90424651Y-347501340D01*
X90323194Y-347418078D01*
X90239932Y-347316621D01*
X90210602Y-347280883D01*
X90126937Y-347124358D01*
X90075417Y-346954519D01*
X90058021Y-346777892D01*
X90075417Y-346601265D01*
X90126937Y-346431426D01*
X90210602Y-346274901D01*
X90239932Y-346239163D01*
X90323194Y-346137706D01*
X90444528Y-346038131D01*
X90460389Y-346025114D01*
X90616914Y-345941449D01*
X90786753Y-345889929D01*
X90852937Y-345883411D01*
X90919120Y-345876892D01*
X91007640Y-345876892D01*
X91073823Y-345883411D01*
X91073823Y-345883411D01*
G37*
G36*
X91073823Y-343343411D02*
G01*
X91140007Y-343349929D01*
X91309846Y-343401449D01*
X91466371Y-343485114D01*
X91502109Y-343514444D01*
X91603566Y-343597706D01*
X91655884Y-343661457D01*
X91716158Y-343734901D01*
X91799823Y-343891426D01*
X91851343Y-344061265D01*
X91868739Y-344237892D01*
X91851343Y-344414519D01*
X91799823Y-344584358D01*
X91716158Y-344740883D01*
X91686828Y-344776621D01*
X91603566Y-344878078D01*
X91502109Y-344961340D01*
X91466371Y-344990670D01*
X91309846Y-345074335D01*
X91140007Y-345125855D01*
X91073822Y-345132374D01*
X91007640Y-345138892D01*
X90919120Y-345138892D01*
X90852938Y-345132374D01*
X90786753Y-345125855D01*
X90616914Y-345074335D01*
X90460389Y-344990670D01*
X90424651Y-344961340D01*
X90323194Y-344878078D01*
X90239932Y-344776621D01*
X90210602Y-344740883D01*
X90126937Y-344584358D01*
X90075417Y-344414519D01*
X90058021Y-344237892D01*
X90075417Y-344061265D01*
X90126937Y-343891426D01*
X90210602Y-343734901D01*
X90270876Y-343661457D01*
X90323194Y-343597706D01*
X90424651Y-343514444D01*
X90460389Y-343485114D01*
X90616914Y-343401449D01*
X90786753Y-343349929D01*
X90852937Y-343343411D01*
X90919120Y-343336892D01*
X91007640Y-343336892D01*
X91073823Y-343343411D01*
X91073823Y-343343411D01*
G37*
G36*
X129792301Y-342384231D02*
G01*
X129858486Y-342390750D01*
X130028325Y-342442270D01*
X130184850Y-342525935D01*
X130195084Y-342534334D01*
X130322045Y-342638527D01*
X130405307Y-342739984D01*
X130434637Y-342775722D01*
X130518302Y-342932247D01*
X130569822Y-343102086D01*
X130587218Y-343278713D01*
X130569822Y-343455340D01*
X130518302Y-343625179D01*
X130434637Y-343781704D01*
X130405307Y-343817442D01*
X130322045Y-343918899D01*
X130220588Y-344002161D01*
X130184850Y-344031491D01*
X130028325Y-344115156D01*
X129858486Y-344166676D01*
X129792301Y-344173195D01*
X129726119Y-344179713D01*
X129637599Y-344179713D01*
X129571417Y-344173195D01*
X129505232Y-344166676D01*
X129335393Y-344115156D01*
X129178868Y-344031491D01*
X129143130Y-344002161D01*
X129041673Y-343918899D01*
X128958411Y-343817442D01*
X128929081Y-343781704D01*
X128845416Y-343625179D01*
X128793896Y-343455340D01*
X128776500Y-343278713D01*
X128793896Y-343102086D01*
X128845416Y-342932247D01*
X128929081Y-342775722D01*
X128958411Y-342739984D01*
X129041673Y-342638527D01*
X129168634Y-342534334D01*
X129178868Y-342525935D01*
X129335393Y-342442270D01*
X129505232Y-342390750D01*
X129571417Y-342384231D01*
X129637599Y-342377713D01*
X129726119Y-342377713D01*
X129792301Y-342384231D01*
X129792301Y-342384231D01*
G37*
G36*
X116862585Y-340648863D02*
G01*
X117012410Y-340678665D01*
X117294674Y-340795582D01*
X117548705Y-340965320D01*
X117764741Y-341181356D01*
X117934479Y-341435387D01*
X118051396Y-341717651D01*
X118051396Y-341717652D01*
X118111000Y-342017300D01*
X118111000Y-342322822D01*
X118107965Y-342338078D01*
X118051396Y-342622471D01*
X117934479Y-342904735D01*
X117764741Y-343158766D01*
X117548705Y-343374802D01*
X117294674Y-343544540D01*
X117012410Y-343661457D01*
X116862585Y-343691259D01*
X116712761Y-343721061D01*
X116407239Y-343721061D01*
X116257415Y-343691259D01*
X116107590Y-343661457D01*
X115825326Y-343544540D01*
X115571295Y-343374802D01*
X115355259Y-343158766D01*
X115185521Y-342904735D01*
X115068604Y-342622471D01*
X115012035Y-342338078D01*
X115009000Y-342322822D01*
X115009000Y-342017300D01*
X115068604Y-341717652D01*
X115068604Y-341717651D01*
X115185521Y-341435387D01*
X115355259Y-341181356D01*
X115571295Y-340965320D01*
X115825326Y-340795582D01*
X116107590Y-340678665D01*
X116257415Y-340648863D01*
X116407239Y-340619061D01*
X116712761Y-340619061D01*
X116862585Y-340648863D01*
X116862585Y-340648863D01*
G37*
G36*
X97798631Y-340648863D02*
G01*
X97948456Y-340678665D01*
X98230720Y-340795582D01*
X98484751Y-340965320D01*
X98700787Y-341181356D01*
X98870525Y-341435387D01*
X98987442Y-341717651D01*
X98987442Y-341717652D01*
X99047046Y-342017300D01*
X99047046Y-342322822D01*
X99044011Y-342338078D01*
X98987442Y-342622471D01*
X98870525Y-342904735D01*
X98700787Y-343158766D01*
X98484751Y-343374802D01*
X98230720Y-343544540D01*
X97948456Y-343661457D01*
X97798631Y-343691259D01*
X97648807Y-343721061D01*
X97343285Y-343721061D01*
X97193461Y-343691259D01*
X97043636Y-343661457D01*
X96761372Y-343544540D01*
X96507341Y-343374802D01*
X96291305Y-343158766D01*
X96121567Y-342904735D01*
X96004650Y-342622471D01*
X95948081Y-342338078D01*
X95945046Y-342322822D01*
X95945046Y-342017300D01*
X96004650Y-341717652D01*
X96004650Y-341717651D01*
X96121567Y-341435387D01*
X96291305Y-341181356D01*
X96507341Y-340965320D01*
X96761372Y-340795582D01*
X97043636Y-340678665D01*
X97193461Y-340648863D01*
X97343285Y-340619061D01*
X97648807Y-340619061D01*
X97798631Y-340648863D01*
X97798631Y-340648863D01*
G37*
G36*
X91073823Y-340803411D02*
G01*
X91140007Y-340809929D01*
X91309846Y-340861449D01*
X91466371Y-340945114D01*
X91490992Y-340965320D01*
X91603566Y-341057706D01*
X91655884Y-341121457D01*
X91716158Y-341194901D01*
X91799823Y-341351426D01*
X91851343Y-341521265D01*
X91868739Y-341697892D01*
X91851343Y-341874519D01*
X91799823Y-342044358D01*
X91716158Y-342200883D01*
X91686828Y-342236621D01*
X91603566Y-342338078D01*
X91502109Y-342421340D01*
X91466371Y-342450670D01*
X91309846Y-342534335D01*
X91140007Y-342585855D01*
X91073822Y-342592374D01*
X91007640Y-342598892D01*
X90919120Y-342598892D01*
X90852938Y-342592374D01*
X90786753Y-342585855D01*
X90616914Y-342534335D01*
X90460389Y-342450670D01*
X90424651Y-342421340D01*
X90323194Y-342338078D01*
X90239932Y-342236621D01*
X90210602Y-342200883D01*
X90126937Y-342044358D01*
X90075417Y-341874519D01*
X90058021Y-341697892D01*
X90075417Y-341521265D01*
X90126937Y-341351426D01*
X90210602Y-341194901D01*
X90270876Y-341121457D01*
X90323194Y-341057706D01*
X90435768Y-340965320D01*
X90460389Y-340945114D01*
X90616914Y-340861449D01*
X90786753Y-340809929D01*
X90852937Y-340803411D01*
X90919120Y-340796892D01*
X91007640Y-340796892D01*
X91073823Y-340803411D01*
X91073823Y-340803411D01*
G37*
G36*
X129792302Y-339844232D02*
G01*
X129858486Y-339850750D01*
X130028325Y-339902270D01*
X130184850Y-339985935D01*
X130220588Y-340015265D01*
X130322045Y-340098527D01*
X130405307Y-340199984D01*
X130434637Y-340235722D01*
X130518302Y-340392247D01*
X130569822Y-340562086D01*
X130587218Y-340738713D01*
X130569822Y-340915340D01*
X130518302Y-341085179D01*
X130434637Y-341241704D01*
X130405307Y-341277442D01*
X130322045Y-341378899D01*
X130220588Y-341462161D01*
X130184850Y-341491491D01*
X130028325Y-341575156D01*
X129858486Y-341626676D01*
X129792301Y-341633195D01*
X129726119Y-341639713D01*
X129637599Y-341639713D01*
X129571417Y-341633195D01*
X129505232Y-341626676D01*
X129335393Y-341575156D01*
X129178868Y-341491491D01*
X129143130Y-341462161D01*
X129041673Y-341378899D01*
X128958411Y-341277442D01*
X128929081Y-341241704D01*
X128845416Y-341085179D01*
X128793896Y-340915340D01*
X128776500Y-340738713D01*
X128793896Y-340562086D01*
X128845416Y-340392247D01*
X128929081Y-340235722D01*
X128958411Y-340199984D01*
X129041673Y-340098527D01*
X129143130Y-340015265D01*
X129178868Y-339985935D01*
X129335393Y-339902270D01*
X129505232Y-339850750D01*
X129571416Y-339844232D01*
X129637599Y-339837713D01*
X129726119Y-339837713D01*
X129792302Y-339844232D01*
X129792302Y-339844232D01*
G37*
G36*
X123212585Y-338108863D02*
G01*
X123362410Y-338138665D01*
X123644674Y-338255582D01*
X123898705Y-338425320D01*
X124114741Y-338641356D01*
X124284479Y-338895387D01*
X124401396Y-339177651D01*
X124461000Y-339477301D01*
X124461000Y-339782821D01*
X124401396Y-340082471D01*
X124284479Y-340364735D01*
X124114741Y-340618766D01*
X123898705Y-340834802D01*
X123644674Y-341004540D01*
X123362410Y-341121457D01*
X123212585Y-341151259D01*
X123062761Y-341181061D01*
X122757239Y-341181061D01*
X122607415Y-341151259D01*
X122457590Y-341121457D01*
X122175326Y-341004540D01*
X121921295Y-340834802D01*
X121705259Y-340618766D01*
X121535521Y-340364735D01*
X121418604Y-340082471D01*
X121359000Y-339782821D01*
X121359000Y-339477301D01*
X121418604Y-339177651D01*
X121535521Y-338895387D01*
X121705259Y-338641356D01*
X121921295Y-338425320D01*
X122175326Y-338255582D01*
X122457590Y-338138665D01*
X122607415Y-338108863D01*
X122757239Y-338079061D01*
X123062761Y-338079061D01*
X123212585Y-338108863D01*
X123212585Y-338108863D01*
G37*
G36*
X104148631Y-338108863D02*
G01*
X104298456Y-338138665D01*
X104580720Y-338255582D01*
X104834751Y-338425320D01*
X105050787Y-338641356D01*
X105220525Y-338895387D01*
X105337442Y-339177651D01*
X105397046Y-339477301D01*
X105397046Y-339782821D01*
X105337442Y-340082471D01*
X105220525Y-340364735D01*
X105050787Y-340618766D01*
X104834751Y-340834802D01*
X104580720Y-341004540D01*
X104298456Y-341121457D01*
X104148631Y-341151259D01*
X103998807Y-341181061D01*
X103693285Y-341181061D01*
X103543461Y-341151259D01*
X103393636Y-341121457D01*
X103111372Y-341004540D01*
X102857341Y-340834802D01*
X102641305Y-340618766D01*
X102471567Y-340364735D01*
X102354650Y-340082471D01*
X102295046Y-339782821D01*
X102295046Y-339477301D01*
X102354650Y-339177651D01*
X102471567Y-338895387D01*
X102641305Y-338641356D01*
X102857341Y-338425320D01*
X103111372Y-338255582D01*
X103393636Y-338138665D01*
X103543461Y-338108863D01*
X103693285Y-338079061D01*
X103998807Y-338079061D01*
X104148631Y-338108863D01*
X104148631Y-338108863D01*
G37*
G36*
X91864380Y-340058892D02*
G01*
X90062380Y-340058892D01*
X90062380Y-338256892D01*
X91864380Y-338256892D01*
X91864380Y-340058892D01*
X91864380Y-340058892D01*
G37*
G36*
X100632520Y-335123745D02*
G01*
X100850520Y-335214044D01*
X101004669Y-335277894D01*
X101339594Y-335501684D01*
X101624423Y-335786513D01*
X101848213Y-336121438D01*
X101880608Y-336199647D01*
X102002362Y-336493587D01*
X102080946Y-336888655D01*
X102080946Y-337291467D01*
X102002362Y-337686535D01*
X101933722Y-337852247D01*
X101848213Y-338058684D01*
X101624423Y-338393609D01*
X101339594Y-338678438D01*
X101004669Y-338902228D01*
X100850520Y-338966078D01*
X100632520Y-339056377D01*
X100237452Y-339134961D01*
X99834640Y-339134961D01*
X99439572Y-339056377D01*
X99221572Y-338966078D01*
X99067423Y-338902228D01*
X98732498Y-338678438D01*
X98447669Y-338393609D01*
X98223879Y-338058684D01*
X98138370Y-337852247D01*
X98069730Y-337686535D01*
X97991146Y-337291467D01*
X97991146Y-336888655D01*
X98069730Y-336493587D01*
X98191484Y-336199647D01*
X98223879Y-336121438D01*
X98447669Y-335786513D01*
X98732498Y-335501684D01*
X99067423Y-335277894D01*
X99221572Y-335214044D01*
X99439572Y-335123745D01*
X99834640Y-335045161D01*
X100237452Y-335045161D01*
X100632520Y-335123745D01*
X100632520Y-335123745D01*
G37*
G36*
X119696474Y-335123745D02*
G01*
X119914474Y-335214044D01*
X120068623Y-335277894D01*
X120403548Y-335501684D01*
X120688377Y-335786513D01*
X120912167Y-336121438D01*
X120944562Y-336199647D01*
X121066316Y-336493587D01*
X121144900Y-336888655D01*
X121144900Y-337291467D01*
X121066316Y-337686535D01*
X120997676Y-337852247D01*
X120912167Y-338058684D01*
X120688377Y-338393609D01*
X120403548Y-338678438D01*
X120068623Y-338902228D01*
X119914474Y-338966078D01*
X119696474Y-339056377D01*
X119301406Y-339134961D01*
X118898594Y-339134961D01*
X118503526Y-339056377D01*
X118285526Y-338966078D01*
X118131377Y-338902228D01*
X117796452Y-338678438D01*
X117511623Y-338393609D01*
X117287833Y-338058684D01*
X117202324Y-337852247D01*
X117133684Y-337686535D01*
X117055100Y-337291467D01*
X117055100Y-336888655D01*
X117133684Y-336493587D01*
X117255438Y-336199647D01*
X117287833Y-336121438D01*
X117511623Y-335786513D01*
X117796452Y-335501684D01*
X118131377Y-335277894D01*
X118285526Y-335214044D01*
X118503526Y-335123745D01*
X118898594Y-335045161D01*
X119301406Y-335045161D01*
X119696474Y-335123745D01*
X119696474Y-335123745D01*
G37*
G36*
X129792302Y-337304232D02*
G01*
X129858486Y-337310750D01*
X130028325Y-337362270D01*
X130184850Y-337445935D01*
X130220588Y-337475265D01*
X130322045Y-337558527D01*
X130405307Y-337659984D01*
X130434637Y-337695722D01*
X130518302Y-337852247D01*
X130569822Y-338022086D01*
X130587218Y-338198713D01*
X130569822Y-338375340D01*
X130518302Y-338545179D01*
X130434637Y-338701704D01*
X130405307Y-338737442D01*
X130322045Y-338838899D01*
X130244877Y-338902228D01*
X130184850Y-338951491D01*
X130028325Y-339035156D01*
X129858486Y-339086676D01*
X129792301Y-339093195D01*
X129726119Y-339099713D01*
X129637599Y-339099713D01*
X129571417Y-339093195D01*
X129505232Y-339086676D01*
X129335393Y-339035156D01*
X129178868Y-338951491D01*
X129118841Y-338902228D01*
X129041673Y-338838899D01*
X128958411Y-338737442D01*
X128929081Y-338701704D01*
X128845416Y-338545179D01*
X128793896Y-338375340D01*
X128776500Y-338198713D01*
X128793896Y-338022086D01*
X128845416Y-337852247D01*
X128929081Y-337695722D01*
X128958411Y-337659984D01*
X129041673Y-337558527D01*
X129143130Y-337475265D01*
X129178868Y-337445935D01*
X129335393Y-337362270D01*
X129505232Y-337310750D01*
X129571416Y-337304232D01*
X129637599Y-337297713D01*
X129726119Y-337297713D01*
X129792302Y-337304232D01*
X129792302Y-337304232D01*
G37*
G36*
X95226150Y-336199646D02*
G01*
X95394672Y-336269450D01*
X95546337Y-336370789D01*
X95675318Y-336499770D01*
X95776657Y-336651435D01*
X95846461Y-336819957D01*
X95882046Y-336998858D01*
X95882046Y-337181264D01*
X95846461Y-337360165D01*
X95776657Y-337528687D01*
X95675318Y-337680352D01*
X95546337Y-337809333D01*
X95394672Y-337910672D01*
X95226150Y-337980476D01*
X95047249Y-338016061D01*
X94864843Y-338016061D01*
X94685942Y-337980476D01*
X94517420Y-337910672D01*
X94365755Y-337809333D01*
X94236774Y-337680352D01*
X94135435Y-337528687D01*
X94065631Y-337360165D01*
X94030046Y-337181264D01*
X94030046Y-336998858D01*
X94065631Y-336819957D01*
X94135435Y-336651435D01*
X94236774Y-336499770D01*
X94365755Y-336370789D01*
X94517420Y-336269450D01*
X94685942Y-336199646D01*
X94864843Y-336164061D01*
X95047249Y-336164061D01*
X95226150Y-336199646D01*
X95226150Y-336199646D01*
G37*
G36*
X124450104Y-336199646D02*
G01*
X124618626Y-336269450D01*
X124770291Y-336370789D01*
X124899272Y-336499770D01*
X125000611Y-336651435D01*
X125070415Y-336819957D01*
X125106000Y-336998858D01*
X125106000Y-337181264D01*
X125070415Y-337360165D01*
X125000611Y-337528687D01*
X124899272Y-337680352D01*
X124770291Y-337809333D01*
X124618626Y-337910672D01*
X124450104Y-337980476D01*
X124271203Y-338016061D01*
X124088797Y-338016061D01*
X123909896Y-337980476D01*
X123741374Y-337910672D01*
X123589709Y-337809333D01*
X123460728Y-337680352D01*
X123359389Y-337528687D01*
X123289585Y-337360165D01*
X123254000Y-337181264D01*
X123254000Y-336998858D01*
X123289585Y-336819957D01*
X123359389Y-336651435D01*
X123460728Y-336499770D01*
X123589709Y-336370789D01*
X123741374Y-336269450D01*
X123909896Y-336199646D01*
X124088797Y-336164061D01*
X124271203Y-336164061D01*
X124450104Y-336199646D01*
X124450104Y-336199646D01*
G37*
G36*
X114290104Y-336199646D02*
G01*
X114458626Y-336269450D01*
X114610291Y-336370789D01*
X114739272Y-336499770D01*
X114840611Y-336651435D01*
X114910415Y-336819957D01*
X114946000Y-336998858D01*
X114946000Y-337181264D01*
X114910415Y-337360165D01*
X114840611Y-337528687D01*
X114739272Y-337680352D01*
X114610291Y-337809333D01*
X114458626Y-337910672D01*
X114290104Y-337980476D01*
X114111203Y-338016061D01*
X113928797Y-338016061D01*
X113749896Y-337980476D01*
X113581374Y-337910672D01*
X113429709Y-337809333D01*
X113300728Y-337680352D01*
X113199389Y-337528687D01*
X113129585Y-337360165D01*
X113094000Y-337181264D01*
X113094000Y-336998858D01*
X113129585Y-336819957D01*
X113199389Y-336651435D01*
X113300728Y-336499770D01*
X113429709Y-336370789D01*
X113581374Y-336269450D01*
X113749896Y-336199646D01*
X113928797Y-336164061D01*
X114111203Y-336164061D01*
X114290104Y-336199646D01*
X114290104Y-336199646D01*
G37*
G36*
X105386150Y-336199646D02*
G01*
X105554672Y-336269450D01*
X105706337Y-336370789D01*
X105835318Y-336499770D01*
X105936657Y-336651435D01*
X106006461Y-336819957D01*
X106042046Y-336998858D01*
X106042046Y-337181264D01*
X106006461Y-337360165D01*
X105936657Y-337528687D01*
X105835318Y-337680352D01*
X105706337Y-337809333D01*
X105554672Y-337910672D01*
X105386150Y-337980476D01*
X105207249Y-338016061D01*
X105024843Y-338016061D01*
X104845942Y-337980476D01*
X104677420Y-337910672D01*
X104525755Y-337809333D01*
X104396774Y-337680352D01*
X104295435Y-337528687D01*
X104225631Y-337360165D01*
X104190046Y-337181264D01*
X104190046Y-336998858D01*
X104225631Y-336819957D01*
X104295435Y-336651435D01*
X104396774Y-336499770D01*
X104525755Y-336370789D01*
X104677420Y-336269450D01*
X104845942Y-336199646D01*
X105024843Y-336164061D01*
X105207249Y-336164061D01*
X105386150Y-336199646D01*
X105386150Y-336199646D01*
G37*
G36*
X130582859Y-336559713D02*
G01*
X128780859Y-336559713D01*
X128780859Y-334757713D01*
X130582859Y-334757713D01*
X130582859Y-336559713D01*
X130582859Y-336559713D01*
G37*
G36*
X118190276Y-325827694D02*
G01*
X116449678Y-326294086D01*
X115983286Y-324553488D01*
X117723884Y-324087096D01*
X118190276Y-325827694D01*
X118190276Y-325827694D01*
G37*
G36*
X119650675Y-323638709D02*
G01*
X119716860Y-323645228D01*
X119886699Y-323696748D01*
X120043224Y-323780413D01*
X120078962Y-323809743D01*
X120180419Y-323893005D01*
X120263681Y-323994462D01*
X120293011Y-324030200D01*
X120376676Y-324186725D01*
X120428196Y-324356564D01*
X120445592Y-324533191D01*
X120428196Y-324709818D01*
X120376676Y-324879657D01*
X120293011Y-325036182D01*
X120263681Y-325071920D01*
X120180419Y-325173377D01*
X120078962Y-325256639D01*
X120043224Y-325285969D01*
X119886699Y-325369634D01*
X119716860Y-325421154D01*
X119650676Y-325427672D01*
X119584493Y-325434191D01*
X119495973Y-325434191D01*
X119429790Y-325427672D01*
X119363606Y-325421154D01*
X119193767Y-325369634D01*
X119037242Y-325285969D01*
X119001504Y-325256639D01*
X118900047Y-325173377D01*
X118816785Y-325071920D01*
X118787455Y-325036182D01*
X118703790Y-324879657D01*
X118652270Y-324709818D01*
X118634874Y-324533191D01*
X118652270Y-324356564D01*
X118703790Y-324186725D01*
X118787455Y-324030200D01*
X118816785Y-323994462D01*
X118900047Y-323893005D01*
X119001504Y-323809743D01*
X119037242Y-323780413D01*
X119193767Y-323696748D01*
X119363606Y-323645228D01*
X119429791Y-323638709D01*
X119495973Y-323632191D01*
X119584493Y-323632191D01*
X119650675Y-323638709D01*
X119650675Y-323638709D01*
G37*
G36*
X122104127Y-322981309D02*
G01*
X122170311Y-322987827D01*
X122340150Y-323039347D01*
X122496675Y-323123012D01*
X122532413Y-323152342D01*
X122633870Y-323235604D01*
X122717132Y-323337061D01*
X122746462Y-323372799D01*
X122830127Y-323529324D01*
X122881647Y-323699163D01*
X122899043Y-323875790D01*
X122881647Y-324052417D01*
X122830127Y-324222256D01*
X122746462Y-324378781D01*
X122717132Y-324414519D01*
X122633870Y-324515976D01*
X122532413Y-324599238D01*
X122496675Y-324628568D01*
X122340150Y-324712233D01*
X122170311Y-324763753D01*
X122104127Y-324770271D01*
X122037944Y-324776790D01*
X121949424Y-324776790D01*
X121883241Y-324770271D01*
X121817057Y-324763753D01*
X121647218Y-324712233D01*
X121490693Y-324628568D01*
X121454955Y-324599238D01*
X121353498Y-324515976D01*
X121270236Y-324414519D01*
X121240906Y-324378781D01*
X121157241Y-324222256D01*
X121105721Y-324052417D01*
X121088325Y-323875790D01*
X121105721Y-323699163D01*
X121157241Y-323529324D01*
X121240906Y-323372799D01*
X121270236Y-323337061D01*
X121353498Y-323235604D01*
X121454955Y-323152342D01*
X121490693Y-323123012D01*
X121647218Y-323039347D01*
X121817057Y-322987827D01*
X121883241Y-322981309D01*
X121949424Y-322974790D01*
X122037944Y-322974790D01*
X122104127Y-322981309D01*
X122104127Y-322981309D01*
G37*
G36*
X124557579Y-322323909D02*
G01*
X124623763Y-322330427D01*
X124793602Y-322381947D01*
X124950127Y-322465612D01*
X124985865Y-322494942D01*
X125087322Y-322578204D01*
X125170584Y-322679661D01*
X125199914Y-322715399D01*
X125283579Y-322871924D01*
X125335099Y-323041763D01*
X125352495Y-323218390D01*
X125335099Y-323395017D01*
X125283579Y-323564856D01*
X125199914Y-323721381D01*
X125170584Y-323757119D01*
X125087322Y-323858576D01*
X124985865Y-323941838D01*
X124950127Y-323971168D01*
X124793602Y-324054833D01*
X124623763Y-324106353D01*
X124557578Y-324112872D01*
X124491396Y-324119390D01*
X124402876Y-324119390D01*
X124336694Y-324112872D01*
X124270509Y-324106353D01*
X124100670Y-324054833D01*
X123944145Y-323971168D01*
X123908407Y-323941838D01*
X123806950Y-323858576D01*
X123723688Y-323757119D01*
X123694358Y-323721381D01*
X123610693Y-323564856D01*
X123559173Y-323395017D01*
X123541777Y-323218390D01*
X123559173Y-323041763D01*
X123610693Y-322871924D01*
X123694358Y-322715399D01*
X123723688Y-322679661D01*
X123806950Y-322578204D01*
X123908407Y-322494942D01*
X123944145Y-322465612D01*
X124100670Y-322381947D01*
X124270509Y-322330427D01*
X124336693Y-322323909D01*
X124402876Y-322317390D01*
X124491396Y-322317390D01*
X124557579Y-322323909D01*
X124557579Y-322323909D01*
G37*
M02*
