G04 #@! TF.GenerationSoftware,KiCad,Pcbnew,(5.1.4)-1*
G04 #@! TF.CreationDate,2023-02-10T21:12:28-05:00*
G04 #@! TF.ProjectId,ThumbsUp,5468756d-6273-4557-902e-6b696361645f,rev?*
G04 #@! TF.SameCoordinates,Original*
G04 #@! TF.FileFunction,Legend,Bot*
G04 #@! TF.FilePolarity,Positive*
%FSLAX46Y46*%
G04 Gerber Fmt 4.6, Leading zero omitted, Abs format (unit mm)*
G04 Created by KiCad (PCBNEW (5.1.4)-1) date 2023-02-10 21:12:28*
%MOMM*%
%LPD*%
G04 APERTURE LIST*
%ADD10C,0.150000*%
%ADD11C,0.120000*%
G04 APERTURE END LIST*
D10*
X184629295Y-358825026D02*
X185116740Y-358508379D01*
X185159114Y-359039087D02*
X185533721Y-358111903D01*
X185180508Y-357969196D01*
X185074366Y-357977671D01*
X185012376Y-358003984D01*
X184932548Y-358074449D01*
X184879033Y-358206904D01*
X184887508Y-358313045D01*
X184913821Y-358375035D01*
X184984286Y-358454864D01*
X185337499Y-358597571D01*
X184231931Y-358664481D02*
X184606537Y-357737297D01*
X183661515Y-357406842D02*
X183767657Y-357398367D01*
X183900111Y-357451882D01*
X184014728Y-357549549D01*
X184067354Y-357673529D01*
X184075829Y-357779671D01*
X184048627Y-357974116D01*
X183995112Y-358106570D01*
X183879607Y-358265338D01*
X183799778Y-358335803D01*
X183675798Y-358388430D01*
X183525505Y-358379066D01*
X183437202Y-358343389D01*
X183322585Y-358245722D01*
X183296272Y-358183732D01*
X183421141Y-357874671D01*
X183597747Y-357946025D01*
X182863231Y-358111490D02*
X183237837Y-357184306D01*
X183059453Y-357625822D02*
X182529634Y-357411761D01*
X182333411Y-357897429D02*
X182708018Y-356970245D01*
X182398957Y-356845376D02*
X181869137Y-356631315D01*
X181759440Y-357665530D02*
X182134047Y-356738346D01*
X180366205Y-356537679D02*
X180675266Y-356662548D01*
X180479044Y-357148216D02*
X180853650Y-356221032D01*
X180412134Y-356042648D01*
X179154495Y-356613064D02*
X179641941Y-356296416D01*
X179684315Y-356827124D02*
X180058921Y-355899941D01*
X179705708Y-355757233D01*
X179599567Y-355765708D01*
X179537577Y-355792021D01*
X179457748Y-355862486D01*
X179404233Y-355994941D01*
X179412708Y-356101083D01*
X179439021Y-356163073D01*
X179509486Y-356242901D01*
X179862699Y-356385608D01*
X178955131Y-355453980D02*
X178778524Y-355382627D01*
X178672383Y-355391102D01*
X178548403Y-355443728D01*
X178432897Y-355602496D01*
X178308029Y-355911557D01*
X178280827Y-356106002D01*
X178333453Y-356229982D01*
X178403918Y-356309811D01*
X178580524Y-356381164D01*
X178686666Y-356372689D01*
X178810646Y-356320063D01*
X178926151Y-356161295D01*
X179051020Y-355852234D01*
X179078222Y-355657789D01*
X179025596Y-355533809D01*
X178955131Y-355453980D01*
X177785795Y-356060073D02*
X178160402Y-355132889D01*
X177583764Y-355670294D01*
X177542279Y-354883151D01*
X177167673Y-355810335D01*
X175906892Y-354736000D02*
X175756599Y-354726636D01*
X175694609Y-354752949D01*
X175614780Y-354823414D01*
X175561265Y-354955869D01*
X175569740Y-355062011D01*
X175596053Y-355124001D01*
X175666518Y-355203829D01*
X176019731Y-355346536D01*
X176394337Y-354419353D01*
X176085276Y-354294484D01*
X175979134Y-354302959D01*
X175917144Y-354329272D01*
X175837316Y-354399737D01*
X175801639Y-354488040D01*
X175810114Y-354594181D01*
X175836427Y-354656171D01*
X175906892Y-354736000D01*
X176215953Y-354860869D01*
X175288769Y-354486262D02*
X174979708Y-354361393D01*
X174651031Y-354793546D02*
X175092547Y-354971930D01*
X175467153Y-354044746D01*
X175025637Y-353866362D01*
X173812150Y-354454616D02*
X174253666Y-354633000D01*
X174628273Y-353705816D01*
X173701089Y-353331210D02*
X173524483Y-353259856D01*
X173418341Y-353268331D01*
X173294361Y-353320957D01*
X173178856Y-353479725D01*
X173053987Y-353788787D01*
X173026785Y-353983231D01*
X173079411Y-354107211D01*
X173149876Y-354187040D01*
X173326482Y-354258394D01*
X173432624Y-354249919D01*
X173556604Y-354197292D01*
X173672109Y-354038524D01*
X173796978Y-353729463D01*
X173824180Y-353535018D01*
X173771554Y-353411038D01*
X173701089Y-353331210D01*
X172994663Y-353045795D02*
X172399299Y-353883787D01*
X172490268Y-353150159D01*
X172046086Y-353741080D01*
X172199934Y-352724704D01*
X106206513Y-355673139D02*
X106648029Y-355494755D01*
X106273422Y-354567571D01*
X105701229Y-355312340D02*
X105392167Y-355437209D01*
X105455935Y-355976392D02*
X105897451Y-355798008D01*
X105522845Y-354870824D01*
X105081329Y-355049208D01*
X104553287Y-355776139D02*
X104862348Y-355651270D01*
X105058571Y-356136938D02*
X104683964Y-355209754D01*
X104242448Y-355388138D01*
X104021690Y-355477330D02*
X103491870Y-355691391D01*
X104131387Y-356511545D02*
X103756780Y-355584361D01*
X109365791Y-355611343D02*
X109674852Y-355486474D01*
X109871075Y-355972142D02*
X109496468Y-355044958D01*
X109054952Y-355223342D01*
X108546526Y-356507294D02*
X108677204Y-355940909D01*
X109076346Y-356293233D02*
X108701739Y-355366050D01*
X108348526Y-355508757D01*
X108278061Y-355588585D01*
X108251748Y-355650575D01*
X108243273Y-355756717D01*
X108296789Y-355889172D01*
X108376617Y-355959637D01*
X108438607Y-355985950D01*
X108544749Y-355994425D01*
X108897962Y-355851717D01*
X107597949Y-355812010D02*
X107421342Y-355883364D01*
X107350878Y-355963192D01*
X107298251Y-356087172D01*
X107325453Y-356281617D01*
X107450322Y-356590678D01*
X107565827Y-356749446D01*
X107689807Y-356802073D01*
X107795949Y-356810547D01*
X107972555Y-356739194D01*
X108043020Y-356659365D01*
X108095647Y-356535385D01*
X108068445Y-356340940D01*
X107943576Y-356031879D01*
X107828071Y-355873111D01*
X107704090Y-355820485D01*
X107597949Y-355812010D01*
X107177826Y-357060285D02*
X106803220Y-356133101D01*
X106761735Y-356920244D01*
X106185097Y-356382839D01*
X106559704Y-357310023D01*
X104906478Y-357413023D02*
X104791862Y-357510689D01*
X104765549Y-357572679D01*
X104757074Y-357678821D01*
X104810589Y-357811276D01*
X104890417Y-357881741D01*
X104952407Y-357908054D01*
X105058549Y-357916529D01*
X105411762Y-357773821D01*
X105037155Y-356846638D01*
X104728094Y-356971506D01*
X104657629Y-357051335D01*
X104631316Y-357113325D01*
X104622841Y-357219467D01*
X104658518Y-357307770D01*
X104738346Y-357378235D01*
X104800337Y-357404548D01*
X104906478Y-357413023D01*
X105215539Y-357288154D01*
X104288356Y-357662760D02*
X103979294Y-357787629D01*
X104043062Y-358326812D02*
X104484578Y-358148428D01*
X104109971Y-357221244D01*
X103668455Y-357399628D01*
X103204181Y-358665742D02*
X103645697Y-358487358D01*
X103271091Y-357560174D01*
X102343907Y-357934781D02*
X102167301Y-358006134D01*
X102096836Y-358085963D01*
X102044209Y-358209943D01*
X102071411Y-358404388D01*
X102196280Y-358713449D01*
X102311785Y-358872217D01*
X102435766Y-358924843D01*
X102541907Y-358933318D01*
X102718514Y-358861964D01*
X102788978Y-358782136D01*
X102841605Y-358658156D01*
X102814403Y-358463711D01*
X102689534Y-358154650D01*
X102574029Y-357995882D01*
X102450049Y-357943255D01*
X102343907Y-357934781D01*
X101637481Y-358220195D02*
X101791330Y-359236571D01*
X101347147Y-358645650D01*
X101438117Y-359379278D01*
X100842752Y-358541286D01*
D11*
X115457870Y-324250139D02*
X115802100Y-325534820D01*
X116742552Y-323905910D02*
X115457870Y-324250139D01*
X117969277Y-323577209D02*
X118657736Y-326146572D01*
X118657736Y-326146572D02*
X126076046Y-324158842D01*
X117969277Y-323577209D02*
X125387588Y-321589479D01*
X125387588Y-321589479D02*
X126076046Y-324158842D01*
X92293380Y-337827892D02*
X90963380Y-337827892D01*
X92293380Y-339157892D02*
X92293380Y-337827892D01*
X92293380Y-340427892D02*
X89633380Y-340427892D01*
X89633380Y-340427892D02*
X89633380Y-348107892D01*
X92293380Y-340427892D02*
X92293380Y-348107892D01*
X92293380Y-348107892D02*
X89633380Y-348107892D01*
X131011859Y-334328713D02*
X129681859Y-334328713D01*
X131011859Y-335658713D02*
X131011859Y-334328713D01*
X131011859Y-336928713D02*
X128351859Y-336928713D01*
X128351859Y-336928713D02*
X128351859Y-344608713D01*
X131011859Y-336928713D02*
X131011859Y-344608713D01*
X131011859Y-344608713D02*
X128351859Y-344608713D01*
X94840670Y-345544574D02*
X94840670Y-346874574D01*
X96170670Y-345544574D02*
X94840670Y-345544574D01*
X97440670Y-345544574D02*
X97440670Y-348204574D01*
X97440670Y-348204574D02*
X105120670Y-348204574D01*
X97440670Y-345544574D02*
X105120670Y-345544574D01*
X105120670Y-345544574D02*
X105120670Y-348204574D01*
D10*
X115574653Y-326433844D02*
X114884706Y-326618715D01*
X114759041Y-326701686D01*
X114691698Y-326818328D01*
X114682676Y-326968642D01*
X114707325Y-327060635D01*
X114349908Y-325726737D02*
X114497805Y-326278695D01*
X114423856Y-326002716D02*
X115389782Y-325743897D01*
X115276442Y-325872864D01*
X115209099Y-325989507D01*
X115187752Y-326093824D01*
X114753969Y-325026883D02*
X114824615Y-325106551D01*
X114882936Y-325140223D01*
X114987254Y-325161570D01*
X115033250Y-325149246D01*
X115112919Y-325078600D01*
X115146590Y-325020278D01*
X115167937Y-324915961D01*
X115118639Y-324731975D01*
X115047993Y-324652307D01*
X114989671Y-324618635D01*
X114885354Y-324597288D01*
X114839357Y-324609613D01*
X114759689Y-324680259D01*
X114726017Y-324738580D01*
X114704670Y-324842897D01*
X114753969Y-325026883D01*
X114732622Y-325131201D01*
X114698950Y-325189522D01*
X114619282Y-325260168D01*
X114435296Y-325309467D01*
X114330979Y-325288120D01*
X114272657Y-325254448D01*
X114202012Y-325174780D01*
X114152713Y-324990794D01*
X114174060Y-324886476D01*
X114207732Y-324828155D01*
X114287400Y-324757509D01*
X114471386Y-324708210D01*
X114575703Y-324729557D01*
X114634024Y-324763229D01*
X114704670Y-324842897D01*
X91772903Y-336280272D02*
X91772903Y-336994558D01*
X91820522Y-337137415D01*
X91915760Y-337232653D01*
X92058618Y-337280272D01*
X92153856Y-337280272D01*
X90772903Y-337280272D02*
X91344332Y-337280272D01*
X91058618Y-337280272D02*
X91058618Y-336280272D01*
X91153856Y-336423130D01*
X91249094Y-336518368D01*
X91344332Y-336565987D01*
X90153856Y-336280272D02*
X90058618Y-336280272D01*
X89963380Y-336327892D01*
X89915760Y-336375511D01*
X89868141Y-336470749D01*
X89820522Y-336661225D01*
X89820522Y-336899320D01*
X89868141Y-337089796D01*
X89915760Y-337185034D01*
X89963380Y-337232653D01*
X90058618Y-337280272D01*
X90153856Y-337280272D01*
X90249094Y-337232653D01*
X90296713Y-337185034D01*
X90344332Y-337089796D01*
X90391951Y-336899320D01*
X90391951Y-336661225D01*
X90344332Y-336470749D01*
X90296713Y-336375511D01*
X90249094Y-336327892D01*
X90153856Y-336280272D01*
X130491382Y-332781093D02*
X130491382Y-333495379D01*
X130539001Y-333638236D01*
X130634239Y-333733474D01*
X130777097Y-333781093D01*
X130872335Y-333781093D01*
X129491382Y-333781093D02*
X130062811Y-333781093D01*
X129777097Y-333781093D02*
X129777097Y-332781093D01*
X129872335Y-332923951D01*
X129967573Y-333019189D01*
X130062811Y-333066808D01*
X128634239Y-333114427D02*
X128634239Y-333781093D01*
X128872335Y-332733474D02*
X129110430Y-333447760D01*
X128491382Y-333447760D01*
X93293050Y-346541240D02*
X94007336Y-346541240D01*
X94150193Y-346493621D01*
X94245431Y-346398383D01*
X94293050Y-346255526D01*
X94293050Y-346160288D01*
X93626384Y-347446002D02*
X94293050Y-347446002D01*
X93245431Y-347207907D02*
X93959717Y-346969812D01*
X93959717Y-347588859D01*
M02*
