G04 #@! TF.GenerationSoftware,KiCad,Pcbnew,(5.1.4)-1*
G04 #@! TF.CreationDate,2023-02-11T17:21:54-05:00*
G04 #@! TF.ProjectId,ThumbsUp,5468756d-6273-4557-902e-6b696361645f,rev?*
G04 #@! TF.SameCoordinates,Original*
G04 #@! TF.FileFunction,Copper,L2,Bot*
G04 #@! TF.FilePolarity,Positive*
%FSLAX46Y46*%
G04 Gerber Fmt 4.6, Leading zero omitted, Abs format (unit mm)*
G04 Created by KiCad (PCBNEW (5.1.4)-1) date 2023-02-11 17:21:54*
%MOMM*%
%LPD*%
G04 APERTURE LIST*
%ADD10R,2.550000X2.500000*%
%ADD11C,2.250000*%
%ADD12C,2.250000*%
%ADD13O,1.700000X1.700000*%
%ADD14R,1.700000X1.700000*%
%ADD15C,1.700000*%
%ADD16C,1.700000*%
%ADD17C,0.100000*%
%ADD18C,0.200000*%
G04 APERTURE END LIST*
D10*
X224547025Y-507340000D03*
X211620025Y-509880000D03*
D11*
X214962025Y-500800000D03*
X214307026Y-501530000D03*
D12*
X213652025Y-502260000D02*
X214962027Y-500800000D01*
D11*
X220002025Y-499720000D03*
X219982025Y-500010000D03*
D12*
X219962025Y-500300000D02*
X220002025Y-499720000D01*
D13*
X152912019Y-549610280D03*
X152912019Y-552150280D03*
X152912019Y-554690280D03*
D14*
X152912019Y-557230280D03*
D13*
X183332025Y-518360322D03*
X180792025Y-518360322D03*
X178252025Y-518360322D03*
D14*
X175712025Y-518360322D03*
D13*
X175936722Y-556457847D03*
X178476722Y-556457847D03*
X181016722Y-556457847D03*
D14*
X183556722Y-556457847D03*
D13*
X152958726Y-499260794D03*
X152958726Y-501800794D03*
X152958726Y-504340794D03*
D14*
X152958726Y-506880794D03*
D13*
X176239012Y-537342011D03*
X178779012Y-537342011D03*
X181319012Y-537342011D03*
D14*
X183859012Y-537342011D03*
D15*
X170712025Y-598510322D03*
D16*
X170712025Y-598510322D02*
X170712025Y-598510322D01*
D15*
X168258573Y-599167722D03*
D16*
X168258573Y-599167722D02*
X168258573Y-599167722D01*
D15*
X165805122Y-599825123D03*
D16*
X165805122Y-599825123D02*
X165805122Y-599825123D01*
D15*
X163351670Y-600482523D03*
D17*
G36*
X164392703Y-601083564D02*
G01*
X162750629Y-601523556D01*
X162310637Y-599881482D01*
X163952711Y-599441490D01*
X164392703Y-601083564D01*
X164392703Y-601083564D01*
G37*
D13*
X225912025Y-586230322D03*
X225912025Y-583690322D03*
X225912025Y-581150322D03*
D14*
X225912025Y-578610322D03*
D10*
X248477025Y-522320322D03*
X261404025Y-519780322D03*
D11*
X258062025Y-528860322D03*
X258717024Y-528130322D03*
D12*
X259372025Y-527400322D02*
X258062023Y-528860322D01*
D11*
X253022025Y-529940322D03*
X253042025Y-529650322D03*
D12*
X253062025Y-529360322D02*
X253022025Y-529940322D01*
D10*
X248477025Y-560420322D03*
X261404025Y-557880322D03*
D11*
X258062025Y-566960322D03*
X258717024Y-566230322D03*
D12*
X259372025Y-565500322D02*
X258062023Y-566960322D01*
D11*
X253022025Y-568040322D03*
X253042025Y-567750322D03*
D12*
X253062025Y-567460322D02*
X253022025Y-568040322D01*
D10*
X229427026Y-545370322D03*
X242354026Y-542830322D03*
D11*
X239012026Y-551910322D03*
X239667025Y-551180322D03*
D12*
X240322026Y-550450322D02*
X239012024Y-551910322D01*
D11*
X233972026Y-552990322D03*
X233992026Y-552700322D03*
D12*
X234012026Y-552410322D02*
X233972026Y-552990322D01*
D10*
X210377025Y-559420322D03*
X223304025Y-556880322D03*
D11*
X219962025Y-565960322D03*
X220617024Y-565230322D03*
D12*
X221272025Y-564500322D02*
X219962023Y-565960322D01*
D11*
X214922025Y-567040322D03*
X214942025Y-566750322D03*
D12*
X214962025Y-566460322D02*
X214922025Y-567040322D01*
D10*
X210377025Y-540370322D03*
X223304025Y-537830322D03*
D11*
X219962025Y-546910322D03*
X220617024Y-546180322D03*
D12*
X221272025Y-545450322D02*
X219962023Y-546910322D01*
D11*
X214922025Y-547990322D03*
X214942025Y-547700322D03*
D12*
X214962025Y-547410322D02*
X214922025Y-547990322D01*
D10*
X205497025Y-502340000D03*
X192570025Y-504880000D03*
D11*
X195912025Y-495800000D03*
X195257026Y-496530000D03*
D12*
X194602025Y-497260000D02*
X195912027Y-495800000D01*
D11*
X200952025Y-494720000D03*
X200932025Y-495010000D03*
D12*
X200912025Y-495300000D02*
X200952025Y-494720000D01*
D10*
X248477024Y-541370322D03*
X261404024Y-538830322D03*
D11*
X258062024Y-547910322D03*
X258717023Y-547180322D03*
D12*
X259372024Y-546450322D02*
X258062022Y-547910322D01*
D11*
X253022024Y-548990322D03*
X253042024Y-548700322D03*
D12*
X253062024Y-548410322D02*
X253022024Y-548990322D01*
D10*
X229427025Y-564420323D03*
X242354025Y-561880323D03*
D11*
X239012025Y-570960323D03*
X239667024Y-570230323D03*
D12*
X240322025Y-569500323D02*
X239012023Y-570960323D01*
D11*
X233972025Y-572040323D03*
X233992025Y-571750323D03*
D12*
X234012025Y-571460323D02*
X233972025Y-572040323D01*
D10*
X229427025Y-526320322D03*
X242354025Y-523780322D03*
D11*
X239012025Y-532860322D03*
X239667024Y-532130322D03*
D12*
X240322025Y-531400322D02*
X239012023Y-532860322D01*
D11*
X233972025Y-533940322D03*
X233992025Y-533650322D03*
D12*
X234012025Y-533360322D02*
X233972025Y-533940322D01*
D13*
X184332025Y-498360322D03*
X181792025Y-498360322D03*
X179252025Y-498360322D03*
D14*
X176712025Y-498360322D03*
D10*
X262647025Y-508340000D03*
X249720025Y-510880000D03*
D11*
X253062025Y-501800000D03*
X252407026Y-502530000D03*
D12*
X251752025Y-503260000D02*
X253062027Y-501800000D01*
D11*
X258102025Y-500720000D03*
X258082025Y-501010000D03*
D12*
X258062025Y-501300000D02*
X258102025Y-500720000D01*
D10*
X243597025Y-512340000D03*
X230670025Y-514880000D03*
D11*
X234012025Y-505800000D03*
X233357026Y-506530000D03*
D12*
X232702025Y-507260000D02*
X234012027Y-505800000D01*
D11*
X239052025Y-504720000D03*
X239032025Y-505010000D03*
D12*
X239012025Y-505300000D02*
X239052025Y-504720000D01*
D10*
X191327025Y-516320322D03*
X204254025Y-513780322D03*
D11*
X200912025Y-522860322D03*
X201567024Y-522130322D03*
D12*
X202222025Y-521400322D02*
X200912023Y-522860322D01*
D11*
X195872025Y-523940322D03*
X195892025Y-523650322D03*
D12*
X195912025Y-523360322D02*
X195872025Y-523940322D01*
D10*
X210377025Y-521320323D03*
X223304025Y-518780323D03*
D11*
X219962025Y-527860323D03*
X220617024Y-527130323D03*
D12*
X221272025Y-526400323D02*
X219962023Y-527860323D01*
D11*
X214922025Y-528940323D03*
X214942025Y-528650323D03*
D12*
X214962025Y-528360323D02*
X214922025Y-528940323D01*
D10*
X191327025Y-535370323D03*
X204254025Y-532830323D03*
D11*
X200912025Y-541910323D03*
X201567024Y-541180323D03*
D12*
X202222025Y-540450323D02*
X200912023Y-541910323D01*
D11*
X195872025Y-542990323D03*
X195892025Y-542700323D03*
D12*
X195912025Y-542410323D02*
X195872025Y-542990323D01*
D10*
X191327025Y-554420322D03*
X204254025Y-551880322D03*
D11*
X200912025Y-560960322D03*
X201567024Y-560230322D03*
D12*
X202222025Y-559500322D02*
X200912023Y-560960322D01*
D11*
X195872025Y-562040322D03*
X195892025Y-561750322D03*
D12*
X195912025Y-561460322D02*
X195872025Y-562040322D01*
D18*
X187556356Y-554306033D02*
X172406353Y-554306033D01*
X231400000Y-557800000D02*
X225377011Y-551777011D01*
X248477024Y-555422976D02*
X246100000Y-557800000D01*
X172406353Y-554306033D02*
X170712025Y-556000361D01*
X248477024Y-541370322D02*
X248477024Y-555422976D01*
X170712025Y-597308241D02*
X170712025Y-598510322D01*
X211964548Y-551777011D02*
X209337538Y-549150000D01*
X225377011Y-551777011D02*
X211964548Y-551777011D01*
X253062024Y-548410322D02*
X248477024Y-543825322D01*
X209337538Y-549150000D02*
X199124924Y-549150000D01*
X192658368Y-549204021D02*
X187556356Y-554306033D01*
X199124924Y-549150000D02*
X199070903Y-549204021D01*
X199070903Y-549204021D02*
X192658368Y-549204021D01*
X170712025Y-556000361D02*
X170712025Y-597308241D01*
X246100000Y-557800000D02*
X231400000Y-557800000D01*
X248477024Y-543825322D02*
X248477024Y-541370322D01*
X229427026Y-547672974D02*
X229427026Y-545370322D01*
X234012026Y-552410322D02*
X231885322Y-552410322D01*
X225650000Y-551450000D02*
X229427026Y-547672974D01*
X172270901Y-553979022D02*
X187420904Y-553979022D01*
X168258573Y-599167722D02*
X168258573Y-557991351D01*
X168258573Y-557991351D02*
X172270901Y-553979022D01*
X192522916Y-548877010D02*
X198935451Y-548877010D01*
X231885322Y-552410322D02*
X229427026Y-549952026D01*
X198989472Y-548822989D02*
X209472989Y-548822989D01*
X212100000Y-551450000D02*
X225650000Y-551450000D01*
X187420904Y-553979022D02*
X192522916Y-548877010D01*
X229427026Y-549952026D02*
X229427026Y-545370322D01*
X209472989Y-548822989D02*
X212100000Y-551450000D01*
X198935451Y-548877010D02*
X198989472Y-548822989D01*
X210377025Y-540370322D02*
X210377025Y-543445322D01*
X165805122Y-599825123D02*
X165805122Y-559982340D01*
X198800000Y-548550000D02*
X206979678Y-540370322D01*
X210377025Y-543445322D02*
X214342025Y-547410322D01*
X165805122Y-559982340D02*
X172135451Y-553652011D01*
X172135451Y-553652011D02*
X187285452Y-553652011D01*
X214342025Y-547410322D02*
X214962025Y-547410322D01*
X208902025Y-540370322D02*
X210377025Y-540370322D01*
X187285452Y-553652011D02*
X192387462Y-548550000D01*
X192387462Y-548550000D02*
X198800000Y-548550000D01*
X206979678Y-540370322D02*
X208902025Y-540370322D01*
X187150000Y-553325000D02*
X195912025Y-544562975D01*
X194410323Y-542410323D02*
X191327025Y-539327025D01*
X195912025Y-544562975D02*
X195912025Y-542410323D01*
X163351670Y-600482523D02*
X163351670Y-561973330D01*
X195912025Y-542410323D02*
X194410323Y-542410323D01*
X172000000Y-553325000D02*
X187150000Y-553325000D01*
X163351670Y-561973330D02*
X172000000Y-553325000D01*
X191327025Y-539327025D02*
X191327025Y-535370323D01*
X205497025Y-503912975D02*
X205497025Y-502340000D01*
X177622347Y-515400000D02*
X184904958Y-515400000D01*
X175712025Y-518360322D02*
X175712025Y-517310322D01*
X205497025Y-499265000D02*
X200952025Y-494720000D01*
X205497025Y-502340000D02*
X205497025Y-499265000D01*
X190385991Y-509918967D02*
X199491033Y-509918967D01*
X175712025Y-517310322D02*
X177622347Y-515400000D01*
X184904958Y-515400000D02*
X190385991Y-509918967D01*
X199491033Y-509918967D02*
X205497025Y-503912975D01*
X205458441Y-510245978D02*
X209208440Y-513995978D01*
X224547025Y-511302975D02*
X224547025Y-507340000D01*
X220582025Y-500300000D02*
X219962025Y-500300000D01*
X224547025Y-507340000D02*
X224547025Y-504265000D01*
X178252025Y-518360322D02*
X180885336Y-515727011D01*
X209208440Y-513995978D02*
X221854022Y-513995978D01*
X190521443Y-510245978D02*
X205458441Y-510245978D01*
X221854022Y-513995978D02*
X224547025Y-511302975D01*
X224547025Y-504265000D02*
X220582025Y-500300000D01*
X185040410Y-515727011D02*
X190521443Y-510245978D01*
X180885336Y-515727011D02*
X185040410Y-515727011D01*
X243597025Y-509265000D02*
X239052025Y-504720000D01*
X243597025Y-515232975D02*
X243597025Y-512340000D01*
X180792025Y-518360322D02*
X183098325Y-516054022D01*
X223672989Y-514322989D02*
X226332989Y-516982989D01*
X190656895Y-510572989D02*
X205322989Y-510572989D01*
X209072989Y-514322989D02*
X223672989Y-514322989D01*
X185175862Y-516054022D02*
X190656895Y-510572989D01*
X241847011Y-516982989D02*
X243597025Y-515232975D01*
X183098325Y-516054022D02*
X185175862Y-516054022D01*
X205322989Y-510572989D02*
X209072989Y-514322989D01*
X226332989Y-516982989D02*
X241847011Y-516982989D01*
X243597025Y-512340000D02*
X243597025Y-509265000D01*
X262647025Y-505265000D02*
X258682025Y-501300000D01*
X255190000Y-517310000D02*
X262647025Y-509852975D01*
X226160000Y-517310000D02*
X255190000Y-517310000D01*
X223500000Y-514650000D02*
X226160000Y-517310000D01*
X183332025Y-518360322D02*
X190792347Y-510900000D01*
X262647025Y-508340000D02*
X262647025Y-505265000D01*
X258682025Y-501300000D02*
X258062025Y-501300000D01*
X190792347Y-510900000D02*
X205187537Y-510900000D01*
X262647025Y-509852975D02*
X262647025Y-508340000D01*
X208937537Y-514650000D02*
X223500000Y-514650000D01*
X205187537Y-510900000D02*
X208937537Y-514650000D01*
X224779025Y-558330322D02*
X223329025Y-556880322D01*
X242379025Y-561880323D02*
X242354025Y-561880323D01*
X221272025Y-564500322D02*
X223524678Y-564500322D01*
X191095025Y-498854975D02*
X191095025Y-503430000D01*
X192545025Y-504880000D02*
X192570025Y-504880000D01*
X241924677Y-569500323D02*
X243829025Y-567595975D01*
X223524678Y-564500322D02*
X224779025Y-563245975D01*
X240322025Y-569500323D02*
X241924677Y-569500323D01*
X224779025Y-525395975D02*
X224779025Y-520230323D01*
X243480000Y-550120000D02*
X243600000Y-550000000D01*
X242430322Y-542830322D02*
X242354026Y-542830322D01*
X223329025Y-556880322D02*
X223304025Y-556880322D01*
X221272025Y-526400323D02*
X223774677Y-526400323D01*
X243829025Y-530245975D02*
X243829025Y-525230322D01*
X242379025Y-523780322D02*
X242354025Y-523780322D01*
X243829025Y-563330323D02*
X242379025Y-561880323D01*
X210145025Y-508430000D02*
X211595025Y-509880000D01*
X243829025Y-525230322D02*
X242379025Y-523780322D01*
X191095025Y-503430000D02*
X192545025Y-504880000D01*
X250065000Y-503260000D02*
X248245025Y-505079975D01*
X243600000Y-544000000D02*
X242430322Y-542830322D01*
X194602025Y-497260000D02*
X192690000Y-497260000D01*
X223774677Y-526400323D02*
X224779025Y-525395975D01*
X224779025Y-520230323D02*
X223329025Y-518780323D01*
X240322025Y-531400322D02*
X242674678Y-531400322D01*
X240652348Y-550120000D02*
X243480000Y-550120000D01*
X243600000Y-550000000D02*
X243600000Y-544000000D01*
X210145025Y-503879975D02*
X210145025Y-508430000D01*
X192690000Y-497260000D02*
X191095025Y-498854975D01*
X223329025Y-518780323D02*
X223304025Y-518780323D01*
X240322026Y-550450322D02*
X240652348Y-550120000D01*
X242674678Y-531400322D02*
X243829025Y-530245975D01*
X211595025Y-509880000D02*
X211620025Y-509880000D01*
X211765000Y-502260000D02*
X210145025Y-503879975D01*
X243829025Y-567595975D02*
X243829025Y-563330323D01*
X213652025Y-502260000D02*
X211765000Y-502260000D01*
X224779025Y-563245975D02*
X224779025Y-558330322D01*
X262400000Y-545150000D02*
X262400000Y-541276298D01*
X205900000Y-534451298D02*
X204279025Y-532830323D01*
X224779025Y-542304284D02*
X224779025Y-539280322D01*
X223329025Y-537830322D02*
X223304025Y-537830322D01*
X251752025Y-503260000D02*
X250065000Y-503260000D01*
X204279025Y-532830323D02*
X204254025Y-532830323D01*
X248245025Y-505079975D02*
X248245025Y-509430000D01*
X248245025Y-509430000D02*
X249695025Y-510880000D01*
X259372025Y-527400322D02*
X260974678Y-527400322D01*
X249695025Y-510880000D02*
X249720025Y-510880000D01*
X202222025Y-540450323D02*
X202321702Y-540550000D01*
X205729025Y-556354284D02*
X205729025Y-553330322D01*
X262879025Y-564420975D02*
X262879025Y-559330322D01*
X204254025Y-513804025D02*
X204254025Y-513780322D01*
X231040000Y-507260000D02*
X229195025Y-509104975D01*
X232702025Y-507260000D02*
X231040000Y-507260000D01*
X229195025Y-509104975D02*
X229195025Y-513430000D01*
X229195025Y-513430000D02*
X230645025Y-514880000D01*
X230645025Y-514880000D02*
X230670025Y-514880000D01*
X261799678Y-565500322D02*
X262879025Y-564420975D01*
X260974678Y-527400322D02*
X262879025Y-525495975D01*
X261429025Y-519780322D02*
X261404025Y-519780322D01*
X259372025Y-565500322D02*
X261799678Y-565500322D01*
X262879025Y-559330322D02*
X261429025Y-557880322D01*
X261099678Y-546450322D02*
X262400000Y-545150000D01*
X202321702Y-540550000D02*
X204000000Y-540550000D01*
X259372024Y-546450322D02*
X261099678Y-546450322D01*
X262400000Y-541276298D02*
X261404024Y-540280322D01*
X221272025Y-545450322D02*
X221632987Y-545450322D01*
X221632987Y-545450322D02*
X224779025Y-542304284D01*
X204199678Y-521400322D02*
X205750000Y-519850000D01*
X202222025Y-559500322D02*
X202582987Y-559500322D01*
X205750000Y-519850000D02*
X205750000Y-515300000D01*
X262879025Y-521230322D02*
X261429025Y-519780322D01*
X261404024Y-540280322D02*
X261404024Y-538830322D01*
X202222025Y-521400322D02*
X204199678Y-521400322D01*
X204000000Y-540550000D02*
X205900000Y-538650000D01*
X205750000Y-515300000D02*
X204254025Y-513804025D01*
X205900000Y-538650000D02*
X205900000Y-534451298D01*
X202582987Y-559500322D02*
X205729025Y-556354284D01*
X262879025Y-525495975D02*
X262879025Y-521230322D01*
X261429025Y-557880322D02*
X261404025Y-557880322D01*
X224779025Y-539280322D02*
X223329025Y-537830322D01*
X205729025Y-553330322D02*
X204279025Y-551880322D01*
X204279025Y-551880322D02*
X204254025Y-551880322D01*
X183556722Y-556457847D02*
X191327025Y-556457847D01*
X191327025Y-554420322D02*
X191327025Y-559452025D01*
X193915322Y-562040322D02*
X195872025Y-562040322D01*
X191327025Y-556457847D02*
X191327025Y-554420322D01*
X191327025Y-559452025D02*
X193915322Y-562040322D01*
X181016722Y-556457847D02*
X191308875Y-566750000D01*
X210377025Y-562495322D02*
X214922025Y-567040322D01*
X191308875Y-566750000D02*
X201572347Y-566750000D01*
X201572347Y-566750000D02*
X208902025Y-559420322D01*
X208902025Y-559420322D02*
X210377025Y-559420322D01*
X210377025Y-559420322D02*
X210377025Y-562495322D01*
X229427025Y-569377025D02*
X231510323Y-571460323D01*
X229427025Y-564420323D02*
X229427025Y-569377025D01*
X178476722Y-556457847D02*
X192168875Y-570150000D01*
X222222348Y-570150000D02*
X227952025Y-564420323D01*
X192168875Y-570150000D02*
X222222348Y-570150000D01*
X227952025Y-564420323D02*
X229427025Y-564420323D01*
X231510323Y-571460323D02*
X234012025Y-571460323D01*
X193753875Y-574275000D02*
X243625000Y-574275000D01*
X248477025Y-567460322D02*
X248477025Y-560420322D01*
X175936722Y-556457847D02*
X193753875Y-574275000D01*
X243625000Y-574275000D02*
X248477025Y-569422975D01*
X253062025Y-567460322D02*
X248477025Y-567460322D01*
X248477025Y-561870322D02*
X248477025Y-560420322D01*
X248477025Y-569422975D02*
X248477025Y-561870322D01*
X248477025Y-523770322D02*
X248477025Y-522320322D01*
X209550000Y-530050000D02*
X210952011Y-531452011D01*
X248477025Y-529997975D02*
X248477025Y-523770322D01*
X248477025Y-529360322D02*
X248477025Y-522320322D01*
X228425000Y-536650000D02*
X241825000Y-536650000D01*
X210952011Y-531452011D02*
X223227011Y-531452011D01*
X186293967Y-534356033D02*
X190600000Y-530050000D01*
X241825000Y-536650000D02*
X248477025Y-529997975D01*
X152912019Y-557230280D02*
X154075109Y-557230280D01*
X190600000Y-530050000D02*
X209550000Y-530050000D01*
X154075109Y-557230280D02*
X176949355Y-534356033D01*
X253062025Y-529360322D02*
X248477025Y-529360322D01*
X223227011Y-531452011D02*
X228425000Y-536650000D01*
X176949355Y-534356033D02*
X186293967Y-534356033D01*
X190464548Y-529722989D02*
X209685452Y-529722989D01*
X209685452Y-529722989D02*
X211087463Y-531125000D01*
X152912019Y-554690280D02*
X156152646Y-554690280D01*
X227952025Y-526320322D02*
X229427025Y-526320322D01*
X223147347Y-531125000D02*
X227952025Y-526320322D01*
X229427025Y-526320322D02*
X229427025Y-529395322D01*
X176813903Y-534029022D02*
X186158515Y-534029022D01*
X186158515Y-534029022D02*
X190464548Y-529722989D01*
X156152646Y-554690280D02*
X176813903Y-534029022D01*
X229427025Y-529395322D02*
X233972025Y-533940322D01*
X211087463Y-531125000D02*
X223147347Y-531125000D01*
X152912019Y-552150280D02*
X158230182Y-552150280D01*
X158230182Y-552150280D02*
X176678451Y-533702011D01*
X176678451Y-533702011D02*
X186023063Y-533702011D01*
X190329096Y-529395978D02*
X200826370Y-529395978D01*
X186023063Y-533702011D02*
X190329096Y-529395978D01*
X210377025Y-521320323D02*
X210377025Y-524395323D01*
X208902025Y-521320323D02*
X210377025Y-521320323D01*
X210377025Y-524395323D02*
X214922025Y-528940323D01*
X200826370Y-529395978D02*
X208902025Y-521320323D01*
X190203380Y-529068967D02*
X193399358Y-525872989D01*
X195912025Y-523360322D02*
X191327025Y-518775322D01*
X191327025Y-518775322D02*
X191327025Y-516320322D01*
X152912019Y-549610280D02*
X160307720Y-549610280D01*
X176543000Y-533375000D02*
X185887611Y-533375000D01*
X160307720Y-549610280D02*
X176543000Y-533375000D01*
X193399358Y-525872989D02*
X195912025Y-523360322D01*
X190193644Y-529068967D02*
X190203380Y-529068967D01*
X185887611Y-533375000D02*
X190193644Y-529068967D01*
M02*
