G04 #@! TF.GenerationSoftware,KiCad,Pcbnew,(5.1.4)-1*
G04 #@! TF.CreationDate,2023-01-09T13:43:59-05:00*
G04 #@! TF.ProjectId,ThumbsUp,5468756d-6273-4557-902e-6b696361645f,rev?*
G04 #@! TF.SameCoordinates,Original*
G04 #@! TF.FileFunction,Profile,NP*
%FSLAX46Y46*%
G04 Gerber Fmt 4.6, Leading zero omitted, Abs format (unit mm)*
G04 Created by KiCad (PCBNEW (5.1.4)-1) date 2023-01-09 13:43:59*
%MOMM*%
%LPD*%
G04 APERTURE LIST*
%ADD10C,0.050000*%
G04 APERTURE END LIST*
D10*
X151502490Y-586234349D02*
X149704378Y-590684833D01*
X152582510Y-601446632D02*
X149704378Y-590684833D01*
X263312025Y-519910322D02*
X263312025Y-568010323D01*
X151497497Y-560886766D02*
X151509034Y-577896466D01*
X152582510Y-601446632D02*
X161803913Y-602309185D01*
X151502490Y-586234349D02*
X151514855Y-578916095D01*
X151523238Y-521314941D02*
X151521905Y-519556391D01*
X260212025Y-516510323D02*
X226812025Y-516510322D01*
X260212025Y-516510323D02*
X263312025Y-519910322D01*
X151523238Y-521314941D02*
X151497497Y-560886766D01*
X247312025Y-571010323D02*
X260212024Y-571010322D01*
X247312025Y-571010323D02*
X247112025Y-571010322D01*
X216412025Y-587610323D02*
X161803913Y-602309185D01*
X227212025Y-586410323D02*
X225812025Y-587610323D01*
X231212025Y-575160322D02*
X227212025Y-579310322D01*
X190912025Y-510910322D02*
X184212025Y-517410322D01*
X263312025Y-568010323D02*
X260212024Y-571010322D01*
X225962025Y-515660322D02*
X226812025Y-516510322D01*
X243162025Y-575160322D02*
X231212025Y-575160322D01*
X216612025Y-587610322D02*
X216412025Y-587610323D01*
X184212025Y-517410322D02*
X153712026Y-517410322D01*
X151514855Y-578916095D02*
X151509034Y-577896466D01*
X212412025Y-515660323D02*
X207462025Y-510910322D01*
X190912025Y-510910322D02*
X207462025Y-510910322D01*
X216612025Y-587610322D02*
X225812025Y-587610323D01*
X188800000Y-566000000D02*
G75*
G03X188800000Y-566000000I-4800000J0D01*
G01*
X186850000Y-547800000D02*
G75*
G03X186850000Y-547800000I-3250000J0D01*
G01*
X212412025Y-515660323D02*
X225962025Y-515660322D01*
X151521905Y-519556391D02*
X153712026Y-517410322D01*
X243162025Y-575160322D02*
X247112025Y-571010322D01*
X227212025Y-586410323D02*
X227212025Y-579310322D01*
M02*
