M48
; DRILL file {KiCad (5.1.4)-1} date 1/9/2023 1:44:02 PM
; FORMAT={-:-/ absolute / metric / decimal}
; #@! TF.CreationDate,2023-01-09T13:44:02-05:00
; #@! TF.GenerationSoftware,Kicad,Pcbnew,(5.1.4)-1
; #@! TF.FileFunction,Plated,1,2,PTH
FMAT,2
METRIC
T1C1.000
%
G90
G05
T1
X175.712Y-519.91
X176.239Y-538.892
X178.779Y-538.892
X181.319Y-538.892
X183.859Y-538.892
X175.937Y-556.458
X178.477Y-556.458
X181.017Y-556.458
X183.557Y-556.458
X152.912Y-568.16
X152.912Y-570.7
X152.912Y-573.24
X152.912Y-575.78
X163.352Y-600.483
X165.805Y-599.825
X168.259Y-599.168
X170.712Y-598.51
X225.912Y-578.61
X225.912Y-581.15
X225.912Y-583.69
X225.912Y-586.23
X178.252Y-519.91
X180.792Y-519.91
X183.332Y-519.91
X152.959Y-519.861
X152.959Y-522.401
X152.959Y-524.941
X152.959Y-527.481
T0
M30
