G04 #@! TF.GenerationSoftware,KiCad,Pcbnew,(5.1.4)-1*
G04 #@! TF.CreationDate,2023-01-09T13:43:59-05:00*
G04 #@! TF.ProjectId,ThumbsUp,5468756d-6273-4557-902e-6b696361645f,rev?*
G04 #@! TF.SameCoordinates,Original*
G04 #@! TF.FileFunction,Copper,L2,Bot*
G04 #@! TF.FilePolarity,Positive*
%FSLAX46Y46*%
G04 Gerber Fmt 4.6, Leading zero omitted, Abs format (unit mm)*
G04 Created by KiCad (PCBNEW (5.1.4)-1) date 2023-01-09 13:43:59*
%MOMM*%
%LPD*%
G04 APERTURE LIST*
%ADD10R,2.600000X2.600000*%
%ADD11C,1.700000*%
%ADD12C,1.700000*%
%ADD13C,0.100000*%
%ADD14O,1.700000X1.700000*%
%ADD15R,1.700000X1.700000*%
%ADD16C,0.250000*%
G04 APERTURE END LIST*
D10*
X257187024Y-549860322D03*
X245637024Y-547660322D03*
D11*
X170712025Y-598510322D03*
D12*
X170712025Y-598510322D02*
X170712025Y-598510322D01*
D11*
X168258573Y-599167722D03*
D12*
X168258573Y-599167722D02*
X168258573Y-599167722D01*
D11*
X165805122Y-599825123D03*
D12*
X165805122Y-599825123D02*
X165805122Y-599825123D01*
D11*
X163351670Y-600482523D03*
D13*
G36*
X164392703Y-601083564D02*
G01*
X162750629Y-601523556D01*
X162310637Y-599881482D01*
X163952711Y-599441490D01*
X164392703Y-601083564D01*
X164392703Y-601083564D01*
G37*
D10*
X257187025Y-532360322D03*
X245637025Y-530160322D03*
D14*
X175936722Y-556457847D03*
X178476722Y-556457847D03*
X181016722Y-556457847D03*
D15*
X183556722Y-556457847D03*
D14*
X183332025Y-519910322D03*
X180792025Y-519910322D03*
X178252025Y-519910322D03*
D15*
X175712025Y-519910322D03*
D14*
X152912019Y-568160280D03*
X152912019Y-570700280D03*
X152912019Y-573240280D03*
D15*
X152912019Y-575780280D03*
D14*
X152958726Y-519860794D03*
X152958726Y-522400794D03*
X152958726Y-524940794D03*
D15*
X152958726Y-527480794D03*
D10*
X220187025Y-548860322D03*
X208637025Y-546660322D03*
X201687025Y-561360322D03*
X190137025Y-559160322D03*
X238687025Y-536360322D03*
X227137025Y-534160322D03*
X201687025Y-543860323D03*
X190137025Y-541660323D03*
X238687026Y-553860322D03*
X227137026Y-551660322D03*
X220187025Y-566360322D03*
X208637025Y-564160322D03*
D14*
X176239012Y-538892011D03*
X178779012Y-538892011D03*
X181319012Y-538892011D03*
D15*
X183859012Y-538892011D03*
D10*
X238687025Y-571360323D03*
X227137025Y-569160323D03*
X201687025Y-526360322D03*
X190137025Y-524160322D03*
D14*
X225912025Y-586230322D03*
X225912025Y-583690322D03*
X225912025Y-581150322D03*
D15*
X225912025Y-578610322D03*
D10*
X257187025Y-567360322D03*
X245637025Y-565160322D03*
X220187025Y-531360323D03*
X208637025Y-529160323D03*
D16*
X245637024Y-549210322D02*
X245637024Y-547660322D01*
X170712025Y-550533976D02*
X178446001Y-542800000D01*
X188687674Y-545354022D02*
X193287674Y-545354022D01*
X208800000Y-556700000D02*
X240700000Y-556700000D01*
X178446001Y-542800000D02*
X186133652Y-542800000D01*
X186133652Y-542800000D02*
X188687674Y-545354022D01*
X202048002Y-549948002D02*
X208800000Y-556700000D01*
X170712025Y-598510322D02*
X170712025Y-550533976D01*
X240700000Y-556700000D02*
X245637024Y-551762976D01*
X245637024Y-551762976D02*
X245637024Y-549210322D01*
X193287674Y-545354022D02*
X197881654Y-549948002D01*
X197881654Y-549948002D02*
X202048002Y-549948002D01*
X225587026Y-551660322D02*
X227137026Y-551660322D01*
X193443838Y-544977012D02*
X198037817Y-549570991D01*
X170335014Y-597091281D02*
X170335015Y-550377811D01*
X188843837Y-544977011D02*
X193443838Y-544977012D01*
X198037817Y-549570991D02*
X202204166Y-549570992D01*
X202204166Y-549570992D02*
X204293496Y-551660322D01*
X168258573Y-599167722D02*
X170335014Y-597091281D01*
X170335015Y-550377811D02*
X178289838Y-542422989D01*
X204293496Y-551660322D02*
X225587026Y-551660322D01*
X186289816Y-542422990D02*
X188843837Y-544977011D01*
X178289838Y-542422989D02*
X186289816Y-542422990D01*
X189000000Y-544600000D02*
X193600000Y-544600000D01*
X169958005Y-550221647D02*
X178133676Y-542045979D01*
X169958004Y-595672241D02*
X169958005Y-550221647D01*
X165805122Y-599825123D02*
X169958004Y-595672241D01*
X178133676Y-542045979D02*
X186445980Y-542045980D01*
X193600000Y-544600000D02*
X198193980Y-549193980D01*
X206056020Y-549193980D02*
X208750000Y-546500000D01*
X186445980Y-542045980D02*
X189000000Y-544600000D01*
X198193980Y-549193980D02*
X206056020Y-549193980D01*
X190137025Y-541660323D02*
X177986158Y-541660323D01*
X169580995Y-550065485D02*
X169580994Y-550316866D01*
X177986158Y-541660323D02*
X169580995Y-550065485D01*
X169580994Y-594253199D02*
X164116402Y-599717791D01*
X169580994Y-550316866D02*
X169580994Y-594253199D01*
X164116402Y-599717791D02*
X163351670Y-600482523D01*
X220300000Y-521300000D02*
X220200000Y-521300000D01*
X238687025Y-571360323D02*
X238687025Y-558212975D01*
X206800000Y-521300000D02*
X201739678Y-526360322D01*
X220200000Y-521300000D02*
X206800000Y-521300000D01*
X188339678Y-519910322D02*
X191000000Y-517250000D01*
X238812975Y-558087025D02*
X220087025Y-558087025D01*
X257187025Y-558087025D02*
X257187025Y-567360322D01*
X257187025Y-558087025D02*
X238812975Y-558087025D01*
X220112975Y-540012975D02*
X205387025Y-540012975D01*
X201687025Y-543712975D02*
X201687025Y-543860323D01*
X220187025Y-558187025D02*
X220087025Y-558087025D01*
X202039678Y-561360322D02*
X201687025Y-561360322D01*
X220087025Y-558087025D02*
X205312975Y-558087025D01*
X183332025Y-519910322D02*
X188339678Y-519910322D01*
X205387025Y-540012975D02*
X201687025Y-543712975D01*
X238687025Y-558212975D02*
X238812975Y-558087025D01*
X257187025Y-540012975D02*
X257187025Y-558087025D01*
X191000000Y-517250000D02*
X206000000Y-517250000D01*
X205312975Y-558087025D02*
X202039678Y-561360322D01*
X206000000Y-517250000D02*
X210050000Y-521300000D01*
X210050000Y-521300000D02*
X220200000Y-521300000D01*
X201739678Y-526360322D02*
X201687025Y-526360322D01*
X220187025Y-566360322D02*
X220187025Y-558187025D01*
X257187025Y-524687025D02*
X253800000Y-521300000D01*
X257187025Y-540012975D02*
X238687025Y-540012975D01*
X238687026Y-553860322D02*
X238687025Y-552310321D01*
X220187025Y-521412975D02*
X220300000Y-521300000D01*
X238687025Y-540012975D02*
X220112975Y-540012975D01*
X238687025Y-552310321D02*
X238687025Y-540012975D01*
X220187025Y-548860322D02*
X220187025Y-547310322D01*
X220187025Y-547310322D02*
X220112975Y-547236272D01*
X220112975Y-547236272D02*
X220112975Y-540012975D01*
X257187025Y-532360322D02*
X257187025Y-540012975D01*
X238700000Y-521300000D02*
X220300000Y-521300000D01*
X253800000Y-521300000D02*
X238700000Y-521300000D01*
X238687025Y-536360322D02*
X238687025Y-534810322D01*
X220187025Y-531360323D02*
X220187025Y-521412975D01*
X238687025Y-534810322D02*
X238700000Y-534797347D01*
X238700000Y-534797347D02*
X238700000Y-521300000D01*
X257187025Y-532360322D02*
X257187025Y-524687025D01*
X190137025Y-557031025D02*
X190137025Y-559160322D01*
X189563847Y-556457847D02*
X190137025Y-557031025D01*
X183556722Y-556457847D02*
X189563847Y-556457847D01*
X208637025Y-570358975D02*
X208637025Y-564160322D01*
X206048000Y-572948000D02*
X208637025Y-570358975D01*
X174298000Y-571298000D02*
X175948000Y-572948000D01*
X174298000Y-563176569D02*
X174298000Y-571298000D01*
X175948000Y-572948000D02*
X206048000Y-572948000D01*
X181016722Y-556457847D02*
X174298000Y-563176569D01*
X175791837Y-573325011D02*
X221422337Y-573325011D01*
X178476722Y-556457847D02*
X173920990Y-561013579D01*
X221422337Y-573325011D02*
X225587025Y-569160323D01*
X225587025Y-569160323D02*
X227137025Y-569160323D01*
X173920990Y-561013579D02*
X173920990Y-571454164D01*
X173920990Y-571454164D02*
X175791837Y-573325011D01*
X173543980Y-571610328D02*
X175635674Y-573702022D01*
X173543980Y-558850589D02*
X173543980Y-571610328D01*
X223129185Y-573649989D02*
X241150011Y-573649989D01*
X245637025Y-569162975D02*
X245637025Y-566710322D01*
X175936722Y-556457847D02*
X173543980Y-558850589D01*
X245637025Y-566710322D02*
X245637025Y-565160322D01*
X175635674Y-573702022D02*
X223077153Y-573702021D01*
X241150011Y-573649989D02*
X245637025Y-569162975D01*
X223077153Y-573702021D02*
X223129185Y-573649989D01*
X245637025Y-531710322D02*
X245637025Y-530160322D01*
X152969720Y-575780280D02*
X162700000Y-566050000D01*
X152912019Y-575780280D02*
X152969720Y-575780280D01*
X162700000Y-566050000D02*
X162700000Y-545700000D01*
X189301703Y-534600000D02*
X189450000Y-534600000D01*
X162700000Y-545700000D02*
X173800000Y-534600000D01*
X222300000Y-534600000D02*
X226450000Y-538750000D01*
X173800000Y-534600000D02*
X189450000Y-534600000D01*
X189450000Y-534600000D02*
X222300000Y-534600000D01*
X226450000Y-538750000D02*
X241150000Y-538750000D01*
X241150000Y-538750000D02*
X245637025Y-534262975D01*
X245637025Y-534262975D02*
X245637025Y-531710322D01*
X162250000Y-563902299D02*
X162250000Y-545513589D01*
X152912019Y-573240280D02*
X162250000Y-563902299D01*
X162250000Y-545513589D02*
X173613600Y-534149989D01*
X173613600Y-534149989D02*
X225576692Y-534149989D01*
X225576692Y-534149989D02*
X225587025Y-534160322D01*
X225587025Y-534160322D02*
X227137025Y-534160322D01*
X204200022Y-533699978D02*
X208700000Y-529200000D01*
X161750000Y-545377178D02*
X173427200Y-533699978D01*
X173427200Y-533699978D02*
X204200022Y-533699978D01*
X208700000Y-529200000D02*
X208700000Y-529160323D01*
X152912019Y-570700280D02*
X161750000Y-561862299D01*
X161750000Y-561862299D02*
X161750000Y-545377178D01*
X208700000Y-529160323D02*
X208637025Y-529160323D01*
X173240800Y-533249967D02*
X186150033Y-533249967D01*
X190300000Y-529100000D02*
X190300000Y-524160322D01*
X161300000Y-559772299D02*
X161300000Y-545190767D01*
X186150033Y-533249967D02*
X190300000Y-529100000D01*
X152912019Y-568160280D02*
X161300000Y-559772299D01*
X190300000Y-524160322D02*
X190137025Y-524160322D01*
X161300000Y-545190767D02*
X173240800Y-533249967D01*
M02*
