M48
; DRILL file {KiCad (5.1.4)-1} date 1/9/2023 1:44:02 PM
; FORMAT={-:-/ absolute / metric / decimal}
; #@! TF.CreationDate,2023-01-09T13:44:02-05:00
; #@! TF.GenerationSoftware,Kicad,Pcbnew,(5.1.4)-1
; #@! TF.FileFunction,NonPlated,1,2,NPTH
FMAT,2
METRIC
T1C1.702
T2C3.000
T3C3.429
%
G90
G05
T1
X259.412Y-543.91
X229.912Y-565.41
X240.912Y-565.41
X259.412Y-526.41
X229.912Y-547.91
X240.912Y-547.91
X211.412Y-542.91
X222.412Y-542.91
X248.412Y-561.41
X259.412Y-561.41
X229.912Y-530.41
X240.912Y-530.41
X248.412Y-543.91
X211.412Y-525.41
X222.412Y-525.41
X248.412Y-526.41
X192.912Y-537.91
X203.912Y-537.91
X211.412Y-560.41
X222.412Y-560.41
X192.912Y-555.41
X203.912Y-555.41
X192.912Y-520.41
X203.912Y-520.41
T2
X230.412Y-551.66
X235.412Y-553.86
X211.912Y-546.66
X216.912Y-548.86
X248.912Y-565.16
X253.912Y-567.36
X230.412Y-534.16
X235.412Y-536.36
X248.912Y-547.66
X253.912Y-549.86
X230.412Y-569.16
X235.412Y-571.36
X211.912Y-529.16
X216.912Y-531.36
X248.912Y-530.16
X253.912Y-532.36
X193.412Y-541.66
X198.412Y-543.86
X211.912Y-564.16
X216.912Y-566.36
X193.412Y-559.16
X198.412Y-561.36
X193.412Y-524.16
X198.412Y-526.36
T3
X235.412Y-530.41
X253.912Y-543.91
X235.412Y-565.41
X198.412Y-537.91
X198.412Y-555.41
X198.412Y-520.41
X235.412Y-547.91
X216.912Y-542.91
X253.912Y-561.41
X216.912Y-525.41
X253.912Y-526.41
X216.912Y-560.41
T0
M30
