G04 #@! TF.GenerationSoftware,KiCad,Pcbnew,(5.1.4)-1*
G04 #@! TF.CreationDate,2023-01-28T07:41:02-05:00*
G04 #@! TF.ProjectId,ThumbsUp,5468756d-6273-4557-902e-6b696361645f,rev?*
G04 #@! TF.SameCoordinates,Original*
G04 #@! TF.FileFunction,Soldermask,Bot*
G04 #@! TF.FilePolarity,Negative*
%FSLAX46Y46*%
G04 Gerber Fmt 4.6, Leading zero omitted, Abs format (unit mm)*
G04 Created by KiCad (PCBNEW (5.1.4)-1) date 2023-01-28 07:41:02*
%MOMM*%
%LPD*%
G04 APERTURE LIST*
%ADD10C,0.100000*%
G04 APERTURE END LIST*
D10*
G36*
X118803587Y-472190671D02*
G01*
X118869772Y-472197190D01*
X119039611Y-472248710D01*
X119196136Y-472332375D01*
X119231874Y-472361705D01*
X119333331Y-472444967D01*
X119416593Y-472546424D01*
X119445923Y-472582162D01*
X119529588Y-472738687D01*
X119581108Y-472908526D01*
X119598504Y-473085153D01*
X119581108Y-473261780D01*
X119529588Y-473431619D01*
X119445923Y-473588144D01*
X119416593Y-473623882D01*
X119333331Y-473725339D01*
X119231874Y-473808601D01*
X119196136Y-473837931D01*
X119039611Y-473921596D01*
X118869772Y-473973116D01*
X118803587Y-473979635D01*
X118737405Y-473986153D01*
X118648885Y-473986153D01*
X118582703Y-473979635D01*
X118516518Y-473973116D01*
X118346679Y-473921596D01*
X118190154Y-473837931D01*
X118154416Y-473808601D01*
X118052959Y-473725339D01*
X117969697Y-473623882D01*
X117940367Y-473588144D01*
X117856702Y-473431619D01*
X117805182Y-473261780D01*
X117787786Y-473085153D01*
X117805182Y-472908526D01*
X117856702Y-472738687D01*
X117940367Y-472582162D01*
X117969697Y-472546424D01*
X118052959Y-472444967D01*
X118154416Y-472361705D01*
X118190154Y-472332375D01*
X118346679Y-472248710D01*
X118516518Y-472197190D01*
X118582703Y-472190671D01*
X118648885Y-472184153D01*
X118737405Y-472184153D01*
X118803587Y-472190671D01*
X118803587Y-472190671D01*
G37*
G36*
X116350136Y-471533272D02*
G01*
X116416320Y-471539790D01*
X116586159Y-471591310D01*
X116742684Y-471674975D01*
X116778422Y-471704305D01*
X116879879Y-471787567D01*
X116963141Y-471889024D01*
X116992471Y-471924762D01*
X117076136Y-472081287D01*
X117127656Y-472251126D01*
X117145052Y-472427753D01*
X117127656Y-472604380D01*
X117076136Y-472774219D01*
X116992471Y-472930744D01*
X116963141Y-472966482D01*
X116879879Y-473067939D01*
X116778422Y-473151201D01*
X116742684Y-473180531D01*
X116586159Y-473264196D01*
X116416320Y-473315716D01*
X116350135Y-473322235D01*
X116283953Y-473328753D01*
X116195433Y-473328753D01*
X116129251Y-473322235D01*
X116063066Y-473315716D01*
X115893227Y-473264196D01*
X115736702Y-473180531D01*
X115700964Y-473151201D01*
X115599507Y-473067939D01*
X115516245Y-472966482D01*
X115486915Y-472930744D01*
X115403250Y-472774219D01*
X115351730Y-472604380D01*
X115334334Y-472427753D01*
X115351730Y-472251126D01*
X115403250Y-472081287D01*
X115486915Y-471924762D01*
X115516245Y-471889024D01*
X115599507Y-471787567D01*
X115700964Y-471704305D01*
X115736702Y-471674975D01*
X115893227Y-471591310D01*
X116063066Y-471539790D01*
X116129250Y-471533272D01*
X116195433Y-471526753D01*
X116283953Y-471526753D01*
X116350136Y-471533272D01*
X116350136Y-471533272D01*
G37*
G36*
X128034119Y-471017573D02*
G01*
X128109416Y-471024989D01*
X128279255Y-471076509D01*
X128435780Y-471160174D01*
X128471518Y-471189504D01*
X128572975Y-471272766D01*
X128656237Y-471374223D01*
X128685567Y-471409961D01*
X128769232Y-471566486D01*
X128820752Y-471736325D01*
X128838148Y-471912952D01*
X128820752Y-472089579D01*
X128769232Y-472259418D01*
X128685567Y-472415943D01*
X128661747Y-472444967D01*
X128572975Y-472553138D01*
X128471518Y-472636400D01*
X128435780Y-472665730D01*
X128279255Y-472749395D01*
X128109416Y-472800915D01*
X128043232Y-472807433D01*
X127977049Y-472813952D01*
X127888529Y-472813952D01*
X127822346Y-472807433D01*
X127756162Y-472800915D01*
X127586323Y-472749395D01*
X127429798Y-472665730D01*
X127394060Y-472636400D01*
X127292603Y-472553138D01*
X127203831Y-472444967D01*
X127180011Y-472415943D01*
X127096346Y-472259418D01*
X127044826Y-472089579D01*
X127027430Y-471912952D01*
X127044826Y-471736325D01*
X127096346Y-471566486D01*
X127180011Y-471409961D01*
X127209341Y-471374223D01*
X127292603Y-471272766D01*
X127394060Y-471189504D01*
X127429798Y-471160174D01*
X127586323Y-471076509D01*
X127756162Y-471024989D01*
X127831459Y-471017573D01*
X127888529Y-471011952D01*
X127977049Y-471011952D01*
X128034119Y-471017573D01*
X128034119Y-471017573D01*
G37*
G36*
X113896685Y-470875871D02*
G01*
X113962869Y-470882389D01*
X114132708Y-470933909D01*
X114289233Y-471017574D01*
X114298268Y-471024989D01*
X114426428Y-471130166D01*
X114509690Y-471231623D01*
X114539020Y-471267361D01*
X114622685Y-471423886D01*
X114674205Y-471593725D01*
X114691601Y-471770352D01*
X114674205Y-471946979D01*
X114622685Y-472116818D01*
X114539020Y-472273343D01*
X114509690Y-472309081D01*
X114426428Y-472410538D01*
X114324971Y-472493800D01*
X114289233Y-472523130D01*
X114132708Y-472606795D01*
X113962869Y-472658315D01*
X113896684Y-472664834D01*
X113830502Y-472671352D01*
X113741982Y-472671352D01*
X113675800Y-472664834D01*
X113609615Y-472658315D01*
X113439776Y-472606795D01*
X113283251Y-472523130D01*
X113247513Y-472493800D01*
X113146056Y-472410538D01*
X113062794Y-472309081D01*
X113033464Y-472273343D01*
X112949799Y-472116818D01*
X112898279Y-471946979D01*
X112880883Y-471770352D01*
X112898279Y-471593725D01*
X112949799Y-471423886D01*
X113033464Y-471267361D01*
X113062794Y-471231623D01*
X113146056Y-471130166D01*
X113274216Y-471024989D01*
X113283251Y-471017574D01*
X113439776Y-470933909D01*
X113609615Y-470882389D01*
X113675799Y-470875871D01*
X113741982Y-470869352D01*
X113830502Y-470869352D01*
X113896685Y-470875871D01*
X113896685Y-470875871D01*
G37*
G36*
X112436285Y-470475849D02*
G01*
X111969893Y-472216447D01*
X110229295Y-471750055D01*
X110695687Y-470009457D01*
X112436285Y-470475849D01*
X112436285Y-470475849D01*
G37*
G36*
X128692362Y-468564204D02*
G01*
X128766816Y-468571537D01*
X128936655Y-468623057D01*
X129093180Y-468706722D01*
X129128918Y-468736052D01*
X129230375Y-468819314D01*
X129294586Y-468897557D01*
X129342967Y-468956509D01*
X129426632Y-469113034D01*
X129478152Y-469282873D01*
X129495548Y-469459500D01*
X129478152Y-469636127D01*
X129426632Y-469805966D01*
X129342967Y-469962491D01*
X129313637Y-469998229D01*
X129230375Y-470099686D01*
X129128918Y-470182948D01*
X129093180Y-470212278D01*
X128936655Y-470295943D01*
X128766816Y-470347463D01*
X128700632Y-470353981D01*
X128634449Y-470360500D01*
X128545929Y-470360500D01*
X128479746Y-470353981D01*
X128413562Y-470347463D01*
X128243723Y-470295943D01*
X128087198Y-470212278D01*
X128051460Y-470182948D01*
X127950003Y-470099686D01*
X127866741Y-469998229D01*
X127837411Y-469962491D01*
X127753746Y-469805966D01*
X127702226Y-469636127D01*
X127684830Y-469459500D01*
X127702226Y-469282873D01*
X127753746Y-469113034D01*
X127837411Y-468956509D01*
X127885792Y-468897557D01*
X127950003Y-468819314D01*
X128051460Y-468736052D01*
X128087198Y-468706722D01*
X128243723Y-468623057D01*
X128413562Y-468571537D01*
X128488016Y-468564204D01*
X128545929Y-468558500D01*
X128634449Y-468558500D01*
X128692362Y-468564204D01*
X128692362Y-468564204D01*
G37*
G36*
X125851000Y-470051000D02*
G01*
X123649000Y-470051000D01*
X123649000Y-464349000D01*
X125851000Y-464349000D01*
X125851000Y-470051000D01*
X125851000Y-470051000D01*
G37*
G36*
X102103586Y-467790672D02*
G01*
X102169771Y-467797191D01*
X102339610Y-467848711D01*
X102496135Y-467932376D01*
X102519743Y-467951751D01*
X102633330Y-468044968D01*
X102716592Y-468146425D01*
X102745922Y-468182163D01*
X102745923Y-468182165D01*
X102821441Y-468323447D01*
X102829587Y-468338688D01*
X102881107Y-468508527D01*
X102898503Y-468685154D01*
X102881107Y-468861781D01*
X102829587Y-469031620D01*
X102745922Y-469188145D01*
X102716592Y-469223883D01*
X102633330Y-469325340D01*
X102531873Y-469408602D01*
X102496135Y-469437932D01*
X102339610Y-469521597D01*
X102169771Y-469573117D01*
X102103586Y-469579636D01*
X102037404Y-469586154D01*
X101948884Y-469586154D01*
X101882702Y-469579636D01*
X101816517Y-469573117D01*
X101646678Y-469521597D01*
X101490153Y-469437932D01*
X101454415Y-469408602D01*
X101352958Y-469325340D01*
X101269696Y-469223883D01*
X101240366Y-469188145D01*
X101156701Y-469031620D01*
X101105181Y-468861781D01*
X101087785Y-468685154D01*
X101105181Y-468508527D01*
X101156701Y-468338688D01*
X101164848Y-468323447D01*
X101240365Y-468182165D01*
X101240366Y-468182163D01*
X101269696Y-468146425D01*
X101352958Y-468044968D01*
X101466545Y-467951751D01*
X101490153Y-467932376D01*
X101646678Y-467848711D01*
X101816517Y-467797191D01*
X101882702Y-467790672D01*
X101948884Y-467784154D01*
X102037404Y-467784154D01*
X102103586Y-467790672D01*
X102103586Y-467790672D01*
G37*
G36*
X114911938Y-468371716D02*
G01*
X114932557Y-468377971D01*
X114951553Y-468388124D01*
X114968208Y-468401792D01*
X114981876Y-468418447D01*
X114992029Y-468437443D01*
X114998284Y-468458062D01*
X115001000Y-468485640D01*
X115001000Y-468944360D01*
X114998284Y-468971938D01*
X114992029Y-468992557D01*
X114981876Y-469011553D01*
X114968208Y-469028208D01*
X114951553Y-469041876D01*
X114932557Y-469052029D01*
X114911938Y-469058284D01*
X114884360Y-469061000D01*
X114375640Y-469061000D01*
X114348062Y-469058284D01*
X114327443Y-469052029D01*
X114308447Y-469041876D01*
X114291792Y-469028208D01*
X114278124Y-469011553D01*
X114267971Y-468992557D01*
X114261716Y-468971938D01*
X114259000Y-468944360D01*
X114259000Y-468485640D01*
X114261716Y-468458062D01*
X114267971Y-468437443D01*
X114278124Y-468418447D01*
X114291792Y-468401792D01*
X114308447Y-468388124D01*
X114327443Y-468377971D01*
X114348062Y-468371716D01*
X114375640Y-468369000D01*
X114884360Y-468369000D01*
X114911938Y-468371716D01*
X114911938Y-468371716D01*
G37*
G36*
X109681938Y-468276716D02*
G01*
X109702557Y-468282971D01*
X109721553Y-468293124D01*
X109738208Y-468306792D01*
X109751876Y-468323447D01*
X109762029Y-468342443D01*
X109768284Y-468363062D01*
X109771000Y-468390640D01*
X109771000Y-468849360D01*
X109768284Y-468876938D01*
X109762029Y-468897557D01*
X109751876Y-468916553D01*
X109738208Y-468933208D01*
X109721553Y-468946876D01*
X109702557Y-468957029D01*
X109681938Y-468963284D01*
X109654360Y-468966000D01*
X109145640Y-468966000D01*
X109118062Y-468963284D01*
X109097443Y-468957029D01*
X109078447Y-468946876D01*
X109061792Y-468933208D01*
X109048124Y-468916553D01*
X109037971Y-468897557D01*
X109031716Y-468876938D01*
X109029000Y-468849360D01*
X109029000Y-468390640D01*
X109031716Y-468363062D01*
X109037971Y-468342443D01*
X109048124Y-468323447D01*
X109061792Y-468306792D01*
X109078447Y-468293124D01*
X109097443Y-468282971D01*
X109118062Y-468276716D01*
X109145640Y-468274000D01*
X109654360Y-468274000D01*
X109681938Y-468276716D01*
X109681938Y-468276716D01*
G37*
G36*
X99650134Y-467133272D02*
G01*
X99716319Y-467139791D01*
X99886158Y-467191311D01*
X100042683Y-467274976D01*
X100078049Y-467304000D01*
X100179878Y-467387568D01*
X100253272Y-467477000D01*
X100292470Y-467524763D01*
X100376135Y-467681288D01*
X100427655Y-467851127D01*
X100445051Y-468027754D01*
X100427655Y-468204381D01*
X100376135Y-468374220D01*
X100292470Y-468530745D01*
X100269692Y-468558500D01*
X100179878Y-468667940D01*
X100078421Y-468751202D01*
X100042683Y-468780532D01*
X99886158Y-468864197D01*
X99716319Y-468915717D01*
X99655054Y-468921751D01*
X99583952Y-468928754D01*
X99495432Y-468928754D01*
X99424330Y-468921751D01*
X99363065Y-468915717D01*
X99193226Y-468864197D01*
X99036701Y-468780532D01*
X99000963Y-468751202D01*
X98899506Y-468667940D01*
X98809692Y-468558500D01*
X98786914Y-468530745D01*
X98703249Y-468374220D01*
X98651729Y-468204381D01*
X98634333Y-468027754D01*
X98651729Y-467851127D01*
X98703249Y-467681288D01*
X98786914Y-467524763D01*
X98826112Y-467477000D01*
X98899506Y-467387568D01*
X99001335Y-467304000D01*
X99036701Y-467274976D01*
X99193226Y-467191311D01*
X99363065Y-467139791D01*
X99429250Y-467133272D01*
X99495432Y-467126754D01*
X99583952Y-467126754D01*
X99650134Y-467133272D01*
X99650134Y-467133272D01*
G37*
G36*
X118671938Y-467931716D02*
G01*
X118692557Y-467937971D01*
X118711553Y-467948124D01*
X118728208Y-467961792D01*
X118741876Y-467978447D01*
X118752029Y-467997443D01*
X118758284Y-468018062D01*
X118761000Y-468045640D01*
X118761000Y-468554360D01*
X118758284Y-468581938D01*
X118752029Y-468602557D01*
X118741876Y-468621553D01*
X118728208Y-468638208D01*
X118711553Y-468651876D01*
X118692557Y-468662029D01*
X118671938Y-468668284D01*
X118644360Y-468671000D01*
X118185640Y-468671000D01*
X118158062Y-468668284D01*
X118137443Y-468662029D01*
X118118447Y-468651876D01*
X118101792Y-468638208D01*
X118088124Y-468621553D01*
X118077971Y-468602557D01*
X118071716Y-468581938D01*
X118069000Y-468554360D01*
X118069000Y-468045640D01*
X118071716Y-468018062D01*
X118077971Y-467997443D01*
X118088124Y-467978447D01*
X118101792Y-467961792D01*
X118118447Y-467948124D01*
X118137443Y-467937971D01*
X118158062Y-467931716D01*
X118185640Y-467929000D01*
X118644360Y-467929000D01*
X118671938Y-467931716D01*
X118671938Y-467931716D01*
G37*
G36*
X119641938Y-467931716D02*
G01*
X119662557Y-467937971D01*
X119681553Y-467948124D01*
X119698208Y-467961792D01*
X119711876Y-467978447D01*
X119722029Y-467997443D01*
X119728284Y-468018062D01*
X119731000Y-468045640D01*
X119731000Y-468554360D01*
X119728284Y-468581938D01*
X119722029Y-468602557D01*
X119711876Y-468621553D01*
X119698208Y-468638208D01*
X119681553Y-468651876D01*
X119662557Y-468662029D01*
X119641938Y-468668284D01*
X119614360Y-468671000D01*
X119155640Y-468671000D01*
X119128062Y-468668284D01*
X119107443Y-468662029D01*
X119088447Y-468651876D01*
X119071792Y-468638208D01*
X119058124Y-468621553D01*
X119047971Y-468602557D01*
X119041716Y-468581938D01*
X119039000Y-468554360D01*
X119039000Y-468045640D01*
X119041716Y-468018062D01*
X119047971Y-467997443D01*
X119058124Y-467978447D01*
X119071792Y-467961792D01*
X119088447Y-467948124D01*
X119107443Y-467937971D01*
X119128062Y-467931716D01*
X119155640Y-467929000D01*
X119614360Y-467929000D01*
X119641938Y-467931716D01*
X119641938Y-467931716D01*
G37*
G36*
X97196683Y-466475871D02*
G01*
X97262868Y-466482390D01*
X97432707Y-466533910D01*
X97432709Y-466533911D01*
X97454652Y-466545640D01*
X97589232Y-466617575D01*
X97624970Y-466646905D01*
X97726427Y-466730167D01*
X97807882Y-466829422D01*
X97839019Y-466867362D01*
X97922684Y-467023887D01*
X97974204Y-467193726D01*
X97991600Y-467370353D01*
X97974204Y-467546980D01*
X97922684Y-467716819D01*
X97839019Y-467873344D01*
X97826003Y-467889204D01*
X97726427Y-468010539D01*
X97624970Y-468093801D01*
X97589232Y-468123131D01*
X97432707Y-468206796D01*
X97262868Y-468258316D01*
X97196683Y-468264835D01*
X97130501Y-468271353D01*
X97041981Y-468271353D01*
X96975799Y-468264835D01*
X96909614Y-468258316D01*
X96739775Y-468206796D01*
X96583250Y-468123131D01*
X96547512Y-468093801D01*
X96446055Y-468010539D01*
X96346479Y-467889204D01*
X96333463Y-467873344D01*
X96249798Y-467716819D01*
X96198278Y-467546980D01*
X96180882Y-467370353D01*
X96198278Y-467193726D01*
X96249798Y-467023887D01*
X96333463Y-466867362D01*
X96364600Y-466829422D01*
X96446055Y-466730167D01*
X96547512Y-466646905D01*
X96583250Y-466617575D01*
X96717830Y-466545640D01*
X96739773Y-466533911D01*
X96739775Y-466533910D01*
X96909614Y-466482390D01*
X96975799Y-466475871D01*
X97041981Y-466469353D01*
X97130501Y-466469353D01*
X97196683Y-466475871D01*
X97196683Y-466475871D01*
G37*
G36*
X114911938Y-467401716D02*
G01*
X114932557Y-467407971D01*
X114951553Y-467418124D01*
X114968208Y-467431792D01*
X114981876Y-467448447D01*
X114992029Y-467467443D01*
X114998284Y-467488062D01*
X115001000Y-467515640D01*
X115001000Y-467974360D01*
X114998284Y-468001938D01*
X114992029Y-468022557D01*
X114981876Y-468041553D01*
X114968208Y-468058208D01*
X114951553Y-468071876D01*
X114932557Y-468082029D01*
X114911938Y-468088284D01*
X114884360Y-468091000D01*
X114375640Y-468091000D01*
X114348062Y-468088284D01*
X114327443Y-468082029D01*
X114308447Y-468071876D01*
X114291792Y-468058208D01*
X114278124Y-468041553D01*
X114267971Y-468022557D01*
X114261716Y-468001938D01*
X114259000Y-467974360D01*
X114259000Y-467515640D01*
X114261716Y-467488062D01*
X114267971Y-467467443D01*
X114278124Y-467448447D01*
X114291792Y-467431792D01*
X114308447Y-467418124D01*
X114327443Y-467407971D01*
X114348062Y-467401716D01*
X114375640Y-467399000D01*
X114884360Y-467399000D01*
X114911938Y-467401716D01*
X114911938Y-467401716D01*
G37*
G36*
X109681938Y-467306716D02*
G01*
X109702557Y-467312971D01*
X109721553Y-467323124D01*
X109738208Y-467336792D01*
X109751876Y-467353447D01*
X109762029Y-467372443D01*
X109768284Y-467393062D01*
X109771000Y-467420640D01*
X109771000Y-467879360D01*
X109768284Y-467906938D01*
X109762029Y-467927557D01*
X109751876Y-467946553D01*
X109738208Y-467963208D01*
X109721553Y-467976876D01*
X109702557Y-467987029D01*
X109681938Y-467993284D01*
X109654360Y-467996000D01*
X109145640Y-467996000D01*
X109118062Y-467993284D01*
X109097443Y-467987029D01*
X109078447Y-467976876D01*
X109061792Y-467963208D01*
X109048124Y-467946553D01*
X109037971Y-467927557D01*
X109031716Y-467906938D01*
X109029000Y-467879360D01*
X109029000Y-467420640D01*
X109031716Y-467393062D01*
X109037971Y-467372443D01*
X109048124Y-467353447D01*
X109061792Y-467336792D01*
X109078447Y-467323124D01*
X109097443Y-467312971D01*
X109118062Y-467306716D01*
X109145640Y-467304000D01*
X109654360Y-467304000D01*
X109681938Y-467306716D01*
X109681938Y-467306716D01*
G37*
G36*
X129358033Y-466111568D02*
G01*
X129424217Y-466118086D01*
X129594056Y-466169606D01*
X129750581Y-466253271D01*
X129768528Y-466268000D01*
X129887776Y-466365863D01*
X129955285Y-466448124D01*
X130000368Y-466503058D01*
X130084033Y-466659583D01*
X130135553Y-466829422D01*
X130152949Y-467006049D01*
X130135553Y-467182676D01*
X130084033Y-467352515D01*
X130000368Y-467509040D01*
X129976397Y-467538249D01*
X129887776Y-467646235D01*
X129801768Y-467716819D01*
X129750581Y-467758827D01*
X129594056Y-467842492D01*
X129424217Y-467894012D01*
X129358033Y-467900530D01*
X129291850Y-467907049D01*
X129203330Y-467907049D01*
X129137147Y-467900530D01*
X129070963Y-467894012D01*
X128901124Y-467842492D01*
X128744599Y-467758827D01*
X128693412Y-467716819D01*
X128607404Y-467646235D01*
X128518783Y-467538249D01*
X128494812Y-467509040D01*
X128411147Y-467352515D01*
X128359627Y-467182676D01*
X128342231Y-467006049D01*
X128359627Y-466829422D01*
X128411147Y-466659583D01*
X128494812Y-466503058D01*
X128539895Y-466448124D01*
X128607404Y-466365863D01*
X128726652Y-466268000D01*
X128744599Y-466253271D01*
X128901124Y-466169606D01*
X129070963Y-466118086D01*
X129137147Y-466111568D01*
X129203330Y-466105049D01*
X129291850Y-466105049D01*
X129358033Y-466111568D01*
X129358033Y-466111568D01*
G37*
G36*
X95736284Y-466075850D02*
G01*
X95269892Y-467816448D01*
X93529294Y-467350056D01*
X93995686Y-465609458D01*
X95736284Y-466075850D01*
X95736284Y-466075850D01*
G37*
G36*
X107166938Y-466721716D02*
G01*
X107187557Y-466727971D01*
X107206553Y-466738124D01*
X107223208Y-466751792D01*
X107236876Y-466768447D01*
X107247029Y-466787443D01*
X107253284Y-466808062D01*
X107256000Y-466835640D01*
X107256000Y-467344360D01*
X107253284Y-467371938D01*
X107247029Y-467392557D01*
X107236876Y-467411553D01*
X107223208Y-467428208D01*
X107206553Y-467441876D01*
X107187557Y-467452029D01*
X107166938Y-467458284D01*
X107139360Y-467461000D01*
X106680640Y-467461000D01*
X106653062Y-467458284D01*
X106632443Y-467452029D01*
X106613447Y-467441876D01*
X106596792Y-467428208D01*
X106583124Y-467411553D01*
X106572971Y-467392557D01*
X106566716Y-467371938D01*
X106564000Y-467344360D01*
X106564000Y-466835640D01*
X106566716Y-466808062D01*
X106572971Y-466787443D01*
X106583124Y-466768447D01*
X106596792Y-466751792D01*
X106613447Y-466738124D01*
X106632443Y-466727971D01*
X106653062Y-466721716D01*
X106680640Y-466719000D01*
X107139360Y-466719000D01*
X107166938Y-466721716D01*
X107166938Y-466721716D01*
G37*
G36*
X106196938Y-466721716D02*
G01*
X106217557Y-466727971D01*
X106236553Y-466738124D01*
X106253208Y-466751792D01*
X106266876Y-466768447D01*
X106277029Y-466787443D01*
X106283284Y-466808062D01*
X106286000Y-466835640D01*
X106286000Y-467344360D01*
X106283284Y-467371938D01*
X106277029Y-467392557D01*
X106266876Y-467411553D01*
X106253208Y-467428208D01*
X106236553Y-467441876D01*
X106217557Y-467452029D01*
X106196938Y-467458284D01*
X106169360Y-467461000D01*
X105710640Y-467461000D01*
X105683062Y-467458284D01*
X105662443Y-467452029D01*
X105643447Y-467441876D01*
X105626792Y-467428208D01*
X105613124Y-467411553D01*
X105602971Y-467392557D01*
X105596716Y-467371938D01*
X105594000Y-467344360D01*
X105594000Y-466835640D01*
X105596716Y-466808062D01*
X105602971Y-466787443D01*
X105613124Y-466768447D01*
X105626792Y-466751792D01*
X105643447Y-466738124D01*
X105662443Y-466727971D01*
X105683062Y-466721716D01*
X105710640Y-466719000D01*
X106169360Y-466719000D01*
X106196938Y-466721716D01*
X106196938Y-466721716D01*
G37*
G36*
X118656938Y-466431716D02*
G01*
X118677557Y-466437971D01*
X118696553Y-466448124D01*
X118713208Y-466461792D01*
X118726876Y-466478447D01*
X118737029Y-466497443D01*
X118743284Y-466518062D01*
X118746000Y-466545640D01*
X118746000Y-467054360D01*
X118743284Y-467081938D01*
X118737029Y-467102557D01*
X118726876Y-467121553D01*
X118713208Y-467138208D01*
X118696553Y-467151876D01*
X118677557Y-467162029D01*
X118656938Y-467168284D01*
X118629360Y-467171000D01*
X118170640Y-467171000D01*
X118143062Y-467168284D01*
X118122443Y-467162029D01*
X118103447Y-467151876D01*
X118086792Y-467138208D01*
X118073124Y-467121553D01*
X118062971Y-467102557D01*
X118056716Y-467081938D01*
X118054000Y-467054360D01*
X118054000Y-466545640D01*
X118056716Y-466518062D01*
X118062971Y-466497443D01*
X118073124Y-466478447D01*
X118086792Y-466461792D01*
X118103447Y-466448124D01*
X118122443Y-466437971D01*
X118143062Y-466431716D01*
X118170640Y-466429000D01*
X118629360Y-466429000D01*
X118656938Y-466431716D01*
X118656938Y-466431716D01*
G37*
G36*
X119626938Y-466431716D02*
G01*
X119647557Y-466437971D01*
X119666553Y-466448124D01*
X119683208Y-466461792D01*
X119696876Y-466478447D01*
X119707029Y-466497443D01*
X119713284Y-466518062D01*
X119716000Y-466545640D01*
X119716000Y-467054360D01*
X119713284Y-467081938D01*
X119707029Y-467102557D01*
X119696876Y-467121553D01*
X119683208Y-467138208D01*
X119666553Y-467151876D01*
X119647557Y-467162029D01*
X119626938Y-467168284D01*
X119599360Y-467171000D01*
X119140640Y-467171000D01*
X119113062Y-467168284D01*
X119092443Y-467162029D01*
X119073447Y-467151876D01*
X119056792Y-467138208D01*
X119043124Y-467121553D01*
X119032971Y-467102557D01*
X119026716Y-467081938D01*
X119024000Y-467054360D01*
X119024000Y-466545640D01*
X119026716Y-466518062D01*
X119032971Y-466497443D01*
X119043124Y-466478447D01*
X119056792Y-466461792D01*
X119073447Y-466448124D01*
X119092443Y-466437971D01*
X119113062Y-466431716D01*
X119140640Y-466429000D01*
X119599360Y-466429000D01*
X119626938Y-466431716D01*
X119626938Y-466431716D01*
G37*
G36*
X107186938Y-465701716D02*
G01*
X107207557Y-465707971D01*
X107226553Y-465718124D01*
X107243208Y-465731792D01*
X107256876Y-465748447D01*
X107267029Y-465767443D01*
X107273284Y-465788062D01*
X107276000Y-465815640D01*
X107276000Y-466324360D01*
X107273284Y-466351938D01*
X107267029Y-466372557D01*
X107256876Y-466391553D01*
X107243208Y-466408208D01*
X107226553Y-466421876D01*
X107207557Y-466432029D01*
X107186938Y-466438284D01*
X107159360Y-466441000D01*
X106700640Y-466441000D01*
X106673062Y-466438284D01*
X106652443Y-466432029D01*
X106633447Y-466421876D01*
X106616792Y-466408208D01*
X106603124Y-466391553D01*
X106592971Y-466372557D01*
X106586716Y-466351938D01*
X106584000Y-466324360D01*
X106584000Y-465815640D01*
X106586716Y-465788062D01*
X106592971Y-465767443D01*
X106603124Y-465748447D01*
X106616792Y-465731792D01*
X106633447Y-465718124D01*
X106652443Y-465707971D01*
X106673062Y-465701716D01*
X106700640Y-465699000D01*
X107159360Y-465699000D01*
X107186938Y-465701716D01*
X107186938Y-465701716D01*
G37*
G36*
X106216938Y-465701716D02*
G01*
X106237557Y-465707971D01*
X106256553Y-465718124D01*
X106273208Y-465731792D01*
X106286876Y-465748447D01*
X106297029Y-465767443D01*
X106303284Y-465788062D01*
X106306000Y-465815640D01*
X106306000Y-466324360D01*
X106303284Y-466351938D01*
X106297029Y-466372557D01*
X106286876Y-466391553D01*
X106273208Y-466408208D01*
X106256553Y-466421876D01*
X106237557Y-466432029D01*
X106216938Y-466438284D01*
X106189360Y-466441000D01*
X105730640Y-466441000D01*
X105703062Y-466438284D01*
X105682443Y-466432029D01*
X105663447Y-466421876D01*
X105646792Y-466408208D01*
X105633124Y-466391553D01*
X105622971Y-466372557D01*
X105616716Y-466351938D01*
X105614000Y-466324360D01*
X105614000Y-465815640D01*
X105616716Y-465788062D01*
X105622971Y-465767443D01*
X105633124Y-465748447D01*
X105646792Y-465731792D01*
X105663447Y-465718124D01*
X105682443Y-465707971D01*
X105703062Y-465701716D01*
X105730640Y-465699000D01*
X106189360Y-465699000D01*
X106216938Y-465701716D01*
X106216938Y-465701716D01*
G37*
G36*
X89738399Y-464377339D02*
G01*
X89804583Y-464383857D01*
X89974422Y-464435377D01*
X90130947Y-464519042D01*
X90166685Y-464548372D01*
X90268142Y-464631634D01*
X90330941Y-464708156D01*
X90380734Y-464768829D01*
X90464399Y-464925354D01*
X90515919Y-465095193D01*
X90533315Y-465271820D01*
X90515919Y-465448447D01*
X90464399Y-465618286D01*
X90380734Y-465774811D01*
X90369859Y-465788062D01*
X90268142Y-465912006D01*
X90166685Y-465995268D01*
X90130947Y-466024598D01*
X89974422Y-466108263D01*
X89804583Y-466159783D01*
X89738398Y-466166302D01*
X89672216Y-466172820D01*
X89583696Y-466172820D01*
X89517514Y-466166302D01*
X89451329Y-466159783D01*
X89281490Y-466108263D01*
X89124965Y-466024598D01*
X89089227Y-465995268D01*
X88987770Y-465912006D01*
X88886053Y-465788062D01*
X88875178Y-465774811D01*
X88791513Y-465618286D01*
X88739993Y-465448447D01*
X88722597Y-465271820D01*
X88739993Y-465095193D01*
X88791513Y-464925354D01*
X88875178Y-464768829D01*
X88924971Y-464708156D01*
X88987770Y-464631634D01*
X89089227Y-464548372D01*
X89124965Y-464519042D01*
X89281490Y-464435377D01*
X89451329Y-464383857D01*
X89517513Y-464377339D01*
X89583696Y-464370820D01*
X89672216Y-464370820D01*
X89738399Y-464377339D01*
X89738399Y-464377339D01*
G37*
G36*
X115551000Y-465976000D02*
G01*
X110049000Y-465976000D01*
X110049000Y-465024000D01*
X115551000Y-465024000D01*
X115551000Y-465976000D01*
X115551000Y-465976000D01*
G37*
G36*
X131008485Y-463915494D02*
G01*
X130542093Y-465656092D01*
X128801495Y-465189700D01*
X129267887Y-463449102D01*
X131008485Y-463915494D01*
X131008485Y-463915494D01*
G37*
G36*
X106221938Y-464681716D02*
G01*
X106242557Y-464687971D01*
X106261553Y-464698124D01*
X106278208Y-464711792D01*
X106291876Y-464728447D01*
X106302029Y-464747443D01*
X106308284Y-464768062D01*
X106311000Y-464795640D01*
X106311000Y-465304360D01*
X106308284Y-465331938D01*
X106302029Y-465352557D01*
X106291876Y-465371553D01*
X106278208Y-465388208D01*
X106261553Y-465401876D01*
X106242557Y-465412029D01*
X106221938Y-465418284D01*
X106194360Y-465421000D01*
X105735640Y-465421000D01*
X105708062Y-465418284D01*
X105687443Y-465412029D01*
X105668447Y-465401876D01*
X105651792Y-465388208D01*
X105638124Y-465371553D01*
X105627971Y-465352557D01*
X105621716Y-465331938D01*
X105619000Y-465304360D01*
X105619000Y-464795640D01*
X105621716Y-464768062D01*
X105627971Y-464747443D01*
X105638124Y-464728447D01*
X105651792Y-464711792D01*
X105668447Y-464698124D01*
X105687443Y-464687971D01*
X105708062Y-464681716D01*
X105735640Y-464679000D01*
X106194360Y-464679000D01*
X106221938Y-464681716D01*
X106221938Y-464681716D01*
G37*
G36*
X107191938Y-464681716D02*
G01*
X107212557Y-464687971D01*
X107231553Y-464698124D01*
X107248208Y-464711792D01*
X107261876Y-464728447D01*
X107272029Y-464747443D01*
X107278284Y-464768062D01*
X107281000Y-464795640D01*
X107281000Y-465304360D01*
X107278284Y-465331938D01*
X107272029Y-465352557D01*
X107261876Y-465371553D01*
X107248208Y-465388208D01*
X107231553Y-465401876D01*
X107212557Y-465412029D01*
X107191938Y-465418284D01*
X107164360Y-465421000D01*
X106705640Y-465421000D01*
X106678062Y-465418284D01*
X106657443Y-465412029D01*
X106638447Y-465401876D01*
X106621792Y-465388208D01*
X106608124Y-465371553D01*
X106597971Y-465352557D01*
X106591716Y-465331938D01*
X106589000Y-465304360D01*
X106589000Y-464795640D01*
X106591716Y-464768062D01*
X106597971Y-464747443D01*
X106608124Y-464728447D01*
X106621792Y-464711792D01*
X106638447Y-464698124D01*
X106657443Y-464687971D01*
X106678062Y-464681716D01*
X106705640Y-464679000D01*
X107164360Y-464679000D01*
X107191938Y-464681716D01*
X107191938Y-464681716D01*
G37*
G36*
X109826000Y-464801000D02*
G01*
X108874000Y-464801000D01*
X108874000Y-459299000D01*
X109826000Y-459299000D01*
X109826000Y-464801000D01*
X109826000Y-464801000D01*
G37*
G36*
X116726000Y-464801000D02*
G01*
X115774000Y-464801000D01*
X115774000Y-459299000D01*
X116726000Y-459299000D01*
X116726000Y-464801000D01*
X116726000Y-464801000D01*
G37*
G36*
X98311938Y-463491716D02*
G01*
X98332557Y-463497971D01*
X98351553Y-463508124D01*
X98368208Y-463521792D01*
X98381876Y-463538447D01*
X98392029Y-463557443D01*
X98398284Y-463578062D01*
X98401000Y-463605640D01*
X98401000Y-464114360D01*
X98398284Y-464141938D01*
X98392029Y-464162557D01*
X98381876Y-464181553D01*
X98368208Y-464198208D01*
X98351553Y-464211876D01*
X98332557Y-464222029D01*
X98311938Y-464228284D01*
X98284360Y-464231000D01*
X97825640Y-464231000D01*
X97798062Y-464228284D01*
X97777443Y-464222029D01*
X97758447Y-464211876D01*
X97741792Y-464198208D01*
X97728124Y-464181553D01*
X97717971Y-464162557D01*
X97711716Y-464141938D01*
X97709000Y-464114360D01*
X97709000Y-463605640D01*
X97711716Y-463578062D01*
X97717971Y-463557443D01*
X97728124Y-463538447D01*
X97741792Y-463521792D01*
X97758447Y-463508124D01*
X97777443Y-463497971D01*
X97798062Y-463491716D01*
X97825640Y-463489000D01*
X98284360Y-463489000D01*
X98311938Y-463491716D01*
X98311938Y-463491716D01*
G37*
G36*
X99281938Y-463491716D02*
G01*
X99302557Y-463497971D01*
X99321553Y-463508124D01*
X99338208Y-463521792D01*
X99351876Y-463538447D01*
X99362029Y-463557443D01*
X99368284Y-463578062D01*
X99371000Y-463605640D01*
X99371000Y-464114360D01*
X99368284Y-464141938D01*
X99362029Y-464162557D01*
X99351876Y-464181553D01*
X99338208Y-464198208D01*
X99321553Y-464211876D01*
X99302557Y-464222029D01*
X99281938Y-464228284D01*
X99254360Y-464231000D01*
X98795640Y-464231000D01*
X98768062Y-464228284D01*
X98747443Y-464222029D01*
X98728447Y-464211876D01*
X98711792Y-464198208D01*
X98698124Y-464181553D01*
X98687971Y-464162557D01*
X98681716Y-464141938D01*
X98679000Y-464114360D01*
X98679000Y-463605640D01*
X98681716Y-463578062D01*
X98687971Y-463557443D01*
X98698124Y-463538447D01*
X98711792Y-463521792D01*
X98728447Y-463508124D01*
X98747443Y-463497971D01*
X98768062Y-463491716D01*
X98795640Y-463489000D01*
X99254360Y-463489000D01*
X99281938Y-463491716D01*
X99281938Y-463491716D01*
G37*
G36*
X119926938Y-463406716D02*
G01*
X119947557Y-463412971D01*
X119966553Y-463423124D01*
X119983208Y-463436792D01*
X119996876Y-463453447D01*
X120007029Y-463472443D01*
X120013284Y-463493062D01*
X120016000Y-463520640D01*
X120016000Y-464029360D01*
X120013284Y-464056938D01*
X120007029Y-464077557D01*
X119996876Y-464096553D01*
X119983208Y-464113208D01*
X119966553Y-464126876D01*
X119947557Y-464137029D01*
X119926938Y-464143284D01*
X119899360Y-464146000D01*
X119440640Y-464146000D01*
X119413062Y-464143284D01*
X119392443Y-464137029D01*
X119373447Y-464126876D01*
X119356792Y-464113208D01*
X119343124Y-464096553D01*
X119332971Y-464077557D01*
X119326716Y-464056938D01*
X119324000Y-464029360D01*
X119324000Y-463520640D01*
X119326716Y-463493062D01*
X119332971Y-463472443D01*
X119343124Y-463453447D01*
X119356792Y-463436792D01*
X119373447Y-463423124D01*
X119392443Y-463412971D01*
X119413062Y-463406716D01*
X119440640Y-463404000D01*
X119899360Y-463404000D01*
X119926938Y-463406716D01*
X119926938Y-463406716D01*
G37*
G36*
X118956938Y-463406716D02*
G01*
X118977557Y-463412971D01*
X118996553Y-463423124D01*
X119013208Y-463436792D01*
X119026876Y-463453447D01*
X119037029Y-463472443D01*
X119043284Y-463493062D01*
X119046000Y-463520640D01*
X119046000Y-464029360D01*
X119043284Y-464056938D01*
X119037029Y-464077557D01*
X119026876Y-464096553D01*
X119013208Y-464113208D01*
X118996553Y-464126876D01*
X118977557Y-464137029D01*
X118956938Y-464143284D01*
X118929360Y-464146000D01*
X118470640Y-464146000D01*
X118443062Y-464143284D01*
X118422443Y-464137029D01*
X118403447Y-464126876D01*
X118386792Y-464113208D01*
X118373124Y-464096553D01*
X118362971Y-464077557D01*
X118356716Y-464056938D01*
X118354000Y-464029360D01*
X118354000Y-463520640D01*
X118356716Y-463493062D01*
X118362971Y-463472443D01*
X118373124Y-463453447D01*
X118386792Y-463436792D01*
X118403447Y-463423124D01*
X118422443Y-463412971D01*
X118443062Y-463406716D01*
X118470640Y-463404000D01*
X118929360Y-463404000D01*
X118956938Y-463406716D01*
X118956938Y-463406716D01*
G37*
G36*
X85801206Y-462662593D02*
G01*
X86576536Y-462870342D01*
X86278377Y-463983088D01*
X86278376Y-463983088D01*
X84827556Y-463594342D01*
X84852254Y-463502169D01*
X85125715Y-462481596D01*
X85125716Y-462481596D01*
X85801206Y-462662593D01*
X85801206Y-462662593D01*
G37*
G36*
X90395799Y-461923887D02*
G01*
X90461983Y-461930405D01*
X90631822Y-461981925D01*
X90788347Y-462065590D01*
X90824085Y-462094920D01*
X90925542Y-462178182D01*
X91008804Y-462279639D01*
X91038134Y-462315377D01*
X91121799Y-462471902D01*
X91173319Y-462641741D01*
X91190715Y-462818368D01*
X91173319Y-462994995D01*
X91121799Y-463164834D01*
X91038134Y-463321359D01*
X91008804Y-463357097D01*
X90925542Y-463458554D01*
X90848485Y-463521792D01*
X90788347Y-463571146D01*
X90631822Y-463654811D01*
X90461983Y-463706331D01*
X90395799Y-463712849D01*
X90329616Y-463719368D01*
X90241096Y-463719368D01*
X90174913Y-463712849D01*
X90108729Y-463706331D01*
X89938890Y-463654811D01*
X89782365Y-463571146D01*
X89722227Y-463521792D01*
X89645170Y-463458554D01*
X89561908Y-463357097D01*
X89532578Y-463321359D01*
X89448913Y-463164834D01*
X89397393Y-462994995D01*
X89379997Y-462818368D01*
X89397393Y-462641741D01*
X89448913Y-462471902D01*
X89532578Y-462315377D01*
X89561908Y-462279639D01*
X89645170Y-462178182D01*
X89746627Y-462094920D01*
X89782365Y-462065590D01*
X89938890Y-461981925D01*
X90108729Y-461930405D01*
X90174913Y-461923887D01*
X90241096Y-461917368D01*
X90329616Y-461917368D01*
X90395799Y-461923887D01*
X90395799Y-461923887D01*
G37*
G36*
X114451000Y-463701000D02*
G01*
X111149000Y-463701000D01*
X111149000Y-460399000D01*
X114451000Y-460399000D01*
X114451000Y-463701000D01*
X114451000Y-463701000D01*
G37*
G36*
X82999180Y-461911792D02*
G01*
X83099203Y-461938593D01*
X82801044Y-463051339D01*
X82801043Y-463051339D01*
X81350223Y-462662593D01*
X81394058Y-462499000D01*
X81648382Y-461549847D01*
X81648383Y-461549847D01*
X82999180Y-461911792D01*
X82999180Y-461911792D01*
G37*
G36*
X107156938Y-462181716D02*
G01*
X107177557Y-462187971D01*
X107196553Y-462198124D01*
X107213208Y-462211792D01*
X107226876Y-462228447D01*
X107237029Y-462247443D01*
X107243284Y-462268062D01*
X107246000Y-462295640D01*
X107246000Y-462804360D01*
X107243284Y-462831938D01*
X107237029Y-462852557D01*
X107226876Y-462871553D01*
X107213208Y-462888208D01*
X107196553Y-462901876D01*
X107177557Y-462912029D01*
X107156938Y-462918284D01*
X107129360Y-462921000D01*
X106670640Y-462921000D01*
X106643062Y-462918284D01*
X106622443Y-462912029D01*
X106603447Y-462901876D01*
X106586792Y-462888208D01*
X106573124Y-462871553D01*
X106562971Y-462852557D01*
X106556716Y-462831938D01*
X106554000Y-462804360D01*
X106554000Y-462295640D01*
X106556716Y-462268062D01*
X106562971Y-462247443D01*
X106573124Y-462228447D01*
X106586792Y-462211792D01*
X106603447Y-462198124D01*
X106622443Y-462187971D01*
X106643062Y-462181716D01*
X106670640Y-462179000D01*
X107129360Y-462179000D01*
X107156938Y-462181716D01*
X107156938Y-462181716D01*
G37*
G36*
X106186938Y-462181716D02*
G01*
X106207557Y-462187971D01*
X106226553Y-462198124D01*
X106243208Y-462211792D01*
X106256876Y-462228447D01*
X106267029Y-462247443D01*
X106273284Y-462268062D01*
X106276000Y-462295640D01*
X106276000Y-462804360D01*
X106273284Y-462831938D01*
X106267029Y-462852557D01*
X106256876Y-462871553D01*
X106243208Y-462888208D01*
X106226553Y-462901876D01*
X106207557Y-462912029D01*
X106186938Y-462918284D01*
X106159360Y-462921000D01*
X105700640Y-462921000D01*
X105673062Y-462918284D01*
X105652443Y-462912029D01*
X105633447Y-462901876D01*
X105616792Y-462888208D01*
X105603124Y-462871553D01*
X105592971Y-462852557D01*
X105586716Y-462831938D01*
X105584000Y-462804360D01*
X105584000Y-462295640D01*
X105586716Y-462268062D01*
X105592971Y-462247443D01*
X105603124Y-462228447D01*
X105616792Y-462211792D01*
X105633447Y-462198124D01*
X105652443Y-462187971D01*
X105673062Y-462181716D01*
X105700640Y-462179000D01*
X106159360Y-462179000D01*
X106186938Y-462181716D01*
X106186938Y-462181716D01*
G37*
G36*
X99421000Y-462886000D02*
G01*
X98669000Y-462886000D01*
X98669000Y-461134000D01*
X99421000Y-461134000D01*
X99421000Y-462886000D01*
X99421000Y-462886000D01*
G37*
G36*
X100691000Y-462886000D02*
G01*
X99939000Y-462886000D01*
X99939000Y-461134000D01*
X100691000Y-461134000D01*
X100691000Y-462886000D01*
X100691000Y-462886000D01*
G37*
G36*
X101961000Y-462886000D02*
G01*
X101209000Y-462886000D01*
X101209000Y-461134000D01*
X101961000Y-461134000D01*
X101961000Y-462886000D01*
X101961000Y-462886000D01*
G37*
G36*
X103231000Y-462886000D02*
G01*
X102479000Y-462886000D01*
X102479000Y-461134000D01*
X103231000Y-461134000D01*
X103231000Y-462886000D01*
X103231000Y-462886000D01*
G37*
G36*
X118971938Y-461881716D02*
G01*
X118992557Y-461887971D01*
X119011553Y-461898124D01*
X119028208Y-461911792D01*
X119041876Y-461928447D01*
X119052029Y-461947443D01*
X119058284Y-461968062D01*
X119061000Y-461995640D01*
X119061000Y-462504360D01*
X119058284Y-462531938D01*
X119052029Y-462552557D01*
X119041876Y-462571553D01*
X119028208Y-462588208D01*
X119011553Y-462601876D01*
X118992557Y-462612029D01*
X118971938Y-462618284D01*
X118944360Y-462621000D01*
X118485640Y-462621000D01*
X118458062Y-462618284D01*
X118437443Y-462612029D01*
X118418447Y-462601876D01*
X118401792Y-462588208D01*
X118388124Y-462571553D01*
X118377971Y-462552557D01*
X118371716Y-462531938D01*
X118369000Y-462504360D01*
X118369000Y-461995640D01*
X118371716Y-461968062D01*
X118377971Y-461947443D01*
X118388124Y-461928447D01*
X118401792Y-461911792D01*
X118418447Y-461898124D01*
X118437443Y-461887971D01*
X118458062Y-461881716D01*
X118485640Y-461879000D01*
X118944360Y-461879000D01*
X118971938Y-461881716D01*
X118971938Y-461881716D01*
G37*
G36*
X119941938Y-461881716D02*
G01*
X119962557Y-461887971D01*
X119981553Y-461898124D01*
X119998208Y-461911792D01*
X120011876Y-461928447D01*
X120022029Y-461947443D01*
X120028284Y-461968062D01*
X120031000Y-461995640D01*
X120031000Y-462504360D01*
X120028284Y-462531938D01*
X120022029Y-462552557D01*
X120011876Y-462571553D01*
X119998208Y-462588208D01*
X119981553Y-462601876D01*
X119962557Y-462612029D01*
X119941938Y-462618284D01*
X119914360Y-462621000D01*
X119455640Y-462621000D01*
X119428062Y-462618284D01*
X119407443Y-462612029D01*
X119388447Y-462601876D01*
X119371792Y-462588208D01*
X119358124Y-462571553D01*
X119347971Y-462552557D01*
X119341716Y-462531938D01*
X119339000Y-462504360D01*
X119339000Y-461995640D01*
X119341716Y-461968062D01*
X119347971Y-461947443D01*
X119358124Y-461928447D01*
X119371792Y-461911792D01*
X119388447Y-461898124D01*
X119407443Y-461887971D01*
X119428062Y-461881716D01*
X119455640Y-461879000D01*
X119914360Y-461879000D01*
X119941938Y-461881716D01*
X119941938Y-461881716D01*
G37*
G36*
X86870655Y-461448000D02*
G01*
X86951823Y-461469749D01*
X86653664Y-462582495D01*
X86653663Y-462582495D01*
X85202843Y-462193749D01*
X85237183Y-462065589D01*
X85501002Y-461081003D01*
X85501003Y-461081003D01*
X86870655Y-461448000D01*
X86870655Y-461448000D01*
G37*
G36*
X79368036Y-460955886D02*
G01*
X79674490Y-461038000D01*
X79376331Y-462150746D01*
X79376330Y-462150746D01*
X77925510Y-461762000D01*
X77964019Y-461618284D01*
X78223669Y-460649254D01*
X78223670Y-460649254D01*
X79368036Y-460955886D01*
X79368036Y-460955886D01*
G37*
G36*
X107156938Y-461181716D02*
G01*
X107177557Y-461187971D01*
X107196553Y-461198124D01*
X107213208Y-461211792D01*
X107226876Y-461228447D01*
X107237029Y-461247443D01*
X107243284Y-461268062D01*
X107246000Y-461295640D01*
X107246000Y-461804360D01*
X107243284Y-461831938D01*
X107237029Y-461852557D01*
X107226876Y-461871553D01*
X107213208Y-461888208D01*
X107196553Y-461901876D01*
X107177557Y-461912029D01*
X107156938Y-461918284D01*
X107129360Y-461921000D01*
X106670640Y-461921000D01*
X106643062Y-461918284D01*
X106622443Y-461912029D01*
X106603447Y-461901876D01*
X106586792Y-461888208D01*
X106573124Y-461871553D01*
X106562971Y-461852557D01*
X106556716Y-461831938D01*
X106554000Y-461804360D01*
X106554000Y-461295640D01*
X106556716Y-461268062D01*
X106562971Y-461247443D01*
X106573124Y-461228447D01*
X106586792Y-461211792D01*
X106603447Y-461198124D01*
X106622443Y-461187971D01*
X106643062Y-461181716D01*
X106670640Y-461179000D01*
X107129360Y-461179000D01*
X107156938Y-461181716D01*
X107156938Y-461181716D01*
G37*
G36*
X106186938Y-461181716D02*
G01*
X106207557Y-461187971D01*
X106226553Y-461198124D01*
X106243208Y-461211792D01*
X106256876Y-461228447D01*
X106267029Y-461247443D01*
X106273284Y-461268062D01*
X106276000Y-461295640D01*
X106276000Y-461804360D01*
X106273284Y-461831938D01*
X106267029Y-461852557D01*
X106256876Y-461871553D01*
X106243208Y-461888208D01*
X106226553Y-461901876D01*
X106207557Y-461912029D01*
X106186938Y-461918284D01*
X106159360Y-461921000D01*
X105700640Y-461921000D01*
X105673062Y-461918284D01*
X105652443Y-461912029D01*
X105633447Y-461901876D01*
X105616792Y-461888208D01*
X105603124Y-461871553D01*
X105592971Y-461852557D01*
X105586716Y-461831938D01*
X105584000Y-461804360D01*
X105584000Y-461295640D01*
X105586716Y-461268062D01*
X105592971Y-461247443D01*
X105603124Y-461228447D01*
X105616792Y-461211792D01*
X105633447Y-461198124D01*
X105652443Y-461187971D01*
X105673062Y-461181716D01*
X105700640Y-461179000D01*
X106159360Y-461179000D01*
X106186938Y-461181716D01*
X106186938Y-461181716D01*
G37*
G36*
X82828535Y-460364917D02*
G01*
X83474490Y-460538000D01*
X83176331Y-461650746D01*
X83176330Y-461650746D01*
X81725510Y-461262000D01*
X81734173Y-461229671D01*
X82023669Y-460149254D01*
X82023670Y-460149254D01*
X82828535Y-460364917D01*
X82828535Y-460364917D01*
G37*
G36*
X120921938Y-460881716D02*
G01*
X120942557Y-460887971D01*
X120961553Y-460898124D01*
X120978208Y-460911792D01*
X120991876Y-460928447D01*
X121002029Y-460947443D01*
X121008284Y-460968062D01*
X121011000Y-460995640D01*
X121011000Y-461504360D01*
X121008284Y-461531938D01*
X121002029Y-461552557D01*
X120991876Y-461571553D01*
X120978208Y-461588208D01*
X120961553Y-461601876D01*
X120942557Y-461612029D01*
X120921938Y-461618284D01*
X120894360Y-461621000D01*
X120435640Y-461621000D01*
X120408062Y-461618284D01*
X120387443Y-461612029D01*
X120368447Y-461601876D01*
X120351792Y-461588208D01*
X120338124Y-461571553D01*
X120327971Y-461552557D01*
X120321716Y-461531938D01*
X120319000Y-461504360D01*
X120319000Y-460995640D01*
X120321716Y-460968062D01*
X120327971Y-460947443D01*
X120338124Y-460928447D01*
X120351792Y-460911792D01*
X120368447Y-460898124D01*
X120387443Y-460887971D01*
X120408062Y-460881716D01*
X120435640Y-460879000D01*
X120894360Y-460879000D01*
X120921938Y-460881716D01*
X120921938Y-460881716D01*
G37*
G36*
X119941938Y-460881716D02*
G01*
X119962557Y-460887971D01*
X119981553Y-460898124D01*
X119998208Y-460911792D01*
X120011876Y-460928447D01*
X120022029Y-460947443D01*
X120028284Y-460968062D01*
X120031000Y-460995640D01*
X120031000Y-461504360D01*
X120028284Y-461531938D01*
X120022029Y-461552557D01*
X120011876Y-461571553D01*
X119998208Y-461588208D01*
X119981553Y-461601876D01*
X119962557Y-461612029D01*
X119941938Y-461618284D01*
X119914360Y-461621000D01*
X119455640Y-461621000D01*
X119428062Y-461618284D01*
X119407443Y-461612029D01*
X119388447Y-461601876D01*
X119371792Y-461588208D01*
X119358124Y-461571553D01*
X119347971Y-461552557D01*
X119341716Y-461531938D01*
X119339000Y-461504360D01*
X119339000Y-460995640D01*
X119341716Y-460968062D01*
X119347971Y-460947443D01*
X119358124Y-460928447D01*
X119371792Y-460911792D01*
X119388447Y-460898124D01*
X119407443Y-460887971D01*
X119428062Y-460881716D01*
X119455640Y-460879000D01*
X119914360Y-460879000D01*
X119941938Y-460881716D01*
X119941938Y-460881716D01*
G37*
G36*
X118971938Y-460881716D02*
G01*
X118992557Y-460887971D01*
X119011553Y-460898124D01*
X119028208Y-460911792D01*
X119041876Y-460928447D01*
X119052029Y-460947443D01*
X119058284Y-460968062D01*
X119061000Y-460995640D01*
X119061000Y-461504360D01*
X119058284Y-461531938D01*
X119052029Y-461552557D01*
X119041876Y-461571553D01*
X119028208Y-461588208D01*
X119011553Y-461601876D01*
X118992557Y-461612029D01*
X118971938Y-461618284D01*
X118944360Y-461621000D01*
X118485640Y-461621000D01*
X118458062Y-461618284D01*
X118437443Y-461612029D01*
X118418447Y-461601876D01*
X118401792Y-461588208D01*
X118388124Y-461571553D01*
X118377971Y-461552557D01*
X118371716Y-461531938D01*
X118369000Y-461504360D01*
X118369000Y-460995640D01*
X118371716Y-460968062D01*
X118377971Y-460947443D01*
X118388124Y-460928447D01*
X118401792Y-460911792D01*
X118418447Y-460898124D01*
X118437443Y-460887971D01*
X118458062Y-460881716D01*
X118485640Y-460879000D01*
X118944360Y-460879000D01*
X118971938Y-460881716D01*
X118971938Y-460881716D01*
G37*
G36*
X121891938Y-460881716D02*
G01*
X121912557Y-460887971D01*
X121931553Y-460898124D01*
X121948208Y-460911792D01*
X121961876Y-460928447D01*
X121972029Y-460947443D01*
X121978284Y-460968062D01*
X121981000Y-460995640D01*
X121981000Y-461504360D01*
X121978284Y-461531938D01*
X121972029Y-461552557D01*
X121961876Y-461571553D01*
X121948208Y-461588208D01*
X121931553Y-461601876D01*
X121912557Y-461612029D01*
X121891938Y-461618284D01*
X121864360Y-461621000D01*
X121405640Y-461621000D01*
X121378062Y-461618284D01*
X121357443Y-461612029D01*
X121338447Y-461601876D01*
X121321792Y-461588208D01*
X121308124Y-461571553D01*
X121297971Y-461552557D01*
X121291716Y-461531938D01*
X121289000Y-461504360D01*
X121289000Y-460995640D01*
X121291716Y-460968062D01*
X121297971Y-460947443D01*
X121308124Y-460928447D01*
X121321792Y-460911792D01*
X121338447Y-460898124D01*
X121357443Y-460887971D01*
X121378062Y-460881716D01*
X121405640Y-460879000D01*
X121864360Y-460879000D01*
X121891938Y-460881716D01*
X121891938Y-460881716D01*
G37*
G36*
X91053200Y-459470436D02*
G01*
X91119384Y-459476954D01*
X91289223Y-459528474D01*
X91445748Y-459612139D01*
X91476537Y-459637407D01*
X91582943Y-459724731D01*
X91659817Y-459818404D01*
X91695535Y-459861926D01*
X91779200Y-460018451D01*
X91830720Y-460188290D01*
X91848116Y-460364917D01*
X91830720Y-460541544D01*
X91779200Y-460711383D01*
X91695535Y-460867908D01*
X91675624Y-460892169D01*
X91582943Y-461005103D01*
X91490457Y-461081003D01*
X91445748Y-461117695D01*
X91289223Y-461201360D01*
X91119384Y-461252880D01*
X91053200Y-461259398D01*
X90987017Y-461265917D01*
X90898497Y-461265917D01*
X90832314Y-461259398D01*
X90766130Y-461252880D01*
X90596291Y-461201360D01*
X90439766Y-461117695D01*
X90395057Y-461081003D01*
X90302571Y-461005103D01*
X90209890Y-460892169D01*
X90189979Y-460867908D01*
X90106314Y-460711383D01*
X90054794Y-460541544D01*
X90037398Y-460364917D01*
X90054794Y-460188290D01*
X90106314Y-460018451D01*
X90189979Y-459861926D01*
X90225697Y-459818404D01*
X90302571Y-459724731D01*
X90408977Y-459637407D01*
X90439766Y-459612139D01*
X90596291Y-459528474D01*
X90766130Y-459476954D01*
X90832314Y-459470436D01*
X90898497Y-459463917D01*
X90987017Y-459463917D01*
X91053200Y-459470436D01*
X91053200Y-459470436D01*
G37*
G36*
X75784351Y-459995640D02*
G01*
X76197157Y-460106251D01*
X75898998Y-461218997D01*
X75898997Y-461218997D01*
X74448177Y-460830251D01*
X74504246Y-460621000D01*
X74746336Y-459717505D01*
X74746337Y-459717505D01*
X75784351Y-459995640D01*
X75784351Y-459995640D01*
G37*
G36*
X80049777Y-459637407D02*
G01*
X79751618Y-460750153D01*
X79751617Y-460750153D01*
X78300797Y-460361407D01*
X78347183Y-460188292D01*
X78598956Y-459248661D01*
X78598957Y-459248661D01*
X80049777Y-459637407D01*
X80049777Y-459637407D01*
G37*
G36*
X121891938Y-459881716D02*
G01*
X121912557Y-459887971D01*
X121931553Y-459898124D01*
X121948208Y-459911792D01*
X121961876Y-459928447D01*
X121972029Y-459947443D01*
X121978284Y-459968062D01*
X121981000Y-459995640D01*
X121981000Y-460504360D01*
X121978284Y-460531938D01*
X121972029Y-460552557D01*
X121961876Y-460571553D01*
X121948208Y-460588208D01*
X121931553Y-460601876D01*
X121912557Y-460612029D01*
X121891938Y-460618284D01*
X121864360Y-460621000D01*
X121405640Y-460621000D01*
X121378062Y-460618284D01*
X121357443Y-460612029D01*
X121338447Y-460601876D01*
X121321792Y-460588208D01*
X121308124Y-460571553D01*
X121297971Y-460552557D01*
X121291716Y-460531938D01*
X121289000Y-460504360D01*
X121289000Y-459995640D01*
X121291716Y-459968062D01*
X121297971Y-459947443D01*
X121308124Y-459928447D01*
X121321792Y-459911792D01*
X121338447Y-459898124D01*
X121357443Y-459887971D01*
X121378062Y-459881716D01*
X121405640Y-459879000D01*
X121864360Y-459879000D01*
X121891938Y-459881716D01*
X121891938Y-459881716D01*
G37*
G36*
X120921938Y-459881716D02*
G01*
X120942557Y-459887971D01*
X120961553Y-459898124D01*
X120978208Y-459911792D01*
X120991876Y-459928447D01*
X121002029Y-459947443D01*
X121008284Y-459968062D01*
X121011000Y-459995640D01*
X121011000Y-460504360D01*
X121008284Y-460531938D01*
X121002029Y-460552557D01*
X120991876Y-460571553D01*
X120978208Y-460588208D01*
X120961553Y-460601876D01*
X120942557Y-460612029D01*
X120921938Y-460618284D01*
X120894360Y-460621000D01*
X120435640Y-460621000D01*
X120408062Y-460618284D01*
X120387443Y-460612029D01*
X120368447Y-460601876D01*
X120351792Y-460588208D01*
X120338124Y-460571553D01*
X120327971Y-460552557D01*
X120321716Y-460531938D01*
X120319000Y-460504360D01*
X120319000Y-459995640D01*
X120321716Y-459968062D01*
X120327971Y-459947443D01*
X120338124Y-459928447D01*
X120351792Y-459911792D01*
X120368447Y-459898124D01*
X120387443Y-459887971D01*
X120408062Y-459881716D01*
X120435640Y-459879000D01*
X120894360Y-459879000D01*
X120921938Y-459881716D01*
X120921938Y-459881716D01*
G37*
G36*
X125851000Y-460551000D02*
G01*
X123649000Y-460551000D01*
X123649000Y-454849000D01*
X125851000Y-454849000D01*
X125851000Y-460551000D01*
X125851000Y-460551000D01*
G37*
G36*
X75986176Y-458548568D02*
G01*
X76572444Y-458705658D01*
X76274285Y-459818404D01*
X76274284Y-459818404D01*
X74823464Y-459429658D01*
X74895874Y-459159420D01*
X75121623Y-458316912D01*
X75121624Y-458316912D01*
X75986176Y-458548568D01*
X75986176Y-458548568D01*
G37*
G36*
X56643231Y-457918470D02*
G01*
X56709416Y-457924989D01*
X56879255Y-457976509D01*
X57035780Y-458060174D01*
X57071518Y-458089504D01*
X57172975Y-458172766D01*
X57256237Y-458274223D01*
X57285567Y-458309961D01*
X57369232Y-458466486D01*
X57420752Y-458636325D01*
X57438148Y-458812952D01*
X57420752Y-458989579D01*
X57369232Y-459159418D01*
X57285567Y-459315943D01*
X57256237Y-459351681D01*
X57172975Y-459453138D01*
X57081176Y-459528474D01*
X57035780Y-459565730D01*
X56879255Y-459649395D01*
X56709416Y-459700915D01*
X56643232Y-459707433D01*
X56577049Y-459713952D01*
X56488529Y-459713952D01*
X56422346Y-459707433D01*
X56356162Y-459700915D01*
X56186323Y-459649395D01*
X56029798Y-459565730D01*
X55984402Y-459528474D01*
X55892603Y-459453138D01*
X55809341Y-459351681D01*
X55780011Y-459315943D01*
X55696346Y-459159418D01*
X55644826Y-458989579D01*
X55627430Y-458812952D01*
X55644826Y-458636325D01*
X55696346Y-458466486D01*
X55780011Y-458309961D01*
X55809341Y-458274223D01*
X55892603Y-458172766D01*
X55994060Y-458089504D01*
X56029798Y-458060174D01*
X56186323Y-457976509D01*
X56356162Y-457924989D01*
X56422347Y-457918470D01*
X56488529Y-457911952D01*
X56577049Y-457911952D01*
X56643231Y-457918470D01*
X56643231Y-457918470D01*
G37*
G36*
X115551000Y-459076000D02*
G01*
X110049000Y-459076000D01*
X110049000Y-458124000D01*
X115551000Y-458124000D01*
X115551000Y-459076000D01*
X115551000Y-459076000D01*
G37*
G36*
X92703652Y-457274362D02*
G01*
X92237260Y-459014960D01*
X90496662Y-458548568D01*
X90963054Y-456807970D01*
X92703652Y-457274362D01*
X92703652Y-457274362D01*
G37*
G36*
X56643231Y-455378470D02*
G01*
X56709416Y-455384989D01*
X56879255Y-455436509D01*
X56879257Y-455436510D01*
X56946482Y-455472443D01*
X57035780Y-455520174D01*
X57063897Y-455543249D01*
X57172975Y-455632766D01*
X57216662Y-455686000D01*
X57285567Y-455769961D01*
X57369232Y-455926486D01*
X57420752Y-456096325D01*
X57438148Y-456272952D01*
X57420752Y-456449579D01*
X57369232Y-456619418D01*
X57285567Y-456775943D01*
X57259283Y-456807970D01*
X57172975Y-456913138D01*
X57071518Y-456996400D01*
X57035780Y-457025730D01*
X57035778Y-457025731D01*
X56905571Y-457095329D01*
X56879255Y-457109395D01*
X56709416Y-457160915D01*
X56643231Y-457167434D01*
X56577049Y-457173952D01*
X56488529Y-457173952D01*
X56422347Y-457167434D01*
X56356162Y-457160915D01*
X56186323Y-457109395D01*
X56160008Y-457095329D01*
X56029800Y-457025731D01*
X56029798Y-457025730D01*
X55994060Y-456996400D01*
X55892603Y-456913138D01*
X55806295Y-456807970D01*
X55780011Y-456775943D01*
X55696346Y-456619418D01*
X55644826Y-456449579D01*
X55627430Y-456272952D01*
X55644826Y-456096325D01*
X55696346Y-455926486D01*
X55780011Y-455769961D01*
X55848916Y-455686000D01*
X55892603Y-455632766D01*
X56001681Y-455543249D01*
X56029798Y-455520174D01*
X56119096Y-455472443D01*
X56186321Y-455436510D01*
X56186323Y-455436509D01*
X56356162Y-455384989D01*
X56422347Y-455378470D01*
X56488529Y-455371952D01*
X56577049Y-455371952D01*
X56643231Y-455378470D01*
X56643231Y-455378470D01*
G37*
G36*
X108931938Y-456456716D02*
G01*
X108952557Y-456462971D01*
X108971553Y-456473124D01*
X108988208Y-456486792D01*
X109001876Y-456503447D01*
X109012029Y-456522443D01*
X109018284Y-456543062D01*
X109021000Y-456570640D01*
X109021000Y-457029360D01*
X109018284Y-457056938D01*
X109012029Y-457077557D01*
X109001876Y-457096553D01*
X108988208Y-457113208D01*
X108971553Y-457126876D01*
X108952557Y-457137029D01*
X108931938Y-457143284D01*
X108904360Y-457146000D01*
X108395640Y-457146000D01*
X108368062Y-457143284D01*
X108347443Y-457137029D01*
X108328447Y-457126876D01*
X108311792Y-457113208D01*
X108298124Y-457096553D01*
X108287971Y-457077557D01*
X108281716Y-457056938D01*
X108279000Y-457029360D01*
X108279000Y-456570640D01*
X108281716Y-456543062D01*
X108287971Y-456522443D01*
X108298124Y-456503447D01*
X108311792Y-456486792D01*
X108328447Y-456473124D01*
X108347443Y-456462971D01*
X108368062Y-456456716D01*
X108395640Y-456454000D01*
X108904360Y-456454000D01*
X108931938Y-456456716D01*
X108931938Y-456456716D01*
G37*
G36*
X114681938Y-455556716D02*
G01*
X114702557Y-455562971D01*
X114721553Y-455573124D01*
X114738208Y-455586792D01*
X114751876Y-455603447D01*
X114762029Y-455622443D01*
X114768284Y-455643062D01*
X114771000Y-455670640D01*
X114771000Y-456129360D01*
X114768284Y-456156938D01*
X114762029Y-456177557D01*
X114751876Y-456196553D01*
X114738208Y-456213208D01*
X114721553Y-456226876D01*
X114702557Y-456237029D01*
X114681938Y-456243284D01*
X114654360Y-456246000D01*
X114145640Y-456246000D01*
X114118062Y-456243284D01*
X114097443Y-456237029D01*
X114078447Y-456226876D01*
X114061792Y-456213208D01*
X114048124Y-456196553D01*
X114037971Y-456177557D01*
X114031716Y-456156938D01*
X114029000Y-456129360D01*
X114029000Y-455670640D01*
X114031716Y-455643062D01*
X114037971Y-455622443D01*
X114048124Y-455603447D01*
X114061792Y-455586792D01*
X114078447Y-455573124D01*
X114097443Y-455562971D01*
X114118062Y-455556716D01*
X114145640Y-455554000D01*
X114654360Y-455554000D01*
X114681938Y-455556716D01*
X114681938Y-455556716D01*
G37*
G36*
X108931938Y-455486716D02*
G01*
X108952557Y-455492971D01*
X108971553Y-455503124D01*
X108988208Y-455516792D01*
X109001876Y-455533447D01*
X109012029Y-455552443D01*
X109018284Y-455573062D01*
X109021000Y-455600640D01*
X109021000Y-456059360D01*
X109018284Y-456086938D01*
X109012029Y-456107557D01*
X109001876Y-456126553D01*
X108988208Y-456143208D01*
X108971553Y-456156876D01*
X108952557Y-456167029D01*
X108931938Y-456173284D01*
X108904360Y-456176000D01*
X108395640Y-456176000D01*
X108368062Y-456173284D01*
X108347443Y-456167029D01*
X108328447Y-456156876D01*
X108311792Y-456143208D01*
X108298124Y-456126553D01*
X108287971Y-456107557D01*
X108281716Y-456086938D01*
X108279000Y-456059360D01*
X108279000Y-455600640D01*
X108281716Y-455573062D01*
X108287971Y-455552443D01*
X108298124Y-455533447D01*
X108311792Y-455516792D01*
X108328447Y-455503124D01*
X108347443Y-455492971D01*
X108368062Y-455486716D01*
X108395640Y-455484000D01*
X108904360Y-455484000D01*
X108931938Y-455486716D01*
X108931938Y-455486716D01*
G37*
G36*
X97581938Y-455406716D02*
G01*
X97602557Y-455412971D01*
X97621553Y-455423124D01*
X97638208Y-455436792D01*
X97651876Y-455453447D01*
X97662029Y-455472443D01*
X97668284Y-455493062D01*
X97671000Y-455520640D01*
X97671000Y-455979360D01*
X97668284Y-456006938D01*
X97662029Y-456027557D01*
X97651876Y-456046553D01*
X97638208Y-456063208D01*
X97621553Y-456076876D01*
X97602557Y-456087029D01*
X97581938Y-456093284D01*
X97554360Y-456096000D01*
X97045640Y-456096000D01*
X97018062Y-456093284D01*
X96997443Y-456087029D01*
X96978447Y-456076876D01*
X96961792Y-456063208D01*
X96948124Y-456046553D01*
X96937971Y-456027557D01*
X96931716Y-456006938D01*
X96929000Y-455979360D01*
X96929000Y-455520640D01*
X96931716Y-455493062D01*
X96937971Y-455472443D01*
X96948124Y-455453447D01*
X96961792Y-455436792D01*
X96978447Y-455423124D01*
X96997443Y-455412971D01*
X97018062Y-455406716D01*
X97045640Y-455404000D01*
X97554360Y-455404000D01*
X97581938Y-455406716D01*
X97581938Y-455406716D01*
G37*
G36*
X100691000Y-455686000D02*
G01*
X99939000Y-455686000D01*
X99939000Y-453934000D01*
X100691000Y-453934000D01*
X100691000Y-455686000D01*
X100691000Y-455686000D01*
G37*
G36*
X99421000Y-455686000D02*
G01*
X98669000Y-455686000D01*
X98669000Y-453934000D01*
X99421000Y-453934000D01*
X99421000Y-455686000D01*
X99421000Y-455686000D01*
G37*
G36*
X101961000Y-455686000D02*
G01*
X101209000Y-455686000D01*
X101209000Y-453934000D01*
X101961000Y-453934000D01*
X101961000Y-455686000D01*
X101961000Y-455686000D01*
G37*
G36*
X103231000Y-455686000D02*
G01*
X102479000Y-455686000D01*
X102479000Y-453934000D01*
X103231000Y-453934000D01*
X103231000Y-455686000D01*
X103231000Y-455686000D01*
G37*
G36*
X114681938Y-454586716D02*
G01*
X114702557Y-454592971D01*
X114721553Y-454603124D01*
X114738208Y-454616792D01*
X114751876Y-454633447D01*
X114762029Y-454652443D01*
X114768284Y-454673062D01*
X114771000Y-454700640D01*
X114771000Y-455159360D01*
X114768284Y-455186938D01*
X114762029Y-455207557D01*
X114751876Y-455226553D01*
X114738208Y-455243208D01*
X114721553Y-455256876D01*
X114702557Y-455267029D01*
X114681938Y-455273284D01*
X114654360Y-455276000D01*
X114145640Y-455276000D01*
X114118062Y-455273284D01*
X114097443Y-455267029D01*
X114078447Y-455256876D01*
X114061792Y-455243208D01*
X114048124Y-455226553D01*
X114037971Y-455207557D01*
X114031716Y-455186938D01*
X114029000Y-455159360D01*
X114029000Y-454700640D01*
X114031716Y-454673062D01*
X114037971Y-454652443D01*
X114048124Y-454633447D01*
X114061792Y-454616792D01*
X114078447Y-454603124D01*
X114097443Y-454592971D01*
X114118062Y-454586716D01*
X114145640Y-454584000D01*
X114654360Y-454584000D01*
X114681938Y-454586716D01*
X114681938Y-454586716D01*
G37*
G36*
X97581938Y-454436716D02*
G01*
X97602557Y-454442971D01*
X97621553Y-454453124D01*
X97638208Y-454466792D01*
X97651876Y-454483447D01*
X97662029Y-454502443D01*
X97668284Y-454523062D01*
X97671000Y-454550640D01*
X97671000Y-455009360D01*
X97668284Y-455036938D01*
X97662029Y-455057557D01*
X97651876Y-455076553D01*
X97638208Y-455093208D01*
X97621553Y-455106876D01*
X97602557Y-455117029D01*
X97581938Y-455123284D01*
X97554360Y-455126000D01*
X97045640Y-455126000D01*
X97018062Y-455123284D01*
X96997443Y-455117029D01*
X96978447Y-455106876D01*
X96961792Y-455093208D01*
X96948124Y-455076553D01*
X96937971Y-455057557D01*
X96931716Y-455036938D01*
X96929000Y-455009360D01*
X96929000Y-454550640D01*
X96931716Y-454523062D01*
X96937971Y-454502443D01*
X96948124Y-454483447D01*
X96961792Y-454466792D01*
X96978447Y-454453124D01*
X96997443Y-454442971D01*
X97018062Y-454436716D01*
X97045640Y-454434000D01*
X97554360Y-454434000D01*
X97581938Y-454436716D01*
X97581938Y-454436716D01*
G37*
G36*
X56643232Y-452838471D02*
G01*
X56709416Y-452844989D01*
X56879255Y-452896509D01*
X57035780Y-452980174D01*
X57071518Y-453009504D01*
X57172975Y-453092766D01*
X57256237Y-453194223D01*
X57285567Y-453229961D01*
X57369232Y-453386486D01*
X57420752Y-453556325D01*
X57438148Y-453732952D01*
X57420752Y-453909579D01*
X57369232Y-454079418D01*
X57285567Y-454235943D01*
X57256237Y-454271681D01*
X57172975Y-454373138D01*
X57075510Y-454453124D01*
X57035780Y-454485730D01*
X56879255Y-454569395D01*
X56709416Y-454620915D01*
X56643232Y-454627433D01*
X56577049Y-454633952D01*
X56488529Y-454633952D01*
X56422346Y-454627433D01*
X56356162Y-454620915D01*
X56186323Y-454569395D01*
X56029798Y-454485730D01*
X55990068Y-454453124D01*
X55892603Y-454373138D01*
X55809341Y-454271681D01*
X55780011Y-454235943D01*
X55696346Y-454079418D01*
X55644826Y-453909579D01*
X55627430Y-453732952D01*
X55644826Y-453556325D01*
X55696346Y-453386486D01*
X55780011Y-453229961D01*
X55809341Y-453194223D01*
X55892603Y-453092766D01*
X55994060Y-453009504D01*
X56029798Y-452980174D01*
X56186323Y-452896509D01*
X56356162Y-452844989D01*
X56422346Y-452838471D01*
X56488529Y-452831952D01*
X56577049Y-452831952D01*
X56643232Y-452838471D01*
X56643232Y-452838471D01*
G37*
G36*
X65547765Y-448815299D02*
G01*
X65869065Y-448948386D01*
X65869067Y-448948387D01*
X66158229Y-449141599D01*
X66404142Y-449387512D01*
X66553507Y-449611052D01*
X66597355Y-449676676D01*
X66730442Y-449997976D01*
X66798289Y-450339064D01*
X66798289Y-450686840D01*
X66730442Y-451027928D01*
X66653573Y-451213506D01*
X66597354Y-451349230D01*
X66404142Y-451638392D01*
X66158229Y-451884305D01*
X65869067Y-452077517D01*
X65869066Y-452077518D01*
X65869065Y-452077518D01*
X65547765Y-452210605D01*
X65206677Y-452278452D01*
X64858901Y-452278452D01*
X64517813Y-452210605D01*
X64196513Y-452077518D01*
X64196512Y-452077518D01*
X64196511Y-452077517D01*
X63907349Y-451884305D01*
X63661436Y-451638392D01*
X63468224Y-451349230D01*
X63412005Y-451213506D01*
X63335136Y-451027928D01*
X63267289Y-450686840D01*
X63267289Y-450339064D01*
X63335136Y-449997976D01*
X63468223Y-449676676D01*
X63512072Y-449611052D01*
X63661436Y-449387512D01*
X63907349Y-449141599D01*
X64196511Y-448948387D01*
X64196513Y-448948386D01*
X64517813Y-448815299D01*
X64858901Y-448747452D01*
X65206677Y-448747452D01*
X65547765Y-448815299D01*
X65547765Y-448815299D01*
G37*
G36*
X57433789Y-452093952D02*
G01*
X55631789Y-452093952D01*
X55631789Y-450291952D01*
X57433789Y-450291952D01*
X57433789Y-452093952D01*
X57433789Y-452093952D01*
G37*
G36*
X123098870Y-450286840D02*
G01*
X123165055Y-450293359D01*
X123334894Y-450344879D01*
X123491419Y-450428544D01*
X123527157Y-450457874D01*
X123628614Y-450541136D01*
X123711876Y-450642593D01*
X123741206Y-450678331D01*
X123824871Y-450834856D01*
X123876391Y-451004695D01*
X123893787Y-451181322D01*
X123876391Y-451357949D01*
X123824871Y-451527788D01*
X123741206Y-451684313D01*
X123711876Y-451720051D01*
X123628614Y-451821508D01*
X123527157Y-451904770D01*
X123491419Y-451934100D01*
X123334894Y-452017765D01*
X123165055Y-452069285D01*
X123098871Y-452075803D01*
X123032688Y-452082322D01*
X122944168Y-452082322D01*
X122877985Y-452075803D01*
X122811801Y-452069285D01*
X122641962Y-452017765D01*
X122485437Y-451934100D01*
X122449699Y-451904770D01*
X122348242Y-451821508D01*
X122264980Y-451720051D01*
X122235650Y-451684313D01*
X122151985Y-451527788D01*
X122100465Y-451357949D01*
X122083069Y-451181322D01*
X122100465Y-451004695D01*
X122151985Y-450834856D01*
X122235650Y-450678331D01*
X122264980Y-450642593D01*
X122348242Y-450541136D01*
X122449699Y-450457874D01*
X122485437Y-450428544D01*
X122641962Y-450344879D01*
X122811801Y-450293359D01*
X122877986Y-450286840D01*
X122944168Y-450280322D01*
X123032688Y-450280322D01*
X123098870Y-450286840D01*
X123098870Y-450286840D01*
G37*
G36*
X125638870Y-450286840D02*
G01*
X125705055Y-450293359D01*
X125874894Y-450344879D01*
X126031419Y-450428544D01*
X126067157Y-450457874D01*
X126168614Y-450541136D01*
X126251876Y-450642593D01*
X126281206Y-450678331D01*
X126364871Y-450834856D01*
X126416391Y-451004695D01*
X126433787Y-451181322D01*
X126416391Y-451357949D01*
X126364871Y-451527788D01*
X126281206Y-451684313D01*
X126251876Y-451720051D01*
X126168614Y-451821508D01*
X126067157Y-451904770D01*
X126031419Y-451934100D01*
X125874894Y-452017765D01*
X125705055Y-452069285D01*
X125638871Y-452075803D01*
X125572688Y-452082322D01*
X125484168Y-452082322D01*
X125417985Y-452075803D01*
X125351801Y-452069285D01*
X125181962Y-452017765D01*
X125025437Y-451934100D01*
X124989699Y-451904770D01*
X124888242Y-451821508D01*
X124804980Y-451720051D01*
X124775650Y-451684313D01*
X124691985Y-451527788D01*
X124640465Y-451357949D01*
X124623069Y-451181322D01*
X124640465Y-451004695D01*
X124691985Y-450834856D01*
X124775650Y-450678331D01*
X124804980Y-450642593D01*
X124888242Y-450541136D01*
X124989699Y-450457874D01*
X125025437Y-450428544D01*
X125181962Y-450344879D01*
X125351801Y-450293359D01*
X125417986Y-450286840D01*
X125484168Y-450280322D01*
X125572688Y-450280322D01*
X125638870Y-450286840D01*
X125638870Y-450286840D01*
G37*
G36*
X121349428Y-452082322D02*
G01*
X119547428Y-452082322D01*
X119547428Y-450280322D01*
X121349428Y-450280322D01*
X121349428Y-452082322D01*
X121349428Y-452082322D01*
G37*
G36*
X128178870Y-450286840D02*
G01*
X128245055Y-450293359D01*
X128414894Y-450344879D01*
X128571419Y-450428544D01*
X128607157Y-450457874D01*
X128708614Y-450541136D01*
X128791876Y-450642593D01*
X128821206Y-450678331D01*
X128904871Y-450834856D01*
X128956391Y-451004695D01*
X128973787Y-451181322D01*
X128956391Y-451357949D01*
X128904871Y-451527788D01*
X128821206Y-451684313D01*
X128791876Y-451720051D01*
X128708614Y-451821508D01*
X128607157Y-451904770D01*
X128571419Y-451934100D01*
X128414894Y-452017765D01*
X128245055Y-452069285D01*
X128178871Y-452075803D01*
X128112688Y-452082322D01*
X128024168Y-452082322D01*
X127957985Y-452075803D01*
X127891801Y-452069285D01*
X127721962Y-452017765D01*
X127565437Y-451934100D01*
X127529699Y-451904770D01*
X127428242Y-451821508D01*
X127344980Y-451720051D01*
X127315650Y-451684313D01*
X127231985Y-451527788D01*
X127180465Y-451357949D01*
X127163069Y-451181322D01*
X127180465Y-451004695D01*
X127231985Y-450834856D01*
X127315650Y-450678331D01*
X127344980Y-450642593D01*
X127428242Y-450541136D01*
X127529699Y-450457874D01*
X127565437Y-450428544D01*
X127721962Y-450344879D01*
X127891801Y-450293359D01*
X127957986Y-450286840D01*
X128024168Y-450280322D01*
X128112688Y-450280322D01*
X128178870Y-450286840D01*
X128178870Y-450286840D01*
G37*
G36*
X59708741Y-449628382D02*
G01*
X59795864Y-449645711D01*
X59905287Y-449691036D01*
X59960000Y-449713699D01*
X60106722Y-449811735D01*
X60107717Y-449812400D01*
X60233341Y-449938024D01*
X60233343Y-449938027D01*
X60332042Y-450085741D01*
X60332042Y-450085742D01*
X60400030Y-450249877D01*
X60434689Y-450424123D01*
X60434689Y-450601781D01*
X60400030Y-450776027D01*
X60354705Y-450885450D01*
X60332042Y-450940163D01*
X60273399Y-451027929D01*
X60233341Y-451087880D01*
X60107717Y-451213504D01*
X60107714Y-451213506D01*
X59960000Y-451312205D01*
X59905287Y-451334868D01*
X59795864Y-451380193D01*
X59708741Y-451397523D01*
X59621620Y-451414852D01*
X59443958Y-451414852D01*
X59356837Y-451397523D01*
X59269714Y-451380193D01*
X59160291Y-451334868D01*
X59105578Y-451312205D01*
X58957864Y-451213506D01*
X58957861Y-451213504D01*
X58832237Y-451087880D01*
X58792179Y-451027929D01*
X58733536Y-450940163D01*
X58710873Y-450885450D01*
X58665548Y-450776027D01*
X58630889Y-450601781D01*
X58630889Y-450424123D01*
X58665548Y-450249877D01*
X58733536Y-450085742D01*
X58733536Y-450085741D01*
X58832235Y-449938027D01*
X58832237Y-449938024D01*
X58957861Y-449812400D01*
X58958856Y-449811735D01*
X59105578Y-449713699D01*
X59160291Y-449691036D01*
X59269714Y-449645711D01*
X59356837Y-449628382D01*
X59443958Y-449611052D01*
X59621620Y-449611052D01*
X59708741Y-449628382D01*
X59708741Y-449628382D01*
G37*
G36*
X70708741Y-449628382D02*
G01*
X70795864Y-449645711D01*
X70905287Y-449691036D01*
X70960000Y-449713699D01*
X71106722Y-449811735D01*
X71107717Y-449812400D01*
X71233341Y-449938024D01*
X71233343Y-449938027D01*
X71332042Y-450085741D01*
X71332042Y-450085742D01*
X71400030Y-450249877D01*
X71434689Y-450424123D01*
X71434689Y-450601781D01*
X71400030Y-450776027D01*
X71354705Y-450885450D01*
X71332042Y-450940163D01*
X71273399Y-451027929D01*
X71233341Y-451087880D01*
X71107717Y-451213504D01*
X71107714Y-451213506D01*
X70960000Y-451312205D01*
X70905287Y-451334868D01*
X70795864Y-451380193D01*
X70708741Y-451397523D01*
X70621620Y-451414852D01*
X70443958Y-451414852D01*
X70356837Y-451397523D01*
X70269714Y-451380193D01*
X70160291Y-451334868D01*
X70105578Y-451312205D01*
X69957864Y-451213506D01*
X69957861Y-451213504D01*
X69832237Y-451087880D01*
X69792179Y-451027929D01*
X69733536Y-450940163D01*
X69710873Y-450885450D01*
X69665548Y-450776027D01*
X69630889Y-450601781D01*
X69630889Y-450424123D01*
X69665548Y-450249877D01*
X69733536Y-450085742D01*
X69733536Y-450085741D01*
X69832235Y-449938027D01*
X69832237Y-449938024D01*
X69957861Y-449812400D01*
X69958856Y-449811735D01*
X70105578Y-449713699D01*
X70160291Y-449691036D01*
X70269714Y-449645711D01*
X70356837Y-449628382D01*
X70443958Y-449611052D01*
X70621620Y-449611052D01*
X70708741Y-449628382D01*
X70708741Y-449628382D01*
G37*
G36*
X129841599Y-449295893D02*
G01*
X128039599Y-449295893D01*
X128039599Y-447493893D01*
X129841599Y-447493893D01*
X129841599Y-449295893D01*
X129841599Y-449295893D01*
G37*
G36*
X106001000Y-449176000D02*
G01*
X102099000Y-449176000D01*
X102099000Y-447074000D01*
X106001000Y-447074000D01*
X106001000Y-449176000D01*
X106001000Y-449176000D01*
G37*
G36*
X70335374Y-445241754D02*
G01*
X70485199Y-445271556D01*
X70767463Y-445388473D01*
X71021494Y-445558211D01*
X71237530Y-445774247D01*
X71407268Y-446028278D01*
X71524185Y-446310542D01*
X71524185Y-446310543D01*
X71581522Y-446598792D01*
X71583789Y-446610192D01*
X71583789Y-446915712D01*
X71524185Y-447215362D01*
X71407268Y-447497626D01*
X71237530Y-447751657D01*
X71021494Y-447967693D01*
X70767463Y-448137431D01*
X70485199Y-448254348D01*
X70335374Y-448284150D01*
X70185550Y-448313952D01*
X69880028Y-448313952D01*
X69730204Y-448284150D01*
X69580379Y-448254348D01*
X69298115Y-448137431D01*
X69044084Y-447967693D01*
X68828048Y-447751657D01*
X68658310Y-447497626D01*
X68541393Y-447215362D01*
X68481789Y-446915712D01*
X68481789Y-446610192D01*
X68484057Y-446598792D01*
X68541393Y-446310543D01*
X68541393Y-446310542D01*
X68658310Y-446028278D01*
X68828048Y-445774247D01*
X69044084Y-445558211D01*
X69298115Y-445388473D01*
X69580379Y-445271556D01*
X69730204Y-445241754D01*
X69880028Y-445211952D01*
X70185550Y-445211952D01*
X70335374Y-445241754D01*
X70335374Y-445241754D01*
G37*
G36*
X74658789Y-448113952D02*
G01*
X71956789Y-448113952D01*
X71956789Y-445411952D01*
X74658789Y-445411952D01*
X74658789Y-448113952D01*
X74658789Y-448113952D01*
G37*
G36*
X84047765Y-443815300D02*
G01*
X84369065Y-443948387D01*
X84369067Y-443948388D01*
X84658229Y-444141600D01*
X84904142Y-444387513D01*
X85053507Y-444611053D01*
X85097355Y-444676677D01*
X85230442Y-444997977D01*
X85298289Y-445339065D01*
X85298289Y-445686841D01*
X85230442Y-446027929D01*
X85113379Y-446310543D01*
X85097354Y-446349231D01*
X84904142Y-446638393D01*
X84658229Y-446884306D01*
X84369067Y-447077518D01*
X84369066Y-447077519D01*
X84369065Y-447077519D01*
X84047765Y-447210606D01*
X83706677Y-447278453D01*
X83358901Y-447278453D01*
X83017813Y-447210606D01*
X82696513Y-447077519D01*
X82696512Y-447077519D01*
X82696511Y-447077518D01*
X82407349Y-446884306D01*
X82161436Y-446638393D01*
X81968224Y-446349231D01*
X81952199Y-446310543D01*
X81835136Y-446027929D01*
X81767289Y-445686841D01*
X81767289Y-445339065D01*
X81835136Y-444997977D01*
X81968223Y-444676677D01*
X82012072Y-444611053D01*
X82161436Y-444387513D01*
X82407349Y-444141600D01*
X82696511Y-443948388D01*
X82696513Y-443948387D01*
X83017813Y-443815300D01*
X83358901Y-443747453D01*
X83706677Y-443747453D01*
X84047765Y-443815300D01*
X84047765Y-443815300D01*
G37*
G36*
X109132938Y-446568716D02*
G01*
X109153557Y-446574971D01*
X109172553Y-446585124D01*
X109189208Y-446598792D01*
X109202876Y-446615447D01*
X109213029Y-446634443D01*
X109219284Y-446655062D01*
X109222000Y-446682640D01*
X109222000Y-447141360D01*
X109219284Y-447168938D01*
X109213029Y-447189557D01*
X109202876Y-447208553D01*
X109189208Y-447225208D01*
X109172553Y-447238876D01*
X109153557Y-447249029D01*
X109132938Y-447255284D01*
X109105360Y-447258000D01*
X108596640Y-447258000D01*
X108569062Y-447255284D01*
X108548443Y-447249029D01*
X108529447Y-447238876D01*
X108512792Y-447225208D01*
X108499124Y-447208553D01*
X108488971Y-447189557D01*
X108482716Y-447168938D01*
X108480000Y-447141360D01*
X108480000Y-446682640D01*
X108482716Y-446655062D01*
X108488971Y-446634443D01*
X108499124Y-446615447D01*
X108512792Y-446598792D01*
X108529447Y-446585124D01*
X108548443Y-446574971D01*
X108569062Y-446568716D01*
X108596640Y-446566000D01*
X109105360Y-446566000D01*
X109132938Y-446568716D01*
X109132938Y-446568716D01*
G37*
G36*
X110182938Y-446568716D02*
G01*
X110203557Y-446574971D01*
X110222553Y-446585124D01*
X110239208Y-446598792D01*
X110252876Y-446615447D01*
X110263029Y-446634443D01*
X110269284Y-446655062D01*
X110272000Y-446682640D01*
X110272000Y-447141360D01*
X110269284Y-447168938D01*
X110263029Y-447189557D01*
X110252876Y-447208553D01*
X110239208Y-447225208D01*
X110222553Y-447238876D01*
X110203557Y-447249029D01*
X110182938Y-447255284D01*
X110155360Y-447258000D01*
X109646640Y-447258000D01*
X109619062Y-447255284D01*
X109598443Y-447249029D01*
X109579447Y-447238876D01*
X109562792Y-447225208D01*
X109549124Y-447208553D01*
X109538971Y-447189557D01*
X109532716Y-447168938D01*
X109530000Y-447141360D01*
X109530000Y-446682640D01*
X109532716Y-446655062D01*
X109538971Y-446634443D01*
X109549124Y-446615447D01*
X109562792Y-446598792D01*
X109579447Y-446585124D01*
X109598443Y-446574971D01*
X109619062Y-446568716D01*
X109646640Y-446566000D01*
X110155360Y-446566000D01*
X110182938Y-446568716D01*
X110182938Y-446568716D01*
G37*
G36*
X129051042Y-444960412D02*
G01*
X129117226Y-444966930D01*
X129287065Y-445018450D01*
X129443590Y-445102115D01*
X129479328Y-445131445D01*
X129580785Y-445214707D01*
X129648832Y-445297624D01*
X129693377Y-445351902D01*
X129777042Y-445508427D01*
X129828562Y-445678266D01*
X129845958Y-445854893D01*
X129828562Y-446031520D01*
X129793000Y-446148751D01*
X129777041Y-446201361D01*
X129757161Y-446238553D01*
X129693377Y-446357884D01*
X129664047Y-446393622D01*
X129580785Y-446495079D01*
X129490316Y-446569324D01*
X129443590Y-446607671D01*
X129287065Y-446691336D01*
X129117226Y-446742856D01*
X129051042Y-446749374D01*
X128984859Y-446755893D01*
X128896339Y-446755893D01*
X128830156Y-446749374D01*
X128763972Y-446742856D01*
X128594133Y-446691336D01*
X128437608Y-446607671D01*
X128390882Y-446569324D01*
X128300413Y-446495079D01*
X128217151Y-446393622D01*
X128187821Y-446357884D01*
X128124037Y-446238553D01*
X128104157Y-446201361D01*
X128088198Y-446148751D01*
X128052636Y-446031520D01*
X128035240Y-445854893D01*
X128052636Y-445678266D01*
X128104156Y-445508427D01*
X128187821Y-445351902D01*
X128232366Y-445297624D01*
X128300413Y-445214707D01*
X128401870Y-445131445D01*
X128437608Y-445102115D01*
X128594133Y-445018450D01*
X128763972Y-444966930D01*
X128830156Y-444960412D01*
X128896339Y-444953893D01*
X128984859Y-444953893D01*
X129051042Y-444960412D01*
X129051042Y-444960412D01*
G37*
G36*
X78208741Y-444628382D02*
G01*
X78295864Y-444645712D01*
X78405287Y-444691037D01*
X78460000Y-444713700D01*
X78606722Y-444811736D01*
X78607717Y-444812401D01*
X78733341Y-444938025D01*
X78733343Y-444938028D01*
X78832042Y-445085742D01*
X78832042Y-445085743D01*
X78900030Y-445249878D01*
X78900030Y-445249880D01*
X78934689Y-445424122D01*
X78934689Y-445601784D01*
X78926004Y-445645447D01*
X78900030Y-445776028D01*
X78854705Y-445885451D01*
X78832042Y-445940164D01*
X78773399Y-446027930D01*
X78733341Y-446087881D01*
X78607717Y-446213505D01*
X78607714Y-446213507D01*
X78460000Y-446312206D01*
X78405287Y-446334869D01*
X78295864Y-446380194D01*
X78208741Y-446397523D01*
X78121620Y-446414853D01*
X77943958Y-446414853D01*
X77856837Y-446397523D01*
X77769714Y-446380194D01*
X77660291Y-446334869D01*
X77605578Y-446312206D01*
X77457864Y-446213507D01*
X77457861Y-446213505D01*
X77332237Y-446087881D01*
X77292179Y-446027930D01*
X77233536Y-445940164D01*
X77210873Y-445885451D01*
X77165548Y-445776028D01*
X77139574Y-445645447D01*
X77130889Y-445601784D01*
X77130889Y-445424122D01*
X77165548Y-445249880D01*
X77165548Y-445249878D01*
X77233536Y-445085743D01*
X77233536Y-445085742D01*
X77332235Y-444938028D01*
X77332237Y-444938025D01*
X77457861Y-444812401D01*
X77458856Y-444811736D01*
X77605578Y-444713700D01*
X77660291Y-444691037D01*
X77769714Y-444645712D01*
X77856837Y-444628382D01*
X77943958Y-444611053D01*
X78121620Y-444611053D01*
X78208741Y-444628382D01*
X78208741Y-444628382D01*
G37*
G36*
X89208741Y-444628382D02*
G01*
X89295864Y-444645712D01*
X89405287Y-444691037D01*
X89460000Y-444713700D01*
X89606722Y-444811736D01*
X89607717Y-444812401D01*
X89733341Y-444938025D01*
X89733343Y-444938028D01*
X89832042Y-445085742D01*
X89832042Y-445085743D01*
X89900030Y-445249878D01*
X89900030Y-445249880D01*
X89934689Y-445424122D01*
X89934689Y-445601784D01*
X89926004Y-445645447D01*
X89900030Y-445776028D01*
X89854705Y-445885451D01*
X89832042Y-445940164D01*
X89773399Y-446027930D01*
X89733341Y-446087881D01*
X89607717Y-446213505D01*
X89607714Y-446213507D01*
X89460000Y-446312206D01*
X89405287Y-446334869D01*
X89295864Y-446380194D01*
X89208741Y-446397523D01*
X89121620Y-446414853D01*
X88943958Y-446414853D01*
X88856837Y-446397523D01*
X88769714Y-446380194D01*
X88660291Y-446334869D01*
X88605578Y-446312206D01*
X88457864Y-446213507D01*
X88457861Y-446213505D01*
X88332237Y-446087881D01*
X88292179Y-446027930D01*
X88233536Y-445940164D01*
X88210873Y-445885451D01*
X88165548Y-445776028D01*
X88139574Y-445645447D01*
X88130889Y-445601784D01*
X88130889Y-445424122D01*
X88165548Y-445249880D01*
X88165548Y-445249878D01*
X88233536Y-445085743D01*
X88233536Y-445085742D01*
X88332235Y-444938028D01*
X88332237Y-444938025D01*
X88457861Y-444812401D01*
X88458856Y-444811736D01*
X88605578Y-444713700D01*
X88660291Y-444691037D01*
X88769714Y-444645712D01*
X88856837Y-444628382D01*
X88943958Y-444611053D01*
X89121620Y-444611053D01*
X89208741Y-444628382D01*
X89208741Y-444628382D01*
G37*
G36*
X110182938Y-445598716D02*
G01*
X110203557Y-445604971D01*
X110222553Y-445615124D01*
X110239208Y-445628792D01*
X110252876Y-445645447D01*
X110263029Y-445664443D01*
X110269284Y-445685062D01*
X110272000Y-445712640D01*
X110272000Y-446171360D01*
X110269284Y-446198938D01*
X110263029Y-446219557D01*
X110252876Y-446238553D01*
X110239208Y-446255208D01*
X110222553Y-446268876D01*
X110203557Y-446279029D01*
X110182938Y-446285284D01*
X110155360Y-446288000D01*
X109646640Y-446288000D01*
X109619062Y-446285284D01*
X109598443Y-446279029D01*
X109579447Y-446268876D01*
X109562792Y-446255208D01*
X109549124Y-446238553D01*
X109538971Y-446219557D01*
X109532716Y-446198938D01*
X109530000Y-446171360D01*
X109530000Y-445712640D01*
X109532716Y-445685062D01*
X109538971Y-445664443D01*
X109549124Y-445645447D01*
X109562792Y-445628792D01*
X109579447Y-445615124D01*
X109598443Y-445604971D01*
X109619062Y-445598716D01*
X109646640Y-445596000D01*
X110155360Y-445596000D01*
X110182938Y-445598716D01*
X110182938Y-445598716D01*
G37*
G36*
X109132938Y-445598716D02*
G01*
X109153557Y-445604971D01*
X109172553Y-445615124D01*
X109189208Y-445628792D01*
X109202876Y-445645447D01*
X109213029Y-445664443D01*
X109219284Y-445685062D01*
X109222000Y-445712640D01*
X109222000Y-446171360D01*
X109219284Y-446198938D01*
X109213029Y-446219557D01*
X109202876Y-446238553D01*
X109189208Y-446255208D01*
X109172553Y-446268876D01*
X109153557Y-446279029D01*
X109132938Y-446285284D01*
X109105360Y-446288000D01*
X108596640Y-446288000D01*
X108569062Y-446285284D01*
X108548443Y-446279029D01*
X108529447Y-446268876D01*
X108512792Y-446255208D01*
X108499124Y-446238553D01*
X108488971Y-446219557D01*
X108482716Y-446198938D01*
X108480000Y-446171360D01*
X108480000Y-445712640D01*
X108482716Y-445685062D01*
X108488971Y-445664443D01*
X108499124Y-445645447D01*
X108512792Y-445628792D01*
X108529447Y-445615124D01*
X108548443Y-445604971D01*
X108569062Y-445598716D01*
X108596640Y-445596000D01*
X109105360Y-445596000D01*
X109132938Y-445598716D01*
X109132938Y-445598716D01*
G37*
G36*
X65335374Y-443041754D02*
G01*
X65485199Y-443071556D01*
X65767463Y-443188473D01*
X66021494Y-443358211D01*
X66237530Y-443574247D01*
X66407268Y-443828278D01*
X66524185Y-444110542D01*
X66583789Y-444410192D01*
X66583789Y-444715712D01*
X66524185Y-445015362D01*
X66407268Y-445297626D01*
X66237530Y-445551657D01*
X66021494Y-445767693D01*
X65767463Y-445937431D01*
X65485199Y-446054348D01*
X65335374Y-446084150D01*
X65185550Y-446113952D01*
X64880028Y-446113952D01*
X64730204Y-446084150D01*
X64580379Y-446054348D01*
X64298115Y-445937431D01*
X64044084Y-445767693D01*
X63828048Y-445551657D01*
X63658310Y-445297626D01*
X63541393Y-445015362D01*
X63481789Y-444715712D01*
X63481789Y-444410192D01*
X63541393Y-444110542D01*
X63658310Y-443828278D01*
X63828048Y-443574247D01*
X64044084Y-443358211D01*
X64298115Y-443188473D01*
X64580379Y-443071556D01*
X64730204Y-443041754D01*
X64880028Y-443011952D01*
X65185550Y-443011952D01*
X65335374Y-443041754D01*
X65335374Y-443041754D01*
G37*
G36*
X63108789Y-445913952D02*
G01*
X60406789Y-445913952D01*
X60406789Y-443211952D01*
X63108789Y-443211952D01*
X63108789Y-445913952D01*
X63108789Y-445913952D01*
G37*
G36*
X129051041Y-442420411D02*
G01*
X129117226Y-442426930D01*
X129287065Y-442478450D01*
X129443590Y-442562115D01*
X129479328Y-442591445D01*
X129580785Y-442674707D01*
X129643935Y-442751657D01*
X129693377Y-442811902D01*
X129777042Y-442968427D01*
X129828562Y-443138266D01*
X129845958Y-443314893D01*
X129828562Y-443491520D01*
X129786360Y-443630640D01*
X129777041Y-443661361D01*
X129735209Y-443739622D01*
X129693377Y-443817884D01*
X129684845Y-443828280D01*
X129580785Y-443955079D01*
X129479328Y-444038341D01*
X129443590Y-444067671D01*
X129443588Y-444067672D01*
X129312844Y-444137557D01*
X129287065Y-444151336D01*
X129117226Y-444202856D01*
X129051041Y-444209375D01*
X128984859Y-444215893D01*
X128896339Y-444215893D01*
X128830157Y-444209375D01*
X128763972Y-444202856D01*
X128594133Y-444151336D01*
X128568355Y-444137557D01*
X128437610Y-444067672D01*
X128437608Y-444067671D01*
X128401870Y-444038341D01*
X128300413Y-443955079D01*
X128196353Y-443828280D01*
X128187821Y-443817884D01*
X128145988Y-443739621D01*
X128104157Y-443661361D01*
X128094838Y-443630640D01*
X128052636Y-443491520D01*
X128035240Y-443314893D01*
X128052636Y-443138266D01*
X128104156Y-442968427D01*
X128187821Y-442811902D01*
X128237263Y-442751657D01*
X128300413Y-442674707D01*
X128401870Y-442591445D01*
X128437608Y-442562115D01*
X128594133Y-442478450D01*
X128763972Y-442426930D01*
X128830157Y-442420411D01*
X128896339Y-442413893D01*
X128984859Y-442413893D01*
X129051041Y-442420411D01*
X129051041Y-442420411D01*
G37*
G36*
X99931938Y-443516716D02*
G01*
X99952557Y-443522971D01*
X99971553Y-443533124D01*
X99988208Y-443546792D01*
X100001876Y-443563447D01*
X100012029Y-443582443D01*
X100018284Y-443603062D01*
X100021000Y-443630640D01*
X100021000Y-444089360D01*
X100018284Y-444116938D01*
X100012029Y-444137557D01*
X100001876Y-444156553D01*
X99988208Y-444173208D01*
X99971553Y-444186876D01*
X99952557Y-444197029D01*
X99931938Y-444203284D01*
X99904360Y-444206000D01*
X99395640Y-444206000D01*
X99368062Y-444203284D01*
X99347443Y-444197029D01*
X99328447Y-444186876D01*
X99311792Y-444173208D01*
X99298124Y-444156553D01*
X99287971Y-444137557D01*
X99281716Y-444116938D01*
X99279000Y-444089360D01*
X99279000Y-443630640D01*
X99281716Y-443603062D01*
X99287971Y-443582443D01*
X99298124Y-443563447D01*
X99311792Y-443546792D01*
X99328447Y-443533124D01*
X99347443Y-443522971D01*
X99368062Y-443516716D01*
X99395640Y-443514000D01*
X99904360Y-443514000D01*
X99931938Y-443516716D01*
X99931938Y-443516716D01*
G37*
G36*
X88835374Y-440241755D02*
G01*
X88985199Y-440271557D01*
X89267463Y-440388474D01*
X89521494Y-440558212D01*
X89737530Y-440774248D01*
X89907268Y-441028279D01*
X90024185Y-441310543D01*
X90083789Y-441610193D01*
X90083789Y-441915713D01*
X90024185Y-442215363D01*
X89907268Y-442497627D01*
X89737530Y-442751658D01*
X89521494Y-442967694D01*
X89267463Y-443137432D01*
X88985199Y-443254349D01*
X88835374Y-443284151D01*
X88685550Y-443313953D01*
X88380028Y-443313953D01*
X88230204Y-443284151D01*
X88080379Y-443254349D01*
X87798115Y-443137432D01*
X87544084Y-442967694D01*
X87328048Y-442751658D01*
X87158310Y-442497627D01*
X87041393Y-442215363D01*
X86981789Y-441915713D01*
X86981789Y-441610193D01*
X87041393Y-441310543D01*
X87158310Y-441028279D01*
X87328048Y-440774248D01*
X87544084Y-440558212D01*
X87798115Y-440388474D01*
X88080379Y-440271557D01*
X88230204Y-440241755D01*
X88380028Y-440211953D01*
X88685550Y-440211953D01*
X88835374Y-440241755D01*
X88835374Y-440241755D01*
G37*
G36*
X99931938Y-442546716D02*
G01*
X99952557Y-442552971D01*
X99971553Y-442563124D01*
X99988208Y-442576792D01*
X100001876Y-442593447D01*
X100012029Y-442612443D01*
X100018284Y-442633062D01*
X100021000Y-442660640D01*
X100021000Y-443119360D01*
X100018284Y-443146938D01*
X100012029Y-443167557D01*
X100001876Y-443186553D01*
X99988208Y-443203208D01*
X99971553Y-443216876D01*
X99952557Y-443227029D01*
X99931938Y-443233284D01*
X99904360Y-443236000D01*
X99395640Y-443236000D01*
X99368062Y-443233284D01*
X99347443Y-443227029D01*
X99328447Y-443216876D01*
X99311792Y-443203208D01*
X99298124Y-443186553D01*
X99287971Y-443167557D01*
X99281716Y-443146938D01*
X99279000Y-443119360D01*
X99279000Y-442660640D01*
X99281716Y-442633062D01*
X99287971Y-442612443D01*
X99298124Y-442593447D01*
X99311792Y-442576792D01*
X99328447Y-442563124D01*
X99347443Y-442552971D01*
X99368062Y-442546716D01*
X99395640Y-442544000D01*
X99904360Y-442544000D01*
X99931938Y-442546716D01*
X99931938Y-442546716D01*
G37*
G36*
X93158789Y-443113953D02*
G01*
X90456789Y-443113953D01*
X90456789Y-440411953D01*
X93158789Y-440411953D01*
X93158789Y-443113953D01*
X93158789Y-443113953D01*
G37*
G36*
X107151000Y-442876000D02*
G01*
X105549000Y-442876000D01*
X105549000Y-440774000D01*
X107151000Y-440774000D01*
X107151000Y-442876000D01*
X107151000Y-442876000D01*
G37*
G36*
X102551000Y-442876000D02*
G01*
X100949000Y-442876000D01*
X100949000Y-440774000D01*
X102551000Y-440774000D01*
X102551000Y-442876000D01*
X102551000Y-442876000D01*
G37*
G36*
X104851000Y-442876000D02*
G01*
X103249000Y-442876000D01*
X103249000Y-440774000D01*
X104851000Y-440774000D01*
X104851000Y-442876000D01*
X104851000Y-442876000D01*
G37*
G36*
X129051041Y-439880411D02*
G01*
X129117226Y-439886930D01*
X129287065Y-439938450D01*
X129443590Y-440022115D01*
X129464413Y-440039204D01*
X129580785Y-440134707D01*
X129644178Y-440211953D01*
X129693377Y-440271902D01*
X129777042Y-440428427D01*
X129828562Y-440598266D01*
X129845958Y-440774893D01*
X129828562Y-440951520D01*
X129777042Y-441121359D01*
X129693377Y-441277884D01*
X129666574Y-441310543D01*
X129580785Y-441415079D01*
X129479328Y-441498341D01*
X129443590Y-441527671D01*
X129443588Y-441527672D01*
X129289204Y-441610193D01*
X129287065Y-441611336D01*
X129117226Y-441662856D01*
X129051042Y-441669374D01*
X128984859Y-441675893D01*
X128896339Y-441675893D01*
X128830156Y-441669374D01*
X128763972Y-441662856D01*
X128594133Y-441611336D01*
X128591995Y-441610193D01*
X128437610Y-441527672D01*
X128437608Y-441527671D01*
X128401870Y-441498341D01*
X128300413Y-441415079D01*
X128214624Y-441310543D01*
X128187821Y-441277884D01*
X128104156Y-441121359D01*
X128052636Y-440951520D01*
X128035240Y-440774893D01*
X128052636Y-440598266D01*
X128104156Y-440428427D01*
X128187821Y-440271902D01*
X128237020Y-440211953D01*
X128300413Y-440134707D01*
X128416785Y-440039204D01*
X128437608Y-440022115D01*
X128594133Y-439938450D01*
X128763972Y-439886930D01*
X128830157Y-439880411D01*
X128896339Y-439873893D01*
X128984859Y-439873893D01*
X129051041Y-439880411D01*
X129051041Y-439880411D01*
G37*
G36*
X83835374Y-438041755D02*
G01*
X83985199Y-438071557D01*
X84267463Y-438188474D01*
X84521494Y-438358212D01*
X84737530Y-438574248D01*
X84907268Y-438828279D01*
X85024185Y-439110543D01*
X85024185Y-439110544D01*
X85083219Y-439407324D01*
X85083789Y-439410193D01*
X85083789Y-439715713D01*
X85024185Y-440015363D01*
X84907268Y-440297627D01*
X84737530Y-440551658D01*
X84521494Y-440767694D01*
X84267463Y-440937432D01*
X83985199Y-441054349D01*
X83835374Y-441084151D01*
X83685550Y-441113953D01*
X83380028Y-441113953D01*
X83230204Y-441084151D01*
X83080379Y-441054349D01*
X82798115Y-440937432D01*
X82544084Y-440767694D01*
X82328048Y-440551658D01*
X82158310Y-440297627D01*
X82041393Y-440015363D01*
X81981789Y-439715713D01*
X81981789Y-439410193D01*
X81982360Y-439407324D01*
X82041393Y-439110544D01*
X82041393Y-439110543D01*
X82158310Y-438828279D01*
X82328048Y-438574248D01*
X82544084Y-438358212D01*
X82798115Y-438188474D01*
X83080379Y-438071557D01*
X83230204Y-438041755D01*
X83380028Y-438011953D01*
X83685550Y-438011953D01*
X83835374Y-438041755D01*
X83835374Y-438041755D01*
G37*
G36*
X81608789Y-440913953D02*
G01*
X78906789Y-440913953D01*
X78906789Y-438211953D01*
X81608789Y-438211953D01*
X81608789Y-440913953D01*
X81608789Y-440913953D01*
G37*
G36*
X106266938Y-439406716D02*
G01*
X106287557Y-439412971D01*
X106306553Y-439423124D01*
X106323208Y-439436792D01*
X106336876Y-439453447D01*
X106347029Y-439472443D01*
X106353284Y-439493062D01*
X106356000Y-439520640D01*
X106356000Y-440029360D01*
X106353284Y-440056938D01*
X106347029Y-440077557D01*
X106336876Y-440096553D01*
X106323208Y-440113208D01*
X106306553Y-440126876D01*
X106287557Y-440137029D01*
X106266938Y-440143284D01*
X106239360Y-440146000D01*
X105780640Y-440146000D01*
X105753062Y-440143284D01*
X105732443Y-440137029D01*
X105713447Y-440126876D01*
X105696792Y-440113208D01*
X105683124Y-440096553D01*
X105672971Y-440077557D01*
X105666716Y-440056938D01*
X105664000Y-440029360D01*
X105664000Y-439520640D01*
X105666716Y-439493062D01*
X105672971Y-439472443D01*
X105683124Y-439453447D01*
X105696792Y-439436792D01*
X105713447Y-439423124D01*
X105732443Y-439412971D01*
X105753062Y-439406716D01*
X105780640Y-439404000D01*
X106239360Y-439404000D01*
X106266938Y-439406716D01*
X106266938Y-439406716D01*
G37*
G36*
X105296938Y-439406716D02*
G01*
X105317557Y-439412971D01*
X105336553Y-439423124D01*
X105353208Y-439436792D01*
X105366876Y-439453447D01*
X105377029Y-439472443D01*
X105383284Y-439493062D01*
X105386000Y-439520640D01*
X105386000Y-440029360D01*
X105383284Y-440056938D01*
X105377029Y-440077557D01*
X105366876Y-440096553D01*
X105353208Y-440113208D01*
X105336553Y-440126876D01*
X105317557Y-440137029D01*
X105296938Y-440143284D01*
X105269360Y-440146000D01*
X104810640Y-440146000D01*
X104783062Y-440143284D01*
X104762443Y-440137029D01*
X104743447Y-440126876D01*
X104726792Y-440113208D01*
X104713124Y-440096553D01*
X104702971Y-440077557D01*
X104696716Y-440056938D01*
X104694000Y-440029360D01*
X104694000Y-439520640D01*
X104696716Y-439493062D01*
X104702971Y-439472443D01*
X104713124Y-439453447D01*
X104726792Y-439436792D01*
X104743447Y-439423124D01*
X104762443Y-439412971D01*
X104783062Y-439406716D01*
X104810640Y-439404000D01*
X105269360Y-439404000D01*
X105296938Y-439406716D01*
X105296938Y-439406716D01*
G37*
G36*
X102547766Y-435315299D02*
G01*
X102869066Y-435448386D01*
X102869068Y-435448387D01*
X103158230Y-435641599D01*
X103404143Y-435887512D01*
X103553508Y-436111052D01*
X103597356Y-436176676D01*
X103730443Y-436497976D01*
X103798290Y-436839064D01*
X103798290Y-437186840D01*
X103730443Y-437527928D01*
X103653574Y-437713506D01*
X103597355Y-437849230D01*
X103404143Y-438138392D01*
X103158230Y-438384305D01*
X102869068Y-438577517D01*
X102869067Y-438577518D01*
X102869066Y-438577518D01*
X102547766Y-438710605D01*
X102206678Y-438778452D01*
X101858902Y-438778452D01*
X101517814Y-438710605D01*
X101196514Y-438577518D01*
X101196513Y-438577518D01*
X101196512Y-438577517D01*
X100907350Y-438384305D01*
X100661437Y-438138392D01*
X100468225Y-437849230D01*
X100412006Y-437713506D01*
X100335137Y-437527928D01*
X100267290Y-437186840D01*
X100267290Y-436839064D01*
X100335137Y-436497976D01*
X100468224Y-436176676D01*
X100512073Y-436111052D01*
X100661437Y-435887512D01*
X100907350Y-435641599D01*
X101196512Y-435448387D01*
X101196514Y-435448386D01*
X101517814Y-435315299D01*
X101858902Y-435247452D01*
X102206678Y-435247452D01*
X102547766Y-435315299D01*
X102547766Y-435315299D01*
G37*
G36*
X107708742Y-436128381D02*
G01*
X107795865Y-436145711D01*
X107905288Y-436191036D01*
X107960001Y-436213699D01*
X108106723Y-436311735D01*
X108107718Y-436312400D01*
X108233342Y-436438024D01*
X108233344Y-436438027D01*
X108332043Y-436585741D01*
X108332043Y-436585742D01*
X108400031Y-436749877D01*
X108434690Y-436924123D01*
X108434690Y-437101781D01*
X108400031Y-437276027D01*
X108354706Y-437385450D01*
X108332043Y-437440163D01*
X108273400Y-437527929D01*
X108233342Y-437587880D01*
X108107718Y-437713504D01*
X108107715Y-437713506D01*
X107960001Y-437812205D01*
X107905288Y-437834868D01*
X107795865Y-437880193D01*
X107708742Y-437897523D01*
X107621621Y-437914852D01*
X107443959Y-437914852D01*
X107356838Y-437897523D01*
X107269715Y-437880193D01*
X107160292Y-437834868D01*
X107105579Y-437812205D01*
X106957865Y-437713506D01*
X106957862Y-437713504D01*
X106832238Y-437587880D01*
X106792180Y-437527929D01*
X106733537Y-437440163D01*
X106710874Y-437385450D01*
X106665549Y-437276027D01*
X106630890Y-437101781D01*
X106630890Y-436924123D01*
X106665549Y-436749877D01*
X106733537Y-436585742D01*
X106733537Y-436585741D01*
X106832236Y-436438027D01*
X106832238Y-436438024D01*
X106957862Y-436312400D01*
X106958857Y-436311735D01*
X107105579Y-436213699D01*
X107160292Y-436191036D01*
X107269715Y-436145711D01*
X107356838Y-436128381D01*
X107443959Y-436111052D01*
X107621621Y-436111052D01*
X107708742Y-436128381D01*
X107708742Y-436128381D01*
G37*
G36*
X96708742Y-436128381D02*
G01*
X96795865Y-436145711D01*
X96905288Y-436191036D01*
X96960001Y-436213699D01*
X97106723Y-436311735D01*
X97107718Y-436312400D01*
X97233342Y-436438024D01*
X97233344Y-436438027D01*
X97332043Y-436585741D01*
X97332043Y-436585742D01*
X97400031Y-436749877D01*
X97434690Y-436924123D01*
X97434690Y-437101781D01*
X97400031Y-437276027D01*
X97354706Y-437385450D01*
X97332043Y-437440163D01*
X97273400Y-437527929D01*
X97233342Y-437587880D01*
X97107718Y-437713504D01*
X97107715Y-437713506D01*
X96960001Y-437812205D01*
X96905288Y-437834868D01*
X96795865Y-437880193D01*
X96708742Y-437897523D01*
X96621621Y-437914852D01*
X96443959Y-437914852D01*
X96356838Y-437897523D01*
X96269715Y-437880193D01*
X96160292Y-437834868D01*
X96105579Y-437812205D01*
X95957865Y-437713506D01*
X95957862Y-437713504D01*
X95832238Y-437587880D01*
X95792180Y-437527929D01*
X95733537Y-437440163D01*
X95710874Y-437385450D01*
X95665549Y-437276027D01*
X95630890Y-437101781D01*
X95630890Y-436924123D01*
X95665549Y-436749877D01*
X95733537Y-436585742D01*
X95733537Y-436585741D01*
X95832236Y-436438027D01*
X95832238Y-436438024D01*
X95957862Y-436312400D01*
X95958857Y-436311735D01*
X96105579Y-436213699D01*
X96160292Y-436191036D01*
X96269715Y-436145711D01*
X96356838Y-436128381D01*
X96443959Y-436111052D01*
X96621621Y-436111052D01*
X96708742Y-436128381D01*
X96708742Y-436128381D01*
G37*
G36*
X121047765Y-432315299D02*
G01*
X121342617Y-432437431D01*
X121369067Y-432448387D01*
X121658229Y-432641599D01*
X121904142Y-432887512D01*
X122053507Y-433111052D01*
X122097355Y-433176676D01*
X122230442Y-433497976D01*
X122298289Y-433839064D01*
X122298289Y-434186840D01*
X122230442Y-434527928D01*
X122112690Y-434812205D01*
X122097354Y-434849230D01*
X121904142Y-435138392D01*
X121658229Y-435384305D01*
X121369067Y-435577517D01*
X121369066Y-435577518D01*
X121369065Y-435577518D01*
X121047765Y-435710605D01*
X120706677Y-435778452D01*
X120358901Y-435778452D01*
X120017813Y-435710605D01*
X119696513Y-435577518D01*
X119696512Y-435577518D01*
X119696511Y-435577517D01*
X119407349Y-435384305D01*
X119161436Y-435138392D01*
X118968224Y-434849230D01*
X118952888Y-434812205D01*
X118835136Y-434527928D01*
X118767289Y-434186840D01*
X118767289Y-433839064D01*
X118835136Y-433497976D01*
X118968223Y-433176676D01*
X119012072Y-433111052D01*
X119161436Y-432887512D01*
X119407349Y-432641599D01*
X119696511Y-432448387D01*
X119722961Y-432437431D01*
X120017813Y-432315299D01*
X120358901Y-432247452D01*
X120706677Y-432247452D01*
X121047765Y-432315299D01*
X121047765Y-432315299D01*
G37*
G36*
X126208741Y-433128382D02*
G01*
X126295864Y-433145711D01*
X126405287Y-433191036D01*
X126460000Y-433213699D01*
X126606722Y-433311735D01*
X126607717Y-433312400D01*
X126733341Y-433438024D01*
X126733343Y-433438027D01*
X126832042Y-433585741D01*
X126832042Y-433585742D01*
X126900030Y-433749877D01*
X126934689Y-433924123D01*
X126934689Y-434101781D01*
X126900030Y-434276027D01*
X126854705Y-434385450D01*
X126832042Y-434440163D01*
X126773399Y-434527929D01*
X126733341Y-434587880D01*
X126607717Y-434713504D01*
X126607714Y-434713506D01*
X126460000Y-434812205D01*
X126405287Y-434834868D01*
X126295864Y-434880193D01*
X126208741Y-434897522D01*
X126121620Y-434914852D01*
X125943958Y-434914852D01*
X125856837Y-434897522D01*
X125769714Y-434880193D01*
X125660291Y-434834868D01*
X125605578Y-434812205D01*
X125457864Y-434713506D01*
X125457861Y-434713504D01*
X125332237Y-434587880D01*
X125292179Y-434527929D01*
X125233536Y-434440163D01*
X125210873Y-434385450D01*
X125165548Y-434276027D01*
X125130889Y-434101781D01*
X125130889Y-433924123D01*
X125165548Y-433749877D01*
X125233536Y-433585742D01*
X125233536Y-433585741D01*
X125332235Y-433438027D01*
X125332237Y-433438024D01*
X125457861Y-433312400D01*
X125458856Y-433311735D01*
X125605578Y-433213699D01*
X125660291Y-433191036D01*
X125769714Y-433145711D01*
X125856837Y-433128382D01*
X125943958Y-433111052D01*
X126121620Y-433111052D01*
X126208741Y-433128382D01*
X126208741Y-433128382D01*
G37*
G36*
X115208741Y-433128382D02*
G01*
X115295864Y-433145711D01*
X115405287Y-433191036D01*
X115460000Y-433213699D01*
X115606722Y-433311735D01*
X115607717Y-433312400D01*
X115733341Y-433438024D01*
X115733343Y-433438027D01*
X115832042Y-433585741D01*
X115832042Y-433585742D01*
X115900030Y-433749877D01*
X115934689Y-433924123D01*
X115934689Y-434101781D01*
X115900030Y-434276027D01*
X115854705Y-434385450D01*
X115832042Y-434440163D01*
X115773399Y-434527929D01*
X115733341Y-434587880D01*
X115607717Y-434713504D01*
X115607714Y-434713506D01*
X115460000Y-434812205D01*
X115405287Y-434834868D01*
X115295864Y-434880193D01*
X115208741Y-434897522D01*
X115121620Y-434914852D01*
X114943958Y-434914852D01*
X114856837Y-434897522D01*
X114769714Y-434880193D01*
X114660291Y-434834868D01*
X114605578Y-434812205D01*
X114457864Y-434713506D01*
X114457861Y-434713504D01*
X114332237Y-434587880D01*
X114292179Y-434527929D01*
X114233536Y-434440163D01*
X114210873Y-434385450D01*
X114165548Y-434276027D01*
X114130889Y-434101781D01*
X114130889Y-433924123D01*
X114165548Y-433749877D01*
X114233536Y-433585742D01*
X114233536Y-433585741D01*
X114332235Y-433438027D01*
X114332237Y-433438024D01*
X114457861Y-433312400D01*
X114458856Y-433311735D01*
X114605578Y-433213699D01*
X114660291Y-433191036D01*
X114769714Y-433145711D01*
X114856837Y-433128382D01*
X114943958Y-433111052D01*
X115121620Y-433111052D01*
X115208741Y-433128382D01*
X115208741Y-433128382D01*
G37*
G36*
X107335375Y-431741754D02*
G01*
X107485200Y-431771556D01*
X107767464Y-431888473D01*
X108021495Y-432058211D01*
X108237531Y-432274247D01*
X108407269Y-432528278D01*
X108524186Y-432810542D01*
X108583790Y-433110192D01*
X108583790Y-433415712D01*
X108524186Y-433715362D01*
X108407269Y-433997626D01*
X108237531Y-434251657D01*
X108021495Y-434467693D01*
X107767464Y-434637431D01*
X107485200Y-434754348D01*
X107335375Y-434784150D01*
X107185551Y-434813952D01*
X106880029Y-434813952D01*
X106730205Y-434784150D01*
X106580380Y-434754348D01*
X106298116Y-434637431D01*
X106044085Y-434467693D01*
X105828049Y-434251657D01*
X105658311Y-433997626D01*
X105541394Y-433715362D01*
X105481790Y-433415712D01*
X105481790Y-433110192D01*
X105541394Y-432810542D01*
X105658311Y-432528278D01*
X105828049Y-432274247D01*
X106044085Y-432058211D01*
X106298116Y-431888473D01*
X106580380Y-431771556D01*
X106730205Y-431741754D01*
X106880029Y-431711952D01*
X107185551Y-431711952D01*
X107335375Y-431741754D01*
X107335375Y-431741754D01*
G37*
G36*
X111658790Y-434613952D02*
G01*
X108956790Y-434613952D01*
X108956790Y-431911952D01*
X111658790Y-431911952D01*
X111658790Y-434613952D01*
X111658790Y-434613952D01*
G37*
G36*
X102267637Y-429528280D02*
G01*
X102485200Y-429571556D01*
X102767464Y-429688473D01*
X103021495Y-429858211D01*
X103237531Y-430074247D01*
X103407269Y-430328278D01*
X103524186Y-430610542D01*
X103583790Y-430910192D01*
X103583790Y-431215712D01*
X103524186Y-431515362D01*
X103407269Y-431797626D01*
X103237531Y-432051657D01*
X103021495Y-432267693D01*
X102767464Y-432437431D01*
X102485200Y-432554348D01*
X102335375Y-432584150D01*
X102185551Y-432613952D01*
X101880029Y-432613952D01*
X101730205Y-432584150D01*
X101580380Y-432554348D01*
X101298116Y-432437431D01*
X101044085Y-432267693D01*
X100828049Y-432051657D01*
X100658311Y-431797626D01*
X100541394Y-431515362D01*
X100481790Y-431215712D01*
X100481790Y-430910192D01*
X100541394Y-430610542D01*
X100658311Y-430328278D01*
X100828049Y-430074247D01*
X101044085Y-429858211D01*
X101298116Y-429688473D01*
X101580380Y-429571556D01*
X101797943Y-429528280D01*
X101880029Y-429511952D01*
X102185551Y-429511952D01*
X102267637Y-429528280D01*
X102267637Y-429528280D01*
G37*
G36*
X100108790Y-432413952D02*
G01*
X97406790Y-432413952D01*
X97406790Y-429711952D01*
X100108790Y-429711952D01*
X100108790Y-432413952D01*
X100108790Y-432413952D01*
G37*
G36*
X125835374Y-428741754D02*
G01*
X125985199Y-428771556D01*
X126267463Y-428888473D01*
X126521494Y-429058211D01*
X126737530Y-429274247D01*
X126907268Y-429528278D01*
X127024185Y-429810542D01*
X127083789Y-430110192D01*
X127083789Y-430415712D01*
X127024185Y-430715362D01*
X126907268Y-430997626D01*
X126737530Y-431251657D01*
X126521494Y-431467693D01*
X126267463Y-431637431D01*
X125985199Y-431754348D01*
X125898688Y-431771556D01*
X125685550Y-431813952D01*
X125380028Y-431813952D01*
X125166890Y-431771556D01*
X125080379Y-431754348D01*
X124798115Y-431637431D01*
X124544084Y-431467693D01*
X124328048Y-431251657D01*
X124158310Y-430997626D01*
X124041393Y-430715362D01*
X123981789Y-430415712D01*
X123981789Y-430110192D01*
X124041393Y-429810542D01*
X124158310Y-429528278D01*
X124328048Y-429274247D01*
X124544084Y-429058211D01*
X124798115Y-428888473D01*
X125080379Y-428771556D01*
X125230204Y-428741754D01*
X125380028Y-428711952D01*
X125685550Y-428711952D01*
X125835374Y-428741754D01*
X125835374Y-428741754D01*
G37*
G36*
X130158789Y-431613952D02*
G01*
X127456789Y-431613952D01*
X127456789Y-428911952D01*
X130158789Y-428911952D01*
X130158789Y-431613952D01*
X130158789Y-431613952D01*
G37*
G36*
X120835374Y-426541754D02*
G01*
X120985199Y-426571556D01*
X121267463Y-426688473D01*
X121521494Y-426858211D01*
X121737530Y-427074247D01*
X121907268Y-427328278D01*
X122024185Y-427610542D01*
X122083789Y-427910192D01*
X122083789Y-428215712D01*
X122024185Y-428515362D01*
X121907268Y-428797626D01*
X121737530Y-429051657D01*
X121521494Y-429267693D01*
X121267463Y-429437431D01*
X120985199Y-429554348D01*
X120898688Y-429571556D01*
X120685550Y-429613952D01*
X120380028Y-429613952D01*
X120166890Y-429571556D01*
X120080379Y-429554348D01*
X119798115Y-429437431D01*
X119544084Y-429267693D01*
X119328048Y-429051657D01*
X119158310Y-428797626D01*
X119041393Y-428515362D01*
X118981789Y-428215712D01*
X118981789Y-427910192D01*
X119041393Y-427610542D01*
X119158310Y-427328278D01*
X119328048Y-427074247D01*
X119544084Y-426858211D01*
X119798115Y-426688473D01*
X120080379Y-426571556D01*
X120230204Y-426541754D01*
X120380028Y-426511952D01*
X120685550Y-426511952D01*
X120835374Y-426541754D01*
X120835374Y-426541754D01*
G37*
G36*
X118608789Y-429413952D02*
G01*
X115906789Y-429413952D01*
X115906789Y-426711952D01*
X118608789Y-426711952D01*
X118608789Y-429413952D01*
X118608789Y-429413952D01*
G37*
G36*
X103567416Y-426576490D02*
G01*
X103633601Y-426583009D01*
X103803440Y-426634529D01*
X103959965Y-426718194D01*
X103995703Y-426747524D01*
X104097160Y-426830786D01*
X104180422Y-426932243D01*
X104209752Y-426967981D01*
X104293417Y-427124506D01*
X104344937Y-427294345D01*
X104362333Y-427470972D01*
X104344937Y-427647599D01*
X104293417Y-427817438D01*
X104209752Y-427973963D01*
X104180422Y-428009701D01*
X104097160Y-428111158D01*
X103995703Y-428194420D01*
X103959965Y-428223750D01*
X103803440Y-428307415D01*
X103633601Y-428358935D01*
X103567416Y-428365454D01*
X103501234Y-428371972D01*
X103412714Y-428371972D01*
X103346532Y-428365454D01*
X103280347Y-428358935D01*
X103110508Y-428307415D01*
X102953983Y-428223750D01*
X102918245Y-428194420D01*
X102816788Y-428111158D01*
X102733526Y-428009701D01*
X102704196Y-427973963D01*
X102620531Y-427817438D01*
X102569011Y-427647599D01*
X102551615Y-427470972D01*
X102569011Y-427294345D01*
X102620531Y-427124506D01*
X102704196Y-426967981D01*
X102733526Y-426932243D01*
X102816788Y-426830786D01*
X102918245Y-426747524D01*
X102953983Y-426718194D01*
X103110508Y-426634529D01*
X103280347Y-426583009D01*
X103346532Y-426576490D01*
X103412714Y-426569972D01*
X103501234Y-426569972D01*
X103567416Y-426576490D01*
X103567416Y-426576490D01*
G37*
G36*
X101027416Y-426576490D02*
G01*
X101093601Y-426583009D01*
X101263440Y-426634529D01*
X101419965Y-426718194D01*
X101455703Y-426747524D01*
X101557160Y-426830786D01*
X101640422Y-426932243D01*
X101669752Y-426967981D01*
X101753417Y-427124506D01*
X101804937Y-427294345D01*
X101822333Y-427470972D01*
X101804937Y-427647599D01*
X101753417Y-427817438D01*
X101669752Y-427973963D01*
X101640422Y-428009701D01*
X101557160Y-428111158D01*
X101455703Y-428194420D01*
X101419965Y-428223750D01*
X101263440Y-428307415D01*
X101093601Y-428358935D01*
X101027416Y-428365454D01*
X100961234Y-428371972D01*
X100872714Y-428371972D01*
X100806532Y-428365454D01*
X100740347Y-428358935D01*
X100570508Y-428307415D01*
X100413983Y-428223750D01*
X100378245Y-428194420D01*
X100276788Y-428111158D01*
X100193526Y-428009701D01*
X100164196Y-427973963D01*
X100080531Y-427817438D01*
X100029011Y-427647599D01*
X100011615Y-427470972D01*
X100029011Y-427294345D01*
X100080531Y-427124506D01*
X100164196Y-426967981D01*
X100193526Y-426932243D01*
X100276788Y-426830786D01*
X100378245Y-426747524D01*
X100413983Y-426718194D01*
X100570508Y-426634529D01*
X100740347Y-426583009D01*
X100806532Y-426576490D01*
X100872714Y-426569972D01*
X100961234Y-426569972D01*
X101027416Y-426576490D01*
X101027416Y-426576490D01*
G37*
G36*
X98487416Y-426576490D02*
G01*
X98553601Y-426583009D01*
X98723440Y-426634529D01*
X98879965Y-426718194D01*
X98915703Y-426747524D01*
X99017160Y-426830786D01*
X99100422Y-426932243D01*
X99129752Y-426967981D01*
X99213417Y-427124506D01*
X99264937Y-427294345D01*
X99282333Y-427470972D01*
X99264937Y-427647599D01*
X99213417Y-427817438D01*
X99129752Y-427973963D01*
X99100422Y-428009701D01*
X99017160Y-428111158D01*
X98915703Y-428194420D01*
X98879965Y-428223750D01*
X98723440Y-428307415D01*
X98553601Y-428358935D01*
X98487416Y-428365454D01*
X98421234Y-428371972D01*
X98332714Y-428371972D01*
X98266532Y-428365454D01*
X98200347Y-428358935D01*
X98030508Y-428307415D01*
X97873983Y-428223750D01*
X97838245Y-428194420D01*
X97736788Y-428111158D01*
X97653526Y-428009701D01*
X97624196Y-427973963D01*
X97540531Y-427817438D01*
X97489011Y-427647599D01*
X97471615Y-427470972D01*
X97489011Y-427294345D01*
X97540531Y-427124506D01*
X97624196Y-426967981D01*
X97653526Y-426932243D01*
X97736788Y-426830786D01*
X97838245Y-426747524D01*
X97873983Y-426718194D01*
X98030508Y-426634529D01*
X98200347Y-426583009D01*
X98266532Y-426576490D01*
X98332714Y-426569972D01*
X98421234Y-426569972D01*
X98487416Y-426576490D01*
X98487416Y-426576490D01*
G37*
G36*
X106897974Y-428371972D02*
G01*
X105095974Y-428371972D01*
X105095974Y-426569972D01*
X106897974Y-426569972D01*
X106897974Y-428371972D01*
X106897974Y-428371972D01*
G37*
G36*
X120835374Y-420941754D02*
G01*
X120985199Y-420971556D01*
X121267463Y-421088473D01*
X121521494Y-421258211D01*
X121737530Y-421474247D01*
X121907268Y-421728278D01*
X122024185Y-422010542D01*
X122083789Y-422310192D01*
X122083789Y-422615712D01*
X122024185Y-422915362D01*
X121907268Y-423197626D01*
X121737530Y-423451657D01*
X121521494Y-423667693D01*
X121267463Y-423837431D01*
X120985199Y-423954348D01*
X120835374Y-423984150D01*
X120685550Y-424013952D01*
X120380028Y-424013952D01*
X120230204Y-423984150D01*
X120080379Y-423954348D01*
X119798115Y-423837431D01*
X119544084Y-423667693D01*
X119328048Y-423451657D01*
X119158310Y-423197626D01*
X119041393Y-422915362D01*
X118981789Y-422615712D01*
X118981789Y-422310192D01*
X119041393Y-422010542D01*
X119158310Y-421728278D01*
X119328048Y-421474247D01*
X119544084Y-421258211D01*
X119798115Y-421088473D01*
X120080379Y-420971556D01*
X120230204Y-420941754D01*
X120380028Y-420911952D01*
X120685550Y-420911952D01*
X120835374Y-420941754D01*
X120835374Y-420941754D01*
G37*
G36*
X125158789Y-423813952D02*
G01*
X122456789Y-423813952D01*
X122456789Y-421111952D01*
X125158789Y-421111952D01*
X125158789Y-423813952D01*
X125158789Y-423813952D01*
G37*
G36*
X115835374Y-418741754D02*
G01*
X115985199Y-418771556D01*
X116267463Y-418888473D01*
X116521494Y-419058211D01*
X116737530Y-419274247D01*
X116907268Y-419528278D01*
X117024185Y-419810542D01*
X117083789Y-420110192D01*
X117083789Y-420415712D01*
X117024185Y-420715362D01*
X116907268Y-420997626D01*
X116737530Y-421251657D01*
X116521494Y-421467693D01*
X116267463Y-421637431D01*
X115985199Y-421754348D01*
X115835374Y-421784150D01*
X115685550Y-421813952D01*
X115380028Y-421813952D01*
X115230204Y-421784150D01*
X115080379Y-421754348D01*
X114798115Y-421637431D01*
X114544084Y-421467693D01*
X114328048Y-421251657D01*
X114158310Y-420997626D01*
X114041393Y-420715362D01*
X113981789Y-420415712D01*
X113981789Y-420110192D01*
X114041393Y-419810542D01*
X114158310Y-419528278D01*
X114328048Y-419274247D01*
X114544084Y-419058211D01*
X114798115Y-418888473D01*
X115080379Y-418771556D01*
X115230204Y-418741754D01*
X115380028Y-418711952D01*
X115685550Y-418711952D01*
X115835374Y-418741754D01*
X115835374Y-418741754D01*
G37*
G36*
X113608789Y-421613952D02*
G01*
X110906789Y-421613952D01*
X110906789Y-418911952D01*
X113608789Y-418911952D01*
X113608789Y-421613952D01*
X113608789Y-421613952D01*
G37*
G36*
X102547765Y-417815299D02*
G01*
X102869065Y-417948386D01*
X102869067Y-417948387D01*
X103158229Y-418141599D01*
X103404142Y-418387512D01*
X103553507Y-418611052D01*
X103597355Y-418676676D01*
X103730442Y-418997976D01*
X103798289Y-419339064D01*
X103798289Y-419686840D01*
X103730442Y-420027928D01*
X103653573Y-420213506D01*
X103597354Y-420349230D01*
X103404142Y-420638392D01*
X103158229Y-420884305D01*
X102869067Y-421077517D01*
X102869066Y-421077518D01*
X102869065Y-421077518D01*
X102547765Y-421210605D01*
X102206677Y-421278452D01*
X101858901Y-421278452D01*
X101517813Y-421210605D01*
X101196513Y-421077518D01*
X101196512Y-421077518D01*
X101196511Y-421077517D01*
X100907349Y-420884305D01*
X100661436Y-420638392D01*
X100468224Y-420349230D01*
X100412005Y-420213506D01*
X100335136Y-420027928D01*
X100267289Y-419686840D01*
X100267289Y-419339064D01*
X100335136Y-418997976D01*
X100468223Y-418676676D01*
X100512072Y-418611052D01*
X100661436Y-418387512D01*
X100907349Y-418141599D01*
X101196511Y-417948387D01*
X101196513Y-417948386D01*
X101517813Y-417815299D01*
X101858901Y-417747452D01*
X102206677Y-417747452D01*
X102547765Y-417815299D01*
X102547765Y-417815299D01*
G37*
G36*
X96708741Y-418628381D02*
G01*
X96795864Y-418645711D01*
X96905287Y-418691036D01*
X96960000Y-418713699D01*
X97046589Y-418771556D01*
X97107717Y-418812400D01*
X97233341Y-418938024D01*
X97233343Y-418938027D01*
X97332042Y-419085741D01*
X97332042Y-419085742D01*
X97400030Y-419249877D01*
X97434689Y-419424123D01*
X97434689Y-419601781D01*
X97400030Y-419776027D01*
X97354705Y-419885450D01*
X97332042Y-419940163D01*
X97273399Y-420027929D01*
X97233341Y-420087880D01*
X97107717Y-420213504D01*
X97107714Y-420213506D01*
X96960000Y-420312205D01*
X96905287Y-420334868D01*
X96795864Y-420380193D01*
X96708741Y-420397523D01*
X96621620Y-420414852D01*
X96443958Y-420414852D01*
X96356837Y-420397523D01*
X96269714Y-420380193D01*
X96160291Y-420334868D01*
X96105578Y-420312205D01*
X95957864Y-420213506D01*
X95957861Y-420213504D01*
X95832237Y-420087880D01*
X95792179Y-420027929D01*
X95733536Y-419940163D01*
X95710873Y-419885450D01*
X95665548Y-419776027D01*
X95630889Y-419601781D01*
X95630889Y-419424123D01*
X95665548Y-419249877D01*
X95733536Y-419085742D01*
X95733536Y-419085741D01*
X95832235Y-418938027D01*
X95832237Y-418938024D01*
X95957861Y-418812400D01*
X96018989Y-418771556D01*
X96105578Y-418713699D01*
X96160291Y-418691036D01*
X96269714Y-418645711D01*
X96356837Y-418628381D01*
X96443958Y-418611052D01*
X96621620Y-418611052D01*
X96708741Y-418628381D01*
X96708741Y-418628381D01*
G37*
G36*
X107708741Y-418628381D02*
G01*
X107795864Y-418645711D01*
X107905287Y-418691036D01*
X107960000Y-418713699D01*
X108046589Y-418771556D01*
X108107717Y-418812400D01*
X108233341Y-418938024D01*
X108233343Y-418938027D01*
X108332042Y-419085741D01*
X108332042Y-419085742D01*
X108400030Y-419249877D01*
X108434689Y-419424123D01*
X108434689Y-419601781D01*
X108400030Y-419776027D01*
X108354705Y-419885450D01*
X108332042Y-419940163D01*
X108273399Y-420027929D01*
X108233341Y-420087880D01*
X108107717Y-420213504D01*
X108107714Y-420213506D01*
X107960000Y-420312205D01*
X107905287Y-420334868D01*
X107795864Y-420380193D01*
X107708741Y-420397523D01*
X107621620Y-420414852D01*
X107443958Y-420414852D01*
X107356837Y-420397523D01*
X107269714Y-420380193D01*
X107160291Y-420334868D01*
X107105578Y-420312205D01*
X106957864Y-420213506D01*
X106957861Y-420213504D01*
X106832237Y-420087880D01*
X106792179Y-420027929D01*
X106733536Y-419940163D01*
X106710873Y-419885450D01*
X106665548Y-419776027D01*
X106630889Y-419601781D01*
X106630889Y-419424123D01*
X106665548Y-419249877D01*
X106733536Y-419085742D01*
X106733536Y-419085741D01*
X106832235Y-418938027D01*
X106832237Y-418938024D01*
X106957861Y-418812400D01*
X107018989Y-418771556D01*
X107105578Y-418713699D01*
X107160291Y-418691036D01*
X107269714Y-418645711D01*
X107356837Y-418628381D01*
X107443958Y-418611052D01*
X107621620Y-418611052D01*
X107708741Y-418628381D01*
X107708741Y-418628381D01*
G37*
G36*
X121047765Y-414815299D02*
G01*
X121342617Y-414937431D01*
X121369067Y-414948387D01*
X121658229Y-415141599D01*
X121904142Y-415387512D01*
X122053507Y-415611052D01*
X122097355Y-415676676D01*
X122230442Y-415997976D01*
X122298289Y-416339064D01*
X122298289Y-416686840D01*
X122230442Y-417027928D01*
X122112690Y-417312205D01*
X122097354Y-417349230D01*
X121904142Y-417638392D01*
X121658229Y-417884305D01*
X121369067Y-418077517D01*
X121369066Y-418077518D01*
X121369065Y-418077518D01*
X121047765Y-418210605D01*
X120706677Y-418278452D01*
X120358901Y-418278452D01*
X120017813Y-418210605D01*
X119696513Y-418077518D01*
X119696512Y-418077518D01*
X119696511Y-418077517D01*
X119407349Y-417884305D01*
X119161436Y-417638392D01*
X118968224Y-417349230D01*
X118952888Y-417312205D01*
X118835136Y-417027928D01*
X118767289Y-416686840D01*
X118767289Y-416339064D01*
X118835136Y-415997976D01*
X118968223Y-415676676D01*
X119012072Y-415611052D01*
X119161436Y-415387512D01*
X119407349Y-415141599D01*
X119696511Y-414948387D01*
X119722961Y-414937431D01*
X120017813Y-414815299D01*
X120358901Y-414747452D01*
X120706677Y-414747452D01*
X121047765Y-414815299D01*
X121047765Y-414815299D01*
G37*
G36*
X126208741Y-415628381D02*
G01*
X126295864Y-415645711D01*
X126405287Y-415691036D01*
X126460000Y-415713699D01*
X126606722Y-415811735D01*
X126607717Y-415812400D01*
X126733341Y-415938024D01*
X126733343Y-415938027D01*
X126832042Y-416085741D01*
X126832042Y-416085742D01*
X126900030Y-416249877D01*
X126934689Y-416424123D01*
X126934689Y-416601781D01*
X126900030Y-416776027D01*
X126854705Y-416885450D01*
X126832042Y-416940163D01*
X126773399Y-417027929D01*
X126733341Y-417087880D01*
X126607717Y-417213504D01*
X126607714Y-417213506D01*
X126460000Y-417312205D01*
X126405287Y-417334868D01*
X126295864Y-417380193D01*
X126208741Y-417397522D01*
X126121620Y-417414852D01*
X125943958Y-417414852D01*
X125856837Y-417397522D01*
X125769714Y-417380193D01*
X125660291Y-417334868D01*
X125605578Y-417312205D01*
X125457864Y-417213506D01*
X125457861Y-417213504D01*
X125332237Y-417087880D01*
X125292179Y-417027929D01*
X125233536Y-416940163D01*
X125210873Y-416885450D01*
X125165548Y-416776027D01*
X125130889Y-416601781D01*
X125130889Y-416424123D01*
X125165548Y-416249877D01*
X125233536Y-416085742D01*
X125233536Y-416085741D01*
X125332235Y-415938027D01*
X125332237Y-415938024D01*
X125457861Y-415812400D01*
X125458856Y-415811735D01*
X125605578Y-415713699D01*
X125660291Y-415691036D01*
X125769714Y-415645711D01*
X125856837Y-415628381D01*
X125943958Y-415611052D01*
X126121620Y-415611052D01*
X126208741Y-415628381D01*
X126208741Y-415628381D01*
G37*
G36*
X115208741Y-415628381D02*
G01*
X115295864Y-415645711D01*
X115405287Y-415691036D01*
X115460000Y-415713699D01*
X115606722Y-415811735D01*
X115607717Y-415812400D01*
X115733341Y-415938024D01*
X115733343Y-415938027D01*
X115832042Y-416085741D01*
X115832042Y-416085742D01*
X115900030Y-416249877D01*
X115934689Y-416424123D01*
X115934689Y-416601781D01*
X115900030Y-416776027D01*
X115854705Y-416885450D01*
X115832042Y-416940163D01*
X115773399Y-417027929D01*
X115733341Y-417087880D01*
X115607717Y-417213504D01*
X115607714Y-417213506D01*
X115460000Y-417312205D01*
X115405287Y-417334868D01*
X115295864Y-417380193D01*
X115208741Y-417397522D01*
X115121620Y-417414852D01*
X114943958Y-417414852D01*
X114856837Y-417397522D01*
X114769714Y-417380193D01*
X114660291Y-417334868D01*
X114605578Y-417312205D01*
X114457864Y-417213506D01*
X114457861Y-417213504D01*
X114332237Y-417087880D01*
X114292179Y-417027929D01*
X114233536Y-416940163D01*
X114210873Y-416885450D01*
X114165548Y-416776027D01*
X114130889Y-416601781D01*
X114130889Y-416424123D01*
X114165548Y-416249877D01*
X114233536Y-416085742D01*
X114233536Y-416085741D01*
X114332235Y-415938027D01*
X114332237Y-415938024D01*
X114457861Y-415812400D01*
X114458856Y-415811735D01*
X114605578Y-415713699D01*
X114660291Y-415691036D01*
X114769714Y-415645711D01*
X114856837Y-415628381D01*
X114943958Y-415611052D01*
X115121620Y-415611052D01*
X115208741Y-415628381D01*
X115208741Y-415628381D01*
G37*
G36*
X107335374Y-414241754D02*
G01*
X107485199Y-414271556D01*
X107767463Y-414388473D01*
X108021494Y-414558211D01*
X108237530Y-414774247D01*
X108407268Y-415028278D01*
X108524185Y-415310542D01*
X108583789Y-415610192D01*
X108583789Y-415915712D01*
X108524185Y-416215362D01*
X108407268Y-416497626D01*
X108237530Y-416751657D01*
X108021494Y-416967693D01*
X107767463Y-417137431D01*
X107485199Y-417254348D01*
X107335374Y-417284150D01*
X107185550Y-417313952D01*
X106880028Y-417313952D01*
X106730204Y-417284150D01*
X106580379Y-417254348D01*
X106298115Y-417137431D01*
X106044084Y-416967693D01*
X105828048Y-416751657D01*
X105658310Y-416497626D01*
X105541393Y-416215362D01*
X105481789Y-415915712D01*
X105481789Y-415610192D01*
X105541393Y-415310542D01*
X105658310Y-415028278D01*
X105828048Y-414774247D01*
X106044084Y-414558211D01*
X106298115Y-414388473D01*
X106580379Y-414271556D01*
X106730204Y-414241754D01*
X106880028Y-414211952D01*
X107185550Y-414211952D01*
X107335374Y-414241754D01*
X107335374Y-414241754D01*
G37*
G36*
X111658789Y-417113952D02*
G01*
X108956789Y-417113952D01*
X108956789Y-414411952D01*
X111658789Y-414411952D01*
X111658789Y-417113952D01*
X111658789Y-417113952D01*
G37*
G36*
X102335374Y-412041754D02*
G01*
X102485199Y-412071556D01*
X102767463Y-412188473D01*
X103021494Y-412358211D01*
X103237530Y-412574247D01*
X103407268Y-412828278D01*
X103524185Y-413110542D01*
X103583789Y-413410192D01*
X103583789Y-413715712D01*
X103524185Y-414015362D01*
X103407268Y-414297626D01*
X103237530Y-414551657D01*
X103021494Y-414767693D01*
X102767463Y-414937431D01*
X102485199Y-415054348D01*
X102335374Y-415084150D01*
X102185550Y-415113952D01*
X101880028Y-415113952D01*
X101730204Y-415084150D01*
X101580379Y-415054348D01*
X101298115Y-414937431D01*
X101044084Y-414767693D01*
X100828048Y-414551657D01*
X100658310Y-414297626D01*
X100541393Y-414015362D01*
X100481789Y-413715712D01*
X100481789Y-413410192D01*
X100541393Y-413110542D01*
X100658310Y-412828278D01*
X100828048Y-412574247D01*
X101044084Y-412358211D01*
X101298115Y-412188473D01*
X101580379Y-412071556D01*
X101730204Y-412041754D01*
X101880028Y-412011952D01*
X102185550Y-412011952D01*
X102335374Y-412041754D01*
X102335374Y-412041754D01*
G37*
G36*
X100108789Y-414913952D02*
G01*
X97406789Y-414913952D01*
X97406789Y-412211952D01*
X100108789Y-412211952D01*
X100108789Y-414913952D01*
X100108789Y-414913952D01*
G37*
G36*
X118727206Y-411491781D02*
G01*
X118877031Y-411521583D01*
X119159295Y-411638500D01*
X119413326Y-411808238D01*
X119629362Y-412024274D01*
X119799100Y-412278305D01*
X119916017Y-412560569D01*
X119975621Y-412860219D01*
X119975621Y-413165739D01*
X119916017Y-413465389D01*
X119799100Y-413747653D01*
X119629362Y-414001684D01*
X119413326Y-414217720D01*
X119159295Y-414387458D01*
X118877031Y-414504375D01*
X118727206Y-414534177D01*
X118577382Y-414563979D01*
X118271860Y-414563979D01*
X118122036Y-414534177D01*
X117972211Y-414504375D01*
X117689947Y-414387458D01*
X117435916Y-414217720D01*
X117219880Y-414001684D01*
X117050142Y-413747653D01*
X116933225Y-413465389D01*
X116873621Y-413165739D01*
X116873621Y-412860219D01*
X116933225Y-412560569D01*
X117050142Y-412278305D01*
X117219880Y-412024274D01*
X117435916Y-411808238D01*
X117689947Y-411638500D01*
X117972211Y-411521583D01*
X118122036Y-411491781D01*
X118271860Y-411461979D01*
X118577382Y-411461979D01*
X118727206Y-411491781D01*
X118727206Y-411491781D01*
G37*
G36*
X127916181Y-411977043D02*
G01*
X128067648Y-412007172D01*
X128281666Y-412095821D01*
X128281667Y-412095822D01*
X128474275Y-412224518D01*
X128638082Y-412388325D01*
X128723879Y-412516730D01*
X128766779Y-412580934D01*
X128855428Y-412794952D01*
X128900621Y-413022153D01*
X128900621Y-413253805D01*
X128855428Y-413481006D01*
X128766779Y-413695024D01*
X128752955Y-413715713D01*
X128638082Y-413887633D01*
X128474275Y-414051440D01*
X128345870Y-414137237D01*
X128281666Y-414180137D01*
X128067648Y-414268786D01*
X127922669Y-414297624D01*
X127840448Y-414313979D01*
X127608794Y-414313979D01*
X127526573Y-414297624D01*
X127381594Y-414268786D01*
X127167576Y-414180137D01*
X127103372Y-414137237D01*
X126974967Y-414051440D01*
X126811160Y-413887633D01*
X126696287Y-413715713D01*
X126682463Y-413695024D01*
X126593814Y-413481006D01*
X126548621Y-413253805D01*
X126548621Y-413022153D01*
X126593814Y-412794952D01*
X126682463Y-412580934D01*
X126725363Y-412516730D01*
X126811160Y-412388325D01*
X126974967Y-412224518D01*
X127167575Y-412095822D01*
X127167576Y-412095821D01*
X127381594Y-412007172D01*
X127533061Y-411977043D01*
X127608794Y-411961979D01*
X127840448Y-411961979D01*
X127916181Y-411977043D01*
X127916181Y-411977043D01*
G37*
G36*
X119756173Y-410179310D02*
G01*
X119838248Y-410213307D01*
X119838250Y-410213308D01*
X119875434Y-410238154D01*
X119912116Y-410262664D01*
X119974936Y-410325484D01*
X120024293Y-410399352D01*
X120058290Y-410481427D01*
X120075621Y-410568558D01*
X120075621Y-410657400D01*
X120058290Y-410744531D01*
X120025718Y-410823165D01*
X120024292Y-410826608D01*
X119974935Y-410900475D01*
X119912117Y-410963293D01*
X119838250Y-411012650D01*
X119838249Y-411012651D01*
X119838248Y-411012651D01*
X119756173Y-411046648D01*
X119669042Y-411063979D01*
X119580200Y-411063979D01*
X119493069Y-411046648D01*
X119410994Y-411012651D01*
X119410993Y-411012651D01*
X119410992Y-411012650D01*
X119337125Y-410963293D01*
X119274307Y-410900475D01*
X119224950Y-410826608D01*
X119223524Y-410823165D01*
X119190952Y-410744531D01*
X119173621Y-410657400D01*
X119173621Y-410568558D01*
X119190952Y-410481427D01*
X119224949Y-410399352D01*
X119274306Y-410325484D01*
X119337126Y-410262664D01*
X119373808Y-410238154D01*
X119410992Y-410213308D01*
X119410994Y-410213307D01*
X119493069Y-410179310D01*
X119580200Y-410161979D01*
X119669042Y-410161979D01*
X119756173Y-410179310D01*
X119756173Y-410179310D01*
G37*
G36*
X126756173Y-410179310D02*
G01*
X126838248Y-410213307D01*
X126838250Y-410213308D01*
X126875434Y-410238154D01*
X126912116Y-410262664D01*
X126974936Y-410325484D01*
X127024293Y-410399352D01*
X127058290Y-410481427D01*
X127075621Y-410568558D01*
X127075621Y-410657400D01*
X127058290Y-410744531D01*
X127025718Y-410823165D01*
X127024292Y-410826608D01*
X126974935Y-410900475D01*
X126912117Y-410963293D01*
X126838250Y-411012650D01*
X126838249Y-411012651D01*
X126838248Y-411012651D01*
X126756173Y-411046648D01*
X126669042Y-411063979D01*
X126580200Y-411063979D01*
X126493069Y-411046648D01*
X126410994Y-411012651D01*
X126410993Y-411012651D01*
X126410992Y-411012650D01*
X126337125Y-410963293D01*
X126274307Y-410900475D01*
X126224950Y-410826608D01*
X126223524Y-410823165D01*
X126190952Y-410744531D01*
X126173621Y-410657400D01*
X126173621Y-410568558D01*
X126190952Y-410481427D01*
X126224949Y-410399352D01*
X126274306Y-410325484D01*
X126337126Y-410262664D01*
X126373808Y-410238154D01*
X126410992Y-410213308D01*
X126410994Y-410213307D01*
X126493069Y-410179310D01*
X126580200Y-410161979D01*
X126669042Y-410161979D01*
X126756173Y-410179310D01*
X126756173Y-410179310D01*
G37*
G36*
X101184603Y-409040720D02*
G01*
X101250788Y-409047239D01*
X101420627Y-409098759D01*
X101577152Y-409182424D01*
X101612890Y-409211754D01*
X101714347Y-409295016D01*
X101797609Y-409396473D01*
X101826939Y-409432211D01*
X101910604Y-409588736D01*
X101962124Y-409758575D01*
X101979520Y-409935202D01*
X101962124Y-410111829D01*
X101910604Y-410281668D01*
X101826939Y-410438193D01*
X101797609Y-410473931D01*
X101714347Y-410575388D01*
X101614415Y-410657399D01*
X101577152Y-410687980D01*
X101420627Y-410771645D01*
X101250788Y-410823165D01*
X101184604Y-410829683D01*
X101118421Y-410836202D01*
X101029901Y-410836202D01*
X100963718Y-410829683D01*
X100897534Y-410823165D01*
X100727695Y-410771645D01*
X100571170Y-410687980D01*
X100533907Y-410657399D01*
X100433975Y-410575388D01*
X100350713Y-410473931D01*
X100321383Y-410438193D01*
X100237718Y-410281668D01*
X100186198Y-410111829D01*
X100168802Y-409935202D01*
X100186198Y-409758575D01*
X100237718Y-409588736D01*
X100321383Y-409432211D01*
X100350713Y-409396473D01*
X100433975Y-409295016D01*
X100535432Y-409211754D01*
X100571170Y-409182424D01*
X100727695Y-409098759D01*
X100897534Y-409047239D01*
X100963719Y-409040720D01*
X101029901Y-409034202D01*
X101118421Y-409034202D01*
X101184603Y-409040720D01*
X101184603Y-409040720D01*
G37*
G36*
X107055161Y-410836202D02*
G01*
X105253161Y-410836202D01*
X105253161Y-409034202D01*
X107055161Y-409034202D01*
X107055161Y-410836202D01*
X107055161Y-410836202D01*
G37*
G36*
X103724603Y-409040720D02*
G01*
X103790788Y-409047239D01*
X103960627Y-409098759D01*
X104117152Y-409182424D01*
X104152890Y-409211754D01*
X104254347Y-409295016D01*
X104337609Y-409396473D01*
X104366939Y-409432211D01*
X104450604Y-409588736D01*
X104502124Y-409758575D01*
X104519520Y-409935202D01*
X104502124Y-410111829D01*
X104450604Y-410281668D01*
X104366939Y-410438193D01*
X104337609Y-410473931D01*
X104254347Y-410575388D01*
X104154415Y-410657399D01*
X104117152Y-410687980D01*
X103960627Y-410771645D01*
X103790788Y-410823165D01*
X103724604Y-410829683D01*
X103658421Y-410836202D01*
X103569901Y-410836202D01*
X103503718Y-410829683D01*
X103437534Y-410823165D01*
X103267695Y-410771645D01*
X103111170Y-410687980D01*
X103073907Y-410657399D01*
X102973975Y-410575388D01*
X102890713Y-410473931D01*
X102861383Y-410438193D01*
X102777718Y-410281668D01*
X102726198Y-410111829D01*
X102708802Y-409935202D01*
X102726198Y-409758575D01*
X102777718Y-409588736D01*
X102861383Y-409432211D01*
X102890713Y-409396473D01*
X102973975Y-409295016D01*
X103075432Y-409211754D01*
X103111170Y-409182424D01*
X103267695Y-409098759D01*
X103437534Y-409047239D01*
X103503719Y-409040720D01*
X103569901Y-409034202D01*
X103658421Y-409034202D01*
X103724603Y-409040720D01*
X103724603Y-409040720D01*
G37*
G36*
X98644603Y-409040720D02*
G01*
X98710788Y-409047239D01*
X98880627Y-409098759D01*
X99037152Y-409182424D01*
X99072890Y-409211754D01*
X99174347Y-409295016D01*
X99257609Y-409396473D01*
X99286939Y-409432211D01*
X99370604Y-409588736D01*
X99422124Y-409758575D01*
X99439520Y-409935202D01*
X99422124Y-410111829D01*
X99370604Y-410281668D01*
X99286939Y-410438193D01*
X99257609Y-410473931D01*
X99174347Y-410575388D01*
X99074415Y-410657399D01*
X99037152Y-410687980D01*
X98880627Y-410771645D01*
X98710788Y-410823165D01*
X98644604Y-410829683D01*
X98578421Y-410836202D01*
X98489901Y-410836202D01*
X98423718Y-410829683D01*
X98357534Y-410823165D01*
X98187695Y-410771645D01*
X98031170Y-410687980D01*
X97993907Y-410657399D01*
X97893975Y-410575388D01*
X97810713Y-410473931D01*
X97781383Y-410438193D01*
X97697718Y-410281668D01*
X97646198Y-410111829D01*
X97628802Y-409935202D01*
X97646198Y-409758575D01*
X97697718Y-409588736D01*
X97781383Y-409432211D01*
X97810713Y-409396473D01*
X97893975Y-409295016D01*
X97995432Y-409211754D01*
X98031170Y-409182424D01*
X98187695Y-409098759D01*
X98357534Y-409047239D01*
X98423719Y-409040720D01*
X98489901Y-409034202D01*
X98578421Y-409034202D01*
X98644603Y-409040720D01*
X98644603Y-409040720D01*
G37*
G36*
X126016181Y-406927043D02*
G01*
X126167648Y-406957172D01*
X126381666Y-407045821D01*
X126381667Y-407045822D01*
X126574275Y-407174518D01*
X126738082Y-407338325D01*
X126823879Y-407466730D01*
X126866779Y-407530934D01*
X126955428Y-407744952D01*
X127000621Y-407972153D01*
X127000621Y-408203805D01*
X126955428Y-408431006D01*
X126866779Y-408645024D01*
X126866778Y-408645025D01*
X126738082Y-408837633D01*
X126574275Y-409001440D01*
X126445870Y-409087237D01*
X126381666Y-409130137D01*
X126167648Y-409218786D01*
X126016181Y-409248915D01*
X125940448Y-409263979D01*
X125708794Y-409263979D01*
X125633061Y-409248915D01*
X125481594Y-409218786D01*
X125267576Y-409130137D01*
X125203372Y-409087237D01*
X125074967Y-409001440D01*
X124911160Y-408837633D01*
X124782464Y-408645025D01*
X124782463Y-408645024D01*
X124693814Y-408431006D01*
X124648621Y-408203805D01*
X124648621Y-407972153D01*
X124693814Y-407744952D01*
X124782463Y-407530934D01*
X124825363Y-407466730D01*
X124911160Y-407338325D01*
X125074967Y-407174518D01*
X125267575Y-407045822D01*
X125267576Y-407045821D01*
X125481594Y-406957172D01*
X125633061Y-406927043D01*
X125708794Y-406911979D01*
X125940448Y-406911979D01*
X126016181Y-406927043D01*
X126016181Y-406927043D01*
G37*
G36*
X109918604Y-406078347D02*
G01*
X109955144Y-406089432D01*
X109988821Y-406107433D01*
X110018341Y-406131659D01*
X110042567Y-406161179D01*
X110060568Y-406194856D01*
X110071653Y-406231396D01*
X110076000Y-406275538D01*
X110076000Y-407724462D01*
X110071653Y-407768604D01*
X110060568Y-407805144D01*
X110042567Y-407838821D01*
X110018341Y-407868341D01*
X109988821Y-407892567D01*
X109955144Y-407910568D01*
X109918604Y-407921653D01*
X109874462Y-407926000D01*
X108925538Y-407926000D01*
X108881396Y-407921653D01*
X108844856Y-407910568D01*
X108811179Y-407892567D01*
X108781659Y-407868341D01*
X108757433Y-407838821D01*
X108739432Y-407805144D01*
X108728347Y-407768604D01*
X108724000Y-407724462D01*
X108724000Y-406275538D01*
X108728347Y-406231396D01*
X108739432Y-406194856D01*
X108757433Y-406161179D01*
X108781659Y-406131659D01*
X108811179Y-406107433D01*
X108844856Y-406089432D01*
X108881396Y-406078347D01*
X108925538Y-406074000D01*
X109874462Y-406074000D01*
X109918604Y-406078347D01*
X109918604Y-406078347D01*
G37*
G36*
X112718604Y-406078347D02*
G01*
X112755144Y-406089432D01*
X112788821Y-406107433D01*
X112818341Y-406131659D01*
X112842567Y-406161179D01*
X112860568Y-406194856D01*
X112871653Y-406231396D01*
X112876000Y-406275538D01*
X112876000Y-407724462D01*
X112871653Y-407768604D01*
X112860568Y-407805144D01*
X112842567Y-407838821D01*
X112818341Y-407868341D01*
X112788821Y-407892567D01*
X112755144Y-407910568D01*
X112718604Y-407921653D01*
X112674462Y-407926000D01*
X111725538Y-407926000D01*
X111681396Y-407921653D01*
X111644856Y-407910568D01*
X111611179Y-407892567D01*
X111581659Y-407868341D01*
X111557433Y-407838821D01*
X111539432Y-407805144D01*
X111528347Y-407768604D01*
X111524000Y-407724462D01*
X111524000Y-406275538D01*
X111528347Y-406231396D01*
X111539432Y-406194856D01*
X111557433Y-406161179D01*
X111581659Y-406131659D01*
X111611179Y-406107433D01*
X111644856Y-406089432D01*
X111681396Y-406078347D01*
X111725538Y-406074000D01*
X112674462Y-406074000D01*
X112718604Y-406078347D01*
X112718604Y-406078347D01*
G37*
G36*
X120835375Y-403441754D02*
G01*
X120985200Y-403471556D01*
X121267464Y-403588473D01*
X121521495Y-403758211D01*
X121737531Y-403974247D01*
X121907269Y-404228278D01*
X122024186Y-404510542D01*
X122083790Y-404810192D01*
X122083790Y-405115712D01*
X122024186Y-405415362D01*
X121907269Y-405697626D01*
X121737531Y-405951657D01*
X121521495Y-406167693D01*
X121267464Y-406337431D01*
X120985200Y-406454348D01*
X120835375Y-406484150D01*
X120685551Y-406513952D01*
X120380029Y-406513952D01*
X120230205Y-406484150D01*
X120080380Y-406454348D01*
X119798116Y-406337431D01*
X119544085Y-406167693D01*
X119328049Y-405951657D01*
X119158311Y-405697626D01*
X119041394Y-405415362D01*
X118981790Y-405115712D01*
X118981790Y-404810192D01*
X119041394Y-404510542D01*
X119158311Y-404228278D01*
X119328049Y-403974247D01*
X119544085Y-403758211D01*
X119798116Y-403588473D01*
X120080380Y-403471556D01*
X120230205Y-403441754D01*
X120380029Y-403411952D01*
X120685551Y-403411952D01*
X120835375Y-403441754D01*
X120835375Y-403441754D01*
G37*
G36*
X125158790Y-406313952D02*
G01*
X122456790Y-406313952D01*
X122456790Y-403611952D01*
X125158790Y-403611952D01*
X125158790Y-406313952D01*
X125158790Y-406313952D01*
G37*
G36*
X115835375Y-401241754D02*
G01*
X115985200Y-401271556D01*
X116267464Y-401388473D01*
X116521495Y-401558211D01*
X116737531Y-401774247D01*
X116907269Y-402028278D01*
X117024186Y-402310542D01*
X117083790Y-402610192D01*
X117083790Y-402915712D01*
X117024186Y-403215362D01*
X116907269Y-403497626D01*
X116737531Y-403751657D01*
X116521495Y-403967693D01*
X116267464Y-404137431D01*
X115985200Y-404254348D01*
X115835375Y-404284150D01*
X115685551Y-404313952D01*
X115380029Y-404313952D01*
X115230205Y-404284150D01*
X115080380Y-404254348D01*
X114798116Y-404137431D01*
X114544085Y-403967693D01*
X114328049Y-403751657D01*
X114158311Y-403497626D01*
X114041394Y-403215362D01*
X113981790Y-402915712D01*
X113981790Y-402610192D01*
X114041394Y-402310542D01*
X114158311Y-402028278D01*
X114328049Y-401774247D01*
X114544085Y-401558211D01*
X114798116Y-401388473D01*
X115080380Y-401271556D01*
X115230205Y-401241754D01*
X115380029Y-401211952D01*
X115685551Y-401211952D01*
X115835375Y-401241754D01*
X115835375Y-401241754D01*
G37*
G36*
X113608790Y-404113952D02*
G01*
X110906790Y-404113952D01*
X110906790Y-401411952D01*
X113608790Y-401411952D01*
X113608790Y-404113952D01*
X113608790Y-404113952D01*
G37*
G36*
X102547766Y-400315299D02*
G01*
X102869066Y-400448386D01*
X102869068Y-400448387D01*
X103158230Y-400641599D01*
X103404143Y-400887512D01*
X103553508Y-401111052D01*
X103597356Y-401176676D01*
X103730443Y-401497976D01*
X103798290Y-401839064D01*
X103798290Y-402186840D01*
X103730443Y-402527928D01*
X103653574Y-402713506D01*
X103597355Y-402849230D01*
X103404143Y-403138392D01*
X103158230Y-403384305D01*
X102869068Y-403577517D01*
X102869067Y-403577518D01*
X102869066Y-403577518D01*
X102547766Y-403710605D01*
X102206678Y-403778452D01*
X101858902Y-403778452D01*
X101517814Y-403710605D01*
X101196514Y-403577518D01*
X101196513Y-403577518D01*
X101196512Y-403577517D01*
X100907350Y-403384305D01*
X100661437Y-403138392D01*
X100468225Y-402849230D01*
X100412006Y-402713506D01*
X100335137Y-402527928D01*
X100267290Y-402186840D01*
X100267290Y-401839064D01*
X100335137Y-401497976D01*
X100468224Y-401176676D01*
X100512073Y-401111052D01*
X100661437Y-400887512D01*
X100907350Y-400641599D01*
X101196512Y-400448387D01*
X101196514Y-400448386D01*
X101517814Y-400315299D01*
X101858902Y-400247452D01*
X102206678Y-400247452D01*
X102547766Y-400315299D01*
X102547766Y-400315299D01*
G37*
G36*
X96708742Y-401128382D02*
G01*
X96795865Y-401145711D01*
X96905288Y-401191036D01*
X96960001Y-401213699D01*
X97046590Y-401271556D01*
X97107718Y-401312400D01*
X97233342Y-401438024D01*
X97233344Y-401438027D01*
X97332043Y-401585741D01*
X97332043Y-401585742D01*
X97400031Y-401749877D01*
X97434690Y-401924123D01*
X97434690Y-402101781D01*
X97400031Y-402276027D01*
X97354706Y-402385450D01*
X97332043Y-402440163D01*
X97273400Y-402527929D01*
X97233342Y-402587880D01*
X97107718Y-402713504D01*
X97107715Y-402713506D01*
X96960001Y-402812205D01*
X96905288Y-402834868D01*
X96795865Y-402880193D01*
X96708742Y-402897522D01*
X96621621Y-402914852D01*
X96443959Y-402914852D01*
X96356838Y-402897522D01*
X96269715Y-402880193D01*
X96160292Y-402834868D01*
X96105579Y-402812205D01*
X95957865Y-402713506D01*
X95957862Y-402713504D01*
X95832238Y-402587880D01*
X95792180Y-402527929D01*
X95733537Y-402440163D01*
X95710874Y-402385450D01*
X95665549Y-402276027D01*
X95630890Y-402101781D01*
X95630890Y-401924123D01*
X95665549Y-401749877D01*
X95733537Y-401585742D01*
X95733537Y-401585741D01*
X95832236Y-401438027D01*
X95832238Y-401438024D01*
X95957862Y-401312400D01*
X96018990Y-401271556D01*
X96105579Y-401213699D01*
X96160292Y-401191036D01*
X96269715Y-401145711D01*
X96356838Y-401128382D01*
X96443959Y-401111052D01*
X96621621Y-401111052D01*
X96708742Y-401128382D01*
X96708742Y-401128382D01*
G37*
G36*
X107708742Y-401128382D02*
G01*
X107795865Y-401145711D01*
X107905288Y-401191036D01*
X107960001Y-401213699D01*
X108046590Y-401271556D01*
X108107718Y-401312400D01*
X108233342Y-401438024D01*
X108233344Y-401438027D01*
X108332043Y-401585741D01*
X108332043Y-401585742D01*
X108400031Y-401749877D01*
X108434690Y-401924123D01*
X108434690Y-402101781D01*
X108400031Y-402276027D01*
X108354706Y-402385450D01*
X108332043Y-402440163D01*
X108273400Y-402527929D01*
X108233342Y-402587880D01*
X108107718Y-402713504D01*
X108107715Y-402713506D01*
X107960001Y-402812205D01*
X107905288Y-402834868D01*
X107795865Y-402880193D01*
X107708742Y-402897522D01*
X107621621Y-402914852D01*
X107443959Y-402914852D01*
X107356838Y-402897522D01*
X107269715Y-402880193D01*
X107160292Y-402834868D01*
X107105579Y-402812205D01*
X106957865Y-402713506D01*
X106957862Y-402713504D01*
X106832238Y-402587880D01*
X106792180Y-402527929D01*
X106733537Y-402440163D01*
X106710874Y-402385450D01*
X106665549Y-402276027D01*
X106630890Y-402101781D01*
X106630890Y-401924123D01*
X106665549Y-401749877D01*
X106733537Y-401585742D01*
X106733537Y-401585741D01*
X106832236Y-401438027D01*
X106832238Y-401438024D01*
X106957862Y-401312400D01*
X107018990Y-401271556D01*
X107105579Y-401213699D01*
X107160292Y-401191036D01*
X107269715Y-401145711D01*
X107356838Y-401128382D01*
X107443959Y-401111052D01*
X107621621Y-401111052D01*
X107708742Y-401128382D01*
X107708742Y-401128382D01*
G37*
G36*
X129777095Y-401219305D02*
G01*
X127975095Y-401219305D01*
X127975095Y-399417305D01*
X129777095Y-399417305D01*
X129777095Y-401219305D01*
X129777095Y-401219305D01*
G37*
G36*
X121047766Y-397315299D02*
G01*
X121329113Y-397431837D01*
X121369068Y-397448387D01*
X121658230Y-397641599D01*
X121904143Y-397887512D01*
X122062675Y-398124771D01*
X122097356Y-398176676D01*
X122230443Y-398497976D01*
X122298290Y-398839064D01*
X122298290Y-399186840D01*
X122230443Y-399527928D01*
X122112691Y-399812205D01*
X122097355Y-399849230D01*
X121904143Y-400138392D01*
X121658230Y-400384305D01*
X121369068Y-400577517D01*
X121369067Y-400577518D01*
X121369066Y-400577518D01*
X121047766Y-400710605D01*
X120706678Y-400778452D01*
X120358902Y-400778452D01*
X120017814Y-400710605D01*
X119696514Y-400577518D01*
X119696513Y-400577518D01*
X119696512Y-400577517D01*
X119407350Y-400384305D01*
X119161437Y-400138392D01*
X118968225Y-399849230D01*
X118952889Y-399812205D01*
X118835137Y-399527928D01*
X118767290Y-399186840D01*
X118767290Y-398839064D01*
X118835137Y-398497976D01*
X118968224Y-398176676D01*
X119002906Y-398124771D01*
X119161437Y-397887512D01*
X119407350Y-397641599D01*
X119696512Y-397448387D01*
X119736467Y-397431837D01*
X120017814Y-397315299D01*
X120358902Y-397247452D01*
X120706678Y-397247452D01*
X121047766Y-397315299D01*
X121047766Y-397315299D01*
G37*
G36*
X126208742Y-398128382D02*
G01*
X126295865Y-398145711D01*
X126405288Y-398191036D01*
X126460001Y-398213699D01*
X126561164Y-398281294D01*
X126607718Y-398312400D01*
X126733342Y-398438024D01*
X126733344Y-398438027D01*
X126832043Y-398585741D01*
X126844058Y-398614748D01*
X126900031Y-398749877D01*
X126934690Y-398924123D01*
X126934690Y-399101781D01*
X126900031Y-399276027D01*
X126854706Y-399385450D01*
X126832043Y-399440163D01*
X126773400Y-399527929D01*
X126733342Y-399587880D01*
X126607718Y-399713504D01*
X126607715Y-399713506D01*
X126460001Y-399812205D01*
X126405288Y-399834868D01*
X126295865Y-399880193D01*
X126208742Y-399897522D01*
X126121621Y-399914852D01*
X125943959Y-399914852D01*
X125856838Y-399897522D01*
X125769715Y-399880193D01*
X125660292Y-399834868D01*
X125605579Y-399812205D01*
X125457865Y-399713506D01*
X125457862Y-399713504D01*
X125332238Y-399587880D01*
X125292180Y-399527929D01*
X125233537Y-399440163D01*
X125210874Y-399385450D01*
X125165549Y-399276027D01*
X125130890Y-399101781D01*
X125130890Y-398924123D01*
X125165549Y-398749877D01*
X125221522Y-398614748D01*
X125233537Y-398585741D01*
X125332236Y-398438027D01*
X125332238Y-398438024D01*
X125457862Y-398312400D01*
X125504416Y-398281294D01*
X125605579Y-398213699D01*
X125660292Y-398191036D01*
X125769715Y-398145711D01*
X125856838Y-398128382D01*
X125943959Y-398111052D01*
X126121621Y-398111052D01*
X126208742Y-398128382D01*
X126208742Y-398128382D01*
G37*
G36*
X115208742Y-398128382D02*
G01*
X115295865Y-398145711D01*
X115405288Y-398191036D01*
X115460001Y-398213699D01*
X115561164Y-398281294D01*
X115607718Y-398312400D01*
X115733342Y-398438024D01*
X115733344Y-398438027D01*
X115832043Y-398585741D01*
X115844058Y-398614748D01*
X115900031Y-398749877D01*
X115934690Y-398924123D01*
X115934690Y-399101781D01*
X115900031Y-399276027D01*
X115854706Y-399385450D01*
X115832043Y-399440163D01*
X115773400Y-399527929D01*
X115733342Y-399587880D01*
X115607718Y-399713504D01*
X115607715Y-399713506D01*
X115460001Y-399812205D01*
X115405288Y-399834868D01*
X115295865Y-399880193D01*
X115208742Y-399897522D01*
X115121621Y-399914852D01*
X114943959Y-399914852D01*
X114856838Y-399897522D01*
X114769715Y-399880193D01*
X114660292Y-399834868D01*
X114605579Y-399812205D01*
X114457865Y-399713506D01*
X114457862Y-399713504D01*
X114332238Y-399587880D01*
X114292180Y-399527929D01*
X114233537Y-399440163D01*
X114210874Y-399385450D01*
X114165549Y-399276027D01*
X114130890Y-399101781D01*
X114130890Y-398924123D01*
X114165549Y-398749877D01*
X114221522Y-398614748D01*
X114233537Y-398585741D01*
X114332236Y-398438027D01*
X114332238Y-398438024D01*
X114457862Y-398312400D01*
X114504416Y-398281294D01*
X114605579Y-398213699D01*
X114660292Y-398191036D01*
X114769715Y-398145711D01*
X114856838Y-398128382D01*
X114943959Y-398111052D01*
X115121621Y-398111052D01*
X115208742Y-398128382D01*
X115208742Y-398128382D01*
G37*
G36*
X107335375Y-396741754D02*
G01*
X107485200Y-396771556D01*
X107767464Y-396888473D01*
X108021495Y-397058211D01*
X108237531Y-397274247D01*
X108407269Y-397528278D01*
X108510833Y-397778305D01*
X108524186Y-397810543D01*
X108583790Y-398110191D01*
X108583790Y-398415713D01*
X108583237Y-398418491D01*
X108524186Y-398715362D01*
X108407269Y-398997626D01*
X108237531Y-399251657D01*
X108021495Y-399467693D01*
X107767464Y-399637431D01*
X107485200Y-399754348D01*
X107335375Y-399784150D01*
X107185551Y-399813952D01*
X106880029Y-399813952D01*
X106730205Y-399784150D01*
X106580380Y-399754348D01*
X106298116Y-399637431D01*
X106044085Y-399467693D01*
X105828049Y-399251657D01*
X105658311Y-398997626D01*
X105541394Y-398715362D01*
X105482343Y-398418491D01*
X105481790Y-398415713D01*
X105481790Y-398110191D01*
X105541394Y-397810543D01*
X105554747Y-397778305D01*
X105658311Y-397528278D01*
X105828049Y-397274247D01*
X106044085Y-397058211D01*
X106298116Y-396888473D01*
X106580380Y-396771556D01*
X106730205Y-396741754D01*
X106880029Y-396711952D01*
X107185551Y-396711952D01*
X107335375Y-396741754D01*
X107335375Y-396741754D01*
G37*
G36*
X111658790Y-399613952D02*
G01*
X108956790Y-399613952D01*
X108956790Y-396911952D01*
X111658790Y-396911952D01*
X111658790Y-399613952D01*
X111658790Y-399613952D01*
G37*
G36*
X128986538Y-396883824D02*
G01*
X129052722Y-396890342D01*
X129222561Y-396941862D01*
X129379086Y-397025527D01*
X129410924Y-397051656D01*
X129516281Y-397138119D01*
X129599543Y-397239576D01*
X129628873Y-397275314D01*
X129712538Y-397431839D01*
X129764058Y-397601678D01*
X129781454Y-397778305D01*
X129764058Y-397954932D01*
X129712538Y-398124771D01*
X129628873Y-398281296D01*
X129603348Y-398312398D01*
X129516281Y-398418491D01*
X129419428Y-398497975D01*
X129379086Y-398531083D01*
X129222561Y-398614748D01*
X129052722Y-398666268D01*
X128986538Y-398672786D01*
X128920355Y-398679305D01*
X128831835Y-398679305D01*
X128765652Y-398672786D01*
X128699468Y-398666268D01*
X128529629Y-398614748D01*
X128373104Y-398531083D01*
X128332762Y-398497975D01*
X128235909Y-398418491D01*
X128148842Y-398312398D01*
X128123317Y-398281296D01*
X128039652Y-398124771D01*
X127988132Y-397954932D01*
X127970736Y-397778305D01*
X127988132Y-397601678D01*
X128039652Y-397431839D01*
X128123317Y-397275314D01*
X128152647Y-397239576D01*
X128235909Y-397138119D01*
X128341266Y-397051656D01*
X128373104Y-397025527D01*
X128529629Y-396941862D01*
X128699468Y-396890342D01*
X128765652Y-396883824D01*
X128831835Y-396877305D01*
X128920355Y-396877305D01*
X128986538Y-396883824D01*
X128986538Y-396883824D01*
G37*
G36*
X102321530Y-394539000D02*
G01*
X102485200Y-394571556D01*
X102767464Y-394688473D01*
X103021495Y-394858211D01*
X103237531Y-395074247D01*
X103407269Y-395328278D01*
X103524186Y-395610542D01*
X103583790Y-395910192D01*
X103583790Y-396215712D01*
X103524186Y-396515362D01*
X103407269Y-396797626D01*
X103237531Y-397051657D01*
X103021495Y-397267693D01*
X102767464Y-397437431D01*
X102485200Y-397554348D01*
X102335375Y-397584150D01*
X102185551Y-397613952D01*
X101880029Y-397613952D01*
X101730205Y-397584150D01*
X101580380Y-397554348D01*
X101298116Y-397437431D01*
X101044085Y-397267693D01*
X100828049Y-397051657D01*
X100658311Y-396797626D01*
X100541394Y-396515362D01*
X100481790Y-396215712D01*
X100481790Y-395910192D01*
X100541394Y-395610542D01*
X100658311Y-395328278D01*
X100828049Y-395074247D01*
X101044085Y-394858211D01*
X101298116Y-394688473D01*
X101580380Y-394571556D01*
X101744050Y-394539000D01*
X101880029Y-394511952D01*
X102185551Y-394511952D01*
X102321530Y-394539000D01*
X102321530Y-394539000D01*
G37*
G36*
X100108790Y-397413952D02*
G01*
X97406790Y-397413952D01*
X97406790Y-394711952D01*
X100108790Y-394711952D01*
X100108790Y-397413952D01*
X100108790Y-397413952D01*
G37*
G36*
X113132383Y-394552489D02*
G01*
X113132386Y-394552490D01*
X113132385Y-394552490D01*
X113196258Y-394578946D01*
X113253748Y-394617360D01*
X113302640Y-394666252D01*
X113341054Y-394723742D01*
X113362624Y-394775818D01*
X113367511Y-394787617D01*
X113381000Y-394855430D01*
X113381000Y-394924570D01*
X113367511Y-394992383D01*
X113367510Y-394992385D01*
X113341054Y-395056258D01*
X113296246Y-395123317D01*
X113295230Y-395124555D01*
X113283679Y-395146166D01*
X113276566Y-395169615D01*
X113274164Y-395194001D01*
X113276566Y-395218387D01*
X113283679Y-395241836D01*
X113295230Y-395263447D01*
X113310775Y-395282389D01*
X113329717Y-395297934D01*
X113351328Y-395309485D01*
X113374777Y-395316598D01*
X113399163Y-395319000D01*
X118440837Y-395319000D01*
X118465223Y-395316598D01*
X118488672Y-395309485D01*
X118510283Y-395297934D01*
X118529225Y-395282389D01*
X118544770Y-395263447D01*
X118556321Y-395241836D01*
X118563434Y-395218387D01*
X118565836Y-395194001D01*
X118563434Y-395169615D01*
X118556321Y-395146166D01*
X118544770Y-395124555D01*
X118543754Y-395123317D01*
X118498946Y-395056258D01*
X118472490Y-394992385D01*
X118472489Y-394992383D01*
X118459000Y-394924570D01*
X118459000Y-394855430D01*
X118472489Y-394787617D01*
X118477376Y-394775818D01*
X118498946Y-394723742D01*
X118537360Y-394666252D01*
X118586252Y-394617360D01*
X118643742Y-394578946D01*
X118707615Y-394552490D01*
X118707614Y-394552490D01*
X118707617Y-394552489D01*
X118775430Y-394539000D01*
X118844570Y-394539000D01*
X118912383Y-394552489D01*
X118912386Y-394552490D01*
X118912385Y-394552490D01*
X118976258Y-394578946D01*
X119033748Y-394617360D01*
X119082640Y-394666252D01*
X119121054Y-394723742D01*
X119142624Y-394775818D01*
X119147511Y-394787617D01*
X119161000Y-394855430D01*
X119161000Y-394924570D01*
X119147511Y-394992383D01*
X119147510Y-394992385D01*
X119121054Y-395056258D01*
X119076246Y-395123317D01*
X119075230Y-395124555D01*
X119063679Y-395146166D01*
X119056566Y-395169615D01*
X119054164Y-395194001D01*
X119056566Y-395218387D01*
X119063679Y-395241836D01*
X119075230Y-395263447D01*
X119090775Y-395282389D01*
X119109717Y-395297934D01*
X119131328Y-395309485D01*
X119154777Y-395316598D01*
X119179163Y-395319000D01*
X119471000Y-395319000D01*
X119471000Y-396581000D01*
X112369000Y-396581000D01*
X112369000Y-395319000D01*
X112660837Y-395319000D01*
X112685223Y-395316598D01*
X112708672Y-395309485D01*
X112730283Y-395297934D01*
X112749225Y-395282389D01*
X112764770Y-395263447D01*
X112776321Y-395241836D01*
X112783434Y-395218387D01*
X112785836Y-395194001D01*
X112783434Y-395169615D01*
X112776321Y-395146166D01*
X112764770Y-395124555D01*
X112763754Y-395123317D01*
X112718946Y-395056258D01*
X112692490Y-394992385D01*
X112692489Y-394992383D01*
X112679000Y-394924570D01*
X112679000Y-394855430D01*
X112692489Y-394787617D01*
X112697376Y-394775818D01*
X112718946Y-394723742D01*
X112757360Y-394666252D01*
X112806252Y-394617360D01*
X112863742Y-394578946D01*
X112927615Y-394552490D01*
X112927614Y-394552490D01*
X112927617Y-394552489D01*
X112995430Y-394539000D01*
X113064570Y-394539000D01*
X113132383Y-394552489D01*
X113132383Y-394552489D01*
G37*
G36*
X120338213Y-394326249D02*
G01*
X120432652Y-394354897D01*
X120519687Y-394401418D01*
X120595975Y-394464025D01*
X120658582Y-394540313D01*
X120705103Y-394627348D01*
X120733751Y-394721787D01*
X120741000Y-394795388D01*
X120741000Y-395944612D01*
X120733751Y-396018213D01*
X120705103Y-396112652D01*
X120658582Y-396199687D01*
X120595975Y-396275975D01*
X120519687Y-396338582D01*
X120432651Y-396385103D01*
X120338212Y-396413751D01*
X120240000Y-396423424D01*
X120141787Y-396413751D01*
X120047348Y-396385103D01*
X119960313Y-396338582D01*
X119884025Y-396275975D01*
X119821418Y-396199687D01*
X119774897Y-396112651D01*
X119746249Y-396018212D01*
X119739000Y-395944611D01*
X119739001Y-394795388D01*
X119746250Y-394721787D01*
X119774898Y-394627348D01*
X119821419Y-394540313D01*
X119884026Y-394464025D01*
X119960314Y-394401418D01*
X120047349Y-394354897D01*
X120141788Y-394326249D01*
X120240000Y-394316576D01*
X120338213Y-394326249D01*
X120338213Y-394326249D01*
G37*
G36*
X111698213Y-394326249D02*
G01*
X111792652Y-394354897D01*
X111879687Y-394401418D01*
X111955975Y-394464025D01*
X112018582Y-394540313D01*
X112065103Y-394627348D01*
X112093751Y-394721787D01*
X112101000Y-394795388D01*
X112101000Y-395944612D01*
X112093751Y-396018213D01*
X112065103Y-396112652D01*
X112018582Y-396199687D01*
X111955975Y-396275975D01*
X111879687Y-396338582D01*
X111792651Y-396385103D01*
X111698212Y-396413751D01*
X111600000Y-396423424D01*
X111501787Y-396413751D01*
X111407348Y-396385103D01*
X111320313Y-396338582D01*
X111244025Y-396275975D01*
X111181418Y-396199687D01*
X111134897Y-396112651D01*
X111106249Y-396018212D01*
X111099000Y-395944611D01*
X111099001Y-394795388D01*
X111106250Y-394721787D01*
X111134898Y-394627348D01*
X111181419Y-394540313D01*
X111244026Y-394464025D01*
X111320314Y-394401418D01*
X111407349Y-394354897D01*
X111501788Y-394326249D01*
X111600000Y-394316576D01*
X111698213Y-394326249D01*
X111698213Y-394326249D01*
G37*
G36*
X128986537Y-394343823D02*
G01*
X129052722Y-394350342D01*
X129222561Y-394401862D01*
X129379086Y-394485527D01*
X129411285Y-394511952D01*
X129516281Y-394598119D01*
X129599543Y-394699576D01*
X129628873Y-394735314D01*
X129712538Y-394891839D01*
X129764058Y-395061678D01*
X129781454Y-395238305D01*
X129764058Y-395414932D01*
X129712538Y-395584771D01*
X129712537Y-395584773D01*
X129670706Y-395663033D01*
X129628873Y-395741296D01*
X129599543Y-395777034D01*
X129516281Y-395878491D01*
X129435723Y-395944602D01*
X129379086Y-395991083D01*
X129222561Y-396074748D01*
X129052722Y-396126268D01*
X128986538Y-396132786D01*
X128920355Y-396139305D01*
X128831835Y-396139305D01*
X128765652Y-396132786D01*
X128699468Y-396126268D01*
X128529629Y-396074748D01*
X128373104Y-395991083D01*
X128316467Y-395944602D01*
X128235909Y-395878491D01*
X128152647Y-395777034D01*
X128123317Y-395741296D01*
X128081485Y-395663034D01*
X128039653Y-395584773D01*
X128039652Y-395584771D01*
X127988132Y-395414932D01*
X127970736Y-395238305D01*
X127988132Y-395061678D01*
X128039652Y-394891839D01*
X128123317Y-394735314D01*
X128152647Y-394699576D01*
X128235909Y-394598119D01*
X128340905Y-394511952D01*
X128373104Y-394485527D01*
X128529629Y-394401862D01*
X128699468Y-394350342D01*
X128765653Y-394343823D01*
X128831835Y-394337305D01*
X128920355Y-394337305D01*
X128986537Y-394343823D01*
X128986537Y-394343823D01*
G37*
G36*
X124041938Y-393431716D02*
G01*
X124062557Y-393437971D01*
X124081553Y-393448124D01*
X124098208Y-393461792D01*
X124111876Y-393478447D01*
X124122029Y-393497443D01*
X124128284Y-393518062D01*
X124131000Y-393545640D01*
X124131000Y-394054360D01*
X124128284Y-394081938D01*
X124122029Y-394102557D01*
X124111876Y-394121553D01*
X124098208Y-394138208D01*
X124081553Y-394151876D01*
X124062557Y-394162029D01*
X124041938Y-394168284D01*
X124014360Y-394171000D01*
X123555640Y-394171000D01*
X123528062Y-394168284D01*
X123507443Y-394162029D01*
X123488447Y-394151876D01*
X123471792Y-394138208D01*
X123458124Y-394121553D01*
X123447971Y-394102557D01*
X123441716Y-394081938D01*
X123439000Y-394054360D01*
X123439000Y-393545640D01*
X123441716Y-393518062D01*
X123447971Y-393497443D01*
X123458124Y-393478447D01*
X123471792Y-393461792D01*
X123488447Y-393448124D01*
X123507443Y-393437971D01*
X123528062Y-393431716D01*
X123555640Y-393429000D01*
X124014360Y-393429000D01*
X124041938Y-393431716D01*
X124041938Y-393431716D01*
G37*
G36*
X123071938Y-393431716D02*
G01*
X123092557Y-393437971D01*
X123111553Y-393448124D01*
X123128208Y-393461792D01*
X123141876Y-393478447D01*
X123152029Y-393497443D01*
X123158284Y-393518062D01*
X123161000Y-393545640D01*
X123161000Y-394054360D01*
X123158284Y-394081938D01*
X123152029Y-394102557D01*
X123141876Y-394121553D01*
X123128208Y-394138208D01*
X123111553Y-394151876D01*
X123092557Y-394162029D01*
X123071938Y-394168284D01*
X123044360Y-394171000D01*
X122585640Y-394171000D01*
X122558062Y-394168284D01*
X122537443Y-394162029D01*
X122518447Y-394151876D01*
X122501792Y-394138208D01*
X122488124Y-394121553D01*
X122477971Y-394102557D01*
X122471716Y-394081938D01*
X122469000Y-394054360D01*
X122469000Y-393545640D01*
X122471716Y-393518062D01*
X122477971Y-393497443D01*
X122488124Y-393478447D01*
X122501792Y-393461792D01*
X122518447Y-393448124D01*
X122537443Y-393437971D01*
X122558062Y-393431716D01*
X122585640Y-393429000D01*
X123044360Y-393429000D01*
X123071938Y-393431716D01*
X123071938Y-393431716D01*
G37*
G36*
X128986537Y-391803823D02*
G01*
X129052722Y-391810342D01*
X129222561Y-391861862D01*
X129379086Y-391945527D01*
X129414824Y-391974857D01*
X129516281Y-392058119D01*
X129599543Y-392159576D01*
X129628873Y-392195314D01*
X129712538Y-392351839D01*
X129764058Y-392521678D01*
X129781454Y-392698305D01*
X129764058Y-392874932D01*
X129712538Y-393044771D01*
X129628873Y-393201296D01*
X129599543Y-393237034D01*
X129516281Y-393338491D01*
X129414824Y-393421753D01*
X129379086Y-393451083D01*
X129222561Y-393534748D01*
X129052722Y-393586268D01*
X128986537Y-393592787D01*
X128920355Y-393599305D01*
X128831835Y-393599305D01*
X128765653Y-393592787D01*
X128699468Y-393586268D01*
X128529629Y-393534748D01*
X128373104Y-393451083D01*
X128337366Y-393421753D01*
X128235909Y-393338491D01*
X128152647Y-393237034D01*
X128123317Y-393201296D01*
X128039652Y-393044771D01*
X127988132Y-392874932D01*
X127970736Y-392698305D01*
X127988132Y-392521678D01*
X128039652Y-392351839D01*
X128123317Y-392195314D01*
X128152647Y-392159576D01*
X128235909Y-392058119D01*
X128337366Y-391974857D01*
X128373104Y-391945527D01*
X128529629Y-391861862D01*
X128699468Y-391810342D01*
X128765653Y-391803823D01*
X128831835Y-391797305D01*
X128920355Y-391797305D01*
X128986537Y-391803823D01*
X128986537Y-391803823D01*
G37*
G36*
X98619721Y-391473894D02*
G01*
X98685905Y-391480412D01*
X98855744Y-391531932D01*
X99012269Y-391615597D01*
X99048007Y-391644927D01*
X99149464Y-391728189D01*
X99206185Y-391797305D01*
X99262056Y-391865384D01*
X99345721Y-392021909D01*
X99397241Y-392191748D01*
X99414637Y-392368375D01*
X99397241Y-392545002D01*
X99345721Y-392714841D01*
X99262056Y-392871366D01*
X99259131Y-392874930D01*
X99149464Y-393008561D01*
X99048007Y-393091823D01*
X99012269Y-393121153D01*
X98855744Y-393204818D01*
X98685905Y-393256338D01*
X98619720Y-393262857D01*
X98553538Y-393269375D01*
X98465018Y-393269375D01*
X98398836Y-393262857D01*
X98332651Y-393256338D01*
X98162812Y-393204818D01*
X98006287Y-393121153D01*
X97970549Y-393091823D01*
X97869092Y-393008561D01*
X97759425Y-392874930D01*
X97756500Y-392871366D01*
X97672835Y-392714841D01*
X97621315Y-392545002D01*
X97603919Y-392368375D01*
X97621315Y-392191748D01*
X97672835Y-392021909D01*
X97756500Y-391865384D01*
X97812371Y-391797305D01*
X97869092Y-391728189D01*
X97970549Y-391644927D01*
X98006287Y-391615597D01*
X98162812Y-391531932D01*
X98332651Y-391480412D01*
X98398835Y-391473894D01*
X98465018Y-391467375D01*
X98553538Y-391467375D01*
X98619721Y-391473894D01*
X98619721Y-391473894D01*
G37*
G36*
X107030278Y-393269375D02*
G01*
X105228278Y-393269375D01*
X105228278Y-391467375D01*
X107030278Y-391467375D01*
X107030278Y-393269375D01*
X107030278Y-393269375D01*
G37*
G36*
X103699721Y-391473894D02*
G01*
X103765905Y-391480412D01*
X103935744Y-391531932D01*
X104092269Y-391615597D01*
X104128007Y-391644927D01*
X104229464Y-391728189D01*
X104286185Y-391797305D01*
X104342056Y-391865384D01*
X104425721Y-392021909D01*
X104477241Y-392191748D01*
X104494637Y-392368375D01*
X104477241Y-392545002D01*
X104425721Y-392714841D01*
X104342056Y-392871366D01*
X104339131Y-392874930D01*
X104229464Y-393008561D01*
X104128007Y-393091823D01*
X104092269Y-393121153D01*
X103935744Y-393204818D01*
X103765905Y-393256338D01*
X103699720Y-393262857D01*
X103633538Y-393269375D01*
X103545018Y-393269375D01*
X103478836Y-393262857D01*
X103412651Y-393256338D01*
X103242812Y-393204818D01*
X103086287Y-393121153D01*
X103050549Y-393091823D01*
X102949092Y-393008561D01*
X102839425Y-392874930D01*
X102836500Y-392871366D01*
X102752835Y-392714841D01*
X102701315Y-392545002D01*
X102683919Y-392368375D01*
X102701315Y-392191748D01*
X102752835Y-392021909D01*
X102836500Y-391865384D01*
X102892371Y-391797305D01*
X102949092Y-391728189D01*
X103050549Y-391644927D01*
X103086287Y-391615597D01*
X103242812Y-391531932D01*
X103412651Y-391480412D01*
X103478835Y-391473894D01*
X103545018Y-391467375D01*
X103633538Y-391467375D01*
X103699721Y-391473894D01*
X103699721Y-391473894D01*
G37*
G36*
X101159721Y-391473894D02*
G01*
X101225905Y-391480412D01*
X101395744Y-391531932D01*
X101552269Y-391615597D01*
X101588007Y-391644927D01*
X101689464Y-391728189D01*
X101746185Y-391797305D01*
X101802056Y-391865384D01*
X101885721Y-392021909D01*
X101937241Y-392191748D01*
X101954637Y-392368375D01*
X101937241Y-392545002D01*
X101885721Y-392714841D01*
X101802056Y-392871366D01*
X101799131Y-392874930D01*
X101689464Y-393008561D01*
X101588007Y-393091823D01*
X101552269Y-393121153D01*
X101395744Y-393204818D01*
X101225905Y-393256338D01*
X101159720Y-393262857D01*
X101093538Y-393269375D01*
X101005018Y-393269375D01*
X100938836Y-393262857D01*
X100872651Y-393256338D01*
X100702812Y-393204818D01*
X100546287Y-393121153D01*
X100510549Y-393091823D01*
X100409092Y-393008561D01*
X100299425Y-392874930D01*
X100296500Y-392871366D01*
X100212835Y-392714841D01*
X100161315Y-392545002D01*
X100143919Y-392368375D01*
X100161315Y-392191748D01*
X100212835Y-392021909D01*
X100296500Y-391865384D01*
X100352371Y-391797305D01*
X100409092Y-391728189D01*
X100510549Y-391644927D01*
X100546287Y-391615597D01*
X100702812Y-391531932D01*
X100872651Y-391480412D01*
X100938835Y-391473894D01*
X101005018Y-391467375D01*
X101093538Y-391467375D01*
X101159721Y-391473894D01*
X101159721Y-391473894D01*
G37*
G36*
X124041938Y-392331716D02*
G01*
X124062557Y-392337971D01*
X124081553Y-392348124D01*
X124098208Y-392361792D01*
X124111876Y-392378447D01*
X124122029Y-392397443D01*
X124128284Y-392418062D01*
X124131000Y-392445640D01*
X124131000Y-392954360D01*
X124128284Y-392981938D01*
X124122029Y-393002557D01*
X124111876Y-393021553D01*
X124098208Y-393038208D01*
X124081553Y-393051876D01*
X124062557Y-393062029D01*
X124041938Y-393068284D01*
X124014360Y-393071000D01*
X123555640Y-393071000D01*
X123528062Y-393068284D01*
X123507443Y-393062029D01*
X123488447Y-393051876D01*
X123471792Y-393038208D01*
X123458124Y-393021553D01*
X123447971Y-393002557D01*
X123441716Y-392981938D01*
X123439000Y-392954360D01*
X123439000Y-392445640D01*
X123441716Y-392418062D01*
X123447971Y-392397443D01*
X123458124Y-392378447D01*
X123471792Y-392361792D01*
X123488447Y-392348124D01*
X123507443Y-392337971D01*
X123528062Y-392331716D01*
X123555640Y-392329000D01*
X124014360Y-392329000D01*
X124041938Y-392331716D01*
X124041938Y-392331716D01*
G37*
G36*
X123071938Y-392331716D02*
G01*
X123092557Y-392337971D01*
X123111553Y-392348124D01*
X123128208Y-392361792D01*
X123141876Y-392378447D01*
X123152029Y-392397443D01*
X123158284Y-392418062D01*
X123161000Y-392445640D01*
X123161000Y-392954360D01*
X123158284Y-392981938D01*
X123152029Y-393002557D01*
X123141876Y-393021553D01*
X123128208Y-393038208D01*
X123111553Y-393051876D01*
X123092557Y-393062029D01*
X123071938Y-393068284D01*
X123044360Y-393071000D01*
X122585640Y-393071000D01*
X122558062Y-393068284D01*
X122537443Y-393062029D01*
X122518447Y-393051876D01*
X122501792Y-393038208D01*
X122488124Y-393021553D01*
X122477971Y-393002557D01*
X122471716Y-392981938D01*
X122469000Y-392954360D01*
X122469000Y-392445640D01*
X122471716Y-392418062D01*
X122477971Y-392397443D01*
X122488124Y-392378447D01*
X122501792Y-392361792D01*
X122518447Y-392348124D01*
X122537443Y-392337971D01*
X122558062Y-392331716D01*
X122585640Y-392329000D01*
X123044360Y-392329000D01*
X123071938Y-392331716D01*
X123071938Y-392331716D01*
G37*
G36*
X120338213Y-390306249D02*
G01*
X120432652Y-390334897D01*
X120519687Y-390381418D01*
X120595975Y-390444025D01*
X120658582Y-390520313D01*
X120705103Y-390607348D01*
X120733751Y-390701787D01*
X120741000Y-390775388D01*
X120741000Y-391624612D01*
X120733751Y-391698213D01*
X120705103Y-391792652D01*
X120658582Y-391879687D01*
X120595975Y-391955975D01*
X120519687Y-392018582D01*
X120432651Y-392065103D01*
X120338212Y-392093751D01*
X120240000Y-392103424D01*
X120141787Y-392093751D01*
X120047348Y-392065103D01*
X119960313Y-392018582D01*
X119884025Y-391955975D01*
X119821418Y-391879687D01*
X119774897Y-391792651D01*
X119746249Y-391698212D01*
X119739000Y-391624611D01*
X119739000Y-390775398D01*
X119746250Y-390701786D01*
X119756846Y-390666856D01*
X119774898Y-390607348D01*
X119821419Y-390520313D01*
X119884026Y-390444025D01*
X119960314Y-390381418D01*
X120047349Y-390334897D01*
X120141788Y-390306249D01*
X120240000Y-390296576D01*
X120338213Y-390306249D01*
X120338213Y-390306249D01*
G37*
G36*
X111698213Y-390306249D02*
G01*
X111792652Y-390334897D01*
X111879687Y-390381418D01*
X111955975Y-390444025D01*
X112018582Y-390520313D01*
X112065103Y-390607348D01*
X112093751Y-390701787D01*
X112101000Y-390775388D01*
X112101000Y-391624612D01*
X112093751Y-391698213D01*
X112065103Y-391792652D01*
X112018582Y-391879687D01*
X111955975Y-391955975D01*
X111879687Y-392018582D01*
X111792651Y-392065103D01*
X111698212Y-392093751D01*
X111600000Y-392103424D01*
X111501787Y-392093751D01*
X111407348Y-392065103D01*
X111320313Y-392018582D01*
X111244025Y-391955975D01*
X111181418Y-391879687D01*
X111134897Y-391792651D01*
X111106249Y-391698212D01*
X111099000Y-391624611D01*
X111099000Y-390775398D01*
X111106250Y-390701786D01*
X111116846Y-390666856D01*
X111134898Y-390607348D01*
X111181419Y-390520313D01*
X111244026Y-390444025D01*
X111320314Y-390381418D01*
X111407349Y-390334897D01*
X111501788Y-390306249D01*
X111600000Y-390296576D01*
X111698213Y-390306249D01*
X111698213Y-390306249D01*
G37*
M02*
