G04 #@! TF.GenerationSoftware,KiCad,Pcbnew,(5.1.4)-1*
G04 #@! TF.CreationDate,2023-01-28T07:41:01-05:00*
G04 #@! TF.ProjectId,ThumbsUp,5468756d-6273-4557-902e-6b696361645f,rev?*
G04 #@! TF.SameCoordinates,Original*
G04 #@! TF.FileFunction,Paste,Bot*
G04 #@! TF.FilePolarity,Positive*
%FSLAX46Y46*%
G04 Gerber Fmt 4.6, Leading zero omitted, Abs format (unit mm)*
G04 Created by KiCad (PCBNEW (5.1.4)-1) date 2023-01-28 07:41:01*
%MOMM*%
%LPD*%
G04 APERTURE LIST*
%ADD10C,0.100000*%
%ADD11C,0.590000*%
%ADD12R,0.600000X1.160000*%
%ADD13R,0.300000X1.160000*%
%ADD14R,2.600000X2.600000*%
%ADD15R,2.100000X5.600000*%
%ADD16R,1.500000X2.000000*%
%ADD17R,3.800000X2.000000*%
%ADD18C,1.050000*%
%ADD19R,0.650000X1.650000*%
%ADD20R,3.200000X3.200000*%
%ADD21R,0.850000X0.200000*%
%ADD22R,0.200000X0.850000*%
%ADD23C,1.250000*%
G04 APERTURE END LIST*
D10*
G36*
X119546958Y-467980710D02*
G01*
X119561276Y-467982834D01*
X119575317Y-467986351D01*
X119588946Y-467991228D01*
X119602031Y-467997417D01*
X119614447Y-468004858D01*
X119626073Y-468013481D01*
X119636798Y-468023202D01*
X119646519Y-468033927D01*
X119655142Y-468045553D01*
X119662583Y-468057969D01*
X119668772Y-468071054D01*
X119673649Y-468084683D01*
X119677166Y-468098724D01*
X119679290Y-468113042D01*
X119680000Y-468127500D01*
X119680000Y-468472500D01*
X119679290Y-468486958D01*
X119677166Y-468501276D01*
X119673649Y-468515317D01*
X119668772Y-468528946D01*
X119662583Y-468542031D01*
X119655142Y-468554447D01*
X119646519Y-468566073D01*
X119636798Y-468576798D01*
X119626073Y-468586519D01*
X119614447Y-468595142D01*
X119602031Y-468602583D01*
X119588946Y-468608772D01*
X119575317Y-468613649D01*
X119561276Y-468617166D01*
X119546958Y-468619290D01*
X119532500Y-468620000D01*
X119237500Y-468620000D01*
X119223042Y-468619290D01*
X119208724Y-468617166D01*
X119194683Y-468613649D01*
X119181054Y-468608772D01*
X119167969Y-468602583D01*
X119155553Y-468595142D01*
X119143927Y-468586519D01*
X119133202Y-468576798D01*
X119123481Y-468566073D01*
X119114858Y-468554447D01*
X119107417Y-468542031D01*
X119101228Y-468528946D01*
X119096351Y-468515317D01*
X119092834Y-468501276D01*
X119090710Y-468486958D01*
X119090000Y-468472500D01*
X119090000Y-468127500D01*
X119090710Y-468113042D01*
X119092834Y-468098724D01*
X119096351Y-468084683D01*
X119101228Y-468071054D01*
X119107417Y-468057969D01*
X119114858Y-468045553D01*
X119123481Y-468033927D01*
X119133202Y-468023202D01*
X119143927Y-468013481D01*
X119155553Y-468004858D01*
X119167969Y-467997417D01*
X119181054Y-467991228D01*
X119194683Y-467986351D01*
X119208724Y-467982834D01*
X119223042Y-467980710D01*
X119237500Y-467980000D01*
X119532500Y-467980000D01*
X119546958Y-467980710D01*
X119546958Y-467980710D01*
G37*
D11*
X119385000Y-468300000D03*
D10*
G36*
X118576958Y-467980710D02*
G01*
X118591276Y-467982834D01*
X118605317Y-467986351D01*
X118618946Y-467991228D01*
X118632031Y-467997417D01*
X118644447Y-468004858D01*
X118656073Y-468013481D01*
X118666798Y-468023202D01*
X118676519Y-468033927D01*
X118685142Y-468045553D01*
X118692583Y-468057969D01*
X118698772Y-468071054D01*
X118703649Y-468084683D01*
X118707166Y-468098724D01*
X118709290Y-468113042D01*
X118710000Y-468127500D01*
X118710000Y-468472500D01*
X118709290Y-468486958D01*
X118707166Y-468501276D01*
X118703649Y-468515317D01*
X118698772Y-468528946D01*
X118692583Y-468542031D01*
X118685142Y-468554447D01*
X118676519Y-468566073D01*
X118666798Y-468576798D01*
X118656073Y-468586519D01*
X118644447Y-468595142D01*
X118632031Y-468602583D01*
X118618946Y-468608772D01*
X118605317Y-468613649D01*
X118591276Y-468617166D01*
X118576958Y-468619290D01*
X118562500Y-468620000D01*
X118267500Y-468620000D01*
X118253042Y-468619290D01*
X118238724Y-468617166D01*
X118224683Y-468613649D01*
X118211054Y-468608772D01*
X118197969Y-468602583D01*
X118185553Y-468595142D01*
X118173927Y-468586519D01*
X118163202Y-468576798D01*
X118153481Y-468566073D01*
X118144858Y-468554447D01*
X118137417Y-468542031D01*
X118131228Y-468528946D01*
X118126351Y-468515317D01*
X118122834Y-468501276D01*
X118120710Y-468486958D01*
X118120000Y-468472500D01*
X118120000Y-468127500D01*
X118120710Y-468113042D01*
X118122834Y-468098724D01*
X118126351Y-468084683D01*
X118131228Y-468071054D01*
X118137417Y-468057969D01*
X118144858Y-468045553D01*
X118153481Y-468033927D01*
X118163202Y-468023202D01*
X118173927Y-468013481D01*
X118185553Y-468004858D01*
X118197969Y-467997417D01*
X118211054Y-467991228D01*
X118224683Y-467986351D01*
X118238724Y-467982834D01*
X118253042Y-467980710D01*
X118267500Y-467980000D01*
X118562500Y-467980000D01*
X118576958Y-467980710D01*
X118576958Y-467980710D01*
G37*
D11*
X118415000Y-468300000D03*
D10*
G36*
X118561958Y-466480710D02*
G01*
X118576276Y-466482834D01*
X118590317Y-466486351D01*
X118603946Y-466491228D01*
X118617031Y-466497417D01*
X118629447Y-466504858D01*
X118641073Y-466513481D01*
X118651798Y-466523202D01*
X118661519Y-466533927D01*
X118670142Y-466545553D01*
X118677583Y-466557969D01*
X118683772Y-466571054D01*
X118688649Y-466584683D01*
X118692166Y-466598724D01*
X118694290Y-466613042D01*
X118695000Y-466627500D01*
X118695000Y-466972500D01*
X118694290Y-466986958D01*
X118692166Y-467001276D01*
X118688649Y-467015317D01*
X118683772Y-467028946D01*
X118677583Y-467042031D01*
X118670142Y-467054447D01*
X118661519Y-467066073D01*
X118651798Y-467076798D01*
X118641073Y-467086519D01*
X118629447Y-467095142D01*
X118617031Y-467102583D01*
X118603946Y-467108772D01*
X118590317Y-467113649D01*
X118576276Y-467117166D01*
X118561958Y-467119290D01*
X118547500Y-467120000D01*
X118252500Y-467120000D01*
X118238042Y-467119290D01*
X118223724Y-467117166D01*
X118209683Y-467113649D01*
X118196054Y-467108772D01*
X118182969Y-467102583D01*
X118170553Y-467095142D01*
X118158927Y-467086519D01*
X118148202Y-467076798D01*
X118138481Y-467066073D01*
X118129858Y-467054447D01*
X118122417Y-467042031D01*
X118116228Y-467028946D01*
X118111351Y-467015317D01*
X118107834Y-467001276D01*
X118105710Y-466986958D01*
X118105000Y-466972500D01*
X118105000Y-466627500D01*
X118105710Y-466613042D01*
X118107834Y-466598724D01*
X118111351Y-466584683D01*
X118116228Y-466571054D01*
X118122417Y-466557969D01*
X118129858Y-466545553D01*
X118138481Y-466533927D01*
X118148202Y-466523202D01*
X118158927Y-466513481D01*
X118170553Y-466504858D01*
X118182969Y-466497417D01*
X118196054Y-466491228D01*
X118209683Y-466486351D01*
X118223724Y-466482834D01*
X118238042Y-466480710D01*
X118252500Y-466480000D01*
X118547500Y-466480000D01*
X118561958Y-466480710D01*
X118561958Y-466480710D01*
G37*
D11*
X118400000Y-466800000D03*
D10*
G36*
X119531958Y-466480710D02*
G01*
X119546276Y-466482834D01*
X119560317Y-466486351D01*
X119573946Y-466491228D01*
X119587031Y-466497417D01*
X119599447Y-466504858D01*
X119611073Y-466513481D01*
X119621798Y-466523202D01*
X119631519Y-466533927D01*
X119640142Y-466545553D01*
X119647583Y-466557969D01*
X119653772Y-466571054D01*
X119658649Y-466584683D01*
X119662166Y-466598724D01*
X119664290Y-466613042D01*
X119665000Y-466627500D01*
X119665000Y-466972500D01*
X119664290Y-466986958D01*
X119662166Y-467001276D01*
X119658649Y-467015317D01*
X119653772Y-467028946D01*
X119647583Y-467042031D01*
X119640142Y-467054447D01*
X119631519Y-467066073D01*
X119621798Y-467076798D01*
X119611073Y-467086519D01*
X119599447Y-467095142D01*
X119587031Y-467102583D01*
X119573946Y-467108772D01*
X119560317Y-467113649D01*
X119546276Y-467117166D01*
X119531958Y-467119290D01*
X119517500Y-467120000D01*
X119222500Y-467120000D01*
X119208042Y-467119290D01*
X119193724Y-467117166D01*
X119179683Y-467113649D01*
X119166054Y-467108772D01*
X119152969Y-467102583D01*
X119140553Y-467095142D01*
X119128927Y-467086519D01*
X119118202Y-467076798D01*
X119108481Y-467066073D01*
X119099858Y-467054447D01*
X119092417Y-467042031D01*
X119086228Y-467028946D01*
X119081351Y-467015317D01*
X119077834Y-467001276D01*
X119075710Y-466986958D01*
X119075000Y-466972500D01*
X119075000Y-466627500D01*
X119075710Y-466613042D01*
X119077834Y-466598724D01*
X119081351Y-466584683D01*
X119086228Y-466571054D01*
X119092417Y-466557969D01*
X119099858Y-466545553D01*
X119108481Y-466533927D01*
X119118202Y-466523202D01*
X119128927Y-466513481D01*
X119140553Y-466504858D01*
X119152969Y-466497417D01*
X119166054Y-466491228D01*
X119179683Y-466486351D01*
X119193724Y-466482834D01*
X119208042Y-466480710D01*
X119222500Y-466480000D01*
X119517500Y-466480000D01*
X119531958Y-466480710D01*
X119531958Y-466480710D01*
G37*
D11*
X119370000Y-466800000D03*
D10*
G36*
X110087958Y-445647710D02*
G01*
X110102276Y-445649834D01*
X110116317Y-445653351D01*
X110129946Y-445658228D01*
X110143031Y-445664417D01*
X110155447Y-445671858D01*
X110167073Y-445680481D01*
X110177798Y-445690202D01*
X110187519Y-445700927D01*
X110196142Y-445712553D01*
X110203583Y-445724969D01*
X110209772Y-445738054D01*
X110214649Y-445751683D01*
X110218166Y-445765724D01*
X110220290Y-445780042D01*
X110221000Y-445794500D01*
X110221000Y-446089500D01*
X110220290Y-446103958D01*
X110218166Y-446118276D01*
X110214649Y-446132317D01*
X110209772Y-446145946D01*
X110203583Y-446159031D01*
X110196142Y-446171447D01*
X110187519Y-446183073D01*
X110177798Y-446193798D01*
X110167073Y-446203519D01*
X110155447Y-446212142D01*
X110143031Y-446219583D01*
X110129946Y-446225772D01*
X110116317Y-446230649D01*
X110102276Y-446234166D01*
X110087958Y-446236290D01*
X110073500Y-446237000D01*
X109728500Y-446237000D01*
X109714042Y-446236290D01*
X109699724Y-446234166D01*
X109685683Y-446230649D01*
X109672054Y-446225772D01*
X109658969Y-446219583D01*
X109646553Y-446212142D01*
X109634927Y-446203519D01*
X109624202Y-446193798D01*
X109614481Y-446183073D01*
X109605858Y-446171447D01*
X109598417Y-446159031D01*
X109592228Y-446145946D01*
X109587351Y-446132317D01*
X109583834Y-446118276D01*
X109581710Y-446103958D01*
X109581000Y-446089500D01*
X109581000Y-445794500D01*
X109581710Y-445780042D01*
X109583834Y-445765724D01*
X109587351Y-445751683D01*
X109592228Y-445738054D01*
X109598417Y-445724969D01*
X109605858Y-445712553D01*
X109614481Y-445700927D01*
X109624202Y-445690202D01*
X109634927Y-445680481D01*
X109646553Y-445671858D01*
X109658969Y-445664417D01*
X109672054Y-445658228D01*
X109685683Y-445653351D01*
X109699724Y-445649834D01*
X109714042Y-445647710D01*
X109728500Y-445647000D01*
X110073500Y-445647000D01*
X110087958Y-445647710D01*
X110087958Y-445647710D01*
G37*
D11*
X109901000Y-445942000D03*
D10*
G36*
X110087958Y-446617710D02*
G01*
X110102276Y-446619834D01*
X110116317Y-446623351D01*
X110129946Y-446628228D01*
X110143031Y-446634417D01*
X110155447Y-446641858D01*
X110167073Y-446650481D01*
X110177798Y-446660202D01*
X110187519Y-446670927D01*
X110196142Y-446682553D01*
X110203583Y-446694969D01*
X110209772Y-446708054D01*
X110214649Y-446721683D01*
X110218166Y-446735724D01*
X110220290Y-446750042D01*
X110221000Y-446764500D01*
X110221000Y-447059500D01*
X110220290Y-447073958D01*
X110218166Y-447088276D01*
X110214649Y-447102317D01*
X110209772Y-447115946D01*
X110203583Y-447129031D01*
X110196142Y-447141447D01*
X110187519Y-447153073D01*
X110177798Y-447163798D01*
X110167073Y-447173519D01*
X110155447Y-447182142D01*
X110143031Y-447189583D01*
X110129946Y-447195772D01*
X110116317Y-447200649D01*
X110102276Y-447204166D01*
X110087958Y-447206290D01*
X110073500Y-447207000D01*
X109728500Y-447207000D01*
X109714042Y-447206290D01*
X109699724Y-447204166D01*
X109685683Y-447200649D01*
X109672054Y-447195772D01*
X109658969Y-447189583D01*
X109646553Y-447182142D01*
X109634927Y-447173519D01*
X109624202Y-447163798D01*
X109614481Y-447153073D01*
X109605858Y-447141447D01*
X109598417Y-447129031D01*
X109592228Y-447115946D01*
X109587351Y-447102317D01*
X109583834Y-447088276D01*
X109581710Y-447073958D01*
X109581000Y-447059500D01*
X109581000Y-446764500D01*
X109581710Y-446750042D01*
X109583834Y-446735724D01*
X109587351Y-446721683D01*
X109592228Y-446708054D01*
X109598417Y-446694969D01*
X109605858Y-446682553D01*
X109614481Y-446670927D01*
X109624202Y-446660202D01*
X109634927Y-446650481D01*
X109646553Y-446641858D01*
X109658969Y-446634417D01*
X109672054Y-446628228D01*
X109685683Y-446623351D01*
X109699724Y-446619834D01*
X109714042Y-446617710D01*
X109728500Y-446617000D01*
X110073500Y-446617000D01*
X110087958Y-446617710D01*
X110087958Y-446617710D01*
G37*
D11*
X109901000Y-446912000D03*
D10*
G36*
X109037958Y-445647710D02*
G01*
X109052276Y-445649834D01*
X109066317Y-445653351D01*
X109079946Y-445658228D01*
X109093031Y-445664417D01*
X109105447Y-445671858D01*
X109117073Y-445680481D01*
X109127798Y-445690202D01*
X109137519Y-445700927D01*
X109146142Y-445712553D01*
X109153583Y-445724969D01*
X109159772Y-445738054D01*
X109164649Y-445751683D01*
X109168166Y-445765724D01*
X109170290Y-445780042D01*
X109171000Y-445794500D01*
X109171000Y-446089500D01*
X109170290Y-446103958D01*
X109168166Y-446118276D01*
X109164649Y-446132317D01*
X109159772Y-446145946D01*
X109153583Y-446159031D01*
X109146142Y-446171447D01*
X109137519Y-446183073D01*
X109127798Y-446193798D01*
X109117073Y-446203519D01*
X109105447Y-446212142D01*
X109093031Y-446219583D01*
X109079946Y-446225772D01*
X109066317Y-446230649D01*
X109052276Y-446234166D01*
X109037958Y-446236290D01*
X109023500Y-446237000D01*
X108678500Y-446237000D01*
X108664042Y-446236290D01*
X108649724Y-446234166D01*
X108635683Y-446230649D01*
X108622054Y-446225772D01*
X108608969Y-446219583D01*
X108596553Y-446212142D01*
X108584927Y-446203519D01*
X108574202Y-446193798D01*
X108564481Y-446183073D01*
X108555858Y-446171447D01*
X108548417Y-446159031D01*
X108542228Y-446145946D01*
X108537351Y-446132317D01*
X108533834Y-446118276D01*
X108531710Y-446103958D01*
X108531000Y-446089500D01*
X108531000Y-445794500D01*
X108531710Y-445780042D01*
X108533834Y-445765724D01*
X108537351Y-445751683D01*
X108542228Y-445738054D01*
X108548417Y-445724969D01*
X108555858Y-445712553D01*
X108564481Y-445700927D01*
X108574202Y-445690202D01*
X108584927Y-445680481D01*
X108596553Y-445671858D01*
X108608969Y-445664417D01*
X108622054Y-445658228D01*
X108635683Y-445653351D01*
X108649724Y-445649834D01*
X108664042Y-445647710D01*
X108678500Y-445647000D01*
X109023500Y-445647000D01*
X109037958Y-445647710D01*
X109037958Y-445647710D01*
G37*
D11*
X108851000Y-445942000D03*
D10*
G36*
X109037958Y-446617710D02*
G01*
X109052276Y-446619834D01*
X109066317Y-446623351D01*
X109079946Y-446628228D01*
X109093031Y-446634417D01*
X109105447Y-446641858D01*
X109117073Y-446650481D01*
X109127798Y-446660202D01*
X109137519Y-446670927D01*
X109146142Y-446682553D01*
X109153583Y-446694969D01*
X109159772Y-446708054D01*
X109164649Y-446721683D01*
X109168166Y-446735724D01*
X109170290Y-446750042D01*
X109171000Y-446764500D01*
X109171000Y-447059500D01*
X109170290Y-447073958D01*
X109168166Y-447088276D01*
X109164649Y-447102317D01*
X109159772Y-447115946D01*
X109153583Y-447129031D01*
X109146142Y-447141447D01*
X109137519Y-447153073D01*
X109127798Y-447163798D01*
X109117073Y-447173519D01*
X109105447Y-447182142D01*
X109093031Y-447189583D01*
X109079946Y-447195772D01*
X109066317Y-447200649D01*
X109052276Y-447204166D01*
X109037958Y-447206290D01*
X109023500Y-447207000D01*
X108678500Y-447207000D01*
X108664042Y-447206290D01*
X108649724Y-447204166D01*
X108635683Y-447200649D01*
X108622054Y-447195772D01*
X108608969Y-447189583D01*
X108596553Y-447182142D01*
X108584927Y-447173519D01*
X108574202Y-447163798D01*
X108564481Y-447153073D01*
X108555858Y-447141447D01*
X108548417Y-447129031D01*
X108542228Y-447115946D01*
X108537351Y-447102317D01*
X108533834Y-447088276D01*
X108531710Y-447073958D01*
X108531000Y-447059500D01*
X108531000Y-446764500D01*
X108531710Y-446750042D01*
X108533834Y-446735724D01*
X108537351Y-446721683D01*
X108542228Y-446708054D01*
X108548417Y-446694969D01*
X108555858Y-446682553D01*
X108564481Y-446670927D01*
X108574202Y-446660202D01*
X108584927Y-446650481D01*
X108596553Y-446641858D01*
X108608969Y-446634417D01*
X108622054Y-446628228D01*
X108635683Y-446623351D01*
X108649724Y-446619834D01*
X108664042Y-446617710D01*
X108678500Y-446617000D01*
X109023500Y-446617000D01*
X109037958Y-446617710D01*
X109037958Y-446617710D01*
G37*
D11*
X108851000Y-446912000D03*
D10*
G36*
X122976958Y-393480710D02*
G01*
X122991276Y-393482834D01*
X123005317Y-393486351D01*
X123018946Y-393491228D01*
X123032031Y-393497417D01*
X123044447Y-393504858D01*
X123056073Y-393513481D01*
X123066798Y-393523202D01*
X123076519Y-393533927D01*
X123085142Y-393545553D01*
X123092583Y-393557969D01*
X123098772Y-393571054D01*
X123103649Y-393584683D01*
X123107166Y-393598724D01*
X123109290Y-393613042D01*
X123110000Y-393627500D01*
X123110000Y-393972500D01*
X123109290Y-393986958D01*
X123107166Y-394001276D01*
X123103649Y-394015317D01*
X123098772Y-394028946D01*
X123092583Y-394042031D01*
X123085142Y-394054447D01*
X123076519Y-394066073D01*
X123066798Y-394076798D01*
X123056073Y-394086519D01*
X123044447Y-394095142D01*
X123032031Y-394102583D01*
X123018946Y-394108772D01*
X123005317Y-394113649D01*
X122991276Y-394117166D01*
X122976958Y-394119290D01*
X122962500Y-394120000D01*
X122667500Y-394120000D01*
X122653042Y-394119290D01*
X122638724Y-394117166D01*
X122624683Y-394113649D01*
X122611054Y-394108772D01*
X122597969Y-394102583D01*
X122585553Y-394095142D01*
X122573927Y-394086519D01*
X122563202Y-394076798D01*
X122553481Y-394066073D01*
X122544858Y-394054447D01*
X122537417Y-394042031D01*
X122531228Y-394028946D01*
X122526351Y-394015317D01*
X122522834Y-394001276D01*
X122520710Y-393986958D01*
X122520000Y-393972500D01*
X122520000Y-393627500D01*
X122520710Y-393613042D01*
X122522834Y-393598724D01*
X122526351Y-393584683D01*
X122531228Y-393571054D01*
X122537417Y-393557969D01*
X122544858Y-393545553D01*
X122553481Y-393533927D01*
X122563202Y-393523202D01*
X122573927Y-393513481D01*
X122585553Y-393504858D01*
X122597969Y-393497417D01*
X122611054Y-393491228D01*
X122624683Y-393486351D01*
X122638724Y-393482834D01*
X122653042Y-393480710D01*
X122667500Y-393480000D01*
X122962500Y-393480000D01*
X122976958Y-393480710D01*
X122976958Y-393480710D01*
G37*
D11*
X122815000Y-393800000D03*
D10*
G36*
X123946958Y-393480710D02*
G01*
X123961276Y-393482834D01*
X123975317Y-393486351D01*
X123988946Y-393491228D01*
X124002031Y-393497417D01*
X124014447Y-393504858D01*
X124026073Y-393513481D01*
X124036798Y-393523202D01*
X124046519Y-393533927D01*
X124055142Y-393545553D01*
X124062583Y-393557969D01*
X124068772Y-393571054D01*
X124073649Y-393584683D01*
X124077166Y-393598724D01*
X124079290Y-393613042D01*
X124080000Y-393627500D01*
X124080000Y-393972500D01*
X124079290Y-393986958D01*
X124077166Y-394001276D01*
X124073649Y-394015317D01*
X124068772Y-394028946D01*
X124062583Y-394042031D01*
X124055142Y-394054447D01*
X124046519Y-394066073D01*
X124036798Y-394076798D01*
X124026073Y-394086519D01*
X124014447Y-394095142D01*
X124002031Y-394102583D01*
X123988946Y-394108772D01*
X123975317Y-394113649D01*
X123961276Y-394117166D01*
X123946958Y-394119290D01*
X123932500Y-394120000D01*
X123637500Y-394120000D01*
X123623042Y-394119290D01*
X123608724Y-394117166D01*
X123594683Y-394113649D01*
X123581054Y-394108772D01*
X123567969Y-394102583D01*
X123555553Y-394095142D01*
X123543927Y-394086519D01*
X123533202Y-394076798D01*
X123523481Y-394066073D01*
X123514858Y-394054447D01*
X123507417Y-394042031D01*
X123501228Y-394028946D01*
X123496351Y-394015317D01*
X123492834Y-394001276D01*
X123490710Y-393986958D01*
X123490000Y-393972500D01*
X123490000Y-393627500D01*
X123490710Y-393613042D01*
X123492834Y-393598724D01*
X123496351Y-393584683D01*
X123501228Y-393571054D01*
X123507417Y-393557969D01*
X123514858Y-393545553D01*
X123523481Y-393533927D01*
X123533202Y-393523202D01*
X123543927Y-393513481D01*
X123555553Y-393504858D01*
X123567969Y-393497417D01*
X123581054Y-393491228D01*
X123594683Y-393486351D01*
X123608724Y-393482834D01*
X123623042Y-393480710D01*
X123637500Y-393480000D01*
X123932500Y-393480000D01*
X123946958Y-393480710D01*
X123946958Y-393480710D01*
G37*
D11*
X123785000Y-393800000D03*
D10*
G36*
X123946958Y-392380710D02*
G01*
X123961276Y-392382834D01*
X123975317Y-392386351D01*
X123988946Y-392391228D01*
X124002031Y-392397417D01*
X124014447Y-392404858D01*
X124026073Y-392413481D01*
X124036798Y-392423202D01*
X124046519Y-392433927D01*
X124055142Y-392445553D01*
X124062583Y-392457969D01*
X124068772Y-392471054D01*
X124073649Y-392484683D01*
X124077166Y-392498724D01*
X124079290Y-392513042D01*
X124080000Y-392527500D01*
X124080000Y-392872500D01*
X124079290Y-392886958D01*
X124077166Y-392901276D01*
X124073649Y-392915317D01*
X124068772Y-392928946D01*
X124062583Y-392942031D01*
X124055142Y-392954447D01*
X124046519Y-392966073D01*
X124036798Y-392976798D01*
X124026073Y-392986519D01*
X124014447Y-392995142D01*
X124002031Y-393002583D01*
X123988946Y-393008772D01*
X123975317Y-393013649D01*
X123961276Y-393017166D01*
X123946958Y-393019290D01*
X123932500Y-393020000D01*
X123637500Y-393020000D01*
X123623042Y-393019290D01*
X123608724Y-393017166D01*
X123594683Y-393013649D01*
X123581054Y-393008772D01*
X123567969Y-393002583D01*
X123555553Y-392995142D01*
X123543927Y-392986519D01*
X123533202Y-392976798D01*
X123523481Y-392966073D01*
X123514858Y-392954447D01*
X123507417Y-392942031D01*
X123501228Y-392928946D01*
X123496351Y-392915317D01*
X123492834Y-392901276D01*
X123490710Y-392886958D01*
X123490000Y-392872500D01*
X123490000Y-392527500D01*
X123490710Y-392513042D01*
X123492834Y-392498724D01*
X123496351Y-392484683D01*
X123501228Y-392471054D01*
X123507417Y-392457969D01*
X123514858Y-392445553D01*
X123523481Y-392433927D01*
X123533202Y-392423202D01*
X123543927Y-392413481D01*
X123555553Y-392404858D01*
X123567969Y-392397417D01*
X123581054Y-392391228D01*
X123594683Y-392386351D01*
X123608724Y-392382834D01*
X123623042Y-392380710D01*
X123637500Y-392380000D01*
X123932500Y-392380000D01*
X123946958Y-392380710D01*
X123946958Y-392380710D01*
G37*
D11*
X123785000Y-392700000D03*
D10*
G36*
X122976958Y-392380710D02*
G01*
X122991276Y-392382834D01*
X123005317Y-392386351D01*
X123018946Y-392391228D01*
X123032031Y-392397417D01*
X123044447Y-392404858D01*
X123056073Y-392413481D01*
X123066798Y-392423202D01*
X123076519Y-392433927D01*
X123085142Y-392445553D01*
X123092583Y-392457969D01*
X123098772Y-392471054D01*
X123103649Y-392484683D01*
X123107166Y-392498724D01*
X123109290Y-392513042D01*
X123110000Y-392527500D01*
X123110000Y-392872500D01*
X123109290Y-392886958D01*
X123107166Y-392901276D01*
X123103649Y-392915317D01*
X123098772Y-392928946D01*
X123092583Y-392942031D01*
X123085142Y-392954447D01*
X123076519Y-392966073D01*
X123066798Y-392976798D01*
X123056073Y-392986519D01*
X123044447Y-392995142D01*
X123032031Y-393002583D01*
X123018946Y-393008772D01*
X123005317Y-393013649D01*
X122991276Y-393017166D01*
X122976958Y-393019290D01*
X122962500Y-393020000D01*
X122667500Y-393020000D01*
X122653042Y-393019290D01*
X122638724Y-393017166D01*
X122624683Y-393013649D01*
X122611054Y-393008772D01*
X122597969Y-393002583D01*
X122585553Y-392995142D01*
X122573927Y-392986519D01*
X122563202Y-392976798D01*
X122553481Y-392966073D01*
X122544858Y-392954447D01*
X122537417Y-392942031D01*
X122531228Y-392928946D01*
X122526351Y-392915317D01*
X122522834Y-392901276D01*
X122520710Y-392886958D01*
X122520000Y-392872500D01*
X122520000Y-392527500D01*
X122520710Y-392513042D01*
X122522834Y-392498724D01*
X122526351Y-392484683D01*
X122531228Y-392471054D01*
X122537417Y-392457969D01*
X122544858Y-392445553D01*
X122553481Y-392433927D01*
X122563202Y-392423202D01*
X122573927Y-392413481D01*
X122585553Y-392404858D01*
X122597969Y-392397417D01*
X122611054Y-392391228D01*
X122624683Y-392386351D01*
X122638724Y-392382834D01*
X122653042Y-392380710D01*
X122667500Y-392380000D01*
X122962500Y-392380000D01*
X122976958Y-392380710D01*
X122976958Y-392380710D01*
G37*
D11*
X122815000Y-392700000D03*
D10*
G36*
X99836958Y-442595710D02*
G01*
X99851276Y-442597834D01*
X99865317Y-442601351D01*
X99878946Y-442606228D01*
X99892031Y-442612417D01*
X99904447Y-442619858D01*
X99916073Y-442628481D01*
X99926798Y-442638202D01*
X99936519Y-442648927D01*
X99945142Y-442660553D01*
X99952583Y-442672969D01*
X99958772Y-442686054D01*
X99963649Y-442699683D01*
X99967166Y-442713724D01*
X99969290Y-442728042D01*
X99970000Y-442742500D01*
X99970000Y-443037500D01*
X99969290Y-443051958D01*
X99967166Y-443066276D01*
X99963649Y-443080317D01*
X99958772Y-443093946D01*
X99952583Y-443107031D01*
X99945142Y-443119447D01*
X99936519Y-443131073D01*
X99926798Y-443141798D01*
X99916073Y-443151519D01*
X99904447Y-443160142D01*
X99892031Y-443167583D01*
X99878946Y-443173772D01*
X99865317Y-443178649D01*
X99851276Y-443182166D01*
X99836958Y-443184290D01*
X99822500Y-443185000D01*
X99477500Y-443185000D01*
X99463042Y-443184290D01*
X99448724Y-443182166D01*
X99434683Y-443178649D01*
X99421054Y-443173772D01*
X99407969Y-443167583D01*
X99395553Y-443160142D01*
X99383927Y-443151519D01*
X99373202Y-443141798D01*
X99363481Y-443131073D01*
X99354858Y-443119447D01*
X99347417Y-443107031D01*
X99341228Y-443093946D01*
X99336351Y-443080317D01*
X99332834Y-443066276D01*
X99330710Y-443051958D01*
X99330000Y-443037500D01*
X99330000Y-442742500D01*
X99330710Y-442728042D01*
X99332834Y-442713724D01*
X99336351Y-442699683D01*
X99341228Y-442686054D01*
X99347417Y-442672969D01*
X99354858Y-442660553D01*
X99363481Y-442648927D01*
X99373202Y-442638202D01*
X99383927Y-442628481D01*
X99395553Y-442619858D01*
X99407969Y-442612417D01*
X99421054Y-442606228D01*
X99434683Y-442601351D01*
X99448724Y-442597834D01*
X99463042Y-442595710D01*
X99477500Y-442595000D01*
X99822500Y-442595000D01*
X99836958Y-442595710D01*
X99836958Y-442595710D01*
G37*
D11*
X99650000Y-442890000D03*
D10*
G36*
X99836958Y-443565710D02*
G01*
X99851276Y-443567834D01*
X99865317Y-443571351D01*
X99878946Y-443576228D01*
X99892031Y-443582417D01*
X99904447Y-443589858D01*
X99916073Y-443598481D01*
X99926798Y-443608202D01*
X99936519Y-443618927D01*
X99945142Y-443630553D01*
X99952583Y-443642969D01*
X99958772Y-443656054D01*
X99963649Y-443669683D01*
X99967166Y-443683724D01*
X99969290Y-443698042D01*
X99970000Y-443712500D01*
X99970000Y-444007500D01*
X99969290Y-444021958D01*
X99967166Y-444036276D01*
X99963649Y-444050317D01*
X99958772Y-444063946D01*
X99952583Y-444077031D01*
X99945142Y-444089447D01*
X99936519Y-444101073D01*
X99926798Y-444111798D01*
X99916073Y-444121519D01*
X99904447Y-444130142D01*
X99892031Y-444137583D01*
X99878946Y-444143772D01*
X99865317Y-444148649D01*
X99851276Y-444152166D01*
X99836958Y-444154290D01*
X99822500Y-444155000D01*
X99477500Y-444155000D01*
X99463042Y-444154290D01*
X99448724Y-444152166D01*
X99434683Y-444148649D01*
X99421054Y-444143772D01*
X99407969Y-444137583D01*
X99395553Y-444130142D01*
X99383927Y-444121519D01*
X99373202Y-444111798D01*
X99363481Y-444101073D01*
X99354858Y-444089447D01*
X99347417Y-444077031D01*
X99341228Y-444063946D01*
X99336351Y-444050317D01*
X99332834Y-444036276D01*
X99330710Y-444021958D01*
X99330000Y-444007500D01*
X99330000Y-443712500D01*
X99330710Y-443698042D01*
X99332834Y-443683724D01*
X99336351Y-443669683D01*
X99341228Y-443656054D01*
X99347417Y-443642969D01*
X99354858Y-443630553D01*
X99363481Y-443618927D01*
X99373202Y-443608202D01*
X99383927Y-443598481D01*
X99395553Y-443589858D01*
X99407969Y-443582417D01*
X99421054Y-443576228D01*
X99434683Y-443571351D01*
X99448724Y-443567834D01*
X99463042Y-443565710D01*
X99477500Y-443565000D01*
X99822500Y-443565000D01*
X99836958Y-443565710D01*
X99836958Y-443565710D01*
G37*
D11*
X99650000Y-443860000D03*
D10*
G36*
X107071958Y-466770710D02*
G01*
X107086276Y-466772834D01*
X107100317Y-466776351D01*
X107113946Y-466781228D01*
X107127031Y-466787417D01*
X107139447Y-466794858D01*
X107151073Y-466803481D01*
X107161798Y-466813202D01*
X107171519Y-466823927D01*
X107180142Y-466835553D01*
X107187583Y-466847969D01*
X107193772Y-466861054D01*
X107198649Y-466874683D01*
X107202166Y-466888724D01*
X107204290Y-466903042D01*
X107205000Y-466917500D01*
X107205000Y-467262500D01*
X107204290Y-467276958D01*
X107202166Y-467291276D01*
X107198649Y-467305317D01*
X107193772Y-467318946D01*
X107187583Y-467332031D01*
X107180142Y-467344447D01*
X107171519Y-467356073D01*
X107161798Y-467366798D01*
X107151073Y-467376519D01*
X107139447Y-467385142D01*
X107127031Y-467392583D01*
X107113946Y-467398772D01*
X107100317Y-467403649D01*
X107086276Y-467407166D01*
X107071958Y-467409290D01*
X107057500Y-467410000D01*
X106762500Y-467410000D01*
X106748042Y-467409290D01*
X106733724Y-467407166D01*
X106719683Y-467403649D01*
X106706054Y-467398772D01*
X106692969Y-467392583D01*
X106680553Y-467385142D01*
X106668927Y-467376519D01*
X106658202Y-467366798D01*
X106648481Y-467356073D01*
X106639858Y-467344447D01*
X106632417Y-467332031D01*
X106626228Y-467318946D01*
X106621351Y-467305317D01*
X106617834Y-467291276D01*
X106615710Y-467276958D01*
X106615000Y-467262500D01*
X106615000Y-466917500D01*
X106615710Y-466903042D01*
X106617834Y-466888724D01*
X106621351Y-466874683D01*
X106626228Y-466861054D01*
X106632417Y-466847969D01*
X106639858Y-466835553D01*
X106648481Y-466823927D01*
X106658202Y-466813202D01*
X106668927Y-466803481D01*
X106680553Y-466794858D01*
X106692969Y-466787417D01*
X106706054Y-466781228D01*
X106719683Y-466776351D01*
X106733724Y-466772834D01*
X106748042Y-466770710D01*
X106762500Y-466770000D01*
X107057500Y-466770000D01*
X107071958Y-466770710D01*
X107071958Y-466770710D01*
G37*
D11*
X106910000Y-467090000D03*
D10*
G36*
X106101958Y-466770710D02*
G01*
X106116276Y-466772834D01*
X106130317Y-466776351D01*
X106143946Y-466781228D01*
X106157031Y-466787417D01*
X106169447Y-466794858D01*
X106181073Y-466803481D01*
X106191798Y-466813202D01*
X106201519Y-466823927D01*
X106210142Y-466835553D01*
X106217583Y-466847969D01*
X106223772Y-466861054D01*
X106228649Y-466874683D01*
X106232166Y-466888724D01*
X106234290Y-466903042D01*
X106235000Y-466917500D01*
X106235000Y-467262500D01*
X106234290Y-467276958D01*
X106232166Y-467291276D01*
X106228649Y-467305317D01*
X106223772Y-467318946D01*
X106217583Y-467332031D01*
X106210142Y-467344447D01*
X106201519Y-467356073D01*
X106191798Y-467366798D01*
X106181073Y-467376519D01*
X106169447Y-467385142D01*
X106157031Y-467392583D01*
X106143946Y-467398772D01*
X106130317Y-467403649D01*
X106116276Y-467407166D01*
X106101958Y-467409290D01*
X106087500Y-467410000D01*
X105792500Y-467410000D01*
X105778042Y-467409290D01*
X105763724Y-467407166D01*
X105749683Y-467403649D01*
X105736054Y-467398772D01*
X105722969Y-467392583D01*
X105710553Y-467385142D01*
X105698927Y-467376519D01*
X105688202Y-467366798D01*
X105678481Y-467356073D01*
X105669858Y-467344447D01*
X105662417Y-467332031D01*
X105656228Y-467318946D01*
X105651351Y-467305317D01*
X105647834Y-467291276D01*
X105645710Y-467276958D01*
X105645000Y-467262500D01*
X105645000Y-466917500D01*
X105645710Y-466903042D01*
X105647834Y-466888724D01*
X105651351Y-466874683D01*
X105656228Y-466861054D01*
X105662417Y-466847969D01*
X105669858Y-466835553D01*
X105678481Y-466823927D01*
X105688202Y-466813202D01*
X105698927Y-466803481D01*
X105710553Y-466794858D01*
X105722969Y-466787417D01*
X105736054Y-466781228D01*
X105749683Y-466776351D01*
X105763724Y-466772834D01*
X105778042Y-466770710D01*
X105792500Y-466770000D01*
X106087500Y-466770000D01*
X106101958Y-466770710D01*
X106101958Y-466770710D01*
G37*
D11*
X105940000Y-467090000D03*
D10*
G36*
X119846958Y-460930710D02*
G01*
X119861276Y-460932834D01*
X119875317Y-460936351D01*
X119888946Y-460941228D01*
X119902031Y-460947417D01*
X119914447Y-460954858D01*
X119926073Y-460963481D01*
X119936798Y-460973202D01*
X119946519Y-460983927D01*
X119955142Y-460995553D01*
X119962583Y-461007969D01*
X119968772Y-461021054D01*
X119973649Y-461034683D01*
X119977166Y-461048724D01*
X119979290Y-461063042D01*
X119980000Y-461077500D01*
X119980000Y-461422500D01*
X119979290Y-461436958D01*
X119977166Y-461451276D01*
X119973649Y-461465317D01*
X119968772Y-461478946D01*
X119962583Y-461492031D01*
X119955142Y-461504447D01*
X119946519Y-461516073D01*
X119936798Y-461526798D01*
X119926073Y-461536519D01*
X119914447Y-461545142D01*
X119902031Y-461552583D01*
X119888946Y-461558772D01*
X119875317Y-461563649D01*
X119861276Y-461567166D01*
X119846958Y-461569290D01*
X119832500Y-461570000D01*
X119537500Y-461570000D01*
X119523042Y-461569290D01*
X119508724Y-461567166D01*
X119494683Y-461563649D01*
X119481054Y-461558772D01*
X119467969Y-461552583D01*
X119455553Y-461545142D01*
X119443927Y-461536519D01*
X119433202Y-461526798D01*
X119423481Y-461516073D01*
X119414858Y-461504447D01*
X119407417Y-461492031D01*
X119401228Y-461478946D01*
X119396351Y-461465317D01*
X119392834Y-461451276D01*
X119390710Y-461436958D01*
X119390000Y-461422500D01*
X119390000Y-461077500D01*
X119390710Y-461063042D01*
X119392834Y-461048724D01*
X119396351Y-461034683D01*
X119401228Y-461021054D01*
X119407417Y-461007969D01*
X119414858Y-460995553D01*
X119423481Y-460983927D01*
X119433202Y-460973202D01*
X119443927Y-460963481D01*
X119455553Y-460954858D01*
X119467969Y-460947417D01*
X119481054Y-460941228D01*
X119494683Y-460936351D01*
X119508724Y-460932834D01*
X119523042Y-460930710D01*
X119537500Y-460930000D01*
X119832500Y-460930000D01*
X119846958Y-460930710D01*
X119846958Y-460930710D01*
G37*
D11*
X119685000Y-461250000D03*
D10*
G36*
X118876958Y-460930710D02*
G01*
X118891276Y-460932834D01*
X118905317Y-460936351D01*
X118918946Y-460941228D01*
X118932031Y-460947417D01*
X118944447Y-460954858D01*
X118956073Y-460963481D01*
X118966798Y-460973202D01*
X118976519Y-460983927D01*
X118985142Y-460995553D01*
X118992583Y-461007969D01*
X118998772Y-461021054D01*
X119003649Y-461034683D01*
X119007166Y-461048724D01*
X119009290Y-461063042D01*
X119010000Y-461077500D01*
X119010000Y-461422500D01*
X119009290Y-461436958D01*
X119007166Y-461451276D01*
X119003649Y-461465317D01*
X118998772Y-461478946D01*
X118992583Y-461492031D01*
X118985142Y-461504447D01*
X118976519Y-461516073D01*
X118966798Y-461526798D01*
X118956073Y-461536519D01*
X118944447Y-461545142D01*
X118932031Y-461552583D01*
X118918946Y-461558772D01*
X118905317Y-461563649D01*
X118891276Y-461567166D01*
X118876958Y-461569290D01*
X118862500Y-461570000D01*
X118567500Y-461570000D01*
X118553042Y-461569290D01*
X118538724Y-461567166D01*
X118524683Y-461563649D01*
X118511054Y-461558772D01*
X118497969Y-461552583D01*
X118485553Y-461545142D01*
X118473927Y-461536519D01*
X118463202Y-461526798D01*
X118453481Y-461516073D01*
X118444858Y-461504447D01*
X118437417Y-461492031D01*
X118431228Y-461478946D01*
X118426351Y-461465317D01*
X118422834Y-461451276D01*
X118420710Y-461436958D01*
X118420000Y-461422500D01*
X118420000Y-461077500D01*
X118420710Y-461063042D01*
X118422834Y-461048724D01*
X118426351Y-461034683D01*
X118431228Y-461021054D01*
X118437417Y-461007969D01*
X118444858Y-460995553D01*
X118453481Y-460983927D01*
X118463202Y-460973202D01*
X118473927Y-460963481D01*
X118485553Y-460954858D01*
X118497969Y-460947417D01*
X118511054Y-460941228D01*
X118524683Y-460936351D01*
X118538724Y-460932834D01*
X118553042Y-460930710D01*
X118567500Y-460930000D01*
X118862500Y-460930000D01*
X118876958Y-460930710D01*
X118876958Y-460930710D01*
G37*
D11*
X118715000Y-461250000D03*
D10*
G36*
X97486958Y-454485710D02*
G01*
X97501276Y-454487834D01*
X97515317Y-454491351D01*
X97528946Y-454496228D01*
X97542031Y-454502417D01*
X97554447Y-454509858D01*
X97566073Y-454518481D01*
X97576798Y-454528202D01*
X97586519Y-454538927D01*
X97595142Y-454550553D01*
X97602583Y-454562969D01*
X97608772Y-454576054D01*
X97613649Y-454589683D01*
X97617166Y-454603724D01*
X97619290Y-454618042D01*
X97620000Y-454632500D01*
X97620000Y-454927500D01*
X97619290Y-454941958D01*
X97617166Y-454956276D01*
X97613649Y-454970317D01*
X97608772Y-454983946D01*
X97602583Y-454997031D01*
X97595142Y-455009447D01*
X97586519Y-455021073D01*
X97576798Y-455031798D01*
X97566073Y-455041519D01*
X97554447Y-455050142D01*
X97542031Y-455057583D01*
X97528946Y-455063772D01*
X97515317Y-455068649D01*
X97501276Y-455072166D01*
X97486958Y-455074290D01*
X97472500Y-455075000D01*
X97127500Y-455075000D01*
X97113042Y-455074290D01*
X97098724Y-455072166D01*
X97084683Y-455068649D01*
X97071054Y-455063772D01*
X97057969Y-455057583D01*
X97045553Y-455050142D01*
X97033927Y-455041519D01*
X97023202Y-455031798D01*
X97013481Y-455021073D01*
X97004858Y-455009447D01*
X96997417Y-454997031D01*
X96991228Y-454983946D01*
X96986351Y-454970317D01*
X96982834Y-454956276D01*
X96980710Y-454941958D01*
X96980000Y-454927500D01*
X96980000Y-454632500D01*
X96980710Y-454618042D01*
X96982834Y-454603724D01*
X96986351Y-454589683D01*
X96991228Y-454576054D01*
X96997417Y-454562969D01*
X97004858Y-454550553D01*
X97013481Y-454538927D01*
X97023202Y-454528202D01*
X97033927Y-454518481D01*
X97045553Y-454509858D01*
X97057969Y-454502417D01*
X97071054Y-454496228D01*
X97084683Y-454491351D01*
X97098724Y-454487834D01*
X97113042Y-454485710D01*
X97127500Y-454485000D01*
X97472500Y-454485000D01*
X97486958Y-454485710D01*
X97486958Y-454485710D01*
G37*
D11*
X97300000Y-454780000D03*
D10*
G36*
X97486958Y-455455710D02*
G01*
X97501276Y-455457834D01*
X97515317Y-455461351D01*
X97528946Y-455466228D01*
X97542031Y-455472417D01*
X97554447Y-455479858D01*
X97566073Y-455488481D01*
X97576798Y-455498202D01*
X97586519Y-455508927D01*
X97595142Y-455520553D01*
X97602583Y-455532969D01*
X97608772Y-455546054D01*
X97613649Y-455559683D01*
X97617166Y-455573724D01*
X97619290Y-455588042D01*
X97620000Y-455602500D01*
X97620000Y-455897500D01*
X97619290Y-455911958D01*
X97617166Y-455926276D01*
X97613649Y-455940317D01*
X97608772Y-455953946D01*
X97602583Y-455967031D01*
X97595142Y-455979447D01*
X97586519Y-455991073D01*
X97576798Y-456001798D01*
X97566073Y-456011519D01*
X97554447Y-456020142D01*
X97542031Y-456027583D01*
X97528946Y-456033772D01*
X97515317Y-456038649D01*
X97501276Y-456042166D01*
X97486958Y-456044290D01*
X97472500Y-456045000D01*
X97127500Y-456045000D01*
X97113042Y-456044290D01*
X97098724Y-456042166D01*
X97084683Y-456038649D01*
X97071054Y-456033772D01*
X97057969Y-456027583D01*
X97045553Y-456020142D01*
X97033927Y-456011519D01*
X97023202Y-456001798D01*
X97013481Y-455991073D01*
X97004858Y-455979447D01*
X96997417Y-455967031D01*
X96991228Y-455953946D01*
X96986351Y-455940317D01*
X96982834Y-455926276D01*
X96980710Y-455911958D01*
X96980000Y-455897500D01*
X96980000Y-455602500D01*
X96980710Y-455588042D01*
X96982834Y-455573724D01*
X96986351Y-455559683D01*
X96991228Y-455546054D01*
X96997417Y-455532969D01*
X97004858Y-455520553D01*
X97013481Y-455508927D01*
X97023202Y-455498202D01*
X97033927Y-455488481D01*
X97045553Y-455479858D01*
X97057969Y-455472417D01*
X97071054Y-455466228D01*
X97084683Y-455461351D01*
X97098724Y-455457834D01*
X97113042Y-455455710D01*
X97127500Y-455455000D01*
X97472500Y-455455000D01*
X97486958Y-455455710D01*
X97486958Y-455455710D01*
G37*
D11*
X97300000Y-455750000D03*
D10*
G36*
X109586958Y-468325710D02*
G01*
X109601276Y-468327834D01*
X109615317Y-468331351D01*
X109628946Y-468336228D01*
X109642031Y-468342417D01*
X109654447Y-468349858D01*
X109666073Y-468358481D01*
X109676798Y-468368202D01*
X109686519Y-468378927D01*
X109695142Y-468390553D01*
X109702583Y-468402969D01*
X109708772Y-468416054D01*
X109713649Y-468429683D01*
X109717166Y-468443724D01*
X109719290Y-468458042D01*
X109720000Y-468472500D01*
X109720000Y-468767500D01*
X109719290Y-468781958D01*
X109717166Y-468796276D01*
X109713649Y-468810317D01*
X109708772Y-468823946D01*
X109702583Y-468837031D01*
X109695142Y-468849447D01*
X109686519Y-468861073D01*
X109676798Y-468871798D01*
X109666073Y-468881519D01*
X109654447Y-468890142D01*
X109642031Y-468897583D01*
X109628946Y-468903772D01*
X109615317Y-468908649D01*
X109601276Y-468912166D01*
X109586958Y-468914290D01*
X109572500Y-468915000D01*
X109227500Y-468915000D01*
X109213042Y-468914290D01*
X109198724Y-468912166D01*
X109184683Y-468908649D01*
X109171054Y-468903772D01*
X109157969Y-468897583D01*
X109145553Y-468890142D01*
X109133927Y-468881519D01*
X109123202Y-468871798D01*
X109113481Y-468861073D01*
X109104858Y-468849447D01*
X109097417Y-468837031D01*
X109091228Y-468823946D01*
X109086351Y-468810317D01*
X109082834Y-468796276D01*
X109080710Y-468781958D01*
X109080000Y-468767500D01*
X109080000Y-468472500D01*
X109080710Y-468458042D01*
X109082834Y-468443724D01*
X109086351Y-468429683D01*
X109091228Y-468416054D01*
X109097417Y-468402969D01*
X109104858Y-468390553D01*
X109113481Y-468378927D01*
X109123202Y-468368202D01*
X109133927Y-468358481D01*
X109145553Y-468349858D01*
X109157969Y-468342417D01*
X109171054Y-468336228D01*
X109184683Y-468331351D01*
X109198724Y-468327834D01*
X109213042Y-468325710D01*
X109227500Y-468325000D01*
X109572500Y-468325000D01*
X109586958Y-468325710D01*
X109586958Y-468325710D01*
G37*
D11*
X109400000Y-468620000D03*
D10*
G36*
X109586958Y-467355710D02*
G01*
X109601276Y-467357834D01*
X109615317Y-467361351D01*
X109628946Y-467366228D01*
X109642031Y-467372417D01*
X109654447Y-467379858D01*
X109666073Y-467388481D01*
X109676798Y-467398202D01*
X109686519Y-467408927D01*
X109695142Y-467420553D01*
X109702583Y-467432969D01*
X109708772Y-467446054D01*
X109713649Y-467459683D01*
X109717166Y-467473724D01*
X109719290Y-467488042D01*
X109720000Y-467502500D01*
X109720000Y-467797500D01*
X109719290Y-467811958D01*
X109717166Y-467826276D01*
X109713649Y-467840317D01*
X109708772Y-467853946D01*
X109702583Y-467867031D01*
X109695142Y-467879447D01*
X109686519Y-467891073D01*
X109676798Y-467901798D01*
X109666073Y-467911519D01*
X109654447Y-467920142D01*
X109642031Y-467927583D01*
X109628946Y-467933772D01*
X109615317Y-467938649D01*
X109601276Y-467942166D01*
X109586958Y-467944290D01*
X109572500Y-467945000D01*
X109227500Y-467945000D01*
X109213042Y-467944290D01*
X109198724Y-467942166D01*
X109184683Y-467938649D01*
X109171054Y-467933772D01*
X109157969Y-467927583D01*
X109145553Y-467920142D01*
X109133927Y-467911519D01*
X109123202Y-467901798D01*
X109113481Y-467891073D01*
X109104858Y-467879447D01*
X109097417Y-467867031D01*
X109091228Y-467853946D01*
X109086351Y-467840317D01*
X109082834Y-467826276D01*
X109080710Y-467811958D01*
X109080000Y-467797500D01*
X109080000Y-467502500D01*
X109080710Y-467488042D01*
X109082834Y-467473724D01*
X109086351Y-467459683D01*
X109091228Y-467446054D01*
X109097417Y-467432969D01*
X109104858Y-467420553D01*
X109113481Y-467408927D01*
X109123202Y-467398202D01*
X109133927Y-467388481D01*
X109145553Y-467379858D01*
X109157969Y-467372417D01*
X109171054Y-467366228D01*
X109184683Y-467361351D01*
X109198724Y-467357834D01*
X109213042Y-467355710D01*
X109227500Y-467355000D01*
X109572500Y-467355000D01*
X109586958Y-467355710D01*
X109586958Y-467355710D01*
G37*
D11*
X109400000Y-467650000D03*
D10*
G36*
X114586958Y-454635710D02*
G01*
X114601276Y-454637834D01*
X114615317Y-454641351D01*
X114628946Y-454646228D01*
X114642031Y-454652417D01*
X114654447Y-454659858D01*
X114666073Y-454668481D01*
X114676798Y-454678202D01*
X114686519Y-454688927D01*
X114695142Y-454700553D01*
X114702583Y-454712969D01*
X114708772Y-454726054D01*
X114713649Y-454739683D01*
X114717166Y-454753724D01*
X114719290Y-454768042D01*
X114720000Y-454782500D01*
X114720000Y-455077500D01*
X114719290Y-455091958D01*
X114717166Y-455106276D01*
X114713649Y-455120317D01*
X114708772Y-455133946D01*
X114702583Y-455147031D01*
X114695142Y-455159447D01*
X114686519Y-455171073D01*
X114676798Y-455181798D01*
X114666073Y-455191519D01*
X114654447Y-455200142D01*
X114642031Y-455207583D01*
X114628946Y-455213772D01*
X114615317Y-455218649D01*
X114601276Y-455222166D01*
X114586958Y-455224290D01*
X114572500Y-455225000D01*
X114227500Y-455225000D01*
X114213042Y-455224290D01*
X114198724Y-455222166D01*
X114184683Y-455218649D01*
X114171054Y-455213772D01*
X114157969Y-455207583D01*
X114145553Y-455200142D01*
X114133927Y-455191519D01*
X114123202Y-455181798D01*
X114113481Y-455171073D01*
X114104858Y-455159447D01*
X114097417Y-455147031D01*
X114091228Y-455133946D01*
X114086351Y-455120317D01*
X114082834Y-455106276D01*
X114080710Y-455091958D01*
X114080000Y-455077500D01*
X114080000Y-454782500D01*
X114080710Y-454768042D01*
X114082834Y-454753724D01*
X114086351Y-454739683D01*
X114091228Y-454726054D01*
X114097417Y-454712969D01*
X114104858Y-454700553D01*
X114113481Y-454688927D01*
X114123202Y-454678202D01*
X114133927Y-454668481D01*
X114145553Y-454659858D01*
X114157969Y-454652417D01*
X114171054Y-454646228D01*
X114184683Y-454641351D01*
X114198724Y-454637834D01*
X114213042Y-454635710D01*
X114227500Y-454635000D01*
X114572500Y-454635000D01*
X114586958Y-454635710D01*
X114586958Y-454635710D01*
G37*
D11*
X114400000Y-454930000D03*
D10*
G36*
X114586958Y-455605710D02*
G01*
X114601276Y-455607834D01*
X114615317Y-455611351D01*
X114628946Y-455616228D01*
X114642031Y-455622417D01*
X114654447Y-455629858D01*
X114666073Y-455638481D01*
X114676798Y-455648202D01*
X114686519Y-455658927D01*
X114695142Y-455670553D01*
X114702583Y-455682969D01*
X114708772Y-455696054D01*
X114713649Y-455709683D01*
X114717166Y-455723724D01*
X114719290Y-455738042D01*
X114720000Y-455752500D01*
X114720000Y-456047500D01*
X114719290Y-456061958D01*
X114717166Y-456076276D01*
X114713649Y-456090317D01*
X114708772Y-456103946D01*
X114702583Y-456117031D01*
X114695142Y-456129447D01*
X114686519Y-456141073D01*
X114676798Y-456151798D01*
X114666073Y-456161519D01*
X114654447Y-456170142D01*
X114642031Y-456177583D01*
X114628946Y-456183772D01*
X114615317Y-456188649D01*
X114601276Y-456192166D01*
X114586958Y-456194290D01*
X114572500Y-456195000D01*
X114227500Y-456195000D01*
X114213042Y-456194290D01*
X114198724Y-456192166D01*
X114184683Y-456188649D01*
X114171054Y-456183772D01*
X114157969Y-456177583D01*
X114145553Y-456170142D01*
X114133927Y-456161519D01*
X114123202Y-456151798D01*
X114113481Y-456141073D01*
X114104858Y-456129447D01*
X114097417Y-456117031D01*
X114091228Y-456103946D01*
X114086351Y-456090317D01*
X114082834Y-456076276D01*
X114080710Y-456061958D01*
X114080000Y-456047500D01*
X114080000Y-455752500D01*
X114080710Y-455738042D01*
X114082834Y-455723724D01*
X114086351Y-455709683D01*
X114091228Y-455696054D01*
X114097417Y-455682969D01*
X114104858Y-455670553D01*
X114113481Y-455658927D01*
X114123202Y-455648202D01*
X114133927Y-455638481D01*
X114145553Y-455629858D01*
X114157969Y-455622417D01*
X114171054Y-455616228D01*
X114184683Y-455611351D01*
X114198724Y-455607834D01*
X114213042Y-455605710D01*
X114227500Y-455605000D01*
X114572500Y-455605000D01*
X114586958Y-455605710D01*
X114586958Y-455605710D01*
G37*
D11*
X114400000Y-455900000D03*
D10*
G36*
X119846958Y-461930710D02*
G01*
X119861276Y-461932834D01*
X119875317Y-461936351D01*
X119888946Y-461941228D01*
X119902031Y-461947417D01*
X119914447Y-461954858D01*
X119926073Y-461963481D01*
X119936798Y-461973202D01*
X119946519Y-461983927D01*
X119955142Y-461995553D01*
X119962583Y-462007969D01*
X119968772Y-462021054D01*
X119973649Y-462034683D01*
X119977166Y-462048724D01*
X119979290Y-462063042D01*
X119980000Y-462077500D01*
X119980000Y-462422500D01*
X119979290Y-462436958D01*
X119977166Y-462451276D01*
X119973649Y-462465317D01*
X119968772Y-462478946D01*
X119962583Y-462492031D01*
X119955142Y-462504447D01*
X119946519Y-462516073D01*
X119936798Y-462526798D01*
X119926073Y-462536519D01*
X119914447Y-462545142D01*
X119902031Y-462552583D01*
X119888946Y-462558772D01*
X119875317Y-462563649D01*
X119861276Y-462567166D01*
X119846958Y-462569290D01*
X119832500Y-462570000D01*
X119537500Y-462570000D01*
X119523042Y-462569290D01*
X119508724Y-462567166D01*
X119494683Y-462563649D01*
X119481054Y-462558772D01*
X119467969Y-462552583D01*
X119455553Y-462545142D01*
X119443927Y-462536519D01*
X119433202Y-462526798D01*
X119423481Y-462516073D01*
X119414858Y-462504447D01*
X119407417Y-462492031D01*
X119401228Y-462478946D01*
X119396351Y-462465317D01*
X119392834Y-462451276D01*
X119390710Y-462436958D01*
X119390000Y-462422500D01*
X119390000Y-462077500D01*
X119390710Y-462063042D01*
X119392834Y-462048724D01*
X119396351Y-462034683D01*
X119401228Y-462021054D01*
X119407417Y-462007969D01*
X119414858Y-461995553D01*
X119423481Y-461983927D01*
X119433202Y-461973202D01*
X119443927Y-461963481D01*
X119455553Y-461954858D01*
X119467969Y-461947417D01*
X119481054Y-461941228D01*
X119494683Y-461936351D01*
X119508724Y-461932834D01*
X119523042Y-461930710D01*
X119537500Y-461930000D01*
X119832500Y-461930000D01*
X119846958Y-461930710D01*
X119846958Y-461930710D01*
G37*
D11*
X119685000Y-462250000D03*
D10*
G36*
X118876958Y-461930710D02*
G01*
X118891276Y-461932834D01*
X118905317Y-461936351D01*
X118918946Y-461941228D01*
X118932031Y-461947417D01*
X118944447Y-461954858D01*
X118956073Y-461963481D01*
X118966798Y-461973202D01*
X118976519Y-461983927D01*
X118985142Y-461995553D01*
X118992583Y-462007969D01*
X118998772Y-462021054D01*
X119003649Y-462034683D01*
X119007166Y-462048724D01*
X119009290Y-462063042D01*
X119010000Y-462077500D01*
X119010000Y-462422500D01*
X119009290Y-462436958D01*
X119007166Y-462451276D01*
X119003649Y-462465317D01*
X118998772Y-462478946D01*
X118992583Y-462492031D01*
X118985142Y-462504447D01*
X118976519Y-462516073D01*
X118966798Y-462526798D01*
X118956073Y-462536519D01*
X118944447Y-462545142D01*
X118932031Y-462552583D01*
X118918946Y-462558772D01*
X118905317Y-462563649D01*
X118891276Y-462567166D01*
X118876958Y-462569290D01*
X118862500Y-462570000D01*
X118567500Y-462570000D01*
X118553042Y-462569290D01*
X118538724Y-462567166D01*
X118524683Y-462563649D01*
X118511054Y-462558772D01*
X118497969Y-462552583D01*
X118485553Y-462545142D01*
X118473927Y-462536519D01*
X118463202Y-462526798D01*
X118453481Y-462516073D01*
X118444858Y-462504447D01*
X118437417Y-462492031D01*
X118431228Y-462478946D01*
X118426351Y-462465317D01*
X118422834Y-462451276D01*
X118420710Y-462436958D01*
X118420000Y-462422500D01*
X118420000Y-462077500D01*
X118420710Y-462063042D01*
X118422834Y-462048724D01*
X118426351Y-462034683D01*
X118431228Y-462021054D01*
X118437417Y-462007969D01*
X118444858Y-461995553D01*
X118453481Y-461983927D01*
X118463202Y-461973202D01*
X118473927Y-461963481D01*
X118485553Y-461954858D01*
X118497969Y-461947417D01*
X118511054Y-461941228D01*
X118524683Y-461936351D01*
X118538724Y-461932834D01*
X118553042Y-461930710D01*
X118567500Y-461930000D01*
X118862500Y-461930000D01*
X118876958Y-461930710D01*
X118876958Y-461930710D01*
G37*
D11*
X118715000Y-462250000D03*
D10*
G36*
X106091958Y-461230710D02*
G01*
X106106276Y-461232834D01*
X106120317Y-461236351D01*
X106133946Y-461241228D01*
X106147031Y-461247417D01*
X106159447Y-461254858D01*
X106171073Y-461263481D01*
X106181798Y-461273202D01*
X106191519Y-461283927D01*
X106200142Y-461295553D01*
X106207583Y-461307969D01*
X106213772Y-461321054D01*
X106218649Y-461334683D01*
X106222166Y-461348724D01*
X106224290Y-461363042D01*
X106225000Y-461377500D01*
X106225000Y-461722500D01*
X106224290Y-461736958D01*
X106222166Y-461751276D01*
X106218649Y-461765317D01*
X106213772Y-461778946D01*
X106207583Y-461792031D01*
X106200142Y-461804447D01*
X106191519Y-461816073D01*
X106181798Y-461826798D01*
X106171073Y-461836519D01*
X106159447Y-461845142D01*
X106147031Y-461852583D01*
X106133946Y-461858772D01*
X106120317Y-461863649D01*
X106106276Y-461867166D01*
X106091958Y-461869290D01*
X106077500Y-461870000D01*
X105782500Y-461870000D01*
X105768042Y-461869290D01*
X105753724Y-461867166D01*
X105739683Y-461863649D01*
X105726054Y-461858772D01*
X105712969Y-461852583D01*
X105700553Y-461845142D01*
X105688927Y-461836519D01*
X105678202Y-461826798D01*
X105668481Y-461816073D01*
X105659858Y-461804447D01*
X105652417Y-461792031D01*
X105646228Y-461778946D01*
X105641351Y-461765317D01*
X105637834Y-461751276D01*
X105635710Y-461736958D01*
X105635000Y-461722500D01*
X105635000Y-461377500D01*
X105635710Y-461363042D01*
X105637834Y-461348724D01*
X105641351Y-461334683D01*
X105646228Y-461321054D01*
X105652417Y-461307969D01*
X105659858Y-461295553D01*
X105668481Y-461283927D01*
X105678202Y-461273202D01*
X105688927Y-461263481D01*
X105700553Y-461254858D01*
X105712969Y-461247417D01*
X105726054Y-461241228D01*
X105739683Y-461236351D01*
X105753724Y-461232834D01*
X105768042Y-461230710D01*
X105782500Y-461230000D01*
X106077500Y-461230000D01*
X106091958Y-461230710D01*
X106091958Y-461230710D01*
G37*
D11*
X105930000Y-461550000D03*
D10*
G36*
X107061958Y-461230710D02*
G01*
X107076276Y-461232834D01*
X107090317Y-461236351D01*
X107103946Y-461241228D01*
X107117031Y-461247417D01*
X107129447Y-461254858D01*
X107141073Y-461263481D01*
X107151798Y-461273202D01*
X107161519Y-461283927D01*
X107170142Y-461295553D01*
X107177583Y-461307969D01*
X107183772Y-461321054D01*
X107188649Y-461334683D01*
X107192166Y-461348724D01*
X107194290Y-461363042D01*
X107195000Y-461377500D01*
X107195000Y-461722500D01*
X107194290Y-461736958D01*
X107192166Y-461751276D01*
X107188649Y-461765317D01*
X107183772Y-461778946D01*
X107177583Y-461792031D01*
X107170142Y-461804447D01*
X107161519Y-461816073D01*
X107151798Y-461826798D01*
X107141073Y-461836519D01*
X107129447Y-461845142D01*
X107117031Y-461852583D01*
X107103946Y-461858772D01*
X107090317Y-461863649D01*
X107076276Y-461867166D01*
X107061958Y-461869290D01*
X107047500Y-461870000D01*
X106752500Y-461870000D01*
X106738042Y-461869290D01*
X106723724Y-461867166D01*
X106709683Y-461863649D01*
X106696054Y-461858772D01*
X106682969Y-461852583D01*
X106670553Y-461845142D01*
X106658927Y-461836519D01*
X106648202Y-461826798D01*
X106638481Y-461816073D01*
X106629858Y-461804447D01*
X106622417Y-461792031D01*
X106616228Y-461778946D01*
X106611351Y-461765317D01*
X106607834Y-461751276D01*
X106605710Y-461736958D01*
X106605000Y-461722500D01*
X106605000Y-461377500D01*
X106605710Y-461363042D01*
X106607834Y-461348724D01*
X106611351Y-461334683D01*
X106616228Y-461321054D01*
X106622417Y-461307969D01*
X106629858Y-461295553D01*
X106638481Y-461283927D01*
X106648202Y-461273202D01*
X106658927Y-461263481D01*
X106670553Y-461254858D01*
X106682969Y-461247417D01*
X106696054Y-461241228D01*
X106709683Y-461236351D01*
X106723724Y-461232834D01*
X106738042Y-461230710D01*
X106752500Y-461230000D01*
X107047500Y-461230000D01*
X107061958Y-461230710D01*
X107061958Y-461230710D01*
G37*
D11*
X106900000Y-461550000D03*
D10*
G36*
X119831958Y-463455710D02*
G01*
X119846276Y-463457834D01*
X119860317Y-463461351D01*
X119873946Y-463466228D01*
X119887031Y-463472417D01*
X119899447Y-463479858D01*
X119911073Y-463488481D01*
X119921798Y-463498202D01*
X119931519Y-463508927D01*
X119940142Y-463520553D01*
X119947583Y-463532969D01*
X119953772Y-463546054D01*
X119958649Y-463559683D01*
X119962166Y-463573724D01*
X119964290Y-463588042D01*
X119965000Y-463602500D01*
X119965000Y-463947500D01*
X119964290Y-463961958D01*
X119962166Y-463976276D01*
X119958649Y-463990317D01*
X119953772Y-464003946D01*
X119947583Y-464017031D01*
X119940142Y-464029447D01*
X119931519Y-464041073D01*
X119921798Y-464051798D01*
X119911073Y-464061519D01*
X119899447Y-464070142D01*
X119887031Y-464077583D01*
X119873946Y-464083772D01*
X119860317Y-464088649D01*
X119846276Y-464092166D01*
X119831958Y-464094290D01*
X119817500Y-464095000D01*
X119522500Y-464095000D01*
X119508042Y-464094290D01*
X119493724Y-464092166D01*
X119479683Y-464088649D01*
X119466054Y-464083772D01*
X119452969Y-464077583D01*
X119440553Y-464070142D01*
X119428927Y-464061519D01*
X119418202Y-464051798D01*
X119408481Y-464041073D01*
X119399858Y-464029447D01*
X119392417Y-464017031D01*
X119386228Y-464003946D01*
X119381351Y-463990317D01*
X119377834Y-463976276D01*
X119375710Y-463961958D01*
X119375000Y-463947500D01*
X119375000Y-463602500D01*
X119375710Y-463588042D01*
X119377834Y-463573724D01*
X119381351Y-463559683D01*
X119386228Y-463546054D01*
X119392417Y-463532969D01*
X119399858Y-463520553D01*
X119408481Y-463508927D01*
X119418202Y-463498202D01*
X119428927Y-463488481D01*
X119440553Y-463479858D01*
X119452969Y-463472417D01*
X119466054Y-463466228D01*
X119479683Y-463461351D01*
X119493724Y-463457834D01*
X119508042Y-463455710D01*
X119522500Y-463455000D01*
X119817500Y-463455000D01*
X119831958Y-463455710D01*
X119831958Y-463455710D01*
G37*
D11*
X119670000Y-463775000D03*
D10*
G36*
X118861958Y-463455710D02*
G01*
X118876276Y-463457834D01*
X118890317Y-463461351D01*
X118903946Y-463466228D01*
X118917031Y-463472417D01*
X118929447Y-463479858D01*
X118941073Y-463488481D01*
X118951798Y-463498202D01*
X118961519Y-463508927D01*
X118970142Y-463520553D01*
X118977583Y-463532969D01*
X118983772Y-463546054D01*
X118988649Y-463559683D01*
X118992166Y-463573724D01*
X118994290Y-463588042D01*
X118995000Y-463602500D01*
X118995000Y-463947500D01*
X118994290Y-463961958D01*
X118992166Y-463976276D01*
X118988649Y-463990317D01*
X118983772Y-464003946D01*
X118977583Y-464017031D01*
X118970142Y-464029447D01*
X118961519Y-464041073D01*
X118951798Y-464051798D01*
X118941073Y-464061519D01*
X118929447Y-464070142D01*
X118917031Y-464077583D01*
X118903946Y-464083772D01*
X118890317Y-464088649D01*
X118876276Y-464092166D01*
X118861958Y-464094290D01*
X118847500Y-464095000D01*
X118552500Y-464095000D01*
X118538042Y-464094290D01*
X118523724Y-464092166D01*
X118509683Y-464088649D01*
X118496054Y-464083772D01*
X118482969Y-464077583D01*
X118470553Y-464070142D01*
X118458927Y-464061519D01*
X118448202Y-464051798D01*
X118438481Y-464041073D01*
X118429858Y-464029447D01*
X118422417Y-464017031D01*
X118416228Y-464003946D01*
X118411351Y-463990317D01*
X118407834Y-463976276D01*
X118405710Y-463961958D01*
X118405000Y-463947500D01*
X118405000Y-463602500D01*
X118405710Y-463588042D01*
X118407834Y-463573724D01*
X118411351Y-463559683D01*
X118416228Y-463546054D01*
X118422417Y-463532969D01*
X118429858Y-463520553D01*
X118438481Y-463508927D01*
X118448202Y-463498202D01*
X118458927Y-463488481D01*
X118470553Y-463479858D01*
X118482969Y-463472417D01*
X118496054Y-463466228D01*
X118509683Y-463461351D01*
X118523724Y-463457834D01*
X118538042Y-463455710D01*
X118552500Y-463455000D01*
X118847500Y-463455000D01*
X118861958Y-463455710D01*
X118861958Y-463455710D01*
G37*
D11*
X118700000Y-463775000D03*
D10*
G36*
X106126958Y-464730710D02*
G01*
X106141276Y-464732834D01*
X106155317Y-464736351D01*
X106168946Y-464741228D01*
X106182031Y-464747417D01*
X106194447Y-464754858D01*
X106206073Y-464763481D01*
X106216798Y-464773202D01*
X106226519Y-464783927D01*
X106235142Y-464795553D01*
X106242583Y-464807969D01*
X106248772Y-464821054D01*
X106253649Y-464834683D01*
X106257166Y-464848724D01*
X106259290Y-464863042D01*
X106260000Y-464877500D01*
X106260000Y-465222500D01*
X106259290Y-465236958D01*
X106257166Y-465251276D01*
X106253649Y-465265317D01*
X106248772Y-465278946D01*
X106242583Y-465292031D01*
X106235142Y-465304447D01*
X106226519Y-465316073D01*
X106216798Y-465326798D01*
X106206073Y-465336519D01*
X106194447Y-465345142D01*
X106182031Y-465352583D01*
X106168946Y-465358772D01*
X106155317Y-465363649D01*
X106141276Y-465367166D01*
X106126958Y-465369290D01*
X106112500Y-465370000D01*
X105817500Y-465370000D01*
X105803042Y-465369290D01*
X105788724Y-465367166D01*
X105774683Y-465363649D01*
X105761054Y-465358772D01*
X105747969Y-465352583D01*
X105735553Y-465345142D01*
X105723927Y-465336519D01*
X105713202Y-465326798D01*
X105703481Y-465316073D01*
X105694858Y-465304447D01*
X105687417Y-465292031D01*
X105681228Y-465278946D01*
X105676351Y-465265317D01*
X105672834Y-465251276D01*
X105670710Y-465236958D01*
X105670000Y-465222500D01*
X105670000Y-464877500D01*
X105670710Y-464863042D01*
X105672834Y-464848724D01*
X105676351Y-464834683D01*
X105681228Y-464821054D01*
X105687417Y-464807969D01*
X105694858Y-464795553D01*
X105703481Y-464783927D01*
X105713202Y-464773202D01*
X105723927Y-464763481D01*
X105735553Y-464754858D01*
X105747969Y-464747417D01*
X105761054Y-464741228D01*
X105774683Y-464736351D01*
X105788724Y-464732834D01*
X105803042Y-464730710D01*
X105817500Y-464730000D01*
X106112500Y-464730000D01*
X106126958Y-464730710D01*
X106126958Y-464730710D01*
G37*
D11*
X105965000Y-465050000D03*
D10*
G36*
X107096958Y-464730710D02*
G01*
X107111276Y-464732834D01*
X107125317Y-464736351D01*
X107138946Y-464741228D01*
X107152031Y-464747417D01*
X107164447Y-464754858D01*
X107176073Y-464763481D01*
X107186798Y-464773202D01*
X107196519Y-464783927D01*
X107205142Y-464795553D01*
X107212583Y-464807969D01*
X107218772Y-464821054D01*
X107223649Y-464834683D01*
X107227166Y-464848724D01*
X107229290Y-464863042D01*
X107230000Y-464877500D01*
X107230000Y-465222500D01*
X107229290Y-465236958D01*
X107227166Y-465251276D01*
X107223649Y-465265317D01*
X107218772Y-465278946D01*
X107212583Y-465292031D01*
X107205142Y-465304447D01*
X107196519Y-465316073D01*
X107186798Y-465326798D01*
X107176073Y-465336519D01*
X107164447Y-465345142D01*
X107152031Y-465352583D01*
X107138946Y-465358772D01*
X107125317Y-465363649D01*
X107111276Y-465367166D01*
X107096958Y-465369290D01*
X107082500Y-465370000D01*
X106787500Y-465370000D01*
X106773042Y-465369290D01*
X106758724Y-465367166D01*
X106744683Y-465363649D01*
X106731054Y-465358772D01*
X106717969Y-465352583D01*
X106705553Y-465345142D01*
X106693927Y-465336519D01*
X106683202Y-465326798D01*
X106673481Y-465316073D01*
X106664858Y-465304447D01*
X106657417Y-465292031D01*
X106651228Y-465278946D01*
X106646351Y-465265317D01*
X106642834Y-465251276D01*
X106640710Y-465236958D01*
X106640000Y-465222500D01*
X106640000Y-464877500D01*
X106640710Y-464863042D01*
X106642834Y-464848724D01*
X106646351Y-464834683D01*
X106651228Y-464821054D01*
X106657417Y-464807969D01*
X106664858Y-464795553D01*
X106673481Y-464783927D01*
X106683202Y-464773202D01*
X106693927Y-464763481D01*
X106705553Y-464754858D01*
X106717969Y-464747417D01*
X106731054Y-464741228D01*
X106744683Y-464736351D01*
X106758724Y-464732834D01*
X106773042Y-464730710D01*
X106787500Y-464730000D01*
X107082500Y-464730000D01*
X107096958Y-464730710D01*
X107096958Y-464730710D01*
G37*
D11*
X106935000Y-465050000D03*
D10*
G36*
X98216958Y-463540710D02*
G01*
X98231276Y-463542834D01*
X98245317Y-463546351D01*
X98258946Y-463551228D01*
X98272031Y-463557417D01*
X98284447Y-463564858D01*
X98296073Y-463573481D01*
X98306798Y-463583202D01*
X98316519Y-463593927D01*
X98325142Y-463605553D01*
X98332583Y-463617969D01*
X98338772Y-463631054D01*
X98343649Y-463644683D01*
X98347166Y-463658724D01*
X98349290Y-463673042D01*
X98350000Y-463687500D01*
X98350000Y-464032500D01*
X98349290Y-464046958D01*
X98347166Y-464061276D01*
X98343649Y-464075317D01*
X98338772Y-464088946D01*
X98332583Y-464102031D01*
X98325142Y-464114447D01*
X98316519Y-464126073D01*
X98306798Y-464136798D01*
X98296073Y-464146519D01*
X98284447Y-464155142D01*
X98272031Y-464162583D01*
X98258946Y-464168772D01*
X98245317Y-464173649D01*
X98231276Y-464177166D01*
X98216958Y-464179290D01*
X98202500Y-464180000D01*
X97907500Y-464180000D01*
X97893042Y-464179290D01*
X97878724Y-464177166D01*
X97864683Y-464173649D01*
X97851054Y-464168772D01*
X97837969Y-464162583D01*
X97825553Y-464155142D01*
X97813927Y-464146519D01*
X97803202Y-464136798D01*
X97793481Y-464126073D01*
X97784858Y-464114447D01*
X97777417Y-464102031D01*
X97771228Y-464088946D01*
X97766351Y-464075317D01*
X97762834Y-464061276D01*
X97760710Y-464046958D01*
X97760000Y-464032500D01*
X97760000Y-463687500D01*
X97760710Y-463673042D01*
X97762834Y-463658724D01*
X97766351Y-463644683D01*
X97771228Y-463631054D01*
X97777417Y-463617969D01*
X97784858Y-463605553D01*
X97793481Y-463593927D01*
X97803202Y-463583202D01*
X97813927Y-463573481D01*
X97825553Y-463564858D01*
X97837969Y-463557417D01*
X97851054Y-463551228D01*
X97864683Y-463546351D01*
X97878724Y-463542834D01*
X97893042Y-463540710D01*
X97907500Y-463540000D01*
X98202500Y-463540000D01*
X98216958Y-463540710D01*
X98216958Y-463540710D01*
G37*
D11*
X98055000Y-463860000D03*
D10*
G36*
X99186958Y-463540710D02*
G01*
X99201276Y-463542834D01*
X99215317Y-463546351D01*
X99228946Y-463551228D01*
X99242031Y-463557417D01*
X99254447Y-463564858D01*
X99266073Y-463573481D01*
X99276798Y-463583202D01*
X99286519Y-463593927D01*
X99295142Y-463605553D01*
X99302583Y-463617969D01*
X99308772Y-463631054D01*
X99313649Y-463644683D01*
X99317166Y-463658724D01*
X99319290Y-463673042D01*
X99320000Y-463687500D01*
X99320000Y-464032500D01*
X99319290Y-464046958D01*
X99317166Y-464061276D01*
X99313649Y-464075317D01*
X99308772Y-464088946D01*
X99302583Y-464102031D01*
X99295142Y-464114447D01*
X99286519Y-464126073D01*
X99276798Y-464136798D01*
X99266073Y-464146519D01*
X99254447Y-464155142D01*
X99242031Y-464162583D01*
X99228946Y-464168772D01*
X99215317Y-464173649D01*
X99201276Y-464177166D01*
X99186958Y-464179290D01*
X99172500Y-464180000D01*
X98877500Y-464180000D01*
X98863042Y-464179290D01*
X98848724Y-464177166D01*
X98834683Y-464173649D01*
X98821054Y-464168772D01*
X98807969Y-464162583D01*
X98795553Y-464155142D01*
X98783927Y-464146519D01*
X98773202Y-464136798D01*
X98763481Y-464126073D01*
X98754858Y-464114447D01*
X98747417Y-464102031D01*
X98741228Y-464088946D01*
X98736351Y-464075317D01*
X98732834Y-464061276D01*
X98730710Y-464046958D01*
X98730000Y-464032500D01*
X98730000Y-463687500D01*
X98730710Y-463673042D01*
X98732834Y-463658724D01*
X98736351Y-463644683D01*
X98741228Y-463631054D01*
X98747417Y-463617969D01*
X98754858Y-463605553D01*
X98763481Y-463593927D01*
X98773202Y-463583202D01*
X98783927Y-463573481D01*
X98795553Y-463564858D01*
X98807969Y-463557417D01*
X98821054Y-463551228D01*
X98834683Y-463546351D01*
X98848724Y-463542834D01*
X98863042Y-463540710D01*
X98877500Y-463540000D01*
X99172500Y-463540000D01*
X99186958Y-463540710D01*
X99186958Y-463540710D01*
G37*
D11*
X99025000Y-463860000D03*
D10*
G36*
X105201958Y-439455710D02*
G01*
X105216276Y-439457834D01*
X105230317Y-439461351D01*
X105243946Y-439466228D01*
X105257031Y-439472417D01*
X105269447Y-439479858D01*
X105281073Y-439488481D01*
X105291798Y-439498202D01*
X105301519Y-439508927D01*
X105310142Y-439520553D01*
X105317583Y-439532969D01*
X105323772Y-439546054D01*
X105328649Y-439559683D01*
X105332166Y-439573724D01*
X105334290Y-439588042D01*
X105335000Y-439602500D01*
X105335000Y-439947500D01*
X105334290Y-439961958D01*
X105332166Y-439976276D01*
X105328649Y-439990317D01*
X105323772Y-440003946D01*
X105317583Y-440017031D01*
X105310142Y-440029447D01*
X105301519Y-440041073D01*
X105291798Y-440051798D01*
X105281073Y-440061519D01*
X105269447Y-440070142D01*
X105257031Y-440077583D01*
X105243946Y-440083772D01*
X105230317Y-440088649D01*
X105216276Y-440092166D01*
X105201958Y-440094290D01*
X105187500Y-440095000D01*
X104892500Y-440095000D01*
X104878042Y-440094290D01*
X104863724Y-440092166D01*
X104849683Y-440088649D01*
X104836054Y-440083772D01*
X104822969Y-440077583D01*
X104810553Y-440070142D01*
X104798927Y-440061519D01*
X104788202Y-440051798D01*
X104778481Y-440041073D01*
X104769858Y-440029447D01*
X104762417Y-440017031D01*
X104756228Y-440003946D01*
X104751351Y-439990317D01*
X104747834Y-439976276D01*
X104745710Y-439961958D01*
X104745000Y-439947500D01*
X104745000Y-439602500D01*
X104745710Y-439588042D01*
X104747834Y-439573724D01*
X104751351Y-439559683D01*
X104756228Y-439546054D01*
X104762417Y-439532969D01*
X104769858Y-439520553D01*
X104778481Y-439508927D01*
X104788202Y-439498202D01*
X104798927Y-439488481D01*
X104810553Y-439479858D01*
X104822969Y-439472417D01*
X104836054Y-439466228D01*
X104849683Y-439461351D01*
X104863724Y-439457834D01*
X104878042Y-439455710D01*
X104892500Y-439455000D01*
X105187500Y-439455000D01*
X105201958Y-439455710D01*
X105201958Y-439455710D01*
G37*
D11*
X105040000Y-439775000D03*
D10*
G36*
X106171958Y-439455710D02*
G01*
X106186276Y-439457834D01*
X106200317Y-439461351D01*
X106213946Y-439466228D01*
X106227031Y-439472417D01*
X106239447Y-439479858D01*
X106251073Y-439488481D01*
X106261798Y-439498202D01*
X106271519Y-439508927D01*
X106280142Y-439520553D01*
X106287583Y-439532969D01*
X106293772Y-439546054D01*
X106298649Y-439559683D01*
X106302166Y-439573724D01*
X106304290Y-439588042D01*
X106305000Y-439602500D01*
X106305000Y-439947500D01*
X106304290Y-439961958D01*
X106302166Y-439976276D01*
X106298649Y-439990317D01*
X106293772Y-440003946D01*
X106287583Y-440017031D01*
X106280142Y-440029447D01*
X106271519Y-440041073D01*
X106261798Y-440051798D01*
X106251073Y-440061519D01*
X106239447Y-440070142D01*
X106227031Y-440077583D01*
X106213946Y-440083772D01*
X106200317Y-440088649D01*
X106186276Y-440092166D01*
X106171958Y-440094290D01*
X106157500Y-440095000D01*
X105862500Y-440095000D01*
X105848042Y-440094290D01*
X105833724Y-440092166D01*
X105819683Y-440088649D01*
X105806054Y-440083772D01*
X105792969Y-440077583D01*
X105780553Y-440070142D01*
X105768927Y-440061519D01*
X105758202Y-440051798D01*
X105748481Y-440041073D01*
X105739858Y-440029447D01*
X105732417Y-440017031D01*
X105726228Y-440003946D01*
X105721351Y-439990317D01*
X105717834Y-439976276D01*
X105715710Y-439961958D01*
X105715000Y-439947500D01*
X105715000Y-439602500D01*
X105715710Y-439588042D01*
X105717834Y-439573724D01*
X105721351Y-439559683D01*
X105726228Y-439546054D01*
X105732417Y-439532969D01*
X105739858Y-439520553D01*
X105748481Y-439508927D01*
X105758202Y-439498202D01*
X105768927Y-439488481D01*
X105780553Y-439479858D01*
X105792969Y-439472417D01*
X105806054Y-439466228D01*
X105819683Y-439461351D01*
X105833724Y-439457834D01*
X105848042Y-439455710D01*
X105862500Y-439455000D01*
X106157500Y-439455000D01*
X106171958Y-439455710D01*
X106171958Y-439455710D01*
G37*
D11*
X106010000Y-439775000D03*
D10*
G36*
X106121958Y-465750710D02*
G01*
X106136276Y-465752834D01*
X106150317Y-465756351D01*
X106163946Y-465761228D01*
X106177031Y-465767417D01*
X106189447Y-465774858D01*
X106201073Y-465783481D01*
X106211798Y-465793202D01*
X106221519Y-465803927D01*
X106230142Y-465815553D01*
X106237583Y-465827969D01*
X106243772Y-465841054D01*
X106248649Y-465854683D01*
X106252166Y-465868724D01*
X106254290Y-465883042D01*
X106255000Y-465897500D01*
X106255000Y-466242500D01*
X106254290Y-466256958D01*
X106252166Y-466271276D01*
X106248649Y-466285317D01*
X106243772Y-466298946D01*
X106237583Y-466312031D01*
X106230142Y-466324447D01*
X106221519Y-466336073D01*
X106211798Y-466346798D01*
X106201073Y-466356519D01*
X106189447Y-466365142D01*
X106177031Y-466372583D01*
X106163946Y-466378772D01*
X106150317Y-466383649D01*
X106136276Y-466387166D01*
X106121958Y-466389290D01*
X106107500Y-466390000D01*
X105812500Y-466390000D01*
X105798042Y-466389290D01*
X105783724Y-466387166D01*
X105769683Y-466383649D01*
X105756054Y-466378772D01*
X105742969Y-466372583D01*
X105730553Y-466365142D01*
X105718927Y-466356519D01*
X105708202Y-466346798D01*
X105698481Y-466336073D01*
X105689858Y-466324447D01*
X105682417Y-466312031D01*
X105676228Y-466298946D01*
X105671351Y-466285317D01*
X105667834Y-466271276D01*
X105665710Y-466256958D01*
X105665000Y-466242500D01*
X105665000Y-465897500D01*
X105665710Y-465883042D01*
X105667834Y-465868724D01*
X105671351Y-465854683D01*
X105676228Y-465841054D01*
X105682417Y-465827969D01*
X105689858Y-465815553D01*
X105698481Y-465803927D01*
X105708202Y-465793202D01*
X105718927Y-465783481D01*
X105730553Y-465774858D01*
X105742969Y-465767417D01*
X105756054Y-465761228D01*
X105769683Y-465756351D01*
X105783724Y-465752834D01*
X105798042Y-465750710D01*
X105812500Y-465750000D01*
X106107500Y-465750000D01*
X106121958Y-465750710D01*
X106121958Y-465750710D01*
G37*
D11*
X105960000Y-466070000D03*
D10*
G36*
X107091958Y-465750710D02*
G01*
X107106276Y-465752834D01*
X107120317Y-465756351D01*
X107133946Y-465761228D01*
X107147031Y-465767417D01*
X107159447Y-465774858D01*
X107171073Y-465783481D01*
X107181798Y-465793202D01*
X107191519Y-465803927D01*
X107200142Y-465815553D01*
X107207583Y-465827969D01*
X107213772Y-465841054D01*
X107218649Y-465854683D01*
X107222166Y-465868724D01*
X107224290Y-465883042D01*
X107225000Y-465897500D01*
X107225000Y-466242500D01*
X107224290Y-466256958D01*
X107222166Y-466271276D01*
X107218649Y-466285317D01*
X107213772Y-466298946D01*
X107207583Y-466312031D01*
X107200142Y-466324447D01*
X107191519Y-466336073D01*
X107181798Y-466346798D01*
X107171073Y-466356519D01*
X107159447Y-466365142D01*
X107147031Y-466372583D01*
X107133946Y-466378772D01*
X107120317Y-466383649D01*
X107106276Y-466387166D01*
X107091958Y-466389290D01*
X107077500Y-466390000D01*
X106782500Y-466390000D01*
X106768042Y-466389290D01*
X106753724Y-466387166D01*
X106739683Y-466383649D01*
X106726054Y-466378772D01*
X106712969Y-466372583D01*
X106700553Y-466365142D01*
X106688927Y-466356519D01*
X106678202Y-466346798D01*
X106668481Y-466336073D01*
X106659858Y-466324447D01*
X106652417Y-466312031D01*
X106646228Y-466298946D01*
X106641351Y-466285317D01*
X106637834Y-466271276D01*
X106635710Y-466256958D01*
X106635000Y-466242500D01*
X106635000Y-465897500D01*
X106635710Y-465883042D01*
X106637834Y-465868724D01*
X106641351Y-465854683D01*
X106646228Y-465841054D01*
X106652417Y-465827969D01*
X106659858Y-465815553D01*
X106668481Y-465803927D01*
X106678202Y-465793202D01*
X106688927Y-465783481D01*
X106700553Y-465774858D01*
X106712969Y-465767417D01*
X106726054Y-465761228D01*
X106739683Y-465756351D01*
X106753724Y-465752834D01*
X106768042Y-465750710D01*
X106782500Y-465750000D01*
X107077500Y-465750000D01*
X107091958Y-465750710D01*
X107091958Y-465750710D01*
G37*
D11*
X106930000Y-466070000D03*
D10*
G36*
X108836958Y-455535710D02*
G01*
X108851276Y-455537834D01*
X108865317Y-455541351D01*
X108878946Y-455546228D01*
X108892031Y-455552417D01*
X108904447Y-455559858D01*
X108916073Y-455568481D01*
X108926798Y-455578202D01*
X108936519Y-455588927D01*
X108945142Y-455600553D01*
X108952583Y-455612969D01*
X108958772Y-455626054D01*
X108963649Y-455639683D01*
X108967166Y-455653724D01*
X108969290Y-455668042D01*
X108970000Y-455682500D01*
X108970000Y-455977500D01*
X108969290Y-455991958D01*
X108967166Y-456006276D01*
X108963649Y-456020317D01*
X108958772Y-456033946D01*
X108952583Y-456047031D01*
X108945142Y-456059447D01*
X108936519Y-456071073D01*
X108926798Y-456081798D01*
X108916073Y-456091519D01*
X108904447Y-456100142D01*
X108892031Y-456107583D01*
X108878946Y-456113772D01*
X108865317Y-456118649D01*
X108851276Y-456122166D01*
X108836958Y-456124290D01*
X108822500Y-456125000D01*
X108477500Y-456125000D01*
X108463042Y-456124290D01*
X108448724Y-456122166D01*
X108434683Y-456118649D01*
X108421054Y-456113772D01*
X108407969Y-456107583D01*
X108395553Y-456100142D01*
X108383927Y-456091519D01*
X108373202Y-456081798D01*
X108363481Y-456071073D01*
X108354858Y-456059447D01*
X108347417Y-456047031D01*
X108341228Y-456033946D01*
X108336351Y-456020317D01*
X108332834Y-456006276D01*
X108330710Y-455991958D01*
X108330000Y-455977500D01*
X108330000Y-455682500D01*
X108330710Y-455668042D01*
X108332834Y-455653724D01*
X108336351Y-455639683D01*
X108341228Y-455626054D01*
X108347417Y-455612969D01*
X108354858Y-455600553D01*
X108363481Y-455588927D01*
X108373202Y-455578202D01*
X108383927Y-455568481D01*
X108395553Y-455559858D01*
X108407969Y-455552417D01*
X108421054Y-455546228D01*
X108434683Y-455541351D01*
X108448724Y-455537834D01*
X108463042Y-455535710D01*
X108477500Y-455535000D01*
X108822500Y-455535000D01*
X108836958Y-455535710D01*
X108836958Y-455535710D01*
G37*
D11*
X108650000Y-455830000D03*
D10*
G36*
X108836958Y-456505710D02*
G01*
X108851276Y-456507834D01*
X108865317Y-456511351D01*
X108878946Y-456516228D01*
X108892031Y-456522417D01*
X108904447Y-456529858D01*
X108916073Y-456538481D01*
X108926798Y-456548202D01*
X108936519Y-456558927D01*
X108945142Y-456570553D01*
X108952583Y-456582969D01*
X108958772Y-456596054D01*
X108963649Y-456609683D01*
X108967166Y-456623724D01*
X108969290Y-456638042D01*
X108970000Y-456652500D01*
X108970000Y-456947500D01*
X108969290Y-456961958D01*
X108967166Y-456976276D01*
X108963649Y-456990317D01*
X108958772Y-457003946D01*
X108952583Y-457017031D01*
X108945142Y-457029447D01*
X108936519Y-457041073D01*
X108926798Y-457051798D01*
X108916073Y-457061519D01*
X108904447Y-457070142D01*
X108892031Y-457077583D01*
X108878946Y-457083772D01*
X108865317Y-457088649D01*
X108851276Y-457092166D01*
X108836958Y-457094290D01*
X108822500Y-457095000D01*
X108477500Y-457095000D01*
X108463042Y-457094290D01*
X108448724Y-457092166D01*
X108434683Y-457088649D01*
X108421054Y-457083772D01*
X108407969Y-457077583D01*
X108395553Y-457070142D01*
X108383927Y-457061519D01*
X108373202Y-457051798D01*
X108363481Y-457041073D01*
X108354858Y-457029447D01*
X108347417Y-457017031D01*
X108341228Y-457003946D01*
X108336351Y-456990317D01*
X108332834Y-456976276D01*
X108330710Y-456961958D01*
X108330000Y-456947500D01*
X108330000Y-456652500D01*
X108330710Y-456638042D01*
X108332834Y-456623724D01*
X108336351Y-456609683D01*
X108341228Y-456596054D01*
X108347417Y-456582969D01*
X108354858Y-456570553D01*
X108363481Y-456558927D01*
X108373202Y-456548202D01*
X108383927Y-456538481D01*
X108395553Y-456529858D01*
X108407969Y-456522417D01*
X108421054Y-456516228D01*
X108434683Y-456511351D01*
X108448724Y-456507834D01*
X108463042Y-456505710D01*
X108477500Y-456505000D01*
X108822500Y-456505000D01*
X108836958Y-456505710D01*
X108836958Y-456505710D01*
G37*
D11*
X108650000Y-456800000D03*
D10*
G36*
X121796958Y-460930710D02*
G01*
X121811276Y-460932834D01*
X121825317Y-460936351D01*
X121838946Y-460941228D01*
X121852031Y-460947417D01*
X121864447Y-460954858D01*
X121876073Y-460963481D01*
X121886798Y-460973202D01*
X121896519Y-460983927D01*
X121905142Y-460995553D01*
X121912583Y-461007969D01*
X121918772Y-461021054D01*
X121923649Y-461034683D01*
X121927166Y-461048724D01*
X121929290Y-461063042D01*
X121930000Y-461077500D01*
X121930000Y-461422500D01*
X121929290Y-461436958D01*
X121927166Y-461451276D01*
X121923649Y-461465317D01*
X121918772Y-461478946D01*
X121912583Y-461492031D01*
X121905142Y-461504447D01*
X121896519Y-461516073D01*
X121886798Y-461526798D01*
X121876073Y-461536519D01*
X121864447Y-461545142D01*
X121852031Y-461552583D01*
X121838946Y-461558772D01*
X121825317Y-461563649D01*
X121811276Y-461567166D01*
X121796958Y-461569290D01*
X121782500Y-461570000D01*
X121487500Y-461570000D01*
X121473042Y-461569290D01*
X121458724Y-461567166D01*
X121444683Y-461563649D01*
X121431054Y-461558772D01*
X121417969Y-461552583D01*
X121405553Y-461545142D01*
X121393927Y-461536519D01*
X121383202Y-461526798D01*
X121373481Y-461516073D01*
X121364858Y-461504447D01*
X121357417Y-461492031D01*
X121351228Y-461478946D01*
X121346351Y-461465317D01*
X121342834Y-461451276D01*
X121340710Y-461436958D01*
X121340000Y-461422500D01*
X121340000Y-461077500D01*
X121340710Y-461063042D01*
X121342834Y-461048724D01*
X121346351Y-461034683D01*
X121351228Y-461021054D01*
X121357417Y-461007969D01*
X121364858Y-460995553D01*
X121373481Y-460983927D01*
X121383202Y-460973202D01*
X121393927Y-460963481D01*
X121405553Y-460954858D01*
X121417969Y-460947417D01*
X121431054Y-460941228D01*
X121444683Y-460936351D01*
X121458724Y-460932834D01*
X121473042Y-460930710D01*
X121487500Y-460930000D01*
X121782500Y-460930000D01*
X121796958Y-460930710D01*
X121796958Y-460930710D01*
G37*
D11*
X121635000Y-461250000D03*
D10*
G36*
X120826958Y-460930710D02*
G01*
X120841276Y-460932834D01*
X120855317Y-460936351D01*
X120868946Y-460941228D01*
X120882031Y-460947417D01*
X120894447Y-460954858D01*
X120906073Y-460963481D01*
X120916798Y-460973202D01*
X120926519Y-460983927D01*
X120935142Y-460995553D01*
X120942583Y-461007969D01*
X120948772Y-461021054D01*
X120953649Y-461034683D01*
X120957166Y-461048724D01*
X120959290Y-461063042D01*
X120960000Y-461077500D01*
X120960000Y-461422500D01*
X120959290Y-461436958D01*
X120957166Y-461451276D01*
X120953649Y-461465317D01*
X120948772Y-461478946D01*
X120942583Y-461492031D01*
X120935142Y-461504447D01*
X120926519Y-461516073D01*
X120916798Y-461526798D01*
X120906073Y-461536519D01*
X120894447Y-461545142D01*
X120882031Y-461552583D01*
X120868946Y-461558772D01*
X120855317Y-461563649D01*
X120841276Y-461567166D01*
X120826958Y-461569290D01*
X120812500Y-461570000D01*
X120517500Y-461570000D01*
X120503042Y-461569290D01*
X120488724Y-461567166D01*
X120474683Y-461563649D01*
X120461054Y-461558772D01*
X120447969Y-461552583D01*
X120435553Y-461545142D01*
X120423927Y-461536519D01*
X120413202Y-461526798D01*
X120403481Y-461516073D01*
X120394858Y-461504447D01*
X120387417Y-461492031D01*
X120381228Y-461478946D01*
X120376351Y-461465317D01*
X120372834Y-461451276D01*
X120370710Y-461436958D01*
X120370000Y-461422500D01*
X120370000Y-461077500D01*
X120370710Y-461063042D01*
X120372834Y-461048724D01*
X120376351Y-461034683D01*
X120381228Y-461021054D01*
X120387417Y-461007969D01*
X120394858Y-460995553D01*
X120403481Y-460983927D01*
X120413202Y-460973202D01*
X120423927Y-460963481D01*
X120435553Y-460954858D01*
X120447969Y-460947417D01*
X120461054Y-460941228D01*
X120474683Y-460936351D01*
X120488724Y-460932834D01*
X120503042Y-460930710D01*
X120517500Y-460930000D01*
X120812500Y-460930000D01*
X120826958Y-460930710D01*
X120826958Y-460930710D01*
G37*
D11*
X120665000Y-461250000D03*
D10*
G36*
X121796958Y-459930710D02*
G01*
X121811276Y-459932834D01*
X121825317Y-459936351D01*
X121838946Y-459941228D01*
X121852031Y-459947417D01*
X121864447Y-459954858D01*
X121876073Y-459963481D01*
X121886798Y-459973202D01*
X121896519Y-459983927D01*
X121905142Y-459995553D01*
X121912583Y-460007969D01*
X121918772Y-460021054D01*
X121923649Y-460034683D01*
X121927166Y-460048724D01*
X121929290Y-460063042D01*
X121930000Y-460077500D01*
X121930000Y-460422500D01*
X121929290Y-460436958D01*
X121927166Y-460451276D01*
X121923649Y-460465317D01*
X121918772Y-460478946D01*
X121912583Y-460492031D01*
X121905142Y-460504447D01*
X121896519Y-460516073D01*
X121886798Y-460526798D01*
X121876073Y-460536519D01*
X121864447Y-460545142D01*
X121852031Y-460552583D01*
X121838946Y-460558772D01*
X121825317Y-460563649D01*
X121811276Y-460567166D01*
X121796958Y-460569290D01*
X121782500Y-460570000D01*
X121487500Y-460570000D01*
X121473042Y-460569290D01*
X121458724Y-460567166D01*
X121444683Y-460563649D01*
X121431054Y-460558772D01*
X121417969Y-460552583D01*
X121405553Y-460545142D01*
X121393927Y-460536519D01*
X121383202Y-460526798D01*
X121373481Y-460516073D01*
X121364858Y-460504447D01*
X121357417Y-460492031D01*
X121351228Y-460478946D01*
X121346351Y-460465317D01*
X121342834Y-460451276D01*
X121340710Y-460436958D01*
X121340000Y-460422500D01*
X121340000Y-460077500D01*
X121340710Y-460063042D01*
X121342834Y-460048724D01*
X121346351Y-460034683D01*
X121351228Y-460021054D01*
X121357417Y-460007969D01*
X121364858Y-459995553D01*
X121373481Y-459983927D01*
X121383202Y-459973202D01*
X121393927Y-459963481D01*
X121405553Y-459954858D01*
X121417969Y-459947417D01*
X121431054Y-459941228D01*
X121444683Y-459936351D01*
X121458724Y-459932834D01*
X121473042Y-459930710D01*
X121487500Y-459930000D01*
X121782500Y-459930000D01*
X121796958Y-459930710D01*
X121796958Y-459930710D01*
G37*
D11*
X121635000Y-460250000D03*
D10*
G36*
X120826958Y-459930710D02*
G01*
X120841276Y-459932834D01*
X120855317Y-459936351D01*
X120868946Y-459941228D01*
X120882031Y-459947417D01*
X120894447Y-459954858D01*
X120906073Y-459963481D01*
X120916798Y-459973202D01*
X120926519Y-459983927D01*
X120935142Y-459995553D01*
X120942583Y-460007969D01*
X120948772Y-460021054D01*
X120953649Y-460034683D01*
X120957166Y-460048724D01*
X120959290Y-460063042D01*
X120960000Y-460077500D01*
X120960000Y-460422500D01*
X120959290Y-460436958D01*
X120957166Y-460451276D01*
X120953649Y-460465317D01*
X120948772Y-460478946D01*
X120942583Y-460492031D01*
X120935142Y-460504447D01*
X120926519Y-460516073D01*
X120916798Y-460526798D01*
X120906073Y-460536519D01*
X120894447Y-460545142D01*
X120882031Y-460552583D01*
X120868946Y-460558772D01*
X120855317Y-460563649D01*
X120841276Y-460567166D01*
X120826958Y-460569290D01*
X120812500Y-460570000D01*
X120517500Y-460570000D01*
X120503042Y-460569290D01*
X120488724Y-460567166D01*
X120474683Y-460563649D01*
X120461054Y-460558772D01*
X120447969Y-460552583D01*
X120435553Y-460545142D01*
X120423927Y-460536519D01*
X120413202Y-460526798D01*
X120403481Y-460516073D01*
X120394858Y-460504447D01*
X120387417Y-460492031D01*
X120381228Y-460478946D01*
X120376351Y-460465317D01*
X120372834Y-460451276D01*
X120370710Y-460436958D01*
X120370000Y-460422500D01*
X120370000Y-460077500D01*
X120370710Y-460063042D01*
X120372834Y-460048724D01*
X120376351Y-460034683D01*
X120381228Y-460021054D01*
X120387417Y-460007969D01*
X120394858Y-459995553D01*
X120403481Y-459983927D01*
X120413202Y-459973202D01*
X120423927Y-459963481D01*
X120435553Y-459954858D01*
X120447969Y-459947417D01*
X120461054Y-459941228D01*
X120474683Y-459936351D01*
X120488724Y-459932834D01*
X120503042Y-459930710D01*
X120517500Y-459930000D01*
X120812500Y-459930000D01*
X120826958Y-459930710D01*
X120826958Y-459930710D01*
G37*
D11*
X120665000Y-460250000D03*
D10*
G36*
X106091958Y-462230710D02*
G01*
X106106276Y-462232834D01*
X106120317Y-462236351D01*
X106133946Y-462241228D01*
X106147031Y-462247417D01*
X106159447Y-462254858D01*
X106171073Y-462263481D01*
X106181798Y-462273202D01*
X106191519Y-462283927D01*
X106200142Y-462295553D01*
X106207583Y-462307969D01*
X106213772Y-462321054D01*
X106218649Y-462334683D01*
X106222166Y-462348724D01*
X106224290Y-462363042D01*
X106225000Y-462377500D01*
X106225000Y-462722500D01*
X106224290Y-462736958D01*
X106222166Y-462751276D01*
X106218649Y-462765317D01*
X106213772Y-462778946D01*
X106207583Y-462792031D01*
X106200142Y-462804447D01*
X106191519Y-462816073D01*
X106181798Y-462826798D01*
X106171073Y-462836519D01*
X106159447Y-462845142D01*
X106147031Y-462852583D01*
X106133946Y-462858772D01*
X106120317Y-462863649D01*
X106106276Y-462867166D01*
X106091958Y-462869290D01*
X106077500Y-462870000D01*
X105782500Y-462870000D01*
X105768042Y-462869290D01*
X105753724Y-462867166D01*
X105739683Y-462863649D01*
X105726054Y-462858772D01*
X105712969Y-462852583D01*
X105700553Y-462845142D01*
X105688927Y-462836519D01*
X105678202Y-462826798D01*
X105668481Y-462816073D01*
X105659858Y-462804447D01*
X105652417Y-462792031D01*
X105646228Y-462778946D01*
X105641351Y-462765317D01*
X105637834Y-462751276D01*
X105635710Y-462736958D01*
X105635000Y-462722500D01*
X105635000Y-462377500D01*
X105635710Y-462363042D01*
X105637834Y-462348724D01*
X105641351Y-462334683D01*
X105646228Y-462321054D01*
X105652417Y-462307969D01*
X105659858Y-462295553D01*
X105668481Y-462283927D01*
X105678202Y-462273202D01*
X105688927Y-462263481D01*
X105700553Y-462254858D01*
X105712969Y-462247417D01*
X105726054Y-462241228D01*
X105739683Y-462236351D01*
X105753724Y-462232834D01*
X105768042Y-462230710D01*
X105782500Y-462230000D01*
X106077500Y-462230000D01*
X106091958Y-462230710D01*
X106091958Y-462230710D01*
G37*
D11*
X105930000Y-462550000D03*
D10*
G36*
X107061958Y-462230710D02*
G01*
X107076276Y-462232834D01*
X107090317Y-462236351D01*
X107103946Y-462241228D01*
X107117031Y-462247417D01*
X107129447Y-462254858D01*
X107141073Y-462263481D01*
X107151798Y-462273202D01*
X107161519Y-462283927D01*
X107170142Y-462295553D01*
X107177583Y-462307969D01*
X107183772Y-462321054D01*
X107188649Y-462334683D01*
X107192166Y-462348724D01*
X107194290Y-462363042D01*
X107195000Y-462377500D01*
X107195000Y-462722500D01*
X107194290Y-462736958D01*
X107192166Y-462751276D01*
X107188649Y-462765317D01*
X107183772Y-462778946D01*
X107177583Y-462792031D01*
X107170142Y-462804447D01*
X107161519Y-462816073D01*
X107151798Y-462826798D01*
X107141073Y-462836519D01*
X107129447Y-462845142D01*
X107117031Y-462852583D01*
X107103946Y-462858772D01*
X107090317Y-462863649D01*
X107076276Y-462867166D01*
X107061958Y-462869290D01*
X107047500Y-462870000D01*
X106752500Y-462870000D01*
X106738042Y-462869290D01*
X106723724Y-462867166D01*
X106709683Y-462863649D01*
X106696054Y-462858772D01*
X106682969Y-462852583D01*
X106670553Y-462845142D01*
X106658927Y-462836519D01*
X106648202Y-462826798D01*
X106638481Y-462816073D01*
X106629858Y-462804447D01*
X106622417Y-462792031D01*
X106616228Y-462778946D01*
X106611351Y-462765317D01*
X106607834Y-462751276D01*
X106605710Y-462736958D01*
X106605000Y-462722500D01*
X106605000Y-462377500D01*
X106605710Y-462363042D01*
X106607834Y-462348724D01*
X106611351Y-462334683D01*
X106616228Y-462321054D01*
X106622417Y-462307969D01*
X106629858Y-462295553D01*
X106638481Y-462283927D01*
X106648202Y-462273202D01*
X106658927Y-462263481D01*
X106670553Y-462254858D01*
X106682969Y-462247417D01*
X106696054Y-462241228D01*
X106709683Y-462236351D01*
X106723724Y-462232834D01*
X106738042Y-462230710D01*
X106752500Y-462230000D01*
X107047500Y-462230000D01*
X107061958Y-462230710D01*
X107061958Y-462230710D01*
G37*
D11*
X106900000Y-462550000D03*
D10*
G36*
X114816958Y-468420710D02*
G01*
X114831276Y-468422834D01*
X114845317Y-468426351D01*
X114858946Y-468431228D01*
X114872031Y-468437417D01*
X114884447Y-468444858D01*
X114896073Y-468453481D01*
X114906798Y-468463202D01*
X114916519Y-468473927D01*
X114925142Y-468485553D01*
X114932583Y-468497969D01*
X114938772Y-468511054D01*
X114943649Y-468524683D01*
X114947166Y-468538724D01*
X114949290Y-468553042D01*
X114950000Y-468567500D01*
X114950000Y-468862500D01*
X114949290Y-468876958D01*
X114947166Y-468891276D01*
X114943649Y-468905317D01*
X114938772Y-468918946D01*
X114932583Y-468932031D01*
X114925142Y-468944447D01*
X114916519Y-468956073D01*
X114906798Y-468966798D01*
X114896073Y-468976519D01*
X114884447Y-468985142D01*
X114872031Y-468992583D01*
X114858946Y-468998772D01*
X114845317Y-469003649D01*
X114831276Y-469007166D01*
X114816958Y-469009290D01*
X114802500Y-469010000D01*
X114457500Y-469010000D01*
X114443042Y-469009290D01*
X114428724Y-469007166D01*
X114414683Y-469003649D01*
X114401054Y-468998772D01*
X114387969Y-468992583D01*
X114375553Y-468985142D01*
X114363927Y-468976519D01*
X114353202Y-468966798D01*
X114343481Y-468956073D01*
X114334858Y-468944447D01*
X114327417Y-468932031D01*
X114321228Y-468918946D01*
X114316351Y-468905317D01*
X114312834Y-468891276D01*
X114310710Y-468876958D01*
X114310000Y-468862500D01*
X114310000Y-468567500D01*
X114310710Y-468553042D01*
X114312834Y-468538724D01*
X114316351Y-468524683D01*
X114321228Y-468511054D01*
X114327417Y-468497969D01*
X114334858Y-468485553D01*
X114343481Y-468473927D01*
X114353202Y-468463202D01*
X114363927Y-468453481D01*
X114375553Y-468444858D01*
X114387969Y-468437417D01*
X114401054Y-468431228D01*
X114414683Y-468426351D01*
X114428724Y-468422834D01*
X114443042Y-468420710D01*
X114457500Y-468420000D01*
X114802500Y-468420000D01*
X114816958Y-468420710D01*
X114816958Y-468420710D01*
G37*
D11*
X114630000Y-468715000D03*
D10*
G36*
X114816958Y-467450710D02*
G01*
X114831276Y-467452834D01*
X114845317Y-467456351D01*
X114858946Y-467461228D01*
X114872031Y-467467417D01*
X114884447Y-467474858D01*
X114896073Y-467483481D01*
X114906798Y-467493202D01*
X114916519Y-467503927D01*
X114925142Y-467515553D01*
X114932583Y-467527969D01*
X114938772Y-467541054D01*
X114943649Y-467554683D01*
X114947166Y-467568724D01*
X114949290Y-467583042D01*
X114950000Y-467597500D01*
X114950000Y-467892500D01*
X114949290Y-467906958D01*
X114947166Y-467921276D01*
X114943649Y-467935317D01*
X114938772Y-467948946D01*
X114932583Y-467962031D01*
X114925142Y-467974447D01*
X114916519Y-467986073D01*
X114906798Y-467996798D01*
X114896073Y-468006519D01*
X114884447Y-468015142D01*
X114872031Y-468022583D01*
X114858946Y-468028772D01*
X114845317Y-468033649D01*
X114831276Y-468037166D01*
X114816958Y-468039290D01*
X114802500Y-468040000D01*
X114457500Y-468040000D01*
X114443042Y-468039290D01*
X114428724Y-468037166D01*
X114414683Y-468033649D01*
X114401054Y-468028772D01*
X114387969Y-468022583D01*
X114375553Y-468015142D01*
X114363927Y-468006519D01*
X114353202Y-467996798D01*
X114343481Y-467986073D01*
X114334858Y-467974447D01*
X114327417Y-467962031D01*
X114321228Y-467948946D01*
X114316351Y-467935317D01*
X114312834Y-467921276D01*
X114310710Y-467906958D01*
X114310000Y-467892500D01*
X114310000Y-467597500D01*
X114310710Y-467583042D01*
X114312834Y-467568724D01*
X114316351Y-467554683D01*
X114321228Y-467541054D01*
X114327417Y-467527969D01*
X114334858Y-467515553D01*
X114343481Y-467503927D01*
X114353202Y-467493202D01*
X114363927Y-467483481D01*
X114375553Y-467474858D01*
X114387969Y-467467417D01*
X114401054Y-467461228D01*
X114414683Y-467456351D01*
X114428724Y-467452834D01*
X114443042Y-467450710D01*
X114457500Y-467450000D01*
X114802500Y-467450000D01*
X114816958Y-467450710D01*
X114816958Y-467450710D01*
G37*
D11*
X114630000Y-467745000D03*
D12*
X119120000Y-395950000D03*
X118320000Y-395950000D03*
X119120000Y-395950000D03*
X118320000Y-395950000D03*
X112720000Y-395950000D03*
X112720000Y-395950000D03*
X113520000Y-395950000D03*
X113520000Y-395950000D03*
D13*
X117670000Y-395950000D03*
X116670000Y-395950000D03*
X117170000Y-395950000D03*
X114670000Y-395950000D03*
X114170000Y-395950000D03*
X116170000Y-395950000D03*
X115670000Y-395950000D03*
X115170000Y-395950000D03*
D14*
X123807790Y-404962952D03*
X112257790Y-402762952D03*
X80257789Y-439562953D03*
X91807789Y-441762953D03*
X98757790Y-396062952D03*
X110307790Y-398262952D03*
X98757790Y-431062952D03*
X110307790Y-433262952D03*
X123807789Y-422462952D03*
X112257789Y-420262952D03*
X117257789Y-428062952D03*
X128807789Y-430262952D03*
X61757789Y-444562952D03*
X73307789Y-446762952D03*
X98757789Y-413562952D03*
X110307789Y-415762952D03*
D15*
X124750000Y-457700000D03*
X124750000Y-467200000D03*
D16*
X101750000Y-441825000D03*
X106350000Y-441825000D03*
X104050000Y-441825000D03*
D17*
X104050000Y-448125000D03*
D18*
X82224713Y-462300593D03*
D10*
G36*
X82764981Y-462988877D02*
G01*
X81412685Y-462626531D01*
X81684445Y-461612309D01*
X83036741Y-461974655D01*
X82764981Y-462988877D01*
X82764981Y-462988877D01*
G37*
D18*
X85702046Y-463232342D03*
D10*
G36*
X86242314Y-463920626D02*
G01*
X84890018Y-463558280D01*
X85161778Y-462544058D01*
X86514074Y-462906404D01*
X86242314Y-463920626D01*
X86242314Y-463920626D01*
G37*
D18*
X82600000Y-460900000D03*
D10*
G36*
X83140268Y-461588284D02*
G01*
X81787972Y-461225938D01*
X82059732Y-460211716D01*
X83412028Y-460574062D01*
X83140268Y-461588284D01*
X83140268Y-461588284D01*
G37*
D18*
X86077333Y-461831749D03*
D10*
G36*
X86617601Y-462520033D02*
G01*
X85265305Y-462157687D01*
X85537065Y-461143465D01*
X86889361Y-461505811D01*
X86617601Y-462520033D01*
X86617601Y-462520033D01*
G37*
D19*
X99045000Y-462010000D03*
X100315000Y-462010000D03*
X101585000Y-462010000D03*
X102855000Y-462010000D03*
X102855000Y-454810000D03*
X101585000Y-454810000D03*
X100315000Y-454810000D03*
X99045000Y-454810000D03*
D20*
X112800000Y-462050000D03*
D21*
X109350000Y-459450000D03*
X109350000Y-459850000D03*
X109350000Y-460250000D03*
X109350000Y-460650000D03*
X109350000Y-461050000D03*
X109350000Y-461450000D03*
X109350000Y-461850000D03*
X109350000Y-462250000D03*
X109350000Y-462650000D03*
X109350000Y-463050000D03*
X109350000Y-463450000D03*
X109350000Y-463850000D03*
X109350000Y-464250000D03*
X109350000Y-464650000D03*
D22*
X110200000Y-465500000D03*
X110600000Y-465500000D03*
X111000000Y-465500000D03*
X111400000Y-465500000D03*
X111800000Y-465500000D03*
X112200000Y-465500000D03*
X112600000Y-465500000D03*
X113000000Y-465500000D03*
X113400000Y-465500000D03*
X113800000Y-465500000D03*
X114200000Y-465500000D03*
X114600000Y-465500000D03*
X115000000Y-465500000D03*
X115400000Y-465500000D03*
D21*
X116250000Y-464650000D03*
X116250000Y-464250000D03*
X116250000Y-463850000D03*
X116250000Y-463450000D03*
X116250000Y-463050000D03*
X116250000Y-462650000D03*
X116250000Y-462250000D03*
X116250000Y-461850000D03*
X116250000Y-461450000D03*
X116250000Y-461050000D03*
X116250000Y-460650000D03*
X116250000Y-460250000D03*
X116250000Y-459850000D03*
X116250000Y-459450000D03*
D22*
X115400000Y-458600000D03*
X115000000Y-458600000D03*
X114600000Y-458600000D03*
X114200000Y-458600000D03*
X113800000Y-458600000D03*
X113400000Y-458600000D03*
X113000000Y-458600000D03*
X112600000Y-458600000D03*
X112200000Y-458600000D03*
X111800000Y-458600000D03*
X111400000Y-458600000D03*
X111000000Y-458600000D03*
X110600000Y-458600000D03*
X110200000Y-458600000D03*
D10*
G36*
X109799504Y-406126204D02*
G01*
X109823773Y-406129804D01*
X109847571Y-406135765D01*
X109870671Y-406144030D01*
X109892849Y-406154520D01*
X109913893Y-406167133D01*
X109933598Y-406181747D01*
X109951777Y-406198223D01*
X109968253Y-406216402D01*
X109982867Y-406236107D01*
X109995480Y-406257151D01*
X110005970Y-406279329D01*
X110014235Y-406302429D01*
X110020196Y-406326227D01*
X110023796Y-406350496D01*
X110025000Y-406375000D01*
X110025000Y-407625000D01*
X110023796Y-407649504D01*
X110020196Y-407673773D01*
X110014235Y-407697571D01*
X110005970Y-407720671D01*
X109995480Y-407742849D01*
X109982867Y-407763893D01*
X109968253Y-407783598D01*
X109951777Y-407801777D01*
X109933598Y-407818253D01*
X109913893Y-407832867D01*
X109892849Y-407845480D01*
X109870671Y-407855970D01*
X109847571Y-407864235D01*
X109823773Y-407870196D01*
X109799504Y-407873796D01*
X109775000Y-407875000D01*
X109025000Y-407875000D01*
X109000496Y-407873796D01*
X108976227Y-407870196D01*
X108952429Y-407864235D01*
X108929329Y-407855970D01*
X108907151Y-407845480D01*
X108886107Y-407832867D01*
X108866402Y-407818253D01*
X108848223Y-407801777D01*
X108831747Y-407783598D01*
X108817133Y-407763893D01*
X108804520Y-407742849D01*
X108794030Y-407720671D01*
X108785765Y-407697571D01*
X108779804Y-407673773D01*
X108776204Y-407649504D01*
X108775000Y-407625000D01*
X108775000Y-406375000D01*
X108776204Y-406350496D01*
X108779804Y-406326227D01*
X108785765Y-406302429D01*
X108794030Y-406279329D01*
X108804520Y-406257151D01*
X108817133Y-406236107D01*
X108831747Y-406216402D01*
X108848223Y-406198223D01*
X108866402Y-406181747D01*
X108886107Y-406167133D01*
X108907151Y-406154520D01*
X108929329Y-406144030D01*
X108952429Y-406135765D01*
X108976227Y-406129804D01*
X109000496Y-406126204D01*
X109025000Y-406125000D01*
X109775000Y-406125000D01*
X109799504Y-406126204D01*
X109799504Y-406126204D01*
G37*
D23*
X109400000Y-407000000D03*
D10*
G36*
X112599504Y-406126204D02*
G01*
X112623773Y-406129804D01*
X112647571Y-406135765D01*
X112670671Y-406144030D01*
X112692849Y-406154520D01*
X112713893Y-406167133D01*
X112733598Y-406181747D01*
X112751777Y-406198223D01*
X112768253Y-406216402D01*
X112782867Y-406236107D01*
X112795480Y-406257151D01*
X112805970Y-406279329D01*
X112814235Y-406302429D01*
X112820196Y-406326227D01*
X112823796Y-406350496D01*
X112825000Y-406375000D01*
X112825000Y-407625000D01*
X112823796Y-407649504D01*
X112820196Y-407673773D01*
X112814235Y-407697571D01*
X112805970Y-407720671D01*
X112795480Y-407742849D01*
X112782867Y-407763893D01*
X112768253Y-407783598D01*
X112751777Y-407801777D01*
X112733598Y-407818253D01*
X112713893Y-407832867D01*
X112692849Y-407845480D01*
X112670671Y-407855970D01*
X112647571Y-407864235D01*
X112623773Y-407870196D01*
X112599504Y-407873796D01*
X112575000Y-407875000D01*
X111825000Y-407875000D01*
X111800496Y-407873796D01*
X111776227Y-407870196D01*
X111752429Y-407864235D01*
X111729329Y-407855970D01*
X111707151Y-407845480D01*
X111686107Y-407832867D01*
X111666402Y-407818253D01*
X111648223Y-407801777D01*
X111631747Y-407783598D01*
X111617133Y-407763893D01*
X111604520Y-407742849D01*
X111594030Y-407720671D01*
X111585765Y-407697571D01*
X111579804Y-407673773D01*
X111576204Y-407649504D01*
X111575000Y-407625000D01*
X111575000Y-406375000D01*
X111576204Y-406350496D01*
X111579804Y-406326227D01*
X111585765Y-406302429D01*
X111594030Y-406279329D01*
X111604520Y-406257151D01*
X111617133Y-406236107D01*
X111631747Y-406216402D01*
X111648223Y-406198223D01*
X111666402Y-406181747D01*
X111686107Y-406167133D01*
X111707151Y-406154520D01*
X111729329Y-406144030D01*
X111752429Y-406135765D01*
X111776227Y-406129804D01*
X111800496Y-406126204D01*
X111825000Y-406125000D01*
X112575000Y-406125000D01*
X112599504Y-406126204D01*
X112599504Y-406126204D01*
G37*
D23*
X112200000Y-407000000D03*
D18*
X75322667Y-460468251D03*
D10*
G36*
X75862935Y-461156535D02*
G01*
X74510639Y-460794189D01*
X74782399Y-459779967D01*
X76134695Y-460142313D01*
X75862935Y-461156535D01*
X75862935Y-461156535D01*
G37*
D18*
X78800000Y-461400000D03*
D10*
G36*
X79340268Y-462088284D02*
G01*
X77987972Y-461725938D01*
X78259732Y-460711716D01*
X79612028Y-461074062D01*
X79340268Y-462088284D01*
X79340268Y-462088284D01*
G37*
D18*
X75697954Y-459067658D03*
D10*
G36*
X76238222Y-459755942D02*
G01*
X74885926Y-459393596D01*
X75157686Y-458379374D01*
X76509982Y-458741720D01*
X76238222Y-459755942D01*
X76238222Y-459755942D01*
G37*
D18*
X79175287Y-459999407D03*
D10*
G36*
X79715555Y-460687691D02*
G01*
X78363259Y-460325345D01*
X78635019Y-459311123D01*
X79987315Y-459673469D01*
X79715555Y-460687691D01*
X79715555Y-460687691D01*
G37*
M02*
