M48
; DRILL file {KiCad (5.1.4)-1} date 1/28/2023 7:41:08 AM
; FORMAT={-:-/ absolute / metric / decimal}
; #@! TF.CreationDate,2023-01-28T07:41:08-05:00
; #@! TF.GenerationSoftware,Kicad,Pcbnew,(5.1.4)-1
; #@! TF.FileFunction,Plated,1,2,PTH
FMAT,2
METRIC
T1C0.400
T2C0.600
T3C1.000
T4C1.500
T5C1.600
T6C2.000
%
G90
G05
T1
X85.81Y-460.07
X96.49Y-463.07
X98.03Y-463.07
X98.758Y-440.083
X99.8Y-463.835
X104.04Y-451.63
X104.04Y-455.96
X104.164Y-465.0
X105.084Y-464.131
X106.825Y-448.117
X106.855Y-451.428
X107.146Y-463.88
X107.622Y-461.501
X107.654Y-441.528
X107.788Y-464.803
X107.825Y-451.512
X107.908Y-467.182
X107.967Y-463.326
X108.57Y-468.63
X108.807Y-444.791
X109.3Y-410.7
X109.624Y-457.092
X109.94Y-444.83
X112.226Y-408.508
X114.7Y-464.175
X114.766Y-453.974
X115.4Y-469.4
X115.484Y-455.0
X115.782Y-397.586
X116.764Y-397.297
X117.1Y-468.2
X117.7Y-465.0
X118.068Y-463.082
X119.0Y-465.8
X119.92Y-464.705
X120.1Y-466.8
X120.125Y-457.925
X121.5Y-462.25
X121.7Y-467.5
T3
X120.448Y-451.181
X122.988Y-451.181
X125.528Y-451.181
X128.068Y-451.181
X56.533Y-451.193
X56.533Y-453.733
X56.533Y-456.273
X56.533Y-458.813
X98.509Y-392.368
X101.049Y-392.368
X103.589Y-392.368
X106.129Y-392.368
X98.534Y-409.935
X101.074Y-409.935
X103.614Y-409.935
X106.154Y-409.935
X111.333Y-471.113
X113.786Y-471.77
X116.24Y-472.428
X118.693Y-473.085
X89.628Y-465.272
X90.285Y-462.818
X90.943Y-460.365
X91.6Y-457.911
X94.633Y-466.713
X97.086Y-467.37
X99.54Y-468.028
X101.993Y-468.685
X128.941Y-440.775
X128.941Y-443.315
X128.941Y-445.855
X128.941Y-448.395
X127.933Y-471.913
X128.59Y-469.459
X129.248Y-467.006
X129.905Y-464.553
X128.876Y-392.698
X128.876Y-395.238
X128.876Y-397.778
X128.876Y-400.318
X98.377Y-427.471
X100.917Y-427.471
X103.457Y-427.471
X105.997Y-427.471
T4
X125.825Y-408.088
X127.725Y-413.138
T5
X119.625Y-410.613
X126.625Y-410.613
T6
X118.425Y-413.013
T2
X111.6Y-390.8G85X111.6Y-391.6
G05
X111.6Y-394.82G85X111.6Y-395.92
G05
X120.24Y-390.8G85X120.24Y-391.6
G05
X120.24Y-394.82G85X120.24Y-395.92
G05
T0
M30
