M48
; DRILL file {KiCad (5.1.4)-1} date 1/28/2023 7:41:08 AM
; FORMAT={-:-/ absolute / metric / decimal}
; #@! TF.CreationDate,2023-01-28T07:41:08-05:00
; #@! TF.GenerationSoftware,Kicad,Pcbnew,(5.1.4)-1
; #@! TF.FileFunction,NonPlated,1,2,NPTH
FMAT,2
METRIC
T1C0.600
T2C1.702
T3C3.000
T4C3.429
%
G90
G05
T1
X113.03Y-394.89
X118.81Y-394.89
T2
X115.033Y-416.513
X126.033Y-416.513
X96.533Y-437.013
X107.533Y-437.013
X96.533Y-419.513
X107.533Y-419.513
X59.533Y-450.513
X70.533Y-450.513
X96.533Y-402.013
X107.533Y-402.013
X115.033Y-434.013
X126.033Y-434.013
X115.033Y-399.013
X126.033Y-399.013
X78.033Y-445.513
X89.033Y-445.513
T3
X115.533Y-420.263
X120.533Y-422.463
X102.033Y-431.063
X107.033Y-433.263
X102.033Y-413.563
X107.033Y-415.763
X65.033Y-444.563
X70.033Y-446.763
X102.033Y-396.063
X107.033Y-398.263
X120.533Y-428.063
X125.533Y-430.263
X115.533Y-402.763
X120.533Y-404.963
X83.533Y-439.563
X88.533Y-441.763
T4
X120.533Y-416.513
X102.033Y-437.013
X102.033Y-419.513
X65.033Y-450.513
X102.033Y-402.013
X120.533Y-434.013
X120.533Y-399.013
X83.533Y-445.513
T0
M30
