G04 #@! TF.GenerationSoftware,KiCad,Pcbnew,(5.1.4)-1*
G04 #@! TF.CreationDate,2023-02-10T21:16:47-05:00*
G04 #@! TF.ProjectId,ThumbsUp,5468756d-6273-4557-902e-6b696361645f,rev?*
G04 #@! TF.SameCoordinates,Original*
G04 #@! TF.FileFunction,Copper,L1,Top*
G04 #@! TF.FilePolarity,Positive*
%FSLAX46Y46*%
G04 Gerber Fmt 4.6, Leading zero omitted, Abs format (unit mm)*
G04 Created by KiCad (PCBNEW (5.1.4)-1) date 2023-02-10 21:16:47*
%MOMM*%
%LPD*%
G04 APERTURE LIST*
%ADD10O,0.900000X1.700000*%
%ADD11O,0.900000X2.000000*%
%ADD12C,1.700000*%
%ADD13C,1.700000*%
%ADD14C,0.100000*%
%ADD15C,2.250000*%
%ADD16C,2.250000*%
%ADD17O,1.700000X1.700000*%
%ADD18R,1.700000X1.700000*%
%ADD19C,0.800000*%
%ADD20C,3.000000*%
%ADD21C,0.200000*%
%ADD22C,0.500000*%
G04 APERTURE END LIST*
D10*
X116300000Y-369925000D03*
X107660000Y-369925000D03*
D11*
X116300000Y-374095000D03*
X107660000Y-374095000D03*
D12*
X101993144Y-468685154D03*
D13*
X101993144Y-468685154D02*
X101993144Y-468685154D01*
D12*
X99539692Y-468027754D03*
D13*
X99539692Y-468027754D02*
X99539692Y-468027754D01*
D12*
X97086241Y-467370353D03*
D13*
X97086241Y-467370353D02*
X97086241Y-467370353D01*
D12*
X94632789Y-466712953D03*
D14*
G36*
X95233830Y-467753986D02*
G01*
X93591756Y-467313994D01*
X94031748Y-465671920D01*
X95673822Y-466111912D01*
X95233830Y-467753986D01*
X95233830Y-467753986D01*
G37*
D15*
X104552790Y-395672952D03*
D16*
X104532790Y-395962952D02*
X104572790Y-395382952D01*
D15*
X104572790Y-395382952D03*
X98877791Y-397192952D03*
D16*
X98222790Y-397922952D02*
X99532792Y-396462952D01*
D15*
X99532790Y-396462952D03*
X66432789Y-456062952D03*
X67087788Y-455332952D03*
D16*
X67742789Y-454602952D02*
X66432787Y-456062952D01*
D15*
X61392789Y-457142952D03*
X61412789Y-456852952D03*
D16*
X61432789Y-456562952D02*
X61392789Y-457142952D01*
D15*
X85482789Y-451062953D03*
X86137788Y-450332953D03*
D16*
X86792789Y-449602953D02*
X85482787Y-451062953D01*
D15*
X80442789Y-452142953D03*
X80462789Y-451852953D03*
D16*
X80482789Y-451562953D02*
X80442789Y-452142953D01*
D17*
X128876095Y-372098305D03*
X128876095Y-374638305D03*
X128876095Y-377178305D03*
D18*
X128876095Y-379718305D03*
D19*
X117800000Y-388725000D03*
X124800000Y-388725000D03*
D15*
X124000000Y-386200000D03*
D20*
X116600000Y-391125000D03*
D15*
X125900000Y-391250000D03*
D17*
X128940599Y-422224893D03*
X128940599Y-424764893D03*
X128940599Y-427304893D03*
D18*
X128940599Y-429844893D03*
D15*
X99532789Y-415512952D03*
X98877790Y-416242952D03*
D16*
X98222789Y-416972952D02*
X99532791Y-415512952D01*
D15*
X104572789Y-414432952D03*
X104552789Y-414722952D03*
D16*
X104532789Y-415012952D02*
X104572789Y-414432952D01*
D17*
X97510000Y-370820000D03*
X100050000Y-370820000D03*
X102590000Y-370820000D03*
D18*
X105130000Y-370820000D03*
D12*
X118693145Y-473085153D03*
D13*
X118693145Y-473085153D02*
X118693145Y-473085153D01*
D12*
X116239693Y-472427753D03*
D13*
X116239693Y-472427753D02*
X116239693Y-472427753D01*
D12*
X113786242Y-471770352D03*
D13*
X113786242Y-471770352D02*
X113786242Y-471770352D01*
D12*
X111332790Y-471112952D03*
D14*
G36*
X110731749Y-470071919D02*
G01*
X112373823Y-470511911D01*
X111933831Y-472153985D01*
X110291757Y-471713993D01*
X110731749Y-470071919D01*
X110731749Y-470071919D01*
G37*
D12*
X127932789Y-471912952D03*
D13*
X127932789Y-471912952D02*
X127932789Y-471912952D01*
D12*
X128590189Y-469459500D03*
D13*
X128590189Y-469459500D02*
X128590189Y-469459500D01*
D12*
X129247590Y-467006049D03*
D13*
X129247590Y-467006049D02*
X129247590Y-467006049D01*
D12*
X129904990Y-464552597D03*
D14*
G36*
X128863957Y-465153638D02*
G01*
X129303949Y-463511564D01*
X130946023Y-463951556D01*
X130506031Y-465593630D01*
X128863957Y-465153638D01*
X128863957Y-465153638D01*
G37*
D17*
X98376974Y-429020972D03*
X100916974Y-429020972D03*
X103456974Y-429020972D03*
D18*
X105996974Y-429020972D03*
D17*
X128068428Y-451181322D03*
X125528428Y-451181322D03*
X122988428Y-451181322D03*
D18*
X120448428Y-451181322D03*
D17*
X56532789Y-458812952D03*
X56532789Y-456272952D03*
X56532789Y-453732952D03*
D18*
X56532789Y-451192952D03*
D12*
X89627956Y-465271820D03*
D13*
X89627956Y-465271820D02*
X89627956Y-465271820D01*
D12*
X90285356Y-462818368D03*
D13*
X90285356Y-462818368D02*
X90285356Y-462818368D01*
D12*
X90942757Y-460364917D03*
D13*
X90942757Y-460364917D02*
X90942757Y-460364917D01*
D12*
X91600157Y-457911465D03*
D14*
G36*
X90559124Y-458512506D02*
G01*
X90999116Y-456870432D01*
X92641190Y-457310424D01*
X92201198Y-458952498D01*
X90559124Y-458512506D01*
X90559124Y-458512506D01*
G37*
D17*
X98509278Y-390818375D03*
X101049278Y-390818375D03*
X103589278Y-390818375D03*
D18*
X106129278Y-390818375D03*
D17*
X98534161Y-409935202D03*
X101074161Y-409935202D03*
X103614161Y-409935202D03*
D18*
X106154161Y-409935202D03*
D15*
X123602790Y-392672952D03*
D16*
X123582790Y-392962952D02*
X123622790Y-392382952D01*
D15*
X123622790Y-392382952D03*
X117927791Y-394192952D03*
D16*
X117272790Y-394922952D02*
X118582792Y-393462952D01*
D15*
X118582790Y-393462952D03*
X123582789Y-420512952D03*
X124237788Y-419782952D03*
D16*
X124892789Y-419052952D02*
X123582787Y-420512952D01*
D15*
X118542789Y-421592952D03*
X118562789Y-421302952D03*
D16*
X118582789Y-421012952D02*
X118542789Y-421592952D01*
D15*
X104532790Y-442562952D03*
X105187789Y-441832952D03*
D16*
X105842790Y-441102952D02*
X104532788Y-442562952D01*
D15*
X99492790Y-443642952D03*
X99512790Y-443352952D03*
D16*
X99532790Y-443062952D02*
X99492790Y-443642952D01*
D15*
X118582789Y-431562952D03*
X117927790Y-432292952D03*
D16*
X117272789Y-433022952D02*
X118582791Y-431562952D01*
D15*
X123622789Y-430482952D03*
X123602789Y-430772952D03*
D16*
X123582789Y-431062952D02*
X123622789Y-430482952D01*
D15*
X99532790Y-377400000D03*
X98877791Y-378130000D03*
D16*
X98222790Y-378860000D02*
X99532792Y-377400000D01*
D15*
X104572790Y-376320000D03*
X104552790Y-376610000D03*
D16*
X104532790Y-376900000D02*
X104572790Y-376320000D01*
D15*
X118582790Y-374420000D03*
X117927791Y-375150000D03*
D16*
X117272790Y-375880000D02*
X118582792Y-374420000D01*
D15*
X123622790Y-373340000D03*
X123602790Y-373630000D03*
D16*
X123582790Y-373920000D02*
X123622790Y-373340000D01*
D19*
X110975000Y-376725000D03*
X110672463Y-442434962D03*
X112075000Y-376875000D03*
X111195979Y-443200000D03*
X120300000Y-465325002D03*
X107787880Y-464802836D03*
X107620979Y-461501191D03*
X109350000Y-450950000D03*
X107966595Y-463325603D03*
X108276702Y-450945568D03*
X107146000Y-463880000D03*
X115455864Y-469344136D03*
X108508655Y-468863808D03*
X96490000Y-463070000D03*
X67742789Y-459332211D03*
X113500000Y-453550002D03*
X118875000Y-457025000D03*
X114900000Y-463100000D03*
X120125365Y-464045989D03*
X104163969Y-465000283D03*
X104040000Y-455960000D03*
X104036356Y-451656032D03*
X98030000Y-463070000D03*
X121399988Y-462100000D03*
X105930000Y-448280000D03*
X123250000Y-471850000D03*
X121950145Y-448655167D03*
X121947694Y-447728169D03*
X121964373Y-446801317D03*
X122000000Y-445875000D03*
X101452478Y-446570169D03*
X101443463Y-447497127D03*
X101465266Y-448423873D03*
X101425000Y-449350000D03*
X112475000Y-405650000D03*
X112625000Y-444350000D03*
X110450000Y-448725000D03*
X112875000Y-443300000D03*
X112850000Y-442225000D03*
X107300000Y-449770000D03*
X120350000Y-467450000D03*
X113500000Y-455125000D03*
X115503153Y-468225008D03*
X99800000Y-463835000D03*
X118068356Y-463081644D03*
X107908000Y-467182000D03*
X109624021Y-457092000D03*
X105083989Y-464130749D03*
X85810000Y-460070000D03*
X118333617Y-464859428D03*
X120625000Y-472200000D03*
X120625008Y-471175008D03*
X120708320Y-469613376D03*
X120802344Y-468691144D03*
X121679012Y-465173740D03*
X124776999Y-470875000D03*
D21*
X110975000Y-442132425D02*
X110672463Y-442434962D01*
X110975000Y-376725000D02*
X110975000Y-442132425D01*
X112075000Y-376875000D02*
X111304001Y-377645999D01*
X111304001Y-377645999D02*
X111304001Y-443091978D01*
X111304001Y-443091978D02*
X111195979Y-443200000D01*
D22*
X119875003Y-465749999D02*
X119900001Y-465725001D01*
X107787880Y-464802836D02*
X108735043Y-465749999D01*
X108735043Y-465749999D02*
X119875003Y-465749999D01*
X119900001Y-465725001D02*
X120300000Y-465325002D01*
X106410874Y-464802836D02*
X105860999Y-464252961D01*
X107787880Y-464802836D02*
X106410874Y-464802836D01*
X107220980Y-461901190D02*
X107620979Y-461501191D01*
X105860999Y-463261171D02*
X107220980Y-461901190D01*
X105860999Y-464252961D02*
X105860999Y-463261171D01*
D21*
X108575000Y-462717198D02*
X108575000Y-452290685D01*
X109350000Y-451515685D02*
X109350000Y-450950000D01*
X108575000Y-452290685D02*
X109350000Y-451515685D01*
X107966595Y-463325603D02*
X108575000Y-462717198D01*
X107146000Y-463243159D02*
X108247989Y-462141170D01*
X107146000Y-463880000D02*
X107146000Y-463243159D01*
X108247989Y-462141170D02*
X108247989Y-450974281D01*
X108247989Y-450974281D02*
X108276702Y-450945568D01*
D22*
X113500000Y-452984317D02*
X108795683Y-448280000D01*
X108795683Y-448280000D02*
X106495685Y-448280000D01*
X106495685Y-448280000D02*
X105930000Y-448280000D01*
X104040000Y-455960000D02*
X104040000Y-450170000D01*
X113500000Y-453550002D02*
X113500000Y-452984317D01*
X104040000Y-450170000D02*
X105530001Y-448679999D01*
X105530001Y-448679999D02*
X105930000Y-448280000D01*
X120900000Y-459400000D02*
X120900000Y-459050000D01*
X120525364Y-463645990D02*
X120125365Y-464045989D01*
X121399988Y-461534315D02*
X121399988Y-462100000D01*
X119559680Y-464045989D02*
X120125365Y-464045989D01*
X121399988Y-462771366D02*
X120525364Y-463645990D01*
X121399988Y-459549988D02*
X121399988Y-461534315D01*
X118309315Y-457025000D02*
X118875000Y-457025000D01*
X104163969Y-465000283D02*
X108027494Y-468863808D01*
X114975536Y-468863808D02*
X115055865Y-468944137D01*
X115845989Y-464045989D02*
X119559680Y-464045989D01*
X120800000Y-458950000D02*
X120900000Y-459050000D01*
X116974998Y-457025000D02*
X118309315Y-457025000D01*
X119274999Y-457424999D02*
X118875000Y-457025000D01*
X120900000Y-459050000D02*
X121399988Y-459549988D01*
X121399988Y-462100000D02*
X121399988Y-462771366D01*
X115055865Y-468944137D02*
X115455864Y-469344136D01*
X113500000Y-453550002D02*
X116974998Y-457025000D01*
X67742789Y-454602952D02*
X81942790Y-454602952D01*
X81942790Y-454602952D02*
X86792789Y-449752953D01*
X86792789Y-449752953D02*
X86792789Y-449602953D01*
X67742789Y-454602952D02*
X67742789Y-459332211D01*
X108027494Y-468863808D02*
X108508655Y-468863808D01*
X114900000Y-463100000D02*
X115845989Y-464045989D01*
X120900000Y-459050000D02*
X119274999Y-457424999D01*
X108508655Y-468863808D02*
X114975536Y-468863808D01*
X98030000Y-456820000D02*
X98030000Y-463070000D01*
X98890000Y-455960000D02*
X98030000Y-456820000D01*
X98030000Y-463070000D02*
X96490000Y-463070000D01*
X104040000Y-455960000D02*
X98890000Y-455960000D01*
D21*
X112412066Y-446974749D02*
X123947989Y-458510675D01*
X123649999Y-471450001D02*
X123250000Y-471850000D01*
X123947989Y-458510675D02*
X123947989Y-471152011D01*
X111822989Y-446373210D02*
X112412066Y-446962288D01*
X111720978Y-441455219D02*
X111822989Y-441557230D01*
X116600000Y-391125000D02*
X111720978Y-396004022D01*
X111720978Y-396004022D02*
X111720978Y-441455219D01*
X123947989Y-471152011D02*
X123649999Y-471450001D01*
X112412066Y-446962288D02*
X112412066Y-446974749D01*
X111822989Y-441557230D02*
X111822989Y-446373210D01*
X128940599Y-443671789D02*
X128940599Y-430894893D01*
X128940599Y-430894893D02*
X128940599Y-429844893D01*
X121950145Y-448655167D02*
X123957221Y-448655167D01*
X123957221Y-448655167D02*
X128940599Y-443671789D01*
X127554022Y-428691470D02*
X128090600Y-428154892D01*
X121947694Y-447728169D02*
X124421757Y-447728169D01*
X128090600Y-428154892D02*
X128940599Y-427304893D01*
X128529019Y-432179093D02*
X127554022Y-431204098D01*
X127554022Y-431204098D02*
X127554022Y-428691470D01*
X128529020Y-443620906D02*
X128529019Y-432179093D01*
X124421757Y-447728169D02*
X128529020Y-443620906D01*
X128090600Y-425614892D02*
X128940599Y-424764893D01*
X128202009Y-432314546D02*
X127227011Y-431339549D01*
X128202009Y-443485454D02*
X128202009Y-432314546D01*
X127227011Y-431339549D02*
X127227011Y-426478481D01*
X121964373Y-446801317D02*
X124886146Y-446801317D01*
X124886146Y-446801317D02*
X128202009Y-443485454D01*
X127227011Y-426478481D02*
X128090600Y-425614892D01*
X126900000Y-424265492D02*
X128090600Y-423074892D01*
X127874998Y-443350002D02*
X127874998Y-432449998D01*
X127874998Y-432449998D02*
X126900000Y-431475000D01*
X126900000Y-431475000D02*
X126900000Y-424265492D01*
X128090600Y-423074892D02*
X128940599Y-422224893D01*
X122000000Y-445875000D02*
X125350000Y-445875000D01*
X125350000Y-445875000D02*
X127874998Y-443350002D01*
X95525000Y-435775004D02*
X100325004Y-430975000D01*
X99045169Y-446570169D02*
X95525000Y-443050000D01*
X101452478Y-446570169D02*
X99045169Y-446570169D01*
X105879028Y-429020972D02*
X105996974Y-429020972D01*
X95525000Y-443050000D02*
X95525000Y-435775004D01*
X100325004Y-430975000D02*
X103925000Y-430975000D01*
X103925000Y-430975000D02*
X105879028Y-429020972D01*
X99509664Y-447497127D02*
X95197989Y-443185452D01*
X101829957Y-430647989D02*
X102606975Y-429870971D01*
X95197989Y-435639549D02*
X100189549Y-430647989D01*
X102606975Y-429870971D02*
X103456974Y-429020972D01*
X100189549Y-430647989D02*
X101829957Y-430647989D01*
X101443463Y-447497127D02*
X99509664Y-447497127D01*
X95197989Y-443185452D02*
X95197989Y-435639549D01*
X94870978Y-435504099D02*
X100916974Y-429458103D01*
X99973947Y-448423873D02*
X94870978Y-443320904D01*
X100916974Y-429458103D02*
X100916974Y-429020972D01*
X101465266Y-448423873D02*
X99973947Y-448423873D01*
X94870978Y-443320904D02*
X94870978Y-435504099D01*
X94543967Y-443456356D02*
X94543967Y-435368648D01*
X98650000Y-431262615D02*
X98650000Y-429293998D01*
X100437611Y-449350000D02*
X94543967Y-443456356D01*
X94543967Y-435368648D02*
X98650000Y-431262615D01*
X101425000Y-449350000D02*
X100437611Y-449350000D01*
X98650000Y-429293998D02*
X98376974Y-429020972D01*
X105152790Y-395962952D02*
X104532790Y-395962952D01*
X112150000Y-443875000D02*
X112225001Y-443950001D01*
X112225001Y-443950001D02*
X112625000Y-444350000D01*
X112047989Y-406077011D02*
X112047989Y-441319767D01*
X112047989Y-441319767D02*
X112150000Y-441421778D01*
X112150000Y-441421778D02*
X112150000Y-443875000D01*
X112475000Y-405650000D02*
X112047989Y-406077011D01*
X108410406Y-445735406D02*
X110450000Y-447775000D01*
X104532789Y-415012952D02*
X108410406Y-418890569D01*
X110450000Y-447775000D02*
X110450000Y-448725000D01*
X108410406Y-418890569D02*
X108410406Y-445735406D01*
X127922989Y-396683151D02*
X127922989Y-419327011D01*
X127922989Y-419327011D02*
X113500000Y-433750000D01*
X113500000Y-442675000D02*
X113274999Y-442900001D01*
X113500000Y-433750000D02*
X113500000Y-442675000D01*
X123622790Y-392382952D02*
X127922989Y-396683151D01*
X113274999Y-442900001D02*
X112875000Y-443300000D01*
X112375000Y-441184315D02*
X112850000Y-441659315D01*
X118542789Y-421592952D02*
X112375000Y-427760741D01*
X112375000Y-427760741D02*
X112375000Y-441184315D01*
X112850000Y-441659315D02*
X112850000Y-442225000D01*
D22*
X99800000Y-463835000D02*
X104788240Y-463835000D01*
X105083989Y-464923674D02*
X105083989Y-464130749D01*
X107908000Y-467182000D02*
X107342315Y-467182000D01*
X107342315Y-467182000D02*
X105083989Y-464923674D01*
X104788240Y-463835000D02*
X105083989Y-464130749D01*
X107908000Y-467182000D02*
X114460145Y-467182000D01*
X118068356Y-463081644D02*
X118068356Y-459693356D01*
X120350000Y-467450000D02*
X116278161Y-467450000D01*
X116278161Y-467450000D02*
X115903152Y-467825009D01*
X115903152Y-467825009D02*
X115503153Y-468225008D01*
X118068356Y-459693356D02*
X113899999Y-455524999D01*
X113500000Y-455125000D02*
X112424000Y-454049000D01*
X113899999Y-455524999D02*
X113500000Y-455125000D01*
X112424000Y-454049000D02*
X112424000Y-452824036D01*
X109624021Y-457092000D02*
X109624021Y-456848979D01*
X109624021Y-456848979D02*
X112424000Y-454049000D01*
X115103154Y-467825009D02*
X115503153Y-468225008D01*
X114460145Y-467182000D02*
X115103154Y-467825009D01*
X106900001Y-450169999D02*
X107300000Y-449770000D01*
X105083989Y-464130749D02*
X105083989Y-451986011D01*
X105083989Y-451986011D02*
X106900001Y-450169999D01*
X112424000Y-452824036D02*
X109369964Y-449770000D01*
X107865685Y-449770000D02*
X107300000Y-449770000D01*
X109369964Y-449770000D02*
X107865685Y-449770000D01*
D21*
X120675962Y-468077002D02*
X121052002Y-467700962D01*
X96986000Y-465658000D02*
X103336000Y-465658000D01*
X115099039Y-470027001D02*
X118124039Y-470027001D01*
X120074038Y-468077002D02*
X120675962Y-468077002D01*
X114540038Y-469468000D02*
X115099039Y-470027001D01*
X120625961Y-464672999D02*
X119085731Y-464672999D01*
X108832427Y-469468000D02*
X114540038Y-469468000D01*
X118124039Y-470027001D02*
X120074038Y-468077002D01*
X121052002Y-467700962D02*
X121052002Y-465099040D01*
X103336000Y-465658000D02*
X107168810Y-469490810D01*
X118899302Y-464859428D02*
X118333617Y-464859428D01*
X93176000Y-456006000D02*
X94192000Y-457022000D01*
X121052002Y-465099040D02*
X120625961Y-464672999D01*
X108809617Y-469490810D02*
X108832427Y-469468000D01*
X107168810Y-469490810D02*
X108809617Y-469490810D01*
X85810000Y-460070000D02*
X89874000Y-456006000D01*
X119085731Y-464672999D02*
X118899302Y-464859428D01*
X94192000Y-462864000D02*
X96986000Y-465658000D01*
X94192000Y-457022000D02*
X94192000Y-462864000D01*
X89874000Y-456006000D02*
X93176000Y-456006000D01*
X110050000Y-393689097D02*
X107179278Y-390818375D01*
X110045461Y-442134000D02*
X110050000Y-442129461D01*
X111835054Y-446847738D02*
X110045461Y-445058149D01*
X120625000Y-472200000D02*
X123620978Y-469204022D01*
X110045461Y-445058149D02*
X110045461Y-442134000D01*
X123620978Y-469204022D02*
X123620978Y-458646127D01*
X107179278Y-390818375D02*
X106129278Y-390818375D01*
X112085055Y-447110200D02*
X112085055Y-447097740D01*
X123620978Y-458646127D02*
X112085055Y-447110200D01*
X110050000Y-442129461D02*
X110050000Y-393689097D01*
X112085055Y-447097740D02*
X111835054Y-446847738D01*
X104439277Y-391668374D02*
X103589278Y-390818375D01*
X123293967Y-458781579D02*
X111758044Y-447245651D01*
X109718450Y-441998548D02*
X109722989Y-441994009D01*
X109718450Y-445193600D02*
X109718450Y-441998548D01*
X123293967Y-468506049D02*
X123293967Y-458781579D01*
X106531507Y-392293967D02*
X105064870Y-392293967D01*
X111758044Y-447245651D02*
X111758044Y-447233192D01*
X111758044Y-447233192D02*
X109718450Y-445193600D01*
X109722989Y-441994009D02*
X109722989Y-395485449D01*
X109722989Y-395485449D02*
X106531507Y-392293967D01*
X120625008Y-471175008D02*
X123293967Y-468506049D01*
X105064870Y-392293967D02*
X104439277Y-391668374D01*
X106396055Y-392620978D02*
X109395978Y-395620901D01*
X101049278Y-390818375D02*
X102851881Y-392620978D01*
X111431033Y-447368644D02*
X111431033Y-447381104D01*
X122966956Y-458917031D02*
X122966956Y-467920425D01*
X121274005Y-469613376D02*
X120708320Y-469613376D01*
X122966956Y-467920425D02*
X121274005Y-469613376D01*
X109395978Y-441858557D02*
X109391439Y-441863096D01*
X109391439Y-441863096D02*
X109391439Y-445329051D01*
X109451713Y-445389326D02*
X111431033Y-447368644D01*
X111431033Y-447381104D02*
X122966956Y-458917031D01*
X109391439Y-445329051D02*
X109451713Y-445389326D01*
X109395978Y-395620901D02*
X109395978Y-441858557D01*
X102851881Y-392620978D02*
X106396055Y-392620978D01*
X109068967Y-395756353D02*
X109068967Y-441723105D01*
X122639945Y-459052483D02*
X122639945Y-466853543D01*
X121202343Y-468291145D02*
X120802344Y-468691144D01*
X106260603Y-392947989D02*
X109068967Y-395756353D01*
X100638892Y-392947989D02*
X106260603Y-392947989D01*
X109068967Y-441723105D02*
X109064428Y-441727644D01*
X111104022Y-447504096D02*
X111104022Y-447516560D01*
X111104022Y-447516560D02*
X122639945Y-459052483D01*
X109064428Y-445464503D02*
X111104022Y-447504096D01*
X122639945Y-466853543D02*
X121202343Y-468291145D01*
X98509278Y-390818375D02*
X100638892Y-392947989D01*
X109064428Y-441727644D02*
X109064428Y-445464503D01*
X108741956Y-441587653D02*
X108741956Y-395941956D01*
X122079011Y-458954011D02*
X110777011Y-447652011D01*
X110777011Y-447652011D02*
X110777011Y-447639548D01*
X121679012Y-465173740D02*
X122079011Y-464773741D01*
X108737417Y-445599955D02*
X108737417Y-441592192D01*
X110777011Y-447639548D02*
X108737417Y-445599955D01*
X97432277Y-383967723D02*
X98750000Y-382650000D01*
X106075000Y-393275000D02*
X98525000Y-393275000D01*
X102900000Y-376900000D02*
X104532790Y-376900000D01*
X98750000Y-382650000D02*
X98750000Y-381050000D01*
X98750000Y-381050000D02*
X102900000Y-376900000D01*
X108741956Y-395941956D02*
X106075000Y-393275000D01*
X98525000Y-393275000D02*
X97432277Y-392182277D01*
X108737417Y-441592192D02*
X108741956Y-441587653D01*
X97432277Y-392182277D02*
X97432277Y-383967723D01*
X122079011Y-464773741D02*
X122079011Y-458954011D01*
X127547988Y-439399050D02*
X127547988Y-432585448D01*
X118400000Y-452500223D02*
X118400000Y-448547038D01*
X128250000Y-419462461D02*
X128250000Y-381394400D01*
X126550000Y-431587460D02*
X126550000Y-421162461D01*
X118400000Y-448547038D02*
X127547988Y-439399050D01*
X124275000Y-470373001D02*
X124275000Y-458375223D01*
X124776999Y-470875000D02*
X124275000Y-470373001D01*
X128876095Y-380768305D02*
X128876095Y-379718305D01*
X124275000Y-458375223D02*
X118400000Y-452500223D01*
X127547988Y-432585448D02*
X126550000Y-431587460D01*
X126550000Y-421162461D02*
X128250000Y-419462461D01*
X128250000Y-381394400D02*
X128876095Y-380768305D01*
M02*
