G04 #@! TF.GenerationSoftware,KiCad,Pcbnew,(5.1.4)-1*
G04 #@! TF.CreationDate,2023-01-28T07:41:01-05:00*
G04 #@! TF.ProjectId,ThumbsUp,5468756d-6273-4557-902e-6b696361645f,rev?*
G04 #@! TF.SameCoordinates,Original*
G04 #@! TF.FileFunction,Legend,Bot*
G04 #@! TF.FilePolarity,Positive*
%FSLAX46Y46*%
G04 Gerber Fmt 4.6, Leading zero omitted, Abs format (unit mm)*
G04 Created by KiCad (PCBNEW (5.1.4)-1) date 2023-01-28 07:41:01*
%MOMM*%
%LPD*%
G04 APERTURE LIST*
%ADD10C,0.150000*%
%ADD11C,0.120000*%
%ADD12C,0.200000*%
%ADD13C,0.100000*%
%ADD14C,0.254000*%
G04 APERTURE END LIST*
D10*
X106206513Y-375673139D02*
X106648029Y-375494755D01*
X106273422Y-374567571D01*
X105701229Y-375312340D02*
X105392167Y-375437209D01*
X105455935Y-375976392D02*
X105897451Y-375798008D01*
X105522845Y-374870824D01*
X105081329Y-375049208D01*
X104553287Y-375776139D02*
X104862348Y-375651270D01*
X105058571Y-376136938D02*
X104683964Y-375209754D01*
X104242448Y-375388138D01*
X104021690Y-375477330D02*
X103491870Y-375691391D01*
X104131387Y-376511545D02*
X103756780Y-375584361D01*
X109365791Y-375611343D02*
X109674852Y-375486474D01*
X109871075Y-375972142D02*
X109496468Y-375044958D01*
X109054952Y-375223342D01*
X108546526Y-376507294D02*
X108677204Y-375940909D01*
X109076346Y-376293233D02*
X108701739Y-375366050D01*
X108348526Y-375508757D01*
X108278061Y-375588585D01*
X108251748Y-375650575D01*
X108243273Y-375756717D01*
X108296789Y-375889172D01*
X108376617Y-375959637D01*
X108438607Y-375985950D01*
X108544749Y-375994425D01*
X108897962Y-375851717D01*
X107597949Y-375812010D02*
X107421342Y-375883364D01*
X107350878Y-375963192D01*
X107298251Y-376087172D01*
X107325453Y-376281617D01*
X107450322Y-376590678D01*
X107565827Y-376749446D01*
X107689807Y-376802073D01*
X107795949Y-376810547D01*
X107972555Y-376739194D01*
X108043020Y-376659365D01*
X108095647Y-376535385D01*
X108068445Y-376340940D01*
X107943576Y-376031879D01*
X107828071Y-375873111D01*
X107704090Y-375820485D01*
X107597949Y-375812010D01*
X107177826Y-377060285D02*
X106803220Y-376133101D01*
X106761735Y-376920244D01*
X106185097Y-376382839D01*
X106559704Y-377310023D01*
X104906478Y-377413023D02*
X104791862Y-377510689D01*
X104765549Y-377572679D01*
X104757074Y-377678821D01*
X104810589Y-377811276D01*
X104890417Y-377881741D01*
X104952407Y-377908054D01*
X105058549Y-377916529D01*
X105411762Y-377773821D01*
X105037155Y-376846638D01*
X104728094Y-376971506D01*
X104657629Y-377051335D01*
X104631316Y-377113325D01*
X104622841Y-377219467D01*
X104658518Y-377307770D01*
X104738346Y-377378235D01*
X104800337Y-377404548D01*
X104906478Y-377413023D01*
X105215539Y-377288154D01*
X104288356Y-377662760D02*
X103979294Y-377787629D01*
X104043062Y-378326812D02*
X104484578Y-378148428D01*
X104109971Y-377221244D01*
X103668455Y-377399628D01*
X103204181Y-378665742D02*
X103645697Y-378487358D01*
X103271091Y-377560174D01*
X102343907Y-377934781D02*
X102167301Y-378006134D01*
X102096836Y-378085963D01*
X102044209Y-378209943D01*
X102071411Y-378404388D01*
X102196280Y-378713449D01*
X102311785Y-378872217D01*
X102435766Y-378924843D01*
X102541907Y-378933318D01*
X102718514Y-378861964D01*
X102788978Y-378782136D01*
X102841605Y-378658156D01*
X102814403Y-378463711D01*
X102689534Y-378154650D01*
X102574029Y-377995882D01*
X102450049Y-377943255D01*
X102343907Y-377934781D01*
X101637481Y-378220195D02*
X101791330Y-379236571D01*
X101347147Y-378645650D01*
X101438117Y-379379278D01*
X100842752Y-378541286D01*
X56406513Y-486173139D02*
X56848029Y-485994755D01*
X56473422Y-485067571D01*
X55901229Y-485812340D02*
X55592167Y-485937209D01*
X55655935Y-486476392D02*
X56097451Y-486298008D01*
X55722845Y-485370824D01*
X55281329Y-485549208D01*
X54753287Y-486276139D02*
X55062348Y-486151270D01*
X55258571Y-486636938D02*
X54883964Y-485709754D01*
X54442448Y-485888138D01*
X54221690Y-485977330D02*
X53691870Y-486191391D01*
X54331387Y-487011545D02*
X53956780Y-486084361D01*
X59565791Y-486111343D02*
X59874852Y-485986474D01*
X60071075Y-486472142D02*
X59696468Y-485544958D01*
X59254952Y-485723342D01*
X58746526Y-487007294D02*
X58877204Y-486440909D01*
X59276346Y-486793233D02*
X58901739Y-485866050D01*
X58548526Y-486008757D01*
X58478061Y-486088585D01*
X58451748Y-486150575D01*
X58443273Y-486256717D01*
X58496789Y-486389172D01*
X58576617Y-486459637D01*
X58638607Y-486485950D01*
X58744749Y-486494425D01*
X59097962Y-486351717D01*
X57797949Y-486312010D02*
X57621342Y-486383364D01*
X57550878Y-486463192D01*
X57498251Y-486587172D01*
X57525453Y-486781617D01*
X57650322Y-487090678D01*
X57765827Y-487249446D01*
X57889807Y-487302073D01*
X57995949Y-487310547D01*
X58172555Y-487239194D01*
X58243020Y-487159365D01*
X58295647Y-487035385D01*
X58268445Y-486840940D01*
X58143576Y-486531879D01*
X58028071Y-486373111D01*
X57904090Y-486320485D01*
X57797949Y-486312010D01*
X57377826Y-487560285D02*
X57003220Y-486633101D01*
X56961735Y-487420244D01*
X56385097Y-486882839D01*
X56759704Y-487810023D01*
X55106478Y-487913023D02*
X54991862Y-488010689D01*
X54965549Y-488072679D01*
X54957074Y-488178821D01*
X55010589Y-488311276D01*
X55090417Y-488381741D01*
X55152407Y-488408054D01*
X55258549Y-488416529D01*
X55611762Y-488273821D01*
X55237155Y-487346638D01*
X54928094Y-487471506D01*
X54857629Y-487551335D01*
X54831316Y-487613325D01*
X54822841Y-487719467D01*
X54858518Y-487807770D01*
X54938346Y-487878235D01*
X55000337Y-487904548D01*
X55106478Y-487913023D01*
X55415539Y-487788154D01*
X54488356Y-488162760D02*
X54179294Y-488287629D01*
X54243062Y-488826812D02*
X54684578Y-488648428D01*
X54309971Y-487721244D01*
X53868455Y-487899628D01*
X53404181Y-489165742D02*
X53845697Y-488987358D01*
X53471091Y-488060174D01*
X52543907Y-488434781D02*
X52367301Y-488506134D01*
X52296836Y-488585963D01*
X52244209Y-488709943D01*
X52271411Y-488904388D01*
X52396280Y-489213449D01*
X52511785Y-489372217D01*
X52635766Y-489424843D01*
X52741907Y-489433318D01*
X52918514Y-489361964D01*
X52988978Y-489282136D01*
X53041605Y-489158156D01*
X53014403Y-488963711D01*
X52889534Y-488654650D01*
X52774029Y-488495882D01*
X52650049Y-488443255D01*
X52543907Y-488434781D01*
X51837481Y-488720195D02*
X51991330Y-489736571D01*
X51547147Y-489145650D01*
X51638117Y-489879278D01*
X51042752Y-489041286D01*
D11*
X111450000Y-394110000D02*
X111450000Y-392310000D01*
X111450000Y-388600000D02*
X111450000Y-390060000D01*
X120390000Y-388600000D02*
X120390000Y-390060000D01*
X120390000Y-394110000D02*
X120390000Y-392310000D01*
X120390000Y-388600000D02*
X111450000Y-388600000D01*
D12*
X127724621Y-415037979D02*
G75*
G03X127724621Y-415137979I0J-50000D01*
G01*
X127724621Y-415137979D02*
G75*
G03X127724621Y-415037979I0J50000D01*
G01*
X127724621Y-415037979D02*
G75*
G03X127724621Y-415137979I0J-50000D01*
G01*
X127724621Y-415137979D02*
X127724621Y-415137979D01*
X127724621Y-415037979D02*
X127724621Y-415037979D01*
X127724621Y-415137979D02*
X127724621Y-415137979D01*
D13*
X126124621Y-413612979D02*
X120374621Y-413612979D01*
X126124621Y-413612979D02*
X126124621Y-413612979D01*
X120374621Y-413612979D02*
X126124621Y-413612979D01*
X120374621Y-413612979D02*
X120374621Y-413612979D01*
X116624621Y-413612979D02*
X115624621Y-413612979D01*
X116624621Y-413612979D02*
X116624621Y-413612979D01*
X115624621Y-413612979D02*
X116624621Y-413612979D01*
X115624621Y-413612979D02*
X115624621Y-413612979D01*
X115624621Y-407612979D02*
X115624621Y-407612979D01*
X115624621Y-413612979D02*
X115624621Y-407612979D01*
X115624621Y-413612979D02*
X115624621Y-413612979D01*
X115624621Y-407612979D02*
X115624621Y-413612979D01*
X115624621Y-407612979D02*
X124374621Y-407612979D01*
X115624621Y-407612979D02*
X115624621Y-407612979D01*
X124374621Y-407612979D02*
X115624621Y-407612979D01*
X124374621Y-407612979D02*
X124374621Y-407612979D01*
X127374621Y-407612979D02*
X130124621Y-407612979D01*
X127374621Y-407612979D02*
X127374621Y-407612979D01*
X130124621Y-407612979D02*
X127374621Y-407612979D01*
X130124621Y-407612979D02*
X130124621Y-407612979D01*
X130124621Y-408087979D02*
X130124621Y-408087979D01*
X130124621Y-407612979D02*
X130124621Y-408087979D01*
X130124621Y-407612979D02*
X130124621Y-407612979D01*
X130124621Y-408087979D02*
X130124621Y-407612979D01*
X132624621Y-413137979D02*
X130124621Y-413137979D01*
X132624621Y-408112979D02*
X132624621Y-413137979D01*
X130124621Y-408112979D02*
X132624621Y-408112979D01*
X130124621Y-413137979D02*
X130124621Y-408112979D01*
X130124621Y-413612979D02*
X130124621Y-413612979D01*
X130124621Y-413137979D02*
X130124621Y-413612979D01*
X130124621Y-413137979D02*
X130124621Y-413137979D01*
X130124621Y-413612979D02*
X130124621Y-413137979D01*
X130124621Y-413612979D02*
X129124621Y-413612979D01*
X130124621Y-413612979D02*
X130124621Y-413612979D01*
X129124621Y-413612979D02*
X130124621Y-413612979D01*
X129124621Y-413612979D02*
X129124621Y-413612979D01*
D11*
X127546095Y-401648305D02*
X128876095Y-401648305D01*
X127546095Y-400318305D02*
X127546095Y-401648305D01*
X127546095Y-399048305D02*
X130206095Y-399048305D01*
X130206095Y-399048305D02*
X130206095Y-391368305D01*
X127546095Y-399048305D02*
X127546095Y-391368305D01*
X127546095Y-391368305D02*
X130206095Y-391368305D01*
X127610599Y-449724893D02*
X128940599Y-449724893D01*
X127610599Y-448394893D02*
X127610599Y-449724893D01*
X127610599Y-447124893D02*
X130270599Y-447124893D01*
X130270599Y-447124893D02*
X130270599Y-439444893D01*
X127610599Y-447124893D02*
X127610599Y-439444893D01*
X127610599Y-439444893D02*
X130270599Y-439444893D01*
D10*
X118032790Y-401212952D02*
X118032790Y-400512952D01*
X118032790Y-400512952D02*
X113532790Y-400512952D01*
X119532790Y-402712952D02*
G75*
G02X118032790Y-401212952I0J1500000D01*
G01*
X119032790Y-407212952D02*
X118532790Y-406712952D01*
X118532790Y-405712952D02*
X118532790Y-406712952D01*
X113532790Y-405212952D02*
X118032790Y-405212952D01*
X122532790Y-403212952D02*
X122032790Y-402712952D01*
X113532790Y-404612952D02*
X113532790Y-405212952D01*
X122032790Y-402712952D02*
X119532790Y-402712952D01*
X122532790Y-406712952D02*
X122032790Y-407212952D01*
X122032790Y-407212952D02*
X119032790Y-407212952D01*
X118032790Y-405212952D02*
G75*
G02X118532790Y-405712952I0J-500000D01*
G01*
X113532790Y-400512952D02*
X113532790Y-401012952D01*
X86032789Y-443312953D02*
X86032789Y-444012953D01*
X86032789Y-444012953D02*
X90532789Y-444012953D01*
X84532789Y-441812953D02*
G75*
G02X86032789Y-443312953I0J-1500000D01*
G01*
X85032789Y-437312953D02*
X85532789Y-437812953D01*
X85532789Y-438812953D02*
X85532789Y-437812953D01*
X90532789Y-439312953D02*
X86032789Y-439312953D01*
X81532789Y-441312953D02*
X82032789Y-441812953D01*
X90532789Y-439912953D02*
X90532789Y-439312953D01*
X82032789Y-441812953D02*
X84532789Y-441812953D01*
X81532789Y-437812953D02*
X82032789Y-437312953D01*
X82032789Y-437312953D02*
X85032789Y-437312953D01*
X86032789Y-439312953D02*
G75*
G02X85532789Y-438812953I0J500000D01*
G01*
X90532789Y-444012953D02*
X90532789Y-443512953D01*
X104532790Y-399812952D02*
X104532790Y-400512952D01*
X104532790Y-400512952D02*
X109032790Y-400512952D01*
X103032790Y-398312952D02*
G75*
G02X104532790Y-399812952I0J-1500000D01*
G01*
X103532790Y-393812952D02*
X104032790Y-394312952D01*
X104032790Y-395312952D02*
X104032790Y-394312952D01*
X109032790Y-395812952D02*
X104532790Y-395812952D01*
X100032790Y-397812952D02*
X100532790Y-398312952D01*
X109032790Y-396412952D02*
X109032790Y-395812952D01*
X100532790Y-398312952D02*
X103032790Y-398312952D01*
X100032790Y-394312952D02*
X100532790Y-393812952D01*
X100532790Y-393812952D02*
X103532790Y-393812952D01*
X104532790Y-395812952D02*
G75*
G02X104032790Y-395312952I0J500000D01*
G01*
X109032790Y-400512952D02*
X109032790Y-400012952D01*
X104532790Y-434812952D02*
X104532790Y-435512952D01*
X104532790Y-435512952D02*
X109032790Y-435512952D01*
X103032790Y-433312952D02*
G75*
G02X104532790Y-434812952I0J-1500000D01*
G01*
X103532790Y-428812952D02*
X104032790Y-429312952D01*
X104032790Y-430312952D02*
X104032790Y-429312952D01*
X109032790Y-430812952D02*
X104532790Y-430812952D01*
X100032790Y-432812952D02*
X100532790Y-433312952D01*
X109032790Y-431412952D02*
X109032790Y-430812952D01*
X100532790Y-433312952D02*
X103032790Y-433312952D01*
X100032790Y-429312952D02*
X100532790Y-428812952D01*
X100532790Y-428812952D02*
X103532790Y-428812952D01*
X104532790Y-430812952D02*
G75*
G02X104032790Y-430312952I0J500000D01*
G01*
X109032790Y-435512952D02*
X109032790Y-435012952D01*
X118032789Y-418712952D02*
X118032789Y-418012952D01*
X118032789Y-418012952D02*
X113532789Y-418012952D01*
X119532789Y-420212952D02*
G75*
G02X118032789Y-418712952I0J1500000D01*
G01*
X119032789Y-424712952D02*
X118532789Y-424212952D01*
X118532789Y-423212952D02*
X118532789Y-424212952D01*
X113532789Y-422712952D02*
X118032789Y-422712952D01*
X122532789Y-420712952D02*
X122032789Y-420212952D01*
X113532789Y-422112952D02*
X113532789Y-422712952D01*
X122032789Y-420212952D02*
X119532789Y-420212952D01*
X122532789Y-424212952D02*
X122032789Y-424712952D01*
X122032789Y-424712952D02*
X119032789Y-424712952D01*
X118032789Y-422712952D02*
G75*
G02X118532789Y-423212952I0J-500000D01*
G01*
X113532789Y-418012952D02*
X113532789Y-418512952D01*
X123032789Y-431812952D02*
X123032789Y-432512952D01*
X123032789Y-432512952D02*
X127532789Y-432512952D01*
X121532789Y-430312952D02*
G75*
G02X123032789Y-431812952I0J-1500000D01*
G01*
X122032789Y-425812952D02*
X122532789Y-426312952D01*
X122532789Y-427312952D02*
X122532789Y-426312952D01*
X127532789Y-427812952D02*
X123032789Y-427812952D01*
X118532789Y-429812952D02*
X119032789Y-430312952D01*
X127532789Y-428412952D02*
X127532789Y-427812952D01*
X119032789Y-430312952D02*
X121532789Y-430312952D01*
X118532789Y-426312952D02*
X119032789Y-425812952D01*
X119032789Y-425812952D02*
X122032789Y-425812952D01*
X123032789Y-427812952D02*
G75*
G02X122532789Y-427312952I0J500000D01*
G01*
X127532789Y-432512952D02*
X127532789Y-432012952D01*
X67532789Y-448312952D02*
X67532789Y-449012952D01*
X67532789Y-449012952D02*
X72032789Y-449012952D01*
X66032789Y-446812952D02*
G75*
G02X67532789Y-448312952I0J-1500000D01*
G01*
X66532789Y-442312952D02*
X67032789Y-442812952D01*
X67032789Y-443812952D02*
X67032789Y-442812952D01*
X72032789Y-444312952D02*
X67532789Y-444312952D01*
X63032789Y-446312952D02*
X63532789Y-446812952D01*
X72032789Y-444912952D02*
X72032789Y-444312952D01*
X63532789Y-446812952D02*
X66032789Y-446812952D01*
X63032789Y-442812952D02*
X63532789Y-442312952D01*
X63532789Y-442312952D02*
X66532789Y-442312952D01*
X67532789Y-444312952D02*
G75*
G02X67032789Y-443812952I0J500000D01*
G01*
X72032789Y-449012952D02*
X72032789Y-448512952D01*
X104532789Y-417312952D02*
X104532789Y-418012952D01*
X104532789Y-418012952D02*
X109032789Y-418012952D01*
X103032789Y-415812952D02*
G75*
G02X104532789Y-417312952I0J-1500000D01*
G01*
X103532789Y-411312952D02*
X104032789Y-411812952D01*
X104032789Y-412812952D02*
X104032789Y-411812952D01*
X109032789Y-413312952D02*
X104532789Y-413312952D01*
X100032789Y-415312952D02*
X100532789Y-415812952D01*
X109032789Y-413912952D02*
X109032789Y-413312952D01*
X100532789Y-415812952D02*
X103032789Y-415812952D01*
X100032789Y-411812952D02*
X100532789Y-411312952D01*
X100532789Y-411312952D02*
X103532789Y-411312952D01*
X104532789Y-413312952D02*
G75*
G02X104032789Y-412812952I0J500000D01*
G01*
X109032789Y-418012952D02*
X109032789Y-417512952D01*
D11*
X57862789Y-449862952D02*
X56532789Y-449862952D01*
X57862789Y-451192952D02*
X57862789Y-449862952D01*
X57862789Y-452462952D02*
X55202789Y-452462952D01*
X55202789Y-452462952D02*
X55202789Y-460142952D01*
X57862789Y-452462952D02*
X57862789Y-460142952D01*
X57862789Y-460142952D02*
X55202789Y-460142952D01*
X107326974Y-428800972D02*
X107326974Y-427470972D01*
X105996974Y-428800972D02*
X107326974Y-428800972D01*
X104726974Y-428800972D02*
X104726974Y-426140972D01*
X104726974Y-426140972D02*
X97046974Y-426140972D01*
X104726974Y-428800972D02*
X97046974Y-428800972D01*
X97046974Y-428800972D02*
X97046974Y-426140972D01*
X107459278Y-393698375D02*
X107459278Y-392368375D01*
X106129278Y-393698375D02*
X107459278Y-393698375D01*
X104859278Y-393698375D02*
X104859278Y-391038375D01*
X104859278Y-391038375D02*
X97179278Y-391038375D01*
X104859278Y-393698375D02*
X97179278Y-393698375D01*
X97179278Y-393698375D02*
X97179278Y-391038375D01*
X107484161Y-411265202D02*
X107484161Y-409935202D01*
X106154161Y-411265202D02*
X107484161Y-411265202D01*
X104884161Y-411265202D02*
X104884161Y-408605202D01*
X104884161Y-408605202D02*
X97204161Y-408605202D01*
X104884161Y-411265202D02*
X97204161Y-411265202D01*
X97204161Y-411265202D02*
X97204161Y-408605202D01*
X110392338Y-469484041D02*
X110048109Y-470768723D01*
X111677019Y-469828271D02*
X110392338Y-469484041D01*
X112903745Y-470156971D02*
X112215286Y-472726334D01*
X112215286Y-472726334D02*
X119633597Y-474714064D01*
X112903745Y-470156971D02*
X120322055Y-472144701D01*
X120322055Y-472144701D02*
X119633597Y-474714064D01*
D14*
X126385880Y-470555000D02*
G75*
G03X126385880Y-470555000I-125880J0D01*
G01*
D12*
X127150000Y-456750000D02*
X126050000Y-456750000D01*
X122350000Y-456750000D02*
X123450000Y-456750000D01*
X122350000Y-468150000D02*
X123450000Y-468150000D01*
X127150000Y-468150000D02*
X126050000Y-468150000D01*
X122350000Y-468150000D02*
X122350000Y-456750000D01*
X127150000Y-468150000D02*
X127150000Y-456750000D01*
D11*
X100640000Y-440875000D02*
X100640000Y-446885000D01*
X107460000Y-443125000D02*
X107460000Y-446885000D01*
X100640000Y-446885000D02*
X101900000Y-446885000D01*
X107460000Y-446885000D02*
X106200000Y-446885000D01*
D13*
X87223504Y-462190628D02*
G75*
G03X87320096Y-462216510I48296J-12941D01*
G01*
X87320097Y-462216510D02*
G75*
G03X87223503Y-462190628I-48297J12941D01*
G01*
X87320096Y-462216510D02*
X87320096Y-462216510D01*
X87223503Y-462190628D02*
X87223503Y-462190628D01*
D12*
X85299051Y-460872634D02*
X83705274Y-460445582D01*
X84548476Y-463673819D02*
X83002995Y-463259708D01*
X82786466Y-463874619D02*
X82954698Y-463246767D01*
X84428540Y-464314611D02*
X82786466Y-463874619D01*
X84596772Y-463686760D02*
X84428540Y-464314611D01*
X98370000Y-453985000D02*
X98370000Y-455635000D01*
X103590000Y-455985000D02*
X98310000Y-455985000D01*
X103590000Y-460835000D02*
X103590000Y-455985000D01*
X98310000Y-460835000D02*
X103590000Y-460835000D01*
X98310000Y-455985000D02*
X98310000Y-460835000D01*
D14*
X109700000Y-458175000D02*
G75*
G03X109700000Y-458175000I-100000J0D01*
G01*
D11*
X111402064Y-407910000D02*
X110197936Y-407910000D01*
X111402064Y-406090000D02*
X110197936Y-406090000D01*
D13*
X80321458Y-460358286D02*
G75*
G03X80418050Y-460384168I48296J-12941D01*
G01*
X80418051Y-460384168D02*
G75*
G03X80321457Y-460358286I-48297J12941D01*
G01*
X80418050Y-460384168D02*
X80418050Y-460384168D01*
X80321457Y-460358286D02*
X80321457Y-460358286D01*
D12*
X78397005Y-459040292D02*
X76803228Y-458613240D01*
X77646430Y-461841477D02*
X76100949Y-461427366D01*
X75884420Y-462042277D02*
X76052652Y-461414425D01*
X77526494Y-462482269D02*
X75884420Y-462042277D01*
X77694726Y-461854418D02*
X77526494Y-462482269D01*
D10*
X119066666Y-469922380D02*
X119400000Y-469446190D01*
X119638095Y-469922380D02*
X119638095Y-468922380D01*
X119257142Y-468922380D01*
X119161904Y-468970000D01*
X119114285Y-469017619D01*
X119066666Y-469112857D01*
X119066666Y-469255714D01*
X119114285Y-469350952D01*
X119161904Y-469398571D01*
X119257142Y-469446190D01*
X119638095Y-469446190D01*
X118209523Y-469255714D02*
X118209523Y-469922380D01*
X118447619Y-468874761D02*
X118685714Y-469589047D01*
X118066666Y-469589047D01*
X119527857Y-466082380D02*
X119861190Y-465606190D01*
X120099285Y-466082380D02*
X120099285Y-465082380D01*
X119718333Y-465082380D01*
X119623095Y-465130000D01*
X119575476Y-465177619D01*
X119527857Y-465272857D01*
X119527857Y-465415714D01*
X119575476Y-465510952D01*
X119623095Y-465558571D01*
X119718333Y-465606190D01*
X120099285Y-465606190D01*
X118575476Y-466082380D02*
X119146904Y-466082380D01*
X118861190Y-466082380D02*
X118861190Y-465082380D01*
X118956428Y-465225238D01*
X119051666Y-465320476D01*
X119146904Y-465368095D01*
X118242142Y-465082380D02*
X117575476Y-465082380D01*
X118004047Y-466082380D01*
X110392380Y-448219333D02*
X109916190Y-447886000D01*
X110392380Y-447647904D02*
X109392380Y-447647904D01*
X109392380Y-448028857D01*
X109440000Y-448124095D01*
X109487619Y-448171714D01*
X109582857Y-448219333D01*
X109725714Y-448219333D01*
X109820952Y-448171714D01*
X109868571Y-448124095D01*
X109916190Y-448028857D01*
X109916190Y-447647904D01*
X109487619Y-448600285D02*
X109440000Y-448647904D01*
X109392380Y-448743142D01*
X109392380Y-448981238D01*
X109440000Y-449076476D01*
X109487619Y-449124095D01*
X109582857Y-449171714D01*
X109678095Y-449171714D01*
X109820952Y-449124095D01*
X110392380Y-448552666D01*
X110392380Y-449171714D01*
X109122380Y-448219333D02*
X108646190Y-447886000D01*
X109122380Y-447647904D02*
X108122380Y-447647904D01*
X108122380Y-448028857D01*
X108170000Y-448124095D01*
X108217619Y-448171714D01*
X108312857Y-448219333D01*
X108455714Y-448219333D01*
X108550952Y-448171714D01*
X108598571Y-448124095D01*
X108646190Y-448028857D01*
X108646190Y-447647904D01*
X109122380Y-449171714D02*
X109122380Y-448600285D01*
X109122380Y-448886000D02*
X108122380Y-448886000D01*
X108265238Y-448790761D01*
X108360476Y-448695523D01*
X108408095Y-448600285D01*
X125366666Y-393082380D02*
X125700000Y-392606190D01*
X125938095Y-393082380D02*
X125938095Y-392082380D01*
X125557142Y-392082380D01*
X125461904Y-392130000D01*
X125414285Y-392177619D01*
X125366666Y-392272857D01*
X125366666Y-392415714D01*
X125414285Y-392510952D01*
X125461904Y-392558571D01*
X125557142Y-392606190D01*
X125938095Y-392606190D01*
X124890476Y-393082380D02*
X124700000Y-393082380D01*
X124604761Y-393034761D01*
X124557142Y-392987142D01*
X124461904Y-392844285D01*
X124414285Y-392653809D01*
X124414285Y-392272857D01*
X124461904Y-392177619D01*
X124509523Y-392130000D01*
X124604761Y-392082380D01*
X124795238Y-392082380D01*
X124890476Y-392130000D01*
X124938095Y-392177619D01*
X124985714Y-392272857D01*
X124985714Y-392510952D01*
X124938095Y-392606190D01*
X124890476Y-392653809D01*
X124795238Y-392701428D01*
X124604761Y-392701428D01*
X124509523Y-392653809D01*
X124461904Y-392606190D01*
X124414285Y-392510952D01*
X125366666Y-394252380D02*
X125700000Y-393776190D01*
X125938095Y-394252380D02*
X125938095Y-393252380D01*
X125557142Y-393252380D01*
X125461904Y-393300000D01*
X125414285Y-393347619D01*
X125366666Y-393442857D01*
X125366666Y-393585714D01*
X125414285Y-393680952D01*
X125461904Y-393728571D01*
X125557142Y-393776190D01*
X125938095Y-393776190D01*
X124795238Y-393680952D02*
X124890476Y-393633333D01*
X124938095Y-393585714D01*
X124985714Y-393490476D01*
X124985714Y-393442857D01*
X124938095Y-393347619D01*
X124890476Y-393300000D01*
X124795238Y-393252380D01*
X124604761Y-393252380D01*
X124509523Y-393300000D01*
X124461904Y-393347619D01*
X124414285Y-393442857D01*
X124414285Y-393490476D01*
X124461904Y-393585714D01*
X124509523Y-393633333D01*
X124604761Y-393680952D01*
X124795238Y-393680952D01*
X124890476Y-393728571D01*
X124938095Y-393776190D01*
X124985714Y-393871428D01*
X124985714Y-394061904D01*
X124938095Y-394157142D01*
X124890476Y-394204761D01*
X124795238Y-394252380D01*
X124604761Y-394252380D01*
X124509523Y-394204761D01*
X124461904Y-394157142D01*
X124414285Y-394061904D01*
X124414285Y-393871428D01*
X124461904Y-393776190D01*
X124509523Y-393728571D01*
X124604761Y-393680952D01*
X99907142Y-440357142D02*
X99954761Y-440309523D01*
X100002380Y-440166666D01*
X100002380Y-440071428D01*
X99954761Y-439928571D01*
X99859523Y-439833333D01*
X99764285Y-439785714D01*
X99573809Y-439738095D01*
X99430952Y-439738095D01*
X99240476Y-439785714D01*
X99145238Y-439833333D01*
X99050000Y-439928571D01*
X99002380Y-440071428D01*
X99002380Y-440166666D01*
X99050000Y-440309523D01*
X99097619Y-440357142D01*
X100002380Y-441309523D02*
X100002380Y-440738095D01*
X100002380Y-441023809D02*
X99002380Y-441023809D01*
X99145238Y-440928571D01*
X99240476Y-440833333D01*
X99288095Y-440738095D01*
X100002380Y-442261904D02*
X100002380Y-441690476D01*
X100002380Y-441976190D02*
X99002380Y-441976190D01*
X99145238Y-441880952D01*
X99240476Y-441785714D01*
X99288095Y-441690476D01*
X106591666Y-468712380D02*
X106925000Y-468236190D01*
X107163095Y-468712380D02*
X107163095Y-467712380D01*
X106782142Y-467712380D01*
X106686904Y-467760000D01*
X106639285Y-467807619D01*
X106591666Y-467902857D01*
X106591666Y-468045714D01*
X106639285Y-468140952D01*
X106686904Y-468188571D01*
X106782142Y-468236190D01*
X107163095Y-468236190D01*
X106258333Y-467712380D02*
X105591666Y-467712380D01*
X106020238Y-468712380D01*
X119366666Y-460652380D02*
X119700000Y-460176190D01*
X119938095Y-460652380D02*
X119938095Y-459652380D01*
X119557142Y-459652380D01*
X119461904Y-459700000D01*
X119414285Y-459747619D01*
X119366666Y-459842857D01*
X119366666Y-459985714D01*
X119414285Y-460080952D01*
X119461904Y-460128571D01*
X119557142Y-460176190D01*
X119938095Y-460176190D01*
X118509523Y-459652380D02*
X118700000Y-459652380D01*
X118795238Y-459700000D01*
X118842857Y-459747619D01*
X118938095Y-459890476D01*
X118985714Y-460080952D01*
X118985714Y-460461904D01*
X118938095Y-460557142D01*
X118890476Y-460604761D01*
X118795238Y-460652380D01*
X118604761Y-460652380D01*
X118509523Y-460604761D01*
X118461904Y-460557142D01*
X118414285Y-460461904D01*
X118414285Y-460223809D01*
X118461904Y-460128571D01*
X118509523Y-460080952D01*
X118604761Y-460033333D01*
X118795238Y-460033333D01*
X118890476Y-460080952D01*
X118938095Y-460128571D01*
X118985714Y-460223809D01*
X97692380Y-453045333D02*
X97216190Y-452712000D01*
X97692380Y-452473904D02*
X96692380Y-452473904D01*
X96692380Y-452854857D01*
X96740000Y-452950095D01*
X96787619Y-452997714D01*
X96882857Y-453045333D01*
X97025714Y-453045333D01*
X97120952Y-452997714D01*
X97168571Y-452950095D01*
X97216190Y-452854857D01*
X97216190Y-452473904D01*
X96692380Y-453378666D02*
X96692380Y-453997714D01*
X97073333Y-453664380D01*
X97073333Y-453807238D01*
X97120952Y-453902476D01*
X97168571Y-453950095D01*
X97263809Y-453997714D01*
X97501904Y-453997714D01*
X97597142Y-453950095D01*
X97644761Y-453902476D01*
X97692380Y-453807238D01*
X97692380Y-453521523D01*
X97644761Y-453426285D01*
X97597142Y-453378666D01*
X108587142Y-467492142D02*
X108634761Y-467444523D01*
X108682380Y-467301666D01*
X108682380Y-467206428D01*
X108634761Y-467063571D01*
X108539523Y-466968333D01*
X108444285Y-466920714D01*
X108253809Y-466873095D01*
X108110952Y-466873095D01*
X107920476Y-466920714D01*
X107825238Y-466968333D01*
X107730000Y-467063571D01*
X107682380Y-467206428D01*
X107682380Y-467301666D01*
X107730000Y-467444523D01*
X107777619Y-467492142D01*
X108682380Y-468444523D02*
X108682380Y-467873095D01*
X108682380Y-468158809D02*
X107682380Y-468158809D01*
X107825238Y-468063571D01*
X107920476Y-467968333D01*
X107968095Y-467873095D01*
X107682380Y-468777857D02*
X107682380Y-469444523D01*
X108682380Y-469015952D01*
X115927142Y-454772142D02*
X115974761Y-454724523D01*
X116022380Y-454581666D01*
X116022380Y-454486428D01*
X115974761Y-454343571D01*
X115879523Y-454248333D01*
X115784285Y-454200714D01*
X115593809Y-454153095D01*
X115450952Y-454153095D01*
X115260476Y-454200714D01*
X115165238Y-454248333D01*
X115070000Y-454343571D01*
X115022380Y-454486428D01*
X115022380Y-454581666D01*
X115070000Y-454724523D01*
X115117619Y-454772142D01*
X116022380Y-455724523D02*
X116022380Y-455153095D01*
X116022380Y-455438809D02*
X115022380Y-455438809D01*
X115165238Y-455343571D01*
X115260476Y-455248333D01*
X115308095Y-455153095D01*
X115022380Y-456581666D02*
X115022380Y-456391190D01*
X115070000Y-456295952D01*
X115117619Y-456248333D01*
X115260476Y-456153095D01*
X115450952Y-456105476D01*
X115831904Y-456105476D01*
X115927142Y-456153095D01*
X115974761Y-456200714D01*
X116022380Y-456295952D01*
X116022380Y-456486428D01*
X115974761Y-456581666D01*
X115927142Y-456629285D01*
X115831904Y-456676904D01*
X115593809Y-456676904D01*
X115498571Y-456629285D01*
X115450952Y-456581666D01*
X115403333Y-456486428D01*
X115403333Y-456295952D01*
X115450952Y-456200714D01*
X115498571Y-456153095D01*
X115593809Y-456105476D01*
X122012857Y-463475142D02*
X122060476Y-463522761D01*
X122203333Y-463570380D01*
X122298571Y-463570380D01*
X122441428Y-463522761D01*
X122536666Y-463427523D01*
X122584285Y-463332285D01*
X122631904Y-463141809D01*
X122631904Y-462998952D01*
X122584285Y-462808476D01*
X122536666Y-462713238D01*
X122441428Y-462618000D01*
X122298571Y-462570380D01*
X122203333Y-462570380D01*
X122060476Y-462618000D01*
X122012857Y-462665619D01*
X121060476Y-463570380D02*
X121631904Y-463570380D01*
X121346190Y-463570380D02*
X121346190Y-462570380D01*
X121441428Y-462713238D01*
X121536666Y-462808476D01*
X121631904Y-462856095D01*
X120155714Y-462570380D02*
X120631904Y-462570380D01*
X120679523Y-463046571D01*
X120631904Y-462998952D01*
X120536666Y-462951333D01*
X120298571Y-462951333D01*
X120203333Y-462998952D01*
X120155714Y-463046571D01*
X120108095Y-463141809D01*
X120108095Y-463379904D01*
X120155714Y-463475142D01*
X120203333Y-463522761D01*
X120298571Y-463570380D01*
X120536666Y-463570380D01*
X120631904Y-463522761D01*
X120679523Y-463475142D01*
X107057857Y-460737142D02*
X107105476Y-460784761D01*
X107248333Y-460832380D01*
X107343571Y-460832380D01*
X107486428Y-460784761D01*
X107581666Y-460689523D01*
X107629285Y-460594285D01*
X107676904Y-460403809D01*
X107676904Y-460260952D01*
X107629285Y-460070476D01*
X107581666Y-459975238D01*
X107486428Y-459880000D01*
X107343571Y-459832380D01*
X107248333Y-459832380D01*
X107105476Y-459880000D01*
X107057857Y-459927619D01*
X106105476Y-460832380D02*
X106676904Y-460832380D01*
X106391190Y-460832380D02*
X106391190Y-459832380D01*
X106486428Y-459975238D01*
X106581666Y-460070476D01*
X106676904Y-460118095D01*
X105248333Y-460165714D02*
X105248333Y-460832380D01*
X105486428Y-459784761D02*
X105724523Y-460499047D01*
X105105476Y-460499047D01*
X122012857Y-464745142D02*
X122060476Y-464792761D01*
X122203333Y-464840380D01*
X122298571Y-464840380D01*
X122441428Y-464792761D01*
X122536666Y-464697523D01*
X122584285Y-464602285D01*
X122631904Y-464411809D01*
X122631904Y-464268952D01*
X122584285Y-464078476D01*
X122536666Y-463983238D01*
X122441428Y-463888000D01*
X122298571Y-463840380D01*
X122203333Y-463840380D01*
X122060476Y-463888000D01*
X122012857Y-463935619D01*
X121060476Y-464840380D02*
X121631904Y-464840380D01*
X121346190Y-464840380D02*
X121346190Y-463840380D01*
X121441428Y-463983238D01*
X121536666Y-464078476D01*
X121631904Y-464126095D01*
X120727142Y-463840380D02*
X120108095Y-463840380D01*
X120441428Y-464221333D01*
X120298571Y-464221333D01*
X120203333Y-464268952D01*
X120155714Y-464316571D01*
X120108095Y-464411809D01*
X120108095Y-464649904D01*
X120155714Y-464745142D01*
X120203333Y-464792761D01*
X120298571Y-464840380D01*
X120584285Y-464840380D01*
X120679523Y-464792761D01*
X120727142Y-464745142D01*
X104740857Y-465253142D02*
X104788476Y-465300761D01*
X104931333Y-465348380D01*
X105026571Y-465348380D01*
X105169428Y-465300761D01*
X105264666Y-465205523D01*
X105312285Y-465110285D01*
X105359904Y-464919809D01*
X105359904Y-464776952D01*
X105312285Y-464586476D01*
X105264666Y-464491238D01*
X105169428Y-464396000D01*
X105026571Y-464348380D01*
X104931333Y-464348380D01*
X104788476Y-464396000D01*
X104740857Y-464443619D01*
X103788476Y-465348380D02*
X104359904Y-465348380D01*
X104074190Y-465348380D02*
X104074190Y-464348380D01*
X104169428Y-464491238D01*
X104264666Y-464586476D01*
X104359904Y-464634095D01*
X103407523Y-464443619D02*
X103359904Y-464396000D01*
X103264666Y-464348380D01*
X103026571Y-464348380D01*
X102931333Y-464396000D01*
X102883714Y-464443619D01*
X102836095Y-464538857D01*
X102836095Y-464634095D01*
X102883714Y-464776952D01*
X103455142Y-465348380D01*
X102836095Y-465348380D01*
X96612857Y-464237142D02*
X96660476Y-464284761D01*
X96803333Y-464332380D01*
X96898571Y-464332380D01*
X97041428Y-464284761D01*
X97136666Y-464189523D01*
X97184285Y-464094285D01*
X97231904Y-463903809D01*
X97231904Y-463760952D01*
X97184285Y-463570476D01*
X97136666Y-463475238D01*
X97041428Y-463380000D01*
X96898571Y-463332380D01*
X96803333Y-463332380D01*
X96660476Y-463380000D01*
X96612857Y-463427619D01*
X95660476Y-464332380D02*
X96231904Y-464332380D01*
X95946190Y-464332380D02*
X95946190Y-463332380D01*
X96041428Y-463475238D01*
X96136666Y-463570476D01*
X96231904Y-463618095D01*
X95041428Y-463332380D02*
X94946190Y-463332380D01*
X94850952Y-463380000D01*
X94803333Y-463427619D01*
X94755714Y-463522857D01*
X94708095Y-463713333D01*
X94708095Y-463951428D01*
X94755714Y-464141904D01*
X94803333Y-464237142D01*
X94850952Y-464284761D01*
X94946190Y-464332380D01*
X95041428Y-464332380D01*
X95136666Y-464284761D01*
X95184285Y-464237142D01*
X95231904Y-464141904D01*
X95279523Y-463951428D01*
X95279523Y-463713333D01*
X95231904Y-463522857D01*
X95184285Y-463427619D01*
X95136666Y-463380000D01*
X95041428Y-463332380D01*
X105691666Y-438962142D02*
X105739285Y-439009761D01*
X105882142Y-439057380D01*
X105977380Y-439057380D01*
X106120238Y-439009761D01*
X106215476Y-438914523D01*
X106263095Y-438819285D01*
X106310714Y-438628809D01*
X106310714Y-438485952D01*
X106263095Y-438295476D01*
X106215476Y-438200238D01*
X106120238Y-438105000D01*
X105977380Y-438057380D01*
X105882142Y-438057380D01*
X105739285Y-438105000D01*
X105691666Y-438152619D01*
X105215476Y-439057380D02*
X105025000Y-439057380D01*
X104929761Y-439009761D01*
X104882142Y-438962142D01*
X104786904Y-438819285D01*
X104739285Y-438628809D01*
X104739285Y-438247857D01*
X104786904Y-438152619D01*
X104834523Y-438105000D01*
X104929761Y-438057380D01*
X105120238Y-438057380D01*
X105215476Y-438105000D01*
X105263095Y-438152619D01*
X105310714Y-438247857D01*
X105310714Y-438485952D01*
X105263095Y-438581190D01*
X105215476Y-438628809D01*
X105120238Y-438676428D01*
X104929761Y-438676428D01*
X104834523Y-438628809D01*
X104786904Y-438581190D01*
X104739285Y-438485952D01*
X104772666Y-466523142D02*
X104820285Y-466570761D01*
X104963142Y-466618380D01*
X105058380Y-466618380D01*
X105201238Y-466570761D01*
X105296476Y-466475523D01*
X105344095Y-466380285D01*
X105391714Y-466189809D01*
X105391714Y-466046952D01*
X105344095Y-465856476D01*
X105296476Y-465761238D01*
X105201238Y-465666000D01*
X105058380Y-465618380D01*
X104963142Y-465618380D01*
X104820285Y-465666000D01*
X104772666Y-465713619D01*
X104439333Y-465618380D02*
X103772666Y-465618380D01*
X104201238Y-466618380D01*
X110297142Y-456133333D02*
X110344761Y-456085714D01*
X110392380Y-455942857D01*
X110392380Y-455847619D01*
X110344761Y-455704761D01*
X110249523Y-455609523D01*
X110154285Y-455561904D01*
X109963809Y-455514285D01*
X109820952Y-455514285D01*
X109630476Y-455561904D01*
X109535238Y-455609523D01*
X109440000Y-455704761D01*
X109392380Y-455847619D01*
X109392380Y-455942857D01*
X109440000Y-456085714D01*
X109487619Y-456133333D01*
X109392380Y-456990476D02*
X109392380Y-456800000D01*
X109440000Y-456704761D01*
X109487619Y-456657142D01*
X109630476Y-456561904D01*
X109820952Y-456514285D01*
X110201904Y-456514285D01*
X110297142Y-456561904D01*
X110344761Y-456609523D01*
X110392380Y-456704761D01*
X110392380Y-456895238D01*
X110344761Y-456990476D01*
X110297142Y-457038095D01*
X110201904Y-457085714D01*
X109963809Y-457085714D01*
X109868571Y-457038095D01*
X109820952Y-456990476D01*
X109773333Y-456895238D01*
X109773333Y-456704761D01*
X109820952Y-456609523D01*
X109868571Y-456561904D01*
X109963809Y-456514285D01*
X121316666Y-459665142D02*
X121364285Y-459712761D01*
X121507142Y-459760380D01*
X121602380Y-459760380D01*
X121745238Y-459712761D01*
X121840476Y-459617523D01*
X121888095Y-459522285D01*
X121935714Y-459331809D01*
X121935714Y-459188952D01*
X121888095Y-458998476D01*
X121840476Y-458903238D01*
X121745238Y-458808000D01*
X121602380Y-458760380D01*
X121507142Y-458760380D01*
X121364285Y-458808000D01*
X121316666Y-458855619D01*
X120411904Y-458760380D02*
X120888095Y-458760380D01*
X120935714Y-459236571D01*
X120888095Y-459188952D01*
X120792857Y-459141333D01*
X120554761Y-459141333D01*
X120459523Y-459188952D01*
X120411904Y-459236571D01*
X120364285Y-459331809D01*
X120364285Y-459569904D01*
X120411904Y-459665142D01*
X120459523Y-459712761D01*
X120554761Y-459760380D01*
X120792857Y-459760380D01*
X120888095Y-459712761D01*
X120935714Y-459665142D01*
X121282666Y-458395142D02*
X121330285Y-458442761D01*
X121473142Y-458490380D01*
X121568380Y-458490380D01*
X121711238Y-458442761D01*
X121806476Y-458347523D01*
X121854095Y-458252285D01*
X121901714Y-458061809D01*
X121901714Y-457918952D01*
X121854095Y-457728476D01*
X121806476Y-457633238D01*
X121711238Y-457538000D01*
X121568380Y-457490380D01*
X121473142Y-457490380D01*
X121330285Y-457538000D01*
X121282666Y-457585619D01*
X120425523Y-457823714D02*
X120425523Y-458490380D01*
X120663619Y-457442761D02*
X120901714Y-458157047D01*
X120282666Y-458157047D01*
X104772666Y-462967142D02*
X104820285Y-463014761D01*
X104963142Y-463062380D01*
X105058380Y-463062380D01*
X105201238Y-463014761D01*
X105296476Y-462919523D01*
X105344095Y-462824285D01*
X105391714Y-462633809D01*
X105391714Y-462490952D01*
X105344095Y-462300476D01*
X105296476Y-462205238D01*
X105201238Y-462110000D01*
X105058380Y-462062380D01*
X104963142Y-462062380D01*
X104820285Y-462110000D01*
X104772666Y-462157619D01*
X104439333Y-462062380D02*
X103820285Y-462062380D01*
X104153619Y-462443333D01*
X104010761Y-462443333D01*
X103915523Y-462490952D01*
X103867904Y-462538571D01*
X103820285Y-462633809D01*
X103820285Y-462871904D01*
X103867904Y-462967142D01*
X103915523Y-463014761D01*
X104010761Y-463062380D01*
X104296476Y-463062380D01*
X104391714Y-463014761D01*
X104439333Y-462967142D01*
X113817142Y-468063333D02*
X113864761Y-468015714D01*
X113912380Y-467872857D01*
X113912380Y-467777619D01*
X113864761Y-467634761D01*
X113769523Y-467539523D01*
X113674285Y-467491904D01*
X113483809Y-467444285D01*
X113340952Y-467444285D01*
X113150476Y-467491904D01*
X113055238Y-467539523D01*
X112960000Y-467634761D01*
X112912380Y-467777619D01*
X112912380Y-467872857D01*
X112960000Y-468015714D01*
X113007619Y-468063333D01*
X113007619Y-468444285D02*
X112960000Y-468491904D01*
X112912380Y-468587142D01*
X112912380Y-468825238D01*
X112960000Y-468920476D01*
X113007619Y-468968095D01*
X113102857Y-469015714D01*
X113198095Y-469015714D01*
X113340952Y-468968095D01*
X113912380Y-468396666D01*
X113912380Y-469015714D01*
X116729523Y-397472380D02*
X116729523Y-398186666D01*
X116777142Y-398329523D01*
X116872380Y-398424761D01*
X117015238Y-398472380D01*
X117110476Y-398472380D01*
X116348571Y-397472380D02*
X115729523Y-397472380D01*
X116062857Y-397853333D01*
X115920000Y-397853333D01*
X115824761Y-397900952D01*
X115777142Y-397948571D01*
X115729523Y-398043809D01*
X115729523Y-398281904D01*
X115777142Y-398377142D01*
X115824761Y-398424761D01*
X115920000Y-398472380D01*
X116205714Y-398472380D01*
X116300952Y-398424761D01*
X116348571Y-398377142D01*
X115348571Y-397567619D02*
X115300952Y-397520000D01*
X115205714Y-397472380D01*
X114967619Y-397472380D01*
X114872380Y-397520000D01*
X114824761Y-397567619D01*
X114777142Y-397662857D01*
X114777142Y-397758095D01*
X114824761Y-397900952D01*
X115396190Y-398472380D01*
X114777142Y-398472380D01*
D14*
X123429144Y-409709883D02*
X124336287Y-409709883D01*
X124517716Y-409649407D01*
X124638668Y-409528455D01*
X124699144Y-409347026D01*
X124699144Y-409226074D01*
X123429144Y-410193693D02*
X123429144Y-410979883D01*
X123912954Y-410556550D01*
X123912954Y-410737979D01*
X123973430Y-410858931D01*
X124033906Y-410919407D01*
X124154859Y-410979883D01*
X124457240Y-410979883D01*
X124578192Y-410919407D01*
X124638668Y-410858931D01*
X124699144Y-410737979D01*
X124699144Y-410375121D01*
X124638668Y-410254169D01*
X124578192Y-410193693D01*
X123429144Y-412068455D02*
X123429144Y-411826550D01*
X123489621Y-411705598D01*
X123550097Y-411645121D01*
X123731525Y-411524169D01*
X123973430Y-411463693D01*
X124457240Y-411463693D01*
X124578192Y-411524169D01*
X124638668Y-411584645D01*
X124699144Y-411705598D01*
X124699144Y-411947502D01*
X124638668Y-412068455D01*
X124578192Y-412128931D01*
X124457240Y-412189407D01*
X124154859Y-412189407D01*
X124033906Y-412128931D01*
X123973430Y-412068455D01*
X123912954Y-411947502D01*
X123912954Y-411705598D01*
X123973430Y-411584645D01*
X124033906Y-411524169D01*
X124154859Y-411463693D01*
D10*
X129685618Y-402100685D02*
X129685618Y-402814971D01*
X129733237Y-402957828D01*
X129828475Y-403053066D01*
X129971333Y-403100685D01*
X130066571Y-403100685D01*
X129304666Y-402100685D02*
X128685618Y-402100685D01*
X129018952Y-402481638D01*
X128876095Y-402481638D01*
X128780856Y-402529257D01*
X128733237Y-402576876D01*
X128685618Y-402672114D01*
X128685618Y-402910209D01*
X128733237Y-403005447D01*
X128780856Y-403053066D01*
X128876095Y-403100685D01*
X129161809Y-403100685D01*
X129257047Y-403053066D01*
X129304666Y-403005447D01*
X128209428Y-403100685D02*
X128018952Y-403100685D01*
X127923714Y-403053066D01*
X127876095Y-403005447D01*
X127780856Y-402862590D01*
X127733237Y-402672114D01*
X127733237Y-402291162D01*
X127780856Y-402195924D01*
X127828475Y-402148305D01*
X127923714Y-402100685D01*
X128114190Y-402100685D01*
X128209428Y-402148305D01*
X128257047Y-402195924D01*
X128304666Y-402291162D01*
X128304666Y-402529257D01*
X128257047Y-402624495D01*
X128209428Y-402672114D01*
X128114190Y-402719733D01*
X127923714Y-402719733D01*
X127828475Y-402672114D01*
X127780856Y-402624495D01*
X127733237Y-402529257D01*
X129750122Y-450177273D02*
X129750122Y-450891559D01*
X129797741Y-451034416D01*
X129892979Y-451129654D01*
X130035837Y-451177273D01*
X130131075Y-451177273D01*
X128845360Y-450510607D02*
X128845360Y-451177273D01*
X129083456Y-450129654D02*
X129321551Y-450843940D01*
X128702503Y-450843940D01*
X127845360Y-450177273D02*
X128321551Y-450177273D01*
X128369170Y-450653464D01*
X128321551Y-450605845D01*
X128226313Y-450558226D01*
X127988218Y-450558226D01*
X127892979Y-450605845D01*
X127845360Y-450653464D01*
X127797741Y-450748702D01*
X127797741Y-450986797D01*
X127845360Y-451082035D01*
X127892979Y-451129654D01*
X127988218Y-451177273D01*
X128226313Y-451177273D01*
X128321551Y-451129654D01*
X128369170Y-451082035D01*
X117849694Y-407085332D02*
X117849694Y-406085332D01*
X117516361Y-406799618D01*
X117183028Y-406085332D01*
X117183028Y-407085332D01*
X116802075Y-406085332D02*
X116135409Y-407085332D01*
X116135409Y-406085332D02*
X116802075Y-407085332D01*
X115230647Y-407085332D02*
X115802075Y-407085332D01*
X115516361Y-407085332D02*
X115516361Y-406085332D01*
X115611599Y-406228190D01*
X115706837Y-406323428D01*
X115802075Y-406371047D01*
X114754456Y-407085332D02*
X114563980Y-407085332D01*
X114468742Y-407037713D01*
X114421123Y-406990094D01*
X114325885Y-406847237D01*
X114278266Y-406656761D01*
X114278266Y-406275809D01*
X114325885Y-406180571D01*
X114373504Y-406132952D01*
X114468742Y-406085332D01*
X114659218Y-406085332D01*
X114754456Y-406132952D01*
X114802075Y-406180571D01*
X114849694Y-406275809D01*
X114849694Y-406513904D01*
X114802075Y-406609142D01*
X114754456Y-406656761D01*
X114659218Y-406704380D01*
X114468742Y-406704380D01*
X114373504Y-406656761D01*
X114325885Y-406609142D01*
X114278266Y-406513904D01*
X89739693Y-438345333D02*
X89739693Y-437345333D01*
X89406360Y-438059619D01*
X89073027Y-437345333D01*
X89073027Y-438345333D01*
X88692074Y-437345333D02*
X88025408Y-438345333D01*
X88025408Y-437345333D02*
X88692074Y-438345333D01*
X87120646Y-438345333D02*
X87692074Y-438345333D01*
X87406360Y-438345333D02*
X87406360Y-437345333D01*
X87501598Y-437488191D01*
X87596836Y-437583429D01*
X87692074Y-437631048D01*
X86263503Y-437678667D02*
X86263503Y-438345333D01*
X86501598Y-437297714D02*
X86739693Y-438012000D01*
X86120646Y-438012000D01*
X108239694Y-394845332D02*
X108239694Y-393845332D01*
X107906361Y-394559618D01*
X107573028Y-393845332D01*
X107573028Y-394845332D01*
X107192075Y-393845332D02*
X106525409Y-394845332D01*
X106525409Y-393845332D02*
X107192075Y-394845332D01*
X105620647Y-394845332D02*
X106192075Y-394845332D01*
X105906361Y-394845332D02*
X105906361Y-393845332D01*
X106001599Y-393988190D01*
X106096837Y-394083428D01*
X106192075Y-394131047D01*
X104715885Y-393845332D02*
X105192075Y-393845332D01*
X105239694Y-394321523D01*
X105192075Y-394273904D01*
X105096837Y-394226285D01*
X104858742Y-394226285D01*
X104763504Y-394273904D01*
X104715885Y-394321523D01*
X104668266Y-394416761D01*
X104668266Y-394654856D01*
X104715885Y-394750094D01*
X104763504Y-394797713D01*
X104858742Y-394845332D01*
X105096837Y-394845332D01*
X105192075Y-394797713D01*
X105239694Y-394750094D01*
X108239694Y-429845332D02*
X108239694Y-428845332D01*
X107906361Y-429559618D01*
X107573028Y-428845332D01*
X107573028Y-429845332D01*
X107192075Y-428845332D02*
X106525409Y-429845332D01*
X106525409Y-428845332D02*
X107192075Y-429845332D01*
X105620647Y-429845332D02*
X106192075Y-429845332D01*
X105906361Y-429845332D02*
X105906361Y-428845332D01*
X106001599Y-428988190D01*
X106096837Y-429083428D01*
X106192075Y-429131047D01*
X105287313Y-428845332D02*
X104620647Y-428845332D01*
X105049218Y-429845332D01*
X117849693Y-424585332D02*
X117849693Y-423585332D01*
X117516360Y-424299618D01*
X117183027Y-423585332D01*
X117183027Y-424585332D01*
X116802074Y-423585332D02*
X116135408Y-424585332D01*
X116135408Y-423585332D02*
X116802074Y-424585332D01*
X115802074Y-423680571D02*
X115754455Y-423632952D01*
X115659217Y-423585332D01*
X115421122Y-423585332D01*
X115325884Y-423632952D01*
X115278265Y-423680571D01*
X115230646Y-423775809D01*
X115230646Y-423871047D01*
X115278265Y-424013904D01*
X115849693Y-424585332D01*
X115230646Y-424585332D01*
X114611598Y-423585332D02*
X114516360Y-423585332D01*
X114421122Y-423632952D01*
X114373503Y-423680571D01*
X114325884Y-423775809D01*
X114278265Y-423966285D01*
X114278265Y-424204380D01*
X114325884Y-424394856D01*
X114373503Y-424490094D01*
X114421122Y-424537713D01*
X114516360Y-424585332D01*
X114611598Y-424585332D01*
X114706836Y-424537713D01*
X114754455Y-424490094D01*
X114802074Y-424394856D01*
X114849693Y-424204380D01*
X114849693Y-423966285D01*
X114802074Y-423775809D01*
X114754455Y-423680571D01*
X114706836Y-423632952D01*
X114611598Y-423585332D01*
X126739693Y-426845332D02*
X126739693Y-425845332D01*
X126406360Y-426559618D01*
X126073027Y-425845332D01*
X126073027Y-426845332D01*
X125692074Y-425845332D02*
X125025408Y-426845332D01*
X125025408Y-425845332D02*
X125692074Y-426845332D01*
X124692074Y-425940571D02*
X124644455Y-425892952D01*
X124549217Y-425845332D01*
X124311122Y-425845332D01*
X124215884Y-425892952D01*
X124168265Y-425940571D01*
X124120646Y-426035809D01*
X124120646Y-426131047D01*
X124168265Y-426273904D01*
X124739693Y-426845332D01*
X124120646Y-426845332D01*
X123168265Y-426845332D02*
X123739693Y-426845332D01*
X123453979Y-426845332D02*
X123453979Y-425845332D01*
X123549217Y-425988190D01*
X123644455Y-426083428D01*
X123739693Y-426131047D01*
X71239693Y-443345332D02*
X71239693Y-442345332D01*
X70906360Y-443059618D01*
X70573027Y-442345332D01*
X70573027Y-443345332D01*
X70192074Y-442345332D02*
X69525408Y-443345332D01*
X69525408Y-442345332D02*
X70192074Y-443345332D01*
X68620646Y-443345332D02*
X69192074Y-443345332D01*
X68906360Y-443345332D02*
X68906360Y-442345332D01*
X69001598Y-442488190D01*
X69096836Y-442583428D01*
X69192074Y-442631047D01*
X68001598Y-442345332D02*
X67906360Y-442345332D01*
X67811122Y-442392952D01*
X67763503Y-442440571D01*
X67715884Y-442535809D01*
X67668265Y-442726285D01*
X67668265Y-442964380D01*
X67715884Y-443154856D01*
X67763503Y-443250094D01*
X67811122Y-443297713D01*
X67906360Y-443345332D01*
X68001598Y-443345332D01*
X68096836Y-443297713D01*
X68144455Y-443250094D01*
X68192074Y-443154856D01*
X68239693Y-442964380D01*
X68239693Y-442726285D01*
X68192074Y-442535809D01*
X68144455Y-442440571D01*
X68096836Y-442392952D01*
X68001598Y-442345332D01*
X108239693Y-412345332D02*
X108239693Y-411345332D01*
X107906360Y-412059618D01*
X107573027Y-411345332D01*
X107573027Y-412345332D01*
X107192074Y-411345332D02*
X106525408Y-412345332D01*
X106525408Y-411345332D02*
X107192074Y-412345332D01*
X105620646Y-412345332D02*
X106192074Y-412345332D01*
X105906360Y-412345332D02*
X105906360Y-411345332D01*
X106001598Y-411488190D01*
X106096836Y-411583428D01*
X106192074Y-411631047D01*
X104763503Y-411345332D02*
X104953979Y-411345332D01*
X105049217Y-411392952D01*
X105096836Y-411440571D01*
X105192074Y-411583428D01*
X105239693Y-411773904D01*
X105239693Y-412154856D01*
X105192074Y-412250094D01*
X105144455Y-412297713D01*
X105049217Y-412345332D01*
X104858741Y-412345332D01*
X104763503Y-412297713D01*
X104715884Y-412250094D01*
X104668265Y-412154856D01*
X104668265Y-411916761D01*
X104715884Y-411821523D01*
X104763503Y-411773904D01*
X104858741Y-411726285D01*
X105049217Y-411726285D01*
X105144455Y-411773904D01*
X105192074Y-411821523D01*
X105239693Y-411916761D01*
X56866122Y-448315332D02*
X56866122Y-449029618D01*
X56913741Y-449172475D01*
X57008979Y-449267713D01*
X57151836Y-449315332D01*
X57247074Y-449315332D01*
X55866122Y-449315332D02*
X56437550Y-449315332D01*
X56151836Y-449315332D02*
X56151836Y-448315332D01*
X56247074Y-448458190D01*
X56342312Y-448553428D01*
X56437550Y-448601047D01*
X107779354Y-427137638D02*
X108493640Y-427137638D01*
X108636497Y-427090019D01*
X108731735Y-426994781D01*
X108779354Y-426851924D01*
X108779354Y-426756686D01*
X108207926Y-427756686D02*
X108160307Y-427661448D01*
X108112688Y-427613829D01*
X108017450Y-427566210D01*
X107969831Y-427566210D01*
X107874593Y-427613829D01*
X107826974Y-427661448D01*
X107779354Y-427756686D01*
X107779354Y-427947162D01*
X107826974Y-428042400D01*
X107874593Y-428090019D01*
X107969831Y-428137638D01*
X108017450Y-428137638D01*
X108112688Y-428090019D01*
X108160307Y-428042400D01*
X108207926Y-427947162D01*
X108207926Y-427756686D01*
X108255545Y-427661448D01*
X108303164Y-427613829D01*
X108398402Y-427566210D01*
X108588878Y-427566210D01*
X108684116Y-427613829D01*
X108731735Y-427661448D01*
X108779354Y-427756686D01*
X108779354Y-427947162D01*
X108731735Y-428042400D01*
X108684116Y-428090019D01*
X108588878Y-428137638D01*
X108398402Y-428137638D01*
X108303164Y-428090019D01*
X108255545Y-428042400D01*
X108207926Y-427947162D01*
X107752380Y-390966666D02*
X108466666Y-390966666D01*
X108609523Y-390919047D01*
X108704761Y-390823809D01*
X108752380Y-390680952D01*
X108752380Y-390585714D01*
X107847619Y-391395238D02*
X107800000Y-391442857D01*
X107752380Y-391538095D01*
X107752380Y-391776190D01*
X107800000Y-391871428D01*
X107847619Y-391919047D01*
X107942857Y-391966666D01*
X108038095Y-391966666D01*
X108180952Y-391919047D01*
X108752380Y-391347619D01*
X108752380Y-391966666D01*
X107936541Y-409601868D02*
X108650827Y-409601868D01*
X108793684Y-409554249D01*
X108888922Y-409459011D01*
X108936541Y-409316154D01*
X108936541Y-409220916D01*
X107936541Y-409982821D02*
X107936541Y-410649487D01*
X108936541Y-410220916D01*
X108762743Y-469586229D02*
X109452690Y-469771100D01*
X109603004Y-469762078D01*
X109719647Y-469694734D01*
X109802617Y-469569070D01*
X109827267Y-469477077D01*
X109469850Y-470810974D02*
X109617747Y-470259017D01*
X109543798Y-470534995D02*
X108577873Y-470276176D01*
X108740511Y-470221158D01*
X108857154Y-470153814D01*
X108927800Y-470074146D01*
X108282079Y-471380092D02*
X108331378Y-471196106D01*
X108402024Y-471116437D01*
X108460345Y-471082766D01*
X108622984Y-471027747D01*
X108819295Y-471031049D01*
X109187266Y-471129647D01*
X109266935Y-471200293D01*
X109300606Y-471258614D01*
X109321953Y-471362932D01*
X109272655Y-471546918D01*
X109202009Y-471626586D01*
X109143688Y-471660258D01*
X109039370Y-471681605D01*
X108809388Y-471619981D01*
X108729719Y-471549335D01*
X108696048Y-471491014D01*
X108674701Y-471386696D01*
X108723999Y-471202710D01*
X108794645Y-471123042D01*
X108852966Y-471089371D01*
X108957284Y-471068023D01*
D14*
X124770021Y-462217068D02*
X125374783Y-462217068D01*
X124104783Y-461793734D02*
X124770021Y-462217068D01*
X124104783Y-462640401D01*
X125374783Y-463728972D02*
X125374783Y-463003258D01*
X125374783Y-463366115D02*
X124104783Y-463366115D01*
X124286212Y-463245163D01*
X124407164Y-463124210D01*
X124467640Y-463003258D01*
D10*
X98978380Y-445592095D02*
X99787904Y-445592095D01*
X99883142Y-445639714D01*
X99930761Y-445687333D01*
X99978380Y-445782571D01*
X99978380Y-445973047D01*
X99930761Y-446068285D01*
X99883142Y-446115904D01*
X99787904Y-446163523D01*
X98978380Y-446163523D01*
X99978380Y-447163523D02*
X99978380Y-446592095D01*
X99978380Y-446877809D02*
X98978380Y-446877809D01*
X99121238Y-446782571D01*
X99216476Y-446687333D01*
X99264095Y-446592095D01*
D14*
X87340897Y-460954083D02*
X87906330Y-460479494D01*
X88041884Y-461141912D02*
X88370584Y-459915186D01*
X87903260Y-459789967D01*
X87770776Y-459817077D01*
X87696708Y-459859840D01*
X87606988Y-459961019D01*
X87560031Y-460136266D01*
X87587142Y-460268749D01*
X87629905Y-460342817D01*
X87731083Y-460432537D01*
X88198407Y-460557756D01*
X87143858Y-459586486D02*
X86877767Y-460579549D01*
X86788047Y-460680728D01*
X86713979Y-460723491D01*
X86581496Y-460750602D01*
X86347834Y-460687992D01*
X86246655Y-460598272D01*
X86203892Y-460524204D01*
X86176781Y-460391721D01*
X86442872Y-459398657D01*
X85530016Y-460468859D02*
X85858717Y-459242133D01*
X84829030Y-460281030D01*
X85157730Y-459054304D01*
X83602304Y-459952330D02*
X84303291Y-460140159D01*
X83952798Y-460046244D02*
X84281498Y-458819518D01*
X84351372Y-459026070D01*
X84436898Y-459174206D01*
X84538077Y-459263926D01*
X97560523Y-457814238D02*
X96290523Y-457814238D01*
X97439571Y-459144714D02*
X97500047Y-459084238D01*
X97560523Y-458902809D01*
X97560523Y-458781857D01*
X97500047Y-458600428D01*
X97379095Y-458479476D01*
X97258142Y-458419000D01*
X97016238Y-458358523D01*
X96834809Y-458358523D01*
X96592904Y-458419000D01*
X96471952Y-458479476D01*
X96351000Y-458600428D01*
X96290523Y-458781857D01*
X96290523Y-458902809D01*
X96351000Y-459084238D01*
X96411476Y-459144714D01*
X96411476Y-459628523D02*
X96351000Y-459689000D01*
X96290523Y-459809952D01*
X96290523Y-460112333D01*
X96351000Y-460233285D01*
X96411476Y-460293761D01*
X96532428Y-460354238D01*
X96653380Y-460354238D01*
X96834809Y-460293761D01*
X97560523Y-459568047D01*
X97560523Y-460354238D01*
X113374523Y-460810238D02*
X112104523Y-460810238D01*
X113253571Y-462140714D02*
X113314047Y-462080238D01*
X113374523Y-461898809D01*
X113374523Y-461777857D01*
X113314047Y-461596428D01*
X113193095Y-461475476D01*
X113072142Y-461415000D01*
X112830238Y-461354523D01*
X112648809Y-461354523D01*
X112406904Y-461415000D01*
X112285952Y-461475476D01*
X112165000Y-461596428D01*
X112104523Y-461777857D01*
X112104523Y-461898809D01*
X112165000Y-462080238D01*
X112225476Y-462140714D01*
X113374523Y-463350238D02*
X113374523Y-462624523D01*
X113374523Y-462987380D02*
X112104523Y-462987380D01*
X112285952Y-462866428D01*
X112406904Y-462745476D01*
X112467380Y-462624523D01*
D10*
X111133333Y-405108571D02*
X111466666Y-405108571D01*
X111466666Y-405632380D02*
X111466666Y-404632380D01*
X110990476Y-404632380D01*
X110085714Y-405632380D02*
X110657142Y-405632380D01*
X110371428Y-405632380D02*
X110371428Y-404632380D01*
X110466666Y-404775238D01*
X110561904Y-404870476D01*
X110657142Y-404918095D01*
D14*
X82108110Y-458953260D02*
X81917211Y-458964718D01*
X81843143Y-459007482D01*
X81753423Y-459108660D01*
X81706465Y-459283907D01*
X81733576Y-459416390D01*
X81776339Y-459490458D01*
X81877518Y-459580178D01*
X82344842Y-459705398D01*
X82673542Y-458478672D01*
X82264634Y-458369105D01*
X82132150Y-458396216D01*
X82058082Y-458438979D01*
X81968362Y-458540158D01*
X81937057Y-458656989D01*
X81964168Y-458789472D01*
X82006931Y-458863540D01*
X82108110Y-458953260D01*
X82517018Y-459062827D01*
X81213154Y-458087362D02*
X80979492Y-458024752D01*
X80847009Y-458051863D01*
X80698873Y-458137389D01*
X80577848Y-458355399D01*
X80468281Y-458764308D01*
X80464087Y-459013622D01*
X80549614Y-459161758D01*
X80650792Y-459251478D01*
X80884454Y-459314088D01*
X81016938Y-459286977D01*
X81165073Y-459201451D01*
X81286099Y-458983441D01*
X81395665Y-458574533D01*
X81399859Y-458325218D01*
X81314333Y-458177082D01*
X81213154Y-458087362D01*
X79928013Y-457743009D02*
X79694351Y-457680400D01*
X79561868Y-457707511D01*
X79413732Y-457793037D01*
X79292707Y-458011047D01*
X79183140Y-458419955D01*
X79178946Y-458669270D01*
X79264472Y-458817405D01*
X79365651Y-458907126D01*
X79599313Y-458969735D01*
X79731796Y-458942624D01*
X79879932Y-458857098D01*
X80000957Y-458639089D01*
X80110524Y-458230180D01*
X80114718Y-457980866D01*
X80029192Y-457832730D01*
X79928013Y-457743009D01*
X79051780Y-457508224D02*
X78350794Y-457320395D01*
X78372587Y-458641035D02*
X78701287Y-457414309D01*
X77687253Y-458394791D02*
X77496354Y-458406249D01*
X77204277Y-458327987D01*
X77103098Y-458238267D01*
X77060335Y-458164199D01*
X77033224Y-458031716D01*
X77064529Y-457914885D01*
X77154249Y-457813706D01*
X77228317Y-457770943D01*
X77360801Y-457743832D01*
X77610115Y-457748026D01*
X77742599Y-457720915D01*
X77816667Y-457678152D01*
X77906387Y-457576974D01*
X77937692Y-457460143D01*
X77910581Y-457327659D01*
X77867818Y-457253591D01*
X77766639Y-457163871D01*
X77474562Y-457085609D01*
X77283663Y-457097067D01*
X76617051Y-457481936D02*
X76208143Y-457372369D01*
X75860720Y-457967982D02*
X76444875Y-458124506D01*
X76773575Y-456897780D01*
X76189420Y-456741256D01*
X74750825Y-457670587D02*
X75334980Y-457827111D01*
X75663681Y-456600385D01*
X73699346Y-457388844D02*
X74400332Y-457576673D01*
X74049839Y-457482758D02*
X74378539Y-456256032D01*
X74448413Y-456462584D01*
X74533939Y-456610720D01*
X74635118Y-456700440D01*
M02*
