%FSLAX45Y45*%
G04 Gerber Fmt 4.5, Leading zero omitted, Abs format (unit mm)*
G04 Created by KiCad (PCBNEW (5.1.4)-1) date 2023-02-10 21:14:28*
%MOMM*%
%LPD*%
G04 APERTURE LIST*
%ADD10C,0.050000*%
%ADD11C,0.200000*%
%ADD12C,0.300000*%
G04 APERTURE END LIST*
D10*
X5213279Y-57941295D02*
X5213279Y-58651295D01*
X6273279Y-58771295D02*
X6293279Y-58771295D01*
X6693279Y-49551295D02*
X5338279Y-49551295D01*
X12781480Y-49941016D02*
X12563279Y-49726295D01*
X8843279Y-49076295D02*
X7188279Y-49076295D01*
X9513279Y-49726295D02*
X12563279Y-49726295D01*
X12783421Y-58633812D02*
X12963232Y-59078860D01*
X5213279Y-58651295D02*
X5353279Y-58771295D01*
X11753279Y-60241295D02*
X6293279Y-58771295D01*
X5338279Y-49551295D02*
X5253279Y-49636295D01*
X12675419Y-60155040D02*
X11753279Y-60241295D01*
X3618279Y-57666295D02*
X4813279Y-57666295D01*
X3203279Y-57251295D02*
X1913279Y-57251295D01*
X1913279Y-49636295D02*
X5253279Y-49636295D01*
X6273279Y-58771295D02*
X5353279Y-58771295D01*
X1733279Y-49636295D02*
X1423279Y-49976295D01*
X3618279Y-57666295D02*
X3223279Y-57251295D01*
X6693279Y-49551295D02*
X7188279Y-49076295D01*
X3203279Y-57251295D02*
X3223279Y-57251295D01*
X8843279Y-49076295D02*
X9513279Y-49726295D01*
X12675419Y-60155040D02*
X12963232Y-59078860D01*
X1423279Y-56951295D02*
X1733279Y-57251295D01*
X3385000Y-55466000D02*
G75*
G02X3285000Y-55466000I-50000J0D01*
G01*
X3285000Y-52254000D02*
G75*
G02X3385000Y-52254000I50000J0D01*
G01*
X3410000Y-56030000D02*
X3410000Y-57030000D01*
X3285000Y-50334000D02*
G75*
G02X3385000Y-50334000I50000J0D01*
G01*
X5213279Y-57941295D02*
X4813279Y-57666295D01*
X3285000Y-52254000D02*
X3285000Y-53556000D01*
X1913279Y-57251295D02*
X1733279Y-57251295D01*
X1733279Y-49636295D02*
X1913279Y-49636295D01*
X3285000Y-54164000D02*
G75*
G02X3385000Y-54164000I50000J0D01*
G01*
X3285000Y-54164000D02*
X3285000Y-55466000D01*
X3385000Y-54164000D02*
X3385000Y-55466000D01*
X3410000Y-57030000D02*
G75*
G02X3310000Y-57030000I-50000J0D01*
G01*
X1423279Y-56951295D02*
X1423279Y-49976295D01*
X3385000Y-51636000D02*
G75*
G02X3285000Y-51636000I-50000J0D01*
G01*
X3310000Y-56030000D02*
X3310000Y-57030000D01*
X3385000Y-50334000D02*
X3385000Y-51636000D01*
X10055000Y-54595000D02*
G75*
G03X10055000Y-54595000I-480000J0D01*
G01*
X12781480Y-49941016D02*
X12783421Y-58633812D01*
X9905000Y-52895000D02*
G75*
G03X9905000Y-52895000I-325000J0D01*
G01*
X3385000Y-53556000D02*
G75*
G02X3285000Y-53556000I-50000J0D01*
G01*
X3285000Y-50334000D02*
X3285000Y-51636000D01*
X3385000Y-52254000D02*
X3385000Y-53556000D01*
X3310000Y-56030000D02*
G75*
G02X3410000Y-56030000I50000J0D01*
G01*
D11*
X10833279Y-59811295D02*
X10933279Y-59911295D01*
X10933279Y-59811295D02*
X10833279Y-59911295D01*
X11078624Y-59877035D02*
X11178624Y-59977035D01*
X11178624Y-59877035D02*
X11078624Y-59977035D01*
X11323969Y-59942775D02*
X11423969Y-60042775D01*
X11423969Y-59942775D02*
X11323969Y-60042775D01*
X11569314Y-60008515D02*
X11669314Y-60108515D01*
X11669314Y-60008515D02*
X11569314Y-60108515D01*
X9551629Y-51781554D02*
X9651629Y-51881554D01*
X9651629Y-51781554D02*
X9551629Y-51881554D01*
X9805629Y-51781554D02*
X9905629Y-51881554D01*
X9905629Y-51781554D02*
X9805629Y-51881554D01*
X10059629Y-51781554D02*
X10159629Y-51881554D01*
X10159629Y-51781554D02*
X10059629Y-51881554D01*
X10313629Y-51781554D02*
X10413629Y-51881554D01*
X10413629Y-51781554D02*
X10313629Y-51881554D01*
X12587609Y-49909830D02*
X12687609Y-50009830D01*
X12687609Y-49909830D02*
X12587609Y-50009830D01*
X12587609Y-50163830D02*
X12687609Y-50263830D01*
X12687609Y-50163830D02*
X12587609Y-50263830D01*
X12587609Y-50417830D02*
X12687609Y-50517830D01*
X12687609Y-50417830D02*
X12587609Y-50517830D01*
X12587609Y-50671830D02*
X12687609Y-50771830D01*
X12687609Y-50671830D02*
X12587609Y-50771830D01*
X9451629Y-49781554D02*
X9551629Y-49881554D01*
X9551629Y-49781554D02*
X9451629Y-49881554D01*
X9705629Y-49781554D02*
X9805629Y-49881554D01*
X9805629Y-49781554D02*
X9705629Y-49881554D01*
X9959629Y-49781554D02*
X10059629Y-49881554D01*
X10059629Y-49781554D02*
X9959629Y-49881554D01*
X10213629Y-49781554D02*
X10313629Y-49881554D01*
X10313629Y-49781554D02*
X10213629Y-49881554D01*
X9537697Y-55602097D02*
X9637697Y-55702097D01*
X9637697Y-55602097D02*
X9537697Y-55702097D01*
X9791697Y-55602097D02*
X9891697Y-55702097D01*
X9891697Y-55602097D02*
X9791697Y-55702097D01*
X10045697Y-55602097D02*
X10145697Y-55702097D01*
X10145697Y-55602097D02*
X10045697Y-55702097D01*
X10299697Y-55602097D02*
X10399697Y-55702097D01*
X10399697Y-55602097D02*
X10299697Y-55702097D01*
X5353279Y-57819295D02*
X5453279Y-57919295D01*
X5453279Y-57819295D02*
X5353279Y-57919295D01*
X5353279Y-58073295D02*
X5453279Y-58173295D01*
X5453279Y-58073295D02*
X5353279Y-58173295D01*
X5353279Y-58327295D02*
X5453279Y-58427295D01*
X5453279Y-58327295D02*
X5353279Y-58427295D01*
X5353279Y-58581295D02*
X5453279Y-58681295D01*
X5453279Y-58581295D02*
X5353279Y-58681295D01*
X9553416Y-53693520D02*
X9653416Y-53793520D01*
X9653416Y-53693520D02*
X9553416Y-53793520D01*
X9807416Y-53693520D02*
X9907416Y-53793520D01*
X9907416Y-53693520D02*
X9807416Y-53793520D01*
X10061416Y-53693520D02*
X10161416Y-53793520D01*
X10161416Y-53693520D02*
X10061416Y-53793520D01*
X10315416Y-53693520D02*
X10415416Y-53793520D01*
X10415416Y-53693520D02*
X10315416Y-53793520D01*
X12594060Y-54922489D02*
X12694060Y-55022489D01*
X12694060Y-54922489D02*
X12594060Y-55022489D01*
X12594060Y-55176489D02*
X12694060Y-55276489D01*
X12694060Y-55176489D02*
X12594060Y-55276489D01*
X12594060Y-55430489D02*
X12694060Y-55530489D01*
X12694060Y-55430489D02*
X12594060Y-55530489D01*
X12594060Y-55684489D02*
X12694060Y-55784489D01*
X12694060Y-55684489D02*
X12594060Y-55784489D01*
X3985779Y-54547295D02*
G75*
G03X3985779Y-54547295I-73500J0D01*
G01*
X4116779Y-54401295D02*
G75*
G03X4116779Y-54401295I-73500J0D01*
G01*
X4616779Y-54351295D02*
G75*
G03X4616779Y-54351295I-73500J0D01*
G01*
X4620779Y-54293295D02*
G75*
G03X4620779Y-54293295I-73500J0D01*
G01*
X3985779Y-56452295D02*
G75*
G03X3985779Y-56452295I-73500J0D01*
G01*
X4116779Y-56306295D02*
G75*
G03X4116779Y-56306295I-73500J0D01*
G01*
X4616779Y-56256295D02*
G75*
G03X4616779Y-56256295I-73500J0D01*
G01*
X4620779Y-56198295D02*
G75*
G03X4620779Y-56198295I-73500J0D01*
G01*
X2207779Y-56814295D02*
G75*
G03X2207779Y-56814295I-73500J0D01*
G01*
X2211779Y-56756295D02*
G75*
G03X2211779Y-56756295I-73500J0D01*
G01*
X2711779Y-56706295D02*
G75*
G03X2711779Y-56706295I-73500J0D01*
G01*
X2842779Y-56560295D02*
G75*
G03X2842779Y-56560295I-73500J0D01*
G01*
X7795779Y-55452295D02*
G75*
G03X7795779Y-55452295I-73500J0D01*
G01*
X7926779Y-55306295D02*
G75*
G03X7926779Y-55306295I-73500J0D01*
G01*
X8426779Y-55256295D02*
G75*
G03X8426779Y-55256295I-73500J0D01*
G01*
X8430779Y-55198295D02*
G75*
G03X8430779Y-55198295I-73500J0D01*
G01*
X5890779Y-50236000D02*
G75*
G03X5890779Y-50236000I-73500J0D01*
G01*
X6021779Y-50090000D02*
G75*
G03X6021779Y-50090000I-73500J0D01*
G01*
X6521779Y-50040000D02*
G75*
G03X6521779Y-50040000I-73500J0D01*
G01*
X6525779Y-49982000D02*
G75*
G03X6525779Y-49982000I-73500J0D01*
G01*
X7795779Y-49736000D02*
G75*
G03X7795779Y-49736000I-73500J0D01*
G01*
X7926779Y-49590000D02*
G75*
G03X7926779Y-49590000I-73500J0D01*
G01*
X8426779Y-49540000D02*
G75*
G03X8426779Y-49540000I-73500J0D01*
G01*
X8430779Y-49482000D02*
G75*
G03X8430779Y-49482000I-73500J0D01*
G01*
X7795779Y-51642295D02*
G75*
G03X7795779Y-51642295I-73500J0D01*
G01*
X7926779Y-51496295D02*
G75*
G03X7926779Y-51496295I-73500J0D01*
G01*
X8426779Y-51446295D02*
G75*
G03X8426779Y-51446295I-73500J0D01*
G01*
X8430779Y-51388295D02*
G75*
G03X8430779Y-51388295I-73500J0D01*
G01*
X7795779Y-53547295D02*
G75*
G03X7795779Y-53547295I-73500J0D01*
G01*
X7926779Y-53401295D02*
G75*
G03X7926779Y-53401295I-73500J0D01*
G01*
X8426779Y-53351295D02*
G75*
G03X8426779Y-53351295I-73500J0D01*
G01*
X8430779Y-53293295D02*
G75*
G03X8430779Y-53293295I-73500J0D01*
G01*
X2080779Y-52242295D02*
G75*
G03X2080779Y-52242295I-73500J0D01*
G01*
X2211779Y-52096295D02*
G75*
G03X2211779Y-52096295I-73500J0D01*
G01*
X2711779Y-52046295D02*
G75*
G03X2711779Y-52046295I-73500J0D01*
G01*
X2715779Y-51988295D02*
G75*
G03X2715779Y-51988295I-73500J0D01*
G01*
X2080779Y-54147295D02*
G75*
G03X2080779Y-54147295I-73500J0D01*
G01*
X2211779Y-54001295D02*
G75*
G03X2211779Y-54001295I-73500J0D01*
G01*
X2711779Y-53951295D02*
G75*
G03X2711779Y-53951295I-73500J0D01*
G01*
X2715779Y-53893295D02*
G75*
G03X2715779Y-53893295I-73500J0D01*
G01*
X3985779Y-50736000D02*
G75*
G03X3985779Y-50736000I-73500J0D01*
G01*
X4116779Y-50590000D02*
G75*
G03X4116779Y-50590000I-73500J0D01*
G01*
X4616779Y-50540000D02*
G75*
G03X4616779Y-50540000I-73500J0D01*
G01*
X4620779Y-50482000D02*
G75*
G03X4620779Y-50482000I-73500J0D01*
G01*
X2080779Y-50336000D02*
G75*
G03X2080779Y-50336000I-73500J0D01*
G01*
X2211779Y-50190000D02*
G75*
G03X2211779Y-50190000I-73500J0D01*
G01*
X2711779Y-50140000D02*
G75*
G03X2711779Y-50140000I-73500J0D01*
G01*
X2715779Y-50082000D02*
G75*
G03X2715779Y-50082000I-73500J0D01*
G01*
X5890779Y-55952295D02*
G75*
G03X5890779Y-55952295I-73500J0D01*
G01*
X6021779Y-55806295D02*
G75*
G03X6021779Y-55806295I-73500J0D01*
G01*
X6521779Y-55756295D02*
G75*
G03X6521779Y-55756295I-73500J0D01*
G01*
X6525779Y-55698295D02*
G75*
G03X6525779Y-55698295I-73500J0D01*
G01*
X5890779Y-52142295D02*
G75*
G03X5890779Y-52142295I-73500J0D01*
G01*
X6021779Y-51996295D02*
G75*
G03X6021779Y-51996295I-73500J0D01*
G01*
X6521779Y-51946295D02*
G75*
G03X6521779Y-51946295I-73500J0D01*
G01*
X6525779Y-51888295D02*
G75*
G03X6525779Y-51888295I-73500J0D01*
G01*
X3985779Y-52642295D02*
G75*
G03X3985779Y-52642295I-73500J0D01*
G01*
X4116779Y-52496295D02*
G75*
G03X4116779Y-52496295I-73500J0D01*
G01*
X4616779Y-52446295D02*
G75*
G03X4616779Y-52446295I-73500J0D01*
G01*
X4620779Y-52388295D02*
G75*
G03X4620779Y-52388295I-73500J0D01*
G01*
X5890779Y-54047295D02*
G75*
G03X5890779Y-54047295I-73500J0D01*
G01*
X6021779Y-53901295D02*
G75*
G03X6021779Y-53901295I-73500J0D01*
G01*
X6521779Y-53851295D02*
G75*
G03X6521779Y-53851295I-73500J0D01*
G01*
X6525779Y-53793295D02*
G75*
G03X6525779Y-53793295I-73500J0D01*
G01*
D12*
X1707207Y-60709509D02*
X1707207Y-60409509D01*
X1778636Y-60409509D01*
X1821493Y-60423795D01*
X1850064Y-60452367D01*
X1864350Y-60480938D01*
X1878636Y-60538081D01*
X1878636Y-60580938D01*
X1864350Y-60638081D01*
X1850064Y-60666652D01*
X1821493Y-60695224D01*
X1778636Y-60709509D01*
X1707207Y-60709509D01*
X2007207Y-60709509D02*
X2007207Y-60509509D01*
X2007207Y-60566652D02*
X2021493Y-60538081D01*
X2035779Y-60523795D01*
X2064350Y-60509509D01*
X2092922Y-60509509D01*
X2192922Y-60709509D02*
X2192922Y-60509509D01*
X2192922Y-60409509D02*
X2178636Y-60423795D01*
X2192922Y-60438081D01*
X2207207Y-60423795D01*
X2192922Y-60409509D01*
X2192922Y-60438081D01*
X2378636Y-60709509D02*
X2350065Y-60695224D01*
X2335779Y-60666652D01*
X2335779Y-60409509D01*
X2535779Y-60709509D02*
X2507207Y-60695224D01*
X2492922Y-60666652D01*
X2492922Y-60409509D01*
X2878636Y-60709509D02*
X2878636Y-60409509D01*
X2978636Y-60623795D01*
X3078636Y-60409509D01*
X3078636Y-60709509D01*
X3350064Y-60709509D02*
X3350064Y-60552367D01*
X3335779Y-60523795D01*
X3307207Y-60509509D01*
X3250064Y-60509509D01*
X3221493Y-60523795D01*
X3350064Y-60695224D02*
X3321493Y-60709509D01*
X3250064Y-60709509D01*
X3221493Y-60695224D01*
X3207207Y-60666652D01*
X3207207Y-60638081D01*
X3221493Y-60609509D01*
X3250064Y-60595224D01*
X3321493Y-60595224D01*
X3350064Y-60580938D01*
X3492922Y-60509509D02*
X3492922Y-60809509D01*
X3492922Y-60523795D02*
X3521493Y-60509509D01*
X3578636Y-60509509D01*
X3607207Y-60523795D01*
X3621493Y-60538081D01*
X3635779Y-60566652D01*
X3635779Y-60652367D01*
X3621493Y-60680938D01*
X3607207Y-60695224D01*
X3578636Y-60709509D01*
X3521493Y-60709509D01*
X3492922Y-60695224D01*
X3764350Y-60680938D02*
X3778636Y-60695224D01*
X3764350Y-60709509D01*
X3750064Y-60695224D01*
X3764350Y-60680938D01*
X3764350Y-60709509D01*
X3764350Y-60523795D02*
X3778636Y-60538081D01*
X3764350Y-60552367D01*
X3750064Y-60538081D01*
X3764350Y-60523795D01*
X3764350Y-60552367D01*
X1320779Y-61153795D02*
X1420779Y-61253795D01*
X1420779Y-61153795D02*
X1320779Y-61253795D01*
X1864350Y-61339509D02*
X1692922Y-61339509D01*
X1778636Y-61339509D02*
X1778636Y-61039509D01*
X1750064Y-61082367D01*
X1721493Y-61110938D01*
X1692922Y-61125224D01*
X1992922Y-61310938D02*
X2007207Y-61325224D01*
X1992922Y-61339509D01*
X1978636Y-61325224D01*
X1992922Y-61310938D01*
X1992922Y-61339509D01*
X2192922Y-61039509D02*
X2221493Y-61039509D01*
X2250065Y-61053795D01*
X2264350Y-61068081D01*
X2278636Y-61096652D01*
X2292922Y-61153795D01*
X2292922Y-61225224D01*
X2278636Y-61282367D01*
X2264350Y-61310938D01*
X2250065Y-61325224D01*
X2221493Y-61339509D01*
X2192922Y-61339509D01*
X2164350Y-61325224D01*
X2150065Y-61310938D01*
X2135779Y-61282367D01*
X2121493Y-61225224D01*
X2121493Y-61153795D01*
X2135779Y-61096652D01*
X2150065Y-61068081D01*
X2164350Y-61053795D01*
X2192922Y-61039509D01*
X2478636Y-61039509D02*
X2507207Y-61039509D01*
X2535779Y-61053795D01*
X2550065Y-61068081D01*
X2564350Y-61096652D01*
X2578636Y-61153795D01*
X2578636Y-61225224D01*
X2564350Y-61282367D01*
X2550065Y-61310938D01*
X2535779Y-61325224D01*
X2507207Y-61339509D01*
X2478636Y-61339509D01*
X2450065Y-61325224D01*
X2435779Y-61310938D01*
X2421493Y-61282367D01*
X2407207Y-61225224D01*
X2407207Y-61153795D01*
X2421493Y-61096652D01*
X2435779Y-61068081D01*
X2450065Y-61053795D01*
X2478636Y-61039509D01*
X2707207Y-61339509D02*
X2707207Y-61139509D01*
X2707207Y-61168081D02*
X2721493Y-61153795D01*
X2750065Y-61139509D01*
X2792922Y-61139509D01*
X2821493Y-61153795D01*
X2835779Y-61182367D01*
X2835779Y-61339509D01*
X2835779Y-61182367D02*
X2850064Y-61153795D01*
X2878636Y-61139509D01*
X2921493Y-61139509D01*
X2950064Y-61153795D01*
X2964350Y-61182367D01*
X2964350Y-61339509D01*
X3107207Y-61339509D02*
X3107207Y-61139509D01*
X3107207Y-61168081D02*
X3121493Y-61153795D01*
X3150064Y-61139509D01*
X3192922Y-61139509D01*
X3221493Y-61153795D01*
X3235779Y-61182367D01*
X3235779Y-61339509D01*
X3235779Y-61182367D02*
X3250064Y-61153795D01*
X3278636Y-61139509D01*
X3321493Y-61139509D01*
X3350064Y-61153795D01*
X3364350Y-61182367D01*
X3364350Y-61339509D01*
X3950064Y-61025224D02*
X3692922Y-61410938D01*
X4335779Y-61039509D02*
X4364350Y-61039509D01*
X4392922Y-61053795D01*
X4407207Y-61068081D01*
X4421493Y-61096652D01*
X4435779Y-61153795D01*
X4435779Y-61225224D01*
X4421493Y-61282367D01*
X4407207Y-61310938D01*
X4392922Y-61325224D01*
X4364350Y-61339509D01*
X4335779Y-61339509D01*
X4307207Y-61325224D01*
X4292922Y-61310938D01*
X4278636Y-61282367D01*
X4264350Y-61225224D01*
X4264350Y-61153795D01*
X4278636Y-61096652D01*
X4292922Y-61068081D01*
X4307207Y-61053795D01*
X4335779Y-61039509D01*
X4564350Y-61310938D02*
X4578636Y-61325224D01*
X4564350Y-61339509D01*
X4550065Y-61325224D01*
X4564350Y-61310938D01*
X4564350Y-61339509D01*
X4764350Y-61039509D02*
X4792922Y-61039509D01*
X4821493Y-61053795D01*
X4835779Y-61068081D01*
X4850065Y-61096652D01*
X4864350Y-61153795D01*
X4864350Y-61225224D01*
X4850065Y-61282367D01*
X4835779Y-61310938D01*
X4821493Y-61325224D01*
X4792922Y-61339509D01*
X4764350Y-61339509D01*
X4735779Y-61325224D01*
X4721493Y-61310938D01*
X4707207Y-61282367D01*
X4692922Y-61225224D01*
X4692922Y-61153795D01*
X4707207Y-61096652D01*
X4721493Y-61068081D01*
X4735779Y-61053795D01*
X4764350Y-61039509D01*
X4964350Y-61039509D02*
X5150065Y-61039509D01*
X5050065Y-61153795D01*
X5092922Y-61153795D01*
X5121493Y-61168081D01*
X5135779Y-61182367D01*
X5150065Y-61210938D01*
X5150065Y-61282367D01*
X5135779Y-61310938D01*
X5121493Y-61325224D01*
X5092922Y-61339509D01*
X5007207Y-61339509D01*
X4978636Y-61325224D01*
X4964350Y-61310938D01*
X5292922Y-61339509D02*
X5350065Y-61339509D01*
X5378636Y-61325224D01*
X5392922Y-61310938D01*
X5421493Y-61268081D01*
X5435779Y-61210938D01*
X5435779Y-61096652D01*
X5421493Y-61068081D01*
X5407207Y-61053795D01*
X5378636Y-61039509D01*
X5321493Y-61039509D01*
X5292922Y-61053795D01*
X5278636Y-61068081D01*
X5264350Y-61096652D01*
X5264350Y-61168081D01*
X5278636Y-61196652D01*
X5292922Y-61210938D01*
X5321493Y-61225224D01*
X5378636Y-61225224D01*
X5407207Y-61210938D01*
X5421493Y-61196652D01*
X5435779Y-61168081D01*
X5550065Y-61039509D02*
X5550065Y-61096652D01*
X5664350Y-61039509D02*
X5664350Y-61096652D01*
X6107207Y-61453795D02*
X6092922Y-61439509D01*
X6064350Y-61396652D01*
X6050064Y-61368081D01*
X6035779Y-61325224D01*
X6021493Y-61253795D01*
X6021493Y-61196652D01*
X6035779Y-61125224D01*
X6050064Y-61082367D01*
X6064350Y-61053795D01*
X6092922Y-61010938D01*
X6107207Y-60996652D01*
X6192922Y-61039509D02*
X6378636Y-61039509D01*
X6278636Y-61153795D01*
X6321493Y-61153795D01*
X6350064Y-61168081D01*
X6364350Y-61182367D01*
X6378636Y-61210938D01*
X6378636Y-61282367D01*
X6364350Y-61310938D01*
X6350064Y-61325224D01*
X6321493Y-61339509D01*
X6235779Y-61339509D01*
X6207207Y-61325224D01*
X6192922Y-61310938D01*
X6492922Y-61068081D02*
X6507207Y-61053795D01*
X6535779Y-61039509D01*
X6607207Y-61039509D01*
X6635779Y-61053795D01*
X6650064Y-61068081D01*
X6664350Y-61096652D01*
X6664350Y-61125224D01*
X6650064Y-61168081D01*
X6478636Y-61339509D01*
X6664350Y-61339509D01*
X7021493Y-61339509D02*
X7021493Y-61039509D01*
X7150064Y-61339509D02*
X7150064Y-61182367D01*
X7135779Y-61153795D01*
X7107207Y-61139509D01*
X7064350Y-61139509D01*
X7035779Y-61153795D01*
X7021493Y-61168081D01*
X7335779Y-61339509D02*
X7307207Y-61325224D01*
X7292922Y-61310938D01*
X7278636Y-61282367D01*
X7278636Y-61196652D01*
X7292922Y-61168081D01*
X7307207Y-61153795D01*
X7335779Y-61139509D01*
X7378636Y-61139509D01*
X7407207Y-61153795D01*
X7421493Y-61168081D01*
X7435779Y-61196652D01*
X7435779Y-61282367D01*
X7421493Y-61310938D01*
X7407207Y-61325224D01*
X7378636Y-61339509D01*
X7335779Y-61339509D01*
X7607207Y-61339509D02*
X7578636Y-61325224D01*
X7564350Y-61296652D01*
X7564350Y-61039509D01*
X7835779Y-61325224D02*
X7807207Y-61339509D01*
X7750064Y-61339509D01*
X7721493Y-61325224D01*
X7707207Y-61296652D01*
X7707207Y-61182367D01*
X7721493Y-61153795D01*
X7750064Y-61139509D01*
X7807207Y-61139509D01*
X7835779Y-61153795D01*
X7850064Y-61182367D01*
X7850064Y-61210938D01*
X7707207Y-61239509D01*
X7964350Y-61325224D02*
X7992922Y-61339509D01*
X8050064Y-61339509D01*
X8078636Y-61325224D01*
X8092922Y-61296652D01*
X8092922Y-61282367D01*
X8078636Y-61253795D01*
X8050064Y-61239509D01*
X8007207Y-61239509D01*
X7978636Y-61225224D01*
X7964350Y-61196652D01*
X7964350Y-61182367D01*
X7978636Y-61153795D01*
X8007207Y-61139509D01*
X8050064Y-61139509D01*
X8078636Y-61153795D01*
X8192922Y-61453795D02*
X8207207Y-61439509D01*
X8235779Y-61396652D01*
X8250064Y-61368081D01*
X8264350Y-61325224D01*
X8278636Y-61253795D01*
X8278636Y-61196652D01*
X8264350Y-61125224D01*
X8250064Y-61082367D01*
X8235779Y-61053795D01*
X8207207Y-61010938D01*
X8192922Y-60996652D01*
X1420779Y-61599795D02*
G75*
G03X1420779Y-61599795I-73500J0D01*
G01*
X1864350Y-61735509D02*
X1692922Y-61735509D01*
X1778636Y-61735509D02*
X1778636Y-61435509D01*
X1750064Y-61478367D01*
X1721493Y-61506938D01*
X1692922Y-61521224D01*
X1992922Y-61706938D02*
X2007207Y-61721224D01*
X1992922Y-61735509D01*
X1978636Y-61721224D01*
X1992922Y-61706938D01*
X1992922Y-61735509D01*
X2264350Y-61535509D02*
X2264350Y-61735509D01*
X2192922Y-61421224D02*
X2121493Y-61635509D01*
X2307207Y-61635509D01*
X2392922Y-61435509D02*
X2592922Y-61435509D01*
X2464350Y-61735509D01*
X2707207Y-61735509D02*
X2707207Y-61535509D01*
X2707207Y-61564081D02*
X2721493Y-61549795D01*
X2750065Y-61535509D01*
X2792922Y-61535509D01*
X2821493Y-61549795D01*
X2835779Y-61578367D01*
X2835779Y-61735509D01*
X2835779Y-61578367D02*
X2850064Y-61549795D01*
X2878636Y-61535509D01*
X2921493Y-61535509D01*
X2950064Y-61549795D01*
X2964350Y-61578367D01*
X2964350Y-61735509D01*
X3107207Y-61735509D02*
X3107207Y-61535509D01*
X3107207Y-61564081D02*
X3121493Y-61549795D01*
X3150064Y-61535509D01*
X3192922Y-61535509D01*
X3221493Y-61549795D01*
X3235779Y-61578367D01*
X3235779Y-61735509D01*
X3235779Y-61578367D02*
X3250064Y-61549795D01*
X3278636Y-61535509D01*
X3321493Y-61535509D01*
X3350064Y-61549795D01*
X3364350Y-61578367D01*
X3364350Y-61735509D01*
X3950064Y-61421224D02*
X3692922Y-61806938D01*
X4335779Y-61435509D02*
X4364350Y-61435509D01*
X4392922Y-61449795D01*
X4407207Y-61464081D01*
X4421493Y-61492652D01*
X4435779Y-61549795D01*
X4435779Y-61621224D01*
X4421493Y-61678367D01*
X4407207Y-61706938D01*
X4392922Y-61721224D01*
X4364350Y-61735509D01*
X4335779Y-61735509D01*
X4307207Y-61721224D01*
X4292922Y-61706938D01*
X4278636Y-61678367D01*
X4264350Y-61621224D01*
X4264350Y-61549795D01*
X4278636Y-61492652D01*
X4292922Y-61464081D01*
X4307207Y-61449795D01*
X4335779Y-61435509D01*
X4564350Y-61706938D02*
X4578636Y-61721224D01*
X4564350Y-61735509D01*
X4550065Y-61721224D01*
X4564350Y-61706938D01*
X4564350Y-61735509D01*
X4764350Y-61435509D02*
X4792922Y-61435509D01*
X4821493Y-61449795D01*
X4835779Y-61464081D01*
X4850065Y-61492652D01*
X4864350Y-61549795D01*
X4864350Y-61621224D01*
X4850065Y-61678367D01*
X4835779Y-61706938D01*
X4821493Y-61721224D01*
X4792922Y-61735509D01*
X4764350Y-61735509D01*
X4735779Y-61721224D01*
X4721493Y-61706938D01*
X4707207Y-61678367D01*
X4692922Y-61621224D01*
X4692922Y-61549795D01*
X4707207Y-61492652D01*
X4721493Y-61464081D01*
X4735779Y-61449795D01*
X4764350Y-61435509D01*
X5135779Y-61435509D02*
X4992922Y-61435509D01*
X4978636Y-61578367D01*
X4992922Y-61564081D01*
X5021493Y-61549795D01*
X5092922Y-61549795D01*
X5121493Y-61564081D01*
X5135779Y-61578367D01*
X5150065Y-61606938D01*
X5150065Y-61678367D01*
X5135779Y-61706938D01*
X5121493Y-61721224D01*
X5092922Y-61735509D01*
X5021493Y-61735509D01*
X4992922Y-61721224D01*
X4978636Y-61706938D01*
X5321493Y-61564081D02*
X5292922Y-61549795D01*
X5278636Y-61535509D01*
X5264350Y-61506938D01*
X5264350Y-61492652D01*
X5278636Y-61464081D01*
X5292922Y-61449795D01*
X5321493Y-61435509D01*
X5378636Y-61435509D01*
X5407207Y-61449795D01*
X5421493Y-61464081D01*
X5435779Y-61492652D01*
X5435779Y-61506938D01*
X5421493Y-61535509D01*
X5407207Y-61549795D01*
X5378636Y-61564081D01*
X5321493Y-61564081D01*
X5292922Y-61578367D01*
X5278636Y-61592652D01*
X5264350Y-61621224D01*
X5264350Y-61678367D01*
X5278636Y-61706938D01*
X5292922Y-61721224D01*
X5321493Y-61735509D01*
X5378636Y-61735509D01*
X5407207Y-61721224D01*
X5421493Y-61706938D01*
X5435779Y-61678367D01*
X5435779Y-61621224D01*
X5421493Y-61592652D01*
X5407207Y-61578367D01*
X5378636Y-61564081D01*
X5550065Y-61435509D02*
X5550065Y-61492652D01*
X5664350Y-61435509D02*
X5664350Y-61492652D01*
X6107207Y-61849795D02*
X6092922Y-61835509D01*
X6064350Y-61792652D01*
X6050064Y-61764081D01*
X6035779Y-61721224D01*
X6021493Y-61649795D01*
X6021493Y-61592652D01*
X6035779Y-61521224D01*
X6050064Y-61478367D01*
X6064350Y-61449795D01*
X6092922Y-61406938D01*
X6107207Y-61392652D01*
X6350064Y-61435509D02*
X6292922Y-61435509D01*
X6264350Y-61449795D01*
X6250064Y-61464081D01*
X6221493Y-61506938D01*
X6207207Y-61564081D01*
X6207207Y-61678367D01*
X6221493Y-61706938D01*
X6235779Y-61721224D01*
X6264350Y-61735509D01*
X6321493Y-61735509D01*
X6350064Y-61721224D01*
X6364350Y-61706938D01*
X6378636Y-61678367D01*
X6378636Y-61606938D01*
X6364350Y-61578367D01*
X6350064Y-61564081D01*
X6321493Y-61549795D01*
X6264350Y-61549795D01*
X6235779Y-61564081D01*
X6221493Y-61578367D01*
X6207207Y-61606938D01*
X6635779Y-61535509D02*
X6635779Y-61735509D01*
X6564350Y-61421224D02*
X6492922Y-61635509D01*
X6678636Y-61635509D01*
X7021493Y-61735509D02*
X7021493Y-61435509D01*
X7150064Y-61735509D02*
X7150064Y-61578367D01*
X7135779Y-61549795D01*
X7107207Y-61535509D01*
X7064350Y-61535509D01*
X7035779Y-61549795D01*
X7021493Y-61564081D01*
X7335779Y-61735509D02*
X7307207Y-61721224D01*
X7292922Y-61706938D01*
X7278636Y-61678367D01*
X7278636Y-61592652D01*
X7292922Y-61564081D01*
X7307207Y-61549795D01*
X7335779Y-61535509D01*
X7378636Y-61535509D01*
X7407207Y-61549795D01*
X7421493Y-61564081D01*
X7435779Y-61592652D01*
X7435779Y-61678367D01*
X7421493Y-61706938D01*
X7407207Y-61721224D01*
X7378636Y-61735509D01*
X7335779Y-61735509D01*
X7607207Y-61735509D02*
X7578636Y-61721224D01*
X7564350Y-61692652D01*
X7564350Y-61435509D01*
X7835779Y-61721224D02*
X7807207Y-61735509D01*
X7750064Y-61735509D01*
X7721493Y-61721224D01*
X7707207Y-61692652D01*
X7707207Y-61578367D01*
X7721493Y-61549795D01*
X7750064Y-61535509D01*
X7807207Y-61535509D01*
X7835779Y-61549795D01*
X7850064Y-61578367D01*
X7850064Y-61606938D01*
X7707207Y-61635509D01*
X7964350Y-61721224D02*
X7992922Y-61735509D01*
X8050064Y-61735509D01*
X8078636Y-61721224D01*
X8092922Y-61692652D01*
X8092922Y-61678367D01*
X8078636Y-61649795D01*
X8050064Y-61635509D01*
X8007207Y-61635509D01*
X7978636Y-61621224D01*
X7964350Y-61592652D01*
X7964350Y-61578367D01*
X7978636Y-61549795D01*
X8007207Y-61535509D01*
X8050064Y-61535509D01*
X8078636Y-61549795D01*
X8192922Y-61849795D02*
X8207207Y-61835509D01*
X8235779Y-61792652D01*
X8250064Y-61764081D01*
X8264350Y-61721224D01*
X8278636Y-61649795D01*
X8278636Y-61592652D01*
X8264350Y-61521224D01*
X8250064Y-61478367D01*
X8235779Y-61449795D01*
X8207207Y-61406938D01*
X8192922Y-61392652D01*
M02*
