M48
; DRILL file {KiCad (5.1.4)-1} date 2/11/2023 5:21:31 PM
; FORMAT={-:-/ absolute / metric / decimal}
; #@! TF.CreationDate,2023-02-11T17:21:31-05:00
; #@! TF.GenerationSoftware,Kicad,Pcbnew,(5.1.4)-1
; #@! TF.FileFunction,NonPlated,1,2,NPTH
FMAT,2
METRIC
T1C1.750
T2C3.000
T3C3.988
%
G90
G05
T1
X86.113Y-518.963
X67.063Y-543.013
X56.903Y-504.9
X67.063Y-504.9
X75.953Y-499.9
X86.113Y-499.9
X56.903Y-523.963
X67.063Y-523.963
X37.853Y-548.013
X48.013Y-548.013
X18.803Y-544.013
X28.963Y-544.013
X37.853Y-528.963
X48.013Y-528.963
X56.903Y-562.063
X67.063Y-562.063
X18.803Y-505.9
X28.963Y-505.9
X18.803Y-563.063
X28.963Y-563.063
X75.953Y-538.013
X86.113Y-538.013
X37.853Y-567.063
X48.013Y-567.063
X37.853Y-509.9
X48.013Y-509.9
X75.953Y-518.963
X56.903Y-543.013
X18.803Y-524.963
X28.963Y-524.963
X75.953Y-557.063
X86.113Y-557.063
T2
X40.393Y-534.043
X46.743Y-531.503
X59.443Y-567.143
X65.793Y-564.603
X21.343Y-510.98
X27.693Y-508.44
X20.073Y-560.523
X26.423Y-557.983
X78.493Y-543.093
X84.843Y-540.553
X40.393Y-572.143
X46.743Y-569.603
X40.393Y-514.98
X46.743Y-512.44
X78.493Y-524.043
X84.843Y-521.503
X59.443Y-548.093
X65.793Y-545.553
X21.343Y-530.043
X27.693Y-527.503
X78.493Y-562.143
X84.843Y-559.603
X59.443Y-509.98
X65.793Y-507.44
X78.493Y-504.98
X84.843Y-502.44
X59.443Y-529.043
X65.793Y-526.503
X40.393Y-553.093
X46.743Y-550.553
X21.343Y-549.093
X27.693Y-546.553
T3
X61.983Y-504.9
X81.033Y-499.9
X61.983Y-523.963
X42.933Y-548.013
X23.883Y-544.013
X42.933Y-528.963
X61.983Y-562.063
X23.883Y-505.9
X23.883Y-563.063
X81.033Y-538.013
X42.933Y-567.063
X42.933Y-509.9
X81.033Y-518.963
X61.983Y-543.013
X23.883Y-524.963
X81.033Y-557.063
T0
M30
