M48
; DRILL file {KiCad (5.1.4)-1} date 1/9/2023 1:43:43 PM
; FORMAT={-:-/ absolute / metric / decimal}
; #@! TF.CreationDate,2023-01-09T13:43:43-05:00
; #@! TF.GenerationSoftware,Kicad,Pcbnew,(5.1.4)-1
; #@! TF.FileFunction,Plated,1,2,PTH
FMAT,2
METRIC
T1C1.000
%
G90
G05
T1
X96.016Y-519.866
X98.556Y-519.866
X101.096Y-519.866
X103.636Y-519.866
X126.376Y-520.198
X126.376Y-522.738
X126.376Y-525.278
X126.376Y-527.818
X96.034Y-537.435
X98.574Y-537.435
X101.114Y-537.435
X103.654Y-537.435
X126.441Y-568.275
X126.441Y-570.815
X126.441Y-573.355
X126.441Y-575.895
X95.877Y-554.971
X98.417Y-554.971
X100.957Y-554.971
X103.497Y-554.971
X54.033Y-578.693
X54.033Y-581.233
X54.033Y-583.773
X54.033Y-586.313
X108.833Y-598.613
X111.286Y-599.27
X113.74Y-599.928
X116.193Y-600.585
T0
M30
