G04 #@! TF.GenerationSoftware,KiCad,Pcbnew,(5.1.4)-1*
G04 #@! TF.CreationDate,2023-02-11T17:21:27-05:00*
G04 #@! TF.ProjectId,ThumbsUp,5468756d-6273-4557-902e-6b696361645f,rev?*
G04 #@! TF.SameCoordinates,Original*
G04 #@! TF.FileFunction,Soldermask,Top*
G04 #@! TF.FilePolarity,Negative*
%FSLAX46Y46*%
G04 Gerber Fmt 4.6, Leading zero omitted, Abs format (unit mm)*
G04 Created by KiCad (PCBNEW (5.1.4)-1) date 2023-02-11 17:21:27*
%MOMM*%
%LPD*%
G04 APERTURE LIST*
%ADD10C,0.100000*%
G04 APERTURE END LIST*
D10*
G36*
X116303588Y-599690672D02*
G01*
X116369772Y-599697190D01*
X116539611Y-599748710D01*
X116696136Y-599832375D01*
X116731874Y-599861705D01*
X116833331Y-599944967D01*
X116916593Y-600046424D01*
X116945923Y-600082162D01*
X117029588Y-600238687D01*
X117081108Y-600408526D01*
X117098504Y-600585153D01*
X117081108Y-600761780D01*
X117029588Y-600931619D01*
X116945923Y-601088144D01*
X116916593Y-601123882D01*
X116833331Y-601225339D01*
X116731874Y-601308601D01*
X116696136Y-601337931D01*
X116539611Y-601421596D01*
X116369772Y-601473116D01*
X116303588Y-601479634D01*
X116237405Y-601486153D01*
X116148885Y-601486153D01*
X116082702Y-601479634D01*
X116016518Y-601473116D01*
X115846679Y-601421596D01*
X115690154Y-601337931D01*
X115654416Y-601308601D01*
X115552959Y-601225339D01*
X115469697Y-601123882D01*
X115440367Y-601088144D01*
X115356702Y-600931619D01*
X115305182Y-600761780D01*
X115287786Y-600585153D01*
X115305182Y-600408526D01*
X115356702Y-600238687D01*
X115440367Y-600082162D01*
X115469697Y-600046424D01*
X115552959Y-599944967D01*
X115654416Y-599861705D01*
X115690154Y-599832375D01*
X115846679Y-599748710D01*
X116016518Y-599697190D01*
X116082702Y-599690672D01*
X116148885Y-599684153D01*
X116237405Y-599684153D01*
X116303588Y-599690672D01*
X116303588Y-599690672D01*
G37*
G36*
X113850136Y-599033272D02*
G01*
X113916320Y-599039790D01*
X114086159Y-599091310D01*
X114242684Y-599174975D01*
X114278422Y-599204305D01*
X114379879Y-599287567D01*
X114463141Y-599389024D01*
X114492471Y-599424762D01*
X114576136Y-599581287D01*
X114627656Y-599751126D01*
X114645052Y-599927753D01*
X114627656Y-600104380D01*
X114576136Y-600274219D01*
X114492471Y-600430744D01*
X114463141Y-600466482D01*
X114379879Y-600567939D01*
X114278422Y-600651201D01*
X114242684Y-600680531D01*
X114086159Y-600764196D01*
X113916320Y-600815716D01*
X113850136Y-600822234D01*
X113783953Y-600828753D01*
X113695433Y-600828753D01*
X113629250Y-600822234D01*
X113563066Y-600815716D01*
X113393227Y-600764196D01*
X113236702Y-600680531D01*
X113200964Y-600651201D01*
X113099507Y-600567939D01*
X113016245Y-600466482D01*
X112986915Y-600430744D01*
X112903250Y-600274219D01*
X112851730Y-600104380D01*
X112834334Y-599927753D01*
X112851730Y-599751126D01*
X112903250Y-599581287D01*
X112986915Y-599424762D01*
X113016245Y-599389024D01*
X113099507Y-599287567D01*
X113200964Y-599204305D01*
X113236702Y-599174975D01*
X113393227Y-599091310D01*
X113563066Y-599039790D01*
X113629250Y-599033272D01*
X113695433Y-599026753D01*
X113783953Y-599026753D01*
X113850136Y-599033272D01*
X113850136Y-599033272D01*
G37*
G36*
X111396685Y-598375871D02*
G01*
X111462869Y-598382389D01*
X111632708Y-598433909D01*
X111789233Y-598517574D01*
X111824971Y-598546904D01*
X111926428Y-598630166D01*
X112009690Y-598731623D01*
X112039020Y-598767361D01*
X112122685Y-598923886D01*
X112174205Y-599093725D01*
X112191601Y-599270352D01*
X112174205Y-599446979D01*
X112122685Y-599616818D01*
X112039020Y-599773343D01*
X112009690Y-599809081D01*
X111926428Y-599910538D01*
X111824971Y-599993800D01*
X111789233Y-600023130D01*
X111632708Y-600106795D01*
X111462869Y-600158315D01*
X111396684Y-600164834D01*
X111330502Y-600171352D01*
X111241982Y-600171352D01*
X111175800Y-600164834D01*
X111109615Y-600158315D01*
X110939776Y-600106795D01*
X110783251Y-600023130D01*
X110747513Y-599993800D01*
X110646056Y-599910538D01*
X110562794Y-599809081D01*
X110533464Y-599773343D01*
X110449799Y-599616818D01*
X110398279Y-599446979D01*
X110380883Y-599270352D01*
X110398279Y-599093725D01*
X110449799Y-598923886D01*
X110533464Y-598767361D01*
X110562794Y-598731623D01*
X110646056Y-598630166D01*
X110747513Y-598546904D01*
X110783251Y-598517574D01*
X110939776Y-598433909D01*
X111109615Y-598382389D01*
X111175799Y-598375871D01*
X111241982Y-598369352D01*
X111330502Y-598369352D01*
X111396685Y-598375871D01*
X111396685Y-598375871D01*
G37*
G36*
X109936285Y-597975849D02*
G01*
X109469893Y-599716447D01*
X107729295Y-599250055D01*
X108195687Y-597509457D01*
X109936285Y-597975849D01*
X109936285Y-597975849D01*
G37*
G36*
X54143231Y-585418470D02*
G01*
X54209416Y-585424989D01*
X54379255Y-585476509D01*
X54535780Y-585560174D01*
X54571518Y-585589504D01*
X54672975Y-585672766D01*
X54756237Y-585774223D01*
X54785567Y-585809961D01*
X54869232Y-585966486D01*
X54920752Y-586136325D01*
X54938148Y-586312952D01*
X54920752Y-586489579D01*
X54869232Y-586659418D01*
X54785567Y-586815943D01*
X54756237Y-586851681D01*
X54672975Y-586953138D01*
X54571518Y-587036400D01*
X54535780Y-587065730D01*
X54379255Y-587149395D01*
X54209416Y-587200915D01*
X54143231Y-587207434D01*
X54077049Y-587213952D01*
X53988529Y-587213952D01*
X53922347Y-587207434D01*
X53856162Y-587200915D01*
X53686323Y-587149395D01*
X53529798Y-587065730D01*
X53494060Y-587036400D01*
X53392603Y-586953138D01*
X53309341Y-586851681D01*
X53280011Y-586815943D01*
X53196346Y-586659418D01*
X53144826Y-586489579D01*
X53127430Y-586312952D01*
X53144826Y-586136325D01*
X53196346Y-585966486D01*
X53280011Y-585809961D01*
X53309341Y-585774223D01*
X53392603Y-585672766D01*
X53494060Y-585589504D01*
X53529798Y-585560174D01*
X53686323Y-585476509D01*
X53856162Y-585424989D01*
X53922347Y-585418470D01*
X53988529Y-585411952D01*
X54077049Y-585411952D01*
X54143231Y-585418470D01*
X54143231Y-585418470D01*
G37*
G36*
X54143232Y-582878471D02*
G01*
X54209416Y-582884989D01*
X54379255Y-582936509D01*
X54535780Y-583020174D01*
X54571518Y-583049504D01*
X54672975Y-583132766D01*
X54756237Y-583234223D01*
X54785567Y-583269961D01*
X54869232Y-583426486D01*
X54920752Y-583596325D01*
X54938148Y-583772952D01*
X54920752Y-583949579D01*
X54869232Y-584119418D01*
X54785567Y-584275943D01*
X54756237Y-584311681D01*
X54672975Y-584413138D01*
X54571518Y-584496400D01*
X54535780Y-584525730D01*
X54379255Y-584609395D01*
X54209416Y-584660915D01*
X54143231Y-584667434D01*
X54077049Y-584673952D01*
X53988529Y-584673952D01*
X53922347Y-584667434D01*
X53856162Y-584660915D01*
X53686323Y-584609395D01*
X53529798Y-584525730D01*
X53494060Y-584496400D01*
X53392603Y-584413138D01*
X53309341Y-584311681D01*
X53280011Y-584275943D01*
X53196346Y-584119418D01*
X53144826Y-583949579D01*
X53127430Y-583772952D01*
X53144826Y-583596325D01*
X53196346Y-583426486D01*
X53280011Y-583269961D01*
X53309341Y-583234223D01*
X53392603Y-583132766D01*
X53494060Y-583049504D01*
X53529798Y-583020174D01*
X53686323Y-582936509D01*
X53856162Y-582884989D01*
X53922346Y-582878471D01*
X53988529Y-582871952D01*
X54077049Y-582871952D01*
X54143232Y-582878471D01*
X54143232Y-582878471D01*
G37*
G36*
X54143231Y-580338470D02*
G01*
X54209416Y-580344989D01*
X54379255Y-580396509D01*
X54535780Y-580480174D01*
X54571518Y-580509504D01*
X54672975Y-580592766D01*
X54756237Y-580694223D01*
X54785567Y-580729961D01*
X54869232Y-580886486D01*
X54920752Y-581056325D01*
X54938148Y-581232952D01*
X54920752Y-581409579D01*
X54869232Y-581579418D01*
X54785567Y-581735943D01*
X54756237Y-581771681D01*
X54672975Y-581873138D01*
X54571518Y-581956400D01*
X54535780Y-581985730D01*
X54379255Y-582069395D01*
X54209416Y-582120915D01*
X54143232Y-582127433D01*
X54077049Y-582133952D01*
X53988529Y-582133952D01*
X53922346Y-582127433D01*
X53856162Y-582120915D01*
X53686323Y-582069395D01*
X53529798Y-581985730D01*
X53494060Y-581956400D01*
X53392603Y-581873138D01*
X53309341Y-581771681D01*
X53280011Y-581735943D01*
X53196346Y-581579418D01*
X53144826Y-581409579D01*
X53127430Y-581232952D01*
X53144826Y-581056325D01*
X53196346Y-580886486D01*
X53280011Y-580729961D01*
X53309341Y-580694223D01*
X53392603Y-580592766D01*
X53494060Y-580509504D01*
X53529798Y-580480174D01*
X53686323Y-580396509D01*
X53856162Y-580344989D01*
X53922347Y-580338470D01*
X53988529Y-580331952D01*
X54077049Y-580331952D01*
X54143231Y-580338470D01*
X54143231Y-580338470D01*
G37*
G36*
X54933789Y-579593952D02*
G01*
X53131789Y-579593952D01*
X53131789Y-577791952D01*
X54933789Y-577791952D01*
X54933789Y-579593952D01*
X54933789Y-579593952D01*
G37*
G36*
X40695374Y-570621754D02*
G01*
X40845199Y-570651556D01*
X41127463Y-570768473D01*
X41381494Y-570938211D01*
X41597530Y-571154247D01*
X41767268Y-571408278D01*
X41884185Y-571690542D01*
X41943789Y-571990192D01*
X41943789Y-572295712D01*
X41884185Y-572595362D01*
X41767268Y-572877626D01*
X41597530Y-573131657D01*
X41381494Y-573347693D01*
X41127463Y-573517431D01*
X40845199Y-573634348D01*
X40695374Y-573664150D01*
X40545550Y-573693952D01*
X40240028Y-573693952D01*
X40090204Y-573664150D01*
X39940379Y-573634348D01*
X39658115Y-573517431D01*
X39404084Y-573347693D01*
X39188048Y-573131657D01*
X39018310Y-572877626D01*
X38901393Y-572595362D01*
X38841789Y-572295712D01*
X38841789Y-571990192D01*
X38901393Y-571690542D01*
X39018310Y-571408278D01*
X39188048Y-571154247D01*
X39404084Y-570938211D01*
X39658115Y-570768473D01*
X39940379Y-570651556D01*
X40090204Y-570621754D01*
X40240028Y-570591952D01*
X40545550Y-570591952D01*
X40695374Y-570621754D01*
X40695374Y-570621754D01*
G37*
G36*
X47045374Y-568081754D02*
G01*
X47195199Y-568111556D01*
X47477463Y-568228473D01*
X47731494Y-568398211D01*
X47947530Y-568614247D01*
X48117268Y-568868278D01*
X48234185Y-569150542D01*
X48293789Y-569450192D01*
X48293789Y-569755712D01*
X48234185Y-570055362D01*
X48117268Y-570337626D01*
X47947530Y-570591657D01*
X47731494Y-570807693D01*
X47477463Y-570977431D01*
X47195199Y-571094348D01*
X47045374Y-571124150D01*
X46895550Y-571153952D01*
X46590028Y-571153952D01*
X46440204Y-571124150D01*
X46290379Y-571094348D01*
X46008115Y-570977431D01*
X45754084Y-570807693D01*
X45538048Y-570591657D01*
X45368310Y-570337626D01*
X45251393Y-570055362D01*
X45191789Y-569755712D01*
X45191789Y-569450192D01*
X45251393Y-569150542D01*
X45368310Y-568868278D01*
X45538048Y-568614247D01*
X45754084Y-568398211D01*
X46008115Y-568228473D01*
X46290379Y-568111556D01*
X46440204Y-568081754D01*
X46590028Y-568051952D01*
X46895550Y-568051952D01*
X47045374Y-568081754D01*
X47045374Y-568081754D01*
G37*
G36*
X43529263Y-565096636D02*
G01*
X43747263Y-565186935D01*
X43901412Y-565250785D01*
X44236337Y-565474575D01*
X44521166Y-565759404D01*
X44744956Y-566094329D01*
X44777351Y-566172538D01*
X44899105Y-566466478D01*
X44977689Y-566861546D01*
X44977689Y-567264358D01*
X44899105Y-567659426D01*
X44848240Y-567782224D01*
X44744956Y-568031575D01*
X44521166Y-568366500D01*
X44236337Y-568651329D01*
X43901412Y-568875119D01*
X43747263Y-568938969D01*
X43529263Y-569029268D01*
X43134195Y-569107852D01*
X42731383Y-569107852D01*
X42336315Y-569029268D01*
X42118315Y-568938969D01*
X41964166Y-568875119D01*
X41629241Y-568651329D01*
X41344412Y-568366500D01*
X41120622Y-568031575D01*
X41017338Y-567782224D01*
X40966473Y-567659426D01*
X40887889Y-567264358D01*
X40887889Y-566861546D01*
X40966473Y-566466478D01*
X41088227Y-566172538D01*
X41120622Y-566094329D01*
X41344412Y-565759404D01*
X41629241Y-565474575D01*
X41964166Y-565250785D01*
X42118315Y-565186935D01*
X42336315Y-565096636D01*
X42731383Y-565018052D01*
X43134195Y-565018052D01*
X43529263Y-565096636D01*
X43529263Y-565096636D01*
G37*
G36*
X59745375Y-565621754D02*
G01*
X59895200Y-565651556D01*
X60177464Y-565768473D01*
X60431495Y-565938211D01*
X60647531Y-566154247D01*
X60817269Y-566408278D01*
X60934186Y-566690542D01*
X60934186Y-566690543D01*
X60990122Y-566971749D01*
X60993790Y-566990192D01*
X60993790Y-567295712D01*
X60934186Y-567595362D01*
X60817269Y-567877626D01*
X60647531Y-568131657D01*
X60431495Y-568347693D01*
X60177464Y-568517431D01*
X59895200Y-568634348D01*
X59745375Y-568664150D01*
X59595551Y-568693952D01*
X59290029Y-568693952D01*
X59140205Y-568664150D01*
X58990380Y-568634348D01*
X58708116Y-568517431D01*
X58454085Y-568347693D01*
X58238049Y-568131657D01*
X58068311Y-567877626D01*
X57951394Y-567595362D01*
X57891790Y-567295712D01*
X57891790Y-566990192D01*
X57895459Y-566971749D01*
X57951394Y-566690543D01*
X57951394Y-566690542D01*
X58068311Y-566408278D01*
X58238049Y-566154247D01*
X58454085Y-565938211D01*
X58708116Y-565768473D01*
X58990380Y-565651556D01*
X59140205Y-565621754D01*
X59290029Y-565591952D01*
X59595551Y-565591952D01*
X59745375Y-565621754D01*
X59745375Y-565621754D01*
G37*
G36*
X48282893Y-566172537D02*
G01*
X48451415Y-566242341D01*
X48603080Y-566343680D01*
X48732061Y-566472661D01*
X48833400Y-566624326D01*
X48903204Y-566792848D01*
X48938789Y-566971749D01*
X48938789Y-567154155D01*
X48903204Y-567333056D01*
X48833400Y-567501578D01*
X48732061Y-567653243D01*
X48603080Y-567782224D01*
X48451415Y-567883563D01*
X48282893Y-567953367D01*
X48103992Y-567988952D01*
X47921586Y-567988952D01*
X47742685Y-567953367D01*
X47574163Y-567883563D01*
X47422498Y-567782224D01*
X47293517Y-567653243D01*
X47192178Y-567501578D01*
X47122374Y-567333056D01*
X47086789Y-567154155D01*
X47086789Y-566971749D01*
X47122374Y-566792848D01*
X47192178Y-566624326D01*
X47293517Y-566472661D01*
X47422498Y-566343680D01*
X47574163Y-566242341D01*
X47742685Y-566172537D01*
X47921586Y-566136952D01*
X48103992Y-566136952D01*
X48282893Y-566172537D01*
X48282893Y-566172537D01*
G37*
G36*
X38122893Y-566172537D02*
G01*
X38291415Y-566242341D01*
X38443080Y-566343680D01*
X38572061Y-566472661D01*
X38673400Y-566624326D01*
X38743204Y-566792848D01*
X38778789Y-566971749D01*
X38778789Y-567154155D01*
X38743204Y-567333056D01*
X38673400Y-567501578D01*
X38572061Y-567653243D01*
X38443080Y-567782224D01*
X38291415Y-567883563D01*
X38122893Y-567953367D01*
X37943992Y-567988952D01*
X37761586Y-567988952D01*
X37582685Y-567953367D01*
X37414163Y-567883563D01*
X37262498Y-567782224D01*
X37133517Y-567653243D01*
X37032178Y-567501578D01*
X36962374Y-567333056D01*
X36926789Y-567154155D01*
X36926789Y-566971749D01*
X36962374Y-566792848D01*
X37032178Y-566624326D01*
X37133517Y-566472661D01*
X37262498Y-566343680D01*
X37414163Y-566242341D01*
X37582685Y-566172537D01*
X37761586Y-566136952D01*
X37943992Y-566136952D01*
X38122893Y-566172537D01*
X38122893Y-566172537D01*
G37*
G36*
X66095375Y-563081754D02*
G01*
X66245200Y-563111556D01*
X66527464Y-563228473D01*
X66781495Y-563398211D01*
X66997531Y-563614247D01*
X67167269Y-563868278D01*
X67234908Y-564031575D01*
X67284186Y-564150543D01*
X67327143Y-564366499D01*
X67343790Y-564450192D01*
X67343790Y-564755712D01*
X67284186Y-565055362D01*
X67167269Y-565337626D01*
X66997531Y-565591657D01*
X66781495Y-565807693D01*
X66527464Y-565977431D01*
X66245200Y-566094348D01*
X66095375Y-566124150D01*
X65945551Y-566153952D01*
X65640029Y-566153952D01*
X65490205Y-566124150D01*
X65340380Y-566094348D01*
X65058116Y-565977431D01*
X64804085Y-565807693D01*
X64588049Y-565591657D01*
X64418311Y-565337626D01*
X64301394Y-565055362D01*
X64241790Y-564755712D01*
X64241790Y-564450192D01*
X64258438Y-564366499D01*
X64301394Y-564150543D01*
X64350672Y-564031575D01*
X64418311Y-563868278D01*
X64588049Y-563614247D01*
X64804085Y-563398211D01*
X65058116Y-563228473D01*
X65340380Y-563111556D01*
X65490205Y-563081754D01*
X65640029Y-563051952D01*
X65945551Y-563051952D01*
X66095375Y-563081754D01*
X66095375Y-563081754D01*
G37*
G36*
X24479263Y-561096636D02*
G01*
X24618348Y-561154247D01*
X24851412Y-561250785D01*
X25186337Y-561474575D01*
X25471166Y-561759404D01*
X25694956Y-562094329D01*
X25727351Y-562172538D01*
X25849105Y-562466478D01*
X25927689Y-562861546D01*
X25927689Y-563264358D01*
X25849105Y-563659426D01*
X25798240Y-563782224D01*
X25694956Y-564031575D01*
X25471166Y-564366500D01*
X25186337Y-564651329D01*
X24851412Y-564875119D01*
X24697263Y-564938969D01*
X24479263Y-565029268D01*
X24084195Y-565107852D01*
X23681383Y-565107852D01*
X23286315Y-565029268D01*
X23068315Y-564938969D01*
X22914166Y-564875119D01*
X22579241Y-564651329D01*
X22294412Y-564366500D01*
X22070622Y-564031575D01*
X21967338Y-563782224D01*
X21916473Y-563659426D01*
X21837889Y-563264358D01*
X21837889Y-562861546D01*
X21916473Y-562466478D01*
X22038227Y-562172538D01*
X22070622Y-562094329D01*
X22294412Y-561759404D01*
X22579241Y-561474575D01*
X22914166Y-561250785D01*
X23147230Y-561154247D01*
X23286315Y-561096636D01*
X23681383Y-561018052D01*
X24084195Y-561018052D01*
X24479263Y-561096636D01*
X24479263Y-561096636D01*
G37*
G36*
X62579264Y-560096636D02*
G01*
X62797264Y-560186935D01*
X62951413Y-560250785D01*
X63286338Y-560474575D01*
X63571167Y-560759404D01*
X63794957Y-561094329D01*
X63827352Y-561172538D01*
X63949106Y-561466478D01*
X64027690Y-561861546D01*
X64027690Y-562264358D01*
X63949106Y-562659426D01*
X63893840Y-562792849D01*
X63794957Y-563031575D01*
X63571167Y-563366500D01*
X63286338Y-563651329D01*
X62951413Y-563875119D01*
X62797264Y-563938969D01*
X62579264Y-564029268D01*
X62184196Y-564107852D01*
X61781384Y-564107852D01*
X61386316Y-564029268D01*
X61168316Y-563938969D01*
X61014167Y-563875119D01*
X60679242Y-563651329D01*
X60394413Y-563366500D01*
X60170623Y-563031575D01*
X60071740Y-562792849D01*
X60016474Y-562659426D01*
X59937890Y-562264358D01*
X59937890Y-561861546D01*
X60016474Y-561466478D01*
X60138228Y-561172538D01*
X60170623Y-561094329D01*
X60394413Y-560759404D01*
X60679242Y-560474575D01*
X61014167Y-560250785D01*
X61168316Y-560186935D01*
X61386316Y-560096636D01*
X61781384Y-560018052D01*
X62184196Y-560018052D01*
X62579264Y-560096636D01*
X62579264Y-560096636D01*
G37*
G36*
X19072893Y-562172537D02*
G01*
X19241415Y-562242341D01*
X19393080Y-562343680D01*
X19522061Y-562472661D01*
X19623400Y-562624326D01*
X19693204Y-562792848D01*
X19728789Y-562971749D01*
X19728789Y-563154155D01*
X19693204Y-563333056D01*
X19623400Y-563501578D01*
X19522061Y-563653243D01*
X19393080Y-563782224D01*
X19241415Y-563883563D01*
X19072893Y-563953367D01*
X18893992Y-563988952D01*
X18711586Y-563988952D01*
X18532685Y-563953367D01*
X18364163Y-563883563D01*
X18212498Y-563782224D01*
X18083517Y-563653243D01*
X17982178Y-563501578D01*
X17912374Y-563333056D01*
X17876789Y-563154155D01*
X17876789Y-562971749D01*
X17912374Y-562792848D01*
X17982178Y-562624326D01*
X18083517Y-562472661D01*
X18212498Y-562343680D01*
X18364163Y-562242341D01*
X18532685Y-562172537D01*
X18711586Y-562136952D01*
X18893992Y-562136952D01*
X19072893Y-562172537D01*
X19072893Y-562172537D01*
G37*
G36*
X29232893Y-562172537D02*
G01*
X29401415Y-562242341D01*
X29553080Y-562343680D01*
X29682061Y-562472661D01*
X29783400Y-562624326D01*
X29853204Y-562792848D01*
X29888789Y-562971749D01*
X29888789Y-563154155D01*
X29853204Y-563333056D01*
X29783400Y-563501578D01*
X29682061Y-563653243D01*
X29553080Y-563782224D01*
X29401415Y-563883563D01*
X29232893Y-563953367D01*
X29053992Y-563988952D01*
X28871586Y-563988952D01*
X28692685Y-563953367D01*
X28524163Y-563883563D01*
X28372498Y-563782224D01*
X28243517Y-563653243D01*
X28142178Y-563501578D01*
X28072374Y-563333056D01*
X28036789Y-563154155D01*
X28036789Y-562971749D01*
X28072374Y-562792848D01*
X28142178Y-562624326D01*
X28243517Y-562472661D01*
X28372498Y-562343680D01*
X28524163Y-562242341D01*
X28692685Y-562172537D01*
X28871586Y-562136952D01*
X29053992Y-562136952D01*
X29232893Y-562172537D01*
X29232893Y-562172537D01*
G37*
G36*
X78795374Y-560621754D02*
G01*
X78945199Y-560651556D01*
X79227463Y-560768473D01*
X79481494Y-560938211D01*
X79697530Y-561154247D01*
X79867268Y-561408278D01*
X79984185Y-561690542D01*
X79991575Y-561727693D01*
X80043789Y-561990191D01*
X80043789Y-562295713D01*
X80013987Y-562445537D01*
X79984185Y-562595362D01*
X79867268Y-562877626D01*
X79697530Y-563131657D01*
X79481494Y-563347693D01*
X79227463Y-563517431D01*
X78945199Y-563634348D01*
X78850212Y-563653242D01*
X78645550Y-563693952D01*
X78340028Y-563693952D01*
X78135366Y-563653242D01*
X78040379Y-563634348D01*
X77758115Y-563517431D01*
X77504084Y-563347693D01*
X77288048Y-563131657D01*
X77118310Y-562877626D01*
X77001393Y-562595362D01*
X76971591Y-562445537D01*
X76941789Y-562295713D01*
X76941789Y-561990191D01*
X76994003Y-561727693D01*
X77001393Y-561690542D01*
X77118310Y-561408278D01*
X77288048Y-561154247D01*
X77504084Y-560938211D01*
X77758115Y-560768473D01*
X78040379Y-560651556D01*
X78190204Y-560621754D01*
X78340028Y-560591952D01*
X78645550Y-560591952D01*
X78795374Y-560621754D01*
X78795374Y-560621754D01*
G37*
G36*
X57172894Y-561172537D02*
G01*
X57341416Y-561242341D01*
X57493081Y-561343680D01*
X57622062Y-561472661D01*
X57723401Y-561624326D01*
X57793205Y-561792848D01*
X57828790Y-561971749D01*
X57828790Y-562154155D01*
X57793205Y-562333056D01*
X57723401Y-562501578D01*
X57622062Y-562653243D01*
X57493081Y-562782224D01*
X57341416Y-562883563D01*
X57172894Y-562953367D01*
X56993993Y-562988952D01*
X56811587Y-562988952D01*
X56632686Y-562953367D01*
X56464164Y-562883563D01*
X56312499Y-562782224D01*
X56183518Y-562653243D01*
X56082179Y-562501578D01*
X56012375Y-562333056D01*
X55976790Y-562154155D01*
X55976790Y-561971749D01*
X56012375Y-561792848D01*
X56082179Y-561624326D01*
X56183518Y-561472661D01*
X56312499Y-561343680D01*
X56464164Y-561242341D01*
X56632686Y-561172537D01*
X56811587Y-561136952D01*
X56993993Y-561136952D01*
X57172894Y-561172537D01*
X57172894Y-561172537D01*
G37*
G36*
X67332894Y-561172537D02*
G01*
X67501416Y-561242341D01*
X67653081Y-561343680D01*
X67782062Y-561472661D01*
X67883401Y-561624326D01*
X67953205Y-561792848D01*
X67988790Y-561971749D01*
X67988790Y-562154155D01*
X67953205Y-562333056D01*
X67883401Y-562501578D01*
X67782062Y-562653243D01*
X67653081Y-562782224D01*
X67501416Y-562883563D01*
X67332894Y-562953367D01*
X67153993Y-562988952D01*
X66971587Y-562988952D01*
X66792686Y-562953367D01*
X66624164Y-562883563D01*
X66472499Y-562782224D01*
X66343518Y-562653243D01*
X66242179Y-562501578D01*
X66172375Y-562333056D01*
X66136790Y-562154155D01*
X66136790Y-561971749D01*
X66172375Y-561792848D01*
X66242179Y-561624326D01*
X66343518Y-561472661D01*
X66472499Y-561343680D01*
X66624164Y-561242341D01*
X66792686Y-561172537D01*
X66971587Y-561136952D01*
X67153993Y-561136952D01*
X67332894Y-561172537D01*
X67332894Y-561172537D01*
G37*
G36*
X20375374Y-559001754D02*
G01*
X20525199Y-559031556D01*
X20807463Y-559148473D01*
X21061494Y-559318211D01*
X21277530Y-559534247D01*
X21447268Y-559788278D01*
X21564185Y-560070542D01*
X21593987Y-560220367D01*
X21623789Y-560370191D01*
X21623789Y-560675713D01*
X21605338Y-560768473D01*
X21564185Y-560975362D01*
X21447268Y-561257626D01*
X21277530Y-561511657D01*
X21061494Y-561727693D01*
X20807463Y-561897431D01*
X20525199Y-562014348D01*
X20375374Y-562044150D01*
X20225550Y-562073952D01*
X19920028Y-562073952D01*
X19770204Y-562044150D01*
X19620379Y-562014348D01*
X19338115Y-561897431D01*
X19084084Y-561727693D01*
X18868048Y-561511657D01*
X18698310Y-561257626D01*
X18581393Y-560975362D01*
X18540240Y-560768473D01*
X18521789Y-560675713D01*
X18521789Y-560370191D01*
X18551591Y-560220367D01*
X18581393Y-560070542D01*
X18698310Y-559788278D01*
X18868048Y-559534247D01*
X19084084Y-559318211D01*
X19338115Y-559148473D01*
X19620379Y-559031556D01*
X19770204Y-559001754D01*
X19920028Y-558971952D01*
X20225550Y-558971952D01*
X20375374Y-559001754D01*
X20375374Y-559001754D01*
G37*
G36*
X85145374Y-558081754D02*
G01*
X85295199Y-558111556D01*
X85577463Y-558228473D01*
X85831494Y-558398211D01*
X86047530Y-558614247D01*
X86217268Y-558868278D01*
X86334185Y-559150542D01*
X86393789Y-559450192D01*
X86393789Y-559755712D01*
X86334185Y-560055362D01*
X86217268Y-560337626D01*
X86047530Y-560591657D01*
X85831494Y-560807693D01*
X85577463Y-560977431D01*
X85295199Y-561094348D01*
X85145374Y-561124150D01*
X84995550Y-561153952D01*
X84690028Y-561153952D01*
X84540204Y-561124150D01*
X84390379Y-561094348D01*
X84108115Y-560977431D01*
X83854084Y-560807693D01*
X83638048Y-560591657D01*
X83468310Y-560337626D01*
X83351393Y-560055362D01*
X83291789Y-559755712D01*
X83291789Y-559450192D01*
X83351393Y-559150542D01*
X83468310Y-558868278D01*
X83638048Y-558614247D01*
X83854084Y-558398211D01*
X84108115Y-558228473D01*
X84390379Y-558111556D01*
X84540204Y-558081754D01*
X84690028Y-558051952D01*
X84995550Y-558051952D01*
X85145374Y-558081754D01*
X85145374Y-558081754D01*
G37*
G36*
X26635581Y-556443893D02*
G01*
X26875199Y-556491556D01*
X27157463Y-556608473D01*
X27411494Y-556778211D01*
X27627530Y-556994247D01*
X27797268Y-557248278D01*
X27914185Y-557530542D01*
X27938592Y-557653243D01*
X27964248Y-557782223D01*
X27973789Y-557830192D01*
X27973789Y-558135712D01*
X27914185Y-558435362D01*
X27797268Y-558717626D01*
X27627530Y-558971657D01*
X27411494Y-559187693D01*
X27157463Y-559357431D01*
X26875199Y-559474348D01*
X26725374Y-559504150D01*
X26575550Y-559533952D01*
X26270028Y-559533952D01*
X26120204Y-559504150D01*
X25970379Y-559474348D01*
X25688115Y-559357431D01*
X25434084Y-559187693D01*
X25218048Y-558971657D01*
X25048310Y-558717626D01*
X24931393Y-558435362D01*
X24871789Y-558135712D01*
X24871789Y-557830192D01*
X24881331Y-557782223D01*
X24906986Y-557653243D01*
X24931393Y-557530542D01*
X25048310Y-557248278D01*
X25218048Y-556994247D01*
X25434084Y-556778211D01*
X25688115Y-556608473D01*
X25970379Y-556491556D01*
X26209997Y-556443893D01*
X26270028Y-556431952D01*
X26575550Y-556431952D01*
X26635581Y-556443893D01*
X26635581Y-556443893D01*
G37*
G36*
X81629263Y-555096636D02*
G01*
X81847263Y-555186935D01*
X82001412Y-555250785D01*
X82336337Y-555474575D01*
X82621166Y-555759404D01*
X82844956Y-556094329D01*
X82877351Y-556172538D01*
X82999105Y-556466478D01*
X83077689Y-556861546D01*
X83077689Y-557264358D01*
X82999105Y-557659426D01*
X82948240Y-557782224D01*
X82844956Y-558031575D01*
X82621166Y-558366500D01*
X82336337Y-558651329D01*
X82001412Y-558875119D01*
X81847263Y-558938969D01*
X81629263Y-559029268D01*
X81234195Y-559107852D01*
X80831383Y-559107852D01*
X80436315Y-559029268D01*
X80218315Y-558938969D01*
X80064166Y-558875119D01*
X79729241Y-558651329D01*
X79444412Y-558366500D01*
X79220622Y-558031575D01*
X79117338Y-557782224D01*
X79066473Y-557659426D01*
X78987889Y-557264358D01*
X78987889Y-556861546D01*
X79066473Y-556466478D01*
X79188227Y-556172538D01*
X79220622Y-556094329D01*
X79444412Y-555759404D01*
X79729241Y-555474575D01*
X80064166Y-555250785D01*
X80218315Y-555186935D01*
X80436315Y-555096636D01*
X80831383Y-555018052D01*
X81234195Y-555018052D01*
X81629263Y-555096636D01*
X81629263Y-555096636D01*
G37*
G36*
X127341599Y-558245893D02*
G01*
X125539599Y-558245893D01*
X125539599Y-556443893D01*
X127341599Y-556443893D01*
X127341599Y-558245893D01*
X127341599Y-558245893D01*
G37*
G36*
X76222893Y-556172537D02*
G01*
X76391415Y-556242341D01*
X76543080Y-556343680D01*
X76672061Y-556472661D01*
X76773400Y-556624326D01*
X76843204Y-556792848D01*
X76878789Y-556971749D01*
X76878789Y-557154155D01*
X76843204Y-557333056D01*
X76773400Y-557501578D01*
X76672061Y-557653243D01*
X76543080Y-557782224D01*
X76391415Y-557883563D01*
X76222893Y-557953367D01*
X76043992Y-557988952D01*
X75861586Y-557988952D01*
X75682685Y-557953367D01*
X75514163Y-557883563D01*
X75362498Y-557782224D01*
X75233517Y-557653243D01*
X75132178Y-557501578D01*
X75062374Y-557333056D01*
X75026789Y-557154155D01*
X75026789Y-556971749D01*
X75062374Y-556792848D01*
X75132178Y-556624326D01*
X75233517Y-556472661D01*
X75362498Y-556343680D01*
X75514163Y-556242341D01*
X75682685Y-556172537D01*
X75861586Y-556136952D01*
X76043992Y-556136952D01*
X76222893Y-556172537D01*
X76222893Y-556172537D01*
G37*
G36*
X86382893Y-556172537D02*
G01*
X86551415Y-556242341D01*
X86703080Y-556343680D01*
X86832061Y-556472661D01*
X86933400Y-556624326D01*
X87003204Y-556792848D01*
X87038789Y-556971749D01*
X87038789Y-557154155D01*
X87003204Y-557333056D01*
X86933400Y-557501578D01*
X86832061Y-557653243D01*
X86703080Y-557782224D01*
X86551415Y-557883563D01*
X86382893Y-557953367D01*
X86203992Y-557988952D01*
X86021586Y-557988952D01*
X85842685Y-557953367D01*
X85674163Y-557883563D01*
X85522498Y-557782224D01*
X85393517Y-557653243D01*
X85292178Y-557501578D01*
X85222374Y-557333056D01*
X85186789Y-557154155D01*
X85186789Y-556971749D01*
X85222374Y-556792848D01*
X85292178Y-556624326D01*
X85393517Y-556472661D01*
X85522498Y-556343680D01*
X85674163Y-556242341D01*
X85842685Y-556172537D01*
X86021586Y-556136952D01*
X86203992Y-556136952D01*
X86382893Y-556172537D01*
X86382893Y-556172537D01*
G37*
G36*
X104397974Y-557421972D02*
G01*
X102595974Y-557421972D01*
X102595974Y-555619972D01*
X104397974Y-555619972D01*
X104397974Y-557421972D01*
X104397974Y-557421972D01*
G37*
G36*
X95987416Y-555626490D02*
G01*
X96053601Y-555633009D01*
X96223440Y-555684529D01*
X96379965Y-555768194D01*
X96415703Y-555797524D01*
X96517160Y-555880786D01*
X96600422Y-555982243D01*
X96629752Y-556017981D01*
X96713417Y-556174506D01*
X96764937Y-556344345D01*
X96782333Y-556520972D01*
X96764937Y-556697599D01*
X96713417Y-556867438D01*
X96629752Y-557023963D01*
X96600422Y-557059701D01*
X96517160Y-557161158D01*
X96415703Y-557244420D01*
X96379965Y-557273750D01*
X96223440Y-557357415D01*
X96053601Y-557408935D01*
X95987417Y-557415453D01*
X95921234Y-557421972D01*
X95832714Y-557421972D01*
X95766531Y-557415453D01*
X95700347Y-557408935D01*
X95530508Y-557357415D01*
X95373983Y-557273750D01*
X95338245Y-557244420D01*
X95236788Y-557161158D01*
X95153526Y-557059701D01*
X95124196Y-557023963D01*
X95040531Y-556867438D01*
X94989011Y-556697599D01*
X94971615Y-556520972D01*
X94989011Y-556344345D01*
X95040531Y-556174506D01*
X95124196Y-556017981D01*
X95153526Y-555982243D01*
X95236788Y-555880786D01*
X95338245Y-555797524D01*
X95373983Y-555768194D01*
X95530508Y-555684529D01*
X95700347Y-555633009D01*
X95766532Y-555626490D01*
X95832714Y-555619972D01*
X95921234Y-555619972D01*
X95987416Y-555626490D01*
X95987416Y-555626490D01*
G37*
G36*
X101067416Y-555626490D02*
G01*
X101133601Y-555633009D01*
X101303440Y-555684529D01*
X101459965Y-555768194D01*
X101495703Y-555797524D01*
X101597160Y-555880786D01*
X101680422Y-555982243D01*
X101709752Y-556017981D01*
X101793417Y-556174506D01*
X101844937Y-556344345D01*
X101862333Y-556520972D01*
X101844937Y-556697599D01*
X101793417Y-556867438D01*
X101709752Y-557023963D01*
X101680422Y-557059701D01*
X101597160Y-557161158D01*
X101495703Y-557244420D01*
X101459965Y-557273750D01*
X101303440Y-557357415D01*
X101133601Y-557408935D01*
X101067417Y-557415453D01*
X101001234Y-557421972D01*
X100912714Y-557421972D01*
X100846531Y-557415453D01*
X100780347Y-557408935D01*
X100610508Y-557357415D01*
X100453983Y-557273750D01*
X100418245Y-557244420D01*
X100316788Y-557161158D01*
X100233526Y-557059701D01*
X100204196Y-557023963D01*
X100120531Y-556867438D01*
X100069011Y-556697599D01*
X100051615Y-556520972D01*
X100069011Y-556344345D01*
X100120531Y-556174506D01*
X100204196Y-556017981D01*
X100233526Y-555982243D01*
X100316788Y-555880786D01*
X100418245Y-555797524D01*
X100453983Y-555768194D01*
X100610508Y-555684529D01*
X100780347Y-555633009D01*
X100846532Y-555626490D01*
X100912714Y-555619972D01*
X101001234Y-555619972D01*
X101067416Y-555626490D01*
X101067416Y-555626490D01*
G37*
G36*
X98527416Y-555626490D02*
G01*
X98593601Y-555633009D01*
X98763440Y-555684529D01*
X98919965Y-555768194D01*
X98955703Y-555797524D01*
X99057160Y-555880786D01*
X99140422Y-555982243D01*
X99169752Y-556017981D01*
X99253417Y-556174506D01*
X99304937Y-556344345D01*
X99322333Y-556520972D01*
X99304937Y-556697599D01*
X99253417Y-556867438D01*
X99169752Y-557023963D01*
X99140422Y-557059701D01*
X99057160Y-557161158D01*
X98955703Y-557244420D01*
X98919965Y-557273750D01*
X98763440Y-557357415D01*
X98593601Y-557408935D01*
X98527417Y-557415453D01*
X98461234Y-557421972D01*
X98372714Y-557421972D01*
X98306531Y-557415453D01*
X98240347Y-557408935D01*
X98070508Y-557357415D01*
X97913983Y-557273750D01*
X97878245Y-557244420D01*
X97776788Y-557161158D01*
X97693526Y-557059701D01*
X97664196Y-557023963D01*
X97580531Y-556867438D01*
X97529011Y-556697599D01*
X97511615Y-556520972D01*
X97529011Y-556344345D01*
X97580531Y-556174506D01*
X97664196Y-556017981D01*
X97693526Y-555982243D01*
X97776788Y-555880786D01*
X97878245Y-555797524D01*
X97913983Y-555768194D01*
X98070508Y-555684529D01*
X98240347Y-555633009D01*
X98306532Y-555626490D01*
X98372714Y-555619972D01*
X98461234Y-555619972D01*
X98527416Y-555626490D01*
X98527416Y-555626490D01*
G37*
G36*
X126551041Y-553910411D02*
G01*
X126617226Y-553916930D01*
X126787065Y-553968450D01*
X126943590Y-554052115D01*
X126979328Y-554081445D01*
X127080785Y-554164707D01*
X127164047Y-554266164D01*
X127193377Y-554301902D01*
X127277042Y-554458427D01*
X127328562Y-554628266D01*
X127345958Y-554804893D01*
X127328562Y-554981520D01*
X127277042Y-555151359D01*
X127193377Y-555307884D01*
X127164047Y-555343622D01*
X127080785Y-555445079D01*
X126979328Y-555528341D01*
X126943590Y-555557671D01*
X126787065Y-555641336D01*
X126617226Y-555692856D01*
X126551041Y-555699375D01*
X126484859Y-555705893D01*
X126396339Y-555705893D01*
X126330157Y-555699375D01*
X126263972Y-555692856D01*
X126094133Y-555641336D01*
X125937608Y-555557671D01*
X125901870Y-555528341D01*
X125800413Y-555445079D01*
X125717151Y-555343622D01*
X125687821Y-555307884D01*
X125604156Y-555151359D01*
X125552636Y-554981520D01*
X125535240Y-554804893D01*
X125552636Y-554628266D01*
X125604156Y-554458427D01*
X125687821Y-554301902D01*
X125717151Y-554266164D01*
X125800413Y-554164707D01*
X125901870Y-554081445D01*
X125937608Y-554052115D01*
X126094133Y-553968450D01*
X126263972Y-553916930D01*
X126330157Y-553910411D01*
X126396339Y-553903893D01*
X126484859Y-553903893D01*
X126551041Y-553910411D01*
X126551041Y-553910411D01*
G37*
G36*
X40695375Y-551571754D02*
G01*
X40845200Y-551601556D01*
X41127464Y-551718473D01*
X41381495Y-551888211D01*
X41597531Y-552104247D01*
X41767269Y-552358278D01*
X41884186Y-552640542D01*
X41884186Y-552640543D01*
X41936806Y-552905078D01*
X41943790Y-552940192D01*
X41943790Y-553245712D01*
X41884186Y-553545362D01*
X41767269Y-553827626D01*
X41597531Y-554081657D01*
X41381495Y-554297693D01*
X41127464Y-554467431D01*
X40845200Y-554584348D01*
X40695375Y-554614150D01*
X40545551Y-554643952D01*
X40240029Y-554643952D01*
X40090205Y-554614150D01*
X39940380Y-554584348D01*
X39658116Y-554467431D01*
X39404085Y-554297693D01*
X39188049Y-554081657D01*
X39018311Y-553827626D01*
X38901394Y-553545362D01*
X38841790Y-553245712D01*
X38841790Y-552940192D01*
X38848775Y-552905078D01*
X38901394Y-552640543D01*
X38901394Y-552640542D01*
X39018311Y-552358278D01*
X39188049Y-552104247D01*
X39404085Y-551888211D01*
X39658116Y-551718473D01*
X39940380Y-551601556D01*
X40090205Y-551571754D01*
X40240029Y-551541952D01*
X40545551Y-551541952D01*
X40695375Y-551571754D01*
X40695375Y-551571754D01*
G37*
G36*
X126551041Y-551370411D02*
G01*
X126617226Y-551376930D01*
X126787065Y-551428450D01*
X126943590Y-551512115D01*
X126979328Y-551541445D01*
X127080785Y-551624707D01*
X127164047Y-551726164D01*
X127193377Y-551761902D01*
X127277042Y-551918427D01*
X127328562Y-552088266D01*
X127345958Y-552264893D01*
X127328562Y-552441520D01*
X127277042Y-552611359D01*
X127193377Y-552767884D01*
X127164047Y-552803622D01*
X127080785Y-552905079D01*
X126979328Y-552988341D01*
X126943590Y-553017671D01*
X126787065Y-553101336D01*
X126617226Y-553152856D01*
X126551042Y-553159374D01*
X126484859Y-553165893D01*
X126396339Y-553165893D01*
X126330156Y-553159374D01*
X126263972Y-553152856D01*
X126094133Y-553101336D01*
X125937608Y-553017671D01*
X125901870Y-552988341D01*
X125800413Y-552905079D01*
X125717151Y-552803622D01*
X125687821Y-552767884D01*
X125604156Y-552611359D01*
X125552636Y-552441520D01*
X125535240Y-552264893D01*
X125552636Y-552088266D01*
X125604156Y-551918427D01*
X125687821Y-551761902D01*
X125717151Y-551726164D01*
X125800413Y-551624707D01*
X125901870Y-551541445D01*
X125937608Y-551512115D01*
X126094133Y-551428450D01*
X126263972Y-551376930D01*
X126330157Y-551370411D01*
X126396339Y-551363893D01*
X126484859Y-551363893D01*
X126551041Y-551370411D01*
X126551041Y-551370411D01*
G37*
G36*
X47045375Y-549031754D02*
G01*
X47195200Y-549061556D01*
X47477464Y-549178473D01*
X47731495Y-549348211D01*
X47947531Y-549564247D01*
X48117269Y-549818278D01*
X48234186Y-550100542D01*
X48234186Y-550100543D01*
X48286806Y-550365078D01*
X48293790Y-550400192D01*
X48293790Y-550705712D01*
X48234186Y-551005362D01*
X48117269Y-551287626D01*
X47947531Y-551541657D01*
X47731495Y-551757693D01*
X47477464Y-551927431D01*
X47195200Y-552044348D01*
X47045375Y-552074150D01*
X46895551Y-552103952D01*
X46590029Y-552103952D01*
X46440205Y-552074150D01*
X46290380Y-552044348D01*
X46008116Y-551927431D01*
X45754085Y-551757693D01*
X45538049Y-551541657D01*
X45368311Y-551287626D01*
X45251394Y-551005362D01*
X45191790Y-550705712D01*
X45191790Y-550400192D01*
X45198775Y-550365078D01*
X45251394Y-550100543D01*
X45251394Y-550100542D01*
X45368311Y-549818278D01*
X45538049Y-549564247D01*
X45754085Y-549348211D01*
X46008116Y-549178473D01*
X46290380Y-549061556D01*
X46440205Y-549031754D01*
X46590029Y-549001952D01*
X46895551Y-549001952D01*
X47045375Y-549031754D01*
X47045375Y-549031754D01*
G37*
G36*
X21645375Y-547571754D02*
G01*
X21795200Y-547601556D01*
X22077464Y-547718473D01*
X22331495Y-547888211D01*
X22547531Y-548104247D01*
X22717269Y-548358278D01*
X22834186Y-548640542D01*
X22834186Y-548640543D01*
X22893790Y-548940191D01*
X22893790Y-549245713D01*
X22873402Y-549348211D01*
X22834186Y-549545362D01*
X22717269Y-549827626D01*
X22547531Y-550081657D01*
X22331495Y-550297693D01*
X22077464Y-550467431D01*
X21795200Y-550584348D01*
X21651880Y-550612856D01*
X21495551Y-550643952D01*
X21190029Y-550643952D01*
X21033700Y-550612856D01*
X20890380Y-550584348D01*
X20608116Y-550467431D01*
X20354085Y-550297693D01*
X20138049Y-550081657D01*
X19968311Y-549827626D01*
X19851394Y-549545362D01*
X19812178Y-549348211D01*
X19791790Y-549245713D01*
X19791790Y-548940191D01*
X19851394Y-548640543D01*
X19851394Y-548640542D01*
X19968311Y-548358278D01*
X20138049Y-548104247D01*
X20354085Y-547888211D01*
X20608116Y-547718473D01*
X20890380Y-547601556D01*
X21040205Y-547571754D01*
X21190029Y-547541952D01*
X21495551Y-547541952D01*
X21645375Y-547571754D01*
X21645375Y-547571754D01*
G37*
G36*
X126551042Y-548830412D02*
G01*
X126617226Y-548836930D01*
X126787065Y-548888450D01*
X126943590Y-548972115D01*
X126979328Y-549001445D01*
X127080785Y-549084707D01*
X127164047Y-549186164D01*
X127193377Y-549221902D01*
X127277042Y-549378427D01*
X127328562Y-549548266D01*
X127345958Y-549724893D01*
X127328562Y-549901520D01*
X127277042Y-550071359D01*
X127193377Y-550227884D01*
X127164047Y-550263622D01*
X127080785Y-550365079D01*
X126979328Y-550448341D01*
X126943590Y-550477671D01*
X126787065Y-550561336D01*
X126617226Y-550612856D01*
X126551042Y-550619374D01*
X126484859Y-550625893D01*
X126396339Y-550625893D01*
X126330156Y-550619374D01*
X126263972Y-550612856D01*
X126094133Y-550561336D01*
X125937608Y-550477671D01*
X125901870Y-550448341D01*
X125800413Y-550365079D01*
X125717151Y-550263622D01*
X125687821Y-550227884D01*
X125604156Y-550071359D01*
X125552636Y-549901520D01*
X125535240Y-549724893D01*
X125552636Y-549548266D01*
X125604156Y-549378427D01*
X125687821Y-549221902D01*
X125717151Y-549186164D01*
X125800413Y-549084707D01*
X125901870Y-549001445D01*
X125937608Y-548972115D01*
X126094133Y-548888450D01*
X126263972Y-548836930D01*
X126330156Y-548830412D01*
X126396339Y-548823893D01*
X126484859Y-548823893D01*
X126551042Y-548830412D01*
X126551042Y-548830412D01*
G37*
G36*
X43529264Y-546046636D02*
G01*
X43747264Y-546136935D01*
X43901413Y-546200785D01*
X44236338Y-546424575D01*
X44521167Y-546709404D01*
X44744957Y-547044329D01*
X44777352Y-547122538D01*
X44899106Y-547416478D01*
X44977690Y-547811546D01*
X44977690Y-548214358D01*
X44899106Y-548609426D01*
X44848241Y-548732224D01*
X44744957Y-548981575D01*
X44521167Y-549316500D01*
X44236338Y-549601329D01*
X43901413Y-549825119D01*
X43747264Y-549888969D01*
X43529264Y-549979268D01*
X43134196Y-550057852D01*
X42731384Y-550057852D01*
X42336316Y-549979268D01*
X42118316Y-549888969D01*
X41964167Y-549825119D01*
X41629242Y-549601329D01*
X41344413Y-549316500D01*
X41120623Y-548981575D01*
X41017339Y-548732224D01*
X40966474Y-548609426D01*
X40887890Y-548214358D01*
X40887890Y-547811546D01*
X40966474Y-547416478D01*
X41088228Y-547122538D01*
X41120623Y-547044329D01*
X41344413Y-546709404D01*
X41629242Y-546424575D01*
X41964167Y-546200785D01*
X42118316Y-546136935D01*
X42336316Y-546046636D01*
X42731384Y-545968052D01*
X43134196Y-545968052D01*
X43529264Y-546046636D01*
X43529264Y-546046636D01*
G37*
G36*
X59745374Y-546571754D02*
G01*
X59895199Y-546601556D01*
X60177463Y-546718473D01*
X60431494Y-546888211D01*
X60647530Y-547104247D01*
X60817268Y-547358278D01*
X60934185Y-547640542D01*
X60934185Y-547640543D01*
X60990121Y-547921749D01*
X60993789Y-547940192D01*
X60993789Y-548245712D01*
X60934185Y-548545362D01*
X60817268Y-548827626D01*
X60647530Y-549081657D01*
X60431494Y-549297693D01*
X60177463Y-549467431D01*
X59895199Y-549584348D01*
X59745374Y-549614150D01*
X59595550Y-549643952D01*
X59290028Y-549643952D01*
X59140204Y-549614150D01*
X58990379Y-549584348D01*
X58708115Y-549467431D01*
X58454084Y-549297693D01*
X58238048Y-549081657D01*
X58068310Y-548827626D01*
X57951393Y-548545362D01*
X57891789Y-548245712D01*
X57891789Y-547940192D01*
X57895458Y-547921749D01*
X57951393Y-547640543D01*
X57951393Y-547640542D01*
X58068310Y-547358278D01*
X58238048Y-547104247D01*
X58454084Y-546888211D01*
X58708115Y-546718473D01*
X58990379Y-546601556D01*
X59140204Y-546571754D01*
X59290028Y-546541952D01*
X59595550Y-546541952D01*
X59745374Y-546571754D01*
X59745374Y-546571754D01*
G37*
G36*
X38122894Y-547122537D02*
G01*
X38291416Y-547192341D01*
X38443081Y-547293680D01*
X38572062Y-547422661D01*
X38673401Y-547574326D01*
X38743205Y-547742848D01*
X38778790Y-547921749D01*
X38778790Y-548104155D01*
X38743205Y-548283056D01*
X38673401Y-548451578D01*
X38572062Y-548603243D01*
X38443081Y-548732224D01*
X38291416Y-548833563D01*
X38122894Y-548903367D01*
X37943993Y-548938952D01*
X37761587Y-548938952D01*
X37582686Y-548903367D01*
X37414164Y-548833563D01*
X37262499Y-548732224D01*
X37133518Y-548603243D01*
X37032179Y-548451578D01*
X36962375Y-548283056D01*
X36926790Y-548104155D01*
X36926790Y-547921749D01*
X36962375Y-547742848D01*
X37032179Y-547574326D01*
X37133518Y-547422661D01*
X37262499Y-547293680D01*
X37414164Y-547192341D01*
X37582686Y-547122537D01*
X37761587Y-547086952D01*
X37943993Y-547086952D01*
X38122894Y-547122537D01*
X38122894Y-547122537D01*
G37*
G36*
X48282894Y-547122537D02*
G01*
X48451416Y-547192341D01*
X48603081Y-547293680D01*
X48732062Y-547422661D01*
X48833401Y-547574326D01*
X48903205Y-547742848D01*
X48938790Y-547921749D01*
X48938790Y-548104155D01*
X48903205Y-548283056D01*
X48833401Y-548451578D01*
X48732062Y-548603243D01*
X48603081Y-548732224D01*
X48451416Y-548833563D01*
X48282894Y-548903367D01*
X48103993Y-548938952D01*
X47921587Y-548938952D01*
X47742686Y-548903367D01*
X47574164Y-548833563D01*
X47422499Y-548732224D01*
X47293518Y-548603243D01*
X47192179Y-548451578D01*
X47122375Y-548283056D01*
X47086790Y-548104155D01*
X47086790Y-547921749D01*
X47122375Y-547742848D01*
X47192179Y-547574326D01*
X47293518Y-547422661D01*
X47422499Y-547293680D01*
X47574164Y-547192341D01*
X47742686Y-547122537D01*
X47921587Y-547086952D01*
X48103993Y-547086952D01*
X48282894Y-547122537D01*
X48282894Y-547122537D01*
G37*
G36*
X27995375Y-545031754D02*
G01*
X28145200Y-545061556D01*
X28427464Y-545178473D01*
X28681495Y-545348211D01*
X28897531Y-545564247D01*
X29067269Y-545818278D01*
X29184186Y-546100542D01*
X29213988Y-546250367D01*
X29243790Y-546400191D01*
X29243790Y-546705713D01*
X29241252Y-546718473D01*
X29184186Y-547005362D01*
X29067269Y-547287626D01*
X28897531Y-547541657D01*
X28681495Y-547757693D01*
X28427464Y-547927431D01*
X28145200Y-548044348D01*
X27995375Y-548074150D01*
X27845551Y-548103952D01*
X27540029Y-548103952D01*
X27390205Y-548074150D01*
X27240380Y-548044348D01*
X26958116Y-547927431D01*
X26704085Y-547757693D01*
X26488049Y-547541657D01*
X26318311Y-547287626D01*
X26201394Y-547005362D01*
X26144328Y-546718473D01*
X26141790Y-546705713D01*
X26141790Y-546400191D01*
X26171592Y-546250367D01*
X26201394Y-546100542D01*
X26318311Y-545818278D01*
X26488049Y-545564247D01*
X26704085Y-545348211D01*
X26958116Y-545178473D01*
X27240380Y-545061556D01*
X27390205Y-545031754D01*
X27540029Y-545001952D01*
X27845551Y-545001952D01*
X27995375Y-545031754D01*
X27995375Y-545031754D01*
G37*
G36*
X66095374Y-544031754D02*
G01*
X66245199Y-544061556D01*
X66527463Y-544178473D01*
X66781494Y-544348211D01*
X66997530Y-544564247D01*
X67167268Y-544818278D01*
X67284185Y-545100542D01*
X67284185Y-545100543D01*
X67327142Y-545316499D01*
X67343789Y-545400192D01*
X67343789Y-545705712D01*
X67284185Y-546005362D01*
X67167268Y-546287626D01*
X66997530Y-546541657D01*
X66781494Y-546757693D01*
X66527463Y-546927431D01*
X66245199Y-547044348D01*
X66095374Y-547074150D01*
X65945550Y-547103952D01*
X65640028Y-547103952D01*
X65490204Y-547074150D01*
X65340379Y-547044348D01*
X65058115Y-546927431D01*
X64804084Y-546757693D01*
X64588048Y-546541657D01*
X64418310Y-546287626D01*
X64301393Y-546005362D01*
X64241789Y-545705712D01*
X64241789Y-545400192D01*
X64258437Y-545316499D01*
X64301393Y-545100543D01*
X64301393Y-545100542D01*
X64418310Y-544818278D01*
X64588048Y-544564247D01*
X64804084Y-544348211D01*
X65058115Y-544178473D01*
X65340379Y-544061556D01*
X65490204Y-544031754D01*
X65640028Y-544001952D01*
X65945550Y-544001952D01*
X66095374Y-544031754D01*
X66095374Y-544031754D01*
G37*
G36*
X24479264Y-542046636D02*
G01*
X24618349Y-542104247D01*
X24851413Y-542200785D01*
X25186338Y-542424575D01*
X25471167Y-542709404D01*
X25694957Y-543044329D01*
X25727352Y-543122538D01*
X25849106Y-543416478D01*
X25927690Y-543811546D01*
X25927690Y-544214358D01*
X25849106Y-544609426D01*
X25798241Y-544732224D01*
X25694957Y-544981575D01*
X25471167Y-545316500D01*
X25186338Y-545601329D01*
X24851413Y-545825119D01*
X24697264Y-545888969D01*
X24479264Y-545979268D01*
X24084196Y-546057852D01*
X23681384Y-546057852D01*
X23286316Y-545979268D01*
X23068316Y-545888969D01*
X22914167Y-545825119D01*
X22579242Y-545601329D01*
X22294413Y-545316500D01*
X22070623Y-544981575D01*
X21967339Y-544732224D01*
X21916474Y-544609426D01*
X21837890Y-544214358D01*
X21837890Y-543811546D01*
X21916474Y-543416478D01*
X22038228Y-543122538D01*
X22070623Y-543044329D01*
X22294413Y-542709404D01*
X22579242Y-542424575D01*
X22914167Y-542200785D01*
X23147231Y-542104247D01*
X23286316Y-542046636D01*
X23681384Y-541968052D01*
X24084196Y-541968052D01*
X24479264Y-542046636D01*
X24479264Y-542046636D01*
G37*
G36*
X62579263Y-541046636D02*
G01*
X62797263Y-541136935D01*
X62951412Y-541200785D01*
X63286337Y-541424575D01*
X63571166Y-541709404D01*
X63794956Y-542044329D01*
X63827351Y-542122538D01*
X63949105Y-542416478D01*
X64027689Y-542811546D01*
X64027689Y-543214358D01*
X63949105Y-543609426D01*
X63893839Y-543742849D01*
X63794956Y-543981575D01*
X63571166Y-544316500D01*
X63286337Y-544601329D01*
X62951412Y-544825119D01*
X62797263Y-544888969D01*
X62579263Y-544979268D01*
X62184195Y-545057852D01*
X61781383Y-545057852D01*
X61386315Y-544979268D01*
X61168315Y-544888969D01*
X61014166Y-544825119D01*
X60679241Y-544601329D01*
X60394412Y-544316500D01*
X60170622Y-543981575D01*
X60071739Y-543742849D01*
X60016473Y-543609426D01*
X59937889Y-543214358D01*
X59937889Y-542811546D01*
X60016473Y-542416478D01*
X60138227Y-542122538D01*
X60170622Y-542044329D01*
X60394412Y-541709404D01*
X60679241Y-541424575D01*
X61014166Y-541200785D01*
X61168315Y-541136935D01*
X61386315Y-541046636D01*
X61781383Y-540968052D01*
X62184195Y-540968052D01*
X62579263Y-541046636D01*
X62579263Y-541046636D01*
G37*
G36*
X29232894Y-543122537D02*
G01*
X29401416Y-543192341D01*
X29553081Y-543293680D01*
X29682062Y-543422661D01*
X29783401Y-543574326D01*
X29853205Y-543742848D01*
X29888790Y-543921749D01*
X29888790Y-544104155D01*
X29853205Y-544283056D01*
X29783401Y-544451578D01*
X29682062Y-544603243D01*
X29553081Y-544732224D01*
X29401416Y-544833563D01*
X29232894Y-544903367D01*
X29053993Y-544938952D01*
X28871587Y-544938952D01*
X28692686Y-544903367D01*
X28524164Y-544833563D01*
X28372499Y-544732224D01*
X28243518Y-544603243D01*
X28142179Y-544451578D01*
X28072375Y-544283056D01*
X28036790Y-544104155D01*
X28036790Y-543921749D01*
X28072375Y-543742848D01*
X28142179Y-543574326D01*
X28243518Y-543422661D01*
X28372499Y-543293680D01*
X28524164Y-543192341D01*
X28692686Y-543122537D01*
X28871587Y-543086952D01*
X29053993Y-543086952D01*
X29232894Y-543122537D01*
X29232894Y-543122537D01*
G37*
G36*
X19072894Y-543122537D02*
G01*
X19241416Y-543192341D01*
X19393081Y-543293680D01*
X19522062Y-543422661D01*
X19623401Y-543574326D01*
X19693205Y-543742848D01*
X19728790Y-543921749D01*
X19728790Y-544104155D01*
X19693205Y-544283056D01*
X19623401Y-544451578D01*
X19522062Y-544603243D01*
X19393081Y-544732224D01*
X19241416Y-544833563D01*
X19072894Y-544903367D01*
X18893993Y-544938952D01*
X18711587Y-544938952D01*
X18532686Y-544903367D01*
X18364164Y-544833563D01*
X18212499Y-544732224D01*
X18083518Y-544603243D01*
X17982179Y-544451578D01*
X17912375Y-544283056D01*
X17876790Y-544104155D01*
X17876790Y-543921749D01*
X17912375Y-543742848D01*
X17982179Y-543574326D01*
X18083518Y-543422661D01*
X18212499Y-543293680D01*
X18364164Y-543192341D01*
X18532686Y-543122537D01*
X18711587Y-543086952D01*
X18893993Y-543086952D01*
X19072894Y-543122537D01*
X19072894Y-543122537D01*
G37*
G36*
X78795374Y-541571754D02*
G01*
X78945199Y-541601556D01*
X79227463Y-541718473D01*
X79481494Y-541888211D01*
X79697530Y-542104247D01*
X79867268Y-542358278D01*
X79984185Y-542640542D01*
X79984185Y-542640543D01*
X80043789Y-542940191D01*
X80043789Y-543245713D01*
X80013987Y-543395537D01*
X79984185Y-543545362D01*
X79867268Y-543827626D01*
X79697530Y-544081657D01*
X79481494Y-544297693D01*
X79227463Y-544467431D01*
X78945199Y-544584348D01*
X78850212Y-544603242D01*
X78645550Y-544643952D01*
X78340028Y-544643952D01*
X78135366Y-544603242D01*
X78040379Y-544584348D01*
X77758115Y-544467431D01*
X77504084Y-544297693D01*
X77288048Y-544081657D01*
X77118310Y-543827626D01*
X77001393Y-543545362D01*
X76971591Y-543395537D01*
X76941789Y-543245713D01*
X76941789Y-542940191D01*
X77001393Y-542640543D01*
X77001393Y-542640542D01*
X77118310Y-542358278D01*
X77288048Y-542104247D01*
X77504084Y-541888211D01*
X77758115Y-541718473D01*
X78040379Y-541601556D01*
X78190204Y-541571754D01*
X78340028Y-541541952D01*
X78645550Y-541541952D01*
X78795374Y-541571754D01*
X78795374Y-541571754D01*
G37*
G36*
X57172893Y-542122537D02*
G01*
X57341415Y-542192341D01*
X57493080Y-542293680D01*
X57622061Y-542422661D01*
X57723400Y-542574326D01*
X57793204Y-542742848D01*
X57828789Y-542921749D01*
X57828789Y-543104155D01*
X57793204Y-543283056D01*
X57723400Y-543451578D01*
X57622061Y-543603243D01*
X57493080Y-543732224D01*
X57341415Y-543833563D01*
X57172893Y-543903367D01*
X56993992Y-543938952D01*
X56811586Y-543938952D01*
X56632685Y-543903367D01*
X56464163Y-543833563D01*
X56312498Y-543732224D01*
X56183517Y-543603243D01*
X56082178Y-543451578D01*
X56012374Y-543283056D01*
X55976789Y-543104155D01*
X55976789Y-542921749D01*
X56012374Y-542742848D01*
X56082178Y-542574326D01*
X56183517Y-542422661D01*
X56312498Y-542293680D01*
X56464163Y-542192341D01*
X56632685Y-542122537D01*
X56811586Y-542086952D01*
X56993992Y-542086952D01*
X57172893Y-542122537D01*
X57172893Y-542122537D01*
G37*
G36*
X67332893Y-542122537D02*
G01*
X67501415Y-542192341D01*
X67653080Y-542293680D01*
X67782061Y-542422661D01*
X67883400Y-542574326D01*
X67953204Y-542742848D01*
X67988789Y-542921749D01*
X67988789Y-543104155D01*
X67953204Y-543283056D01*
X67883400Y-543451578D01*
X67782061Y-543603243D01*
X67653080Y-543732224D01*
X67501415Y-543833563D01*
X67332893Y-543903367D01*
X67153992Y-543938952D01*
X66971586Y-543938952D01*
X66792685Y-543903367D01*
X66624163Y-543833563D01*
X66472498Y-543732224D01*
X66343517Y-543603243D01*
X66242178Y-543451578D01*
X66172374Y-543283056D01*
X66136789Y-543104155D01*
X66136789Y-542921749D01*
X66172374Y-542742848D01*
X66242178Y-542574326D01*
X66343517Y-542422661D01*
X66472498Y-542293680D01*
X66624163Y-542192341D01*
X66792685Y-542122537D01*
X66971586Y-542086952D01*
X67153992Y-542086952D01*
X67332893Y-542122537D01*
X67332893Y-542122537D01*
G37*
G36*
X85145374Y-539031754D02*
G01*
X85295199Y-539061556D01*
X85577463Y-539178473D01*
X85831494Y-539348211D01*
X86047530Y-539564247D01*
X86217268Y-539818278D01*
X86334185Y-540100542D01*
X86393789Y-540400192D01*
X86393789Y-540705712D01*
X86334185Y-541005362D01*
X86217268Y-541287626D01*
X86047530Y-541541657D01*
X85831494Y-541757693D01*
X85577463Y-541927431D01*
X85295199Y-542044348D01*
X85145374Y-542074150D01*
X84995550Y-542103952D01*
X84690028Y-542103952D01*
X84540204Y-542074150D01*
X84390379Y-542044348D01*
X84108115Y-541927431D01*
X83854084Y-541757693D01*
X83638048Y-541541657D01*
X83468310Y-541287626D01*
X83351393Y-541005362D01*
X83291789Y-540705712D01*
X83291789Y-540400192D01*
X83351393Y-540100542D01*
X83468310Y-539818278D01*
X83638048Y-539564247D01*
X83854084Y-539348211D01*
X84108115Y-539178473D01*
X84390379Y-539061556D01*
X84540204Y-539031754D01*
X84690028Y-539001952D01*
X84995550Y-539001952D01*
X85145374Y-539031754D01*
X85145374Y-539031754D01*
G37*
G36*
X81629263Y-536046636D02*
G01*
X81847263Y-536136935D01*
X82001412Y-536200785D01*
X82336337Y-536424575D01*
X82621166Y-536709404D01*
X82844956Y-537044329D01*
X82877351Y-537122538D01*
X82999105Y-537416478D01*
X83077689Y-537811546D01*
X83077689Y-538214358D01*
X82999105Y-538609426D01*
X82948240Y-538732224D01*
X82844956Y-538981575D01*
X82621166Y-539316500D01*
X82336337Y-539601329D01*
X82001412Y-539825119D01*
X81847263Y-539888969D01*
X81629263Y-539979268D01*
X81234195Y-540057852D01*
X80831383Y-540057852D01*
X80436315Y-539979268D01*
X80218315Y-539888969D01*
X80064166Y-539825119D01*
X79729241Y-539601329D01*
X79444412Y-539316500D01*
X79220622Y-538981575D01*
X79117338Y-538732224D01*
X79066473Y-538609426D01*
X78987889Y-538214358D01*
X78987889Y-537811546D01*
X79066473Y-537416478D01*
X79188227Y-537122538D01*
X79220622Y-537044329D01*
X79444412Y-536709404D01*
X79729241Y-536424575D01*
X80064166Y-536200785D01*
X80218315Y-536136935D01*
X80436315Y-536046636D01*
X80831383Y-535968052D01*
X81234195Y-535968052D01*
X81629263Y-536046636D01*
X81629263Y-536046636D01*
G37*
G36*
X76222893Y-537122537D02*
G01*
X76391415Y-537192341D01*
X76543080Y-537293680D01*
X76672061Y-537422661D01*
X76773400Y-537574326D01*
X76843204Y-537742848D01*
X76878789Y-537921749D01*
X76878789Y-538104155D01*
X76843204Y-538283056D01*
X76773400Y-538451578D01*
X76672061Y-538603243D01*
X76543080Y-538732224D01*
X76391415Y-538833563D01*
X76222893Y-538903367D01*
X76043992Y-538938952D01*
X75861586Y-538938952D01*
X75682685Y-538903367D01*
X75514163Y-538833563D01*
X75362498Y-538732224D01*
X75233517Y-538603243D01*
X75132178Y-538451578D01*
X75062374Y-538283056D01*
X75026789Y-538104155D01*
X75026789Y-537921749D01*
X75062374Y-537742848D01*
X75132178Y-537574326D01*
X75233517Y-537422661D01*
X75362498Y-537293680D01*
X75514163Y-537192341D01*
X75682685Y-537122537D01*
X75861586Y-537086952D01*
X76043992Y-537086952D01*
X76222893Y-537122537D01*
X76222893Y-537122537D01*
G37*
G36*
X86382893Y-537122537D02*
G01*
X86551415Y-537192341D01*
X86703080Y-537293680D01*
X86832061Y-537422661D01*
X86933400Y-537574326D01*
X87003204Y-537742848D01*
X87038789Y-537921749D01*
X87038789Y-538104155D01*
X87003204Y-538283056D01*
X86933400Y-538451578D01*
X86832061Y-538603243D01*
X86703080Y-538732224D01*
X86551415Y-538833563D01*
X86382893Y-538903367D01*
X86203992Y-538938952D01*
X86021586Y-538938952D01*
X85842685Y-538903367D01*
X85674163Y-538833563D01*
X85522498Y-538732224D01*
X85393517Y-538603243D01*
X85292178Y-538451578D01*
X85222374Y-538283056D01*
X85186789Y-538104155D01*
X85186789Y-537921749D01*
X85222374Y-537742848D01*
X85292178Y-537574326D01*
X85393517Y-537422661D01*
X85522498Y-537293680D01*
X85674163Y-537192341D01*
X85842685Y-537122537D01*
X86021586Y-537086952D01*
X86203992Y-537086952D01*
X86382893Y-537122537D01*
X86382893Y-537122537D01*
G37*
G36*
X101224604Y-536540721D02*
G01*
X101290788Y-536547239D01*
X101460627Y-536598759D01*
X101617152Y-536682424D01*
X101650027Y-536709404D01*
X101754347Y-536795016D01*
X101837609Y-536896473D01*
X101866939Y-536932211D01*
X101950604Y-537088736D01*
X102002124Y-537258575D01*
X102019520Y-537435202D01*
X102002124Y-537611829D01*
X101950604Y-537781668D01*
X101866939Y-537938193D01*
X101837609Y-537973931D01*
X101754347Y-538075388D01*
X101652890Y-538158650D01*
X101617152Y-538187980D01*
X101460627Y-538271645D01*
X101290788Y-538323165D01*
X101224604Y-538329683D01*
X101158421Y-538336202D01*
X101069901Y-538336202D01*
X101003718Y-538329683D01*
X100937534Y-538323165D01*
X100767695Y-538271645D01*
X100611170Y-538187980D01*
X100575432Y-538158650D01*
X100473975Y-538075388D01*
X100390713Y-537973931D01*
X100361383Y-537938193D01*
X100277718Y-537781668D01*
X100226198Y-537611829D01*
X100208802Y-537435202D01*
X100226198Y-537258575D01*
X100277718Y-537088736D01*
X100361383Y-536932211D01*
X100390713Y-536896473D01*
X100473975Y-536795016D01*
X100578295Y-536709404D01*
X100611170Y-536682424D01*
X100767695Y-536598759D01*
X100937534Y-536547239D01*
X101003718Y-536540721D01*
X101069901Y-536534202D01*
X101158421Y-536534202D01*
X101224604Y-536540721D01*
X101224604Y-536540721D01*
G37*
G36*
X104555161Y-538336202D02*
G01*
X102753161Y-538336202D01*
X102753161Y-536534202D01*
X104555161Y-536534202D01*
X104555161Y-538336202D01*
X104555161Y-538336202D01*
G37*
G36*
X98684604Y-536540721D02*
G01*
X98750788Y-536547239D01*
X98920627Y-536598759D01*
X99077152Y-536682424D01*
X99110027Y-536709404D01*
X99214347Y-536795016D01*
X99297609Y-536896473D01*
X99326939Y-536932211D01*
X99410604Y-537088736D01*
X99462124Y-537258575D01*
X99479520Y-537435202D01*
X99462124Y-537611829D01*
X99410604Y-537781668D01*
X99326939Y-537938193D01*
X99297609Y-537973931D01*
X99214347Y-538075388D01*
X99112890Y-538158650D01*
X99077152Y-538187980D01*
X98920627Y-538271645D01*
X98750788Y-538323165D01*
X98684604Y-538329683D01*
X98618421Y-538336202D01*
X98529901Y-538336202D01*
X98463718Y-538329683D01*
X98397534Y-538323165D01*
X98227695Y-538271645D01*
X98071170Y-538187980D01*
X98035432Y-538158650D01*
X97933975Y-538075388D01*
X97850713Y-537973931D01*
X97821383Y-537938193D01*
X97737718Y-537781668D01*
X97686198Y-537611829D01*
X97668802Y-537435202D01*
X97686198Y-537258575D01*
X97737718Y-537088736D01*
X97821383Y-536932211D01*
X97850713Y-536896473D01*
X97933975Y-536795016D01*
X98038295Y-536709404D01*
X98071170Y-536682424D01*
X98227695Y-536598759D01*
X98397534Y-536547239D01*
X98463718Y-536540721D01*
X98529901Y-536534202D01*
X98618421Y-536534202D01*
X98684604Y-536540721D01*
X98684604Y-536540721D01*
G37*
G36*
X96144604Y-536540721D02*
G01*
X96210788Y-536547239D01*
X96380627Y-536598759D01*
X96537152Y-536682424D01*
X96570027Y-536709404D01*
X96674347Y-536795016D01*
X96757609Y-536896473D01*
X96786939Y-536932211D01*
X96870604Y-537088736D01*
X96922124Y-537258575D01*
X96939520Y-537435202D01*
X96922124Y-537611829D01*
X96870604Y-537781668D01*
X96786939Y-537938193D01*
X96757609Y-537973931D01*
X96674347Y-538075388D01*
X96572890Y-538158650D01*
X96537152Y-538187980D01*
X96380627Y-538271645D01*
X96210788Y-538323165D01*
X96144604Y-538329683D01*
X96078421Y-538336202D01*
X95989901Y-538336202D01*
X95923718Y-538329683D01*
X95857534Y-538323165D01*
X95687695Y-538271645D01*
X95531170Y-538187980D01*
X95495432Y-538158650D01*
X95393975Y-538075388D01*
X95310713Y-537973931D01*
X95281383Y-537938193D01*
X95197718Y-537781668D01*
X95146198Y-537611829D01*
X95128802Y-537435202D01*
X95146198Y-537258575D01*
X95197718Y-537088736D01*
X95281383Y-536932211D01*
X95310713Y-536896473D01*
X95393975Y-536795016D01*
X95498295Y-536709404D01*
X95531170Y-536682424D01*
X95687695Y-536598759D01*
X95857534Y-536547239D01*
X95923718Y-536540721D01*
X95989901Y-536534202D01*
X96078421Y-536534202D01*
X96144604Y-536540721D01*
X96144604Y-536540721D01*
G37*
G36*
X40695374Y-532521754D02*
G01*
X40845199Y-532551556D01*
X41127463Y-532668473D01*
X41381494Y-532838211D01*
X41597530Y-533054247D01*
X41767268Y-533308278D01*
X41884185Y-533590542D01*
X41943789Y-533890192D01*
X41943789Y-534195712D01*
X41884185Y-534495362D01*
X41767268Y-534777626D01*
X41597530Y-535031657D01*
X41381494Y-535247693D01*
X41127463Y-535417431D01*
X40845199Y-535534348D01*
X40695374Y-535564150D01*
X40545550Y-535593952D01*
X40240028Y-535593952D01*
X40090204Y-535564150D01*
X39940379Y-535534348D01*
X39658115Y-535417431D01*
X39404084Y-535247693D01*
X39188048Y-535031657D01*
X39018310Y-534777626D01*
X38901393Y-534495362D01*
X38841789Y-534195712D01*
X38841789Y-533890192D01*
X38901393Y-533590542D01*
X39018310Y-533308278D01*
X39188048Y-533054247D01*
X39404084Y-532838211D01*
X39658115Y-532668473D01*
X39940379Y-532551556D01*
X40090204Y-532521754D01*
X40240028Y-532491952D01*
X40545550Y-532491952D01*
X40695374Y-532521754D01*
X40695374Y-532521754D01*
G37*
G36*
X47045374Y-529981754D02*
G01*
X47195199Y-530011556D01*
X47477463Y-530128473D01*
X47731494Y-530298211D01*
X47947530Y-530514247D01*
X48117268Y-530768278D01*
X48234185Y-531050542D01*
X48293789Y-531350192D01*
X48293789Y-531655712D01*
X48234185Y-531955362D01*
X48117268Y-532237626D01*
X47947530Y-532491657D01*
X47731494Y-532707693D01*
X47477463Y-532877431D01*
X47195199Y-532994348D01*
X47045374Y-533024150D01*
X46895550Y-533053952D01*
X46590028Y-533053952D01*
X46440204Y-533024150D01*
X46290379Y-532994348D01*
X46008115Y-532877431D01*
X45754084Y-532707693D01*
X45538048Y-532491657D01*
X45368310Y-532237626D01*
X45251393Y-531955362D01*
X45191789Y-531655712D01*
X45191789Y-531350192D01*
X45251393Y-531050542D01*
X45368310Y-530768278D01*
X45538048Y-530514247D01*
X45754084Y-530298211D01*
X46008115Y-530128473D01*
X46290379Y-530011556D01*
X46440204Y-529981754D01*
X46590028Y-529951952D01*
X46895550Y-529951952D01*
X47045374Y-529981754D01*
X47045374Y-529981754D01*
G37*
G36*
X21645374Y-528521755D02*
G01*
X21795199Y-528551557D01*
X22077463Y-528668474D01*
X22331494Y-528838212D01*
X22547530Y-529054248D01*
X22717268Y-529308279D01*
X22834185Y-529590543D01*
X22893789Y-529890193D01*
X22893789Y-530195713D01*
X22834185Y-530495363D01*
X22717268Y-530777627D01*
X22547530Y-531031658D01*
X22331494Y-531247694D01*
X22077463Y-531417432D01*
X21795199Y-531534349D01*
X21645374Y-531564151D01*
X21495550Y-531593953D01*
X21190028Y-531593953D01*
X21040204Y-531564151D01*
X20890379Y-531534349D01*
X20608115Y-531417432D01*
X20354084Y-531247694D01*
X20138048Y-531031658D01*
X19968310Y-530777627D01*
X19851393Y-530495363D01*
X19791789Y-530195713D01*
X19791789Y-529890193D01*
X19851393Y-529590543D01*
X19968310Y-529308279D01*
X20138048Y-529054248D01*
X20354084Y-528838212D01*
X20608115Y-528668474D01*
X20890379Y-528551557D01*
X21040204Y-528521755D01*
X21190028Y-528491953D01*
X21495550Y-528491953D01*
X21645374Y-528521755D01*
X21645374Y-528521755D01*
G37*
G36*
X43529263Y-526996636D02*
G01*
X43659408Y-527050544D01*
X43901412Y-527150785D01*
X44236337Y-527374575D01*
X44521166Y-527659404D01*
X44744956Y-527994329D01*
X44777351Y-528072538D01*
X44899105Y-528366478D01*
X44977689Y-528761546D01*
X44977689Y-529164358D01*
X44899105Y-529559426D01*
X44848240Y-529682224D01*
X44744956Y-529931575D01*
X44521166Y-530266500D01*
X44236337Y-530551329D01*
X43901412Y-530775119D01*
X43747263Y-530838969D01*
X43529263Y-530929268D01*
X43134195Y-531007852D01*
X42731383Y-531007852D01*
X42336315Y-530929268D01*
X42118315Y-530838969D01*
X41964166Y-530775119D01*
X41629241Y-530551329D01*
X41344412Y-530266500D01*
X41120622Y-529931575D01*
X41017338Y-529682224D01*
X40966473Y-529559426D01*
X40887889Y-529164358D01*
X40887889Y-528761546D01*
X40966473Y-528366478D01*
X41088227Y-528072538D01*
X41120622Y-527994329D01*
X41344412Y-527659404D01*
X41629241Y-527374575D01*
X41964166Y-527150785D01*
X42206170Y-527050544D01*
X42336315Y-526996636D01*
X42731383Y-526918052D01*
X43134195Y-526918052D01*
X43529263Y-526996636D01*
X43529263Y-526996636D01*
G37*
G36*
X59745374Y-527521755D02*
G01*
X59895199Y-527551557D01*
X60177463Y-527668474D01*
X60431494Y-527838212D01*
X60647530Y-528054248D01*
X60817268Y-528308279D01*
X60934185Y-528590543D01*
X60993789Y-528890193D01*
X60993789Y-529195713D01*
X60934185Y-529495363D01*
X60817268Y-529777627D01*
X60647530Y-530031658D01*
X60431494Y-530247694D01*
X60177463Y-530417432D01*
X59895199Y-530534349D01*
X59745374Y-530564151D01*
X59595550Y-530593953D01*
X59290028Y-530593953D01*
X59140204Y-530564151D01*
X58990379Y-530534349D01*
X58708115Y-530417432D01*
X58454084Y-530247694D01*
X58238048Y-530031658D01*
X58068310Y-529777627D01*
X57951393Y-529495363D01*
X57891789Y-529195713D01*
X57891789Y-528890193D01*
X57951393Y-528590543D01*
X58068310Y-528308279D01*
X58238048Y-528054248D01*
X58454084Y-527838212D01*
X58708115Y-527668474D01*
X58990379Y-527551557D01*
X59140204Y-527521755D01*
X59290028Y-527491953D01*
X59595550Y-527491953D01*
X59745374Y-527521755D01*
X59745374Y-527521755D01*
G37*
G36*
X48282893Y-528072537D02*
G01*
X48451415Y-528142341D01*
X48603080Y-528243680D01*
X48732061Y-528372661D01*
X48833400Y-528524326D01*
X48903204Y-528692848D01*
X48938789Y-528871749D01*
X48938789Y-529054155D01*
X48903204Y-529233056D01*
X48833400Y-529401578D01*
X48732061Y-529553243D01*
X48603080Y-529682224D01*
X48451415Y-529783563D01*
X48282893Y-529853367D01*
X48103992Y-529888952D01*
X47921586Y-529888952D01*
X47742685Y-529853367D01*
X47574163Y-529783563D01*
X47422498Y-529682224D01*
X47293517Y-529553243D01*
X47192178Y-529401578D01*
X47122374Y-529233056D01*
X47086789Y-529054155D01*
X47086789Y-528871749D01*
X47122374Y-528692848D01*
X47192178Y-528524326D01*
X47293517Y-528372661D01*
X47422498Y-528243680D01*
X47574163Y-528142341D01*
X47742685Y-528072537D01*
X47921586Y-528036952D01*
X48103992Y-528036952D01*
X48282893Y-528072537D01*
X48282893Y-528072537D01*
G37*
G36*
X38122893Y-528072537D02*
G01*
X38291415Y-528142341D01*
X38443080Y-528243680D01*
X38572061Y-528372661D01*
X38673400Y-528524326D01*
X38743204Y-528692848D01*
X38778789Y-528871749D01*
X38778789Y-529054155D01*
X38743204Y-529233056D01*
X38673400Y-529401578D01*
X38572061Y-529553243D01*
X38443080Y-529682224D01*
X38291415Y-529783563D01*
X38122893Y-529853367D01*
X37943992Y-529888952D01*
X37761586Y-529888952D01*
X37582685Y-529853367D01*
X37414163Y-529783563D01*
X37262498Y-529682224D01*
X37133517Y-529553243D01*
X37032178Y-529401578D01*
X36962374Y-529233056D01*
X36926789Y-529054155D01*
X36926789Y-528871749D01*
X36962374Y-528692848D01*
X37032178Y-528524326D01*
X37133517Y-528372661D01*
X37262498Y-528243680D01*
X37414163Y-528142341D01*
X37582685Y-528072537D01*
X37761586Y-528036952D01*
X37943992Y-528036952D01*
X38122893Y-528072537D01*
X38122893Y-528072537D01*
G37*
G36*
X27995374Y-525981755D02*
G01*
X28145199Y-526011557D01*
X28427463Y-526128474D01*
X28681494Y-526298212D01*
X28897530Y-526514248D01*
X29067268Y-526768279D01*
X29184185Y-527050543D01*
X29243789Y-527350193D01*
X29243789Y-527655713D01*
X29184185Y-527955363D01*
X29067268Y-528237627D01*
X28897530Y-528491658D01*
X28681494Y-528707694D01*
X28427463Y-528877432D01*
X28145199Y-528994349D01*
X27995374Y-529024151D01*
X27845550Y-529053953D01*
X27540028Y-529053953D01*
X27390204Y-529024151D01*
X27240379Y-528994349D01*
X26958115Y-528877432D01*
X26704084Y-528707694D01*
X26488048Y-528491658D01*
X26318310Y-528237627D01*
X26201393Y-527955363D01*
X26141789Y-527655713D01*
X26141789Y-527350193D01*
X26201393Y-527050543D01*
X26318310Y-526768279D01*
X26488048Y-526514248D01*
X26704084Y-526298212D01*
X26958115Y-526128474D01*
X27240379Y-526011557D01*
X27390204Y-525981755D01*
X27540028Y-525951953D01*
X27845550Y-525951953D01*
X27995374Y-525981755D01*
X27995374Y-525981755D01*
G37*
G36*
X66095374Y-524981755D02*
G01*
X66245199Y-525011557D01*
X66527463Y-525128474D01*
X66781494Y-525298212D01*
X66997530Y-525514248D01*
X67167268Y-525768279D01*
X67284185Y-526050543D01*
X67284185Y-526050544D01*
X67327142Y-526266500D01*
X67343789Y-526350193D01*
X67343789Y-526655713D01*
X67284185Y-526955363D01*
X67167268Y-527237627D01*
X66997530Y-527491658D01*
X66781494Y-527707694D01*
X66527463Y-527877432D01*
X66245199Y-527994349D01*
X66095374Y-528024151D01*
X65945550Y-528053953D01*
X65640028Y-528053953D01*
X65490204Y-528024151D01*
X65340379Y-527994349D01*
X65058115Y-527877432D01*
X64804084Y-527707694D01*
X64588048Y-527491658D01*
X64418310Y-527237627D01*
X64301393Y-526955363D01*
X64241789Y-526655713D01*
X64241789Y-526350193D01*
X64258437Y-526266500D01*
X64301393Y-526050544D01*
X64301393Y-526050543D01*
X64418310Y-525768279D01*
X64588048Y-525514248D01*
X64804084Y-525298212D01*
X65058115Y-525128474D01*
X65340379Y-525011557D01*
X65490204Y-524981755D01*
X65640028Y-524951953D01*
X65945550Y-524951953D01*
X66095374Y-524981755D01*
X66095374Y-524981755D01*
G37*
G36*
X24479263Y-522996637D02*
G01*
X24618348Y-523054248D01*
X24851412Y-523150786D01*
X25186337Y-523374576D01*
X25471166Y-523659405D01*
X25694956Y-523994330D01*
X25727351Y-524072539D01*
X25849105Y-524366479D01*
X25927689Y-524761547D01*
X25927689Y-525164359D01*
X25849105Y-525559427D01*
X25798240Y-525682225D01*
X25694956Y-525931576D01*
X25471166Y-526266501D01*
X25186337Y-526551330D01*
X24851412Y-526775120D01*
X24697263Y-526838970D01*
X24479263Y-526929269D01*
X24084195Y-527007853D01*
X23681383Y-527007853D01*
X23286315Y-526929269D01*
X23068315Y-526838970D01*
X22914166Y-526775120D01*
X22579241Y-526551330D01*
X22294412Y-526266501D01*
X22070622Y-525931576D01*
X21967338Y-525682225D01*
X21916473Y-525559427D01*
X21837889Y-525164359D01*
X21837889Y-524761547D01*
X21916473Y-524366479D01*
X22038227Y-524072539D01*
X22070622Y-523994330D01*
X22294412Y-523659405D01*
X22579241Y-523374576D01*
X22914166Y-523150786D01*
X23147230Y-523054248D01*
X23286315Y-522996637D01*
X23681383Y-522918053D01*
X24084195Y-522918053D01*
X24479263Y-522996637D01*
X24479263Y-522996637D01*
G37*
G36*
X62579263Y-521996637D02*
G01*
X62797263Y-522086936D01*
X62951412Y-522150786D01*
X63286337Y-522374576D01*
X63571166Y-522659405D01*
X63794956Y-522994330D01*
X63827351Y-523072539D01*
X63949105Y-523366479D01*
X64027689Y-523761547D01*
X64027689Y-524164359D01*
X63949105Y-524559427D01*
X63893839Y-524692850D01*
X63794956Y-524931576D01*
X63571166Y-525266501D01*
X63286337Y-525551330D01*
X62951412Y-525775120D01*
X62797263Y-525838970D01*
X62579263Y-525929269D01*
X62184195Y-526007853D01*
X61781383Y-526007853D01*
X61386315Y-525929269D01*
X61168315Y-525838970D01*
X61014166Y-525775120D01*
X60679241Y-525551330D01*
X60394412Y-525266501D01*
X60170622Y-524931576D01*
X60071739Y-524692850D01*
X60016473Y-524559427D01*
X59937889Y-524164359D01*
X59937889Y-523761547D01*
X60016473Y-523366479D01*
X60138227Y-523072539D01*
X60170622Y-522994330D01*
X60394412Y-522659405D01*
X60679241Y-522374576D01*
X61014166Y-522150786D01*
X61168315Y-522086936D01*
X61386315Y-521996637D01*
X61781383Y-521918053D01*
X62184195Y-521918053D01*
X62579263Y-521996637D01*
X62579263Y-521996637D01*
G37*
G36*
X29232893Y-524072538D02*
G01*
X29401415Y-524142342D01*
X29553080Y-524243681D01*
X29682061Y-524372662D01*
X29783400Y-524524327D01*
X29853204Y-524692849D01*
X29888789Y-524871750D01*
X29888789Y-525054156D01*
X29853204Y-525233057D01*
X29783400Y-525401579D01*
X29682061Y-525553244D01*
X29553080Y-525682225D01*
X29401415Y-525783564D01*
X29232893Y-525853368D01*
X29053992Y-525888953D01*
X28871586Y-525888953D01*
X28692685Y-525853368D01*
X28524163Y-525783564D01*
X28372498Y-525682225D01*
X28243517Y-525553244D01*
X28142178Y-525401579D01*
X28072374Y-525233057D01*
X28036789Y-525054156D01*
X28036789Y-524871750D01*
X28072374Y-524692849D01*
X28142178Y-524524327D01*
X28243517Y-524372662D01*
X28372498Y-524243681D01*
X28524163Y-524142342D01*
X28692685Y-524072538D01*
X28871586Y-524036953D01*
X29053992Y-524036953D01*
X29232893Y-524072538D01*
X29232893Y-524072538D01*
G37*
G36*
X19072893Y-524072538D02*
G01*
X19241415Y-524142342D01*
X19393080Y-524243681D01*
X19522061Y-524372662D01*
X19623400Y-524524327D01*
X19693204Y-524692849D01*
X19728789Y-524871750D01*
X19728789Y-525054156D01*
X19693204Y-525233057D01*
X19623400Y-525401579D01*
X19522061Y-525553244D01*
X19393080Y-525682225D01*
X19241415Y-525783564D01*
X19072893Y-525853368D01*
X18893992Y-525888953D01*
X18711586Y-525888953D01*
X18532685Y-525853368D01*
X18364163Y-525783564D01*
X18212498Y-525682225D01*
X18083517Y-525553244D01*
X17982178Y-525401579D01*
X17912374Y-525233057D01*
X17876789Y-525054156D01*
X17876789Y-524871750D01*
X17912374Y-524692849D01*
X17982178Y-524524327D01*
X18083517Y-524372662D01*
X18212498Y-524243681D01*
X18364163Y-524142342D01*
X18532685Y-524072538D01*
X18711586Y-524036953D01*
X18893992Y-524036953D01*
X19072893Y-524072538D01*
X19072893Y-524072538D01*
G37*
G36*
X78795375Y-522521754D02*
G01*
X78945200Y-522551556D01*
X79227464Y-522668473D01*
X79481495Y-522838211D01*
X79697531Y-523054247D01*
X79867269Y-523308278D01*
X79956759Y-523524328D01*
X79984186Y-523590543D01*
X80043790Y-523890191D01*
X80043790Y-524195713D01*
X80034248Y-524243682D01*
X79984186Y-524495362D01*
X79867269Y-524777626D01*
X79697531Y-525031657D01*
X79481495Y-525247693D01*
X79227464Y-525417431D01*
X78945200Y-525534348D01*
X78850208Y-525553243D01*
X78645551Y-525593952D01*
X78340029Y-525593952D01*
X78135372Y-525553243D01*
X78040380Y-525534348D01*
X77758116Y-525417431D01*
X77504085Y-525247693D01*
X77288049Y-525031657D01*
X77118311Y-524777626D01*
X77001394Y-524495362D01*
X76951332Y-524243682D01*
X76941790Y-524195713D01*
X76941790Y-523890191D01*
X77001394Y-523590543D01*
X77028821Y-523524328D01*
X77118311Y-523308278D01*
X77288049Y-523054247D01*
X77504085Y-522838211D01*
X77758116Y-522668473D01*
X78040380Y-522551556D01*
X78190205Y-522521754D01*
X78340029Y-522491952D01*
X78645551Y-522491952D01*
X78795375Y-522521754D01*
X78795375Y-522521754D01*
G37*
G36*
X67332893Y-523072538D02*
G01*
X67501415Y-523142342D01*
X67653080Y-523243681D01*
X67782061Y-523372662D01*
X67883400Y-523524327D01*
X67953204Y-523692849D01*
X67988789Y-523871750D01*
X67988789Y-524054156D01*
X67953204Y-524233057D01*
X67883400Y-524401579D01*
X67782061Y-524553244D01*
X67653080Y-524682225D01*
X67501415Y-524783564D01*
X67332893Y-524853368D01*
X67153992Y-524888953D01*
X66971586Y-524888953D01*
X66792685Y-524853368D01*
X66624163Y-524783564D01*
X66472498Y-524682225D01*
X66343517Y-524553244D01*
X66242178Y-524401579D01*
X66172374Y-524233057D01*
X66136789Y-524054156D01*
X66136789Y-523871750D01*
X66172374Y-523692849D01*
X66242178Y-523524327D01*
X66343517Y-523372662D01*
X66472498Y-523243681D01*
X66624163Y-523142342D01*
X66792685Y-523072538D01*
X66971586Y-523036953D01*
X67153992Y-523036953D01*
X67332893Y-523072538D01*
X67332893Y-523072538D01*
G37*
G36*
X57172893Y-523072538D02*
G01*
X57341415Y-523142342D01*
X57493080Y-523243681D01*
X57622061Y-523372662D01*
X57723400Y-523524327D01*
X57793204Y-523692849D01*
X57828789Y-523871750D01*
X57828789Y-524054156D01*
X57793204Y-524233057D01*
X57723400Y-524401579D01*
X57622061Y-524553244D01*
X57493080Y-524682225D01*
X57341415Y-524783564D01*
X57172893Y-524853368D01*
X56993992Y-524888953D01*
X56811586Y-524888953D01*
X56632685Y-524853368D01*
X56464163Y-524783564D01*
X56312498Y-524682225D01*
X56183517Y-524553244D01*
X56082178Y-524401579D01*
X56012374Y-524233057D01*
X55976789Y-524054156D01*
X55976789Y-523871750D01*
X56012374Y-523692849D01*
X56082178Y-523524327D01*
X56183517Y-523372662D01*
X56312498Y-523243681D01*
X56464163Y-523142342D01*
X56632685Y-523072538D01*
X56811586Y-523036953D01*
X56993992Y-523036953D01*
X57172893Y-523072538D01*
X57172893Y-523072538D01*
G37*
G36*
X85145375Y-519981754D02*
G01*
X85295200Y-520011556D01*
X85577464Y-520128473D01*
X85831495Y-520298211D01*
X86047531Y-520514247D01*
X86217269Y-520768278D01*
X86334186Y-521050542D01*
X86393790Y-521350192D01*
X86393790Y-521655712D01*
X86334186Y-521955362D01*
X86217269Y-522237626D01*
X86047531Y-522491657D01*
X85831495Y-522707693D01*
X85577464Y-522877431D01*
X85295200Y-522994348D01*
X85145375Y-523024150D01*
X84995551Y-523053952D01*
X84690029Y-523053952D01*
X84540205Y-523024150D01*
X84390380Y-522994348D01*
X84108116Y-522877431D01*
X83854085Y-522707693D01*
X83638049Y-522491657D01*
X83468311Y-522237626D01*
X83351394Y-521955362D01*
X83291790Y-521655712D01*
X83291790Y-521350192D01*
X83351394Y-521050542D01*
X83468311Y-520768278D01*
X83638049Y-520514247D01*
X83854085Y-520298211D01*
X84108116Y-520128473D01*
X84390380Y-520011556D01*
X84540205Y-519981754D01*
X84690029Y-519951952D01*
X84995551Y-519951952D01*
X85145375Y-519981754D01*
X85145375Y-519981754D01*
G37*
G36*
X81629264Y-516996636D02*
G01*
X81847264Y-517086935D01*
X82001413Y-517150785D01*
X82336338Y-517374575D01*
X82621167Y-517659404D01*
X82844957Y-517994329D01*
X82877352Y-518072538D01*
X82999106Y-518366478D01*
X83077690Y-518761546D01*
X83077690Y-519164358D01*
X82999106Y-519559426D01*
X82948241Y-519682224D01*
X82844957Y-519931575D01*
X82621167Y-520266500D01*
X82336338Y-520551329D01*
X82001413Y-520775119D01*
X81847264Y-520838969D01*
X81629264Y-520929268D01*
X81234196Y-521007852D01*
X80831384Y-521007852D01*
X80436316Y-520929268D01*
X80218316Y-520838969D01*
X80064167Y-520775119D01*
X79729242Y-520551329D01*
X79444413Y-520266500D01*
X79220623Y-519931575D01*
X79117339Y-519682224D01*
X79066474Y-519559426D01*
X78987890Y-519164358D01*
X78987890Y-518761546D01*
X79066474Y-518366478D01*
X79188228Y-518072538D01*
X79220623Y-517994329D01*
X79444413Y-517659404D01*
X79729242Y-517374575D01*
X80064167Y-517150785D01*
X80218316Y-517086935D01*
X80436316Y-516996636D01*
X80831384Y-516918052D01*
X81234196Y-516918052D01*
X81629264Y-516996636D01*
X81629264Y-516996636D01*
G37*
G36*
X86382894Y-518072537D02*
G01*
X86551416Y-518142341D01*
X86703081Y-518243680D01*
X86832062Y-518372661D01*
X86933401Y-518524326D01*
X87003205Y-518692848D01*
X87038790Y-518871749D01*
X87038790Y-519054155D01*
X87003205Y-519233056D01*
X86933401Y-519401578D01*
X86832062Y-519553243D01*
X86703081Y-519682224D01*
X86551416Y-519783563D01*
X86382894Y-519853367D01*
X86203993Y-519888952D01*
X86021587Y-519888952D01*
X85842686Y-519853367D01*
X85674164Y-519783563D01*
X85522499Y-519682224D01*
X85393518Y-519553243D01*
X85292179Y-519401578D01*
X85222375Y-519233056D01*
X85186790Y-519054155D01*
X85186790Y-518871749D01*
X85222375Y-518692848D01*
X85292179Y-518524326D01*
X85393518Y-518372661D01*
X85522499Y-518243680D01*
X85674164Y-518142341D01*
X85842686Y-518072537D01*
X86021587Y-518036952D01*
X86203993Y-518036952D01*
X86382894Y-518072537D01*
X86382894Y-518072537D01*
G37*
G36*
X76222894Y-518072537D02*
G01*
X76391416Y-518142341D01*
X76543081Y-518243680D01*
X76672062Y-518372661D01*
X76773401Y-518524326D01*
X76843205Y-518692848D01*
X76878790Y-518871749D01*
X76878790Y-519054155D01*
X76843205Y-519233056D01*
X76773401Y-519401578D01*
X76672062Y-519553243D01*
X76543081Y-519682224D01*
X76391416Y-519783563D01*
X76222894Y-519853367D01*
X76043993Y-519888952D01*
X75861587Y-519888952D01*
X75682686Y-519853367D01*
X75514164Y-519783563D01*
X75362499Y-519682224D01*
X75233518Y-519553243D01*
X75132179Y-519401578D01*
X75062375Y-519233056D01*
X75026790Y-519054155D01*
X75026790Y-518871749D01*
X75062375Y-518692848D01*
X75132179Y-518524326D01*
X75233518Y-518372661D01*
X75362499Y-518243680D01*
X75514164Y-518142341D01*
X75682686Y-518072537D01*
X75861587Y-518036952D01*
X76043993Y-518036952D01*
X76222894Y-518072537D01*
X76222894Y-518072537D01*
G37*
G36*
X104537291Y-519216542D02*
G01*
X102735291Y-519216542D01*
X102735291Y-517414542D01*
X104537291Y-517414542D01*
X104537291Y-519216542D01*
X104537291Y-519216542D01*
G37*
G36*
X98666734Y-517421061D02*
G01*
X98732918Y-517427579D01*
X98902757Y-517479099D01*
X99059282Y-517562764D01*
X99095020Y-517592094D01*
X99196477Y-517675356D01*
X99279739Y-517776813D01*
X99309069Y-517812551D01*
X99392734Y-517969076D01*
X99444254Y-518138915D01*
X99461650Y-518315542D01*
X99444254Y-518492169D01*
X99392734Y-518662008D01*
X99309069Y-518818533D01*
X99279739Y-518854271D01*
X99196477Y-518955728D01*
X99095020Y-519038990D01*
X99059282Y-519068320D01*
X98902757Y-519151985D01*
X98732918Y-519203505D01*
X98666734Y-519210023D01*
X98600551Y-519216542D01*
X98512031Y-519216542D01*
X98445848Y-519210023D01*
X98379664Y-519203505D01*
X98209825Y-519151985D01*
X98053300Y-519068320D01*
X98017562Y-519038990D01*
X97916105Y-518955728D01*
X97832843Y-518854271D01*
X97803513Y-518818533D01*
X97719848Y-518662008D01*
X97668328Y-518492169D01*
X97650932Y-518315542D01*
X97668328Y-518138915D01*
X97719848Y-517969076D01*
X97803513Y-517812551D01*
X97832843Y-517776813D01*
X97916105Y-517675356D01*
X98017562Y-517592094D01*
X98053300Y-517562764D01*
X98209825Y-517479099D01*
X98379664Y-517427579D01*
X98445848Y-517421061D01*
X98512031Y-517414542D01*
X98600551Y-517414542D01*
X98666734Y-517421061D01*
X98666734Y-517421061D01*
G37*
G36*
X101206734Y-517421061D02*
G01*
X101272918Y-517427579D01*
X101442757Y-517479099D01*
X101599282Y-517562764D01*
X101635020Y-517592094D01*
X101736477Y-517675356D01*
X101819739Y-517776813D01*
X101849069Y-517812551D01*
X101932734Y-517969076D01*
X101984254Y-518138915D01*
X102001650Y-518315542D01*
X101984254Y-518492169D01*
X101932734Y-518662008D01*
X101849069Y-518818533D01*
X101819739Y-518854271D01*
X101736477Y-518955728D01*
X101635020Y-519038990D01*
X101599282Y-519068320D01*
X101442757Y-519151985D01*
X101272918Y-519203505D01*
X101206734Y-519210023D01*
X101140551Y-519216542D01*
X101052031Y-519216542D01*
X100985848Y-519210023D01*
X100919664Y-519203505D01*
X100749825Y-519151985D01*
X100593300Y-519068320D01*
X100557562Y-519038990D01*
X100456105Y-518955728D01*
X100372843Y-518854271D01*
X100343513Y-518818533D01*
X100259848Y-518662008D01*
X100208328Y-518492169D01*
X100190932Y-518315542D01*
X100208328Y-518138915D01*
X100259848Y-517969076D01*
X100343513Y-517812551D01*
X100372843Y-517776813D01*
X100456105Y-517675356D01*
X100557562Y-517592094D01*
X100593300Y-517562764D01*
X100749825Y-517479099D01*
X100919664Y-517427579D01*
X100985848Y-517421061D01*
X101052031Y-517414542D01*
X101140551Y-517414542D01*
X101206734Y-517421061D01*
X101206734Y-517421061D01*
G37*
G36*
X96126734Y-517421061D02*
G01*
X96192918Y-517427579D01*
X96362757Y-517479099D01*
X96519282Y-517562764D01*
X96555020Y-517592094D01*
X96656477Y-517675356D01*
X96739739Y-517776813D01*
X96769069Y-517812551D01*
X96852734Y-517969076D01*
X96904254Y-518138915D01*
X96921650Y-518315542D01*
X96904254Y-518492169D01*
X96852734Y-518662008D01*
X96769069Y-518818533D01*
X96739739Y-518854271D01*
X96656477Y-518955728D01*
X96555020Y-519038990D01*
X96519282Y-519068320D01*
X96362757Y-519151985D01*
X96192918Y-519203505D01*
X96126734Y-519210023D01*
X96060551Y-519216542D01*
X95972031Y-519216542D01*
X95905848Y-519210023D01*
X95839664Y-519203505D01*
X95669825Y-519151985D01*
X95513300Y-519068320D01*
X95477562Y-519038990D01*
X95376105Y-518955728D01*
X95292843Y-518854271D01*
X95263513Y-518818533D01*
X95179848Y-518662008D01*
X95128328Y-518492169D01*
X95110932Y-518315542D01*
X95128328Y-518138915D01*
X95179848Y-517969076D01*
X95263513Y-517812551D01*
X95292843Y-517776813D01*
X95376105Y-517675356D01*
X95477562Y-517592094D01*
X95513300Y-517562764D01*
X95669825Y-517479099D01*
X95839664Y-517427579D01*
X95905848Y-517421061D01*
X95972031Y-517414542D01*
X96060551Y-517414542D01*
X96126734Y-517421061D01*
X96126734Y-517421061D01*
G37*
G36*
X40695374Y-513458802D02*
G01*
X40845199Y-513488604D01*
X41127463Y-513605521D01*
X41381494Y-513775259D01*
X41597530Y-513991295D01*
X41767268Y-514245326D01*
X41884185Y-514527590D01*
X41943789Y-514827240D01*
X41943789Y-515132760D01*
X41884185Y-515432410D01*
X41767268Y-515714674D01*
X41597530Y-515968705D01*
X41381494Y-516184741D01*
X41127463Y-516354479D01*
X40845199Y-516471396D01*
X40695374Y-516501198D01*
X40545550Y-516531000D01*
X40240028Y-516531000D01*
X40090204Y-516501198D01*
X39940379Y-516471396D01*
X39658115Y-516354479D01*
X39404084Y-516184741D01*
X39188048Y-515968705D01*
X39018310Y-515714674D01*
X38901393Y-515432410D01*
X38841789Y-515132760D01*
X38841789Y-514827240D01*
X38901393Y-514527590D01*
X39018310Y-514245326D01*
X39188048Y-513991295D01*
X39404084Y-513775259D01*
X39658115Y-513605521D01*
X39940379Y-513488604D01*
X40090204Y-513458802D01*
X40240028Y-513429000D01*
X40545550Y-513429000D01*
X40695374Y-513458802D01*
X40695374Y-513458802D01*
G37*
G36*
X47045374Y-510918802D02*
G01*
X47195199Y-510948604D01*
X47477463Y-511065521D01*
X47731494Y-511235259D01*
X47947530Y-511451295D01*
X48117268Y-511705326D01*
X48234185Y-511987590D01*
X48293789Y-512287240D01*
X48293789Y-512592760D01*
X48234185Y-512892410D01*
X48117268Y-513174674D01*
X47947530Y-513428705D01*
X47731494Y-513644741D01*
X47477463Y-513814479D01*
X47195199Y-513931396D01*
X47045374Y-513961198D01*
X46895550Y-513991000D01*
X46590028Y-513991000D01*
X46440204Y-513961198D01*
X46290379Y-513931396D01*
X46008115Y-513814479D01*
X45754084Y-513644741D01*
X45538048Y-513428705D01*
X45368310Y-513174674D01*
X45251393Y-512892410D01*
X45191789Y-512592760D01*
X45191789Y-512287240D01*
X45251393Y-511987590D01*
X45368310Y-511705326D01*
X45538048Y-511451295D01*
X45754084Y-511235259D01*
X46008115Y-511065521D01*
X46290379Y-510948604D01*
X46440204Y-510918802D01*
X46590028Y-510889000D01*
X46895550Y-510889000D01*
X47045374Y-510918802D01*
X47045374Y-510918802D01*
G37*
G36*
X21645374Y-509458802D02*
G01*
X21795199Y-509488604D01*
X22077463Y-509605521D01*
X22331494Y-509775259D01*
X22547530Y-509991295D01*
X22717268Y-510245326D01*
X22834185Y-510527590D01*
X22834185Y-510527591D01*
X22893789Y-510827239D01*
X22893789Y-511132761D01*
X22873401Y-511235259D01*
X22834185Y-511432410D01*
X22717268Y-511714674D01*
X22547530Y-511968705D01*
X22331494Y-512184741D01*
X22077463Y-512354479D01*
X21795199Y-512471396D01*
X21645374Y-512501198D01*
X21495550Y-512531000D01*
X21190028Y-512531000D01*
X21040204Y-512501198D01*
X20890379Y-512471396D01*
X20608115Y-512354479D01*
X20354084Y-512184741D01*
X20138048Y-511968705D01*
X19968310Y-511714674D01*
X19851393Y-511432410D01*
X19812177Y-511235259D01*
X19791789Y-511132761D01*
X19791789Y-510827239D01*
X19851393Y-510527591D01*
X19851393Y-510527590D01*
X19968310Y-510245326D01*
X20138048Y-509991295D01*
X20354084Y-509775259D01*
X20608115Y-509605521D01*
X20890379Y-509488604D01*
X21040204Y-509458802D01*
X21190028Y-509429000D01*
X21495550Y-509429000D01*
X21645374Y-509458802D01*
X21645374Y-509458802D01*
G37*
G36*
X43529263Y-507933684D02*
G01*
X43747263Y-508023983D01*
X43901412Y-508087833D01*
X44236337Y-508311623D01*
X44521166Y-508596452D01*
X44744956Y-508931377D01*
X44777351Y-509009586D01*
X44899105Y-509303526D01*
X44977689Y-509698594D01*
X44977689Y-510101406D01*
X44899105Y-510496474D01*
X44848240Y-510619272D01*
X44744956Y-510868623D01*
X44521166Y-511203548D01*
X44236337Y-511488377D01*
X43901412Y-511712167D01*
X43747263Y-511776017D01*
X43529263Y-511866316D01*
X43134195Y-511944900D01*
X42731383Y-511944900D01*
X42336315Y-511866316D01*
X42118315Y-511776017D01*
X41964166Y-511712167D01*
X41629241Y-511488377D01*
X41344412Y-511203548D01*
X41120622Y-510868623D01*
X41017338Y-510619272D01*
X40966473Y-510496474D01*
X40887889Y-510101406D01*
X40887889Y-509698594D01*
X40966473Y-509303526D01*
X41088227Y-509009586D01*
X41120622Y-508931377D01*
X41344412Y-508596452D01*
X41629241Y-508311623D01*
X41964166Y-508087833D01*
X42118315Y-508023983D01*
X42336315Y-507933684D01*
X42731383Y-507855100D01*
X43134195Y-507855100D01*
X43529263Y-507933684D01*
X43529263Y-507933684D01*
G37*
G36*
X59745374Y-508458802D02*
G01*
X59895199Y-508488604D01*
X60177463Y-508605521D01*
X60431494Y-508775259D01*
X60647530Y-508991295D01*
X60817268Y-509245326D01*
X60934185Y-509527590D01*
X60934185Y-509527591D01*
X60990121Y-509808797D01*
X60993789Y-509827240D01*
X60993789Y-510132760D01*
X60934185Y-510432410D01*
X60817268Y-510714674D01*
X60647530Y-510968705D01*
X60431494Y-511184741D01*
X60177463Y-511354479D01*
X59895199Y-511471396D01*
X59745374Y-511501198D01*
X59595550Y-511531000D01*
X59290028Y-511531000D01*
X59140204Y-511501198D01*
X58990379Y-511471396D01*
X58708115Y-511354479D01*
X58454084Y-511184741D01*
X58238048Y-510968705D01*
X58068310Y-510714674D01*
X57951393Y-510432410D01*
X57891789Y-510132760D01*
X57891789Y-509827240D01*
X57895458Y-509808797D01*
X57951393Y-509527591D01*
X57951393Y-509527590D01*
X58068310Y-509245326D01*
X58238048Y-508991295D01*
X58454084Y-508775259D01*
X58708115Y-508605521D01*
X58990379Y-508488604D01*
X59140204Y-508458802D01*
X59290028Y-508429000D01*
X59595550Y-508429000D01*
X59745374Y-508458802D01*
X59745374Y-508458802D01*
G37*
G36*
X48282893Y-509009585D02*
G01*
X48451415Y-509079389D01*
X48603080Y-509180728D01*
X48732061Y-509309709D01*
X48833400Y-509461374D01*
X48903204Y-509629896D01*
X48938789Y-509808797D01*
X48938789Y-509991203D01*
X48903204Y-510170104D01*
X48833400Y-510338626D01*
X48732061Y-510490291D01*
X48603080Y-510619272D01*
X48451415Y-510720611D01*
X48282893Y-510790415D01*
X48103992Y-510826000D01*
X47921586Y-510826000D01*
X47742685Y-510790415D01*
X47574163Y-510720611D01*
X47422498Y-510619272D01*
X47293517Y-510490291D01*
X47192178Y-510338626D01*
X47122374Y-510170104D01*
X47086789Y-509991203D01*
X47086789Y-509808797D01*
X47122374Y-509629896D01*
X47192178Y-509461374D01*
X47293517Y-509309709D01*
X47422498Y-509180728D01*
X47574163Y-509079389D01*
X47742685Y-509009585D01*
X47921586Y-508974000D01*
X48103992Y-508974000D01*
X48282893Y-509009585D01*
X48282893Y-509009585D01*
G37*
G36*
X38122893Y-509009585D02*
G01*
X38291415Y-509079389D01*
X38443080Y-509180728D01*
X38572061Y-509309709D01*
X38673400Y-509461374D01*
X38743204Y-509629896D01*
X38778789Y-509808797D01*
X38778789Y-509991203D01*
X38743204Y-510170104D01*
X38673400Y-510338626D01*
X38572061Y-510490291D01*
X38443080Y-510619272D01*
X38291415Y-510720611D01*
X38122893Y-510790415D01*
X37943992Y-510826000D01*
X37761586Y-510826000D01*
X37582685Y-510790415D01*
X37414163Y-510720611D01*
X37262498Y-510619272D01*
X37133517Y-510490291D01*
X37032178Y-510338626D01*
X36962374Y-510170104D01*
X36926789Y-509991203D01*
X36926789Y-509808797D01*
X36962374Y-509629896D01*
X37032178Y-509461374D01*
X37133517Y-509309709D01*
X37262498Y-509180728D01*
X37414163Y-509079389D01*
X37582685Y-509009585D01*
X37761586Y-508974000D01*
X37943992Y-508974000D01*
X38122893Y-509009585D01*
X38122893Y-509009585D01*
G37*
G36*
X27995374Y-506918802D02*
G01*
X28145199Y-506948604D01*
X28427463Y-507065521D01*
X28681494Y-507235259D01*
X28897530Y-507451295D01*
X29067268Y-507705326D01*
X29184185Y-507987590D01*
X29210385Y-508119305D01*
X29243789Y-508287239D01*
X29243789Y-508592761D01*
X29241251Y-508605521D01*
X29184185Y-508892410D01*
X29067268Y-509174674D01*
X28897530Y-509428705D01*
X28681494Y-509644741D01*
X28427463Y-509814479D01*
X28145199Y-509931396D01*
X27995374Y-509961198D01*
X27845550Y-509991000D01*
X27540028Y-509991000D01*
X27390204Y-509961198D01*
X27240379Y-509931396D01*
X26958115Y-509814479D01*
X26704084Y-509644741D01*
X26488048Y-509428705D01*
X26318310Y-509174674D01*
X26201393Y-508892410D01*
X26144327Y-508605521D01*
X26141789Y-508592761D01*
X26141789Y-508287239D01*
X26175193Y-508119305D01*
X26201393Y-507987590D01*
X26318310Y-507705326D01*
X26488048Y-507451295D01*
X26704084Y-507235259D01*
X26958115Y-507065521D01*
X27240379Y-506948604D01*
X27390204Y-506918802D01*
X27540028Y-506889000D01*
X27845550Y-506889000D01*
X27995374Y-506918802D01*
X27995374Y-506918802D01*
G37*
G36*
X66095374Y-505918802D02*
G01*
X66245199Y-505948604D01*
X66527463Y-506065521D01*
X66781494Y-506235259D01*
X66997530Y-506451295D01*
X67167268Y-506705326D01*
X67284185Y-506987590D01*
X67284185Y-506987591D01*
X67327142Y-507203547D01*
X67343789Y-507287240D01*
X67343789Y-507592760D01*
X67284185Y-507892410D01*
X67167268Y-508174674D01*
X66997530Y-508428705D01*
X66781494Y-508644741D01*
X66527463Y-508814479D01*
X66245199Y-508931396D01*
X66095374Y-508961198D01*
X65945550Y-508991000D01*
X65640028Y-508991000D01*
X65490204Y-508961198D01*
X65340379Y-508931396D01*
X65058115Y-508814479D01*
X64804084Y-508644741D01*
X64588048Y-508428705D01*
X64418310Y-508174674D01*
X64301393Y-507892410D01*
X64241789Y-507592760D01*
X64241789Y-507287240D01*
X64258437Y-507203547D01*
X64301393Y-506987591D01*
X64301393Y-506987590D01*
X64418310Y-506705326D01*
X64588048Y-506451295D01*
X64804084Y-506235259D01*
X65058115Y-506065521D01*
X65340379Y-505948604D01*
X65490204Y-505918802D01*
X65640028Y-505889000D01*
X65945550Y-505889000D01*
X66095374Y-505918802D01*
X66095374Y-505918802D01*
G37*
G36*
X127277095Y-508119305D02*
G01*
X125475095Y-508119305D01*
X125475095Y-506317305D01*
X127277095Y-506317305D01*
X127277095Y-508119305D01*
X127277095Y-508119305D01*
G37*
G36*
X24479263Y-503933684D02*
G01*
X24618348Y-503991295D01*
X24851412Y-504087833D01*
X25186337Y-504311623D01*
X25471166Y-504596452D01*
X25694956Y-504931377D01*
X25727351Y-505009586D01*
X25849105Y-505303526D01*
X25927689Y-505698594D01*
X25927689Y-506101406D01*
X25849105Y-506496474D01*
X25798240Y-506619272D01*
X25694956Y-506868623D01*
X25471166Y-507203548D01*
X25186337Y-507488377D01*
X24851412Y-507712167D01*
X24697263Y-507776017D01*
X24479263Y-507866316D01*
X24084195Y-507944900D01*
X23681383Y-507944900D01*
X23286315Y-507866316D01*
X23068315Y-507776017D01*
X22914166Y-507712167D01*
X22579241Y-507488377D01*
X22294412Y-507203548D01*
X22070622Y-506868623D01*
X21967338Y-506619272D01*
X21916473Y-506496474D01*
X21837889Y-506101406D01*
X21837889Y-505698594D01*
X21916473Y-505303526D01*
X22038227Y-505009586D01*
X22070622Y-504931377D01*
X22294412Y-504596452D01*
X22579241Y-504311623D01*
X22914166Y-504087833D01*
X23147230Y-503991295D01*
X23286315Y-503933684D01*
X23681383Y-503855100D01*
X24084195Y-503855100D01*
X24479263Y-503933684D01*
X24479263Y-503933684D01*
G37*
G36*
X62579263Y-502933684D02*
G01*
X62797263Y-503023983D01*
X62951412Y-503087833D01*
X63286337Y-503311623D01*
X63571166Y-503596452D01*
X63794956Y-503931377D01*
X63827351Y-504009586D01*
X63949105Y-504303526D01*
X64027689Y-504698594D01*
X64027689Y-505101406D01*
X63949105Y-505496474D01*
X63893839Y-505629897D01*
X63794956Y-505868623D01*
X63571166Y-506203548D01*
X63286337Y-506488377D01*
X62951412Y-506712167D01*
X62797263Y-506776017D01*
X62579263Y-506866316D01*
X62184195Y-506944900D01*
X61781383Y-506944900D01*
X61386315Y-506866316D01*
X61168315Y-506776017D01*
X61014166Y-506712167D01*
X60679241Y-506488377D01*
X60394412Y-506203548D01*
X60170622Y-505868623D01*
X60071739Y-505629897D01*
X60016473Y-505496474D01*
X59937889Y-505101406D01*
X59937889Y-504698594D01*
X60016473Y-504303526D01*
X60138227Y-504009586D01*
X60170622Y-503931377D01*
X60394412Y-503596452D01*
X60679241Y-503311623D01*
X61014166Y-503087833D01*
X61168315Y-503023983D01*
X61386315Y-502933684D01*
X61781383Y-502855100D01*
X62184195Y-502855100D01*
X62579263Y-502933684D01*
X62579263Y-502933684D01*
G37*
G36*
X29232893Y-505009585D02*
G01*
X29401415Y-505079389D01*
X29553080Y-505180728D01*
X29682061Y-505309709D01*
X29783400Y-505461374D01*
X29853204Y-505629896D01*
X29888789Y-505808797D01*
X29888789Y-505991203D01*
X29853204Y-506170104D01*
X29783400Y-506338626D01*
X29682061Y-506490291D01*
X29553080Y-506619272D01*
X29401415Y-506720611D01*
X29232893Y-506790415D01*
X29053992Y-506826000D01*
X28871586Y-506826000D01*
X28692685Y-506790415D01*
X28524163Y-506720611D01*
X28372498Y-506619272D01*
X28243517Y-506490291D01*
X28142178Y-506338626D01*
X28072374Y-506170104D01*
X28036789Y-505991203D01*
X28036789Y-505808797D01*
X28072374Y-505629896D01*
X28142178Y-505461374D01*
X28243517Y-505309709D01*
X28372498Y-505180728D01*
X28524163Y-505079389D01*
X28692685Y-505009585D01*
X28871586Y-504974000D01*
X29053992Y-504974000D01*
X29232893Y-505009585D01*
X29232893Y-505009585D01*
G37*
G36*
X19072893Y-505009585D02*
G01*
X19241415Y-505079389D01*
X19393080Y-505180728D01*
X19522061Y-505309709D01*
X19623400Y-505461374D01*
X19693204Y-505629896D01*
X19728789Y-505808797D01*
X19728789Y-505991203D01*
X19693204Y-506170104D01*
X19623400Y-506338626D01*
X19522061Y-506490291D01*
X19393080Y-506619272D01*
X19241415Y-506720611D01*
X19072893Y-506790415D01*
X18893992Y-506826000D01*
X18711586Y-506826000D01*
X18532685Y-506790415D01*
X18364163Y-506720611D01*
X18212498Y-506619272D01*
X18083517Y-506490291D01*
X17982178Y-506338626D01*
X17912374Y-506170104D01*
X17876789Y-505991203D01*
X17876789Y-505808797D01*
X17912374Y-505629896D01*
X17982178Y-505461374D01*
X18083517Y-505309709D01*
X18212498Y-505180728D01*
X18364163Y-505079389D01*
X18532685Y-505009585D01*
X18711586Y-504974000D01*
X18893992Y-504974000D01*
X19072893Y-505009585D01*
X19072893Y-505009585D01*
G37*
G36*
X78795375Y-503458802D02*
G01*
X78945200Y-503488604D01*
X79227464Y-503605521D01*
X79481495Y-503775259D01*
X79697531Y-503991295D01*
X79867269Y-504245326D01*
X79984186Y-504527590D01*
X79984186Y-504527591D01*
X80043790Y-504827239D01*
X80043790Y-505132761D01*
X80034136Y-505181294D01*
X79984186Y-505432410D01*
X79867269Y-505714674D01*
X79697531Y-505968705D01*
X79481495Y-506184741D01*
X79227464Y-506354479D01*
X78945200Y-506471396D01*
X78850213Y-506490290D01*
X78645551Y-506531000D01*
X78340029Y-506531000D01*
X78135367Y-506490290D01*
X78040380Y-506471396D01*
X77758116Y-506354479D01*
X77504085Y-506184741D01*
X77288049Y-505968705D01*
X77118311Y-505714674D01*
X77001394Y-505432410D01*
X76951444Y-505181294D01*
X76941790Y-505132761D01*
X76941790Y-504827239D01*
X77001394Y-504527591D01*
X77001394Y-504527590D01*
X77118311Y-504245326D01*
X77288049Y-503991295D01*
X77504085Y-503775259D01*
X77758116Y-503605521D01*
X78040380Y-503488604D01*
X78190205Y-503458802D01*
X78340029Y-503429000D01*
X78645551Y-503429000D01*
X78795375Y-503458802D01*
X78795375Y-503458802D01*
G37*
G36*
X57172893Y-504009585D02*
G01*
X57341415Y-504079389D01*
X57493080Y-504180728D01*
X57622061Y-504309709D01*
X57723400Y-504461374D01*
X57793204Y-504629896D01*
X57828789Y-504808797D01*
X57828789Y-504991203D01*
X57793204Y-505170104D01*
X57723400Y-505338626D01*
X57622061Y-505490291D01*
X57493080Y-505619272D01*
X57341415Y-505720611D01*
X57172893Y-505790415D01*
X56993992Y-505826000D01*
X56811586Y-505826000D01*
X56632685Y-505790415D01*
X56464163Y-505720611D01*
X56312498Y-505619272D01*
X56183517Y-505490291D01*
X56082178Y-505338626D01*
X56012374Y-505170104D01*
X55976789Y-504991203D01*
X55976789Y-504808797D01*
X56012374Y-504629896D01*
X56082178Y-504461374D01*
X56183517Y-504309709D01*
X56312498Y-504180728D01*
X56464163Y-504079389D01*
X56632685Y-504009585D01*
X56811586Y-503974000D01*
X56993992Y-503974000D01*
X57172893Y-504009585D01*
X57172893Y-504009585D01*
G37*
G36*
X67332893Y-504009585D02*
G01*
X67501415Y-504079389D01*
X67653080Y-504180728D01*
X67782061Y-504309709D01*
X67883400Y-504461374D01*
X67953204Y-504629896D01*
X67988789Y-504808797D01*
X67988789Y-504991203D01*
X67953204Y-505170104D01*
X67883400Y-505338626D01*
X67782061Y-505490291D01*
X67653080Y-505619272D01*
X67501415Y-505720611D01*
X67332893Y-505790415D01*
X67153992Y-505826000D01*
X66971586Y-505826000D01*
X66792685Y-505790415D01*
X66624163Y-505720611D01*
X66472498Y-505619272D01*
X66343517Y-505490291D01*
X66242178Y-505338626D01*
X66172374Y-505170104D01*
X66136789Y-504991203D01*
X66136789Y-504808797D01*
X66172374Y-504629896D01*
X66242178Y-504461374D01*
X66343517Y-504309709D01*
X66472498Y-504180728D01*
X66624163Y-504079389D01*
X66792685Y-504009585D01*
X66971586Y-503974000D01*
X67153992Y-503974000D01*
X67332893Y-504009585D01*
X67332893Y-504009585D01*
G37*
G36*
X126486537Y-503783823D02*
G01*
X126552722Y-503790342D01*
X126722561Y-503841862D01*
X126879086Y-503925527D01*
X126886214Y-503931377D01*
X127016281Y-504038119D01*
X127099543Y-504139576D01*
X127128873Y-504175314D01*
X127212538Y-504331839D01*
X127264058Y-504501678D01*
X127281454Y-504678305D01*
X127264058Y-504854932D01*
X127212538Y-505024771D01*
X127128873Y-505181296D01*
X127099543Y-505217034D01*
X127016281Y-505318491D01*
X126914824Y-505401753D01*
X126879086Y-505431083D01*
X126879084Y-505431084D01*
X126768317Y-505490291D01*
X126722561Y-505514748D01*
X126552722Y-505566268D01*
X126486538Y-505572786D01*
X126420355Y-505579305D01*
X126331835Y-505579305D01*
X126265652Y-505572786D01*
X126199468Y-505566268D01*
X126029629Y-505514748D01*
X125983874Y-505490291D01*
X125873106Y-505431084D01*
X125873104Y-505431083D01*
X125837366Y-505401753D01*
X125735909Y-505318491D01*
X125652647Y-505217034D01*
X125623317Y-505181296D01*
X125539652Y-505024771D01*
X125488132Y-504854932D01*
X125470736Y-504678305D01*
X125488132Y-504501678D01*
X125539652Y-504331839D01*
X125623317Y-504175314D01*
X125652647Y-504139576D01*
X125735909Y-504038119D01*
X125865976Y-503931377D01*
X125873104Y-503925527D01*
X126029629Y-503841862D01*
X126199468Y-503790342D01*
X126265653Y-503783823D01*
X126331835Y-503777305D01*
X126420355Y-503777305D01*
X126486537Y-503783823D01*
X126486537Y-503783823D01*
G37*
G36*
X85145375Y-500918802D02*
G01*
X85295200Y-500948604D01*
X85577464Y-501065521D01*
X85831495Y-501235259D01*
X86047531Y-501451295D01*
X86217269Y-501705326D01*
X86334186Y-501987590D01*
X86393790Y-502287240D01*
X86393790Y-502592760D01*
X86334186Y-502892410D01*
X86217269Y-503174674D01*
X86047531Y-503428705D01*
X85831495Y-503644741D01*
X85577464Y-503814479D01*
X85295200Y-503931396D01*
X85145375Y-503961198D01*
X84995551Y-503991000D01*
X84690029Y-503991000D01*
X84540205Y-503961198D01*
X84390380Y-503931396D01*
X84108116Y-503814479D01*
X83854085Y-503644741D01*
X83638049Y-503428705D01*
X83468311Y-503174674D01*
X83351394Y-502892410D01*
X83291790Y-502592760D01*
X83291790Y-502287240D01*
X83351394Y-501987590D01*
X83468311Y-501705326D01*
X83638049Y-501451295D01*
X83854085Y-501235259D01*
X84108116Y-501065521D01*
X84390380Y-500948604D01*
X84540205Y-500918802D01*
X84690029Y-500889000D01*
X84995551Y-500889000D01*
X85145375Y-500918802D01*
X85145375Y-500918802D01*
G37*
G36*
X126486538Y-501243824D02*
G01*
X126552722Y-501250342D01*
X126722561Y-501301862D01*
X126879086Y-501385527D01*
X126914824Y-501414857D01*
X127016281Y-501498119D01*
X127099543Y-501599576D01*
X127128873Y-501635314D01*
X127212538Y-501791839D01*
X127264058Y-501961678D01*
X127281454Y-502138305D01*
X127264058Y-502314932D01*
X127212538Y-502484771D01*
X127128873Y-502641296D01*
X127099543Y-502677034D01*
X127016281Y-502778491D01*
X126922931Y-502855100D01*
X126879086Y-502891083D01*
X126722561Y-502974748D01*
X126552722Y-503026268D01*
X126486537Y-503032787D01*
X126420355Y-503039305D01*
X126331835Y-503039305D01*
X126265653Y-503032787D01*
X126199468Y-503026268D01*
X126029629Y-502974748D01*
X125873104Y-502891083D01*
X125829259Y-502855100D01*
X125735909Y-502778491D01*
X125652647Y-502677034D01*
X125623317Y-502641296D01*
X125539652Y-502484771D01*
X125488132Y-502314932D01*
X125470736Y-502138305D01*
X125488132Y-501961678D01*
X125539652Y-501791839D01*
X125623317Y-501635314D01*
X125652647Y-501599576D01*
X125735909Y-501498119D01*
X125837366Y-501414857D01*
X125873104Y-501385527D01*
X126029629Y-501301862D01*
X126199468Y-501250342D01*
X126265652Y-501243824D01*
X126331835Y-501237305D01*
X126420355Y-501237305D01*
X126486538Y-501243824D01*
X126486538Y-501243824D01*
G37*
G36*
X81629264Y-497933684D02*
G01*
X81847264Y-498023983D01*
X82001413Y-498087833D01*
X82336338Y-498311623D01*
X82621167Y-498596452D01*
X82844957Y-498931377D01*
X82877352Y-499009586D01*
X82999106Y-499303526D01*
X83077690Y-499698594D01*
X83077690Y-500101406D01*
X82999106Y-500496474D01*
X82948241Y-500619272D01*
X82844957Y-500868623D01*
X82621167Y-501203548D01*
X82336338Y-501488377D01*
X82001413Y-501712167D01*
X81847264Y-501776017D01*
X81629264Y-501866316D01*
X81234196Y-501944900D01*
X80831384Y-501944900D01*
X80436316Y-501866316D01*
X80218316Y-501776017D01*
X80064167Y-501712167D01*
X79729242Y-501488377D01*
X79444413Y-501203548D01*
X79220623Y-500868623D01*
X79117339Y-500619272D01*
X79066474Y-500496474D01*
X78987890Y-500101406D01*
X78987890Y-499698594D01*
X79066474Y-499303526D01*
X79188228Y-499009586D01*
X79220623Y-498931377D01*
X79444413Y-498596452D01*
X79729242Y-498311623D01*
X80064167Y-498087833D01*
X80218316Y-498023983D01*
X80436316Y-497933684D01*
X80831384Y-497855100D01*
X81234196Y-497855100D01*
X81629264Y-497933684D01*
X81629264Y-497933684D01*
G37*
G36*
X76222894Y-499009585D02*
G01*
X76391416Y-499079389D01*
X76543081Y-499180728D01*
X76672062Y-499309709D01*
X76773401Y-499461374D01*
X76843205Y-499629896D01*
X76878790Y-499808797D01*
X76878790Y-499991203D01*
X76843205Y-500170104D01*
X76773401Y-500338626D01*
X76672062Y-500490291D01*
X76543081Y-500619272D01*
X76391416Y-500720611D01*
X76222894Y-500790415D01*
X76043993Y-500826000D01*
X75861587Y-500826000D01*
X75682686Y-500790415D01*
X75514164Y-500720611D01*
X75362499Y-500619272D01*
X75233518Y-500490291D01*
X75132179Y-500338626D01*
X75062375Y-500170104D01*
X75026790Y-499991203D01*
X75026790Y-499808797D01*
X75062375Y-499629896D01*
X75132179Y-499461374D01*
X75233518Y-499309709D01*
X75362499Y-499180728D01*
X75514164Y-499079389D01*
X75682686Y-499009585D01*
X75861587Y-498974000D01*
X76043993Y-498974000D01*
X76222894Y-499009585D01*
X76222894Y-499009585D01*
G37*
G36*
X86382894Y-499009585D02*
G01*
X86551416Y-499079389D01*
X86703081Y-499180728D01*
X86832062Y-499309709D01*
X86933401Y-499461374D01*
X87003205Y-499629896D01*
X87038790Y-499808797D01*
X87038790Y-499991203D01*
X87003205Y-500170104D01*
X86933401Y-500338626D01*
X86832062Y-500490291D01*
X86703081Y-500619272D01*
X86551416Y-500720611D01*
X86382894Y-500790415D01*
X86203993Y-500826000D01*
X86021587Y-500826000D01*
X85842686Y-500790415D01*
X85674164Y-500720611D01*
X85522499Y-500619272D01*
X85393518Y-500490291D01*
X85292179Y-500338626D01*
X85222375Y-500170104D01*
X85186790Y-499991203D01*
X85186790Y-499808797D01*
X85222375Y-499629896D01*
X85292179Y-499461374D01*
X85393518Y-499309709D01*
X85522499Y-499180728D01*
X85674164Y-499079389D01*
X85842686Y-499009585D01*
X86021587Y-498974000D01*
X86203993Y-498974000D01*
X86382894Y-499009585D01*
X86382894Y-499009585D01*
G37*
G36*
X126486537Y-498703823D02*
G01*
X126552722Y-498710342D01*
X126722561Y-498761862D01*
X126879086Y-498845527D01*
X126914824Y-498874857D01*
X127016281Y-498958119D01*
X127099543Y-499059576D01*
X127128873Y-499095314D01*
X127212538Y-499251839D01*
X127264058Y-499421678D01*
X127281454Y-499598305D01*
X127264058Y-499774932D01*
X127212538Y-499944771D01*
X127128873Y-500101296D01*
X127099543Y-500137034D01*
X127016281Y-500238491D01*
X126914824Y-500321753D01*
X126879086Y-500351083D01*
X126722561Y-500434748D01*
X126552722Y-500486268D01*
X126486537Y-500492787D01*
X126420355Y-500499305D01*
X126331835Y-500499305D01*
X126265653Y-500492787D01*
X126199468Y-500486268D01*
X126029629Y-500434748D01*
X125873104Y-500351083D01*
X125837366Y-500321753D01*
X125735909Y-500238491D01*
X125652647Y-500137034D01*
X125623317Y-500101296D01*
X125539652Y-499944771D01*
X125488132Y-499774932D01*
X125470736Y-499598305D01*
X125488132Y-499421678D01*
X125539652Y-499251839D01*
X125623317Y-499095314D01*
X125652647Y-499059576D01*
X125735909Y-498958119D01*
X125837366Y-498874857D01*
X125873104Y-498845527D01*
X126029629Y-498761862D01*
X126199468Y-498710342D01*
X126265653Y-498703823D01*
X126331835Y-498697305D01*
X126420355Y-498697305D01*
X126486537Y-498703823D01*
X126486537Y-498703823D01*
G37*
G36*
X95126733Y-497421060D02*
G01*
X95192918Y-497427579D01*
X95362757Y-497479099D01*
X95519282Y-497562764D01*
X95555020Y-497592094D01*
X95656477Y-497675356D01*
X95739739Y-497776813D01*
X95769069Y-497812551D01*
X95852734Y-497969076D01*
X95904254Y-498138915D01*
X95921650Y-498315542D01*
X95904254Y-498492169D01*
X95852734Y-498662008D01*
X95769069Y-498818533D01*
X95746916Y-498845526D01*
X95656477Y-498955728D01*
X95555020Y-499038990D01*
X95519282Y-499068320D01*
X95362757Y-499151985D01*
X95192918Y-499203505D01*
X95126734Y-499210023D01*
X95060551Y-499216542D01*
X94972031Y-499216542D01*
X94905848Y-499210023D01*
X94839664Y-499203505D01*
X94669825Y-499151985D01*
X94513300Y-499068320D01*
X94477562Y-499038990D01*
X94376105Y-498955728D01*
X94285666Y-498845526D01*
X94263513Y-498818533D01*
X94179848Y-498662008D01*
X94128328Y-498492169D01*
X94110932Y-498315542D01*
X94128328Y-498138915D01*
X94179848Y-497969076D01*
X94263513Y-497812551D01*
X94292843Y-497776813D01*
X94376105Y-497675356D01*
X94477562Y-497592094D01*
X94513300Y-497562764D01*
X94669825Y-497479099D01*
X94839664Y-497427579D01*
X94905849Y-497421060D01*
X94972031Y-497414542D01*
X95060551Y-497414542D01*
X95126733Y-497421060D01*
X95126733Y-497421060D01*
G37*
G36*
X103537291Y-499216542D02*
G01*
X101735291Y-499216542D01*
X101735291Y-497414542D01*
X103537291Y-497414542D01*
X103537291Y-499216542D01*
X103537291Y-499216542D01*
G37*
G36*
X100206733Y-497421060D02*
G01*
X100272918Y-497427579D01*
X100442757Y-497479099D01*
X100599282Y-497562764D01*
X100635020Y-497592094D01*
X100736477Y-497675356D01*
X100819739Y-497776813D01*
X100849069Y-497812551D01*
X100932734Y-497969076D01*
X100984254Y-498138915D01*
X101001650Y-498315542D01*
X100984254Y-498492169D01*
X100932734Y-498662008D01*
X100849069Y-498818533D01*
X100826916Y-498845526D01*
X100736477Y-498955728D01*
X100635020Y-499038990D01*
X100599282Y-499068320D01*
X100442757Y-499151985D01*
X100272918Y-499203505D01*
X100206734Y-499210023D01*
X100140551Y-499216542D01*
X100052031Y-499216542D01*
X99985848Y-499210023D01*
X99919664Y-499203505D01*
X99749825Y-499151985D01*
X99593300Y-499068320D01*
X99557562Y-499038990D01*
X99456105Y-498955728D01*
X99365666Y-498845526D01*
X99343513Y-498818533D01*
X99259848Y-498662008D01*
X99208328Y-498492169D01*
X99190932Y-498315542D01*
X99208328Y-498138915D01*
X99259848Y-497969076D01*
X99343513Y-497812551D01*
X99372843Y-497776813D01*
X99456105Y-497675356D01*
X99557562Y-497592094D01*
X99593300Y-497562764D01*
X99749825Y-497479099D01*
X99919664Y-497427579D01*
X99985849Y-497421060D01*
X100052031Y-497414542D01*
X100140551Y-497414542D01*
X100206733Y-497421060D01*
X100206733Y-497421060D01*
G37*
G36*
X97666733Y-497421060D02*
G01*
X97732918Y-497427579D01*
X97902757Y-497479099D01*
X98059282Y-497562764D01*
X98095020Y-497592094D01*
X98196477Y-497675356D01*
X98279739Y-497776813D01*
X98309069Y-497812551D01*
X98392734Y-497969076D01*
X98444254Y-498138915D01*
X98461650Y-498315542D01*
X98444254Y-498492169D01*
X98392734Y-498662008D01*
X98309069Y-498818533D01*
X98286916Y-498845526D01*
X98196477Y-498955728D01*
X98095020Y-499038990D01*
X98059282Y-499068320D01*
X97902757Y-499151985D01*
X97732918Y-499203505D01*
X97666734Y-499210023D01*
X97600551Y-499216542D01*
X97512031Y-499216542D01*
X97445848Y-499210023D01*
X97379664Y-499203505D01*
X97209825Y-499151985D01*
X97053300Y-499068320D01*
X97017562Y-499038990D01*
X96916105Y-498955728D01*
X96825666Y-498845526D01*
X96803513Y-498818533D01*
X96719848Y-498662008D01*
X96668328Y-498492169D01*
X96650932Y-498315542D01*
X96668328Y-498138915D01*
X96719848Y-497969076D01*
X96803513Y-497812551D01*
X96832843Y-497776813D01*
X96916105Y-497675356D01*
X97017562Y-497592094D01*
X97053300Y-497562764D01*
X97209825Y-497479099D01*
X97379664Y-497427579D01*
X97445849Y-497421060D01*
X97512031Y-497414542D01*
X97600551Y-497414542D01*
X97666733Y-497421060D01*
X97666733Y-497421060D01*
G37*
M02*
