G04 #@! TF.GenerationSoftware,KiCad,Pcbnew,(5.1.4)-1*
G04 #@! TF.CreationDate,2023-01-09T13:43:39-05:00*
G04 #@! TF.ProjectId,ThumbsUp,5468756d-6273-4557-902e-6b696361645f,rev?*
G04 #@! TF.SameCoordinates,Original*
G04 #@! TF.FileFunction,Soldermask,Bot*
G04 #@! TF.FilePolarity,Negative*
%FSLAX46Y46*%
G04 Gerber Fmt 4.6, Leading zero omitted, Abs format (unit mm)*
G04 Created by KiCad (PCBNEW (5.1.4)-1) date 2023-01-09 13:43:39*
%MOMM*%
%LPD*%
G04 APERTURE LIST*
%ADD10C,0.100000*%
G04 APERTURE END LIST*
D10*
G36*
X116303588Y-599690672D02*
G01*
X116369772Y-599697190D01*
X116539611Y-599748710D01*
X116696136Y-599832375D01*
X116731874Y-599861705D01*
X116833331Y-599944967D01*
X116916593Y-600046424D01*
X116945923Y-600082162D01*
X117029588Y-600238687D01*
X117081108Y-600408526D01*
X117098504Y-600585153D01*
X117081108Y-600761780D01*
X117029588Y-600931619D01*
X116945923Y-601088144D01*
X116916593Y-601123882D01*
X116833331Y-601225339D01*
X116731874Y-601308601D01*
X116696136Y-601337931D01*
X116539611Y-601421596D01*
X116369772Y-601473116D01*
X116303588Y-601479634D01*
X116237405Y-601486153D01*
X116148885Y-601486153D01*
X116082702Y-601479634D01*
X116016518Y-601473116D01*
X115846679Y-601421596D01*
X115690154Y-601337931D01*
X115654416Y-601308601D01*
X115552959Y-601225339D01*
X115469697Y-601123882D01*
X115440367Y-601088144D01*
X115356702Y-600931619D01*
X115305182Y-600761780D01*
X115287786Y-600585153D01*
X115305182Y-600408526D01*
X115356702Y-600238687D01*
X115440367Y-600082162D01*
X115469697Y-600046424D01*
X115552959Y-599944967D01*
X115654416Y-599861705D01*
X115690154Y-599832375D01*
X115846679Y-599748710D01*
X116016518Y-599697190D01*
X116082702Y-599690672D01*
X116148885Y-599684153D01*
X116237405Y-599684153D01*
X116303588Y-599690672D01*
X116303588Y-599690672D01*
G37*
G36*
X113850136Y-599033272D02*
G01*
X113916320Y-599039790D01*
X114086159Y-599091310D01*
X114242684Y-599174975D01*
X114278422Y-599204305D01*
X114379879Y-599287567D01*
X114463141Y-599389024D01*
X114492471Y-599424762D01*
X114576136Y-599581287D01*
X114627656Y-599751126D01*
X114645052Y-599927753D01*
X114627656Y-600104380D01*
X114576136Y-600274219D01*
X114492471Y-600430744D01*
X114463141Y-600466482D01*
X114379879Y-600567939D01*
X114278422Y-600651201D01*
X114242684Y-600680531D01*
X114086159Y-600764196D01*
X113916320Y-600815716D01*
X113850136Y-600822234D01*
X113783953Y-600828753D01*
X113695433Y-600828753D01*
X113629250Y-600822234D01*
X113563066Y-600815716D01*
X113393227Y-600764196D01*
X113236702Y-600680531D01*
X113200964Y-600651201D01*
X113099507Y-600567939D01*
X113016245Y-600466482D01*
X112986915Y-600430744D01*
X112903250Y-600274219D01*
X112851730Y-600104380D01*
X112834334Y-599927753D01*
X112851730Y-599751126D01*
X112903250Y-599581287D01*
X112986915Y-599424762D01*
X113016245Y-599389024D01*
X113099507Y-599287567D01*
X113200964Y-599204305D01*
X113236702Y-599174975D01*
X113393227Y-599091310D01*
X113563066Y-599039790D01*
X113629250Y-599033272D01*
X113695433Y-599026753D01*
X113783953Y-599026753D01*
X113850136Y-599033272D01*
X113850136Y-599033272D01*
G37*
G36*
X111396685Y-598375871D02*
G01*
X111462869Y-598382389D01*
X111632708Y-598433909D01*
X111789233Y-598517574D01*
X111824971Y-598546904D01*
X111926428Y-598630166D01*
X112009690Y-598731623D01*
X112039020Y-598767361D01*
X112122685Y-598923886D01*
X112174205Y-599093725D01*
X112191601Y-599270352D01*
X112174205Y-599446979D01*
X112122685Y-599616818D01*
X112039020Y-599773343D01*
X112009690Y-599809081D01*
X111926428Y-599910538D01*
X111824971Y-599993800D01*
X111789233Y-600023130D01*
X111632708Y-600106795D01*
X111462869Y-600158315D01*
X111396684Y-600164834D01*
X111330502Y-600171352D01*
X111241982Y-600171352D01*
X111175800Y-600164834D01*
X111109615Y-600158315D01*
X110939776Y-600106795D01*
X110783251Y-600023130D01*
X110747513Y-599993800D01*
X110646056Y-599910538D01*
X110562794Y-599809081D01*
X110533464Y-599773343D01*
X110449799Y-599616818D01*
X110398279Y-599446979D01*
X110380883Y-599270352D01*
X110398279Y-599093725D01*
X110449799Y-598923886D01*
X110533464Y-598767361D01*
X110562794Y-598731623D01*
X110646056Y-598630166D01*
X110747513Y-598546904D01*
X110783251Y-598517574D01*
X110939776Y-598433909D01*
X111109615Y-598382389D01*
X111175799Y-598375871D01*
X111241982Y-598369352D01*
X111330502Y-598369352D01*
X111396685Y-598375871D01*
X111396685Y-598375871D01*
G37*
G36*
X109936285Y-597975849D02*
G01*
X109469893Y-599716447D01*
X107729295Y-599250055D01*
X108195687Y-597509457D01*
X109936285Y-597975849D01*
X109936285Y-597975849D01*
G37*
G36*
X54143231Y-585418470D02*
G01*
X54209416Y-585424989D01*
X54379255Y-585476509D01*
X54535780Y-585560174D01*
X54571518Y-585589504D01*
X54672975Y-585672766D01*
X54756237Y-585774223D01*
X54785567Y-585809961D01*
X54869232Y-585966486D01*
X54920752Y-586136325D01*
X54938148Y-586312952D01*
X54920752Y-586489579D01*
X54869232Y-586659418D01*
X54785567Y-586815943D01*
X54756237Y-586851681D01*
X54672975Y-586953138D01*
X54571518Y-587036400D01*
X54535780Y-587065730D01*
X54379255Y-587149395D01*
X54209416Y-587200915D01*
X54143231Y-587207434D01*
X54077049Y-587213952D01*
X53988529Y-587213952D01*
X53922347Y-587207434D01*
X53856162Y-587200915D01*
X53686323Y-587149395D01*
X53529798Y-587065730D01*
X53494060Y-587036400D01*
X53392603Y-586953138D01*
X53309341Y-586851681D01*
X53280011Y-586815943D01*
X53196346Y-586659418D01*
X53144826Y-586489579D01*
X53127430Y-586312952D01*
X53144826Y-586136325D01*
X53196346Y-585966486D01*
X53280011Y-585809961D01*
X53309341Y-585774223D01*
X53392603Y-585672766D01*
X53494060Y-585589504D01*
X53529798Y-585560174D01*
X53686323Y-585476509D01*
X53856162Y-585424989D01*
X53922347Y-585418470D01*
X53988529Y-585411952D01*
X54077049Y-585411952D01*
X54143231Y-585418470D01*
X54143231Y-585418470D01*
G37*
G36*
X54143232Y-582878471D02*
G01*
X54209416Y-582884989D01*
X54379255Y-582936509D01*
X54535780Y-583020174D01*
X54571518Y-583049504D01*
X54672975Y-583132766D01*
X54756237Y-583234223D01*
X54785567Y-583269961D01*
X54869232Y-583426486D01*
X54920752Y-583596325D01*
X54938148Y-583772952D01*
X54920752Y-583949579D01*
X54869232Y-584119418D01*
X54785567Y-584275943D01*
X54756237Y-584311681D01*
X54672975Y-584413138D01*
X54571518Y-584496400D01*
X54535780Y-584525730D01*
X54379255Y-584609395D01*
X54209416Y-584660915D01*
X54143231Y-584667434D01*
X54077049Y-584673952D01*
X53988529Y-584673952D01*
X53922347Y-584667434D01*
X53856162Y-584660915D01*
X53686323Y-584609395D01*
X53529798Y-584525730D01*
X53494060Y-584496400D01*
X53392603Y-584413138D01*
X53309341Y-584311681D01*
X53280011Y-584275943D01*
X53196346Y-584119418D01*
X53144826Y-583949579D01*
X53127430Y-583772952D01*
X53144826Y-583596325D01*
X53196346Y-583426486D01*
X53280011Y-583269961D01*
X53309341Y-583234223D01*
X53392603Y-583132766D01*
X53494060Y-583049504D01*
X53529798Y-583020174D01*
X53686323Y-582936509D01*
X53856162Y-582884989D01*
X53922346Y-582878471D01*
X53988529Y-582871952D01*
X54077049Y-582871952D01*
X54143232Y-582878471D01*
X54143232Y-582878471D01*
G37*
G36*
X54143231Y-580338470D02*
G01*
X54209416Y-580344989D01*
X54379255Y-580396509D01*
X54535780Y-580480174D01*
X54571518Y-580509504D01*
X54672975Y-580592766D01*
X54756237Y-580694223D01*
X54785567Y-580729961D01*
X54869232Y-580886486D01*
X54920752Y-581056325D01*
X54938148Y-581232952D01*
X54920752Y-581409579D01*
X54869232Y-581579418D01*
X54785567Y-581735943D01*
X54756237Y-581771681D01*
X54672975Y-581873138D01*
X54571518Y-581956400D01*
X54535780Y-581985730D01*
X54379255Y-582069395D01*
X54209416Y-582120915D01*
X54143232Y-582127433D01*
X54077049Y-582133952D01*
X53988529Y-582133952D01*
X53922346Y-582127433D01*
X53856162Y-582120915D01*
X53686323Y-582069395D01*
X53529798Y-581985730D01*
X53494060Y-581956400D01*
X53392603Y-581873138D01*
X53309341Y-581771681D01*
X53280011Y-581735943D01*
X53196346Y-581579418D01*
X53144826Y-581409579D01*
X53127430Y-581232952D01*
X53144826Y-581056325D01*
X53196346Y-580886486D01*
X53280011Y-580729961D01*
X53309341Y-580694223D01*
X53392603Y-580592766D01*
X53494060Y-580509504D01*
X53529798Y-580480174D01*
X53686323Y-580396509D01*
X53856162Y-580344989D01*
X53922347Y-580338470D01*
X53988529Y-580331952D01*
X54077049Y-580331952D01*
X54143231Y-580338470D01*
X54143231Y-580338470D01*
G37*
G36*
X54933789Y-579593952D02*
G01*
X53131789Y-579593952D01*
X53131789Y-577791952D01*
X54933789Y-577791952D01*
X54933789Y-579593952D01*
X54933789Y-579593952D01*
G37*
G36*
X127341599Y-576795893D02*
G01*
X125539599Y-576795893D01*
X125539599Y-574993893D01*
X127341599Y-574993893D01*
X127341599Y-576795893D01*
X127341599Y-576795893D01*
G37*
G36*
X126551042Y-572460412D02*
G01*
X126617226Y-572466930D01*
X126787065Y-572518450D01*
X126943590Y-572602115D01*
X126979328Y-572631445D01*
X127080785Y-572714707D01*
X127164047Y-572816164D01*
X127193377Y-572851902D01*
X127277042Y-573008427D01*
X127328562Y-573178266D01*
X127345958Y-573354893D01*
X127328562Y-573531520D01*
X127277042Y-573701359D01*
X127193377Y-573857884D01*
X127164047Y-573893622D01*
X127080785Y-573995079D01*
X126979328Y-574078341D01*
X126943590Y-574107671D01*
X126787065Y-574191336D01*
X126617226Y-574242856D01*
X126551041Y-574249375D01*
X126484859Y-574255893D01*
X126396339Y-574255893D01*
X126330157Y-574249375D01*
X126263972Y-574242856D01*
X126094133Y-574191336D01*
X125937608Y-574107671D01*
X125901870Y-574078341D01*
X125800413Y-573995079D01*
X125717151Y-573893622D01*
X125687821Y-573857884D01*
X125604156Y-573701359D01*
X125552636Y-573531520D01*
X125535240Y-573354893D01*
X125552636Y-573178266D01*
X125604156Y-573008427D01*
X125687821Y-572851902D01*
X125717151Y-572816164D01*
X125800413Y-572714707D01*
X125901870Y-572631445D01*
X125937608Y-572602115D01*
X126094133Y-572518450D01*
X126263972Y-572466930D01*
X126330156Y-572460412D01*
X126396339Y-572453893D01*
X126484859Y-572453893D01*
X126551042Y-572460412D01*
X126551042Y-572460412D01*
G37*
G36*
X126551042Y-569920412D02*
G01*
X126617226Y-569926930D01*
X126787065Y-569978450D01*
X126943590Y-570062115D01*
X126979328Y-570091445D01*
X127080785Y-570174707D01*
X127164047Y-570276164D01*
X127193377Y-570311902D01*
X127277042Y-570468427D01*
X127328562Y-570638266D01*
X127345958Y-570814893D01*
X127328562Y-570991520D01*
X127277042Y-571161359D01*
X127193377Y-571317884D01*
X127164047Y-571353622D01*
X127080785Y-571455079D01*
X126979328Y-571538341D01*
X126943590Y-571567671D01*
X126787065Y-571651336D01*
X126617226Y-571702856D01*
X126551041Y-571709375D01*
X126484859Y-571715893D01*
X126396339Y-571715893D01*
X126330157Y-571709375D01*
X126263972Y-571702856D01*
X126094133Y-571651336D01*
X125937608Y-571567671D01*
X125901870Y-571538341D01*
X125800413Y-571455079D01*
X125717151Y-571353622D01*
X125687821Y-571317884D01*
X125604156Y-571161359D01*
X125552636Y-570991520D01*
X125535240Y-570814893D01*
X125552636Y-570638266D01*
X125604156Y-570468427D01*
X125687821Y-570311902D01*
X125717151Y-570276164D01*
X125800413Y-570174707D01*
X125901870Y-570091445D01*
X125937608Y-570062115D01*
X126094133Y-569978450D01*
X126263972Y-569926930D01*
X126330156Y-569920412D01*
X126396339Y-569913893D01*
X126484859Y-569913893D01*
X126551042Y-569920412D01*
X126551042Y-569920412D01*
G37*
G36*
X126551041Y-567380411D02*
G01*
X126617226Y-567386930D01*
X126787065Y-567438450D01*
X126943590Y-567522115D01*
X126979328Y-567551445D01*
X127080785Y-567634707D01*
X127164047Y-567736164D01*
X127193377Y-567771902D01*
X127277042Y-567928427D01*
X127328562Y-568098266D01*
X127345958Y-568274893D01*
X127328562Y-568451520D01*
X127277042Y-568621359D01*
X127193377Y-568777884D01*
X127164047Y-568813622D01*
X127080785Y-568915079D01*
X126979328Y-568998341D01*
X126943590Y-569027671D01*
X126787065Y-569111336D01*
X126617226Y-569162856D01*
X126551042Y-569169374D01*
X126484859Y-569175893D01*
X126396339Y-569175893D01*
X126330156Y-569169374D01*
X126263972Y-569162856D01*
X126094133Y-569111336D01*
X125937608Y-569027671D01*
X125901870Y-568998341D01*
X125800413Y-568915079D01*
X125717151Y-568813622D01*
X125687821Y-568777884D01*
X125604156Y-568621359D01*
X125552636Y-568451520D01*
X125535240Y-568274893D01*
X125552636Y-568098266D01*
X125604156Y-567928427D01*
X125687821Y-567771902D01*
X125717151Y-567736164D01*
X125800413Y-567634707D01*
X125901870Y-567551445D01*
X125937608Y-567522115D01*
X126094133Y-567438450D01*
X126263972Y-567386930D01*
X126330157Y-567380411D01*
X126396339Y-567373893D01*
X126484859Y-567373893D01*
X126551041Y-567380411D01*
X126551041Y-567380411D01*
G37*
G36*
X44547765Y-563815299D02*
G01*
X44869065Y-563948386D01*
X44869067Y-563948387D01*
X45158229Y-564141599D01*
X45404142Y-564387512D01*
X45553507Y-564611052D01*
X45597355Y-564676676D01*
X45730442Y-564997976D01*
X45798289Y-565339064D01*
X45798289Y-565686840D01*
X45730442Y-566027928D01*
X45653573Y-566213506D01*
X45597354Y-566349230D01*
X45404142Y-566638392D01*
X45158229Y-566884305D01*
X44869067Y-567077517D01*
X44869066Y-567077518D01*
X44869065Y-567077518D01*
X44547765Y-567210605D01*
X44206677Y-567278452D01*
X43858901Y-567278452D01*
X43517813Y-567210605D01*
X43196513Y-567077518D01*
X43196512Y-567077518D01*
X43196511Y-567077517D01*
X42907349Y-566884305D01*
X42661436Y-566638392D01*
X42468224Y-566349230D01*
X42412005Y-566213506D01*
X42335136Y-566027928D01*
X42267289Y-565686840D01*
X42267289Y-565339064D01*
X42335136Y-564997976D01*
X42468223Y-564676676D01*
X42512072Y-564611052D01*
X42661436Y-564387512D01*
X42907349Y-564141599D01*
X43196511Y-563948387D01*
X43196513Y-563948386D01*
X43517813Y-563815299D01*
X43858901Y-563747452D01*
X44206677Y-563747452D01*
X44547765Y-563815299D01*
X44547765Y-563815299D01*
G37*
G36*
X49708741Y-564628382D02*
G01*
X49795864Y-564645711D01*
X49905287Y-564691036D01*
X49960000Y-564713699D01*
X50106722Y-564811735D01*
X50107717Y-564812400D01*
X50233341Y-564938024D01*
X50233343Y-564938027D01*
X50332042Y-565085741D01*
X50332042Y-565085742D01*
X50400030Y-565249877D01*
X50434689Y-565424123D01*
X50434689Y-565601781D01*
X50400030Y-565776027D01*
X50354705Y-565885450D01*
X50332042Y-565940163D01*
X50273399Y-566027929D01*
X50233341Y-566087880D01*
X50107717Y-566213504D01*
X50107714Y-566213506D01*
X49960000Y-566312205D01*
X49905287Y-566334868D01*
X49795864Y-566380193D01*
X49708741Y-566397523D01*
X49621620Y-566414852D01*
X49443958Y-566414852D01*
X49356837Y-566397523D01*
X49269714Y-566380193D01*
X49160291Y-566334868D01*
X49105578Y-566312205D01*
X48957864Y-566213506D01*
X48957861Y-566213504D01*
X48832237Y-566087880D01*
X48792179Y-566027929D01*
X48733536Y-565940163D01*
X48710873Y-565885450D01*
X48665548Y-565776027D01*
X48630889Y-565601781D01*
X48630889Y-565424123D01*
X48665548Y-565249877D01*
X48733536Y-565085742D01*
X48733536Y-565085741D01*
X48832235Y-564938027D01*
X48832237Y-564938024D01*
X48957861Y-564812400D01*
X48958856Y-564811735D01*
X49105578Y-564713699D01*
X49160291Y-564691036D01*
X49269714Y-564645711D01*
X49356837Y-564628382D01*
X49443958Y-564611052D01*
X49621620Y-564611052D01*
X49708741Y-564628382D01*
X49708741Y-564628382D01*
G37*
G36*
X38708741Y-564628382D02*
G01*
X38795864Y-564645711D01*
X38905287Y-564691036D01*
X38960000Y-564713699D01*
X39106722Y-564811735D01*
X39107717Y-564812400D01*
X39233341Y-564938024D01*
X39233343Y-564938027D01*
X39332042Y-565085741D01*
X39332042Y-565085742D01*
X39400030Y-565249877D01*
X39434689Y-565424123D01*
X39434689Y-565601781D01*
X39400030Y-565776027D01*
X39354705Y-565885450D01*
X39332042Y-565940163D01*
X39273399Y-566027929D01*
X39233341Y-566087880D01*
X39107717Y-566213504D01*
X39107714Y-566213506D01*
X38960000Y-566312205D01*
X38905287Y-566334868D01*
X38795864Y-566380193D01*
X38708741Y-566397523D01*
X38621620Y-566414852D01*
X38443958Y-566414852D01*
X38356837Y-566397523D01*
X38269714Y-566380193D01*
X38160291Y-566334868D01*
X38105578Y-566312205D01*
X37957864Y-566213506D01*
X37957861Y-566213504D01*
X37832237Y-566087880D01*
X37792179Y-566027929D01*
X37733536Y-565940163D01*
X37710873Y-565885450D01*
X37665548Y-565776027D01*
X37630889Y-565601781D01*
X37630889Y-565424123D01*
X37665548Y-565249877D01*
X37733536Y-565085742D01*
X37733536Y-565085741D01*
X37832235Y-564938027D01*
X37832237Y-564938024D01*
X37957861Y-564812400D01*
X37958856Y-564811735D01*
X38105578Y-564713699D01*
X38160291Y-564691036D01*
X38269714Y-564645711D01*
X38356837Y-564628382D01*
X38443958Y-564611052D01*
X38621620Y-564611052D01*
X38708741Y-564628382D01*
X38708741Y-564628382D01*
G37*
G36*
X49335374Y-560241754D02*
G01*
X49485199Y-560271556D01*
X49767463Y-560388473D01*
X50021494Y-560558211D01*
X50237530Y-560774247D01*
X50407268Y-561028278D01*
X50524185Y-561310542D01*
X50546777Y-561424121D01*
X50583789Y-561610191D01*
X50583789Y-561915713D01*
X50561468Y-562027928D01*
X50524185Y-562215362D01*
X50407268Y-562497626D01*
X50237530Y-562751657D01*
X50021494Y-562967693D01*
X49767463Y-563137431D01*
X49485199Y-563254348D01*
X49364020Y-563278452D01*
X49185550Y-563313952D01*
X48880028Y-563313952D01*
X48701558Y-563278452D01*
X48580379Y-563254348D01*
X48298115Y-563137431D01*
X48044084Y-562967693D01*
X47828048Y-562751657D01*
X47658310Y-562497626D01*
X47541393Y-562215362D01*
X47504110Y-562027928D01*
X47481789Y-561915713D01*
X47481789Y-561610191D01*
X47518801Y-561424121D01*
X47541393Y-561310542D01*
X47658310Y-561028278D01*
X47828048Y-560774247D01*
X48044084Y-560558211D01*
X48298115Y-560388473D01*
X48580379Y-560271556D01*
X48730204Y-560241754D01*
X48880028Y-560211952D01*
X49185550Y-560211952D01*
X49335374Y-560241754D01*
X49335374Y-560241754D01*
G37*
G36*
X26047765Y-559815299D02*
G01*
X26344056Y-559938027D01*
X26369067Y-559948387D01*
X26658229Y-560141599D01*
X26904142Y-560387512D01*
X27053507Y-560611052D01*
X27097355Y-560676676D01*
X27230442Y-560997976D01*
X27298289Y-561339064D01*
X27298289Y-561686840D01*
X27230442Y-562027928D01*
X27152804Y-562215362D01*
X27097354Y-562349230D01*
X26904142Y-562638392D01*
X26658229Y-562884305D01*
X26369067Y-563077517D01*
X26369066Y-563077518D01*
X26369065Y-563077518D01*
X26047765Y-563210605D01*
X25706677Y-563278452D01*
X25358901Y-563278452D01*
X25017813Y-563210605D01*
X24696513Y-563077518D01*
X24696512Y-563077518D01*
X24696511Y-563077517D01*
X24407349Y-562884305D01*
X24161436Y-562638392D01*
X23968224Y-562349230D01*
X23912774Y-562215362D01*
X23835136Y-562027928D01*
X23767289Y-561686840D01*
X23767289Y-561339064D01*
X23835136Y-560997976D01*
X23968223Y-560676676D01*
X24012072Y-560611052D01*
X24161436Y-560387512D01*
X24407349Y-560141599D01*
X24696511Y-559948387D01*
X24721522Y-559938027D01*
X25017813Y-559815299D01*
X25358901Y-559747452D01*
X25706677Y-559747452D01*
X26047765Y-559815299D01*
X26047765Y-559815299D01*
G37*
G36*
X53658789Y-563113952D02*
G01*
X50956789Y-563113952D01*
X50956789Y-560411952D01*
X53658789Y-560411952D01*
X53658789Y-563113952D01*
X53658789Y-563113952D01*
G37*
G36*
X20208741Y-560628381D02*
G01*
X20295864Y-560645711D01*
X20405287Y-560691036D01*
X20460000Y-560713699D01*
X20606722Y-560811735D01*
X20607717Y-560812400D01*
X20733341Y-560938024D01*
X20733343Y-560938027D01*
X20832042Y-561085741D01*
X20832928Y-561087880D01*
X20900030Y-561249877D01*
X20917359Y-561337000D01*
X20934689Y-561424121D01*
X20934689Y-561601783D01*
X20933016Y-561610192D01*
X20900030Y-561776027D01*
X20855179Y-561884305D01*
X20832042Y-561940163D01*
X20773399Y-562027929D01*
X20733341Y-562087880D01*
X20607717Y-562213504D01*
X20607714Y-562213506D01*
X20460000Y-562312205D01*
X20405287Y-562334868D01*
X20295864Y-562380193D01*
X20208741Y-562397523D01*
X20121620Y-562414852D01*
X19943958Y-562414852D01*
X19856837Y-562397523D01*
X19769714Y-562380193D01*
X19660291Y-562334868D01*
X19605578Y-562312205D01*
X19457864Y-562213506D01*
X19457861Y-562213504D01*
X19332237Y-562087880D01*
X19292179Y-562027929D01*
X19233536Y-561940163D01*
X19210399Y-561884305D01*
X19165548Y-561776027D01*
X19132562Y-561610192D01*
X19130889Y-561601783D01*
X19130889Y-561424121D01*
X19148219Y-561337000D01*
X19165548Y-561249877D01*
X19232650Y-561087880D01*
X19233536Y-561085741D01*
X19332235Y-560938027D01*
X19332237Y-560938024D01*
X19457861Y-560812400D01*
X19458856Y-560811735D01*
X19605578Y-560713699D01*
X19660291Y-560691036D01*
X19769714Y-560645711D01*
X19856837Y-560628381D01*
X19943958Y-560611052D01*
X20121620Y-560611052D01*
X20208741Y-560628381D01*
X20208741Y-560628381D01*
G37*
G36*
X31208741Y-560628381D02*
G01*
X31295864Y-560645711D01*
X31405287Y-560691036D01*
X31460000Y-560713699D01*
X31606722Y-560811735D01*
X31607717Y-560812400D01*
X31733341Y-560938024D01*
X31733343Y-560938027D01*
X31832042Y-561085741D01*
X31832928Y-561087880D01*
X31900030Y-561249877D01*
X31917359Y-561337000D01*
X31934689Y-561424121D01*
X31934689Y-561601783D01*
X31933016Y-561610192D01*
X31900030Y-561776027D01*
X31855179Y-561884305D01*
X31832042Y-561940163D01*
X31773399Y-562027929D01*
X31733341Y-562087880D01*
X31607717Y-562213504D01*
X31607714Y-562213506D01*
X31460000Y-562312205D01*
X31405287Y-562334868D01*
X31295864Y-562380193D01*
X31208741Y-562397523D01*
X31121620Y-562414852D01*
X30943958Y-562414852D01*
X30856837Y-562397523D01*
X30769714Y-562380193D01*
X30660291Y-562334868D01*
X30605578Y-562312205D01*
X30457864Y-562213506D01*
X30457861Y-562213504D01*
X30332237Y-562087880D01*
X30292179Y-562027929D01*
X30233536Y-561940163D01*
X30210399Y-561884305D01*
X30165548Y-561776027D01*
X30132562Y-561610192D01*
X30130889Y-561601783D01*
X30130889Y-561424121D01*
X30148219Y-561337000D01*
X30165548Y-561249877D01*
X30232650Y-561087880D01*
X30233536Y-561085741D01*
X30332235Y-560938027D01*
X30332237Y-560938024D01*
X30457861Y-560812400D01*
X30458856Y-560811735D01*
X30605578Y-560713699D01*
X30660291Y-560691036D01*
X30769714Y-560645711D01*
X30856837Y-560628381D01*
X30943958Y-560611052D01*
X31121620Y-560611052D01*
X31208741Y-560628381D01*
X31208741Y-560628381D01*
G37*
G36*
X63047766Y-558815299D02*
G01*
X63369066Y-558948386D01*
X63369068Y-558948387D01*
X63658230Y-559141599D01*
X63904143Y-559387512D01*
X64053508Y-559611052D01*
X64097356Y-559676676D01*
X64230443Y-559997976D01*
X64298290Y-560339064D01*
X64298290Y-560686840D01*
X64230443Y-561027928D01*
X64097356Y-561349228D01*
X64097355Y-561349230D01*
X63904143Y-561638392D01*
X63658230Y-561884305D01*
X63369068Y-562077517D01*
X63369067Y-562077518D01*
X63369066Y-562077518D01*
X63047766Y-562210605D01*
X62706678Y-562278452D01*
X62358902Y-562278452D01*
X62017814Y-562210605D01*
X61696514Y-562077518D01*
X61696513Y-562077518D01*
X61696512Y-562077517D01*
X61407350Y-561884305D01*
X61161437Y-561638392D01*
X60968225Y-561349230D01*
X60968224Y-561349228D01*
X60835137Y-561027928D01*
X60767290Y-560686840D01*
X60767290Y-560339064D01*
X60835137Y-559997976D01*
X60968224Y-559676676D01*
X61012073Y-559611052D01*
X61161437Y-559387512D01*
X61407350Y-559141599D01*
X61696512Y-558948387D01*
X61696514Y-558948386D01*
X62017814Y-558815299D01*
X62358902Y-558747452D01*
X62706678Y-558747452D01*
X63047766Y-558815299D01*
X63047766Y-558815299D01*
G37*
G36*
X68208742Y-559628382D02*
G01*
X68295865Y-559645711D01*
X68405288Y-559691036D01*
X68460001Y-559713699D01*
X68606723Y-559811735D01*
X68607718Y-559812400D01*
X68733342Y-559938024D01*
X68733344Y-559938027D01*
X68832043Y-560085741D01*
X68832043Y-560085742D01*
X68900031Y-560249877D01*
X68934690Y-560424123D01*
X68934690Y-560601781D01*
X68900031Y-560776027D01*
X68854706Y-560885450D01*
X68832043Y-560940163D01*
X68773165Y-561028280D01*
X68733342Y-561087880D01*
X68607718Y-561213504D01*
X68607715Y-561213506D01*
X68460001Y-561312205D01*
X68405288Y-561334868D01*
X68295865Y-561380193D01*
X68208742Y-561397522D01*
X68121621Y-561414852D01*
X67943959Y-561414852D01*
X67856838Y-561397522D01*
X67769715Y-561380193D01*
X67660292Y-561334868D01*
X67605579Y-561312205D01*
X67457865Y-561213506D01*
X67457862Y-561213504D01*
X67332238Y-561087880D01*
X67292415Y-561028280D01*
X67233537Y-560940163D01*
X67210874Y-560885450D01*
X67165549Y-560776027D01*
X67130890Y-560601781D01*
X67130890Y-560424123D01*
X67165549Y-560249877D01*
X67233537Y-560085742D01*
X67233537Y-560085741D01*
X67332236Y-559938027D01*
X67332238Y-559938024D01*
X67457862Y-559812400D01*
X67458857Y-559811735D01*
X67605579Y-559713699D01*
X67660292Y-559691036D01*
X67769715Y-559645711D01*
X67856838Y-559628382D01*
X67943959Y-559611052D01*
X68121621Y-559611052D01*
X68208742Y-559628382D01*
X68208742Y-559628382D01*
G37*
G36*
X57208742Y-559628382D02*
G01*
X57295865Y-559645711D01*
X57405288Y-559691036D01*
X57460001Y-559713699D01*
X57606723Y-559811735D01*
X57607718Y-559812400D01*
X57733342Y-559938024D01*
X57733344Y-559938027D01*
X57832043Y-560085741D01*
X57832043Y-560085742D01*
X57900031Y-560249877D01*
X57934690Y-560424123D01*
X57934690Y-560601781D01*
X57900031Y-560776027D01*
X57854706Y-560885450D01*
X57832043Y-560940163D01*
X57773165Y-561028280D01*
X57733342Y-561087880D01*
X57607718Y-561213504D01*
X57607715Y-561213506D01*
X57460001Y-561312205D01*
X57405288Y-561334868D01*
X57295865Y-561380193D01*
X57208742Y-561397522D01*
X57121621Y-561414852D01*
X56943959Y-561414852D01*
X56856838Y-561397522D01*
X56769715Y-561380193D01*
X56660292Y-561334868D01*
X56605579Y-561312205D01*
X56457865Y-561213506D01*
X56457862Y-561213504D01*
X56332238Y-561087880D01*
X56292415Y-561028280D01*
X56233537Y-560940163D01*
X56210874Y-560885450D01*
X56165549Y-560776027D01*
X56130890Y-560601781D01*
X56130890Y-560424123D01*
X56165549Y-560249877D01*
X56233537Y-560085742D01*
X56233537Y-560085741D01*
X56332236Y-559938027D01*
X56332238Y-559938024D01*
X56457862Y-559812400D01*
X56458857Y-559811735D01*
X56605579Y-559713699D01*
X56660292Y-559691036D01*
X56769715Y-559645711D01*
X56856838Y-559628382D01*
X56943959Y-559611052D01*
X57121621Y-559611052D01*
X57208742Y-559628382D01*
X57208742Y-559628382D01*
G37*
G36*
X44335374Y-558041754D02*
G01*
X44485199Y-558071556D01*
X44767463Y-558188473D01*
X45021494Y-558358211D01*
X45237530Y-558574247D01*
X45407268Y-558828278D01*
X45524185Y-559110542D01*
X45583789Y-559410192D01*
X45583789Y-559715712D01*
X45524185Y-560015362D01*
X45407268Y-560297626D01*
X45237530Y-560551657D01*
X45021494Y-560767693D01*
X44767463Y-560937431D01*
X44485199Y-561054348D01*
X44335374Y-561084150D01*
X44185550Y-561113952D01*
X43880028Y-561113952D01*
X43730204Y-561084150D01*
X43580379Y-561054348D01*
X43298115Y-560937431D01*
X43044084Y-560767693D01*
X42828048Y-560551657D01*
X42658310Y-560297626D01*
X42541393Y-560015362D01*
X42481789Y-559715712D01*
X42481789Y-559410192D01*
X42541393Y-559110542D01*
X42658310Y-558828278D01*
X42828048Y-558574247D01*
X43044084Y-558358211D01*
X43298115Y-558188473D01*
X43580379Y-558071556D01*
X43730204Y-558041754D01*
X43880028Y-558011952D01*
X44185550Y-558011952D01*
X44335374Y-558041754D01*
X44335374Y-558041754D01*
G37*
G36*
X42108789Y-560913952D02*
G01*
X39406789Y-560913952D01*
X39406789Y-558211952D01*
X42108789Y-558211952D01*
X42108789Y-560913952D01*
X42108789Y-560913952D01*
G37*
G36*
X30835374Y-556241754D02*
G01*
X30985199Y-556271556D01*
X31267463Y-556388473D01*
X31521494Y-556558211D01*
X31737530Y-556774247D01*
X31907268Y-557028278D01*
X32024185Y-557310542D01*
X32083789Y-557610192D01*
X32083789Y-557915712D01*
X32024185Y-558215362D01*
X31907268Y-558497626D01*
X31737530Y-558751657D01*
X31521494Y-558967693D01*
X31267463Y-559137431D01*
X30985199Y-559254348D01*
X30835374Y-559284150D01*
X30685550Y-559313952D01*
X30380028Y-559313952D01*
X30230204Y-559284150D01*
X30080379Y-559254348D01*
X29798115Y-559137431D01*
X29544084Y-558967693D01*
X29328048Y-558751657D01*
X29158310Y-558497626D01*
X29041393Y-558215362D01*
X28981789Y-557915712D01*
X28981789Y-557610192D01*
X29041393Y-557310542D01*
X29158310Y-557028278D01*
X29328048Y-556774247D01*
X29544084Y-556558211D01*
X29798115Y-556388473D01*
X30080379Y-556271556D01*
X30230204Y-556241754D01*
X30380028Y-556211952D01*
X30685550Y-556211952D01*
X30835374Y-556241754D01*
X30835374Y-556241754D01*
G37*
G36*
X35158789Y-559113952D02*
G01*
X32456789Y-559113952D01*
X32456789Y-556411952D01*
X35158789Y-556411952D01*
X35158789Y-559113952D01*
X35158789Y-559113952D01*
G37*
G36*
X67835375Y-555241754D02*
G01*
X67985200Y-555271556D01*
X68267464Y-555388473D01*
X68521495Y-555558211D01*
X68737531Y-555774247D01*
X68907269Y-556028278D01*
X69024186Y-556310542D01*
X69053988Y-556460367D01*
X69072147Y-556551656D01*
X69083790Y-556610192D01*
X69083790Y-556915712D01*
X69024186Y-557215362D01*
X68907269Y-557497626D01*
X68737531Y-557751657D01*
X68521495Y-557967693D01*
X68267464Y-558137431D01*
X67985200Y-558254348D01*
X67835375Y-558284150D01*
X67685551Y-558313952D01*
X67380029Y-558313952D01*
X67230205Y-558284150D01*
X67080380Y-558254348D01*
X66798116Y-558137431D01*
X66544085Y-557967693D01*
X66328049Y-557751657D01*
X66158311Y-557497626D01*
X66041394Y-557215362D01*
X65981790Y-556915712D01*
X65981790Y-556610192D01*
X65993434Y-556551656D01*
X66011592Y-556460367D01*
X66041394Y-556310542D01*
X66158311Y-556028278D01*
X66328049Y-555774247D01*
X66544085Y-555558211D01*
X66798116Y-555388473D01*
X67080380Y-555271556D01*
X67230205Y-555241754D01*
X67380029Y-555211952D01*
X67685551Y-555211952D01*
X67835375Y-555241754D01*
X67835375Y-555241754D01*
G37*
G36*
X72158790Y-558113952D02*
G01*
X69456790Y-558113952D01*
X69456790Y-555411952D01*
X72158790Y-555411952D01*
X72158790Y-558113952D01*
X72158790Y-558113952D01*
G37*
G36*
X81547765Y-553815299D02*
G01*
X81869065Y-553948386D01*
X81869067Y-553948387D01*
X82158229Y-554141599D01*
X82404142Y-554387512D01*
X82553507Y-554611052D01*
X82597355Y-554676676D01*
X82730442Y-554997976D01*
X82798289Y-555339064D01*
X82798289Y-555686840D01*
X82730442Y-556027928D01*
X82653573Y-556213506D01*
X82597354Y-556349230D01*
X82404142Y-556638392D01*
X82158229Y-556884305D01*
X81869067Y-557077517D01*
X81869066Y-557077518D01*
X81869065Y-557077518D01*
X81547765Y-557210605D01*
X81206677Y-557278452D01*
X80858901Y-557278452D01*
X80517813Y-557210605D01*
X80196513Y-557077518D01*
X80196512Y-557077518D01*
X80196511Y-557077517D01*
X79907349Y-556884305D01*
X79661436Y-556638392D01*
X79468224Y-556349230D01*
X79412005Y-556213506D01*
X79335136Y-556027928D01*
X79267289Y-555686840D01*
X79267289Y-555339064D01*
X79335136Y-554997976D01*
X79468223Y-554676676D01*
X79512072Y-554611052D01*
X79661436Y-554387512D01*
X79907349Y-554141599D01*
X80196511Y-553948387D01*
X80196513Y-553948386D01*
X80517813Y-553815299D01*
X80858901Y-553747452D01*
X81206677Y-553747452D01*
X81547765Y-553815299D01*
X81547765Y-553815299D01*
G37*
G36*
X25835374Y-554041754D02*
G01*
X25985199Y-554071556D01*
X26267463Y-554188473D01*
X26521494Y-554358211D01*
X26737530Y-554574247D01*
X26907268Y-554828278D01*
X27024185Y-555110542D01*
X27024185Y-555110543D01*
X27083789Y-555410191D01*
X27083789Y-555715713D01*
X27071792Y-555776025D01*
X27024185Y-556015362D01*
X26907268Y-556297626D01*
X26737530Y-556551657D01*
X26521494Y-556767693D01*
X26267463Y-556937431D01*
X25985199Y-557054348D01*
X25868720Y-557077517D01*
X25685550Y-557113952D01*
X25380028Y-557113952D01*
X25196858Y-557077517D01*
X25080379Y-557054348D01*
X24798115Y-556937431D01*
X24544084Y-556767693D01*
X24328048Y-556551657D01*
X24158310Y-556297626D01*
X24041393Y-556015362D01*
X23993786Y-555776025D01*
X23981789Y-555715713D01*
X23981789Y-555410191D01*
X24041393Y-555110543D01*
X24041393Y-555110542D01*
X24158310Y-554828278D01*
X24328048Y-554574247D01*
X24544084Y-554358211D01*
X24798115Y-554188473D01*
X25080379Y-554071556D01*
X25230204Y-554041754D01*
X25380028Y-554011952D01*
X25685550Y-554011952D01*
X25835374Y-554041754D01*
X25835374Y-554041754D01*
G37*
G36*
X23608789Y-556913952D02*
G01*
X20906789Y-556913952D01*
X20906789Y-554211952D01*
X23608789Y-554211952D01*
X23608789Y-556913952D01*
X23608789Y-556913952D01*
G37*
G36*
X86708741Y-554628381D02*
G01*
X86795864Y-554645711D01*
X86905287Y-554691036D01*
X86960000Y-554713699D01*
X87106722Y-554811735D01*
X87107717Y-554812400D01*
X87233341Y-554938024D01*
X87233343Y-554938027D01*
X87332042Y-555085741D01*
X87332042Y-555085742D01*
X87400030Y-555249877D01*
X87434689Y-555424123D01*
X87434689Y-555601781D01*
X87400030Y-555776027D01*
X87387028Y-555807415D01*
X87332042Y-555940163D01*
X87273164Y-556028280D01*
X87233341Y-556087880D01*
X87107717Y-556213504D01*
X87107714Y-556213506D01*
X86960000Y-556312205D01*
X86905287Y-556334868D01*
X86795864Y-556380193D01*
X86708741Y-556397523D01*
X86621620Y-556414852D01*
X86443958Y-556414852D01*
X86356837Y-556397523D01*
X86269714Y-556380193D01*
X86160291Y-556334868D01*
X86105578Y-556312205D01*
X85957864Y-556213506D01*
X85957861Y-556213504D01*
X85832237Y-556087880D01*
X85792414Y-556028280D01*
X85733536Y-555940163D01*
X85678550Y-555807415D01*
X85665548Y-555776027D01*
X85630889Y-555601781D01*
X85630889Y-555424123D01*
X85665548Y-555249877D01*
X85733536Y-555085742D01*
X85733536Y-555085741D01*
X85832235Y-554938027D01*
X85832237Y-554938024D01*
X85957861Y-554812400D01*
X85958856Y-554811735D01*
X86105578Y-554713699D01*
X86160291Y-554691036D01*
X86269714Y-554645711D01*
X86356837Y-554628381D01*
X86443958Y-554611052D01*
X86621620Y-554611052D01*
X86708741Y-554628381D01*
X86708741Y-554628381D01*
G37*
G36*
X75708741Y-554628381D02*
G01*
X75795864Y-554645711D01*
X75905287Y-554691036D01*
X75960000Y-554713699D01*
X76106722Y-554811735D01*
X76107717Y-554812400D01*
X76233341Y-554938024D01*
X76233343Y-554938027D01*
X76332042Y-555085741D01*
X76332042Y-555085742D01*
X76400030Y-555249877D01*
X76434689Y-555424123D01*
X76434689Y-555601781D01*
X76400030Y-555776027D01*
X76387028Y-555807415D01*
X76332042Y-555940163D01*
X76273164Y-556028280D01*
X76233341Y-556087880D01*
X76107717Y-556213504D01*
X76107714Y-556213506D01*
X75960000Y-556312205D01*
X75905287Y-556334868D01*
X75795864Y-556380193D01*
X75708741Y-556397523D01*
X75621620Y-556414852D01*
X75443958Y-556414852D01*
X75356837Y-556397523D01*
X75269714Y-556380193D01*
X75160291Y-556334868D01*
X75105578Y-556312205D01*
X74957864Y-556213506D01*
X74957861Y-556213504D01*
X74832237Y-556087880D01*
X74792414Y-556028280D01*
X74733536Y-555940163D01*
X74678550Y-555807415D01*
X74665548Y-555776027D01*
X74630889Y-555601781D01*
X74630889Y-555424123D01*
X74665548Y-555249877D01*
X74733536Y-555085742D01*
X74733536Y-555085741D01*
X74832235Y-554938027D01*
X74832237Y-554938024D01*
X74957861Y-554812400D01*
X74958856Y-554811735D01*
X75105578Y-554713699D01*
X75160291Y-554691036D01*
X75269714Y-554645711D01*
X75356837Y-554628381D01*
X75443958Y-554611052D01*
X75621620Y-554611052D01*
X75708741Y-554628381D01*
X75708741Y-554628381D01*
G37*
G36*
X62835375Y-553041754D02*
G01*
X62985200Y-553071556D01*
X63267464Y-553188473D01*
X63521495Y-553358211D01*
X63737531Y-553574247D01*
X63907269Y-553828278D01*
X64024186Y-554110542D01*
X64083790Y-554410192D01*
X64083790Y-554715712D01*
X64024186Y-555015362D01*
X63907269Y-555297626D01*
X63737531Y-555551657D01*
X63521495Y-555767693D01*
X63267464Y-555937431D01*
X62985200Y-556054348D01*
X62835375Y-556084150D01*
X62685551Y-556113952D01*
X62380029Y-556113952D01*
X62230205Y-556084150D01*
X62080380Y-556054348D01*
X61798116Y-555937431D01*
X61544085Y-555767693D01*
X61328049Y-555551657D01*
X61158311Y-555297626D01*
X61041394Y-555015362D01*
X60981790Y-554715712D01*
X60981790Y-554410192D01*
X61041394Y-554110542D01*
X61158311Y-553828278D01*
X61328049Y-553574247D01*
X61544085Y-553358211D01*
X61798116Y-553188473D01*
X62080380Y-553071556D01*
X62230205Y-553041754D01*
X62380029Y-553011952D01*
X62685551Y-553011952D01*
X62835375Y-553041754D01*
X62835375Y-553041754D01*
G37*
G36*
X60608790Y-555913952D02*
G01*
X57906790Y-555913952D01*
X57906790Y-553211952D01*
X60608790Y-553211952D01*
X60608790Y-555913952D01*
X60608790Y-555913952D01*
G37*
G36*
X104397974Y-555871972D02*
G01*
X102595974Y-555871972D01*
X102595974Y-554069972D01*
X104397974Y-554069972D01*
X104397974Y-555871972D01*
X104397974Y-555871972D01*
G37*
G36*
X101067416Y-554076490D02*
G01*
X101133601Y-554083009D01*
X101303440Y-554134529D01*
X101459965Y-554218194D01*
X101495703Y-554247524D01*
X101597160Y-554330786D01*
X101680422Y-554432243D01*
X101709752Y-554467981D01*
X101793417Y-554624506D01*
X101844937Y-554794345D01*
X101862333Y-554970972D01*
X101844937Y-555147599D01*
X101793417Y-555317438D01*
X101709752Y-555473963D01*
X101680422Y-555509701D01*
X101597160Y-555611158D01*
X101504941Y-555686839D01*
X101459965Y-555723750D01*
X101459963Y-555723751D01*
X101365493Y-555774247D01*
X101303440Y-555807415D01*
X101133601Y-555858935D01*
X101067417Y-555865453D01*
X101001234Y-555871972D01*
X100912714Y-555871972D01*
X100846531Y-555865453D01*
X100780347Y-555858935D01*
X100610508Y-555807415D01*
X100548456Y-555774247D01*
X100453985Y-555723751D01*
X100453983Y-555723750D01*
X100409007Y-555686839D01*
X100316788Y-555611158D01*
X100233526Y-555509701D01*
X100204196Y-555473963D01*
X100120531Y-555317438D01*
X100069011Y-555147599D01*
X100051615Y-554970972D01*
X100069011Y-554794345D01*
X100120531Y-554624506D01*
X100204196Y-554467981D01*
X100233526Y-554432243D01*
X100316788Y-554330786D01*
X100418245Y-554247524D01*
X100453983Y-554218194D01*
X100610508Y-554134529D01*
X100780347Y-554083009D01*
X100846532Y-554076490D01*
X100912714Y-554069972D01*
X101001234Y-554069972D01*
X101067416Y-554076490D01*
X101067416Y-554076490D01*
G37*
G36*
X95987416Y-554076490D02*
G01*
X96053601Y-554083009D01*
X96223440Y-554134529D01*
X96379965Y-554218194D01*
X96415703Y-554247524D01*
X96517160Y-554330786D01*
X96600422Y-554432243D01*
X96629752Y-554467981D01*
X96713417Y-554624506D01*
X96764937Y-554794345D01*
X96782333Y-554970972D01*
X96764937Y-555147599D01*
X96713417Y-555317438D01*
X96629752Y-555473963D01*
X96600422Y-555509701D01*
X96517160Y-555611158D01*
X96424941Y-555686839D01*
X96379965Y-555723750D01*
X96379963Y-555723751D01*
X96285493Y-555774247D01*
X96223440Y-555807415D01*
X96053601Y-555858935D01*
X95987417Y-555865453D01*
X95921234Y-555871972D01*
X95832714Y-555871972D01*
X95766531Y-555865453D01*
X95700347Y-555858935D01*
X95530508Y-555807415D01*
X95468456Y-555774247D01*
X95373985Y-555723751D01*
X95373983Y-555723750D01*
X95329007Y-555686839D01*
X95236788Y-555611158D01*
X95153526Y-555509701D01*
X95124196Y-555473963D01*
X95040531Y-555317438D01*
X94989011Y-555147599D01*
X94971615Y-554970972D01*
X94989011Y-554794345D01*
X95040531Y-554624506D01*
X95124196Y-554467981D01*
X95153526Y-554432243D01*
X95236788Y-554330786D01*
X95338245Y-554247524D01*
X95373983Y-554218194D01*
X95530508Y-554134529D01*
X95700347Y-554083009D01*
X95766532Y-554076490D01*
X95832714Y-554069972D01*
X95921234Y-554069972D01*
X95987416Y-554076490D01*
X95987416Y-554076490D01*
G37*
G36*
X98527416Y-554076490D02*
G01*
X98593601Y-554083009D01*
X98763440Y-554134529D01*
X98919965Y-554218194D01*
X98955703Y-554247524D01*
X99057160Y-554330786D01*
X99140422Y-554432243D01*
X99169752Y-554467981D01*
X99253417Y-554624506D01*
X99304937Y-554794345D01*
X99322333Y-554970972D01*
X99304937Y-555147599D01*
X99253417Y-555317438D01*
X99169752Y-555473963D01*
X99140422Y-555509701D01*
X99057160Y-555611158D01*
X98964941Y-555686839D01*
X98919965Y-555723750D01*
X98919963Y-555723751D01*
X98825493Y-555774247D01*
X98763440Y-555807415D01*
X98593601Y-555858935D01*
X98527417Y-555865453D01*
X98461234Y-555871972D01*
X98372714Y-555871972D01*
X98306531Y-555865453D01*
X98240347Y-555858935D01*
X98070508Y-555807415D01*
X98008456Y-555774247D01*
X97913985Y-555723751D01*
X97913983Y-555723750D01*
X97869007Y-555686839D01*
X97776788Y-555611158D01*
X97693526Y-555509701D01*
X97664196Y-555473963D01*
X97580531Y-555317438D01*
X97529011Y-555147599D01*
X97511615Y-554970972D01*
X97529011Y-554794345D01*
X97580531Y-554624506D01*
X97664196Y-554467981D01*
X97693526Y-554432243D01*
X97776788Y-554330786D01*
X97878245Y-554247524D01*
X97913983Y-554218194D01*
X98070508Y-554134529D01*
X98240347Y-554083009D01*
X98306532Y-554076490D01*
X98372714Y-554069972D01*
X98461234Y-554069972D01*
X98527416Y-554076490D01*
X98527416Y-554076490D01*
G37*
G36*
X86335374Y-550241754D02*
G01*
X86485199Y-550271556D01*
X86767463Y-550388473D01*
X87021494Y-550558211D01*
X87237530Y-550774247D01*
X87407268Y-551028278D01*
X87524185Y-551310542D01*
X87583789Y-551610192D01*
X87583789Y-551915712D01*
X87524185Y-552215362D01*
X87407268Y-552497626D01*
X87237530Y-552751657D01*
X87021494Y-552967693D01*
X86767463Y-553137431D01*
X86485199Y-553254348D01*
X86335374Y-553284150D01*
X86185550Y-553313952D01*
X85880028Y-553313952D01*
X85730204Y-553284150D01*
X85580379Y-553254348D01*
X85298115Y-553137431D01*
X85044084Y-552967693D01*
X84828048Y-552751657D01*
X84658310Y-552497626D01*
X84541393Y-552215362D01*
X84481789Y-551915712D01*
X84481789Y-551610192D01*
X84541393Y-551310542D01*
X84658310Y-551028278D01*
X84828048Y-550774247D01*
X85044084Y-550558211D01*
X85298115Y-550388473D01*
X85580379Y-550271556D01*
X85730204Y-550241754D01*
X85880028Y-550211952D01*
X86185550Y-550211952D01*
X86335374Y-550241754D01*
X86335374Y-550241754D01*
G37*
G36*
X90658789Y-553113952D02*
G01*
X87956789Y-553113952D01*
X87956789Y-550411952D01*
X90658789Y-550411952D01*
X90658789Y-553113952D01*
X90658789Y-553113952D01*
G37*
G36*
X81335374Y-548041754D02*
G01*
X81485199Y-548071556D01*
X81767463Y-548188473D01*
X82021494Y-548358211D01*
X82237530Y-548574247D01*
X82407268Y-548828278D01*
X82524185Y-549110542D01*
X82583789Y-549410192D01*
X82583789Y-549715712D01*
X82524185Y-550015362D01*
X82407268Y-550297626D01*
X82237530Y-550551657D01*
X82021494Y-550767693D01*
X81767463Y-550937431D01*
X81485199Y-551054348D01*
X81335374Y-551084150D01*
X81185550Y-551113952D01*
X80880028Y-551113952D01*
X80730204Y-551084150D01*
X80580379Y-551054348D01*
X80298115Y-550937431D01*
X80044084Y-550767693D01*
X79828048Y-550551657D01*
X79658310Y-550297626D01*
X79541393Y-550015362D01*
X79481789Y-549715712D01*
X79481789Y-549410192D01*
X79541393Y-549110542D01*
X79658310Y-548828278D01*
X79828048Y-548574247D01*
X80044084Y-548358211D01*
X80298115Y-548188473D01*
X80580379Y-548071556D01*
X80730204Y-548041754D01*
X80880028Y-548011952D01*
X81185550Y-548011952D01*
X81335374Y-548041754D01*
X81335374Y-548041754D01*
G37*
G36*
X79108789Y-550913952D02*
G01*
X76406789Y-550913952D01*
X76406789Y-548211952D01*
X79108789Y-548211952D01*
X79108789Y-550913952D01*
X79108789Y-550913952D01*
G37*
G36*
X44547766Y-546315299D02*
G01*
X44869066Y-546448386D01*
X44869068Y-546448387D01*
X45158230Y-546641599D01*
X45404143Y-546887512D01*
X45553508Y-547111052D01*
X45597356Y-547176676D01*
X45730443Y-547497976D01*
X45798290Y-547839064D01*
X45798290Y-548186840D01*
X45730443Y-548527928D01*
X45653574Y-548713506D01*
X45597355Y-548849230D01*
X45404143Y-549138392D01*
X45158230Y-549384305D01*
X44869068Y-549577517D01*
X44869067Y-549577518D01*
X44869066Y-549577518D01*
X44547766Y-549710605D01*
X44206678Y-549778452D01*
X43858902Y-549778452D01*
X43517814Y-549710605D01*
X43196514Y-549577518D01*
X43196513Y-549577518D01*
X43196512Y-549577517D01*
X42907350Y-549384305D01*
X42661437Y-549138392D01*
X42468225Y-548849230D01*
X42412006Y-548713506D01*
X42335137Y-548527928D01*
X42267290Y-548186840D01*
X42267290Y-547839064D01*
X42335137Y-547497976D01*
X42468224Y-547176676D01*
X42512073Y-547111052D01*
X42661437Y-546887512D01*
X42907350Y-546641599D01*
X43196512Y-546448387D01*
X43196514Y-546448386D01*
X43517814Y-546315299D01*
X43858902Y-546247452D01*
X44206678Y-546247452D01*
X44547766Y-546315299D01*
X44547766Y-546315299D01*
G37*
G36*
X38708742Y-547128381D02*
G01*
X38795865Y-547145711D01*
X38905288Y-547191036D01*
X38960001Y-547213699D01*
X39106723Y-547311735D01*
X39107718Y-547312400D01*
X39233342Y-547438024D01*
X39233344Y-547438027D01*
X39332043Y-547585741D01*
X39332043Y-547585742D01*
X39400031Y-547749877D01*
X39434690Y-547924123D01*
X39434690Y-548101781D01*
X39400031Y-548276027D01*
X39365989Y-548358211D01*
X39332043Y-548440163D01*
X39273400Y-548527929D01*
X39233342Y-548587880D01*
X39107718Y-548713504D01*
X39107715Y-548713506D01*
X38960001Y-548812205D01*
X38921197Y-548828278D01*
X38795865Y-548880193D01*
X38708742Y-548897523D01*
X38621621Y-548914852D01*
X38443959Y-548914852D01*
X38356838Y-548897523D01*
X38269715Y-548880193D01*
X38144383Y-548828278D01*
X38105579Y-548812205D01*
X37957865Y-548713506D01*
X37957862Y-548713504D01*
X37832238Y-548587880D01*
X37792180Y-548527929D01*
X37733537Y-548440163D01*
X37699591Y-548358211D01*
X37665549Y-548276027D01*
X37630890Y-548101781D01*
X37630890Y-547924123D01*
X37665549Y-547749877D01*
X37733537Y-547585742D01*
X37733537Y-547585741D01*
X37832236Y-547438027D01*
X37832238Y-547438024D01*
X37957862Y-547312400D01*
X37958857Y-547311735D01*
X38105579Y-547213699D01*
X38160292Y-547191036D01*
X38269715Y-547145711D01*
X38356838Y-547128381D01*
X38443959Y-547111052D01*
X38621621Y-547111052D01*
X38708742Y-547128381D01*
X38708742Y-547128381D01*
G37*
G36*
X49708742Y-547128381D02*
G01*
X49795865Y-547145711D01*
X49905288Y-547191036D01*
X49960001Y-547213699D01*
X50106723Y-547311735D01*
X50107718Y-547312400D01*
X50233342Y-547438024D01*
X50233344Y-547438027D01*
X50332043Y-547585741D01*
X50332043Y-547585742D01*
X50400031Y-547749877D01*
X50434690Y-547924123D01*
X50434690Y-548101781D01*
X50400031Y-548276027D01*
X50365989Y-548358211D01*
X50332043Y-548440163D01*
X50273400Y-548527929D01*
X50233342Y-548587880D01*
X50107718Y-548713504D01*
X50107715Y-548713506D01*
X49960001Y-548812205D01*
X49921197Y-548828278D01*
X49795865Y-548880193D01*
X49708742Y-548897523D01*
X49621621Y-548914852D01*
X49443959Y-548914852D01*
X49356838Y-548897523D01*
X49269715Y-548880193D01*
X49144383Y-548828278D01*
X49105579Y-548812205D01*
X48957865Y-548713506D01*
X48957862Y-548713504D01*
X48832238Y-548587880D01*
X48792180Y-548527929D01*
X48733537Y-548440163D01*
X48699591Y-548358211D01*
X48665549Y-548276027D01*
X48630890Y-548101781D01*
X48630890Y-547924123D01*
X48665549Y-547749877D01*
X48733537Y-547585742D01*
X48733537Y-547585741D01*
X48832236Y-547438027D01*
X48832238Y-547438024D01*
X48957862Y-547312400D01*
X48958857Y-547311735D01*
X49105579Y-547213699D01*
X49160292Y-547191036D01*
X49269715Y-547145711D01*
X49356838Y-547128381D01*
X49443959Y-547111052D01*
X49621621Y-547111052D01*
X49708742Y-547128381D01*
X49708742Y-547128381D01*
G37*
G36*
X49335375Y-542741754D02*
G01*
X49485200Y-542771556D01*
X49767464Y-542888473D01*
X50021495Y-543058211D01*
X50237531Y-543274247D01*
X50407269Y-543528278D01*
X50524186Y-543810542D01*
X50546778Y-543924121D01*
X50583790Y-544110191D01*
X50583790Y-544415713D01*
X50561469Y-544527928D01*
X50524186Y-544715362D01*
X50407269Y-544997626D01*
X50237531Y-545251657D01*
X50021495Y-545467693D01*
X49767464Y-545637431D01*
X49485200Y-545754348D01*
X49364021Y-545778452D01*
X49185551Y-545813952D01*
X48880029Y-545813952D01*
X48701559Y-545778452D01*
X48580380Y-545754348D01*
X48298116Y-545637431D01*
X48044085Y-545467693D01*
X47828049Y-545251657D01*
X47658311Y-544997626D01*
X47541394Y-544715362D01*
X47504111Y-544527928D01*
X47481790Y-544415713D01*
X47481790Y-544110191D01*
X47518802Y-543924121D01*
X47541394Y-543810542D01*
X47658311Y-543528278D01*
X47828049Y-543274247D01*
X48044085Y-543058211D01*
X48298116Y-542888473D01*
X48580380Y-542771556D01*
X48730205Y-542741754D01*
X48880029Y-542711952D01*
X49185551Y-542711952D01*
X49335375Y-542741754D01*
X49335375Y-542741754D01*
G37*
G36*
X26047766Y-542315299D02*
G01*
X26344057Y-542438027D01*
X26369068Y-542448387D01*
X26658230Y-542641599D01*
X26904143Y-542887512D01*
X27053508Y-543111052D01*
X27097356Y-543176676D01*
X27230443Y-543497976D01*
X27298290Y-543839064D01*
X27298290Y-544186840D01*
X27230443Y-544527928D01*
X27152805Y-544715362D01*
X27097355Y-544849230D01*
X26904143Y-545138392D01*
X26658230Y-545384305D01*
X26369068Y-545577517D01*
X26369067Y-545577518D01*
X26369066Y-545577518D01*
X26047766Y-545710605D01*
X25706678Y-545778452D01*
X25358902Y-545778452D01*
X25017814Y-545710605D01*
X24696514Y-545577518D01*
X24696513Y-545577518D01*
X24696512Y-545577517D01*
X24407350Y-545384305D01*
X24161437Y-545138392D01*
X23968225Y-544849230D01*
X23912775Y-544715362D01*
X23835137Y-544527928D01*
X23767290Y-544186840D01*
X23767290Y-543839064D01*
X23835137Y-543497976D01*
X23968224Y-543176676D01*
X24012073Y-543111052D01*
X24161437Y-542887512D01*
X24407350Y-542641599D01*
X24696512Y-542448387D01*
X24721523Y-542438027D01*
X25017814Y-542315299D01*
X25358902Y-542247452D01*
X25706678Y-542247452D01*
X26047766Y-542315299D01*
X26047766Y-542315299D01*
G37*
G36*
X53658790Y-545613952D02*
G01*
X50956790Y-545613952D01*
X50956790Y-542911952D01*
X53658790Y-542911952D01*
X53658790Y-545613952D01*
X53658790Y-545613952D01*
G37*
G36*
X20208742Y-543128381D02*
G01*
X20295865Y-543145711D01*
X20405288Y-543191036D01*
X20460001Y-543213699D01*
X20606723Y-543311735D01*
X20607718Y-543312400D01*
X20733342Y-543438024D01*
X20733344Y-543438027D01*
X20832043Y-543585741D01*
X20832929Y-543587880D01*
X20900031Y-543749877D01*
X20917360Y-543837000D01*
X20934690Y-543924121D01*
X20934690Y-544101783D01*
X20933017Y-544110192D01*
X20900031Y-544276027D01*
X20855180Y-544384305D01*
X20832043Y-544440163D01*
X20773400Y-544527929D01*
X20733342Y-544587880D01*
X20607718Y-544713504D01*
X20607715Y-544713506D01*
X20460001Y-544812205D01*
X20405288Y-544834868D01*
X20295865Y-544880193D01*
X20208742Y-544897522D01*
X20121621Y-544914852D01*
X19943959Y-544914852D01*
X19856838Y-544897522D01*
X19769715Y-544880193D01*
X19660292Y-544834868D01*
X19605579Y-544812205D01*
X19457865Y-544713506D01*
X19457862Y-544713504D01*
X19332238Y-544587880D01*
X19292180Y-544527929D01*
X19233537Y-544440163D01*
X19210400Y-544384305D01*
X19165549Y-544276027D01*
X19132563Y-544110192D01*
X19130890Y-544101783D01*
X19130890Y-543924121D01*
X19148220Y-543837000D01*
X19165549Y-543749877D01*
X19232651Y-543587880D01*
X19233537Y-543585741D01*
X19332236Y-543438027D01*
X19332238Y-543438024D01*
X19457862Y-543312400D01*
X19458857Y-543311735D01*
X19605579Y-543213699D01*
X19660292Y-543191036D01*
X19769715Y-543145711D01*
X19856838Y-543128381D01*
X19943959Y-543111052D01*
X20121621Y-543111052D01*
X20208742Y-543128381D01*
X20208742Y-543128381D01*
G37*
G36*
X31208742Y-543128381D02*
G01*
X31295865Y-543145711D01*
X31405288Y-543191036D01*
X31460001Y-543213699D01*
X31606723Y-543311735D01*
X31607718Y-543312400D01*
X31733342Y-543438024D01*
X31733344Y-543438027D01*
X31832043Y-543585741D01*
X31832929Y-543587880D01*
X31900031Y-543749877D01*
X31917360Y-543837000D01*
X31934690Y-543924121D01*
X31934690Y-544101783D01*
X31933017Y-544110192D01*
X31900031Y-544276027D01*
X31855180Y-544384305D01*
X31832043Y-544440163D01*
X31773400Y-544527929D01*
X31733342Y-544587880D01*
X31607718Y-544713504D01*
X31607715Y-544713506D01*
X31460001Y-544812205D01*
X31405288Y-544834868D01*
X31295865Y-544880193D01*
X31208742Y-544897522D01*
X31121621Y-544914852D01*
X30943959Y-544914852D01*
X30856838Y-544897522D01*
X30769715Y-544880193D01*
X30660292Y-544834868D01*
X30605579Y-544812205D01*
X30457865Y-544713506D01*
X30457862Y-544713504D01*
X30332238Y-544587880D01*
X30292180Y-544527929D01*
X30233537Y-544440163D01*
X30210400Y-544384305D01*
X30165549Y-544276027D01*
X30132563Y-544110192D01*
X30130890Y-544101783D01*
X30130890Y-543924121D01*
X30148219Y-543837000D01*
X30165549Y-543749877D01*
X30232651Y-543587880D01*
X30233537Y-543585741D01*
X30332236Y-543438027D01*
X30332238Y-543438024D01*
X30457862Y-543312400D01*
X30458857Y-543311735D01*
X30605579Y-543213699D01*
X30660292Y-543191036D01*
X30769715Y-543145711D01*
X30856838Y-543128381D01*
X30943959Y-543111052D01*
X31121621Y-543111052D01*
X31208742Y-543128381D01*
X31208742Y-543128381D01*
G37*
G36*
X63047765Y-541315299D02*
G01*
X63369065Y-541448386D01*
X63369067Y-541448387D01*
X63658229Y-541641599D01*
X63904142Y-541887512D01*
X64053507Y-542111052D01*
X64097355Y-542176676D01*
X64230442Y-542497976D01*
X64298289Y-542839064D01*
X64298289Y-543186840D01*
X64230442Y-543527928D01*
X64097355Y-543849228D01*
X64097354Y-543849230D01*
X63904142Y-544138392D01*
X63658229Y-544384305D01*
X63369067Y-544577517D01*
X63369066Y-544577518D01*
X63369065Y-544577518D01*
X63047765Y-544710605D01*
X62706677Y-544778452D01*
X62358901Y-544778452D01*
X62017813Y-544710605D01*
X61696513Y-544577518D01*
X61696512Y-544577518D01*
X61696511Y-544577517D01*
X61407349Y-544384305D01*
X61161436Y-544138392D01*
X60968224Y-543849230D01*
X60968223Y-543849228D01*
X60835136Y-543527928D01*
X60767289Y-543186840D01*
X60767289Y-542839064D01*
X60835136Y-542497976D01*
X60968223Y-542176676D01*
X61012072Y-542111052D01*
X61161436Y-541887512D01*
X61407349Y-541641599D01*
X61696511Y-541448387D01*
X61696513Y-541448386D01*
X62017813Y-541315299D01*
X62358901Y-541247452D01*
X62706677Y-541247452D01*
X63047765Y-541315299D01*
X63047765Y-541315299D01*
G37*
G36*
X57208741Y-542128381D02*
G01*
X57295864Y-542145711D01*
X57405287Y-542191036D01*
X57460000Y-542213699D01*
X57606722Y-542311735D01*
X57607717Y-542312400D01*
X57733341Y-542438024D01*
X57733343Y-542438027D01*
X57832042Y-542585741D01*
X57832042Y-542585742D01*
X57900030Y-542749877D01*
X57934689Y-542924123D01*
X57934689Y-543101781D01*
X57900030Y-543276027D01*
X57854705Y-543385450D01*
X57832042Y-543440163D01*
X57773164Y-543528280D01*
X57733341Y-543587880D01*
X57607717Y-543713504D01*
X57607714Y-543713506D01*
X57460000Y-543812205D01*
X57405287Y-543834868D01*
X57295864Y-543880193D01*
X57208741Y-543897523D01*
X57121620Y-543914852D01*
X56943958Y-543914852D01*
X56856837Y-543897523D01*
X56769714Y-543880193D01*
X56660291Y-543834868D01*
X56605578Y-543812205D01*
X56457864Y-543713506D01*
X56457861Y-543713504D01*
X56332237Y-543587880D01*
X56292414Y-543528280D01*
X56233536Y-543440163D01*
X56210873Y-543385450D01*
X56165548Y-543276027D01*
X56130889Y-543101781D01*
X56130889Y-542924123D01*
X56165548Y-542749877D01*
X56233536Y-542585742D01*
X56233536Y-542585741D01*
X56332235Y-542438027D01*
X56332237Y-542438024D01*
X56457861Y-542312400D01*
X56458856Y-542311735D01*
X56605578Y-542213699D01*
X56660291Y-542191036D01*
X56769714Y-542145711D01*
X56856837Y-542128381D01*
X56943958Y-542111052D01*
X57121620Y-542111052D01*
X57208741Y-542128381D01*
X57208741Y-542128381D01*
G37*
G36*
X68208741Y-542128381D02*
G01*
X68295864Y-542145711D01*
X68405287Y-542191036D01*
X68460000Y-542213699D01*
X68606722Y-542311735D01*
X68607717Y-542312400D01*
X68733341Y-542438024D01*
X68733343Y-542438027D01*
X68832042Y-542585741D01*
X68832042Y-542585742D01*
X68900030Y-542749877D01*
X68934689Y-542924123D01*
X68934689Y-543101781D01*
X68900030Y-543276027D01*
X68854705Y-543385450D01*
X68832042Y-543440163D01*
X68773164Y-543528280D01*
X68733341Y-543587880D01*
X68607717Y-543713504D01*
X68607714Y-543713506D01*
X68460000Y-543812205D01*
X68405287Y-543834868D01*
X68295864Y-543880193D01*
X68208741Y-543897523D01*
X68121620Y-543914852D01*
X67943958Y-543914852D01*
X67856837Y-543897523D01*
X67769714Y-543880193D01*
X67660291Y-543834868D01*
X67605578Y-543812205D01*
X67457864Y-543713506D01*
X67457861Y-543713504D01*
X67332237Y-543587880D01*
X67292414Y-543528280D01*
X67233536Y-543440163D01*
X67210873Y-543385450D01*
X67165548Y-543276027D01*
X67130889Y-543101781D01*
X67130889Y-542924123D01*
X67165548Y-542749877D01*
X67233536Y-542585742D01*
X67233536Y-542585741D01*
X67332235Y-542438027D01*
X67332237Y-542438024D01*
X67457861Y-542312400D01*
X67458856Y-542311735D01*
X67605578Y-542213699D01*
X67660291Y-542191036D01*
X67769714Y-542145711D01*
X67856837Y-542128381D01*
X67943958Y-542111052D01*
X68121620Y-542111052D01*
X68208741Y-542128381D01*
X68208741Y-542128381D01*
G37*
G36*
X44335375Y-540541754D02*
G01*
X44485200Y-540571556D01*
X44767464Y-540688473D01*
X45021495Y-540858211D01*
X45237531Y-541074247D01*
X45407269Y-541328278D01*
X45524186Y-541610542D01*
X45583790Y-541910192D01*
X45583790Y-542215712D01*
X45524186Y-542515362D01*
X45407269Y-542797626D01*
X45237531Y-543051657D01*
X45021495Y-543267693D01*
X44767464Y-543437431D01*
X44485200Y-543554348D01*
X44335375Y-543584150D01*
X44185551Y-543613952D01*
X43880029Y-543613952D01*
X43730205Y-543584150D01*
X43580380Y-543554348D01*
X43298116Y-543437431D01*
X43044085Y-543267693D01*
X42828049Y-543051657D01*
X42658311Y-542797626D01*
X42541394Y-542515362D01*
X42481790Y-542215712D01*
X42481790Y-541910192D01*
X42541394Y-541610542D01*
X42658311Y-541328278D01*
X42828049Y-541074247D01*
X43044085Y-540858211D01*
X43298116Y-540688473D01*
X43580380Y-540571556D01*
X43730205Y-540541754D01*
X43880029Y-540511952D01*
X44185551Y-540511952D01*
X44335375Y-540541754D01*
X44335375Y-540541754D01*
G37*
G36*
X42108790Y-543413952D02*
G01*
X39406790Y-543413952D01*
X39406790Y-540711952D01*
X42108790Y-540711952D01*
X42108790Y-543413952D01*
X42108790Y-543413952D01*
G37*
G36*
X30835375Y-538741754D02*
G01*
X30985200Y-538771556D01*
X31267464Y-538888473D01*
X31521495Y-539058211D01*
X31737531Y-539274247D01*
X31907269Y-539528278D01*
X32024186Y-539810542D01*
X32083790Y-540110192D01*
X32083790Y-540415712D01*
X32024186Y-540715362D01*
X31907269Y-540997626D01*
X31737531Y-541251657D01*
X31521495Y-541467693D01*
X31267464Y-541637431D01*
X30985200Y-541754348D01*
X30835375Y-541784150D01*
X30685551Y-541813952D01*
X30380029Y-541813952D01*
X30230205Y-541784150D01*
X30080380Y-541754348D01*
X29798116Y-541637431D01*
X29544085Y-541467693D01*
X29328049Y-541251657D01*
X29158311Y-540997626D01*
X29041394Y-540715362D01*
X28981790Y-540415712D01*
X28981790Y-540110192D01*
X29041394Y-539810542D01*
X29158311Y-539528278D01*
X29328049Y-539274247D01*
X29544085Y-539058211D01*
X29798116Y-538888473D01*
X30080380Y-538771556D01*
X30230205Y-538741754D01*
X30380029Y-538711952D01*
X30685551Y-538711952D01*
X30835375Y-538741754D01*
X30835375Y-538741754D01*
G37*
G36*
X35158790Y-541613952D02*
G01*
X32456790Y-541613952D01*
X32456790Y-538911952D01*
X35158790Y-538911952D01*
X35158790Y-541613952D01*
X35158790Y-541613952D01*
G37*
G36*
X67835374Y-537741754D02*
G01*
X67985199Y-537771556D01*
X68267463Y-537888473D01*
X68521494Y-538058211D01*
X68737530Y-538274247D01*
X68907268Y-538528278D01*
X69024185Y-538810542D01*
X69053987Y-538960367D01*
X69072146Y-539051656D01*
X69083789Y-539110192D01*
X69083789Y-539415712D01*
X69024185Y-539715362D01*
X68907268Y-539997626D01*
X68737530Y-540251657D01*
X68521494Y-540467693D01*
X68267463Y-540637431D01*
X67985199Y-540754348D01*
X67835374Y-540784150D01*
X67685550Y-540813952D01*
X67380028Y-540813952D01*
X67230204Y-540784150D01*
X67080379Y-540754348D01*
X66798115Y-540637431D01*
X66544084Y-540467693D01*
X66328048Y-540251657D01*
X66158310Y-539997626D01*
X66041393Y-539715362D01*
X65981789Y-539415712D01*
X65981789Y-539110192D01*
X65993433Y-539051656D01*
X66011591Y-538960367D01*
X66041393Y-538810542D01*
X66158310Y-538528278D01*
X66328048Y-538274247D01*
X66544084Y-538058211D01*
X66798115Y-537888473D01*
X67080379Y-537771556D01*
X67230204Y-537741754D01*
X67380028Y-537711952D01*
X67685550Y-537711952D01*
X67835374Y-537741754D01*
X67835374Y-537741754D01*
G37*
G36*
X72158789Y-540613952D02*
G01*
X69456789Y-540613952D01*
X69456789Y-537911952D01*
X72158789Y-537911952D01*
X72158789Y-540613952D01*
X72158789Y-540613952D01*
G37*
G36*
X81547765Y-536315299D02*
G01*
X81869065Y-536448386D01*
X81869067Y-536448387D01*
X82158229Y-536641599D01*
X82404142Y-536887512D01*
X82553507Y-537111052D01*
X82597355Y-537176676D01*
X82730442Y-537497976D01*
X82798289Y-537839064D01*
X82798289Y-538186840D01*
X82730442Y-538527928D01*
X82653573Y-538713506D01*
X82597354Y-538849230D01*
X82404142Y-539138392D01*
X82158229Y-539384305D01*
X81869067Y-539577517D01*
X81869066Y-539577518D01*
X81869065Y-539577518D01*
X81547765Y-539710605D01*
X81206677Y-539778452D01*
X80858901Y-539778452D01*
X80517813Y-539710605D01*
X80196513Y-539577518D01*
X80196512Y-539577518D01*
X80196511Y-539577517D01*
X79907349Y-539384305D01*
X79661436Y-539138392D01*
X79468224Y-538849230D01*
X79412005Y-538713506D01*
X79335136Y-538527928D01*
X79267289Y-538186840D01*
X79267289Y-537839064D01*
X79335136Y-537497976D01*
X79468223Y-537176676D01*
X79512072Y-537111052D01*
X79661436Y-536887512D01*
X79907349Y-536641599D01*
X80196511Y-536448387D01*
X80196513Y-536448386D01*
X80517813Y-536315299D01*
X80858901Y-536247452D01*
X81206677Y-536247452D01*
X81547765Y-536315299D01*
X81547765Y-536315299D01*
G37*
G36*
X25835375Y-536541754D02*
G01*
X25985200Y-536571556D01*
X26267464Y-536688473D01*
X26521495Y-536858211D01*
X26737531Y-537074247D01*
X26907269Y-537328278D01*
X27024186Y-537610542D01*
X27024442Y-537611829D01*
X27083790Y-537910191D01*
X27083790Y-538215713D01*
X27071793Y-538276025D01*
X27024186Y-538515362D01*
X26907269Y-538797626D01*
X26737531Y-539051657D01*
X26521495Y-539267693D01*
X26267464Y-539437431D01*
X25985200Y-539554348D01*
X25868721Y-539577517D01*
X25685551Y-539613952D01*
X25380029Y-539613952D01*
X25196859Y-539577517D01*
X25080380Y-539554348D01*
X24798116Y-539437431D01*
X24544085Y-539267693D01*
X24328049Y-539051657D01*
X24158311Y-538797626D01*
X24041394Y-538515362D01*
X23993787Y-538276025D01*
X23981790Y-538215713D01*
X23981790Y-537910191D01*
X24041138Y-537611829D01*
X24041394Y-537610542D01*
X24158311Y-537328278D01*
X24328049Y-537074247D01*
X24544085Y-536858211D01*
X24798116Y-536688473D01*
X25080380Y-536571556D01*
X25230205Y-536541754D01*
X25380029Y-536511952D01*
X25685551Y-536511952D01*
X25835375Y-536541754D01*
X25835375Y-536541754D01*
G37*
G36*
X23608790Y-539413952D02*
G01*
X20906790Y-539413952D01*
X20906790Y-536711952D01*
X23608790Y-536711952D01*
X23608790Y-539413952D01*
X23608790Y-539413952D01*
G37*
G36*
X86708741Y-537128381D02*
G01*
X86795864Y-537145711D01*
X86905287Y-537191036D01*
X86960000Y-537213699D01*
X87106722Y-537311735D01*
X87107717Y-537312400D01*
X87233341Y-537438024D01*
X87233343Y-537438027D01*
X87332042Y-537585741D01*
X87332042Y-537585742D01*
X87400030Y-537749877D01*
X87434689Y-537924123D01*
X87434689Y-538101781D01*
X87400030Y-538276027D01*
X87380504Y-538323165D01*
X87332042Y-538440163D01*
X87273164Y-538528280D01*
X87233341Y-538587880D01*
X87107717Y-538713504D01*
X87107714Y-538713506D01*
X86960000Y-538812205D01*
X86905287Y-538834868D01*
X86795864Y-538880193D01*
X86708741Y-538897522D01*
X86621620Y-538914852D01*
X86443958Y-538914852D01*
X86356837Y-538897522D01*
X86269714Y-538880193D01*
X86160291Y-538834868D01*
X86105578Y-538812205D01*
X85957864Y-538713506D01*
X85957861Y-538713504D01*
X85832237Y-538587880D01*
X85792414Y-538528280D01*
X85733536Y-538440163D01*
X85685074Y-538323165D01*
X85665548Y-538276027D01*
X85630889Y-538101781D01*
X85630889Y-537924123D01*
X85665548Y-537749877D01*
X85733536Y-537585742D01*
X85733536Y-537585741D01*
X85832235Y-537438027D01*
X85832237Y-537438024D01*
X85957861Y-537312400D01*
X85958856Y-537311735D01*
X86105578Y-537213699D01*
X86160291Y-537191036D01*
X86269714Y-537145711D01*
X86356837Y-537128381D01*
X86443958Y-537111052D01*
X86621620Y-537111052D01*
X86708741Y-537128381D01*
X86708741Y-537128381D01*
G37*
G36*
X75708741Y-537128381D02*
G01*
X75795864Y-537145711D01*
X75905287Y-537191036D01*
X75960000Y-537213699D01*
X76106722Y-537311735D01*
X76107717Y-537312400D01*
X76233341Y-537438024D01*
X76233343Y-537438027D01*
X76332042Y-537585741D01*
X76332042Y-537585742D01*
X76400030Y-537749877D01*
X76434689Y-537924123D01*
X76434689Y-538101781D01*
X76400030Y-538276027D01*
X76380504Y-538323165D01*
X76332042Y-538440163D01*
X76273164Y-538528280D01*
X76233341Y-538587880D01*
X76107717Y-538713504D01*
X76107714Y-538713506D01*
X75960000Y-538812205D01*
X75905287Y-538834868D01*
X75795864Y-538880193D01*
X75708741Y-538897522D01*
X75621620Y-538914852D01*
X75443958Y-538914852D01*
X75356837Y-538897522D01*
X75269714Y-538880193D01*
X75160291Y-538834868D01*
X75105578Y-538812205D01*
X74957864Y-538713506D01*
X74957861Y-538713504D01*
X74832237Y-538587880D01*
X74792414Y-538528280D01*
X74733536Y-538440163D01*
X74685074Y-538323165D01*
X74665548Y-538276027D01*
X74630889Y-538101781D01*
X74630889Y-537924123D01*
X74665548Y-537749877D01*
X74733536Y-537585742D01*
X74733536Y-537585741D01*
X74832235Y-537438027D01*
X74832237Y-537438024D01*
X74957861Y-537312400D01*
X74958856Y-537311735D01*
X75105578Y-537213699D01*
X75160291Y-537191036D01*
X75269714Y-537145711D01*
X75356837Y-537128381D01*
X75443958Y-537111052D01*
X75621620Y-537111052D01*
X75708741Y-537128381D01*
X75708741Y-537128381D01*
G37*
G36*
X62835374Y-535541754D02*
G01*
X62985199Y-535571556D01*
X63267463Y-535688473D01*
X63521494Y-535858211D01*
X63737530Y-536074247D01*
X63907268Y-536328278D01*
X64024185Y-536610542D01*
X64083789Y-536910192D01*
X64083789Y-537215712D01*
X64024185Y-537515362D01*
X63907268Y-537797626D01*
X63737530Y-538051657D01*
X63521494Y-538267693D01*
X63267463Y-538437431D01*
X62985199Y-538554348D01*
X62835374Y-538584150D01*
X62685550Y-538613952D01*
X62380028Y-538613952D01*
X62230204Y-538584150D01*
X62080379Y-538554348D01*
X61798115Y-538437431D01*
X61544084Y-538267693D01*
X61328048Y-538051657D01*
X61158310Y-537797626D01*
X61041393Y-537515362D01*
X60981789Y-537215712D01*
X60981789Y-536910192D01*
X61041393Y-536610542D01*
X61158310Y-536328278D01*
X61328048Y-536074247D01*
X61544084Y-535858211D01*
X61798115Y-535688473D01*
X62080379Y-535571556D01*
X62230204Y-535541754D01*
X62380028Y-535511952D01*
X62685550Y-535511952D01*
X62835374Y-535541754D01*
X62835374Y-535541754D01*
G37*
G36*
X60608789Y-538413952D02*
G01*
X57906789Y-538413952D01*
X57906789Y-535711952D01*
X60608789Y-535711952D01*
X60608789Y-538413952D01*
X60608789Y-538413952D01*
G37*
G36*
X96144604Y-536540721D02*
G01*
X96210788Y-536547239D01*
X96380627Y-536598759D01*
X96537152Y-536682424D01*
X96572890Y-536711754D01*
X96674347Y-536795016D01*
X96750255Y-536887512D01*
X96786939Y-536932211D01*
X96870604Y-537088736D01*
X96922124Y-537258575D01*
X96939520Y-537435202D01*
X96922124Y-537611829D01*
X96870604Y-537781668D01*
X96786939Y-537938193D01*
X96757609Y-537973931D01*
X96674347Y-538075388D01*
X96572890Y-538158650D01*
X96537152Y-538187980D01*
X96537150Y-538187981D01*
X96388023Y-538267692D01*
X96380627Y-538271645D01*
X96210788Y-538323165D01*
X96144604Y-538329683D01*
X96078421Y-538336202D01*
X95989901Y-538336202D01*
X95923718Y-538329683D01*
X95857534Y-538323165D01*
X95687695Y-538271645D01*
X95680300Y-538267692D01*
X95531172Y-538187981D01*
X95531170Y-538187980D01*
X95495432Y-538158650D01*
X95393975Y-538075388D01*
X95310713Y-537973931D01*
X95281383Y-537938193D01*
X95197718Y-537781668D01*
X95146198Y-537611829D01*
X95128802Y-537435202D01*
X95146198Y-537258575D01*
X95197718Y-537088736D01*
X95281383Y-536932211D01*
X95318067Y-536887512D01*
X95393975Y-536795016D01*
X95495432Y-536711754D01*
X95531170Y-536682424D01*
X95687695Y-536598759D01*
X95857534Y-536547239D01*
X95923718Y-536540721D01*
X95989901Y-536534202D01*
X96078421Y-536534202D01*
X96144604Y-536540721D01*
X96144604Y-536540721D01*
G37*
G36*
X104555161Y-538336202D02*
G01*
X102753161Y-538336202D01*
X102753161Y-536534202D01*
X104555161Y-536534202D01*
X104555161Y-538336202D01*
X104555161Y-538336202D01*
G37*
G36*
X101224604Y-536540721D02*
G01*
X101290788Y-536547239D01*
X101460627Y-536598759D01*
X101617152Y-536682424D01*
X101652890Y-536711754D01*
X101754347Y-536795016D01*
X101830255Y-536887512D01*
X101866939Y-536932211D01*
X101950604Y-537088736D01*
X102002124Y-537258575D01*
X102019520Y-537435202D01*
X102002124Y-537611829D01*
X101950604Y-537781668D01*
X101866939Y-537938193D01*
X101837609Y-537973931D01*
X101754347Y-538075388D01*
X101652890Y-538158650D01*
X101617152Y-538187980D01*
X101617150Y-538187981D01*
X101468023Y-538267692D01*
X101460627Y-538271645D01*
X101290788Y-538323165D01*
X101224604Y-538329683D01*
X101158421Y-538336202D01*
X101069901Y-538336202D01*
X101003718Y-538329683D01*
X100937534Y-538323165D01*
X100767695Y-538271645D01*
X100760300Y-538267692D01*
X100611172Y-538187981D01*
X100611170Y-538187980D01*
X100575432Y-538158650D01*
X100473975Y-538075388D01*
X100390713Y-537973931D01*
X100361383Y-537938193D01*
X100277718Y-537781668D01*
X100226198Y-537611829D01*
X100208802Y-537435202D01*
X100226198Y-537258575D01*
X100277718Y-537088736D01*
X100361383Y-536932211D01*
X100398067Y-536887512D01*
X100473975Y-536795016D01*
X100575432Y-536711754D01*
X100611170Y-536682424D01*
X100767695Y-536598759D01*
X100937534Y-536547239D01*
X101003718Y-536540721D01*
X101069901Y-536534202D01*
X101158421Y-536534202D01*
X101224604Y-536540721D01*
X101224604Y-536540721D01*
G37*
G36*
X98684604Y-536540721D02*
G01*
X98750788Y-536547239D01*
X98920627Y-536598759D01*
X99077152Y-536682424D01*
X99112890Y-536711754D01*
X99214347Y-536795016D01*
X99290255Y-536887512D01*
X99326939Y-536932211D01*
X99410604Y-537088736D01*
X99462124Y-537258575D01*
X99479520Y-537435202D01*
X99462124Y-537611829D01*
X99410604Y-537781668D01*
X99326939Y-537938193D01*
X99297609Y-537973931D01*
X99214347Y-538075388D01*
X99112890Y-538158650D01*
X99077152Y-538187980D01*
X99077150Y-538187981D01*
X98928023Y-538267692D01*
X98920627Y-538271645D01*
X98750788Y-538323165D01*
X98684604Y-538329683D01*
X98618421Y-538336202D01*
X98529901Y-538336202D01*
X98463718Y-538329683D01*
X98397534Y-538323165D01*
X98227695Y-538271645D01*
X98220300Y-538267692D01*
X98071172Y-538187981D01*
X98071170Y-538187980D01*
X98035432Y-538158650D01*
X97933975Y-538075388D01*
X97850713Y-537973931D01*
X97821383Y-537938193D01*
X97737718Y-537781668D01*
X97686198Y-537611829D01*
X97668802Y-537435202D01*
X97686198Y-537258575D01*
X97737718Y-537088736D01*
X97821383Y-536932211D01*
X97858067Y-536887512D01*
X97933975Y-536795016D01*
X98035432Y-536711754D01*
X98071170Y-536682424D01*
X98227695Y-536598759D01*
X98397534Y-536547239D01*
X98463718Y-536540721D01*
X98529901Y-536534202D01*
X98618421Y-536534202D01*
X98684604Y-536540721D01*
X98684604Y-536540721D01*
G37*
G36*
X86335374Y-532741754D02*
G01*
X86485199Y-532771556D01*
X86767463Y-532888473D01*
X87021494Y-533058211D01*
X87237530Y-533274247D01*
X87407268Y-533528278D01*
X87524185Y-533810542D01*
X87583789Y-534110192D01*
X87583789Y-534415712D01*
X87524185Y-534715362D01*
X87407268Y-534997626D01*
X87237530Y-535251657D01*
X87021494Y-535467693D01*
X86767463Y-535637431D01*
X86485199Y-535754348D01*
X86335374Y-535784150D01*
X86185550Y-535813952D01*
X85880028Y-535813952D01*
X85730204Y-535784150D01*
X85580379Y-535754348D01*
X85298115Y-535637431D01*
X85044084Y-535467693D01*
X84828048Y-535251657D01*
X84658310Y-534997626D01*
X84541393Y-534715362D01*
X84481789Y-534415712D01*
X84481789Y-534110192D01*
X84541393Y-533810542D01*
X84658310Y-533528278D01*
X84828048Y-533274247D01*
X85044084Y-533058211D01*
X85298115Y-532888473D01*
X85580379Y-532771556D01*
X85730204Y-532741754D01*
X85880028Y-532711952D01*
X86185550Y-532711952D01*
X86335374Y-532741754D01*
X86335374Y-532741754D01*
G37*
G36*
X90658789Y-535613952D02*
G01*
X87956789Y-535613952D01*
X87956789Y-532911952D01*
X90658789Y-532911952D01*
X90658789Y-535613952D01*
X90658789Y-535613952D01*
G37*
G36*
X81335374Y-530541754D02*
G01*
X81485199Y-530571556D01*
X81767463Y-530688473D01*
X82021494Y-530858211D01*
X82237530Y-531074247D01*
X82407268Y-531328278D01*
X82524185Y-531610542D01*
X82583789Y-531910192D01*
X82583789Y-532215712D01*
X82524185Y-532515362D01*
X82407268Y-532797626D01*
X82237530Y-533051657D01*
X82021494Y-533267693D01*
X81767463Y-533437431D01*
X81485199Y-533554348D01*
X81335374Y-533584150D01*
X81185550Y-533613952D01*
X80880028Y-533613952D01*
X80730204Y-533584150D01*
X80580379Y-533554348D01*
X80298115Y-533437431D01*
X80044084Y-533267693D01*
X79828048Y-533051657D01*
X79658310Y-532797626D01*
X79541393Y-532515362D01*
X79481789Y-532215712D01*
X79481789Y-531910192D01*
X79541393Y-531610542D01*
X79658310Y-531328278D01*
X79828048Y-531074247D01*
X80044084Y-530858211D01*
X80298115Y-530688473D01*
X80580379Y-530571556D01*
X80730204Y-530541754D01*
X80880028Y-530511952D01*
X81185550Y-530511952D01*
X81335374Y-530541754D01*
X81335374Y-530541754D01*
G37*
G36*
X79108789Y-533413952D02*
G01*
X76406789Y-533413952D01*
X76406789Y-530711952D01*
X79108789Y-530711952D01*
X79108789Y-533413952D01*
X79108789Y-533413952D01*
G37*
G36*
X44547765Y-528815299D02*
G01*
X44869065Y-528948386D01*
X44869067Y-528948387D01*
X45158229Y-529141599D01*
X45404142Y-529387512D01*
X45553507Y-529611052D01*
X45597355Y-529676676D01*
X45730442Y-529997976D01*
X45798289Y-530339064D01*
X45798289Y-530686840D01*
X45730442Y-531027928D01*
X45653573Y-531213506D01*
X45597354Y-531349230D01*
X45404142Y-531638392D01*
X45158229Y-531884305D01*
X44869067Y-532077517D01*
X44869066Y-532077518D01*
X44869065Y-532077518D01*
X44547765Y-532210605D01*
X44206677Y-532278452D01*
X43858901Y-532278452D01*
X43517813Y-532210605D01*
X43196513Y-532077518D01*
X43196512Y-532077518D01*
X43196511Y-532077517D01*
X42907349Y-531884305D01*
X42661436Y-531638392D01*
X42468224Y-531349230D01*
X42412005Y-531213506D01*
X42335136Y-531027928D01*
X42267289Y-530686840D01*
X42267289Y-530339064D01*
X42335136Y-529997976D01*
X42468223Y-529676676D01*
X42512072Y-529611052D01*
X42661436Y-529387512D01*
X42907349Y-529141599D01*
X43196511Y-528948387D01*
X43196513Y-528948386D01*
X43517813Y-528815299D01*
X43858901Y-528747452D01*
X44206677Y-528747452D01*
X44547765Y-528815299D01*
X44547765Y-528815299D01*
G37*
G36*
X49708741Y-529628381D02*
G01*
X49795864Y-529645711D01*
X49905287Y-529691036D01*
X49960000Y-529713699D01*
X50106722Y-529811735D01*
X50107717Y-529812400D01*
X50233341Y-529938024D01*
X50233343Y-529938027D01*
X50332042Y-530085741D01*
X50332042Y-530085742D01*
X50400030Y-530249877D01*
X50434689Y-530424123D01*
X50434689Y-530601781D01*
X50400030Y-530776027D01*
X50365988Y-530858211D01*
X50332042Y-530940163D01*
X50273399Y-531027929D01*
X50233341Y-531087880D01*
X50107717Y-531213504D01*
X50107714Y-531213506D01*
X49960000Y-531312205D01*
X49921196Y-531328278D01*
X49795864Y-531380193D01*
X49708741Y-531397523D01*
X49621620Y-531414852D01*
X49443958Y-531414852D01*
X49356837Y-531397523D01*
X49269714Y-531380193D01*
X49144382Y-531328278D01*
X49105578Y-531312205D01*
X48957864Y-531213506D01*
X48957861Y-531213504D01*
X48832237Y-531087880D01*
X48792179Y-531027929D01*
X48733536Y-530940163D01*
X48699590Y-530858211D01*
X48665548Y-530776027D01*
X48630889Y-530601781D01*
X48630889Y-530424123D01*
X48665548Y-530249877D01*
X48733536Y-530085742D01*
X48733536Y-530085741D01*
X48832235Y-529938027D01*
X48832237Y-529938024D01*
X48957861Y-529812400D01*
X48958856Y-529811735D01*
X49105578Y-529713699D01*
X49160291Y-529691036D01*
X49269714Y-529645711D01*
X49356837Y-529628381D01*
X49443958Y-529611052D01*
X49621620Y-529611052D01*
X49708741Y-529628381D01*
X49708741Y-529628381D01*
G37*
G36*
X38708741Y-529628381D02*
G01*
X38795864Y-529645711D01*
X38905287Y-529691036D01*
X38960000Y-529713699D01*
X39106722Y-529811735D01*
X39107717Y-529812400D01*
X39233341Y-529938024D01*
X39233343Y-529938027D01*
X39332042Y-530085741D01*
X39332042Y-530085742D01*
X39400030Y-530249877D01*
X39434689Y-530424123D01*
X39434689Y-530601781D01*
X39400030Y-530776027D01*
X39365988Y-530858211D01*
X39332042Y-530940163D01*
X39273399Y-531027929D01*
X39233341Y-531087880D01*
X39107717Y-531213504D01*
X39107714Y-531213506D01*
X38960000Y-531312205D01*
X38921196Y-531328278D01*
X38795864Y-531380193D01*
X38708741Y-531397523D01*
X38621620Y-531414852D01*
X38443958Y-531414852D01*
X38356837Y-531397523D01*
X38269714Y-531380193D01*
X38144382Y-531328278D01*
X38105578Y-531312205D01*
X37957864Y-531213506D01*
X37957861Y-531213504D01*
X37832237Y-531087880D01*
X37792179Y-531027929D01*
X37733536Y-530940163D01*
X37699590Y-530858211D01*
X37665548Y-530776027D01*
X37630889Y-530601781D01*
X37630889Y-530424123D01*
X37665548Y-530249877D01*
X37733536Y-530085742D01*
X37733536Y-530085741D01*
X37832235Y-529938027D01*
X37832237Y-529938024D01*
X37957861Y-529812400D01*
X37958856Y-529811735D01*
X38105578Y-529713699D01*
X38160291Y-529691036D01*
X38269714Y-529645711D01*
X38356837Y-529628381D01*
X38443958Y-529611052D01*
X38621620Y-529611052D01*
X38708741Y-529628381D01*
X38708741Y-529628381D01*
G37*
G36*
X127277095Y-528719305D02*
G01*
X125475095Y-528719305D01*
X125475095Y-526917305D01*
X127277095Y-526917305D01*
X127277095Y-528719305D01*
X127277095Y-528719305D01*
G37*
G36*
X49335374Y-525241754D02*
G01*
X49485199Y-525271556D01*
X49767463Y-525388473D01*
X50021494Y-525558211D01*
X50237530Y-525774247D01*
X50407268Y-526028278D01*
X50524185Y-526310542D01*
X50529859Y-526339066D01*
X50583789Y-526610191D01*
X50583789Y-526915713D01*
X50553987Y-527065537D01*
X50524185Y-527215362D01*
X50407268Y-527497626D01*
X50237530Y-527751657D01*
X50021494Y-527967693D01*
X49767463Y-528137431D01*
X49485199Y-528254348D01*
X49364015Y-528278453D01*
X49185550Y-528313952D01*
X48880028Y-528313952D01*
X48701563Y-528278453D01*
X48580379Y-528254348D01*
X48298115Y-528137431D01*
X48044084Y-527967693D01*
X47828048Y-527751657D01*
X47658310Y-527497626D01*
X47541393Y-527215362D01*
X47511591Y-527065537D01*
X47481789Y-526915713D01*
X47481789Y-526610191D01*
X47535719Y-526339066D01*
X47541393Y-526310542D01*
X47658310Y-526028278D01*
X47828048Y-525774247D01*
X48044084Y-525558211D01*
X48298115Y-525388473D01*
X48580379Y-525271556D01*
X48730204Y-525241754D01*
X48880028Y-525211952D01*
X49185550Y-525211952D01*
X49335374Y-525241754D01*
X49335374Y-525241754D01*
G37*
G36*
X26047765Y-524815300D02*
G01*
X26344056Y-524938028D01*
X26369067Y-524948388D01*
X26658229Y-525141600D01*
X26904142Y-525387513D01*
X27053507Y-525611053D01*
X27097355Y-525676677D01*
X27230442Y-525997977D01*
X27298289Y-526339065D01*
X27298289Y-526686841D01*
X27230442Y-527027929D01*
X27126671Y-527278453D01*
X27097354Y-527349231D01*
X26904142Y-527638393D01*
X26658229Y-527884306D01*
X26369067Y-528077518D01*
X26369066Y-528077519D01*
X26369065Y-528077519D01*
X26047765Y-528210606D01*
X25706677Y-528278453D01*
X25358901Y-528278453D01*
X25017813Y-528210606D01*
X24696513Y-528077519D01*
X24696512Y-528077519D01*
X24696511Y-528077518D01*
X24407349Y-527884306D01*
X24161436Y-527638393D01*
X23968224Y-527349231D01*
X23938907Y-527278453D01*
X23835136Y-527027929D01*
X23767289Y-526686841D01*
X23767289Y-526339065D01*
X23835136Y-525997977D01*
X23968223Y-525676677D01*
X24012072Y-525611053D01*
X24161436Y-525387513D01*
X24407349Y-525141600D01*
X24696511Y-524948388D01*
X24721522Y-524938028D01*
X25017813Y-524815300D01*
X25358901Y-524747453D01*
X25706677Y-524747453D01*
X26047765Y-524815300D01*
X26047765Y-524815300D01*
G37*
G36*
X53658789Y-528113952D02*
G01*
X50956789Y-528113952D01*
X50956789Y-525411952D01*
X53658789Y-525411952D01*
X53658789Y-528113952D01*
X53658789Y-528113952D01*
G37*
G36*
X31208741Y-525628382D02*
G01*
X31295864Y-525645712D01*
X31405287Y-525691037D01*
X31460000Y-525713700D01*
X31561162Y-525781294D01*
X31607717Y-525812401D01*
X31733341Y-525938025D01*
X31733343Y-525938028D01*
X31832042Y-526085742D01*
X31854705Y-526140455D01*
X31900030Y-526249878D01*
X31917360Y-526337001D01*
X31934689Y-526424122D01*
X31934689Y-526601784D01*
X31927407Y-526638393D01*
X31900030Y-526776028D01*
X31855179Y-526884306D01*
X31832042Y-526940164D01*
X31773399Y-527027930D01*
X31733341Y-527087881D01*
X31607717Y-527213505D01*
X31607714Y-527213507D01*
X31460000Y-527312206D01*
X31405287Y-527334869D01*
X31295864Y-527380194D01*
X31208741Y-527397523D01*
X31121620Y-527414853D01*
X30943958Y-527414853D01*
X30856837Y-527397523D01*
X30769714Y-527380194D01*
X30660291Y-527334869D01*
X30605578Y-527312206D01*
X30457864Y-527213507D01*
X30457861Y-527213505D01*
X30332237Y-527087881D01*
X30292179Y-527027930D01*
X30233536Y-526940164D01*
X30210399Y-526884306D01*
X30165548Y-526776028D01*
X30138171Y-526638393D01*
X30130889Y-526601784D01*
X30130889Y-526424122D01*
X30148218Y-526337001D01*
X30165548Y-526249878D01*
X30210873Y-526140455D01*
X30233536Y-526085742D01*
X30332235Y-525938028D01*
X30332237Y-525938025D01*
X30457861Y-525812401D01*
X30504416Y-525781294D01*
X30605578Y-525713700D01*
X30660291Y-525691037D01*
X30769714Y-525645712D01*
X30856837Y-525628382D01*
X30943958Y-525611053D01*
X31121620Y-525611053D01*
X31208741Y-525628382D01*
X31208741Y-525628382D01*
G37*
G36*
X20208741Y-525628382D02*
G01*
X20295864Y-525645712D01*
X20405287Y-525691037D01*
X20460000Y-525713700D01*
X20561162Y-525781294D01*
X20607717Y-525812401D01*
X20733341Y-525938025D01*
X20733343Y-525938028D01*
X20832042Y-526085742D01*
X20854705Y-526140455D01*
X20900030Y-526249878D01*
X20917360Y-526337001D01*
X20934689Y-526424122D01*
X20934689Y-526601784D01*
X20927407Y-526638393D01*
X20900030Y-526776028D01*
X20855179Y-526884306D01*
X20832042Y-526940164D01*
X20773399Y-527027930D01*
X20733341Y-527087881D01*
X20607717Y-527213505D01*
X20607714Y-527213507D01*
X20460000Y-527312206D01*
X20405287Y-527334869D01*
X20295864Y-527380194D01*
X20208741Y-527397523D01*
X20121620Y-527414853D01*
X19943958Y-527414853D01*
X19856837Y-527397523D01*
X19769714Y-527380194D01*
X19660291Y-527334869D01*
X19605578Y-527312206D01*
X19457864Y-527213507D01*
X19457861Y-527213505D01*
X19332237Y-527087881D01*
X19292179Y-527027930D01*
X19233536Y-526940164D01*
X19210399Y-526884306D01*
X19165548Y-526776028D01*
X19138171Y-526638393D01*
X19130889Y-526601784D01*
X19130889Y-526424122D01*
X19148218Y-526337001D01*
X19165548Y-526249878D01*
X19210873Y-526140455D01*
X19233536Y-526085742D01*
X19332235Y-525938028D01*
X19332237Y-525938025D01*
X19457861Y-525812401D01*
X19504416Y-525781294D01*
X19605578Y-525713700D01*
X19660291Y-525691037D01*
X19769714Y-525645712D01*
X19856837Y-525628382D01*
X19943958Y-525611053D01*
X20121620Y-525611053D01*
X20208741Y-525628382D01*
X20208741Y-525628382D01*
G37*
G36*
X63047765Y-523815300D02*
G01*
X63369065Y-523948387D01*
X63369067Y-523948388D01*
X63658229Y-524141600D01*
X63904142Y-524387513D01*
X64071592Y-524638119D01*
X64097355Y-524676677D01*
X64230442Y-524997977D01*
X64298289Y-525339065D01*
X64298289Y-525686841D01*
X64230442Y-526027929D01*
X64097355Y-526349229D01*
X64097354Y-526349231D01*
X63904142Y-526638393D01*
X63658229Y-526884306D01*
X63369067Y-527077518D01*
X63369066Y-527077519D01*
X63369065Y-527077519D01*
X63047765Y-527210606D01*
X62706677Y-527278453D01*
X62358901Y-527278453D01*
X62017813Y-527210606D01*
X61696513Y-527077519D01*
X61696512Y-527077519D01*
X61696511Y-527077518D01*
X61407349Y-526884306D01*
X61161436Y-526638393D01*
X60968224Y-526349231D01*
X60968223Y-526349229D01*
X60835136Y-526027929D01*
X60767289Y-525686841D01*
X60767289Y-525339065D01*
X60835136Y-524997977D01*
X60968223Y-524676677D01*
X60993987Y-524638119D01*
X61161436Y-524387513D01*
X61407349Y-524141600D01*
X61696511Y-523948388D01*
X61696513Y-523948387D01*
X62017813Y-523815300D01*
X62358901Y-523747453D01*
X62706677Y-523747453D01*
X63047765Y-523815300D01*
X63047765Y-523815300D01*
G37*
G36*
X57208741Y-524628382D02*
G01*
X57295864Y-524645712D01*
X57405287Y-524691037D01*
X57460000Y-524713700D01*
X57552212Y-524775314D01*
X57607717Y-524812401D01*
X57733341Y-524938025D01*
X57733343Y-524938028D01*
X57832042Y-525085742D01*
X57854705Y-525140455D01*
X57900030Y-525249878D01*
X57900030Y-525249880D01*
X57934689Y-525424122D01*
X57934689Y-525601784D01*
X57930116Y-525624773D01*
X57900030Y-525776028D01*
X57854705Y-525885451D01*
X57832042Y-525940164D01*
X57773399Y-526027930D01*
X57733341Y-526087881D01*
X57607717Y-526213505D01*
X57607714Y-526213507D01*
X57460000Y-526312206D01*
X57405287Y-526334869D01*
X57295864Y-526380194D01*
X57208741Y-526397524D01*
X57121620Y-526414853D01*
X56943958Y-526414853D01*
X56856837Y-526397524D01*
X56769714Y-526380194D01*
X56660291Y-526334869D01*
X56605578Y-526312206D01*
X56457864Y-526213507D01*
X56457861Y-526213505D01*
X56332237Y-526087881D01*
X56292179Y-526027930D01*
X56233536Y-525940164D01*
X56210873Y-525885451D01*
X56165548Y-525776028D01*
X56135462Y-525624773D01*
X56130889Y-525601784D01*
X56130889Y-525424122D01*
X56165548Y-525249880D01*
X56165548Y-525249878D01*
X56210873Y-525140455D01*
X56233536Y-525085742D01*
X56332235Y-524938028D01*
X56332237Y-524938025D01*
X56457861Y-524812401D01*
X56513366Y-524775314D01*
X56605578Y-524713700D01*
X56660291Y-524691037D01*
X56769714Y-524645712D01*
X56856837Y-524628382D01*
X56943958Y-524611053D01*
X57121620Y-524611053D01*
X57208741Y-524628382D01*
X57208741Y-524628382D01*
G37*
G36*
X68208741Y-524628382D02*
G01*
X68295864Y-524645712D01*
X68405287Y-524691037D01*
X68460000Y-524713700D01*
X68552212Y-524775314D01*
X68607717Y-524812401D01*
X68733341Y-524938025D01*
X68733343Y-524938028D01*
X68832042Y-525085742D01*
X68854705Y-525140455D01*
X68900030Y-525249878D01*
X68900030Y-525249880D01*
X68934689Y-525424122D01*
X68934689Y-525601784D01*
X68930116Y-525624773D01*
X68900030Y-525776028D01*
X68854705Y-525885451D01*
X68832042Y-525940164D01*
X68773399Y-526027930D01*
X68733341Y-526087881D01*
X68607717Y-526213505D01*
X68607714Y-526213507D01*
X68460000Y-526312206D01*
X68405287Y-526334869D01*
X68295864Y-526380194D01*
X68208741Y-526397524D01*
X68121620Y-526414853D01*
X67943958Y-526414853D01*
X67856837Y-526397524D01*
X67769714Y-526380194D01*
X67660291Y-526334869D01*
X67605578Y-526312206D01*
X67457864Y-526213507D01*
X67457861Y-526213505D01*
X67332237Y-526087881D01*
X67292179Y-526027930D01*
X67233536Y-525940164D01*
X67210873Y-525885451D01*
X67165548Y-525776028D01*
X67135462Y-525624773D01*
X67130889Y-525601784D01*
X67130889Y-525424122D01*
X67165548Y-525249880D01*
X67165548Y-525249878D01*
X67210873Y-525140455D01*
X67233536Y-525085742D01*
X67332235Y-524938028D01*
X67332237Y-524938025D01*
X67457861Y-524812401D01*
X67513366Y-524775314D01*
X67605578Y-524713700D01*
X67660291Y-524691037D01*
X67769714Y-524645712D01*
X67856837Y-524628382D01*
X67943958Y-524611053D01*
X68121620Y-524611053D01*
X68208741Y-524628382D01*
X68208741Y-524628382D01*
G37*
G36*
X126486538Y-524383824D02*
G01*
X126552722Y-524390342D01*
X126722561Y-524441862D01*
X126879086Y-524525527D01*
X126914824Y-524554857D01*
X127016281Y-524638119D01*
X127099543Y-524739576D01*
X127128873Y-524775314D01*
X127212538Y-524931839D01*
X127264058Y-525101678D01*
X127281454Y-525278305D01*
X127264058Y-525454932D01*
X127212538Y-525624771D01*
X127128873Y-525781296D01*
X127103347Y-525812399D01*
X127016281Y-525918491D01*
X126914824Y-526001753D01*
X126879086Y-526031083D01*
X126722561Y-526114748D01*
X126552722Y-526166268D01*
X126486537Y-526172787D01*
X126420355Y-526179305D01*
X126331835Y-526179305D01*
X126265653Y-526172787D01*
X126199468Y-526166268D01*
X126029629Y-526114748D01*
X125873104Y-526031083D01*
X125837366Y-526001753D01*
X125735909Y-525918491D01*
X125648843Y-525812399D01*
X125623317Y-525781296D01*
X125539652Y-525624771D01*
X125488132Y-525454932D01*
X125470736Y-525278305D01*
X125488132Y-525101678D01*
X125539652Y-524931839D01*
X125623317Y-524775314D01*
X125652647Y-524739576D01*
X125735909Y-524638119D01*
X125837366Y-524554857D01*
X125873104Y-524525527D01*
X126029629Y-524441862D01*
X126199468Y-524390342D01*
X126265652Y-524383824D01*
X126331835Y-524377305D01*
X126420355Y-524377305D01*
X126486538Y-524383824D01*
X126486538Y-524383824D01*
G37*
G36*
X44335374Y-523041754D02*
G01*
X44485199Y-523071556D01*
X44767463Y-523188473D01*
X45021494Y-523358211D01*
X45237530Y-523574247D01*
X45407268Y-523828278D01*
X45524185Y-524110542D01*
X45524185Y-524110543D01*
X45583789Y-524410191D01*
X45583789Y-524715713D01*
X45571933Y-524775316D01*
X45524185Y-525015362D01*
X45407268Y-525297626D01*
X45237530Y-525551657D01*
X45021494Y-525767693D01*
X44767463Y-525937431D01*
X44485199Y-526054348D01*
X44335374Y-526084150D01*
X44185550Y-526113952D01*
X43880028Y-526113952D01*
X43730204Y-526084150D01*
X43580379Y-526054348D01*
X43298115Y-525937431D01*
X43044084Y-525767693D01*
X42828048Y-525551657D01*
X42658310Y-525297626D01*
X42541393Y-525015362D01*
X42493645Y-524775316D01*
X42481789Y-524715713D01*
X42481789Y-524410191D01*
X42541393Y-524110543D01*
X42541393Y-524110542D01*
X42658310Y-523828278D01*
X42828048Y-523574247D01*
X43044084Y-523358211D01*
X43298115Y-523188473D01*
X43580379Y-523071556D01*
X43730204Y-523041754D01*
X43880028Y-523011952D01*
X44185550Y-523011952D01*
X44335374Y-523041754D01*
X44335374Y-523041754D01*
G37*
G36*
X42108789Y-525913952D02*
G01*
X39406789Y-525913952D01*
X39406789Y-523211952D01*
X42108789Y-523211952D01*
X42108789Y-525913952D01*
X42108789Y-525913952D01*
G37*
G36*
X30835374Y-521241755D02*
G01*
X30985199Y-521271557D01*
X31267463Y-521388474D01*
X31521494Y-521558212D01*
X31737530Y-521774248D01*
X31907268Y-522028279D01*
X32024185Y-522310543D01*
X32083789Y-522610193D01*
X32083789Y-522915713D01*
X32024185Y-523215363D01*
X31907268Y-523497627D01*
X31737530Y-523751658D01*
X31521494Y-523967694D01*
X31267463Y-524137432D01*
X30985199Y-524254349D01*
X30835374Y-524284151D01*
X30685550Y-524313953D01*
X30380028Y-524313953D01*
X30230204Y-524284151D01*
X30080379Y-524254349D01*
X29798115Y-524137432D01*
X29544084Y-523967694D01*
X29328048Y-523751658D01*
X29158310Y-523497627D01*
X29041393Y-523215363D01*
X28981789Y-522915713D01*
X28981789Y-522610193D01*
X29041393Y-522310543D01*
X29158310Y-522028279D01*
X29328048Y-521774248D01*
X29544084Y-521558212D01*
X29798115Y-521388474D01*
X30080379Y-521271557D01*
X30230204Y-521241755D01*
X30380028Y-521211953D01*
X30685550Y-521211953D01*
X30835374Y-521241755D01*
X30835374Y-521241755D01*
G37*
G36*
X35158789Y-524113953D02*
G01*
X32456789Y-524113953D01*
X32456789Y-521411953D01*
X35158789Y-521411953D01*
X35158789Y-524113953D01*
X35158789Y-524113953D01*
G37*
G36*
X126486538Y-521843824D02*
G01*
X126552722Y-521850342D01*
X126722561Y-521901862D01*
X126722563Y-521901863D01*
X126748474Y-521915713D01*
X126879086Y-521985527D01*
X126914824Y-522014857D01*
X127016281Y-522098119D01*
X127099543Y-522199576D01*
X127128873Y-522235314D01*
X127212538Y-522391839D01*
X127264058Y-522561678D01*
X127281454Y-522738305D01*
X127264058Y-522914932D01*
X127212538Y-523084771D01*
X127128873Y-523241296D01*
X127099543Y-523277034D01*
X127016281Y-523378491D01*
X126914824Y-523461753D01*
X126879086Y-523491083D01*
X126879084Y-523491084D01*
X126723497Y-523574248D01*
X126722561Y-523574748D01*
X126552722Y-523626268D01*
X126486538Y-523632786D01*
X126420355Y-523639305D01*
X126331835Y-523639305D01*
X126265652Y-523632786D01*
X126199468Y-523626268D01*
X126029629Y-523574748D01*
X126028694Y-523574248D01*
X125873106Y-523491084D01*
X125873104Y-523491083D01*
X125837366Y-523461753D01*
X125735909Y-523378491D01*
X125652647Y-523277034D01*
X125623317Y-523241296D01*
X125539652Y-523084771D01*
X125488132Y-522914932D01*
X125470736Y-522738305D01*
X125488132Y-522561678D01*
X125539652Y-522391839D01*
X125623317Y-522235314D01*
X125652647Y-522199576D01*
X125735909Y-522098119D01*
X125837366Y-522014857D01*
X125873104Y-521985527D01*
X126003716Y-521915713D01*
X126029627Y-521901863D01*
X126029629Y-521901862D01*
X126199468Y-521850342D01*
X126265652Y-521843824D01*
X126331835Y-521837305D01*
X126420355Y-521837305D01*
X126486538Y-521843824D01*
X126486538Y-521843824D01*
G37*
G36*
X67835374Y-520241755D02*
G01*
X67985199Y-520271557D01*
X68267463Y-520388474D01*
X68521494Y-520558212D01*
X68737530Y-520774248D01*
X68907268Y-521028279D01*
X69024185Y-521310543D01*
X69031880Y-521349228D01*
X69072146Y-521551657D01*
X69083789Y-521610193D01*
X69083789Y-521915713D01*
X69024185Y-522215363D01*
X68907268Y-522497627D01*
X68737530Y-522751658D01*
X68521494Y-522967694D01*
X68267463Y-523137432D01*
X67985199Y-523254349D01*
X67835374Y-523284151D01*
X67685550Y-523313953D01*
X67380028Y-523313953D01*
X67230204Y-523284151D01*
X67080379Y-523254349D01*
X66798115Y-523137432D01*
X66544084Y-522967694D01*
X66328048Y-522751658D01*
X66158310Y-522497627D01*
X66041393Y-522215363D01*
X65981789Y-521915713D01*
X65981789Y-521610193D01*
X65993433Y-521551657D01*
X66033698Y-521349228D01*
X66041393Y-521310543D01*
X66158310Y-521028279D01*
X66328048Y-520774248D01*
X66544084Y-520558212D01*
X66798115Y-520388474D01*
X67080379Y-520271557D01*
X67230204Y-520241755D01*
X67380028Y-520211953D01*
X67685550Y-520211953D01*
X67835374Y-520241755D01*
X67835374Y-520241755D01*
G37*
G36*
X72158789Y-523113953D02*
G01*
X69456789Y-523113953D01*
X69456789Y-520411953D01*
X72158789Y-520411953D01*
X72158789Y-523113953D01*
X72158789Y-523113953D01*
G37*
G36*
X81547766Y-518815299D02*
G01*
X81869066Y-518948386D01*
X81869068Y-518948387D01*
X82158230Y-519141599D01*
X82404143Y-519387512D01*
X82553508Y-519611052D01*
X82597356Y-519676676D01*
X82730443Y-519997976D01*
X82798290Y-520339064D01*
X82798290Y-520686840D01*
X82730443Y-521027928D01*
X82618730Y-521297627D01*
X82597355Y-521349230D01*
X82404143Y-521638392D01*
X82158230Y-521884305D01*
X81869068Y-522077517D01*
X81869067Y-522077518D01*
X81869066Y-522077518D01*
X81547766Y-522210605D01*
X81206678Y-522278452D01*
X80858902Y-522278452D01*
X80517814Y-522210605D01*
X80196514Y-522077518D01*
X80196513Y-522077518D01*
X80196512Y-522077517D01*
X79907350Y-521884305D01*
X79661437Y-521638392D01*
X79468225Y-521349230D01*
X79446850Y-521297627D01*
X79335137Y-521027928D01*
X79267290Y-520686840D01*
X79267290Y-520339064D01*
X79335137Y-519997976D01*
X79468224Y-519676676D01*
X79512073Y-519611052D01*
X79661437Y-519387512D01*
X79907350Y-519141599D01*
X80196512Y-518948387D01*
X80196514Y-518948386D01*
X80517814Y-518815299D01*
X80858902Y-518747452D01*
X81206678Y-518747452D01*
X81547766Y-518815299D01*
X81547766Y-518815299D01*
G37*
G36*
X25771748Y-519029099D02*
G01*
X25985199Y-519071557D01*
X26267463Y-519188474D01*
X26521494Y-519358212D01*
X26737530Y-519574248D01*
X26907268Y-519828279D01*
X27013912Y-520085742D01*
X27024185Y-520110544D01*
X27083789Y-520410192D01*
X27083789Y-520715714D01*
X27071792Y-520776025D01*
X27024185Y-521015363D01*
X26907268Y-521297627D01*
X26737530Y-521551658D01*
X26521494Y-521767694D01*
X26267463Y-521937432D01*
X25985199Y-522054349D01*
X25868725Y-522077517D01*
X25685550Y-522113953D01*
X25380028Y-522113953D01*
X25196853Y-522077517D01*
X25080379Y-522054349D01*
X24798115Y-521937432D01*
X24544084Y-521767694D01*
X24328048Y-521551658D01*
X24158310Y-521297627D01*
X24041393Y-521015363D01*
X23993786Y-520776025D01*
X23981789Y-520715714D01*
X23981789Y-520410192D01*
X24041393Y-520110544D01*
X24051666Y-520085742D01*
X24158310Y-519828279D01*
X24328048Y-519574248D01*
X24544084Y-519358212D01*
X24798115Y-519188474D01*
X25080379Y-519071557D01*
X25293830Y-519029099D01*
X25380028Y-519011953D01*
X25685550Y-519011953D01*
X25771748Y-519029099D01*
X25771748Y-519029099D01*
G37*
G36*
X23608789Y-521913953D02*
G01*
X20906789Y-521913953D01*
X20906789Y-519211953D01*
X23608789Y-519211953D01*
X23608789Y-521913953D01*
X23608789Y-521913953D01*
G37*
G36*
X86708742Y-519628382D02*
G01*
X86795865Y-519645711D01*
X86900167Y-519688915D01*
X86960001Y-519713699D01*
X87106723Y-519811735D01*
X87107718Y-519812400D01*
X87233342Y-519938024D01*
X87233344Y-519938027D01*
X87332043Y-520085741D01*
X87354706Y-520140454D01*
X87400031Y-520249877D01*
X87400031Y-520249879D01*
X87434690Y-520424121D01*
X87434690Y-520601783D01*
X87431400Y-520618321D01*
X87400031Y-520776027D01*
X87374157Y-520838491D01*
X87332043Y-520940163D01*
X87234419Y-521086268D01*
X87233342Y-521087880D01*
X87107718Y-521213504D01*
X87107715Y-521213506D01*
X86960001Y-521312205D01*
X86905288Y-521334868D01*
X86795865Y-521380193D01*
X86708742Y-521397522D01*
X86621621Y-521414852D01*
X86443959Y-521414852D01*
X86356838Y-521397522D01*
X86269715Y-521380193D01*
X86160292Y-521334868D01*
X86105579Y-521312205D01*
X85957865Y-521213506D01*
X85957862Y-521213504D01*
X85832238Y-521087880D01*
X85831161Y-521086268D01*
X85733537Y-520940163D01*
X85691423Y-520838491D01*
X85665549Y-520776027D01*
X85634180Y-520618321D01*
X85630890Y-520601783D01*
X85630890Y-520424121D01*
X85665549Y-520249879D01*
X85665549Y-520249877D01*
X85710874Y-520140454D01*
X85733537Y-520085741D01*
X85832236Y-519938027D01*
X85832238Y-519938024D01*
X85957862Y-519812400D01*
X85958857Y-519811735D01*
X86105579Y-519713699D01*
X86165413Y-519688915D01*
X86269715Y-519645711D01*
X86356838Y-519628382D01*
X86443959Y-519611052D01*
X86621621Y-519611052D01*
X86708742Y-519628382D01*
X86708742Y-519628382D01*
G37*
G36*
X75708742Y-519628382D02*
G01*
X75795865Y-519645711D01*
X75900167Y-519688915D01*
X75960001Y-519713699D01*
X76106723Y-519811735D01*
X76107718Y-519812400D01*
X76233342Y-519938024D01*
X76233344Y-519938027D01*
X76332043Y-520085741D01*
X76354706Y-520140454D01*
X76400031Y-520249877D01*
X76400031Y-520249879D01*
X76434690Y-520424121D01*
X76434690Y-520601783D01*
X76431400Y-520618321D01*
X76400031Y-520776027D01*
X76374157Y-520838491D01*
X76332043Y-520940163D01*
X76234419Y-521086268D01*
X76233342Y-521087880D01*
X76107718Y-521213504D01*
X76107715Y-521213506D01*
X75960001Y-521312205D01*
X75905288Y-521334868D01*
X75795865Y-521380193D01*
X75708742Y-521397522D01*
X75621621Y-521414852D01*
X75443959Y-521414852D01*
X75356838Y-521397522D01*
X75269715Y-521380193D01*
X75160292Y-521334868D01*
X75105579Y-521312205D01*
X74957865Y-521213506D01*
X74957862Y-521213504D01*
X74832238Y-521087880D01*
X74831161Y-521086268D01*
X74733537Y-520940163D01*
X74691423Y-520838491D01*
X74665549Y-520776027D01*
X74634180Y-520618321D01*
X74630890Y-520601783D01*
X74630890Y-520424121D01*
X74665549Y-520249879D01*
X74665549Y-520249877D01*
X74710874Y-520140454D01*
X74733537Y-520085741D01*
X74832236Y-519938027D01*
X74832238Y-519938024D01*
X74957862Y-519812400D01*
X74958857Y-519811735D01*
X75105579Y-519713699D01*
X75165413Y-519688915D01*
X75269715Y-519645711D01*
X75356838Y-519628382D01*
X75443959Y-519611052D01*
X75621621Y-519611052D01*
X75708742Y-519628382D01*
X75708742Y-519628382D01*
G37*
G36*
X62835374Y-518041755D02*
G01*
X62985199Y-518071557D01*
X63267463Y-518188474D01*
X63521494Y-518358212D01*
X63737530Y-518574248D01*
X63907268Y-518828279D01*
X64024185Y-519110543D01*
X64024627Y-519112764D01*
X64079278Y-519387512D01*
X64083789Y-519410193D01*
X64083789Y-519715713D01*
X64024185Y-520015363D01*
X63907268Y-520297627D01*
X63737530Y-520551658D01*
X63521494Y-520767694D01*
X63267463Y-520937432D01*
X62985199Y-521054349D01*
X62835374Y-521084151D01*
X62685550Y-521113953D01*
X62380028Y-521113953D01*
X62230204Y-521084151D01*
X62080379Y-521054349D01*
X61798115Y-520937432D01*
X61544084Y-520767694D01*
X61328048Y-520551658D01*
X61158310Y-520297627D01*
X61041393Y-520015363D01*
X60981789Y-519715713D01*
X60981789Y-519410193D01*
X60986301Y-519387512D01*
X61040951Y-519112764D01*
X61041393Y-519110543D01*
X61158310Y-518828279D01*
X61328048Y-518574248D01*
X61544084Y-518358212D01*
X61798115Y-518188474D01*
X62080379Y-518071557D01*
X62230204Y-518041755D01*
X62380028Y-518011953D01*
X62685550Y-518011953D01*
X62835374Y-518041755D01*
X62835374Y-518041755D01*
G37*
G36*
X126486538Y-519303824D02*
G01*
X126552722Y-519310342D01*
X126722561Y-519361862D01*
X126879086Y-519445527D01*
X126914824Y-519474857D01*
X127016281Y-519558119D01*
X127088165Y-519645711D01*
X127128873Y-519695314D01*
X127212538Y-519851839D01*
X127264058Y-520021678D01*
X127281454Y-520198305D01*
X127264058Y-520374932D01*
X127212538Y-520544771D01*
X127128873Y-520701296D01*
X127117041Y-520715713D01*
X127016281Y-520838491D01*
X126924329Y-520913953D01*
X126879086Y-520951083D01*
X126722561Y-521034748D01*
X126552722Y-521086268D01*
X126486538Y-521092786D01*
X126420355Y-521099305D01*
X126331835Y-521099305D01*
X126265652Y-521092786D01*
X126199468Y-521086268D01*
X126029629Y-521034748D01*
X125873104Y-520951083D01*
X125827861Y-520913953D01*
X125735909Y-520838491D01*
X125635149Y-520715713D01*
X125623317Y-520701296D01*
X125539652Y-520544771D01*
X125488132Y-520374932D01*
X125470736Y-520198305D01*
X125488132Y-520021678D01*
X125539652Y-519851839D01*
X125623317Y-519695314D01*
X125664025Y-519645711D01*
X125735909Y-519558119D01*
X125837366Y-519474857D01*
X125873104Y-519445527D01*
X126029629Y-519361862D01*
X126199468Y-519310342D01*
X126265652Y-519303824D01*
X126331835Y-519297305D01*
X126420355Y-519297305D01*
X126486538Y-519303824D01*
X126486538Y-519303824D01*
G37*
G36*
X60608789Y-520913953D02*
G01*
X57906789Y-520913953D01*
X57906789Y-518211953D01*
X60608789Y-518211953D01*
X60608789Y-520913953D01*
X60608789Y-520913953D01*
G37*
G36*
X98666733Y-518971060D02*
G01*
X98732918Y-518977579D01*
X98902757Y-519029099D01*
X99059282Y-519112764D01*
X99094417Y-519141599D01*
X99196477Y-519225356D01*
X99255523Y-519297305D01*
X99309069Y-519362551D01*
X99392734Y-519519076D01*
X99444254Y-519688915D01*
X99461650Y-519865542D01*
X99444254Y-520042169D01*
X99392734Y-520212008D01*
X99309069Y-520368533D01*
X99279739Y-520404271D01*
X99196477Y-520505728D01*
X99095020Y-520588990D01*
X99059282Y-520618320D01*
X98902757Y-520701985D01*
X98732918Y-520753505D01*
X98666733Y-520760024D01*
X98600551Y-520766542D01*
X98512031Y-520766542D01*
X98445849Y-520760024D01*
X98379664Y-520753505D01*
X98209825Y-520701985D01*
X98053300Y-520618320D01*
X98017562Y-520588990D01*
X97916105Y-520505728D01*
X97832843Y-520404271D01*
X97803513Y-520368533D01*
X97719848Y-520212008D01*
X97668328Y-520042169D01*
X97650932Y-519865542D01*
X97668328Y-519688915D01*
X97719848Y-519519076D01*
X97803513Y-519362551D01*
X97857059Y-519297305D01*
X97916105Y-519225356D01*
X98018165Y-519141599D01*
X98053300Y-519112764D01*
X98209825Y-519029099D01*
X98379664Y-518977579D01*
X98445849Y-518971060D01*
X98512031Y-518964542D01*
X98600551Y-518964542D01*
X98666733Y-518971060D01*
X98666733Y-518971060D01*
G37*
G36*
X104537291Y-520766542D02*
G01*
X102735291Y-520766542D01*
X102735291Y-518964542D01*
X104537291Y-518964542D01*
X104537291Y-520766542D01*
X104537291Y-520766542D01*
G37*
G36*
X101206733Y-518971060D02*
G01*
X101272918Y-518977579D01*
X101442757Y-519029099D01*
X101599282Y-519112764D01*
X101634417Y-519141599D01*
X101736477Y-519225356D01*
X101795523Y-519297305D01*
X101849069Y-519362551D01*
X101932734Y-519519076D01*
X101984254Y-519688915D01*
X102001650Y-519865542D01*
X101984254Y-520042169D01*
X101932734Y-520212008D01*
X101849069Y-520368533D01*
X101819739Y-520404271D01*
X101736477Y-520505728D01*
X101635020Y-520588990D01*
X101599282Y-520618320D01*
X101442757Y-520701985D01*
X101272918Y-520753505D01*
X101206733Y-520760024D01*
X101140551Y-520766542D01*
X101052031Y-520766542D01*
X100985849Y-520760024D01*
X100919664Y-520753505D01*
X100749825Y-520701985D01*
X100593300Y-520618320D01*
X100557562Y-520588990D01*
X100456105Y-520505728D01*
X100372843Y-520404271D01*
X100343513Y-520368533D01*
X100259848Y-520212008D01*
X100208328Y-520042169D01*
X100190932Y-519865542D01*
X100208328Y-519688915D01*
X100259848Y-519519076D01*
X100343513Y-519362551D01*
X100397059Y-519297305D01*
X100456105Y-519225356D01*
X100558165Y-519141599D01*
X100593300Y-519112764D01*
X100749825Y-519029099D01*
X100919664Y-518977579D01*
X100985849Y-518971060D01*
X101052031Y-518964542D01*
X101140551Y-518964542D01*
X101206733Y-518971060D01*
X101206733Y-518971060D01*
G37*
G36*
X96126733Y-518971060D02*
G01*
X96192918Y-518977579D01*
X96362757Y-519029099D01*
X96519282Y-519112764D01*
X96554417Y-519141599D01*
X96656477Y-519225356D01*
X96715523Y-519297305D01*
X96769069Y-519362551D01*
X96852734Y-519519076D01*
X96904254Y-519688915D01*
X96921650Y-519865542D01*
X96904254Y-520042169D01*
X96852734Y-520212008D01*
X96769069Y-520368533D01*
X96739739Y-520404271D01*
X96656477Y-520505728D01*
X96555020Y-520588990D01*
X96519282Y-520618320D01*
X96362757Y-520701985D01*
X96192918Y-520753505D01*
X96126733Y-520760024D01*
X96060551Y-520766542D01*
X95972031Y-520766542D01*
X95905849Y-520760024D01*
X95839664Y-520753505D01*
X95669825Y-520701985D01*
X95513300Y-520618320D01*
X95477562Y-520588990D01*
X95376105Y-520505728D01*
X95292843Y-520404271D01*
X95263513Y-520368533D01*
X95179848Y-520212008D01*
X95128328Y-520042169D01*
X95110932Y-519865542D01*
X95128328Y-519688915D01*
X95179848Y-519519076D01*
X95263513Y-519362551D01*
X95317059Y-519297305D01*
X95376105Y-519225356D01*
X95478165Y-519141599D01*
X95513300Y-519112764D01*
X95669825Y-519029099D01*
X95839664Y-518977579D01*
X95905849Y-518971060D01*
X95972031Y-518964542D01*
X96060551Y-518964542D01*
X96126733Y-518971060D01*
X96126733Y-518971060D01*
G37*
G36*
X86335375Y-515241754D02*
G01*
X86485200Y-515271556D01*
X86767464Y-515388473D01*
X87021495Y-515558211D01*
X87237531Y-515774247D01*
X87407269Y-516028278D01*
X87524186Y-516310542D01*
X87583790Y-516610192D01*
X87583790Y-516915712D01*
X87524186Y-517215362D01*
X87407269Y-517497626D01*
X87237531Y-517751657D01*
X87021495Y-517967693D01*
X86767464Y-518137431D01*
X86485200Y-518254348D01*
X86335375Y-518284150D01*
X86185551Y-518313952D01*
X85880029Y-518313952D01*
X85730205Y-518284150D01*
X85580380Y-518254348D01*
X85298116Y-518137431D01*
X85044085Y-517967693D01*
X84828049Y-517751657D01*
X84658311Y-517497626D01*
X84541394Y-517215362D01*
X84481790Y-516915712D01*
X84481790Y-516610192D01*
X84541394Y-516310542D01*
X84658311Y-516028278D01*
X84828049Y-515774247D01*
X85044085Y-515558211D01*
X85298116Y-515388473D01*
X85580380Y-515271556D01*
X85730205Y-515241754D01*
X85880029Y-515211952D01*
X86185551Y-515211952D01*
X86335375Y-515241754D01*
X86335375Y-515241754D01*
G37*
G36*
X90658790Y-518113952D02*
G01*
X87956790Y-518113952D01*
X87956790Y-515411952D01*
X90658790Y-515411952D01*
X90658790Y-518113952D01*
X90658790Y-518113952D01*
G37*
G36*
X81335375Y-513041754D02*
G01*
X81485200Y-513071556D01*
X81767464Y-513188473D01*
X82021495Y-513358211D01*
X82237531Y-513574247D01*
X82407269Y-513828278D01*
X82524186Y-514110542D01*
X82583790Y-514410192D01*
X82583790Y-514715712D01*
X82524186Y-515015362D01*
X82407269Y-515297626D01*
X82237531Y-515551657D01*
X82021495Y-515767693D01*
X81767464Y-515937431D01*
X81485200Y-516054348D01*
X81335375Y-516084150D01*
X81185551Y-516113952D01*
X80880029Y-516113952D01*
X80730205Y-516084150D01*
X80580380Y-516054348D01*
X80298116Y-515937431D01*
X80044085Y-515767693D01*
X79828049Y-515551657D01*
X79658311Y-515297626D01*
X79541394Y-515015362D01*
X79481790Y-514715712D01*
X79481790Y-514410192D01*
X79541394Y-514110542D01*
X79658311Y-513828278D01*
X79828049Y-513574247D01*
X80044085Y-513358211D01*
X80298116Y-513188473D01*
X80580380Y-513071556D01*
X80730205Y-513041754D01*
X80880029Y-513011952D01*
X81185551Y-513011952D01*
X81335375Y-513041754D01*
X81335375Y-513041754D01*
G37*
G36*
X79108790Y-515913952D02*
G01*
X76406790Y-515913952D01*
X76406790Y-513211952D01*
X79108790Y-513211952D01*
X79108790Y-515913952D01*
X79108790Y-515913952D01*
G37*
M02*
