M48
; DRILL file {KiCad (5.1.4)-1} date 2/11/2023 5:21:31 PM
; FORMAT={-:-/ absolute / metric / decimal}
; #@! TF.CreationDate,2023-02-11T17:21:31-05:00
; #@! TF.GenerationSoftware,Kicad,Pcbnew,(5.1.4)-1
; #@! TF.FileFunction,Plated,1,2,PTH
FMAT,2
METRIC
T1C1.000
T2C1.470
%
G90
G05
T1
X100.096Y-498.316
X126.441Y-554.805
X54.033Y-578.693
X54.033Y-581.233
X54.033Y-583.773
X54.033Y-586.313
X108.833Y-598.613
X111.286Y-599.27
X113.74Y-599.928
X116.193Y-600.585
X96.016Y-518.316
X98.556Y-518.316
X101.096Y-518.316
X103.636Y-518.316
X95.016Y-498.316
X97.556Y-498.316
X102.636Y-498.316
X95.877Y-556.521
X98.417Y-556.521
X100.957Y-556.521
X103.497Y-556.521
X126.441Y-549.725
X126.441Y-552.265
X126.441Y-557.345
X96.034Y-537.435
X98.574Y-537.435
X101.114Y-537.435
X103.654Y-537.435
X126.376Y-499.598
X126.376Y-502.138
X126.376Y-504.678
X126.376Y-507.218
T2
X39.123Y-507.36
X40.433Y-505.9
X45.433Y-505.4
X45.473Y-504.82
X77.223Y-516.423
X78.533Y-514.963
X83.533Y-514.463
X83.573Y-513.883
X58.173Y-540.473
X59.483Y-539.013
X64.483Y-538.513
X64.523Y-537.933
X20.073Y-522.423
X21.383Y-520.963
X26.383Y-520.463
X26.423Y-519.883
X77.223Y-554.523
X78.533Y-553.063
X83.533Y-552.563
X83.573Y-551.983
X58.173Y-502.36
X59.483Y-500.9
X64.483Y-500.4
X64.523Y-499.82
X77.223Y-497.36
X78.533Y-495.9
X83.533Y-495.4
X83.573Y-494.82
X58.173Y-521.423
X59.483Y-519.963
X64.483Y-519.463
X64.523Y-518.883
X39.123Y-545.473
X40.433Y-544.013
X45.433Y-543.513
X45.473Y-542.933
X20.073Y-541.473
X21.383Y-540.013
X26.383Y-539.513
X26.423Y-538.933
X39.123Y-526.423
X40.433Y-524.963
X45.433Y-524.463
X45.473Y-523.883
X58.173Y-559.523
X59.483Y-558.063
X64.483Y-557.563
X64.523Y-556.983
X20.073Y-503.36
X21.383Y-501.9
X26.383Y-501.4
X26.423Y-500.82
X21.343Y-568.143
X21.383Y-567.563
X26.383Y-567.063
X27.693Y-565.603
X77.223Y-535.473
X78.533Y-534.013
X83.533Y-533.513
X83.573Y-532.933
X39.123Y-564.523
X40.433Y-563.063
X45.433Y-562.563
X45.473Y-561.983
T0
M30
