G04 #@! TF.GenerationSoftware,KiCad,Pcbnew,(5.1.4)-1*
G04 #@! TF.CreationDate,2023-01-09T13:43:39-05:00*
G04 #@! TF.ProjectId,ThumbsUp,5468756d-6273-4557-902e-6b696361645f,rev?*
G04 #@! TF.SameCoordinates,Original*
G04 #@! TF.FileFunction,Copper,L2,Bot*
G04 #@! TF.FilePolarity,Positive*
%FSLAX46Y46*%
G04 Gerber Fmt 4.6, Leading zero omitted, Abs format (unit mm)*
G04 Created by KiCad (PCBNEW (5.1.4)-1) date 2023-01-09 13:43:39*
%MOMM*%
%LPD*%
G04 APERTURE LIST*
%ADD10O,1.700000X1.700000*%
%ADD11R,1.700000X1.700000*%
%ADD12R,2.600000X2.600000*%
%ADD13C,1.700000*%
%ADD14C,1.700000*%
%ADD15C,0.100000*%
%ADD16C,0.250000*%
G04 APERTURE END LIST*
D10*
X95876974Y-554970972D03*
X98416974Y-554970972D03*
X100956974Y-554970972D03*
D11*
X103496974Y-554970972D03*
D10*
X96034161Y-537435202D03*
X98574161Y-537435202D03*
X101114161Y-537435202D03*
D11*
X103654161Y-537435202D03*
D10*
X96016291Y-519865542D03*
X98556291Y-519865542D03*
X101096291Y-519865542D03*
D11*
X103636291Y-519865542D03*
D10*
X126440599Y-568274893D03*
X126440599Y-570814893D03*
X126440599Y-573354893D03*
D11*
X126440599Y-575894893D03*
D10*
X126376095Y-520198305D03*
X126376095Y-522738305D03*
X126376095Y-525278305D03*
D11*
X126376095Y-527818305D03*
D12*
X40757789Y-559562952D03*
X52307789Y-561762952D03*
X59257789Y-537062952D03*
X70807789Y-539262952D03*
X59257790Y-554562952D03*
X70807790Y-556762952D03*
X77757790Y-514562952D03*
X89307790Y-516762952D03*
X77757789Y-532062952D03*
X89307789Y-534262952D03*
X77757789Y-549562952D03*
X89307789Y-551762952D03*
X40757790Y-542062952D03*
X52307790Y-544262952D03*
X59257789Y-519562953D03*
X70807789Y-521762953D03*
D10*
X54032789Y-586312952D03*
X54032789Y-583772952D03*
X54032789Y-581232952D03*
D11*
X54032789Y-578692952D03*
D13*
X116193145Y-600585153D03*
D14*
X116193145Y-600585153D02*
X116193145Y-600585153D01*
D13*
X113739693Y-599927753D03*
D14*
X113739693Y-599927753D02*
X113739693Y-599927753D01*
D13*
X111286242Y-599270352D03*
D14*
X111286242Y-599270352D02*
X111286242Y-599270352D01*
D13*
X108832790Y-598612952D03*
D15*
G36*
X109433831Y-599653985D02*
G01*
X107791757Y-599213993D01*
X108231749Y-597571919D01*
X109873823Y-598011911D01*
X109433831Y-599653985D01*
X109433831Y-599653985D01*
G37*
D12*
X40757789Y-524562952D03*
X52307789Y-526762952D03*
X22257790Y-538062952D03*
X33807790Y-540262952D03*
X22257789Y-520562953D03*
X33807789Y-522762953D03*
X22257789Y-555562952D03*
X33807789Y-557762952D03*
D16*
X116193145Y-599383072D02*
X116193145Y-600585153D01*
X109000000Y-591063590D02*
X116193145Y-598256735D01*
X91868967Y-540868967D02*
X104718489Y-540868967D01*
X89307789Y-538307789D02*
X91868967Y-540868967D01*
X104718489Y-540868967D02*
X109000000Y-545150478D01*
X89307789Y-534262952D02*
X89307789Y-538307789D01*
X109000000Y-545150478D02*
X109000000Y-591063590D01*
X116193145Y-598256735D02*
X116193145Y-599383072D01*
X72266974Y-539262952D02*
X70807789Y-539262952D01*
X113739693Y-596439694D02*
X108549989Y-591249990D01*
X108549989Y-591249990D02*
X108549989Y-545233641D01*
X113739693Y-599927753D02*
X113739693Y-596439694D01*
X108549989Y-545233641D02*
X104562326Y-541245978D01*
X104562326Y-541245978D02*
X74250000Y-541245978D01*
X74250000Y-541245978D02*
X72266974Y-539262952D01*
X111286242Y-594622654D02*
X111286242Y-598068271D01*
X108099978Y-591436390D02*
X111286242Y-594622654D01*
X108099978Y-545316804D02*
X108099978Y-591436390D01*
X53857790Y-544262952D02*
X58120742Y-540000000D01*
X52307790Y-544262952D02*
X53857790Y-544262952D01*
X111286242Y-598068271D02*
X111286242Y-599270352D01*
X58120742Y-540000000D02*
X64000000Y-540000000D01*
X65622989Y-541622989D02*
X104406163Y-541622989D01*
X64000000Y-540000000D02*
X65622989Y-541622989D01*
X104406163Y-541622989D02*
X108099978Y-545316804D01*
X33807790Y-546607790D02*
X33807790Y-541812952D01*
X108832790Y-598612952D02*
X107649967Y-597430129D01*
X107649967Y-545399967D02*
X104250000Y-542000000D01*
X38100000Y-550900000D02*
X33807790Y-546607790D01*
X107649967Y-597430129D02*
X107649967Y-545399967D01*
X104250000Y-542000000D02*
X78066348Y-542000000D01*
X33807790Y-541812952D02*
X33807790Y-540262952D01*
X65600000Y-550900000D02*
X38100000Y-550900000D01*
X78062327Y-542004021D02*
X74495979Y-542004021D01*
X74495979Y-542004021D02*
X65600000Y-550900000D01*
X78066348Y-542000000D02*
X78062327Y-542004021D01*
X33807789Y-524312953D02*
X33807789Y-522762953D01*
X55250000Y-528800000D02*
X50350000Y-533700000D01*
X126394893Y-575894893D02*
X114550000Y-564050000D01*
X50350000Y-533700000D02*
X38600000Y-533700000D01*
X114550000Y-564050000D02*
X114550000Y-558409233D01*
X114550000Y-558409233D02*
X114549967Y-558409200D01*
X33807789Y-528907789D02*
X33807789Y-524312953D01*
X114549967Y-558409200D02*
X114549967Y-542909197D01*
X38600000Y-533700000D02*
X33807789Y-528907789D01*
X100440770Y-528800000D02*
X55250000Y-528800000D01*
X126440599Y-575894893D02*
X126394893Y-575894893D01*
X114549967Y-542909197D02*
X100440770Y-528800000D01*
X114999978Y-558222800D02*
X115000011Y-558222833D01*
X115000011Y-561914305D02*
X125590600Y-572504894D01*
X125590600Y-572504894D02*
X126440599Y-573354893D01*
X115000011Y-558222833D02*
X115000011Y-561914305D01*
X53857789Y-526762952D02*
X55394837Y-528300000D01*
X114999978Y-542722798D02*
X114999978Y-558222800D01*
X100577180Y-528300000D02*
X114999978Y-542722798D01*
X55394837Y-528300000D02*
X100577180Y-528300000D01*
X52307789Y-526762952D02*
X53857789Y-526762952D01*
X78344836Y-527750000D02*
X100663590Y-527750000D01*
X125590600Y-569964894D02*
X126440599Y-570814893D01*
X115450022Y-559824316D02*
X125590600Y-569964894D01*
X115450022Y-558036433D02*
X115450022Y-559824316D01*
X115449989Y-542536399D02*
X115449989Y-558036400D01*
X100663590Y-527750000D02*
X115449989Y-542536399D01*
X72357789Y-521762953D02*
X78344836Y-527750000D01*
X70807789Y-521762953D02*
X72357789Y-521762953D01*
X115449989Y-558036400D02*
X115450022Y-558036433D01*
X126324893Y-568274893D02*
X126440599Y-568274893D01*
X91800000Y-527250000D02*
X100800000Y-527250000D01*
X115900000Y-557850000D02*
X126324893Y-568274893D01*
X100800000Y-527250000D02*
X115900000Y-542350000D01*
X89307790Y-516762952D02*
X89307790Y-524757790D01*
X89307790Y-524757790D02*
X91800000Y-527250000D01*
X115900000Y-542350000D02*
X115900000Y-557850000D01*
X22257789Y-519012953D02*
X22257789Y-520562953D01*
X23570742Y-517700000D02*
X22257789Y-519012953D01*
X59200000Y-517955164D02*
X59200000Y-517700000D01*
X59257789Y-518012953D02*
X59200000Y-517955164D01*
X59257789Y-519562953D02*
X59257789Y-518012953D01*
X40800000Y-522970741D02*
X40800000Y-517700000D01*
X40757789Y-523012952D02*
X40800000Y-522970741D01*
X40757789Y-524562952D02*
X40757789Y-523012952D01*
X59200000Y-517700000D02*
X40800000Y-517700000D01*
X40800000Y-517700000D02*
X23570742Y-517700000D01*
X22257790Y-536512952D02*
X22257790Y-538062952D01*
X24620732Y-534150010D02*
X22257790Y-536512952D01*
X76207789Y-532062952D02*
X74120731Y-534150010D01*
X77757789Y-532062952D02*
X76207789Y-532062952D01*
X74120731Y-534150010D02*
X59449990Y-534150010D01*
X40649990Y-540405152D02*
X40649990Y-534150010D01*
X40757790Y-540512952D02*
X40649990Y-540405152D01*
X40757790Y-542062952D02*
X40757790Y-540512952D01*
X59449990Y-534150010D02*
X40649990Y-534150010D01*
X40649990Y-534150010D02*
X24620732Y-534150010D01*
X59257789Y-534342211D02*
X59449990Y-534150010D01*
X59257789Y-537062952D02*
X59257789Y-534342211D01*
X22257789Y-554012952D02*
X22257789Y-555562952D01*
X24770741Y-551500000D02*
X22257789Y-554012952D01*
X59200000Y-552955162D02*
X59200000Y-551500000D01*
X59257790Y-553012952D02*
X59200000Y-552955162D01*
X59257790Y-554562952D02*
X59257790Y-553012952D01*
X40700000Y-557955163D02*
X40700000Y-551500000D01*
X40757789Y-558012952D02*
X40700000Y-557955163D01*
X40757789Y-559562952D02*
X40757789Y-558012952D01*
X59200000Y-551500000D02*
X40700000Y-551500000D01*
X40700000Y-551500000D02*
X24770741Y-551500000D01*
X22257789Y-555562952D02*
X22257789Y-520562953D01*
X77944190Y-514112942D02*
X78075995Y-514244747D01*
X77944190Y-513231712D02*
X77944190Y-514112942D01*
X78875902Y-512300000D02*
X77944190Y-513231712D01*
X96016291Y-519865542D02*
X88450749Y-512300000D01*
X88450749Y-512300000D02*
X78875902Y-512300000D01*
X59680000Y-517220000D02*
X59200000Y-517700000D01*
X73550742Y-517220000D02*
X59680000Y-517220000D01*
X77757790Y-514562952D02*
X76207790Y-514562952D01*
X76207790Y-514562952D02*
X73550742Y-517220000D01*
X70475000Y-551500000D02*
X59200000Y-551500000D01*
X77757789Y-549562952D02*
X72412048Y-549562952D01*
X72412048Y-549562952D02*
X70475000Y-551500000D01*
X103654161Y-537435202D02*
X103654161Y-538535202D01*
X101114161Y-537435202D02*
X101114161Y-537985839D01*
X33807789Y-565207789D02*
X33807789Y-559312952D01*
X37400000Y-568800000D02*
X33807789Y-565207789D01*
X102445980Y-574354020D02*
X80787672Y-574354020D01*
X103496974Y-556070972D02*
X107004021Y-559578019D01*
X103496974Y-554970972D02*
X103496974Y-556070972D01*
X107004021Y-559578019D02*
X107004021Y-569795979D01*
X80787672Y-574354020D02*
X75233652Y-568800000D01*
X107004021Y-569795979D02*
X102445980Y-574354020D01*
X33807789Y-559312952D02*
X33807789Y-557762952D01*
X75233652Y-568800000D02*
X37400000Y-568800000D01*
X106627010Y-560641008D02*
X106627010Y-569639816D01*
X53857789Y-561762952D02*
X52307789Y-561762952D01*
X106627010Y-569639816D02*
X102289817Y-573977009D01*
X55794837Y-563700000D02*
X53857789Y-561762952D01*
X70666826Y-563700000D02*
X55794837Y-563700000D01*
X80943835Y-573977009D02*
X70666826Y-563700000D01*
X102289817Y-573977009D02*
X80943835Y-573977009D01*
X100956974Y-554970972D02*
X106627010Y-560641008D01*
X106249999Y-562803997D02*
X106249999Y-569483653D01*
X106249999Y-569483653D02*
X102133654Y-573599998D01*
X81099998Y-573599998D02*
X70750000Y-563250000D01*
X70750000Y-563250000D02*
X70750000Y-558370742D01*
X70807790Y-558312952D02*
X70807790Y-556762952D01*
X70750000Y-558370742D02*
X70807790Y-558312952D01*
X102133654Y-573599998D02*
X81099998Y-573599998D01*
X98416974Y-554970972D02*
X106249999Y-562803997D01*
X89307789Y-553312952D02*
X89307789Y-551762952D01*
X90965809Y-554970972D02*
X89307789Y-553312952D01*
X95876974Y-554970972D02*
X90965809Y-554970972D01*
M02*
