M48
; DRILL file {KiCad (5.1.4)-1} date 1/9/2023 1:43:43 PM
; FORMAT={-:-/ absolute / metric / decimal}
; #@! TF.CreationDate,2023-01-09T13:43:43-05:00
; #@! TF.GenerationSoftware,Kicad,Pcbnew,(5.1.4)-1
; #@! TF.FileFunction,NonPlated,1,2,NPTH
FMAT,2
METRIC
T1C1.702
T2C3.000
T3C3.429
%
G90
G05
T1
X38.533Y-530.513
X49.533Y-530.513
X38.533Y-565.513
X49.533Y-565.513
X57.033Y-543.013
X68.033Y-543.013
X57.033Y-525.513
X68.033Y-525.513
X75.533Y-520.513
X86.533Y-520.513
X20.033Y-561.513
X31.033Y-561.513
X20.033Y-544.013
X31.033Y-544.013
X38.533Y-548.013
X49.533Y-548.013
X75.533Y-555.513
X86.533Y-555.513
X20.033Y-526.513
X31.033Y-526.513
X75.533Y-538.013
X86.533Y-538.013
X57.033Y-560.513
X68.033Y-560.513
T2
X81.033Y-532.063
X86.033Y-534.263
X62.533Y-554.563
X67.533Y-556.763
X44.033Y-524.563
X49.033Y-526.763
X44.033Y-559.563
X49.033Y-561.763
X62.533Y-537.063
X67.533Y-539.263
X62.533Y-519.563
X67.533Y-521.763
X81.033Y-514.563
X86.033Y-516.763
X25.533Y-555.563
X30.533Y-557.763
X25.533Y-538.063
X30.533Y-540.263
X44.033Y-542.063
X49.033Y-544.263
X81.033Y-549.563
X86.033Y-551.763
X25.533Y-520.563
X30.533Y-522.763
T3
X25.533Y-544.013
X44.033Y-548.013
X81.033Y-555.513
X25.533Y-526.513
X81.033Y-538.013
X62.533Y-560.513
X44.033Y-530.513
X44.033Y-565.513
X62.533Y-543.013
X62.533Y-525.513
X81.033Y-520.513
X25.533Y-561.513
T0
M30
