M48
; DRILL file {KiCad (5.1.4)-1} date 2/10/2023 9:13:38 PM
; FORMAT={-:-/ absolute / metric / decimal}
; #@! TF.CreationDate,2023-02-10T21:13:38-05:00
; #@! TF.GenerationSoftware,Kicad,Pcbnew,(5.1.4)-1
; #@! TF.FileFunction,Plated,1,2,PTH
FMAT,2
METRIC
T1C1.000
T2C1.470
%
G90
G05
T1
X154.054Y-343.179
X192.777Y-339.044
X180.186Y-346.731
X182.726Y-346.731
X185.266Y-346.731
X187.806Y-346.731
X159.231Y-323.105
X161.685Y-323.762
X164.138Y-324.42
X166.592Y-325.077
X154.054Y-335.559
X154.054Y-338.099
X154.054Y-340.639
X192.777Y-341.584
X192.777Y-344.124
X192.777Y-346.664
T2
X162.26Y-342.132
X162.3Y-341.552
X167.3Y-341.052
X168.61Y-339.592
X181.34Y-342.132
X181.38Y-341.552
X186.38Y-341.052
X187.69Y-339.592
T0
M30
