G04 #@! TF.GenerationSoftware,KiCad,Pcbnew,(5.1.4)-1*
G04 #@! TF.CreationDate,2023-01-09T13:42:42-05:00*
G04 #@! TF.ProjectId,ThumbsUp,5468756d-6273-4557-902e-6b696361645f,rev?*
G04 #@! TF.SameCoordinates,Original*
G04 #@! TF.FileFunction,Soldermask,Top*
G04 #@! TF.FilePolarity,Negative*
%FSLAX46Y46*%
G04 Gerber Fmt 4.6, Leading zero omitted, Abs format (unit mm)*
G04 Created by KiCad (PCBNEW (5.1.4)-1) date 2023-01-09 13:42:42*
%MOMM*%
%LPD*%
G04 APERTURE LIST*
%ADD10C,0.100000*%
G04 APERTURE END LIST*
D10*
G36*
X182836574Y-365836563D02*
G01*
X182902759Y-365843082D01*
X183072598Y-365894602D01*
X183229123Y-365978267D01*
X183264861Y-366007597D01*
X183366318Y-366090859D01*
X183449580Y-366192316D01*
X183478910Y-366228054D01*
X183562575Y-366384579D01*
X183614095Y-366554418D01*
X183631491Y-366731045D01*
X183614095Y-366907672D01*
X183562575Y-367077511D01*
X183478910Y-367234036D01*
X183449580Y-367269774D01*
X183366318Y-367371231D01*
X183264861Y-367454493D01*
X183229123Y-367483823D01*
X183072598Y-367567488D01*
X182902759Y-367619008D01*
X182836575Y-367625526D01*
X182770392Y-367632045D01*
X182681872Y-367632045D01*
X182615689Y-367625526D01*
X182549505Y-367619008D01*
X182379666Y-367567488D01*
X182223141Y-367483823D01*
X182187403Y-367454493D01*
X182085946Y-367371231D01*
X182002684Y-367269774D01*
X181973354Y-367234036D01*
X181889689Y-367077511D01*
X181838169Y-366907672D01*
X181820773Y-366731045D01*
X181838169Y-366554418D01*
X181889689Y-366384579D01*
X181973354Y-366228054D01*
X182002684Y-366192316D01*
X182085946Y-366090859D01*
X182187403Y-366007597D01*
X182223141Y-365978267D01*
X182379666Y-365894602D01*
X182549505Y-365843082D01*
X182615690Y-365836563D01*
X182681872Y-365830045D01*
X182770392Y-365830045D01*
X182836574Y-365836563D01*
X182836574Y-365836563D01*
G37*
G36*
X180296574Y-365836563D02*
G01*
X180362759Y-365843082D01*
X180532598Y-365894602D01*
X180689123Y-365978267D01*
X180724861Y-366007597D01*
X180826318Y-366090859D01*
X180909580Y-366192316D01*
X180938910Y-366228054D01*
X181022575Y-366384579D01*
X181074095Y-366554418D01*
X181091491Y-366731045D01*
X181074095Y-366907672D01*
X181022575Y-367077511D01*
X180938910Y-367234036D01*
X180909580Y-367269774D01*
X180826318Y-367371231D01*
X180724861Y-367454493D01*
X180689123Y-367483823D01*
X180532598Y-367567488D01*
X180362759Y-367619008D01*
X180296575Y-367625526D01*
X180230392Y-367632045D01*
X180141872Y-367632045D01*
X180075689Y-367625526D01*
X180009505Y-367619008D01*
X179839666Y-367567488D01*
X179683141Y-367483823D01*
X179647403Y-367454493D01*
X179545946Y-367371231D01*
X179462684Y-367269774D01*
X179433354Y-367234036D01*
X179349689Y-367077511D01*
X179298169Y-366907672D01*
X179280773Y-366731045D01*
X179298169Y-366554418D01*
X179349689Y-366384579D01*
X179433354Y-366228054D01*
X179462684Y-366192316D01*
X179545946Y-366090859D01*
X179647403Y-366007597D01*
X179683141Y-365978267D01*
X179839666Y-365894602D01*
X180009505Y-365843082D01*
X180075690Y-365836563D01*
X180141872Y-365830045D01*
X180230392Y-365830045D01*
X180296574Y-365836563D01*
X180296574Y-365836563D01*
G37*
G36*
X188707132Y-367632045D02*
G01*
X186905132Y-367632045D01*
X186905132Y-365830045D01*
X188707132Y-365830045D01*
X188707132Y-367632045D01*
X188707132Y-367632045D01*
G37*
G36*
X185376574Y-365836563D02*
G01*
X185442759Y-365843082D01*
X185612598Y-365894602D01*
X185769123Y-365978267D01*
X185804861Y-366007597D01*
X185906318Y-366090859D01*
X185989580Y-366192316D01*
X186018910Y-366228054D01*
X186102575Y-366384579D01*
X186154095Y-366554418D01*
X186171491Y-366731045D01*
X186154095Y-366907672D01*
X186102575Y-367077511D01*
X186018910Y-367234036D01*
X185989580Y-367269774D01*
X185906318Y-367371231D01*
X185804861Y-367454493D01*
X185769123Y-367483823D01*
X185612598Y-367567488D01*
X185442759Y-367619008D01*
X185376575Y-367625526D01*
X185310392Y-367632045D01*
X185221872Y-367632045D01*
X185155689Y-367625526D01*
X185089505Y-367619008D01*
X184919666Y-367567488D01*
X184763141Y-367483823D01*
X184727403Y-367454493D01*
X184625946Y-367371231D01*
X184542684Y-367269774D01*
X184513354Y-367234036D01*
X184429689Y-367077511D01*
X184378169Y-366907672D01*
X184360773Y-366731045D01*
X184378169Y-366554418D01*
X184429689Y-366384579D01*
X184513354Y-366228054D01*
X184542684Y-366192316D01*
X184625946Y-366090859D01*
X184727403Y-366007597D01*
X184763141Y-365978267D01*
X184919666Y-365894602D01*
X185089505Y-365843082D01*
X185155690Y-365836563D01*
X185221872Y-365830045D01*
X185310392Y-365830045D01*
X185376574Y-365836563D01*
X185376574Y-365836563D01*
G37*
G36*
X192887430Y-365769092D02*
G01*
X192953614Y-365775610D01*
X193123453Y-365827130D01*
X193279978Y-365910795D01*
X193315716Y-365940125D01*
X193417173Y-366023387D01*
X193500435Y-366124844D01*
X193529765Y-366160582D01*
X193613430Y-366317107D01*
X193664950Y-366486946D01*
X193682346Y-366663573D01*
X193664950Y-366840200D01*
X193613430Y-367010039D01*
X193529765Y-367166564D01*
X193500435Y-367202302D01*
X193417173Y-367303759D01*
X193315716Y-367387021D01*
X193279978Y-367416351D01*
X193123453Y-367500016D01*
X192953614Y-367551536D01*
X192887429Y-367558055D01*
X192821247Y-367564573D01*
X192732727Y-367564573D01*
X192666545Y-367558055D01*
X192600360Y-367551536D01*
X192430521Y-367500016D01*
X192273996Y-367416351D01*
X192238258Y-367387021D01*
X192136801Y-367303759D01*
X192053539Y-367202302D01*
X192024209Y-367166564D01*
X191940544Y-367010039D01*
X191889024Y-366840200D01*
X191871628Y-366663573D01*
X191889024Y-366486946D01*
X191940544Y-366317107D01*
X192024209Y-366160582D01*
X192053539Y-366124844D01*
X192136801Y-366023387D01*
X192238258Y-365940125D01*
X192273996Y-365910795D01*
X192430521Y-365827130D01*
X192600360Y-365775610D01*
X192666544Y-365769092D01*
X192732727Y-365762573D01*
X192821247Y-365762573D01*
X192887430Y-365769092D01*
X192887430Y-365769092D01*
G37*
G36*
X192887430Y-363229092D02*
G01*
X192953614Y-363235610D01*
X193123453Y-363287130D01*
X193279978Y-363370795D01*
X193315716Y-363400125D01*
X193417173Y-363483387D01*
X193500435Y-363584844D01*
X193529765Y-363620582D01*
X193613430Y-363777107D01*
X193664950Y-363946946D01*
X193682346Y-364123573D01*
X193664950Y-364300200D01*
X193613430Y-364470039D01*
X193529765Y-364626564D01*
X193500435Y-364662302D01*
X193417173Y-364763759D01*
X193315716Y-364847021D01*
X193279978Y-364876351D01*
X193123453Y-364960016D01*
X192953614Y-365011536D01*
X192887429Y-365018055D01*
X192821247Y-365024573D01*
X192732727Y-365024573D01*
X192666545Y-365018055D01*
X192600360Y-365011536D01*
X192430521Y-364960016D01*
X192273996Y-364876351D01*
X192238258Y-364847021D01*
X192136801Y-364763759D01*
X192053539Y-364662302D01*
X192024209Y-364626564D01*
X191940544Y-364470039D01*
X191889024Y-364300200D01*
X191871628Y-364123573D01*
X191889024Y-363946946D01*
X191940544Y-363777107D01*
X192024209Y-363620582D01*
X192053539Y-363584844D01*
X192136801Y-363483387D01*
X192238258Y-363400125D01*
X192273996Y-363370795D01*
X192430521Y-363287130D01*
X192600360Y-363235610D01*
X192666544Y-363229092D01*
X192732727Y-363222573D01*
X192821247Y-363222573D01*
X192887430Y-363229092D01*
X192887430Y-363229092D01*
G37*
G36*
X165682130Y-361480720D02*
G01*
X165831955Y-361510522D01*
X166114219Y-361627439D01*
X166368250Y-361797177D01*
X166584286Y-362013213D01*
X166754024Y-362267244D01*
X166870941Y-362549508D01*
X166930545Y-362849158D01*
X166930545Y-363154678D01*
X166870941Y-363454328D01*
X166754024Y-363736592D01*
X166584286Y-363990623D01*
X166368250Y-364206659D01*
X166114219Y-364376397D01*
X165831955Y-364493314D01*
X165682130Y-364523116D01*
X165532306Y-364552918D01*
X165226784Y-364552918D01*
X165076960Y-364523116D01*
X164927135Y-364493314D01*
X164644871Y-364376397D01*
X164390840Y-364206659D01*
X164174804Y-363990623D01*
X164005066Y-363736592D01*
X163888149Y-363454328D01*
X163828545Y-363154678D01*
X163828545Y-362849158D01*
X163888149Y-362549508D01*
X164005066Y-362267244D01*
X164174804Y-362013213D01*
X164390840Y-361797177D01*
X164644871Y-361627439D01*
X164927135Y-361510522D01*
X165076960Y-361480720D01*
X165226784Y-361450918D01*
X165532306Y-361450918D01*
X165682130Y-361480720D01*
X165682130Y-361480720D01*
G37*
G36*
X184182130Y-361480720D02*
G01*
X184331955Y-361510522D01*
X184614219Y-361627439D01*
X184868250Y-361797177D01*
X185084286Y-362013213D01*
X185254024Y-362267244D01*
X185370941Y-362549508D01*
X185430545Y-362849158D01*
X185430545Y-363154678D01*
X185370941Y-363454328D01*
X185254024Y-363736592D01*
X185084286Y-363990623D01*
X184868250Y-364206659D01*
X184614219Y-364376397D01*
X184331955Y-364493314D01*
X184182130Y-364523116D01*
X184032306Y-364552918D01*
X183726784Y-364552918D01*
X183576960Y-364523116D01*
X183427135Y-364493314D01*
X183144871Y-364376397D01*
X182890840Y-364206659D01*
X182674804Y-363990623D01*
X182505066Y-363736592D01*
X182388149Y-363454328D01*
X182328545Y-363154678D01*
X182328545Y-362849158D01*
X182388149Y-362549508D01*
X182505066Y-362267244D01*
X182674804Y-362013213D01*
X182890840Y-361797177D01*
X183144871Y-361627439D01*
X183427135Y-361510522D01*
X183576960Y-361480720D01*
X183726784Y-361450918D01*
X184032306Y-361450918D01*
X184182130Y-361480720D01*
X184182130Y-361480720D01*
G37*
G36*
X154164932Y-362284621D02*
G01*
X154231116Y-362291139D01*
X154400955Y-362342659D01*
X154557480Y-362426324D01*
X154593218Y-362455654D01*
X154694675Y-362538916D01*
X154777937Y-362640373D01*
X154807267Y-362676111D01*
X154890932Y-362832636D01*
X154942452Y-363002475D01*
X154959848Y-363179102D01*
X154942452Y-363355729D01*
X154890932Y-363525568D01*
X154807267Y-363682093D01*
X154777937Y-363717831D01*
X154694675Y-363819288D01*
X154593218Y-363902550D01*
X154557480Y-363931880D01*
X154400955Y-364015545D01*
X154231116Y-364067065D01*
X154164932Y-364073583D01*
X154098749Y-364080102D01*
X154010229Y-364080102D01*
X153944046Y-364073583D01*
X153877862Y-364067065D01*
X153708023Y-364015545D01*
X153551498Y-363931880D01*
X153515760Y-363902550D01*
X153414303Y-363819288D01*
X153331041Y-363717831D01*
X153301711Y-363682093D01*
X153218046Y-363525568D01*
X153166526Y-363355729D01*
X153149130Y-363179102D01*
X153166526Y-363002475D01*
X153218046Y-362832636D01*
X153301711Y-362676111D01*
X153331041Y-362640373D01*
X153414303Y-362538916D01*
X153515760Y-362455654D01*
X153551498Y-362426324D01*
X153708023Y-362342659D01*
X153877862Y-362291139D01*
X153944046Y-362284621D01*
X154010229Y-362278102D01*
X154098749Y-362278102D01*
X154164932Y-362284621D01*
X154164932Y-362284621D01*
G37*
G36*
X192887430Y-360689092D02*
G01*
X192953614Y-360695610D01*
X193123453Y-360747130D01*
X193279978Y-360830795D01*
X193315716Y-360860125D01*
X193417173Y-360943387D01*
X193500435Y-361044844D01*
X193529765Y-361080582D01*
X193613430Y-361237107D01*
X193664950Y-361406946D01*
X193682346Y-361583573D01*
X193664950Y-361760200D01*
X193613430Y-361930039D01*
X193529765Y-362086564D01*
X193500435Y-362122302D01*
X193417173Y-362223759D01*
X193315716Y-362307021D01*
X193279978Y-362336351D01*
X193123453Y-362420016D01*
X192953614Y-362471536D01*
X192887430Y-362478054D01*
X192821247Y-362484573D01*
X192732727Y-362484573D01*
X192666544Y-362478054D01*
X192600360Y-362471536D01*
X192430521Y-362420016D01*
X192273996Y-362336351D01*
X192238258Y-362307021D01*
X192136801Y-362223759D01*
X192053539Y-362122302D01*
X192024209Y-362086564D01*
X191940544Y-361930039D01*
X191889024Y-361760200D01*
X191871628Y-361583573D01*
X191889024Y-361406946D01*
X191940544Y-361237107D01*
X192024209Y-361080582D01*
X192053539Y-361044844D01*
X192136801Y-360943387D01*
X192238258Y-360860125D01*
X192273996Y-360830795D01*
X192430521Y-360747130D01*
X192600360Y-360695610D01*
X192666544Y-360689092D01*
X192732727Y-360682573D01*
X192821247Y-360682573D01*
X192887430Y-360689092D01*
X192887430Y-360689092D01*
G37*
G36*
X179182130Y-359280720D02*
G01*
X179331955Y-359310522D01*
X179614219Y-359427439D01*
X179868250Y-359597177D01*
X180084286Y-359813213D01*
X180254024Y-360067244D01*
X180370941Y-360349508D01*
X180430545Y-360649158D01*
X180430545Y-360954678D01*
X180370941Y-361254328D01*
X180254024Y-361536592D01*
X180084286Y-361790623D01*
X179868250Y-362006659D01*
X179614219Y-362176397D01*
X179331955Y-362293314D01*
X179182130Y-362323116D01*
X179032306Y-362352918D01*
X178726784Y-362352918D01*
X178576960Y-362323116D01*
X178427135Y-362293314D01*
X178144871Y-362176397D01*
X177890840Y-362006659D01*
X177674804Y-361790623D01*
X177505066Y-361536592D01*
X177388149Y-361254328D01*
X177328545Y-360954678D01*
X177328545Y-360649158D01*
X177388149Y-360349508D01*
X177505066Y-360067244D01*
X177674804Y-359813213D01*
X177890840Y-359597177D01*
X178144871Y-359427439D01*
X178427135Y-359310522D01*
X178576960Y-359280720D01*
X178726784Y-359250918D01*
X179032306Y-359250918D01*
X179182130Y-359280720D01*
X179182130Y-359280720D01*
G37*
G36*
X160682130Y-359280720D02*
G01*
X160831955Y-359310522D01*
X161114219Y-359427439D01*
X161368250Y-359597177D01*
X161584286Y-359813213D01*
X161754024Y-360067244D01*
X161870941Y-360349508D01*
X161930545Y-360649158D01*
X161930545Y-360954678D01*
X161870941Y-361254328D01*
X161754024Y-361536592D01*
X161584286Y-361790623D01*
X161368250Y-362006659D01*
X161114219Y-362176397D01*
X160831955Y-362293314D01*
X160682130Y-362323116D01*
X160532306Y-362352918D01*
X160226784Y-362352918D01*
X160076960Y-362323116D01*
X159927135Y-362293314D01*
X159644871Y-362176397D01*
X159390840Y-362006659D01*
X159174804Y-361790623D01*
X159005066Y-361536592D01*
X158888149Y-361254328D01*
X158828545Y-360954678D01*
X158828545Y-360649158D01*
X158888149Y-360349508D01*
X159005066Y-360067244D01*
X159174804Y-359813213D01*
X159390840Y-359597177D01*
X159644871Y-359427439D01*
X159927135Y-359310522D01*
X160076960Y-359280720D01*
X160226784Y-359250918D01*
X160532306Y-359250918D01*
X160682130Y-359280720D01*
X160682130Y-359280720D01*
G37*
G36*
X154164931Y-359744620D02*
G01*
X154231116Y-359751139D01*
X154400955Y-359802659D01*
X154557480Y-359886324D01*
X154593218Y-359915654D01*
X154694675Y-359998916D01*
X154750751Y-360067246D01*
X154807267Y-360136111D01*
X154890932Y-360292636D01*
X154942452Y-360462475D01*
X154959848Y-360639102D01*
X154942452Y-360815729D01*
X154890932Y-360985568D01*
X154807267Y-361142093D01*
X154777937Y-361177831D01*
X154694675Y-361279288D01*
X154593218Y-361362550D01*
X154557480Y-361391880D01*
X154400955Y-361475545D01*
X154231116Y-361527065D01*
X154164932Y-361533583D01*
X154098749Y-361540102D01*
X154010229Y-361540102D01*
X153944046Y-361533583D01*
X153877862Y-361527065D01*
X153708023Y-361475545D01*
X153551498Y-361391880D01*
X153515760Y-361362550D01*
X153414303Y-361279288D01*
X153331041Y-361177831D01*
X153301711Y-361142093D01*
X153218046Y-360985568D01*
X153166526Y-360815729D01*
X153149130Y-360639102D01*
X153166526Y-360462475D01*
X153218046Y-360292636D01*
X153301711Y-360136111D01*
X153358227Y-360067246D01*
X153414303Y-359998916D01*
X153515760Y-359915654D01*
X153551498Y-359886324D01*
X153708023Y-359802659D01*
X153877862Y-359751139D01*
X153944047Y-359744620D01*
X154010229Y-359738102D01*
X154098749Y-359738102D01*
X154164931Y-359744620D01*
X154164931Y-359744620D01*
G37*
G36*
X193677987Y-359944573D02*
G01*
X191875987Y-359944573D01*
X191875987Y-358142573D01*
X193677987Y-358142573D01*
X193677987Y-359944573D01*
X193677987Y-359944573D01*
G37*
G36*
X154164931Y-357204620D02*
G01*
X154231116Y-357211139D01*
X154400955Y-357262659D01*
X154557480Y-357346324D01*
X154593218Y-357375654D01*
X154694675Y-357458916D01*
X154777937Y-357560373D01*
X154807267Y-357596111D01*
X154890932Y-357752636D01*
X154942452Y-357922475D01*
X154959848Y-358099102D01*
X154942452Y-358275729D01*
X154890932Y-358445568D01*
X154807267Y-358602093D01*
X154777937Y-358637831D01*
X154694675Y-358739288D01*
X154599472Y-358817418D01*
X154557480Y-358851880D01*
X154400955Y-358935545D01*
X154231116Y-358987065D01*
X154164931Y-358993584D01*
X154098749Y-359000102D01*
X154010229Y-359000102D01*
X153944047Y-358993584D01*
X153877862Y-358987065D01*
X153708023Y-358935545D01*
X153551498Y-358851880D01*
X153509506Y-358817418D01*
X153414303Y-358739288D01*
X153331041Y-358637831D01*
X153301711Y-358602093D01*
X153218046Y-358445568D01*
X153166526Y-358275729D01*
X153149130Y-358099102D01*
X153166526Y-357922475D01*
X153218046Y-357752636D01*
X153301711Y-357596111D01*
X153331041Y-357560373D01*
X153414303Y-357458916D01*
X153515760Y-357375654D01*
X153551498Y-357346324D01*
X153708023Y-357262659D01*
X153877862Y-357211139D01*
X153944047Y-357204620D01*
X154010229Y-357198102D01*
X154098749Y-357198102D01*
X154164931Y-357204620D01*
X154164931Y-357204620D01*
G37*
G36*
X184394521Y-355354265D02*
G01*
X184715821Y-355487352D01*
X184715823Y-355487353D01*
X185004985Y-355680565D01*
X185250898Y-355926478D01*
X185400263Y-356150018D01*
X185444111Y-356215642D01*
X185577198Y-356536942D01*
X185645045Y-356878030D01*
X185645045Y-357225806D01*
X185577198Y-357566894D01*
X185500329Y-357752472D01*
X185444110Y-357888196D01*
X185250898Y-358177358D01*
X185004985Y-358423271D01*
X184715823Y-358616483D01*
X184715822Y-358616484D01*
X184715821Y-358616484D01*
X184394521Y-358749571D01*
X184053433Y-358817418D01*
X183705657Y-358817418D01*
X183364569Y-358749571D01*
X183043269Y-358616484D01*
X183043268Y-358616484D01*
X183043267Y-358616483D01*
X182754105Y-358423271D01*
X182508192Y-358177358D01*
X182314980Y-357888196D01*
X182258761Y-357752472D01*
X182181892Y-357566894D01*
X182114045Y-357225806D01*
X182114045Y-356878030D01*
X182181892Y-356536942D01*
X182314979Y-356215642D01*
X182358828Y-356150018D01*
X182508192Y-355926478D01*
X182754105Y-355680565D01*
X183043267Y-355487353D01*
X183043269Y-355487352D01*
X183364569Y-355354265D01*
X183705657Y-355286418D01*
X184053433Y-355286418D01*
X184394521Y-355354265D01*
X184394521Y-355354265D01*
G37*
G36*
X165894521Y-355354265D02*
G01*
X166215821Y-355487352D01*
X166215823Y-355487353D01*
X166504985Y-355680565D01*
X166750898Y-355926478D01*
X166900263Y-356150018D01*
X166944111Y-356215642D01*
X167077198Y-356536942D01*
X167145045Y-356878030D01*
X167145045Y-357225806D01*
X167077198Y-357566894D01*
X167000329Y-357752472D01*
X166944110Y-357888196D01*
X166750898Y-358177358D01*
X166504985Y-358423271D01*
X166215823Y-358616483D01*
X166215822Y-358616484D01*
X166215821Y-358616484D01*
X165894521Y-358749571D01*
X165553433Y-358817418D01*
X165205657Y-358817418D01*
X164864569Y-358749571D01*
X164543269Y-358616484D01*
X164543268Y-358616484D01*
X164543267Y-358616483D01*
X164254105Y-358423271D01*
X164008192Y-358177358D01*
X163814980Y-357888196D01*
X163758761Y-357752472D01*
X163681892Y-357566894D01*
X163614045Y-357225806D01*
X163614045Y-356878030D01*
X163681892Y-356536942D01*
X163814979Y-356215642D01*
X163858828Y-356150018D01*
X164008192Y-355926478D01*
X164254105Y-355680565D01*
X164543267Y-355487353D01*
X164543269Y-355487352D01*
X164864569Y-355354265D01*
X165205657Y-355286418D01*
X165553433Y-355286418D01*
X165894521Y-355354265D01*
X165894521Y-355354265D01*
G37*
G36*
X171055497Y-356167347D02*
G01*
X171142620Y-356184677D01*
X171252043Y-356230002D01*
X171306756Y-356252665D01*
X171453478Y-356350701D01*
X171454473Y-356351366D01*
X171580097Y-356476990D01*
X171580099Y-356476993D01*
X171678798Y-356624707D01*
X171678798Y-356624708D01*
X171746786Y-356788843D01*
X171746786Y-356788845D01*
X171781445Y-356963087D01*
X171781445Y-357140749D01*
X171764526Y-357225805D01*
X171746786Y-357314993D01*
X171701461Y-357424416D01*
X171678798Y-357479129D01*
X171620155Y-357566895D01*
X171580097Y-357626846D01*
X171454473Y-357752470D01*
X171454470Y-357752472D01*
X171306756Y-357851171D01*
X171252043Y-357873834D01*
X171142620Y-357919159D01*
X171055497Y-357936489D01*
X170968376Y-357953818D01*
X170790714Y-357953818D01*
X170703593Y-357936489D01*
X170616470Y-357919159D01*
X170507047Y-357873834D01*
X170452334Y-357851171D01*
X170304620Y-357752472D01*
X170304617Y-357752470D01*
X170178993Y-357626846D01*
X170138935Y-357566895D01*
X170080292Y-357479129D01*
X170057629Y-357424416D01*
X170012304Y-357314993D01*
X169994564Y-357225805D01*
X169977645Y-357140749D01*
X169977645Y-356963087D01*
X170012304Y-356788845D01*
X170012304Y-356788843D01*
X170080292Y-356624708D01*
X170080292Y-356624707D01*
X170178991Y-356476993D01*
X170178993Y-356476990D01*
X170304617Y-356351366D01*
X170305612Y-356350701D01*
X170452334Y-356252665D01*
X170507047Y-356230002D01*
X170616470Y-356184677D01*
X170703593Y-356167347D01*
X170790714Y-356150018D01*
X170968376Y-356150018D01*
X171055497Y-356167347D01*
X171055497Y-356167347D01*
G37*
G36*
X178555497Y-356167347D02*
G01*
X178642620Y-356184677D01*
X178752043Y-356230002D01*
X178806756Y-356252665D01*
X178953478Y-356350701D01*
X178954473Y-356351366D01*
X179080097Y-356476990D01*
X179080099Y-356476993D01*
X179178798Y-356624707D01*
X179178798Y-356624708D01*
X179246786Y-356788843D01*
X179246786Y-356788845D01*
X179281445Y-356963087D01*
X179281445Y-357140749D01*
X179264526Y-357225805D01*
X179246786Y-357314993D01*
X179201461Y-357424416D01*
X179178798Y-357479129D01*
X179120155Y-357566895D01*
X179080097Y-357626846D01*
X178954473Y-357752470D01*
X178954470Y-357752472D01*
X178806756Y-357851171D01*
X178752043Y-357873834D01*
X178642620Y-357919159D01*
X178555497Y-357936489D01*
X178468376Y-357953818D01*
X178290714Y-357953818D01*
X178203593Y-357936489D01*
X178116470Y-357919159D01*
X178007047Y-357873834D01*
X177952334Y-357851171D01*
X177804620Y-357752472D01*
X177804617Y-357752470D01*
X177678993Y-357626846D01*
X177638935Y-357566895D01*
X177580292Y-357479129D01*
X177557629Y-357424416D01*
X177512304Y-357314993D01*
X177494564Y-357225805D01*
X177477645Y-357140749D01*
X177477645Y-356963087D01*
X177512304Y-356788845D01*
X177512304Y-356788843D01*
X177580292Y-356624708D01*
X177580292Y-356624707D01*
X177678991Y-356476993D01*
X177678993Y-356476990D01*
X177804617Y-356351366D01*
X177805612Y-356350701D01*
X177952334Y-356252665D01*
X178007047Y-356230002D01*
X178116470Y-356184677D01*
X178203593Y-356167347D01*
X178290714Y-356150018D01*
X178468376Y-356150018D01*
X178555497Y-356167347D01*
X178555497Y-356167347D01*
G37*
G36*
X189555497Y-356167347D02*
G01*
X189642620Y-356184677D01*
X189752043Y-356230002D01*
X189806756Y-356252665D01*
X189953478Y-356350701D01*
X189954473Y-356351366D01*
X190080097Y-356476990D01*
X190080099Y-356476993D01*
X190178798Y-356624707D01*
X190178798Y-356624708D01*
X190246786Y-356788843D01*
X190246786Y-356788845D01*
X190281445Y-356963087D01*
X190281445Y-357140749D01*
X190264526Y-357225805D01*
X190246786Y-357314993D01*
X190201461Y-357424416D01*
X190178798Y-357479129D01*
X190120155Y-357566895D01*
X190080097Y-357626846D01*
X189954473Y-357752470D01*
X189954470Y-357752472D01*
X189806756Y-357851171D01*
X189752043Y-357873834D01*
X189642620Y-357919159D01*
X189555497Y-357936489D01*
X189468376Y-357953818D01*
X189290714Y-357953818D01*
X189203593Y-357936489D01*
X189116470Y-357919159D01*
X189007047Y-357873834D01*
X188952334Y-357851171D01*
X188804620Y-357752472D01*
X188804617Y-357752470D01*
X188678993Y-357626846D01*
X188638935Y-357566895D01*
X188580292Y-357479129D01*
X188557629Y-357424416D01*
X188512304Y-357314993D01*
X188494564Y-357225805D01*
X188477645Y-357140749D01*
X188477645Y-356963087D01*
X188512304Y-356788845D01*
X188512304Y-356788843D01*
X188580292Y-356624708D01*
X188580292Y-356624707D01*
X188678991Y-356476993D01*
X188678993Y-356476990D01*
X188804617Y-356351366D01*
X188805612Y-356350701D01*
X188952334Y-356252665D01*
X189007047Y-356230002D01*
X189116470Y-356184677D01*
X189203593Y-356167347D01*
X189290714Y-356150018D01*
X189468376Y-356150018D01*
X189555497Y-356167347D01*
X189555497Y-356167347D01*
G37*
G36*
X160055497Y-356167347D02*
G01*
X160142620Y-356184677D01*
X160252043Y-356230002D01*
X160306756Y-356252665D01*
X160453478Y-356350701D01*
X160454473Y-356351366D01*
X160580097Y-356476990D01*
X160580099Y-356476993D01*
X160678798Y-356624707D01*
X160678798Y-356624708D01*
X160746786Y-356788843D01*
X160746786Y-356788845D01*
X160781445Y-356963087D01*
X160781445Y-357140749D01*
X160764526Y-357225805D01*
X160746786Y-357314993D01*
X160701461Y-357424416D01*
X160678798Y-357479129D01*
X160620155Y-357566895D01*
X160580097Y-357626846D01*
X160454473Y-357752470D01*
X160454470Y-357752472D01*
X160306756Y-357851171D01*
X160252043Y-357873834D01*
X160142620Y-357919159D01*
X160055497Y-357936489D01*
X159968376Y-357953818D01*
X159790714Y-357953818D01*
X159703593Y-357936489D01*
X159616470Y-357919159D01*
X159507047Y-357873834D01*
X159452334Y-357851171D01*
X159304620Y-357752472D01*
X159304617Y-357752470D01*
X159178993Y-357626846D01*
X159138935Y-357566895D01*
X159080292Y-357479129D01*
X159057629Y-357424416D01*
X159012304Y-357314993D01*
X158994564Y-357225805D01*
X158977645Y-357140749D01*
X158977645Y-356963087D01*
X159012304Y-356788845D01*
X159012304Y-356788843D01*
X159080292Y-356624708D01*
X159080292Y-356624707D01*
X159178991Y-356476993D01*
X159178993Y-356476990D01*
X159304617Y-356351366D01*
X159305612Y-356350701D01*
X159452334Y-356252665D01*
X159507047Y-356230002D01*
X159616470Y-356184677D01*
X159703593Y-356167347D01*
X159790714Y-356150018D01*
X159968376Y-356150018D01*
X160055497Y-356167347D01*
X160055497Y-356167347D01*
G37*
G36*
X154955489Y-356460102D02*
G01*
X153153489Y-356460102D01*
X153153489Y-354658102D01*
X154955489Y-354658102D01*
X154955489Y-356460102D01*
X154955489Y-356460102D01*
G37*
G36*
X167695102Y-344440029D02*
G01*
X167228710Y-346180627D01*
X165488112Y-345714235D01*
X165954504Y-343973637D01*
X167695102Y-344440029D01*
X167695102Y-344440029D01*
G37*
G36*
X164248598Y-343525251D02*
G01*
X164314782Y-343531769D01*
X164484621Y-343583289D01*
X164641146Y-343666954D01*
X164676884Y-343696284D01*
X164778341Y-343779546D01*
X164861603Y-343881003D01*
X164890933Y-343916741D01*
X164974598Y-344073266D01*
X165026118Y-344243105D01*
X165043514Y-344419732D01*
X165026118Y-344596359D01*
X164974598Y-344766198D01*
X164890933Y-344922723D01*
X164861603Y-344958461D01*
X164778341Y-345059918D01*
X164676884Y-345143180D01*
X164641146Y-345172510D01*
X164484621Y-345256175D01*
X164314782Y-345307695D01*
X164248597Y-345314214D01*
X164182415Y-345320732D01*
X164093895Y-345320732D01*
X164027713Y-345314214D01*
X163961528Y-345307695D01*
X163791689Y-345256175D01*
X163635164Y-345172510D01*
X163599426Y-345143180D01*
X163497969Y-345059918D01*
X163414707Y-344958461D01*
X163385377Y-344922723D01*
X163301712Y-344766198D01*
X163250192Y-344596359D01*
X163232796Y-344419732D01*
X163250192Y-344243105D01*
X163301712Y-344073266D01*
X163385377Y-343916741D01*
X163414707Y-343881003D01*
X163497969Y-343779546D01*
X163599426Y-343696284D01*
X163635164Y-343666954D01*
X163791689Y-343583289D01*
X163961528Y-343531769D01*
X164027712Y-343525251D01*
X164093895Y-343518732D01*
X164182415Y-343518732D01*
X164248598Y-343525251D01*
X164248598Y-343525251D01*
G37*
G36*
X161795147Y-342867850D02*
G01*
X161861331Y-342874368D01*
X162031170Y-342925888D01*
X162187695Y-343009553D01*
X162223433Y-343038883D01*
X162324890Y-343122145D01*
X162408152Y-343223602D01*
X162437482Y-343259340D01*
X162521147Y-343415865D01*
X162572667Y-343585704D01*
X162590063Y-343762331D01*
X162572667Y-343938958D01*
X162521147Y-344108797D01*
X162437482Y-344265322D01*
X162408152Y-344301060D01*
X162324890Y-344402517D01*
X162223433Y-344485779D01*
X162187695Y-344515109D01*
X162031170Y-344598774D01*
X161861331Y-344650294D01*
X161795147Y-344656812D01*
X161728964Y-344663331D01*
X161640444Y-344663331D01*
X161574261Y-344656812D01*
X161508077Y-344650294D01*
X161338238Y-344598774D01*
X161181713Y-344515109D01*
X161145975Y-344485779D01*
X161044518Y-344402517D01*
X160961256Y-344301060D01*
X160931926Y-344265322D01*
X160848261Y-344108797D01*
X160796741Y-343938958D01*
X160779345Y-343762331D01*
X160796741Y-343585704D01*
X160848261Y-343415865D01*
X160931926Y-343259340D01*
X160961256Y-343223602D01*
X161044518Y-343122145D01*
X161145975Y-343038883D01*
X161181713Y-343009553D01*
X161338238Y-342925888D01*
X161508077Y-342874368D01*
X161574261Y-342867850D01*
X161640444Y-342861331D01*
X161728964Y-342861331D01*
X161795147Y-342867850D01*
X161795147Y-342867850D01*
G37*
G36*
X159341694Y-342210449D02*
G01*
X159407879Y-342216968D01*
X159577718Y-342268488D01*
X159734243Y-342352153D01*
X159769981Y-342381483D01*
X159871438Y-342464745D01*
X159954700Y-342566202D01*
X159984030Y-342601940D01*
X160067695Y-342758465D01*
X160119215Y-342928304D01*
X160136611Y-343104931D01*
X160119215Y-343281558D01*
X160067695Y-343451397D01*
X159984030Y-343607922D01*
X159954700Y-343643660D01*
X159871438Y-343745117D01*
X159769981Y-343828379D01*
X159734243Y-343857709D01*
X159577718Y-343941374D01*
X159407879Y-343992894D01*
X159341695Y-343999412D01*
X159275512Y-344005931D01*
X159186992Y-344005931D01*
X159120809Y-343999412D01*
X159054625Y-343992894D01*
X158884786Y-343941374D01*
X158728261Y-343857709D01*
X158692523Y-343828379D01*
X158591066Y-343745117D01*
X158507804Y-343643660D01*
X158478474Y-343607922D01*
X158394809Y-343451397D01*
X158343289Y-343281558D01*
X158325893Y-343104931D01*
X158343289Y-342928304D01*
X158394809Y-342758465D01*
X158478474Y-342601940D01*
X158507804Y-342566202D01*
X158591066Y-342464745D01*
X158692523Y-342381483D01*
X158728261Y-342352153D01*
X158884786Y-342268488D01*
X159054625Y-342216968D01*
X159120810Y-342210449D01*
X159186992Y-342203931D01*
X159275512Y-342203931D01*
X159341694Y-342210449D01*
X159341694Y-342210449D01*
G37*
M02*
