G04 #@! TF.GenerationSoftware,KiCad,Pcbnew,(5.1.4)-1*
G04 #@! TF.CreationDate,2023-02-10T21:13:35-05:00*
G04 #@! TF.ProjectId,ThumbsUp,5468756d-6273-4557-902e-6b696361645f,rev?*
G04 #@! TF.SameCoordinates,Original*
G04 #@! TF.FileFunction,Legend,Bot*
G04 #@! TF.FilePolarity,Positive*
%FSLAX46Y46*%
G04 Gerber Fmt 4.6, Leading zero omitted, Abs format (unit mm)*
G04 Created by KiCad (PCBNEW (5.1.4)-1) date 2023-02-10 21:13:35*
%MOMM*%
%LPD*%
G04 APERTURE LIST*
%ADD10C,0.150000*%
%ADD11C,0.120000*%
G04 APERTURE END LIST*
D10*
X184629295Y-358825026D02*
X185116740Y-358508379D01*
X185159114Y-359039087D02*
X185533721Y-358111903D01*
X185180508Y-357969196D01*
X185074366Y-357977671D01*
X185012376Y-358003984D01*
X184932548Y-358074449D01*
X184879033Y-358206904D01*
X184887508Y-358313045D01*
X184913821Y-358375035D01*
X184984286Y-358454864D01*
X185337499Y-358597571D01*
X184231931Y-358664481D02*
X184606537Y-357737297D01*
X183661515Y-357406842D02*
X183767657Y-357398367D01*
X183900111Y-357451882D01*
X184014728Y-357549549D01*
X184067354Y-357673529D01*
X184075829Y-357779671D01*
X184048627Y-357974116D01*
X183995112Y-358106570D01*
X183879607Y-358265338D01*
X183799778Y-358335803D01*
X183675798Y-358388430D01*
X183525505Y-358379066D01*
X183437202Y-358343389D01*
X183322585Y-358245722D01*
X183296272Y-358183732D01*
X183421141Y-357874671D01*
X183597747Y-357946025D01*
X182863231Y-358111490D02*
X183237837Y-357184306D01*
X183059453Y-357625822D02*
X182529634Y-357411761D01*
X182333411Y-357897429D02*
X182708018Y-356970245D01*
X182398957Y-356845376D02*
X181869137Y-356631315D01*
X181759440Y-357665530D02*
X182134047Y-356738346D01*
X180366205Y-356537679D02*
X180675266Y-356662548D01*
X180479044Y-357148216D02*
X180853650Y-356221032D01*
X180412134Y-356042648D01*
X179154495Y-356613064D02*
X179641941Y-356296416D01*
X179684315Y-356827124D02*
X180058921Y-355899941D01*
X179705708Y-355757233D01*
X179599567Y-355765708D01*
X179537577Y-355792021D01*
X179457748Y-355862486D01*
X179404233Y-355994941D01*
X179412708Y-356101083D01*
X179439021Y-356163073D01*
X179509486Y-356242901D01*
X179862699Y-356385608D01*
X178955131Y-355453980D02*
X178778524Y-355382627D01*
X178672383Y-355391102D01*
X178548403Y-355443728D01*
X178432897Y-355602496D01*
X178308029Y-355911557D01*
X178280827Y-356106002D01*
X178333453Y-356229982D01*
X178403918Y-356309811D01*
X178580524Y-356381164D01*
X178686666Y-356372689D01*
X178810646Y-356320063D01*
X178926151Y-356161295D01*
X179051020Y-355852234D01*
X179078222Y-355657789D01*
X179025596Y-355533809D01*
X178955131Y-355453980D01*
X177785795Y-356060073D02*
X178160402Y-355132889D01*
X177583764Y-355670294D01*
X177542279Y-354883151D01*
X177167673Y-355810335D01*
X175906892Y-354736000D02*
X175756599Y-354726636D01*
X175694609Y-354752949D01*
X175614780Y-354823414D01*
X175561265Y-354955869D01*
X175569740Y-355062011D01*
X175596053Y-355124001D01*
X175666518Y-355203829D01*
X176019731Y-355346536D01*
X176394337Y-354419353D01*
X176085276Y-354294484D01*
X175979134Y-354302959D01*
X175917144Y-354329272D01*
X175837316Y-354399737D01*
X175801639Y-354488040D01*
X175810114Y-354594181D01*
X175836427Y-354656171D01*
X175906892Y-354736000D01*
X176215953Y-354860869D01*
X175288769Y-354486262D02*
X174979708Y-354361393D01*
X174651031Y-354793546D02*
X175092547Y-354971930D01*
X175467153Y-354044746D01*
X175025637Y-353866362D01*
X173812150Y-354454616D02*
X174253666Y-354633000D01*
X174628273Y-353705816D01*
X173701089Y-353331210D02*
X173524483Y-353259856D01*
X173418341Y-353268331D01*
X173294361Y-353320957D01*
X173178856Y-353479725D01*
X173053987Y-353788787D01*
X173026785Y-353983231D01*
X173079411Y-354107211D01*
X173149876Y-354187040D01*
X173326482Y-354258394D01*
X173432624Y-354249919D01*
X173556604Y-354197292D01*
X173672109Y-354038524D01*
X173796978Y-353729463D01*
X173824180Y-353535018D01*
X173771554Y-353411038D01*
X173701089Y-353331210D01*
X172994663Y-353045795D02*
X172399299Y-353883787D01*
X172490268Y-353150159D01*
X172046086Y-353741080D01*
X172199934Y-352724704D01*
D11*
X155384489Y-334229102D02*
X154054489Y-334229102D01*
X155384489Y-335559102D02*
X155384489Y-334229102D01*
X155384489Y-336829102D02*
X152724489Y-336829102D01*
X152724489Y-336829102D02*
X152724489Y-344509102D01*
X155384489Y-336829102D02*
X155384489Y-344509102D01*
X155384489Y-344509102D02*
X152724489Y-344509102D01*
X167532059Y-326706043D02*
X167876288Y-325421361D01*
X166247378Y-326361813D02*
X167532059Y-326706043D01*
X165020652Y-326033113D02*
X165709111Y-323463750D01*
X165709111Y-323463750D02*
X158290800Y-321476020D01*
X165020652Y-326033113D02*
X157602342Y-324045383D01*
X157602342Y-324045383D02*
X158290800Y-321476020D01*
X194106987Y-337713573D02*
X192776987Y-337713573D01*
X194106987Y-339043573D02*
X194106987Y-337713573D01*
X194106987Y-340313573D02*
X191446987Y-340313573D01*
X191446987Y-340313573D02*
X191446987Y-347993573D01*
X194106987Y-340313573D02*
X194106987Y-347993573D01*
X194106987Y-347993573D02*
X191446987Y-347993573D01*
X189136132Y-348061045D02*
X189136132Y-346731045D01*
X187806132Y-348061045D02*
X189136132Y-348061045D01*
X186536132Y-348061045D02*
X186536132Y-345401045D01*
X186536132Y-345401045D02*
X178856132Y-345401045D01*
X186536132Y-348061045D02*
X178856132Y-348061045D01*
X178856132Y-348061045D02*
X178856132Y-345401045D01*
D10*
X154864012Y-332681482D02*
X154864012Y-333395768D01*
X154911631Y-333538625D01*
X155006869Y-333633863D01*
X155149727Y-333681482D01*
X155244965Y-333681482D01*
X153959250Y-333014816D02*
X153959250Y-333681482D01*
X154197346Y-332633863D02*
X154435441Y-333348149D01*
X153816393Y-333348149D01*
X153292584Y-333110054D02*
X153387822Y-333062435D01*
X153435441Y-333014816D01*
X153483060Y-332919578D01*
X153483060Y-332871959D01*
X153435441Y-332776721D01*
X153387822Y-332729102D01*
X153292584Y-332681482D01*
X153102108Y-332681482D01*
X153006869Y-332729102D01*
X152959250Y-332776721D01*
X152911631Y-332871959D01*
X152911631Y-332919578D01*
X152959250Y-333014816D01*
X153006869Y-333062435D01*
X153102108Y-333110054D01*
X153292584Y-333110054D01*
X153387822Y-333157673D01*
X153435441Y-333205292D01*
X153483060Y-333300530D01*
X153483060Y-333491006D01*
X153435441Y-333586244D01*
X153387822Y-333633863D01*
X153292584Y-333681482D01*
X153102108Y-333681482D01*
X153006869Y-333633863D01*
X152959250Y-333586244D01*
X152911631Y-333491006D01*
X152911631Y-333300530D01*
X152959250Y-333205292D01*
X153006869Y-333157673D01*
X153102108Y-333110054D01*
X168522774Y-324756505D02*
X169212721Y-324941376D01*
X169363035Y-324932354D01*
X169479678Y-324865010D01*
X169562648Y-324739346D01*
X169587298Y-324647353D01*
X168424177Y-325124477D02*
X168263955Y-325722431D01*
X168718200Y-325499054D01*
X168681226Y-325637043D01*
X168702573Y-325741361D01*
X168736245Y-325799682D01*
X168815913Y-325870328D01*
X169045895Y-325931951D01*
X169150213Y-325910604D01*
X169208534Y-325876933D01*
X169279180Y-325797264D01*
X169353128Y-325521285D01*
X169331781Y-325416968D01*
X169298109Y-325358647D01*
X168029786Y-326596364D02*
X168153033Y-326136399D01*
X168625322Y-326213650D01*
X168567001Y-326247322D01*
X168496355Y-326326990D01*
X168434732Y-326556972D01*
X168456079Y-326661290D01*
X168489750Y-326719611D01*
X168569419Y-326790257D01*
X168799401Y-326851881D01*
X168903719Y-326830534D01*
X168962040Y-326796862D01*
X169032686Y-326717194D01*
X169094309Y-326487211D01*
X169072962Y-326382894D01*
X169039290Y-326324572D01*
X193586510Y-336165953D02*
X193586510Y-336880239D01*
X193634129Y-337023096D01*
X193729367Y-337118334D01*
X193872225Y-337165953D01*
X193967463Y-337165953D01*
X193205558Y-336165953D02*
X192586510Y-336165953D01*
X192919844Y-336546906D01*
X192776987Y-336546906D01*
X192681748Y-336594525D01*
X192634129Y-336642144D01*
X192586510Y-336737382D01*
X192586510Y-336975477D01*
X192634129Y-337070715D01*
X192681748Y-337118334D01*
X192776987Y-337165953D01*
X193062701Y-337165953D01*
X193157939Y-337118334D01*
X193205558Y-337070715D01*
X192253177Y-336165953D02*
X191634129Y-336165953D01*
X191967463Y-336546906D01*
X191824606Y-336546906D01*
X191729367Y-336594525D01*
X191681748Y-336642144D01*
X191634129Y-336737382D01*
X191634129Y-336975477D01*
X191681748Y-337070715D01*
X191729367Y-337118334D01*
X191824606Y-337165953D01*
X192110320Y-337165953D01*
X192205558Y-337118334D01*
X192253177Y-337070715D01*
X190683751Y-347064378D02*
X189969465Y-347064378D01*
X189826608Y-347111997D01*
X189731370Y-347207235D01*
X189683751Y-347350092D01*
X189683751Y-347445330D01*
X190683751Y-346159616D02*
X190683751Y-346350092D01*
X190636132Y-346445330D01*
X190588512Y-346492949D01*
X190445655Y-346588187D01*
X190255179Y-346635806D01*
X189874227Y-346635806D01*
X189778989Y-346588187D01*
X189731370Y-346540568D01*
X189683751Y-346445330D01*
X189683751Y-346254854D01*
X189731370Y-346159616D01*
X189778989Y-346111997D01*
X189874227Y-346064378D01*
X190112322Y-346064378D01*
X190207560Y-346111997D01*
X190255179Y-346159616D01*
X190302798Y-346254854D01*
X190302798Y-346445330D01*
X190255179Y-346540568D01*
X190207560Y-346588187D01*
X190112322Y-346635806D01*
M02*
