G04 #@! TF.GenerationSoftware,KiCad,Pcbnew,(5.1.4)-1*
G04 #@! TF.CreationDate,2023-02-10T21:13:35-05:00*
G04 #@! TF.ProjectId,ThumbsUp,5468756d-6273-4557-902e-6b696361645f,rev?*
G04 #@! TF.SameCoordinates,Original*
G04 #@! TF.FileFunction,Soldermask,Bot*
G04 #@! TF.FilePolarity,Negative*
%FSLAX46Y46*%
G04 Gerber Fmt 4.6, Leading zero omitted, Abs format (unit mm)*
G04 Created by KiCad (PCBNEW (5.1.4)-1) date 2023-02-10 21:13:35*
%MOMM*%
%LPD*%
G04 APERTURE LIST*
%ADD10C,0.100000*%
G04 APERTURE END LIST*
D10*
G36*
X182836575Y-345836564D02*
G01*
X182902759Y-345843082D01*
X183072598Y-345894602D01*
X183229123Y-345978267D01*
X183264861Y-346007597D01*
X183366318Y-346090859D01*
X183449580Y-346192316D01*
X183478910Y-346228054D01*
X183562575Y-346384579D01*
X183614095Y-346554418D01*
X183631491Y-346731045D01*
X183614095Y-346907672D01*
X183562575Y-347077511D01*
X183478910Y-347234036D01*
X183449580Y-347269774D01*
X183366318Y-347371231D01*
X183264861Y-347454493D01*
X183229123Y-347483823D01*
X183072598Y-347567488D01*
X182902759Y-347619008D01*
X182836574Y-347625527D01*
X182770392Y-347632045D01*
X182681872Y-347632045D01*
X182615690Y-347625527D01*
X182549505Y-347619008D01*
X182379666Y-347567488D01*
X182223141Y-347483823D01*
X182187403Y-347454493D01*
X182085946Y-347371231D01*
X182002684Y-347269774D01*
X181973354Y-347234036D01*
X181889689Y-347077511D01*
X181838169Y-346907672D01*
X181820773Y-346731045D01*
X181838169Y-346554418D01*
X181889689Y-346384579D01*
X181973354Y-346228054D01*
X182002684Y-346192316D01*
X182085946Y-346090859D01*
X182187403Y-346007597D01*
X182223141Y-345978267D01*
X182379666Y-345894602D01*
X182549505Y-345843082D01*
X182615689Y-345836564D01*
X182681872Y-345830045D01*
X182770392Y-345830045D01*
X182836575Y-345836564D01*
X182836575Y-345836564D01*
G37*
G36*
X180296575Y-345836564D02*
G01*
X180362759Y-345843082D01*
X180532598Y-345894602D01*
X180689123Y-345978267D01*
X180724861Y-346007597D01*
X180826318Y-346090859D01*
X180909580Y-346192316D01*
X180938910Y-346228054D01*
X181022575Y-346384579D01*
X181074095Y-346554418D01*
X181091491Y-346731045D01*
X181074095Y-346907672D01*
X181022575Y-347077511D01*
X180938910Y-347234036D01*
X180909580Y-347269774D01*
X180826318Y-347371231D01*
X180724861Y-347454493D01*
X180689123Y-347483823D01*
X180532598Y-347567488D01*
X180362759Y-347619008D01*
X180296574Y-347625527D01*
X180230392Y-347632045D01*
X180141872Y-347632045D01*
X180075690Y-347625527D01*
X180009505Y-347619008D01*
X179839666Y-347567488D01*
X179683141Y-347483823D01*
X179647403Y-347454493D01*
X179545946Y-347371231D01*
X179462684Y-347269774D01*
X179433354Y-347234036D01*
X179349689Y-347077511D01*
X179298169Y-346907672D01*
X179280773Y-346731045D01*
X179298169Y-346554418D01*
X179349689Y-346384579D01*
X179433354Y-346228054D01*
X179462684Y-346192316D01*
X179545946Y-346090859D01*
X179647403Y-346007597D01*
X179683141Y-345978267D01*
X179839666Y-345894602D01*
X180009505Y-345843082D01*
X180075689Y-345836564D01*
X180141872Y-345830045D01*
X180230392Y-345830045D01*
X180296575Y-345836564D01*
X180296575Y-345836564D01*
G37*
G36*
X188707132Y-347632045D02*
G01*
X186905132Y-347632045D01*
X186905132Y-345830045D01*
X188707132Y-345830045D01*
X188707132Y-347632045D01*
X188707132Y-347632045D01*
G37*
G36*
X185376575Y-345836564D02*
G01*
X185442759Y-345843082D01*
X185612598Y-345894602D01*
X185769123Y-345978267D01*
X185804861Y-346007597D01*
X185906318Y-346090859D01*
X185989580Y-346192316D01*
X186018910Y-346228054D01*
X186102575Y-346384579D01*
X186154095Y-346554418D01*
X186171491Y-346731045D01*
X186154095Y-346907672D01*
X186102575Y-347077511D01*
X186018910Y-347234036D01*
X185989580Y-347269774D01*
X185906318Y-347371231D01*
X185804861Y-347454493D01*
X185769123Y-347483823D01*
X185612598Y-347567488D01*
X185442759Y-347619008D01*
X185376574Y-347625527D01*
X185310392Y-347632045D01*
X185221872Y-347632045D01*
X185155690Y-347625527D01*
X185089505Y-347619008D01*
X184919666Y-347567488D01*
X184763141Y-347483823D01*
X184727403Y-347454493D01*
X184625946Y-347371231D01*
X184542684Y-347269774D01*
X184513354Y-347234036D01*
X184429689Y-347077511D01*
X184378169Y-346907672D01*
X184360773Y-346731045D01*
X184378169Y-346554418D01*
X184429689Y-346384579D01*
X184513354Y-346228054D01*
X184542684Y-346192316D01*
X184625946Y-346090859D01*
X184727403Y-346007597D01*
X184763141Y-345978267D01*
X184919666Y-345894602D01*
X185089505Y-345843082D01*
X185155689Y-345836564D01*
X185221872Y-345830045D01*
X185310392Y-345830045D01*
X185376575Y-345836564D01*
X185376575Y-345836564D01*
G37*
G36*
X192887430Y-345769092D02*
G01*
X192953614Y-345775610D01*
X193123453Y-345827130D01*
X193279978Y-345910795D01*
X193315716Y-345940125D01*
X193417173Y-346023387D01*
X193500435Y-346124844D01*
X193529765Y-346160582D01*
X193613430Y-346317107D01*
X193664950Y-346486946D01*
X193682346Y-346663573D01*
X193664950Y-346840200D01*
X193613430Y-347010039D01*
X193529765Y-347166564D01*
X193500435Y-347202302D01*
X193417173Y-347303759D01*
X193315716Y-347387021D01*
X193279978Y-347416351D01*
X193123453Y-347500016D01*
X192953614Y-347551536D01*
X192887429Y-347558055D01*
X192821247Y-347564573D01*
X192732727Y-347564573D01*
X192666545Y-347558055D01*
X192600360Y-347551536D01*
X192430521Y-347500016D01*
X192273996Y-347416351D01*
X192238258Y-347387021D01*
X192136801Y-347303759D01*
X192053539Y-347202302D01*
X192024209Y-347166564D01*
X191940544Y-347010039D01*
X191889024Y-346840200D01*
X191871628Y-346663573D01*
X191889024Y-346486946D01*
X191940544Y-346317107D01*
X192024209Y-346160582D01*
X192053539Y-346124844D01*
X192136801Y-346023387D01*
X192238258Y-345940125D01*
X192273996Y-345910795D01*
X192430521Y-345827130D01*
X192600360Y-345775610D01*
X192666544Y-345769092D01*
X192732727Y-345762573D01*
X192821247Y-345762573D01*
X192887430Y-345769092D01*
X192887430Y-345769092D01*
G37*
G36*
X192887430Y-343229092D02*
G01*
X192953614Y-343235610D01*
X193123453Y-343287130D01*
X193279978Y-343370795D01*
X193315716Y-343400125D01*
X193417173Y-343483387D01*
X193500435Y-343584844D01*
X193529765Y-343620582D01*
X193613430Y-343777107D01*
X193664950Y-343946946D01*
X193682346Y-344123573D01*
X193664950Y-344300200D01*
X193613430Y-344470039D01*
X193529765Y-344626564D01*
X193500435Y-344662302D01*
X193417173Y-344763759D01*
X193315716Y-344847021D01*
X193279978Y-344876351D01*
X193123453Y-344960016D01*
X192953614Y-345011536D01*
X192887430Y-345018054D01*
X192821247Y-345024573D01*
X192732727Y-345024573D01*
X192666544Y-345018054D01*
X192600360Y-345011536D01*
X192430521Y-344960016D01*
X192273996Y-344876351D01*
X192238258Y-344847021D01*
X192136801Y-344763759D01*
X192053539Y-344662302D01*
X192024209Y-344626564D01*
X191940544Y-344470039D01*
X191889024Y-344300200D01*
X191871628Y-344123573D01*
X191889024Y-343946946D01*
X191940544Y-343777107D01*
X192024209Y-343620582D01*
X192053539Y-343584844D01*
X192136801Y-343483387D01*
X192238258Y-343400125D01*
X192273996Y-343370795D01*
X192430521Y-343287130D01*
X192600360Y-343235610D01*
X192666544Y-343229092D01*
X192732727Y-343222573D01*
X192821247Y-343222573D01*
X192887430Y-343229092D01*
X192887430Y-343229092D01*
G37*
G36*
X154164931Y-342284620D02*
G01*
X154231116Y-342291139D01*
X154400955Y-342342659D01*
X154400957Y-342342660D01*
X154407720Y-342346275D01*
X154557480Y-342426324D01*
X154576147Y-342441644D01*
X154694675Y-342538916D01*
X154777937Y-342640373D01*
X154807267Y-342676111D01*
X154807268Y-342676113D01*
X154874060Y-342801070D01*
X154890932Y-342832636D01*
X154942452Y-343002475D01*
X154959848Y-343179102D01*
X154942452Y-343355729D01*
X154890932Y-343525568D01*
X154807267Y-343682093D01*
X154777937Y-343717831D01*
X154694675Y-343819288D01*
X154593218Y-343902550D01*
X154557480Y-343931880D01*
X154400955Y-344015545D01*
X154231116Y-344067065D01*
X154164932Y-344073583D01*
X154098749Y-344080102D01*
X154010229Y-344080102D01*
X153944046Y-344073583D01*
X153877862Y-344067065D01*
X153708023Y-344015545D01*
X153551498Y-343931880D01*
X153515760Y-343902550D01*
X153414303Y-343819288D01*
X153331041Y-343717831D01*
X153301711Y-343682093D01*
X153218046Y-343525568D01*
X153166526Y-343355729D01*
X153149130Y-343179102D01*
X153166526Y-343002475D01*
X153218046Y-342832636D01*
X153234919Y-342801070D01*
X153301710Y-342676113D01*
X153301711Y-342676111D01*
X153331041Y-342640373D01*
X153414303Y-342538916D01*
X153532831Y-342441644D01*
X153551498Y-342426324D01*
X153701258Y-342346275D01*
X153708021Y-342342660D01*
X153708023Y-342342659D01*
X153877862Y-342291139D01*
X153944047Y-342284620D01*
X154010229Y-342278102D01*
X154098749Y-342278102D01*
X154164931Y-342284620D01*
X154164931Y-342284620D01*
G37*
G36*
X181689275Y-340411542D02*
G01*
X181905800Y-340493879D01*
X182102102Y-340616877D01*
X182270635Y-340775807D01*
X182404925Y-340964563D01*
X182499810Y-341175891D01*
X182551643Y-341401669D01*
X182556733Y-341575195D01*
X182515952Y-342166509D01*
X182515841Y-342168122D01*
X182515545Y-342176722D01*
X182515545Y-342247745D01*
X182496663Y-342342671D01*
X182496001Y-342346275D01*
X182479921Y-342441648D01*
X182477460Y-342448121D01*
X182471704Y-342468146D01*
X182470352Y-342474945D01*
X182459473Y-342501209D01*
X182433308Y-342564378D01*
X182431956Y-342567782D01*
X182397583Y-342658173D01*
X182393909Y-342664037D01*
X182384358Y-342682553D01*
X182381703Y-342688963D01*
X182327888Y-342769503D01*
X182325968Y-342772469D01*
X182274586Y-342854475D01*
X182269834Y-342859514D01*
X182256856Y-342875811D01*
X182253008Y-342881570D01*
X182184542Y-342950036D01*
X182182021Y-342952633D01*
X182115656Y-343023008D01*
X182110023Y-343027016D01*
X182094101Y-343040477D01*
X182089201Y-343045377D01*
X182008697Y-343099168D01*
X182005747Y-343101202D01*
X181926900Y-343157298D01*
X181920578Y-343160137D01*
X181902355Y-343170224D01*
X181896590Y-343174076D01*
X181807080Y-343211152D01*
X181803917Y-343212517D01*
X181715572Y-343252183D01*
X181708820Y-343253733D01*
X181688983Y-343260070D01*
X181682572Y-343262725D01*
X181587595Y-343281617D01*
X181584144Y-343282356D01*
X181489794Y-343304016D01*
X181482886Y-343304219D01*
X181462175Y-343306565D01*
X181455371Y-343307918D01*
X181358572Y-343307918D01*
X181354908Y-343307972D01*
X181258243Y-343310807D01*
X181258242Y-343310807D01*
X181251427Y-343309658D01*
X181230645Y-343307918D01*
X181223718Y-343307918D01*
X181128791Y-343289036D01*
X181125187Y-343288374D01*
X181098326Y-343283845D01*
X181029815Y-343272294D01*
X181023342Y-343269833D01*
X181003317Y-343264077D01*
X180996518Y-343262725D01*
X180931056Y-343235610D01*
X180907085Y-343225681D01*
X180903681Y-343224329D01*
X180872769Y-343212574D01*
X180813290Y-343189956D01*
X180807426Y-343186282D01*
X180788910Y-343176731D01*
X180782500Y-343174076D01*
X180701960Y-343120261D01*
X180698994Y-343118341D01*
X180616988Y-343066959D01*
X180611949Y-343062207D01*
X180595652Y-343049229D01*
X180589893Y-343045381D01*
X180521427Y-342976915D01*
X180518830Y-342974394D01*
X180448455Y-342908029D01*
X180444447Y-342902396D01*
X180430986Y-342886474D01*
X180426086Y-342881574D01*
X180372295Y-342801070D01*
X180370261Y-342798120D01*
X180314165Y-342719273D01*
X180311326Y-342712951D01*
X180301238Y-342694726D01*
X180297387Y-342688963D01*
X180260311Y-342599453D01*
X180258946Y-342596290D01*
X180219280Y-342507945D01*
X180217730Y-342501193D01*
X180211393Y-342481356D01*
X180208738Y-342474945D01*
X180189846Y-342379968D01*
X180189107Y-342376517D01*
X180167447Y-342282167D01*
X180167244Y-342275258D01*
X180164898Y-342254548D01*
X180163545Y-342247744D01*
X180163545Y-342150933D01*
X180163492Y-342147333D01*
X180162357Y-342108641D01*
X180163250Y-342095692D01*
X180163545Y-342087122D01*
X180163545Y-342016091D01*
X180169941Y-341983937D01*
X180172045Y-341968166D01*
X180210307Y-341413373D01*
X180239169Y-341242188D01*
X180321507Y-341025663D01*
X180444504Y-340829361D01*
X180550457Y-340717006D01*
X180603433Y-340660828D01*
X180723536Y-340575382D01*
X180792190Y-340526538D01*
X181003518Y-340431653D01*
X181229296Y-340379819D01*
X181460847Y-340373028D01*
X181689275Y-340411542D01*
X181689275Y-340411542D01*
G37*
G36*
X162609730Y-340411542D02*
G01*
X162826255Y-340493879D01*
X163022557Y-340616877D01*
X163191090Y-340775807D01*
X163325380Y-340964563D01*
X163420265Y-341175891D01*
X163472098Y-341401669D01*
X163477188Y-341575195D01*
X163436407Y-342166509D01*
X163436296Y-342168122D01*
X163436000Y-342176722D01*
X163436000Y-342247745D01*
X163417118Y-342342671D01*
X163416456Y-342346275D01*
X163400376Y-342441648D01*
X163397915Y-342448121D01*
X163392159Y-342468146D01*
X163390807Y-342474945D01*
X163379928Y-342501209D01*
X163353763Y-342564378D01*
X163352411Y-342567782D01*
X163318038Y-342658173D01*
X163314364Y-342664037D01*
X163304813Y-342682553D01*
X163302158Y-342688963D01*
X163248343Y-342769503D01*
X163246423Y-342772469D01*
X163195041Y-342854475D01*
X163190289Y-342859514D01*
X163177311Y-342875811D01*
X163173463Y-342881570D01*
X163104997Y-342950036D01*
X163102476Y-342952633D01*
X163036111Y-343023008D01*
X163030478Y-343027016D01*
X163014556Y-343040477D01*
X163009656Y-343045377D01*
X162929152Y-343099168D01*
X162926202Y-343101202D01*
X162847355Y-343157298D01*
X162841033Y-343160137D01*
X162822810Y-343170224D01*
X162817045Y-343174076D01*
X162727535Y-343211152D01*
X162724372Y-343212517D01*
X162636027Y-343252183D01*
X162629275Y-343253733D01*
X162609438Y-343260070D01*
X162603027Y-343262725D01*
X162508050Y-343281617D01*
X162504599Y-343282356D01*
X162410249Y-343304016D01*
X162403341Y-343304219D01*
X162382630Y-343306565D01*
X162375826Y-343307918D01*
X162279027Y-343307918D01*
X162275363Y-343307972D01*
X162178698Y-343310807D01*
X162178697Y-343310807D01*
X162171882Y-343309658D01*
X162151100Y-343307918D01*
X162144173Y-343307918D01*
X162049246Y-343289036D01*
X162045642Y-343288374D01*
X162018781Y-343283845D01*
X161950270Y-343272294D01*
X161943797Y-343269833D01*
X161923772Y-343264077D01*
X161916973Y-343262725D01*
X161851511Y-343235610D01*
X161827540Y-343225681D01*
X161824136Y-343224329D01*
X161793224Y-343212574D01*
X161733745Y-343189956D01*
X161727881Y-343186282D01*
X161709365Y-343176731D01*
X161702955Y-343174076D01*
X161622415Y-343120261D01*
X161619449Y-343118341D01*
X161537443Y-343066959D01*
X161532404Y-343062207D01*
X161516107Y-343049229D01*
X161510348Y-343045381D01*
X161441882Y-342976915D01*
X161439285Y-342974394D01*
X161368910Y-342908029D01*
X161364902Y-342902396D01*
X161351441Y-342886474D01*
X161346541Y-342881574D01*
X161292750Y-342801070D01*
X161290716Y-342798120D01*
X161234620Y-342719273D01*
X161231781Y-342712951D01*
X161221693Y-342694726D01*
X161217842Y-342688963D01*
X161180766Y-342599453D01*
X161179401Y-342596290D01*
X161139735Y-342507945D01*
X161138185Y-342501193D01*
X161131848Y-342481356D01*
X161129193Y-342474945D01*
X161110301Y-342379968D01*
X161109562Y-342376517D01*
X161087902Y-342282167D01*
X161087699Y-342275258D01*
X161085353Y-342254548D01*
X161084000Y-342247744D01*
X161084000Y-342150933D01*
X161083947Y-342147333D01*
X161082812Y-342108641D01*
X161083705Y-342095692D01*
X161084000Y-342087122D01*
X161084000Y-342016091D01*
X161090396Y-341983937D01*
X161092500Y-341968166D01*
X161130762Y-341413373D01*
X161159624Y-341242188D01*
X161241962Y-341025663D01*
X161364959Y-340829361D01*
X161470912Y-340717006D01*
X161523888Y-340660828D01*
X161643991Y-340575382D01*
X161712645Y-340526538D01*
X161923973Y-340431653D01*
X162149751Y-340379819D01*
X162381302Y-340373028D01*
X162609730Y-340411542D01*
X162609730Y-340411542D01*
G37*
G36*
X192887429Y-340689091D02*
G01*
X192953614Y-340695610D01*
X193123453Y-340747130D01*
X193123455Y-340747131D01*
X193177107Y-340775809D01*
X193279978Y-340830795D01*
X193315716Y-340860125D01*
X193417173Y-340943387D01*
X193487217Y-341028737D01*
X193529765Y-341080582D01*
X193613430Y-341237107D01*
X193664950Y-341406946D01*
X193682346Y-341583573D01*
X193664950Y-341760200D01*
X193613430Y-341930039D01*
X193529765Y-342086564D01*
X193504288Y-342117607D01*
X193417173Y-342223759D01*
X193335069Y-342291139D01*
X193279978Y-342336351D01*
X193123453Y-342420016D01*
X192953614Y-342471536D01*
X192887429Y-342478055D01*
X192821247Y-342484573D01*
X192732727Y-342484573D01*
X192666545Y-342478055D01*
X192600360Y-342471536D01*
X192430521Y-342420016D01*
X192273996Y-342336351D01*
X192218905Y-342291139D01*
X192136801Y-342223759D01*
X192049686Y-342117607D01*
X192024209Y-342086564D01*
X191940544Y-341930039D01*
X191889024Y-341760200D01*
X191871628Y-341583573D01*
X191889024Y-341406946D01*
X191940544Y-341237107D01*
X192024209Y-341080582D01*
X192066757Y-341028737D01*
X192136801Y-340943387D01*
X192238258Y-340860125D01*
X192273996Y-340830795D01*
X192376867Y-340775809D01*
X192430519Y-340747131D01*
X192430521Y-340747130D01*
X192600360Y-340695610D01*
X192666545Y-340689091D01*
X192732727Y-340682573D01*
X192821247Y-340682573D01*
X192887429Y-340689091D01*
X192887429Y-340689091D01*
G37*
G36*
X187857075Y-338422164D02*
G01*
X188082064Y-338477325D01*
X188192518Y-338528890D01*
X188291966Y-338575316D01*
X188291968Y-338575318D01*
X188291969Y-338575318D01*
X188478722Y-338712379D01*
X188635148Y-338883239D01*
X188755234Y-339081335D01*
X188834368Y-339299052D01*
X188869506Y-339528022D01*
X188859299Y-339759449D01*
X188804138Y-339984438D01*
X188752573Y-340094891D01*
X188706147Y-340194339D01*
X188706145Y-340194341D01*
X188706145Y-340194342D01*
X188603431Y-340334296D01*
X187324022Y-341760200D01*
X187316760Y-341768293D01*
X187305865Y-341782327D01*
X187293006Y-341801572D01*
X187235963Y-341858615D01*
X187231313Y-341863524D01*
X187216266Y-341880294D01*
X187194854Y-341899897D01*
X187190873Y-341903705D01*
X187129201Y-341965377D01*
X187115395Y-341974602D01*
X187100437Y-341986336D01*
X187088219Y-341997522D01*
X187013749Y-342042666D01*
X187009102Y-342045625D01*
X186936590Y-342094076D01*
X186936589Y-342094077D01*
X186936588Y-342094077D01*
X186921253Y-342100429D01*
X186904296Y-342109017D01*
X186890126Y-342117607D01*
X186808256Y-342147364D01*
X186803150Y-342149349D01*
X186722572Y-342182725D01*
X186706293Y-342185963D01*
X186687998Y-342191075D01*
X186672409Y-342196741D01*
X186586260Y-342209962D01*
X186580883Y-342210909D01*
X186495372Y-342227918D01*
X186478778Y-342227918D01*
X186459835Y-342229363D01*
X186443438Y-342231879D01*
X186356339Y-342228038D01*
X186350899Y-342227918D01*
X186263717Y-342227918D01*
X186247448Y-342224682D01*
X186228589Y-342222403D01*
X186212013Y-342221672D01*
X186127322Y-342200908D01*
X186122027Y-342199734D01*
X186036518Y-342182725D01*
X186021183Y-342176373D01*
X186003144Y-342170463D01*
X185987024Y-342166511D01*
X185908048Y-342129641D01*
X185903051Y-342127441D01*
X185822500Y-342094076D01*
X185808704Y-342084858D01*
X185792148Y-342075534D01*
X185777120Y-342068518D01*
X185706865Y-342016957D01*
X185702353Y-342013796D01*
X185629889Y-341965377D01*
X185618162Y-341953650D01*
X185603736Y-341941269D01*
X185590366Y-341931457D01*
X185561472Y-341899897D01*
X185531524Y-341867185D01*
X185527716Y-341863204D01*
X185466087Y-341801575D01*
X185466085Y-341801572D01*
X185456871Y-341787783D01*
X185445137Y-341772825D01*
X185433939Y-341760594D01*
X185388763Y-341686070D01*
X185385830Y-341681462D01*
X185337387Y-341608963D01*
X185331040Y-341593640D01*
X185322451Y-341576682D01*
X185313854Y-341562501D01*
X185284077Y-341480576D01*
X185282098Y-341475483D01*
X185248738Y-341394945D01*
X185245503Y-341378681D01*
X185240391Y-341360386D01*
X185234720Y-341344784D01*
X185221490Y-341258576D01*
X185220544Y-341253205D01*
X185203545Y-341167745D01*
X185203545Y-341151166D01*
X185202100Y-341132224D01*
X185199582Y-341115813D01*
X185203426Y-341028669D01*
X185203545Y-341023229D01*
X185203545Y-340936093D01*
X185206779Y-340919835D01*
X185209057Y-340900977D01*
X185209789Y-340884388D01*
X185230553Y-340799696D01*
X185231737Y-340794360D01*
X185241132Y-340747130D01*
X185248738Y-340708891D01*
X185255083Y-340693572D01*
X185260999Y-340675514D01*
X185264950Y-340659399D01*
X185301833Y-340580395D01*
X185304025Y-340575415D01*
X185337387Y-340494873D01*
X185346597Y-340481090D01*
X185355927Y-340464523D01*
X185362942Y-340449496D01*
X185414510Y-340379232D01*
X185417671Y-340374720D01*
X185444682Y-340334296D01*
X185466086Y-340302262D01*
X185523092Y-340245256D01*
X185527728Y-340240362D01*
X186567679Y-339081334D01*
X186852821Y-338763542D01*
X186980863Y-338646318D01*
X186980862Y-338646318D01*
X186980866Y-338646315D01*
X187178961Y-338526229D01*
X187396678Y-338447095D01*
X187625649Y-338411957D01*
X187857075Y-338422164D01*
X187857075Y-338422164D01*
G37*
G36*
X168777530Y-338422164D02*
G01*
X169002519Y-338477325D01*
X169112973Y-338528890D01*
X169212421Y-338575316D01*
X169212423Y-338575318D01*
X169212424Y-338575318D01*
X169399177Y-338712379D01*
X169555603Y-338883239D01*
X169675689Y-339081335D01*
X169754823Y-339299052D01*
X169789961Y-339528022D01*
X169779754Y-339759449D01*
X169724593Y-339984438D01*
X169673028Y-340094891D01*
X169626602Y-340194339D01*
X169626600Y-340194341D01*
X169626600Y-340194342D01*
X169523886Y-340334296D01*
X168244477Y-341760200D01*
X168237215Y-341768293D01*
X168226320Y-341782327D01*
X168213461Y-341801572D01*
X168156418Y-341858615D01*
X168151768Y-341863524D01*
X168136721Y-341880294D01*
X168115309Y-341899897D01*
X168111328Y-341903705D01*
X168049656Y-341965377D01*
X168035850Y-341974602D01*
X168020892Y-341986336D01*
X168008674Y-341997522D01*
X167934204Y-342042666D01*
X167929557Y-342045625D01*
X167857045Y-342094076D01*
X167857044Y-342094077D01*
X167857043Y-342094077D01*
X167841708Y-342100429D01*
X167824751Y-342109017D01*
X167810581Y-342117607D01*
X167728711Y-342147364D01*
X167723605Y-342149349D01*
X167643027Y-342182725D01*
X167626748Y-342185963D01*
X167608453Y-342191075D01*
X167592864Y-342196741D01*
X167506715Y-342209962D01*
X167501338Y-342210909D01*
X167415827Y-342227918D01*
X167399233Y-342227918D01*
X167380290Y-342229363D01*
X167363893Y-342231879D01*
X167276794Y-342228038D01*
X167271354Y-342227918D01*
X167184172Y-342227918D01*
X167167903Y-342224682D01*
X167149044Y-342222403D01*
X167132468Y-342221672D01*
X167047777Y-342200908D01*
X167042482Y-342199734D01*
X166956973Y-342182725D01*
X166941638Y-342176373D01*
X166923599Y-342170463D01*
X166907479Y-342166511D01*
X166828503Y-342129641D01*
X166823506Y-342127441D01*
X166742955Y-342094076D01*
X166729159Y-342084858D01*
X166712603Y-342075534D01*
X166697575Y-342068518D01*
X166627320Y-342016957D01*
X166622808Y-342013796D01*
X166550344Y-341965377D01*
X166538617Y-341953650D01*
X166524191Y-341941269D01*
X166510821Y-341931457D01*
X166481927Y-341899897D01*
X166451979Y-341867185D01*
X166448171Y-341863204D01*
X166386542Y-341801575D01*
X166386540Y-341801572D01*
X166377326Y-341787783D01*
X166365592Y-341772825D01*
X166354394Y-341760594D01*
X166309218Y-341686070D01*
X166306285Y-341681462D01*
X166257842Y-341608963D01*
X166251495Y-341593640D01*
X166242906Y-341576682D01*
X166234309Y-341562501D01*
X166204532Y-341480576D01*
X166202553Y-341475483D01*
X166169193Y-341394945D01*
X166165958Y-341378681D01*
X166160846Y-341360386D01*
X166155175Y-341344784D01*
X166141945Y-341258576D01*
X166140999Y-341253205D01*
X166124000Y-341167745D01*
X166124000Y-341151166D01*
X166122555Y-341132224D01*
X166120037Y-341115813D01*
X166123881Y-341028669D01*
X166124000Y-341023229D01*
X166124000Y-340936093D01*
X166127234Y-340919835D01*
X166129512Y-340900977D01*
X166130244Y-340884388D01*
X166151008Y-340799696D01*
X166152192Y-340794360D01*
X166161587Y-340747130D01*
X166169193Y-340708891D01*
X166175538Y-340693572D01*
X166181454Y-340675514D01*
X166185405Y-340659399D01*
X166222288Y-340580395D01*
X166224480Y-340575415D01*
X166257842Y-340494873D01*
X166267052Y-340481090D01*
X166276382Y-340464523D01*
X166283397Y-340449496D01*
X166334965Y-340379232D01*
X166338126Y-340374720D01*
X166365137Y-340334296D01*
X166386541Y-340302262D01*
X166443547Y-340245256D01*
X166448183Y-340240362D01*
X167488134Y-339081334D01*
X167773276Y-338763542D01*
X167901318Y-338646318D01*
X167901317Y-338646318D01*
X167901321Y-338646315D01*
X168099416Y-338526229D01*
X168317133Y-338447095D01*
X168546104Y-338411957D01*
X168777530Y-338422164D01*
X168777530Y-338422164D01*
G37*
G36*
X154164931Y-339744620D02*
G01*
X154231116Y-339751139D01*
X154400955Y-339802659D01*
X154557480Y-339886324D01*
X154593218Y-339915654D01*
X154694675Y-339998916D01*
X154777937Y-340100373D01*
X154807267Y-340136111D01*
X154890932Y-340292636D01*
X154942452Y-340462475D01*
X154959848Y-340639102D01*
X154942452Y-340815729D01*
X154890932Y-340985568D01*
X154807267Y-341142093D01*
X154777937Y-341177831D01*
X154694675Y-341279288D01*
X154614865Y-341344785D01*
X154557480Y-341391880D01*
X154529294Y-341406946D01*
X154401124Y-341475455D01*
X154400955Y-341475545D01*
X154231116Y-341527065D01*
X154164932Y-341533583D01*
X154098749Y-341540102D01*
X154010229Y-341540102D01*
X153944046Y-341533583D01*
X153877862Y-341527065D01*
X153708023Y-341475545D01*
X153707855Y-341475455D01*
X153579684Y-341406946D01*
X153551498Y-341391880D01*
X153494113Y-341344785D01*
X153414303Y-341279288D01*
X153331041Y-341177831D01*
X153301711Y-341142093D01*
X153218046Y-340985568D01*
X153166526Y-340815729D01*
X153149130Y-340639102D01*
X153166526Y-340462475D01*
X153218046Y-340292636D01*
X153301711Y-340136111D01*
X153331041Y-340100373D01*
X153414303Y-339998916D01*
X153515760Y-339915654D01*
X153551498Y-339886324D01*
X153708023Y-339802659D01*
X153877862Y-339751139D01*
X153944047Y-339744620D01*
X154010229Y-339738102D01*
X154098749Y-339738102D01*
X154164931Y-339744620D01*
X154164931Y-339744620D01*
G37*
G36*
X193677987Y-339944573D02*
G01*
X191875987Y-339944573D01*
X191875987Y-338142573D01*
X193677987Y-338142573D01*
X193677987Y-339944573D01*
X193677987Y-339944573D01*
G37*
G36*
X165396474Y-335085602D02*
G01*
X165614474Y-335175901D01*
X165768623Y-335239751D01*
X166103548Y-335463541D01*
X166388377Y-335748370D01*
X166612167Y-336083295D01*
X166644562Y-336161504D01*
X166766316Y-336455444D01*
X166844900Y-336850512D01*
X166844900Y-337253324D01*
X166766316Y-337648392D01*
X166715451Y-337771190D01*
X166612167Y-338020541D01*
X166388377Y-338355466D01*
X166103548Y-338640295D01*
X165768623Y-338864085D01*
X165614474Y-338927935D01*
X165396474Y-339018234D01*
X165001406Y-339096818D01*
X164598594Y-339096818D01*
X164203526Y-339018234D01*
X163985526Y-338927935D01*
X163831377Y-338864085D01*
X163496452Y-338640295D01*
X163211623Y-338355466D01*
X162987833Y-338020541D01*
X162884549Y-337771190D01*
X162833684Y-337648392D01*
X162755100Y-337253324D01*
X162755100Y-336850512D01*
X162833684Y-336455444D01*
X162955438Y-336161504D01*
X162987833Y-336083295D01*
X163211623Y-335748370D01*
X163496452Y-335463541D01*
X163831377Y-335239751D01*
X163985526Y-335175901D01*
X164203526Y-335085602D01*
X164598594Y-335007018D01*
X165001406Y-335007018D01*
X165396474Y-335085602D01*
X165396474Y-335085602D01*
G37*
G36*
X184476019Y-335085602D02*
G01*
X184694019Y-335175901D01*
X184848168Y-335239751D01*
X185183093Y-335463541D01*
X185467922Y-335748370D01*
X185691712Y-336083295D01*
X185724107Y-336161504D01*
X185845861Y-336455444D01*
X185924445Y-336850512D01*
X185924445Y-337253324D01*
X185845861Y-337648392D01*
X185794996Y-337771190D01*
X185691712Y-338020541D01*
X185467922Y-338355466D01*
X185183093Y-338640295D01*
X184848168Y-338864085D01*
X184694019Y-338927935D01*
X184476019Y-339018234D01*
X184080951Y-339096818D01*
X183678139Y-339096818D01*
X183283071Y-339018234D01*
X183065071Y-338927935D01*
X182910922Y-338864085D01*
X182575997Y-338640295D01*
X182291168Y-338355466D01*
X182067378Y-338020541D01*
X181964094Y-337771190D01*
X181913229Y-337648392D01*
X181834645Y-337253324D01*
X181834645Y-336850512D01*
X181913229Y-336455444D01*
X182034983Y-336161504D01*
X182067378Y-336083295D01*
X182291168Y-335748370D01*
X182575997Y-335463541D01*
X182910922Y-335239751D01*
X183065071Y-335175901D01*
X183283071Y-335085602D01*
X183678139Y-335007018D01*
X184080951Y-335007018D01*
X184476019Y-335085602D01*
X184476019Y-335085602D01*
G37*
G36*
X154164931Y-337204620D02*
G01*
X154231116Y-337211139D01*
X154400955Y-337262659D01*
X154557480Y-337346324D01*
X154593218Y-337375654D01*
X154694675Y-337458916D01*
X154777937Y-337560373D01*
X154807267Y-337596111D01*
X154890932Y-337752636D01*
X154942452Y-337922475D01*
X154959848Y-338099102D01*
X154942452Y-338275729D01*
X154890932Y-338445568D01*
X154807267Y-338602093D01*
X154777937Y-338637831D01*
X154694675Y-338739288D01*
X154593218Y-338822550D01*
X154557480Y-338851880D01*
X154400955Y-338935545D01*
X154231116Y-338987065D01*
X154164931Y-338993584D01*
X154098749Y-339000102D01*
X154010229Y-339000102D01*
X153944047Y-338993584D01*
X153877862Y-338987065D01*
X153708023Y-338935545D01*
X153551498Y-338851880D01*
X153515760Y-338822550D01*
X153414303Y-338739288D01*
X153331041Y-338637831D01*
X153301711Y-338602093D01*
X153218046Y-338445568D01*
X153166526Y-338275729D01*
X153149130Y-338099102D01*
X153166526Y-337922475D01*
X153218046Y-337752636D01*
X153301711Y-337596111D01*
X153331041Y-337560373D01*
X153414303Y-337458916D01*
X153515760Y-337375654D01*
X153551498Y-337346324D01*
X153708023Y-337262659D01*
X153877862Y-337211139D01*
X153944047Y-337204620D01*
X154010229Y-337198102D01*
X154098749Y-337198102D01*
X154164931Y-337204620D01*
X154164931Y-337204620D01*
G37*
G36*
X189229649Y-336161503D02*
G01*
X189398171Y-336231307D01*
X189549836Y-336332646D01*
X189678817Y-336461627D01*
X189780156Y-336613292D01*
X189849960Y-336781814D01*
X189885545Y-336960715D01*
X189885545Y-337143121D01*
X189849960Y-337322022D01*
X189780156Y-337490544D01*
X189678817Y-337642209D01*
X189549836Y-337771190D01*
X189398171Y-337872529D01*
X189229649Y-337942333D01*
X189050748Y-337977918D01*
X188868342Y-337977918D01*
X188689441Y-337942333D01*
X188520919Y-337872529D01*
X188369254Y-337771190D01*
X188240273Y-337642209D01*
X188138934Y-337490544D01*
X188069130Y-337322022D01*
X188033545Y-337143121D01*
X188033545Y-336960715D01*
X188069130Y-336781814D01*
X188138934Y-336613292D01*
X188240273Y-336461627D01*
X188369254Y-336332646D01*
X188520919Y-336231307D01*
X188689441Y-336161503D01*
X188868342Y-336125918D01*
X189050748Y-336125918D01*
X189229649Y-336161503D01*
X189229649Y-336161503D01*
G37*
G36*
X179069649Y-336161503D02*
G01*
X179238171Y-336231307D01*
X179389836Y-336332646D01*
X179518817Y-336461627D01*
X179620156Y-336613292D01*
X179689960Y-336781814D01*
X179725545Y-336960715D01*
X179725545Y-337143121D01*
X179689960Y-337322022D01*
X179620156Y-337490544D01*
X179518817Y-337642209D01*
X179389836Y-337771190D01*
X179238171Y-337872529D01*
X179069649Y-337942333D01*
X178890748Y-337977918D01*
X178708342Y-337977918D01*
X178529441Y-337942333D01*
X178360919Y-337872529D01*
X178209254Y-337771190D01*
X178080273Y-337642209D01*
X177978934Y-337490544D01*
X177909130Y-337322022D01*
X177873545Y-337143121D01*
X177873545Y-336960715D01*
X177909130Y-336781814D01*
X177978934Y-336613292D01*
X178080273Y-336461627D01*
X178209254Y-336332646D01*
X178360919Y-336231307D01*
X178529441Y-336161503D01*
X178708342Y-336125918D01*
X178890748Y-336125918D01*
X179069649Y-336161503D01*
X179069649Y-336161503D01*
G37*
G36*
X159990104Y-336161503D02*
G01*
X160158626Y-336231307D01*
X160310291Y-336332646D01*
X160439272Y-336461627D01*
X160540611Y-336613292D01*
X160610415Y-336781814D01*
X160646000Y-336960715D01*
X160646000Y-337143121D01*
X160610415Y-337322022D01*
X160540611Y-337490544D01*
X160439272Y-337642209D01*
X160310291Y-337771190D01*
X160158626Y-337872529D01*
X159990104Y-337942333D01*
X159811203Y-337977918D01*
X159628797Y-337977918D01*
X159449896Y-337942333D01*
X159281374Y-337872529D01*
X159129709Y-337771190D01*
X159000728Y-337642209D01*
X158899389Y-337490544D01*
X158829585Y-337322022D01*
X158794000Y-337143121D01*
X158794000Y-336960715D01*
X158829585Y-336781814D01*
X158899389Y-336613292D01*
X159000728Y-336461627D01*
X159129709Y-336332646D01*
X159281374Y-336231307D01*
X159449896Y-336161503D01*
X159628797Y-336125918D01*
X159811203Y-336125918D01*
X159990104Y-336161503D01*
X159990104Y-336161503D01*
G37*
G36*
X170150104Y-336161503D02*
G01*
X170318626Y-336231307D01*
X170470291Y-336332646D01*
X170599272Y-336461627D01*
X170700611Y-336613292D01*
X170770415Y-336781814D01*
X170806000Y-336960715D01*
X170806000Y-337143121D01*
X170770415Y-337322022D01*
X170700611Y-337490544D01*
X170599272Y-337642209D01*
X170470291Y-337771190D01*
X170318626Y-337872529D01*
X170150104Y-337942333D01*
X169971203Y-337977918D01*
X169788797Y-337977918D01*
X169609896Y-337942333D01*
X169441374Y-337872529D01*
X169289709Y-337771190D01*
X169160728Y-337642209D01*
X169059389Y-337490544D01*
X168989585Y-337322022D01*
X168954000Y-337143121D01*
X168954000Y-336960715D01*
X168989585Y-336781814D01*
X169059389Y-336613292D01*
X169160728Y-336461627D01*
X169289709Y-336332646D01*
X169441374Y-336231307D01*
X169609896Y-336161503D01*
X169788797Y-336125918D01*
X169971203Y-336125918D01*
X170150104Y-336161503D01*
X170150104Y-336161503D01*
G37*
G36*
X154955489Y-336460102D02*
G01*
X153153489Y-336460102D01*
X153153489Y-334658102D01*
X154955489Y-334658102D01*
X154955489Y-336460102D01*
X154955489Y-336460102D01*
G37*
G36*
X180372130Y-332990720D02*
G01*
X180521955Y-333020522D01*
X180804219Y-333137439D01*
X181058250Y-333307177D01*
X181274286Y-333523213D01*
X181444024Y-333777244D01*
X181560941Y-334059508D01*
X181620545Y-334359158D01*
X181620545Y-334664678D01*
X181560941Y-334964328D01*
X181444024Y-335246592D01*
X181274286Y-335500623D01*
X181058250Y-335716659D01*
X180804219Y-335886397D01*
X180521955Y-336003314D01*
X180372130Y-336033116D01*
X180222306Y-336062918D01*
X179916784Y-336062918D01*
X179766960Y-336033116D01*
X179617135Y-336003314D01*
X179334871Y-335886397D01*
X179080840Y-335716659D01*
X178864804Y-335500623D01*
X178695066Y-335246592D01*
X178578149Y-334964328D01*
X178518545Y-334664678D01*
X178518545Y-334359158D01*
X178578149Y-334059508D01*
X178695066Y-333777244D01*
X178864804Y-333523213D01*
X179080840Y-333307177D01*
X179334871Y-333137439D01*
X179617135Y-333020522D01*
X179766960Y-332990720D01*
X179916784Y-332960918D01*
X180222306Y-332960918D01*
X180372130Y-332990720D01*
X180372130Y-332990720D01*
G37*
G36*
X161292585Y-332990720D02*
G01*
X161442410Y-333020522D01*
X161724674Y-333137439D01*
X161978705Y-333307177D01*
X162194741Y-333523213D01*
X162364479Y-333777244D01*
X162481396Y-334059508D01*
X162541000Y-334359158D01*
X162541000Y-334664678D01*
X162481396Y-334964328D01*
X162364479Y-335246592D01*
X162194741Y-335500623D01*
X161978705Y-335716659D01*
X161724674Y-335886397D01*
X161442410Y-336003314D01*
X161292585Y-336033116D01*
X161142761Y-336062918D01*
X160837239Y-336062918D01*
X160687415Y-336033116D01*
X160537590Y-336003314D01*
X160255326Y-335886397D01*
X160001295Y-335716659D01*
X159785259Y-335500623D01*
X159615521Y-335246592D01*
X159498604Y-334964328D01*
X159439000Y-334664678D01*
X159439000Y-334359158D01*
X159498604Y-334059508D01*
X159615521Y-333777244D01*
X159785259Y-333523213D01*
X160001295Y-333307177D01*
X160255326Y-333137439D01*
X160537590Y-333020522D01*
X160687415Y-332990720D01*
X160837239Y-332960918D01*
X161142761Y-332960918D01*
X161292585Y-332990720D01*
X161292585Y-332990720D01*
G37*
G36*
X159041000Y-335812918D02*
G01*
X156389000Y-335812918D01*
X156389000Y-333210918D01*
X159041000Y-333210918D01*
X159041000Y-335812918D01*
X159041000Y-335812918D01*
G37*
G36*
X178120545Y-335812918D02*
G01*
X175468545Y-335812918D01*
X175468545Y-333210918D01*
X178120545Y-333210918D01*
X178120545Y-335812918D01*
X178120545Y-335812918D01*
G37*
G36*
X167642585Y-330450720D02*
G01*
X167792410Y-330480522D01*
X168074674Y-330597439D01*
X168328705Y-330767177D01*
X168544741Y-330983213D01*
X168714479Y-331237244D01*
X168831396Y-331519508D01*
X168891000Y-331819158D01*
X168891000Y-332124678D01*
X168831396Y-332424328D01*
X168714479Y-332706592D01*
X168544741Y-332960623D01*
X168328705Y-333176659D01*
X168074674Y-333346397D01*
X167792410Y-333463314D01*
X167642585Y-333493116D01*
X167492761Y-333522918D01*
X167187239Y-333522918D01*
X167037415Y-333493116D01*
X166887590Y-333463314D01*
X166605326Y-333346397D01*
X166351295Y-333176659D01*
X166135259Y-332960623D01*
X165965521Y-332706592D01*
X165848604Y-332424328D01*
X165789000Y-332124678D01*
X165789000Y-331819158D01*
X165848604Y-331519508D01*
X165965521Y-331237244D01*
X166135259Y-330983213D01*
X166351295Y-330767177D01*
X166605326Y-330597439D01*
X166887590Y-330480522D01*
X167037415Y-330450720D01*
X167187239Y-330420918D01*
X167492761Y-330420918D01*
X167642585Y-330450720D01*
X167642585Y-330450720D01*
G37*
G36*
X186722130Y-330450720D02*
G01*
X186871955Y-330480522D01*
X187154219Y-330597439D01*
X187408250Y-330767177D01*
X187624286Y-330983213D01*
X187794024Y-331237244D01*
X187910941Y-331519508D01*
X187970545Y-331819158D01*
X187970545Y-332124678D01*
X187910941Y-332424328D01*
X187794024Y-332706592D01*
X187624286Y-332960623D01*
X187408250Y-333176659D01*
X187154219Y-333346397D01*
X186871955Y-333463314D01*
X186722130Y-333493116D01*
X186572306Y-333522918D01*
X186266784Y-333522918D01*
X186116960Y-333493116D01*
X185967135Y-333463314D01*
X185684871Y-333346397D01*
X185430840Y-333176659D01*
X185214804Y-332960623D01*
X185045066Y-332706592D01*
X184928149Y-332424328D01*
X184868545Y-332124678D01*
X184868545Y-331819158D01*
X184928149Y-331519508D01*
X185045066Y-331237244D01*
X185214804Y-330983213D01*
X185430840Y-330767177D01*
X185684871Y-330597439D01*
X185967135Y-330480522D01*
X186116960Y-330450720D01*
X186266784Y-330420918D01*
X186572306Y-330420918D01*
X186722130Y-330450720D01*
X186722130Y-330450720D01*
G37*
G36*
X171968000Y-333272918D02*
G01*
X169316000Y-333272918D01*
X169316000Y-330670918D01*
X171968000Y-330670918D01*
X171968000Y-333272918D01*
X171968000Y-333272918D01*
G37*
G36*
X191047545Y-333272918D02*
G01*
X188395545Y-333272918D01*
X188395545Y-330670918D01*
X191047545Y-330670918D01*
X191047545Y-333272918D01*
X191047545Y-333272918D01*
G37*
G36*
X167695102Y-324440029D02*
G01*
X167228710Y-326180627D01*
X165488112Y-325714235D01*
X165954504Y-323973637D01*
X167695102Y-324440029D01*
X167695102Y-324440029D01*
G37*
G36*
X164248597Y-323525250D02*
G01*
X164314782Y-323531769D01*
X164484621Y-323583289D01*
X164641146Y-323666954D01*
X164676884Y-323696284D01*
X164778341Y-323779546D01*
X164861603Y-323881003D01*
X164890933Y-323916741D01*
X164974598Y-324073266D01*
X165026118Y-324243105D01*
X165043514Y-324419732D01*
X165026118Y-324596359D01*
X164974598Y-324766198D01*
X164890933Y-324922723D01*
X164861603Y-324958461D01*
X164778341Y-325059918D01*
X164676884Y-325143180D01*
X164641146Y-325172510D01*
X164484621Y-325256175D01*
X164314782Y-325307695D01*
X164248597Y-325314214D01*
X164182415Y-325320732D01*
X164093895Y-325320732D01*
X164027713Y-325314214D01*
X163961528Y-325307695D01*
X163791689Y-325256175D01*
X163635164Y-325172510D01*
X163599426Y-325143180D01*
X163497969Y-325059918D01*
X163414707Y-324958461D01*
X163385377Y-324922723D01*
X163301712Y-324766198D01*
X163250192Y-324596359D01*
X163232796Y-324419732D01*
X163250192Y-324243105D01*
X163301712Y-324073266D01*
X163385377Y-323916741D01*
X163414707Y-323881003D01*
X163497969Y-323779546D01*
X163599426Y-323696284D01*
X163635164Y-323666954D01*
X163791689Y-323583289D01*
X163961528Y-323531769D01*
X164027713Y-323525250D01*
X164093895Y-323518732D01*
X164182415Y-323518732D01*
X164248597Y-323525250D01*
X164248597Y-323525250D01*
G37*
G36*
X161795147Y-322867850D02*
G01*
X161861331Y-322874368D01*
X162031170Y-322925888D01*
X162187695Y-323009553D01*
X162223433Y-323038883D01*
X162324890Y-323122145D01*
X162408152Y-323223602D01*
X162437482Y-323259340D01*
X162521147Y-323415865D01*
X162572667Y-323585704D01*
X162590063Y-323762331D01*
X162572667Y-323938958D01*
X162521147Y-324108797D01*
X162437482Y-324265322D01*
X162408152Y-324301060D01*
X162324890Y-324402517D01*
X162223433Y-324485779D01*
X162187695Y-324515109D01*
X162031170Y-324598774D01*
X161861331Y-324650294D01*
X161795146Y-324656813D01*
X161728964Y-324663331D01*
X161640444Y-324663331D01*
X161574262Y-324656813D01*
X161508077Y-324650294D01*
X161338238Y-324598774D01*
X161181713Y-324515109D01*
X161145975Y-324485779D01*
X161044518Y-324402517D01*
X160961256Y-324301060D01*
X160931926Y-324265322D01*
X160848261Y-324108797D01*
X160796741Y-323938958D01*
X160779345Y-323762331D01*
X160796741Y-323585704D01*
X160848261Y-323415865D01*
X160931926Y-323259340D01*
X160961256Y-323223602D01*
X161044518Y-323122145D01*
X161145975Y-323038883D01*
X161181713Y-323009553D01*
X161338238Y-322925888D01*
X161508077Y-322874368D01*
X161574261Y-322867850D01*
X161640444Y-322861331D01*
X161728964Y-322861331D01*
X161795147Y-322867850D01*
X161795147Y-322867850D01*
G37*
G36*
X159341694Y-322210449D02*
G01*
X159407879Y-322216968D01*
X159577718Y-322268488D01*
X159734243Y-322352153D01*
X159769981Y-322381483D01*
X159871438Y-322464745D01*
X159954700Y-322566202D01*
X159984030Y-322601940D01*
X160067695Y-322758465D01*
X160119215Y-322928304D01*
X160136611Y-323104931D01*
X160119215Y-323281558D01*
X160067695Y-323451397D01*
X159984030Y-323607922D01*
X159954700Y-323643660D01*
X159871438Y-323745117D01*
X159769981Y-323828379D01*
X159734243Y-323857709D01*
X159577718Y-323941374D01*
X159407879Y-323992894D01*
X159341695Y-323999412D01*
X159275512Y-324005931D01*
X159186992Y-324005931D01*
X159120809Y-323999412D01*
X159054625Y-323992894D01*
X158884786Y-323941374D01*
X158728261Y-323857709D01*
X158692523Y-323828379D01*
X158591066Y-323745117D01*
X158507804Y-323643660D01*
X158478474Y-323607922D01*
X158394809Y-323451397D01*
X158343289Y-323281558D01*
X158325893Y-323104931D01*
X158343289Y-322928304D01*
X158394809Y-322758465D01*
X158478474Y-322601940D01*
X158507804Y-322566202D01*
X158591066Y-322464745D01*
X158692523Y-322381483D01*
X158728261Y-322352153D01*
X158884786Y-322268488D01*
X159054625Y-322216968D01*
X159120810Y-322210449D01*
X159186992Y-322203931D01*
X159275512Y-322203931D01*
X159341694Y-322210449D01*
X159341694Y-322210449D01*
G37*
M02*
