G04 #@! TF.GenerationSoftware,KiCad,Pcbnew,(5.1.4)-1*
G04 #@! TF.CreationDate,2023-01-09T13:42:42-05:00*
G04 #@! TF.ProjectId,ThumbsUp,5468756d-6273-4557-902e-6b696361645f,rev?*
G04 #@! TF.SameCoordinates,Original*
G04 #@! TF.FileFunction,Legend,Bot*
G04 #@! TF.FilePolarity,Positive*
%FSLAX46Y46*%
G04 Gerber Fmt 4.6, Leading zero omitted, Abs format (unit mm)*
G04 Created by KiCad (PCBNEW (5.1.4)-1) date 2023-01-09 13:42:42*
%MOMM*%
%LPD*%
G04 APERTURE LIST*
%ADD10C,0.150000*%
%ADD11C,0.120000*%
G04 APERTURE END LIST*
D10*
X184629295Y-378825026D02*
X185116740Y-378508379D01*
X185159114Y-379039087D02*
X185533721Y-378111903D01*
X185180508Y-377969196D01*
X185074366Y-377977671D01*
X185012376Y-378003984D01*
X184932548Y-378074449D01*
X184879033Y-378206904D01*
X184887508Y-378313045D01*
X184913821Y-378375035D01*
X184984286Y-378454864D01*
X185337499Y-378597571D01*
X184231931Y-378664481D02*
X184606537Y-377737297D01*
X183661515Y-377406842D02*
X183767657Y-377398367D01*
X183900111Y-377451882D01*
X184014728Y-377549549D01*
X184067354Y-377673529D01*
X184075829Y-377779671D01*
X184048627Y-377974116D01*
X183995112Y-378106570D01*
X183879607Y-378265338D01*
X183799778Y-378335803D01*
X183675798Y-378388430D01*
X183525505Y-378379066D01*
X183437202Y-378343389D01*
X183322585Y-378245722D01*
X183296272Y-378183732D01*
X183421141Y-377874671D01*
X183597747Y-377946025D01*
X182863231Y-378111490D02*
X183237837Y-377184306D01*
X183059453Y-377625822D02*
X182529634Y-377411761D01*
X182333411Y-377897429D02*
X182708018Y-376970245D01*
X182398957Y-376845376D02*
X181869137Y-376631315D01*
X181759440Y-377665530D02*
X182134047Y-376738346D01*
X180366205Y-376537679D02*
X180675266Y-376662548D01*
X180479044Y-377148216D02*
X180853650Y-376221032D01*
X180412134Y-376042648D01*
X179154495Y-376613064D02*
X179641941Y-376296416D01*
X179684315Y-376827124D02*
X180058921Y-375899941D01*
X179705708Y-375757233D01*
X179599567Y-375765708D01*
X179537577Y-375792021D01*
X179457748Y-375862486D01*
X179404233Y-375994941D01*
X179412708Y-376101083D01*
X179439021Y-376163073D01*
X179509486Y-376242901D01*
X179862699Y-376385608D01*
X178955131Y-375453980D02*
X178778524Y-375382627D01*
X178672383Y-375391102D01*
X178548403Y-375443728D01*
X178432897Y-375602496D01*
X178308029Y-375911557D01*
X178280827Y-376106002D01*
X178333453Y-376229982D01*
X178403918Y-376309811D01*
X178580524Y-376381164D01*
X178686666Y-376372689D01*
X178810646Y-376320063D01*
X178926151Y-376161295D01*
X179051020Y-375852234D01*
X179078222Y-375657789D01*
X179025596Y-375533809D01*
X178955131Y-375453980D01*
X177785795Y-376060073D02*
X178160402Y-375132889D01*
X177583764Y-375670294D01*
X177542279Y-374883151D01*
X177167673Y-375810335D01*
X175906892Y-374736000D02*
X175756599Y-374726636D01*
X175694609Y-374752949D01*
X175614780Y-374823414D01*
X175561265Y-374955869D01*
X175569740Y-375062011D01*
X175596053Y-375124001D01*
X175666518Y-375203829D01*
X176019731Y-375346536D01*
X176394337Y-374419353D01*
X176085276Y-374294484D01*
X175979134Y-374302959D01*
X175917144Y-374329272D01*
X175837316Y-374399737D01*
X175801639Y-374488040D01*
X175810114Y-374594181D01*
X175836427Y-374656171D01*
X175906892Y-374736000D01*
X176215953Y-374860869D01*
X175288769Y-374486262D02*
X174979708Y-374361393D01*
X174651031Y-374793546D02*
X175092547Y-374971930D01*
X175467153Y-374044746D01*
X175025637Y-373866362D01*
X173812150Y-374454616D02*
X174253666Y-374633000D01*
X174628273Y-373705816D01*
X173701089Y-373331210D02*
X173524483Y-373259856D01*
X173418341Y-373268331D01*
X173294361Y-373320957D01*
X173178856Y-373479725D01*
X173053987Y-373788787D01*
X173026785Y-373983231D01*
X173079411Y-374107211D01*
X173149876Y-374187040D01*
X173326482Y-374258394D01*
X173432624Y-374249919D01*
X173556604Y-374197292D01*
X173672109Y-374038524D01*
X173796978Y-373729463D01*
X173824180Y-373535018D01*
X173771554Y-373411038D01*
X173701089Y-373331210D01*
X172994663Y-373045795D02*
X172399299Y-373883787D01*
X172490268Y-373150159D01*
X172046086Y-373741080D01*
X172199934Y-372724704D01*
D11*
X194106987Y-357713573D02*
X192776987Y-357713573D01*
X194106987Y-359043573D02*
X194106987Y-357713573D01*
X194106987Y-360313573D02*
X191446987Y-360313573D01*
X191446987Y-360313573D02*
X191446987Y-367993573D01*
X194106987Y-360313573D02*
X194106987Y-367993573D01*
X194106987Y-367993573D02*
X191446987Y-367993573D01*
D10*
X162879545Y-359251918D02*
X162879545Y-358551918D01*
X162879545Y-358551918D02*
X158379545Y-358551918D01*
X164379545Y-360751918D02*
G75*
G02X162879545Y-359251918I0J1500000D01*
G01*
X163879545Y-365251918D02*
X163379545Y-364751918D01*
X163379545Y-363751918D02*
X163379545Y-364751918D01*
X158379545Y-363251918D02*
X162879545Y-363251918D01*
X167379545Y-361251918D02*
X166879545Y-360751918D01*
X158379545Y-362651918D02*
X158379545Y-363251918D01*
X166879545Y-360751918D02*
X164379545Y-360751918D01*
X167379545Y-364751918D02*
X166879545Y-365251918D01*
X166879545Y-365251918D02*
X163879545Y-365251918D01*
X162879545Y-363251918D02*
G75*
G02X163379545Y-363751918I0J-500000D01*
G01*
X158379545Y-358551918D02*
X158379545Y-359051918D01*
X181379545Y-359251918D02*
X181379545Y-358551918D01*
X181379545Y-358551918D02*
X176879545Y-358551918D01*
X182879545Y-360751918D02*
G75*
G02X181379545Y-359251918I0J1500000D01*
G01*
X182379545Y-365251918D02*
X181879545Y-364751918D01*
X181879545Y-363751918D02*
X181879545Y-364751918D01*
X176879545Y-363251918D02*
X181379545Y-363251918D01*
X185879545Y-361251918D02*
X185379545Y-360751918D01*
X176879545Y-362651918D02*
X176879545Y-363251918D01*
X185379545Y-360751918D02*
X182879545Y-360751918D01*
X185879545Y-364751918D02*
X185379545Y-365251918D01*
X185379545Y-365251918D02*
X182379545Y-365251918D01*
X181379545Y-363251918D02*
G75*
G02X181879545Y-363751918I0J-500000D01*
G01*
X176879545Y-358551918D02*
X176879545Y-359051918D01*
D11*
X189136132Y-368061045D02*
X189136132Y-366731045D01*
X187806132Y-368061045D02*
X189136132Y-368061045D01*
X186536132Y-368061045D02*
X186536132Y-365401045D01*
X186536132Y-365401045D02*
X178856132Y-365401045D01*
X186536132Y-368061045D02*
X178856132Y-368061045D01*
X178856132Y-368061045D02*
X178856132Y-365401045D01*
X155384489Y-354229102D02*
X154054489Y-354229102D01*
X155384489Y-355559102D02*
X155384489Y-354229102D01*
X155384489Y-356829102D02*
X152724489Y-356829102D01*
X152724489Y-356829102D02*
X152724489Y-364509102D01*
X155384489Y-356829102D02*
X155384489Y-364509102D01*
X155384489Y-364509102D02*
X152724489Y-364509102D01*
X167532059Y-346706043D02*
X167876288Y-345421361D01*
X166247378Y-346361813D02*
X167532059Y-346706043D01*
X165020652Y-346033113D02*
X165709111Y-343463750D01*
X165709111Y-343463750D02*
X158290800Y-341476020D01*
X165020652Y-346033113D02*
X157602342Y-344045383D01*
X157602342Y-344045383D02*
X158290800Y-341476020D01*
D10*
X193586510Y-356165953D02*
X193586510Y-356880239D01*
X193634129Y-357023096D01*
X193729367Y-357118334D01*
X193872225Y-357165953D01*
X193967463Y-357165953D01*
X193205558Y-356165953D02*
X192586510Y-356165953D01*
X192919844Y-356546906D01*
X192776987Y-356546906D01*
X192681748Y-356594525D01*
X192634129Y-356642144D01*
X192586510Y-356737382D01*
X192586510Y-356975477D01*
X192634129Y-357070715D01*
X192681748Y-357118334D01*
X192776987Y-357165953D01*
X193062701Y-357165953D01*
X193157939Y-357118334D01*
X193205558Y-357070715D01*
X192253177Y-356165953D02*
X191634129Y-356165953D01*
X191967463Y-356546906D01*
X191824606Y-356546906D01*
X191729367Y-356594525D01*
X191681748Y-356642144D01*
X191634129Y-356737382D01*
X191634129Y-356975477D01*
X191681748Y-357070715D01*
X191729367Y-357118334D01*
X191824606Y-357165953D01*
X192110320Y-357165953D01*
X192205558Y-357118334D01*
X192253177Y-357070715D01*
X162696449Y-365124298D02*
X162696449Y-364124298D01*
X162363116Y-364838584D01*
X162029783Y-364124298D01*
X162029783Y-365124298D01*
X161648830Y-364124298D02*
X160982164Y-365124298D01*
X160982164Y-364124298D02*
X161648830Y-365124298D01*
X160696449Y-364124298D02*
X160077402Y-364124298D01*
X160410735Y-364505251D01*
X160267878Y-364505251D01*
X160172640Y-364552870D01*
X160125021Y-364600489D01*
X160077402Y-364695727D01*
X160077402Y-364933822D01*
X160125021Y-365029060D01*
X160172640Y-365076679D01*
X160267878Y-365124298D01*
X160553592Y-365124298D01*
X160648830Y-365076679D01*
X160696449Y-365029060D01*
X159458354Y-364124298D02*
X159363116Y-364124298D01*
X159267878Y-364171918D01*
X159220259Y-364219537D01*
X159172640Y-364314775D01*
X159125021Y-364505251D01*
X159125021Y-364743346D01*
X159172640Y-364933822D01*
X159220259Y-365029060D01*
X159267878Y-365076679D01*
X159363116Y-365124298D01*
X159458354Y-365124298D01*
X159553592Y-365076679D01*
X159601211Y-365029060D01*
X159648830Y-364933822D01*
X159696449Y-364743346D01*
X159696449Y-364505251D01*
X159648830Y-364314775D01*
X159601211Y-364219537D01*
X159553592Y-364171918D01*
X159458354Y-364124298D01*
X181196449Y-365124298D02*
X181196449Y-364124298D01*
X180863116Y-364838584D01*
X180529783Y-364124298D01*
X180529783Y-365124298D01*
X180148830Y-364124298D02*
X179482164Y-365124298D01*
X179482164Y-364124298D02*
X180148830Y-365124298D01*
X179148830Y-364219537D02*
X179101211Y-364171918D01*
X179005973Y-364124298D01*
X178767878Y-364124298D01*
X178672640Y-364171918D01*
X178625021Y-364219537D01*
X178577402Y-364314775D01*
X178577402Y-364410013D01*
X178625021Y-364552870D01*
X179196449Y-365124298D01*
X178577402Y-365124298D01*
X177720259Y-364124298D02*
X177910735Y-364124298D01*
X178005973Y-364171918D01*
X178053592Y-364219537D01*
X178148830Y-364362394D01*
X178196449Y-364552870D01*
X178196449Y-364933822D01*
X178148830Y-365029060D01*
X178101211Y-365076679D01*
X178005973Y-365124298D01*
X177815497Y-365124298D01*
X177720259Y-365076679D01*
X177672640Y-365029060D01*
X177625021Y-364933822D01*
X177625021Y-364695727D01*
X177672640Y-364600489D01*
X177720259Y-364552870D01*
X177815497Y-364505251D01*
X178005973Y-364505251D01*
X178101211Y-364552870D01*
X178148830Y-364600489D01*
X178196449Y-364695727D01*
X190683751Y-367064378D02*
X189969465Y-367064378D01*
X189826608Y-367111997D01*
X189731370Y-367207235D01*
X189683751Y-367350092D01*
X189683751Y-367445330D01*
X190683751Y-366159616D02*
X190683751Y-366350092D01*
X190636132Y-366445330D01*
X190588512Y-366492949D01*
X190445655Y-366588187D01*
X190255179Y-366635806D01*
X189874227Y-366635806D01*
X189778989Y-366588187D01*
X189731370Y-366540568D01*
X189683751Y-366445330D01*
X189683751Y-366254854D01*
X189731370Y-366159616D01*
X189778989Y-366111997D01*
X189874227Y-366064378D01*
X190112322Y-366064378D01*
X190207560Y-366111997D01*
X190255179Y-366159616D01*
X190302798Y-366254854D01*
X190302798Y-366445330D01*
X190255179Y-366540568D01*
X190207560Y-366588187D01*
X190112322Y-366635806D01*
X154864012Y-352681482D02*
X154864012Y-353395768D01*
X154911631Y-353538625D01*
X155006869Y-353633863D01*
X155149727Y-353681482D01*
X155244965Y-353681482D01*
X153959250Y-353014816D02*
X153959250Y-353681482D01*
X154197346Y-352633863D02*
X154435441Y-353348149D01*
X153816393Y-353348149D01*
X153292584Y-353110054D02*
X153387822Y-353062435D01*
X153435441Y-353014816D01*
X153483060Y-352919578D01*
X153483060Y-352871959D01*
X153435441Y-352776721D01*
X153387822Y-352729102D01*
X153292584Y-352681482D01*
X153102108Y-352681482D01*
X153006869Y-352729102D01*
X152959250Y-352776721D01*
X152911631Y-352871959D01*
X152911631Y-352919578D01*
X152959250Y-353014816D01*
X153006869Y-353062435D01*
X153102108Y-353110054D01*
X153292584Y-353110054D01*
X153387822Y-353157673D01*
X153435441Y-353205292D01*
X153483060Y-353300530D01*
X153483060Y-353491006D01*
X153435441Y-353586244D01*
X153387822Y-353633863D01*
X153292584Y-353681482D01*
X153102108Y-353681482D01*
X153006869Y-353633863D01*
X152959250Y-353586244D01*
X152911631Y-353491006D01*
X152911631Y-353300530D01*
X152959250Y-353205292D01*
X153006869Y-353157673D01*
X153102108Y-353110054D01*
X168522774Y-344756505D02*
X169212721Y-344941376D01*
X169363035Y-344932354D01*
X169479678Y-344865010D01*
X169562648Y-344739346D01*
X169587298Y-344647353D01*
X168424177Y-345124477D02*
X168263955Y-345722431D01*
X168718200Y-345499054D01*
X168681226Y-345637043D01*
X168702573Y-345741361D01*
X168736245Y-345799682D01*
X168815913Y-345870328D01*
X169045895Y-345931951D01*
X169150213Y-345910604D01*
X169208534Y-345876933D01*
X169279180Y-345797264D01*
X169353128Y-345521285D01*
X169331781Y-345416968D01*
X169298109Y-345358647D01*
X168029786Y-346596364D02*
X168153033Y-346136399D01*
X168625322Y-346213650D01*
X168567001Y-346247322D01*
X168496355Y-346326990D01*
X168434732Y-346556972D01*
X168456079Y-346661290D01*
X168489750Y-346719611D01*
X168569419Y-346790257D01*
X168799401Y-346851881D01*
X168903719Y-346830534D01*
X168962040Y-346796862D01*
X169032686Y-346717194D01*
X169094309Y-346487211D01*
X169072962Y-346382894D01*
X169039290Y-346324572D01*
M02*
