G04 #@! TF.GenerationSoftware,KiCad,Pcbnew,(5.1.4)-1*
G04 #@! TF.CreationDate,2023-01-09T13:42:41-05:00*
G04 #@! TF.ProjectId,ThumbsUp,5468756d-6273-4557-902e-6b696361645f,rev?*
G04 #@! TF.SameCoordinates,Original*
G04 #@! TF.FileFunction,Copper,L2,Bot*
G04 #@! TF.FilePolarity,Positive*
%FSLAX46Y46*%
G04 Gerber Fmt 4.6, Leading zero omitted, Abs format (unit mm)*
G04 Created by KiCad (PCBNEW (5.1.4)-1) date 2023-01-09 13:42:41*
%MOMM*%
%LPD*%
G04 APERTURE LIST*
%ADD10O,1.700000X1.700000*%
%ADD11R,1.700000X1.700000*%
%ADD12R,2.600000X2.600000*%
%ADD13C,1.700000*%
%ADD14C,1.700000*%
%ADD15C,0.100000*%
%ADD16C,0.250000*%
G04 APERTURE END LIST*
D10*
X192776987Y-366663573D03*
X192776987Y-364123573D03*
X192776987Y-361583573D03*
D11*
X192776987Y-359043573D03*
D12*
X168654545Y-363001918D03*
X157104545Y-360801918D03*
X187154545Y-363001918D03*
X175604545Y-360801918D03*
D10*
X180186132Y-366731045D03*
X182726132Y-366731045D03*
X185266132Y-366731045D03*
D11*
X187806132Y-366731045D03*
D10*
X154054489Y-363179102D03*
X154054489Y-360639102D03*
X154054489Y-358099102D03*
D11*
X154054489Y-355559102D03*
D13*
X159231252Y-343104931D03*
D14*
X159231252Y-343104931D02*
X159231252Y-343104931D01*
D13*
X161684704Y-343762331D03*
D14*
X161684704Y-343762331D02*
X161684704Y-343762331D01*
D13*
X164138155Y-344419732D03*
D14*
X164138155Y-344419732D02*
X164138155Y-344419732D01*
D13*
X166591607Y-345077132D03*
D15*
G36*
X167192648Y-346118165D02*
G01*
X165550574Y-345678173D01*
X165990566Y-344036099D01*
X167632640Y-344476091D01*
X167192648Y-346118165D01*
X167192648Y-346118165D01*
G37*
D16*
X180399087Y-364404000D02*
X177656627Y-364404000D01*
X182726132Y-366731045D02*
X180399087Y-364404000D01*
X177656627Y-364404000D02*
X175604545Y-362351918D01*
X175604545Y-362351918D02*
X175604545Y-360801918D01*
X187154545Y-355152545D02*
X186106000Y-354104000D01*
X180186132Y-366731045D02*
X170833672Y-366731045D01*
X168654545Y-364551918D02*
X168654545Y-363001918D01*
X168654545Y-355155455D02*
X168654545Y-363001918D01*
X169706000Y-354104000D02*
X168654545Y-355155455D01*
X186106000Y-354104000D02*
X169706000Y-354104000D01*
X170833672Y-366731045D02*
X168654545Y-364551918D01*
X187154545Y-363001918D02*
X187154545Y-355152545D01*
X186292400Y-353653990D02*
X158456010Y-353653990D01*
X187604554Y-359402554D02*
X187604554Y-354966144D01*
X188806000Y-365204000D02*
X189606000Y-364404000D01*
X189606000Y-361404000D02*
X187604554Y-359402554D01*
X189606000Y-364404000D02*
X189606000Y-361404000D01*
X186793177Y-365204000D02*
X188806000Y-365204000D01*
X185266132Y-366731045D02*
X186793177Y-365204000D01*
X187604554Y-354966144D02*
X186292400Y-353653990D01*
X157104545Y-355005455D02*
X157104545Y-359251918D01*
X157104545Y-359251918D02*
X157104545Y-360801918D01*
X158456010Y-353653990D02*
X157104545Y-355005455D01*
M02*
