G04 #@! TF.GenerationSoftware,KiCad,Pcbnew,(5.1.4)-1*
G04 #@! TF.CreationDate,2023-02-10T21:13:35-05:00*
G04 #@! TF.ProjectId,ThumbsUp,5468756d-6273-4557-902e-6b696361645f,rev?*
G04 #@! TF.SameCoordinates,Original*
G04 #@! TF.FileFunction,Copper,L2,Bot*
G04 #@! TF.FilePolarity,Positive*
%FSLAX46Y46*%
G04 Gerber Fmt 4.6, Leading zero omitted, Abs format (unit mm)*
G04 Created by KiCad (PCBNEW (5.1.4)-1) date 2023-02-10 21:13:35*
%MOMM*%
%LPD*%
G04 APERTURE LIST*
%ADD10O,1.700000X1.700000*%
%ADD11R,1.700000X1.700000*%
%ADD12C,1.700000*%
%ADD13C,1.700000*%
%ADD14C,0.100000*%
%ADD15R,2.550000X2.500000*%
%ADD16C,2.250000*%
%ADD17C,2.250000*%
%ADD18C,0.200000*%
%ADD19C,0.250000*%
G04 APERTURE END LIST*
D10*
X154054489Y-343179102D03*
X154054489Y-340639102D03*
X154054489Y-338099102D03*
D11*
X154054489Y-335559102D03*
D12*
X159231252Y-323104931D03*
D13*
X159231252Y-323104931D02*
X159231252Y-323104931D01*
D12*
X161684704Y-323762331D03*
D13*
X161684704Y-323762331D02*
X161684704Y-323762331D01*
D12*
X164138155Y-324419732D03*
D13*
X164138155Y-324419732D02*
X164138155Y-324419732D01*
D12*
X166591607Y-325077132D03*
D14*
G36*
X167192648Y-326118165D02*
G01*
X165550574Y-325678173D01*
X165990566Y-324036099D01*
X167632640Y-324476091D01*
X167192648Y-326118165D01*
X167192648Y-326118165D01*
G37*
D10*
X192776987Y-346663573D03*
X192776987Y-344123573D03*
X192776987Y-341583573D03*
D11*
X192776987Y-339043573D03*
D10*
X180186132Y-346731045D03*
X182726132Y-346731045D03*
X185266132Y-346731045D03*
D11*
X187806132Y-346731045D03*
D15*
X157715000Y-334511918D03*
X170642000Y-331971918D03*
D16*
X167300000Y-341051918D03*
X167954999Y-340321918D03*
D17*
X168610000Y-339591918D02*
X167299998Y-341051918D01*
D16*
X162260000Y-342131918D03*
X162280000Y-341841918D03*
D17*
X162300000Y-341551918D02*
X162260000Y-342131918D01*
D15*
X176794545Y-334511918D03*
X189721545Y-331971918D03*
D16*
X186379545Y-341051918D03*
X187034544Y-340321918D03*
D17*
X187689545Y-339591918D02*
X186379543Y-341051918D01*
D16*
X181339545Y-342131918D03*
X181359545Y-341841918D03*
D17*
X181379545Y-341551918D02*
X181339545Y-342131918D01*
D18*
X176794545Y-338144545D02*
X176794545Y-334511918D01*
X180201918Y-341551918D02*
X176794545Y-338144545D01*
X181379545Y-341551918D02*
X180201918Y-341551918D01*
X189696545Y-331971918D02*
X189721545Y-331971918D01*
X186200000Y-335325000D02*
X187100000Y-335325000D01*
X187100000Y-339002373D02*
X187689545Y-339591918D01*
X173844001Y-330244917D02*
X181119917Y-330244917D01*
X170667000Y-331971918D02*
X170642000Y-331971918D01*
X187100000Y-335293090D02*
X187100000Y-339002373D01*
X172117000Y-337833000D02*
X172117000Y-333421918D01*
X172117000Y-333421918D02*
X170667000Y-331971918D01*
X170642000Y-331971918D02*
X172117000Y-331971918D01*
X172117000Y-331971918D02*
X173844001Y-330244917D01*
X189721545Y-332671545D02*
X187100000Y-335293090D01*
X170358082Y-339591918D02*
X172117000Y-337833000D01*
X168610000Y-339591918D02*
X170358082Y-339591918D01*
X181119917Y-330244917D02*
X186200000Y-335325000D01*
X189721545Y-331971918D02*
X189721545Y-332671545D01*
X162300000Y-341551918D02*
X160051918Y-341551918D01*
X163384999Y-343256917D02*
X162260000Y-342131918D01*
X160051918Y-341551918D02*
X157715000Y-339215000D01*
X157715000Y-339215000D02*
X157715000Y-334511918D01*
X164728082Y-344600000D02*
X163384999Y-343256917D01*
D19*
X158456010Y-333653990D02*
X157104545Y-335005455D01*
D18*
X183135087Y-344600000D02*
X164728082Y-344600000D01*
X185266132Y-346731045D02*
X183135087Y-344600000D01*
M02*
