G04 #@! TF.GenerationSoftware,KiCad,Pcbnew,(5.1.4)-1*
G04 #@! TF.CreationDate,2023-01-28T07:42:01-05:00*
G04 #@! TF.ProjectId,ThumbsUp,5468756d-6273-4557-902e-6b696361645f,rev?*
G04 #@! TF.SameCoordinates,Original*
G04 #@! TF.FileFunction,Legend,Bot*
G04 #@! TF.FilePolarity,Positive*
%FSLAX46Y46*%
G04 Gerber Fmt 4.6, Leading zero omitted, Abs format (unit mm)*
G04 Created by KiCad (PCBNEW (5.1.4)-1) date 2023-01-28 07:42:01*
%MOMM*%
%LPD*%
G04 APERTURE LIST*
%ADD10C,0.150000*%
%ADD11C,0.120000*%
%ADD12C,0.254000*%
%ADD13C,0.100000*%
%ADD14C,0.200000*%
G04 APERTURE END LIST*
D10*
X184629295Y-378825026D02*
X185116740Y-378508379D01*
X185159114Y-379039087D02*
X185533721Y-378111903D01*
X185180508Y-377969196D01*
X185074366Y-377977671D01*
X185012376Y-378003984D01*
X184932548Y-378074449D01*
X184879033Y-378206904D01*
X184887508Y-378313045D01*
X184913821Y-378375035D01*
X184984286Y-378454864D01*
X185337499Y-378597571D01*
X184231931Y-378664481D02*
X184606537Y-377737297D01*
X183661515Y-377406842D02*
X183767657Y-377398367D01*
X183900111Y-377451882D01*
X184014728Y-377549549D01*
X184067354Y-377673529D01*
X184075829Y-377779671D01*
X184048627Y-377974116D01*
X183995112Y-378106570D01*
X183879607Y-378265338D01*
X183799778Y-378335803D01*
X183675798Y-378388430D01*
X183525505Y-378379066D01*
X183437202Y-378343389D01*
X183322585Y-378245722D01*
X183296272Y-378183732D01*
X183421141Y-377874671D01*
X183597747Y-377946025D01*
X182863231Y-378111490D02*
X183237837Y-377184306D01*
X183059453Y-377625822D02*
X182529634Y-377411761D01*
X182333411Y-377897429D02*
X182708018Y-376970245D01*
X182398957Y-376845376D02*
X181869137Y-376631315D01*
X181759440Y-377665530D02*
X182134047Y-376738346D01*
X180366205Y-376537679D02*
X180675266Y-376662548D01*
X180479044Y-377148216D02*
X180853650Y-376221032D01*
X180412134Y-376042648D01*
X179154495Y-376613064D02*
X179641941Y-376296416D01*
X179684315Y-376827124D02*
X180058921Y-375899941D01*
X179705708Y-375757233D01*
X179599567Y-375765708D01*
X179537577Y-375792021D01*
X179457748Y-375862486D01*
X179404233Y-375994941D01*
X179412708Y-376101083D01*
X179439021Y-376163073D01*
X179509486Y-376242901D01*
X179862699Y-376385608D01*
X178955131Y-375453980D02*
X178778524Y-375382627D01*
X178672383Y-375391102D01*
X178548403Y-375443728D01*
X178432897Y-375602496D01*
X178308029Y-375911557D01*
X178280827Y-376106002D01*
X178333453Y-376229982D01*
X178403918Y-376309811D01*
X178580524Y-376381164D01*
X178686666Y-376372689D01*
X178810646Y-376320063D01*
X178926151Y-376161295D01*
X179051020Y-375852234D01*
X179078222Y-375657789D01*
X179025596Y-375533809D01*
X178955131Y-375453980D01*
X177785795Y-376060073D02*
X178160402Y-375132889D01*
X177583764Y-375670294D01*
X177542279Y-374883151D01*
X177167673Y-375810335D01*
X175906892Y-374736000D02*
X175756599Y-374726636D01*
X175694609Y-374752949D01*
X175614780Y-374823414D01*
X175561265Y-374955869D01*
X175569740Y-375062011D01*
X175596053Y-375124001D01*
X175666518Y-375203829D01*
X176019731Y-375346536D01*
X176394337Y-374419353D01*
X176085276Y-374294484D01*
X175979134Y-374302959D01*
X175917144Y-374329272D01*
X175837316Y-374399737D01*
X175801639Y-374488040D01*
X175810114Y-374594181D01*
X175836427Y-374656171D01*
X175906892Y-374736000D01*
X176215953Y-374860869D01*
X175288769Y-374486262D02*
X174979708Y-374361393D01*
X174651031Y-374793546D02*
X175092547Y-374971930D01*
X175467153Y-374044746D01*
X175025637Y-373866362D01*
X173812150Y-374454616D02*
X174253666Y-374633000D01*
X174628273Y-373705816D01*
X173701089Y-373331210D02*
X173524483Y-373259856D01*
X173418341Y-373268331D01*
X173294361Y-373320957D01*
X173178856Y-373479725D01*
X173053987Y-373788787D01*
X173026785Y-373983231D01*
X173079411Y-374107211D01*
X173149876Y-374187040D01*
X173326482Y-374258394D01*
X173432624Y-374249919D01*
X173556604Y-374197292D01*
X173672109Y-374038524D01*
X173796978Y-373729463D01*
X173824180Y-373535018D01*
X173771554Y-373411038D01*
X173701089Y-373331210D01*
X172994663Y-373045795D02*
X172399299Y-373883787D01*
X172490268Y-373150159D01*
X172046086Y-373741080D01*
X172199934Y-372724704D01*
D11*
X170840000Y-401102064D02*
X170840000Y-399897936D01*
X172660000Y-401102064D02*
X172660000Y-399897936D01*
D10*
X161412025Y-418610323D02*
X161412025Y-417910323D01*
X161412025Y-417910323D02*
X156912025Y-417910323D01*
X162912025Y-420110323D02*
G75*
G02X161412025Y-418610323I0J1500000D01*
G01*
X162412025Y-424610323D02*
X161912025Y-424110323D01*
X161912025Y-423110323D02*
X161912025Y-424110323D01*
X156912025Y-422610323D02*
X161412025Y-422610323D01*
X165912025Y-420610323D02*
X165412025Y-420110323D01*
X156912025Y-422010323D02*
X156912025Y-422610323D01*
X165412025Y-420110323D02*
X162912025Y-420110323D01*
X165912025Y-424110323D02*
X165412025Y-424610323D01*
X165412025Y-424610323D02*
X162412025Y-424610323D01*
X161412025Y-422610323D02*
G75*
G02X161912025Y-423110323I0J-500000D01*
G01*
X156912025Y-417910323D02*
X156912025Y-418410323D01*
D12*
X171300000Y-453125000D02*
G75*
G03X171300000Y-453125000I-100000J0D01*
G01*
D11*
X161590000Y-438900000D02*
X161590000Y-444910000D01*
X168410000Y-441150000D02*
X168410000Y-444910000D01*
X161590000Y-444910000D02*
X162850000Y-444910000D01*
X168410000Y-444910000D02*
X167150000Y-444910000D01*
D13*
X209949385Y-458605965D02*
G75*
G03X210045977Y-458580083I48296J12941D01*
G01*
X210045977Y-458580083D02*
G75*
G03X209949385Y-458605965I-48296J-12941D01*
G01*
X210045977Y-458580083D02*
X210045977Y-458580083D01*
X209949385Y-458605965D02*
X209949385Y-458605965D01*
D14*
X207623763Y-458426774D02*
X206029985Y-458853826D01*
X208374338Y-461227959D02*
X206828857Y-461642070D01*
X206948793Y-462282862D02*
X206780561Y-461655011D01*
X208590867Y-461842870D02*
X206948793Y-462282862D01*
X208422635Y-461215018D02*
X208590867Y-461842870D01*
D13*
X202899385Y-460505965D02*
G75*
G03X202995977Y-460480083I48296J12941D01*
G01*
X202995977Y-460480083D02*
G75*
G03X202899385Y-460505965I-48296J-12941D01*
G01*
X202995977Y-460480083D02*
X202995977Y-460480083D01*
X202899385Y-460505965D02*
X202899385Y-460505965D01*
D14*
X200573763Y-460326774D02*
X198979985Y-460753826D01*
X201324338Y-463127959D02*
X199778857Y-463542070D01*
X199898793Y-464182862D02*
X199730561Y-463555011D01*
X201540867Y-463742870D02*
X199898793Y-464182862D01*
X201372635Y-463115018D02*
X201540867Y-463742870D01*
X165580000Y-466125000D02*
X165580000Y-464475000D01*
X160360000Y-464125000D02*
X165640000Y-464125000D01*
X160360000Y-459275000D02*
X160360000Y-464125000D01*
X165640000Y-459275000D02*
X160360000Y-459275000D01*
X165640000Y-464125000D02*
X165640000Y-459275000D01*
D10*
X179912025Y-421610322D02*
X179912025Y-420910322D01*
X179912025Y-420910322D02*
X175412025Y-420910322D01*
X181412025Y-423110322D02*
G75*
G02X179912025Y-421610322I0J1500000D01*
G01*
X180912025Y-427610322D02*
X180412025Y-427110322D01*
X180412025Y-426110322D02*
X180412025Y-427110322D01*
X175412025Y-425610322D02*
X179912025Y-425610322D01*
X184412025Y-423610322D02*
X183912025Y-423110322D01*
X175412025Y-425010322D02*
X175412025Y-425610322D01*
X183912025Y-423110322D02*
X181412025Y-423110322D01*
X184412025Y-427110322D02*
X183912025Y-427610322D01*
X183912025Y-427610322D02*
X180912025Y-427610322D01*
X179912025Y-425610322D02*
G75*
G02X180412025Y-426110322I0J-500000D01*
G01*
X175412025Y-420910322D02*
X175412025Y-421410322D01*
X198412025Y-447610323D02*
X198412025Y-446910323D01*
X198412025Y-446910323D02*
X193912025Y-446910323D01*
X199912025Y-449110323D02*
G75*
G02X198412025Y-447610323I0J1500000D01*
G01*
X199412025Y-453610323D02*
X198912025Y-453110323D01*
X198912025Y-452110323D02*
X198912025Y-453110323D01*
X193912025Y-451610323D02*
X198412025Y-451610323D01*
X202912025Y-449610323D02*
X202412025Y-449110323D01*
X193912025Y-451010323D02*
X193912025Y-451610323D01*
X202412025Y-449110323D02*
X199912025Y-449110323D01*
X202912025Y-453110323D02*
X202412025Y-453610323D01*
X202412025Y-453610323D02*
X199412025Y-453610323D01*
X198412025Y-451610323D02*
G75*
G02X198912025Y-452110323I0J-500000D01*
G01*
X193912025Y-446910323D02*
X193912025Y-447410323D01*
D11*
X154128726Y-401310794D02*
X155458726Y-401310794D01*
X154128726Y-399980794D02*
X154128726Y-401310794D01*
X154128726Y-398710794D02*
X156788726Y-398710794D01*
X156788726Y-398710794D02*
X156788726Y-391030794D01*
X154128726Y-398710794D02*
X154128726Y-391030794D01*
X154128726Y-391030794D02*
X156788726Y-391030794D01*
D10*
X216912025Y-452610322D02*
X216912025Y-451910322D01*
X216912025Y-451910322D02*
X212412025Y-451910322D01*
X218412025Y-454110322D02*
G75*
G02X216912025Y-452610322I0J1500000D01*
G01*
X217912025Y-458610322D02*
X217412025Y-458110322D01*
X217412025Y-457110322D02*
X217412025Y-458110322D01*
X212412025Y-456610322D02*
X216912025Y-456610322D01*
X221412025Y-454610322D02*
X220912025Y-454110322D01*
X212412025Y-456010322D02*
X212412025Y-456610322D01*
X220912025Y-454110322D02*
X218412025Y-454110322D01*
X221412025Y-458110322D02*
X220912025Y-458610322D01*
X220912025Y-458610322D02*
X217912025Y-458610322D01*
X216912025Y-456610322D02*
G75*
G02X217412025Y-457110322I0J-500000D01*
G01*
X212412025Y-451910322D02*
X212412025Y-452410322D01*
X166412025Y-431710322D02*
X166412025Y-432410322D01*
X166412025Y-432410322D02*
X170912025Y-432410322D01*
X164912025Y-430210322D02*
G75*
G02X166412025Y-431710322I0J-1500000D01*
G01*
X165412025Y-425710322D02*
X165912025Y-426210322D01*
X165912025Y-427210322D02*
X165912025Y-426210322D01*
X170912025Y-427710322D02*
X166412025Y-427710322D01*
X161912025Y-429710322D02*
X162412025Y-430210322D01*
X170912025Y-428310322D02*
X170912025Y-427710322D01*
X162412025Y-430210322D02*
X164912025Y-430210322D01*
X161912025Y-426210322D02*
X162412025Y-425710322D01*
X162412025Y-425710322D02*
X165412025Y-425710322D01*
X166412025Y-427710322D02*
G75*
G02X165912025Y-427210322I0J500000D01*
G01*
X170912025Y-432410322D02*
X170912025Y-431910322D01*
X179912025Y-404110323D02*
X179912025Y-403410323D01*
X179912025Y-403410323D02*
X175412025Y-403410323D01*
X181412025Y-405610323D02*
G75*
G02X179912025Y-404110323I0J1500000D01*
G01*
X180912025Y-410110323D02*
X180412025Y-409610323D01*
X180412025Y-408610323D02*
X180412025Y-409610323D01*
X175412025Y-408110323D02*
X179912025Y-408110323D01*
X184412025Y-406110323D02*
X183912025Y-405610323D01*
X175412025Y-407510323D02*
X175412025Y-408110323D01*
X183912025Y-405610323D02*
X181412025Y-405610323D01*
X184412025Y-409610323D02*
X183912025Y-410110323D01*
X183912025Y-410110323D02*
X180912025Y-410110323D01*
X179912025Y-408110323D02*
G75*
G02X180412025Y-408610323I0J-500000D01*
G01*
X175412025Y-403410323D02*
X175412025Y-403910323D01*
D11*
X154082019Y-449610280D02*
X155412019Y-449610280D01*
X154082019Y-448280280D02*
X154082019Y-449610280D01*
X154082019Y-447010280D02*
X156742019Y-447010280D01*
X156742019Y-447010280D02*
X156742019Y-439330280D01*
X154082019Y-447010280D02*
X154082019Y-439330280D01*
X154082019Y-439330280D02*
X156742019Y-439330280D01*
D10*
X179912025Y-439110322D02*
X179912025Y-438410322D01*
X179912025Y-438410322D02*
X175412025Y-438410322D01*
X181412025Y-440610322D02*
G75*
G02X179912025Y-439110322I0J1500000D01*
G01*
X180912025Y-445110322D02*
X180412025Y-444610322D01*
X180412025Y-443610322D02*
X180412025Y-444610322D01*
X175412025Y-443110322D02*
X179912025Y-443110322D01*
X184412025Y-441110322D02*
X183912025Y-440610322D01*
X175412025Y-442510322D02*
X175412025Y-443110322D01*
X183912025Y-440610322D02*
X181412025Y-440610322D01*
X184412025Y-444610322D02*
X183912025Y-445110322D01*
X183912025Y-445110322D02*
X180912025Y-445110322D01*
X179912025Y-443110322D02*
G75*
G02X180412025Y-443610322I0J-500000D01*
G01*
X175412025Y-438410322D02*
X175412025Y-438910322D01*
D11*
X229742025Y-449780322D02*
X228412025Y-449780322D01*
X229742025Y-451110322D02*
X229742025Y-449780322D01*
X229742025Y-452380322D02*
X227082025Y-452380322D01*
X227082025Y-452380322D02*
X227082025Y-460060322D01*
X229742025Y-452380322D02*
X229742025Y-460060322D01*
X229742025Y-460060322D02*
X227082025Y-460060322D01*
X187386722Y-430287847D02*
X187386722Y-428957847D01*
X186056722Y-430287847D02*
X187386722Y-430287847D01*
X184786722Y-430287847D02*
X184786722Y-427627847D01*
X184786722Y-427627847D02*
X177106722Y-427627847D01*
X184786722Y-430287847D02*
X177106722Y-430287847D01*
X177106722Y-430287847D02*
X177106722Y-427627847D01*
X187689012Y-412722011D02*
X187689012Y-411392011D01*
X186359012Y-412722011D02*
X187689012Y-412722011D01*
X185089012Y-412722011D02*
X185089012Y-410062011D01*
X185089012Y-410062011D02*
X177409012Y-410062011D01*
X185089012Y-412722011D02*
X177409012Y-412722011D01*
X177409012Y-412722011D02*
X177409012Y-410062011D01*
X176882025Y-391080322D02*
X176882025Y-392410322D01*
X178212025Y-391080322D02*
X176882025Y-391080322D01*
X179482025Y-391080322D02*
X179482025Y-393740322D01*
X179482025Y-393740322D02*
X187162025Y-393740322D01*
X179482025Y-391080322D02*
X187162025Y-391080322D01*
X187162025Y-391080322D02*
X187162025Y-393740322D01*
D10*
X161412026Y-401110322D02*
X161412026Y-400410322D01*
X161412026Y-400410322D02*
X156912026Y-400410322D01*
X162912026Y-402610322D02*
G75*
G02X161412026Y-401110322I0J1500000D01*
G01*
X162412026Y-407110322D02*
X161912026Y-406610322D01*
X161912026Y-405610322D02*
X161912026Y-406610322D01*
X156912026Y-405110322D02*
X161412026Y-405110322D01*
X165912026Y-403110322D02*
X165412026Y-402610322D01*
X156912026Y-404510322D02*
X156912026Y-405110322D01*
X165412026Y-402610322D02*
X162912026Y-402610322D01*
X165912026Y-406610322D02*
X165412026Y-407110322D01*
X165412026Y-407110322D02*
X162412026Y-407110322D01*
X161412026Y-405110322D02*
G75*
G02X161912026Y-405610322I0J-500000D01*
G01*
X156912026Y-400410322D02*
X156912026Y-400910322D01*
D12*
X188335880Y-464755000D02*
G75*
G03X188335880Y-464755000I-125880J0D01*
G01*
D14*
X189100000Y-450950000D02*
X188000000Y-450950000D01*
X184300000Y-450950000D02*
X185400000Y-450950000D01*
X184300000Y-462350000D02*
X185400000Y-462350000D01*
X189100000Y-462350000D02*
X188000000Y-462350000D01*
X184300000Y-462350000D02*
X184300000Y-450950000D01*
X189100000Y-462350000D02*
X189100000Y-450950000D01*
D11*
X164222759Y-472042071D02*
X164566989Y-473326752D01*
X165507441Y-471697842D02*
X164222759Y-472042071D01*
X166734166Y-471369141D02*
X167422625Y-473938504D01*
X167422625Y-473938504D02*
X174840935Y-471950774D01*
X166734166Y-471369141D02*
X174152477Y-469381411D01*
X174152477Y-469381411D02*
X174840935Y-471950774D01*
D14*
X156600000Y-406400000D02*
G75*
G03X156600000Y-406300000I0J50000D01*
G01*
X156600000Y-406300000D02*
G75*
G03X156600000Y-406400000I0J-50000D01*
G01*
X156600000Y-406400000D02*
G75*
G03X156600000Y-406300000I0J50000D01*
G01*
X156600000Y-406300000D02*
X156600000Y-406300000D01*
X156600000Y-406400000D02*
X156600000Y-406400000D01*
X156600000Y-406300000D02*
X156600000Y-406300000D01*
D13*
X158200000Y-407825000D02*
X163950000Y-407825000D01*
X158200000Y-407825000D02*
X158200000Y-407825000D01*
X163950000Y-407825000D02*
X158200000Y-407825000D01*
X163950000Y-407825000D02*
X163950000Y-407825000D01*
X167700000Y-407825000D02*
X168700000Y-407825000D01*
X167700000Y-407825000D02*
X167700000Y-407825000D01*
X168700000Y-407825000D02*
X167700000Y-407825000D01*
X168700000Y-407825000D02*
X168700000Y-407825000D01*
X168700000Y-413825000D02*
X168700000Y-413825000D01*
X168700000Y-407825000D02*
X168700000Y-413825000D01*
X168700000Y-407825000D02*
X168700000Y-407825000D01*
X168700000Y-413825000D02*
X168700000Y-407825000D01*
X168700000Y-413825000D02*
X159950000Y-413825000D01*
X168700000Y-413825000D02*
X168700000Y-413825000D01*
X159950000Y-413825000D02*
X168700000Y-413825000D01*
X159950000Y-413825000D02*
X159950000Y-413825000D01*
X156950000Y-413825000D02*
X154200000Y-413825000D01*
X156950000Y-413825000D02*
X156950000Y-413825000D01*
X154200000Y-413825000D02*
X156950000Y-413825000D01*
X154200000Y-413825000D02*
X154200000Y-413825000D01*
X154200000Y-413350000D02*
X154200000Y-413350000D01*
X154200000Y-413825000D02*
X154200000Y-413350000D01*
X154200000Y-413825000D02*
X154200000Y-413825000D01*
X154200000Y-413350000D02*
X154200000Y-413825000D01*
X151700000Y-408300000D02*
X154200000Y-408300000D01*
X151700000Y-413325000D02*
X151700000Y-408300000D01*
X154200000Y-413325000D02*
X151700000Y-413325000D01*
X154200000Y-408300000D02*
X154200000Y-413325000D01*
X154200000Y-407825000D02*
X154200000Y-407825000D01*
X154200000Y-408300000D02*
X154200000Y-407825000D01*
X154200000Y-408300000D02*
X154200000Y-408300000D01*
X154200000Y-407825000D02*
X154200000Y-408300000D01*
X154200000Y-407825000D02*
X155200000Y-407825000D01*
X154200000Y-407825000D02*
X154200000Y-407825000D01*
X155200000Y-407825000D02*
X154200000Y-407825000D01*
X155200000Y-407825000D02*
X155200000Y-407825000D01*
D11*
X164040000Y-394010000D02*
X164040000Y-392210000D01*
X164040000Y-388500000D02*
X164040000Y-389960000D01*
X172980000Y-388500000D02*
X172980000Y-389960000D01*
X172980000Y-394010000D02*
X172980000Y-392210000D01*
X172980000Y-388500000D02*
X164040000Y-388500000D01*
D10*
X168742857Y-456607142D02*
X168790476Y-456654761D01*
X168933333Y-456702380D01*
X169028571Y-456702380D01*
X169171428Y-456654761D01*
X169266666Y-456559523D01*
X169314285Y-456464285D01*
X169361904Y-456273809D01*
X169361904Y-456130952D01*
X169314285Y-455940476D01*
X169266666Y-455845238D01*
X169171428Y-455750000D01*
X169028571Y-455702380D01*
X168933333Y-455702380D01*
X168790476Y-455750000D01*
X168742857Y-455797619D01*
X168361904Y-455797619D02*
X168314285Y-455750000D01*
X168219047Y-455702380D01*
X167980952Y-455702380D01*
X167885714Y-455750000D01*
X167838095Y-455797619D01*
X167790476Y-455892857D01*
X167790476Y-455988095D01*
X167838095Y-456130952D01*
X168409523Y-456702380D01*
X167790476Y-456702380D01*
X166933333Y-455702380D02*
X167123809Y-455702380D01*
X167219047Y-455750000D01*
X167266666Y-455797619D01*
X167361904Y-455940476D01*
X167409523Y-456130952D01*
X167409523Y-456511904D01*
X167361904Y-456607142D01*
X167314285Y-456654761D01*
X167219047Y-456702380D01*
X167028571Y-456702380D01*
X166933333Y-456654761D01*
X166885714Y-456607142D01*
X166838095Y-456511904D01*
X166838095Y-456273809D01*
X166885714Y-456178571D01*
X166933333Y-456130952D01*
X167028571Y-456083333D01*
X167219047Y-456083333D01*
X167314285Y-456130952D01*
X167361904Y-456178571D01*
X167409523Y-456273809D01*
X173498571Y-400166666D02*
X173498571Y-399833333D01*
X174022380Y-399833333D02*
X173022380Y-399833333D01*
X173022380Y-400309523D01*
X173117619Y-400642857D02*
X173070000Y-400690476D01*
X173022380Y-400785714D01*
X173022380Y-401023809D01*
X173070000Y-401119047D01*
X173117619Y-401166666D01*
X173212857Y-401214285D01*
X173308095Y-401214285D01*
X173450952Y-401166666D01*
X174022380Y-400595238D01*
X174022380Y-401214285D01*
X168292857Y-465527380D02*
X168626190Y-465051190D01*
X168864285Y-465527380D02*
X168864285Y-464527380D01*
X168483333Y-464527380D01*
X168388095Y-464575000D01*
X168340476Y-464622619D01*
X168292857Y-464717857D01*
X168292857Y-464860714D01*
X168340476Y-464955952D01*
X168388095Y-465003571D01*
X168483333Y-465051190D01*
X168864285Y-465051190D01*
X167340476Y-465527380D02*
X167911904Y-465527380D01*
X167626190Y-465527380D02*
X167626190Y-464527380D01*
X167721428Y-464670238D01*
X167816666Y-464765476D01*
X167911904Y-464813095D01*
X166959523Y-464622619D02*
X166911904Y-464575000D01*
X166816666Y-464527380D01*
X166578571Y-464527380D01*
X166483333Y-464575000D01*
X166435714Y-464622619D01*
X166388095Y-464717857D01*
X166388095Y-464813095D01*
X166435714Y-464955952D01*
X167007142Y-465527380D01*
X166388095Y-465527380D01*
X171052380Y-442957142D02*
X170576190Y-442623809D01*
X171052380Y-442385714D02*
X170052380Y-442385714D01*
X170052380Y-442766666D01*
X170100000Y-442861904D01*
X170147619Y-442909523D01*
X170242857Y-442957142D01*
X170385714Y-442957142D01*
X170480952Y-442909523D01*
X170528571Y-442861904D01*
X170576190Y-442766666D01*
X170576190Y-442385714D01*
X171052380Y-443909523D02*
X171052380Y-443338095D01*
X171052380Y-443623809D02*
X170052380Y-443623809D01*
X170195238Y-443528571D01*
X170290476Y-443433333D01*
X170338095Y-443338095D01*
X170052380Y-444814285D02*
X170052380Y-444338095D01*
X170528571Y-444290476D01*
X170480952Y-444338095D01*
X170433333Y-444433333D01*
X170433333Y-444671428D01*
X170480952Y-444766666D01*
X170528571Y-444814285D01*
X170623809Y-444861904D01*
X170861904Y-444861904D01*
X170957142Y-444814285D01*
X171004761Y-444766666D01*
X171052380Y-444671428D01*
X171052380Y-444433333D01*
X171004761Y-444338095D01*
X170957142Y-444290476D01*
X172452380Y-442957142D02*
X171976190Y-442623809D01*
X172452380Y-442385714D02*
X171452380Y-442385714D01*
X171452380Y-442766666D01*
X171500000Y-442861904D01*
X171547619Y-442909523D01*
X171642857Y-442957142D01*
X171785714Y-442957142D01*
X171880952Y-442909523D01*
X171928571Y-442861904D01*
X171976190Y-442766666D01*
X171976190Y-442385714D01*
X172452380Y-443909523D02*
X172452380Y-443338095D01*
X172452380Y-443623809D02*
X171452380Y-443623809D01*
X171595238Y-443528571D01*
X171690476Y-443433333D01*
X171738095Y-443338095D01*
X171785714Y-444766666D02*
X172452380Y-444766666D01*
X171404761Y-444528571D02*
X172119047Y-444290476D01*
X172119047Y-444909523D01*
X159742857Y-393052380D02*
X160076190Y-392576190D01*
X160314285Y-393052380D02*
X160314285Y-392052380D01*
X159933333Y-392052380D01*
X159838095Y-392100000D01*
X159790476Y-392147619D01*
X159742857Y-392242857D01*
X159742857Y-392385714D01*
X159790476Y-392480952D01*
X159838095Y-392528571D01*
X159933333Y-392576190D01*
X160314285Y-392576190D01*
X158790476Y-393052380D02*
X159361904Y-393052380D01*
X159076190Y-393052380D02*
X159076190Y-392052380D01*
X159171428Y-392195238D01*
X159266666Y-392290476D01*
X159361904Y-392338095D01*
X157838095Y-393052380D02*
X158409523Y-393052380D01*
X158123809Y-393052380D02*
X158123809Y-392052380D01*
X158219047Y-392195238D01*
X158314285Y-392290476D01*
X158409523Y-392338095D01*
X181342857Y-459757142D02*
X181390476Y-459804761D01*
X181533333Y-459852380D01*
X181628571Y-459852380D01*
X181771428Y-459804761D01*
X181866666Y-459709523D01*
X181914285Y-459614285D01*
X181961904Y-459423809D01*
X181961904Y-459280952D01*
X181914285Y-459090476D01*
X181866666Y-458995238D01*
X181771428Y-458900000D01*
X181628571Y-458852380D01*
X181533333Y-458852380D01*
X181390476Y-458900000D01*
X181342857Y-458947619D01*
X180961904Y-458947619D02*
X180914285Y-458900000D01*
X180819047Y-458852380D01*
X180580952Y-458852380D01*
X180485714Y-458900000D01*
X180438095Y-458947619D01*
X180390476Y-459042857D01*
X180390476Y-459138095D01*
X180438095Y-459280952D01*
X181009523Y-459852380D01*
X180390476Y-459852380D01*
X179914285Y-459852380D02*
X179723809Y-459852380D01*
X179628571Y-459804761D01*
X179580952Y-459757142D01*
X179485714Y-459614285D01*
X179438095Y-459423809D01*
X179438095Y-459042857D01*
X179485714Y-458947619D01*
X179533333Y-458900000D01*
X179628571Y-458852380D01*
X179819047Y-458852380D01*
X179914285Y-458900000D01*
X179961904Y-458947619D01*
X180009523Y-459042857D01*
X180009523Y-459280952D01*
X179961904Y-459376190D01*
X179914285Y-459423809D01*
X179819047Y-459471428D01*
X179628571Y-459471428D01*
X179533333Y-459423809D01*
X179485714Y-459376190D01*
X179438095Y-459280952D01*
X181092857Y-455602380D02*
X181426190Y-455126190D01*
X181664285Y-455602380D02*
X181664285Y-454602380D01*
X181283333Y-454602380D01*
X181188095Y-454650000D01*
X181140476Y-454697619D01*
X181092857Y-454792857D01*
X181092857Y-454935714D01*
X181140476Y-455030952D01*
X181188095Y-455078571D01*
X181283333Y-455126190D01*
X181664285Y-455126190D01*
X180140476Y-455602380D02*
X180711904Y-455602380D01*
X180426190Y-455602380D02*
X180426190Y-454602380D01*
X180521428Y-454745238D01*
X180616666Y-454840476D01*
X180711904Y-454888095D01*
X179283333Y-454602380D02*
X179473809Y-454602380D01*
X179569047Y-454650000D01*
X179616666Y-454697619D01*
X179711904Y-454840476D01*
X179759523Y-455030952D01*
X179759523Y-455411904D01*
X179711904Y-455507142D01*
X179664285Y-455554761D01*
X179569047Y-455602380D01*
X179378571Y-455602380D01*
X179283333Y-455554761D01*
X179235714Y-455507142D01*
X179188095Y-455411904D01*
X179188095Y-455173809D01*
X179235714Y-455078571D01*
X179283333Y-455030952D01*
X179378571Y-454983333D01*
X179569047Y-454983333D01*
X179664285Y-455030952D01*
X179711904Y-455078571D01*
X179759523Y-455173809D01*
X170492857Y-463452380D02*
X170826190Y-462976190D01*
X171064285Y-463452380D02*
X171064285Y-462452380D01*
X170683333Y-462452380D01*
X170588095Y-462500000D01*
X170540476Y-462547619D01*
X170492857Y-462642857D01*
X170492857Y-462785714D01*
X170540476Y-462880952D01*
X170588095Y-462928571D01*
X170683333Y-462976190D01*
X171064285Y-462976190D01*
X169540476Y-463452380D02*
X170111904Y-463452380D01*
X169826190Y-463452380D02*
X169826190Y-462452380D01*
X169921428Y-462595238D01*
X170016666Y-462690476D01*
X170111904Y-462738095D01*
X169207142Y-462452380D02*
X168588095Y-462452380D01*
X168921428Y-462833333D01*
X168778571Y-462833333D01*
X168683333Y-462880952D01*
X168635714Y-462928571D01*
X168588095Y-463023809D01*
X168588095Y-463261904D01*
X168635714Y-463357142D01*
X168683333Y-463404761D01*
X168778571Y-463452380D01*
X169064285Y-463452380D01*
X169159523Y-463404761D01*
X169207142Y-463357142D01*
X159742857Y-394252380D02*
X160076190Y-393776190D01*
X160314285Y-394252380D02*
X160314285Y-393252380D01*
X159933333Y-393252380D01*
X159838095Y-393300000D01*
X159790476Y-393347619D01*
X159742857Y-393442857D01*
X159742857Y-393585714D01*
X159790476Y-393680952D01*
X159838095Y-393728571D01*
X159933333Y-393776190D01*
X160314285Y-393776190D01*
X158790476Y-394252380D02*
X159361904Y-394252380D01*
X159076190Y-394252380D02*
X159076190Y-393252380D01*
X159171428Y-393395238D01*
X159266666Y-393490476D01*
X159361904Y-393538095D01*
X158171428Y-393252380D02*
X158076190Y-393252380D01*
X157980952Y-393300000D01*
X157933333Y-393347619D01*
X157885714Y-393442857D01*
X157838095Y-393633333D01*
X157838095Y-393871428D01*
X157885714Y-394061904D01*
X157933333Y-394157142D01*
X157980952Y-394204761D01*
X158076190Y-394252380D01*
X158171428Y-394252380D01*
X158266666Y-394204761D01*
X158314285Y-394157142D01*
X158361904Y-394061904D01*
X158409523Y-393871428D01*
X158409523Y-393633333D01*
X158361904Y-393442857D01*
X158314285Y-393347619D01*
X158266666Y-393300000D01*
X158171428Y-393252380D01*
X161228929Y-424482703D02*
X161228929Y-423482703D01*
X160895596Y-424196989D01*
X160562263Y-423482703D01*
X160562263Y-424482703D01*
X160181310Y-423482703D02*
X159514644Y-424482703D01*
X159514644Y-423482703D02*
X160181310Y-424482703D01*
X159181310Y-423577942D02*
X159133691Y-423530323D01*
X159038453Y-423482703D01*
X158800358Y-423482703D01*
X158705120Y-423530323D01*
X158657501Y-423577942D01*
X158609882Y-423673180D01*
X158609882Y-423768418D01*
X158657501Y-423911275D01*
X159228929Y-424482703D01*
X158609882Y-424482703D01*
X157752739Y-423816037D02*
X157752739Y-424482703D01*
X157990834Y-423435084D02*
X158228929Y-424149370D01*
X157609882Y-424149370D01*
X177177142Y-450822142D02*
X177224761Y-450774523D01*
X177272380Y-450631666D01*
X177272380Y-450536428D01*
X177224761Y-450393571D01*
X177129523Y-450298333D01*
X177034285Y-450250714D01*
X176843809Y-450203095D01*
X176700952Y-450203095D01*
X176510476Y-450250714D01*
X176415238Y-450298333D01*
X176320000Y-450393571D01*
X176272380Y-450536428D01*
X176272380Y-450631666D01*
X176320000Y-450774523D01*
X176367619Y-450822142D01*
X176272380Y-451155476D02*
X176272380Y-451774523D01*
X176653333Y-451441190D01*
X176653333Y-451584047D01*
X176700952Y-451679285D01*
X176748571Y-451726904D01*
X176843809Y-451774523D01*
X177081904Y-451774523D01*
X177177142Y-451726904D01*
X177224761Y-451679285D01*
X177272380Y-451584047D01*
X177272380Y-451298333D01*
X177224761Y-451203095D01*
X177177142Y-451155476D01*
X176367619Y-452155476D02*
X176320000Y-452203095D01*
X176272380Y-452298333D01*
X176272380Y-452536428D01*
X176320000Y-452631666D01*
X176367619Y-452679285D01*
X176462857Y-452726904D01*
X176558095Y-452726904D01*
X176700952Y-452679285D01*
X177272380Y-452107857D01*
X177272380Y-452726904D01*
X176895142Y-466107142D02*
X176942761Y-466059523D01*
X176990380Y-465916666D01*
X176990380Y-465821428D01*
X176942761Y-465678571D01*
X176847523Y-465583333D01*
X176752285Y-465535714D01*
X176561809Y-465488095D01*
X176418952Y-465488095D01*
X176228476Y-465535714D01*
X176133238Y-465583333D01*
X176038000Y-465678571D01*
X175990380Y-465821428D01*
X175990380Y-465916666D01*
X176038000Y-466059523D01*
X176085619Y-466107142D01*
X175990380Y-466440476D02*
X175990380Y-467059523D01*
X176371333Y-466726190D01*
X176371333Y-466869047D01*
X176418952Y-466964285D01*
X176466571Y-467011904D01*
X176561809Y-467059523D01*
X176799904Y-467059523D01*
X176895142Y-467011904D01*
X176942761Y-466964285D01*
X176990380Y-466869047D01*
X176990380Y-466583333D01*
X176942761Y-466488095D01*
X176895142Y-466440476D01*
X176990380Y-468011904D02*
X176990380Y-467440476D01*
X176990380Y-467726190D02*
X175990380Y-467726190D01*
X176133238Y-467630952D01*
X176228476Y-467535714D01*
X176276095Y-467440476D01*
X181292857Y-461057142D02*
X181340476Y-461104761D01*
X181483333Y-461152380D01*
X181578571Y-461152380D01*
X181721428Y-461104761D01*
X181816666Y-461009523D01*
X181864285Y-460914285D01*
X181911904Y-460723809D01*
X181911904Y-460580952D01*
X181864285Y-460390476D01*
X181816666Y-460295238D01*
X181721428Y-460200000D01*
X181578571Y-460152380D01*
X181483333Y-460152380D01*
X181340476Y-460200000D01*
X181292857Y-460247619D01*
X180911904Y-460247619D02*
X180864285Y-460200000D01*
X180769047Y-460152380D01*
X180530952Y-460152380D01*
X180435714Y-460200000D01*
X180388095Y-460247619D01*
X180340476Y-460342857D01*
X180340476Y-460438095D01*
X180388095Y-460580952D01*
X180959523Y-461152380D01*
X180340476Y-461152380D01*
X179769047Y-460580952D02*
X179864285Y-460533333D01*
X179911904Y-460485714D01*
X179959523Y-460390476D01*
X179959523Y-460342857D01*
X179911904Y-460247619D01*
X179864285Y-460200000D01*
X179769047Y-460152380D01*
X179578571Y-460152380D01*
X179483333Y-460200000D01*
X179435714Y-460247619D01*
X179388095Y-460342857D01*
X179388095Y-460390476D01*
X179435714Y-460485714D01*
X179483333Y-460533333D01*
X179578571Y-460580952D01*
X179769047Y-460580952D01*
X179864285Y-460628571D01*
X179911904Y-460676190D01*
X179959523Y-460771428D01*
X179959523Y-460961904D01*
X179911904Y-461057142D01*
X179864285Y-461104761D01*
X179769047Y-461152380D01*
X179578571Y-461152380D01*
X179483333Y-461104761D01*
X179435714Y-461057142D01*
X179388095Y-460961904D01*
X179388095Y-460771428D01*
X179435714Y-460676190D01*
X179483333Y-460628571D01*
X179578571Y-460580952D01*
X171777142Y-450972142D02*
X171824761Y-450924523D01*
X171872380Y-450781666D01*
X171872380Y-450686428D01*
X171824761Y-450543571D01*
X171729523Y-450448333D01*
X171634285Y-450400714D01*
X171443809Y-450353095D01*
X171300952Y-450353095D01*
X171110476Y-450400714D01*
X171015238Y-450448333D01*
X170920000Y-450543571D01*
X170872380Y-450686428D01*
X170872380Y-450781666D01*
X170920000Y-450924523D01*
X170967619Y-450972142D01*
X170967619Y-451353095D02*
X170920000Y-451400714D01*
X170872380Y-451495952D01*
X170872380Y-451734047D01*
X170920000Y-451829285D01*
X170967619Y-451876904D01*
X171062857Y-451924523D01*
X171158095Y-451924523D01*
X171300952Y-451876904D01*
X171872380Y-451305476D01*
X171872380Y-451924523D01*
X170872380Y-452257857D02*
X170872380Y-452924523D01*
X171872380Y-452495952D01*
X162222380Y-444718333D02*
X161746190Y-444385000D01*
X162222380Y-444146904D02*
X161222380Y-444146904D01*
X161222380Y-444527857D01*
X161270000Y-444623095D01*
X161317619Y-444670714D01*
X161412857Y-444718333D01*
X161555714Y-444718333D01*
X161650952Y-444670714D01*
X161698571Y-444623095D01*
X161746190Y-444527857D01*
X161746190Y-444146904D01*
X161222380Y-445623095D02*
X161222380Y-445146904D01*
X161698571Y-445099285D01*
X161650952Y-445146904D01*
X161603333Y-445242142D01*
X161603333Y-445480238D01*
X161650952Y-445575476D01*
X161698571Y-445623095D01*
X161793809Y-445670714D01*
X162031904Y-445670714D01*
X162127142Y-445623095D01*
X162174761Y-445575476D01*
X162222380Y-445480238D01*
X162222380Y-445242142D01*
X162174761Y-445146904D01*
X162127142Y-445099285D01*
X164766666Y-436587142D02*
X164814285Y-436634761D01*
X164957142Y-436682380D01*
X165052380Y-436682380D01*
X165195238Y-436634761D01*
X165290476Y-436539523D01*
X165338095Y-436444285D01*
X165385714Y-436253809D01*
X165385714Y-436110952D01*
X165338095Y-435920476D01*
X165290476Y-435825238D01*
X165195238Y-435730000D01*
X165052380Y-435682380D01*
X164957142Y-435682380D01*
X164814285Y-435730000D01*
X164766666Y-435777619D01*
X164195238Y-436110952D02*
X164290476Y-436063333D01*
X164338095Y-436015714D01*
X164385714Y-435920476D01*
X164385714Y-435872857D01*
X164338095Y-435777619D01*
X164290476Y-435730000D01*
X164195238Y-435682380D01*
X164004761Y-435682380D01*
X163909523Y-435730000D01*
X163861904Y-435777619D01*
X163814285Y-435872857D01*
X163814285Y-435920476D01*
X163861904Y-436015714D01*
X163909523Y-436063333D01*
X164004761Y-436110952D01*
X164195238Y-436110952D01*
X164290476Y-436158571D01*
X164338095Y-436206190D01*
X164385714Y-436301428D01*
X164385714Y-436491904D01*
X164338095Y-436587142D01*
X164290476Y-436634761D01*
X164195238Y-436682380D01*
X164004761Y-436682380D01*
X163909523Y-436634761D01*
X163861904Y-436587142D01*
X163814285Y-436491904D01*
X163814285Y-436301428D01*
X163861904Y-436206190D01*
X163909523Y-436158571D01*
X164004761Y-436110952D01*
X170492857Y-461957142D02*
X170540476Y-462004761D01*
X170683333Y-462052380D01*
X170778571Y-462052380D01*
X170921428Y-462004761D01*
X171016666Y-461909523D01*
X171064285Y-461814285D01*
X171111904Y-461623809D01*
X171111904Y-461480952D01*
X171064285Y-461290476D01*
X171016666Y-461195238D01*
X170921428Y-461100000D01*
X170778571Y-461052380D01*
X170683333Y-461052380D01*
X170540476Y-461100000D01*
X170492857Y-461147619D01*
X170111904Y-461147619D02*
X170064285Y-461100000D01*
X169969047Y-461052380D01*
X169730952Y-461052380D01*
X169635714Y-461100000D01*
X169588095Y-461147619D01*
X169540476Y-461242857D01*
X169540476Y-461338095D01*
X169588095Y-461480952D01*
X170159523Y-462052380D01*
X169540476Y-462052380D01*
X168635714Y-461052380D02*
X169111904Y-461052380D01*
X169159523Y-461528571D01*
X169111904Y-461480952D01*
X169016666Y-461433333D01*
X168778571Y-461433333D01*
X168683333Y-461480952D01*
X168635714Y-461528571D01*
X168588095Y-461623809D01*
X168588095Y-461861904D01*
X168635714Y-461957142D01*
X168683333Y-462004761D01*
X168778571Y-462052380D01*
X169016666Y-462052380D01*
X169111904Y-462004761D01*
X169159523Y-461957142D01*
X165942857Y-455207142D02*
X165990476Y-455254761D01*
X166133333Y-455302380D01*
X166228571Y-455302380D01*
X166371428Y-455254761D01*
X166466666Y-455159523D01*
X166514285Y-455064285D01*
X166561904Y-454873809D01*
X166561904Y-454730952D01*
X166514285Y-454540476D01*
X166466666Y-454445238D01*
X166371428Y-454350000D01*
X166228571Y-454302380D01*
X166133333Y-454302380D01*
X165990476Y-454350000D01*
X165942857Y-454397619D01*
X164990476Y-455302380D02*
X165561904Y-455302380D01*
X165276190Y-455302380D02*
X165276190Y-454302380D01*
X165371428Y-454445238D01*
X165466666Y-454540476D01*
X165561904Y-454588095D01*
X164514285Y-455302380D02*
X164323809Y-455302380D01*
X164228571Y-455254761D01*
X164180952Y-455207142D01*
X164085714Y-455064285D01*
X164038095Y-454873809D01*
X164038095Y-454492857D01*
X164085714Y-454397619D01*
X164133333Y-454350000D01*
X164228571Y-454302380D01*
X164419047Y-454302380D01*
X164514285Y-454350000D01*
X164561904Y-454397619D01*
X164609523Y-454492857D01*
X164609523Y-454730952D01*
X164561904Y-454826190D01*
X164514285Y-454873809D01*
X164419047Y-454921428D01*
X164228571Y-454921428D01*
X164133333Y-454873809D01*
X164085714Y-454826190D01*
X164038095Y-454730952D01*
X183742857Y-454107142D02*
X183790476Y-454154761D01*
X183933333Y-454202380D01*
X184028571Y-454202380D01*
X184171428Y-454154761D01*
X184266666Y-454059523D01*
X184314285Y-453964285D01*
X184361904Y-453773809D01*
X184361904Y-453630952D01*
X184314285Y-453440476D01*
X184266666Y-453345238D01*
X184171428Y-453250000D01*
X184028571Y-453202380D01*
X183933333Y-453202380D01*
X183790476Y-453250000D01*
X183742857Y-453297619D01*
X183361904Y-453297619D02*
X183314285Y-453250000D01*
X183219047Y-453202380D01*
X182980952Y-453202380D01*
X182885714Y-453250000D01*
X182838095Y-453297619D01*
X182790476Y-453392857D01*
X182790476Y-453488095D01*
X182838095Y-453630952D01*
X183409523Y-454202380D01*
X182790476Y-454202380D01*
X181838095Y-454202380D02*
X182409523Y-454202380D01*
X182123809Y-454202380D02*
X182123809Y-453202380D01*
X182219047Y-453345238D01*
X182314285Y-453440476D01*
X182409523Y-453488095D01*
X170442857Y-460707142D02*
X170490476Y-460754761D01*
X170633333Y-460802380D01*
X170728571Y-460802380D01*
X170871428Y-460754761D01*
X170966666Y-460659523D01*
X171014285Y-460564285D01*
X171061904Y-460373809D01*
X171061904Y-460230952D01*
X171014285Y-460040476D01*
X170966666Y-459945238D01*
X170871428Y-459850000D01*
X170728571Y-459802380D01*
X170633333Y-459802380D01*
X170490476Y-459850000D01*
X170442857Y-459897619D01*
X170061904Y-459897619D02*
X170014285Y-459850000D01*
X169919047Y-459802380D01*
X169680952Y-459802380D01*
X169585714Y-459850000D01*
X169538095Y-459897619D01*
X169490476Y-459992857D01*
X169490476Y-460088095D01*
X169538095Y-460230952D01*
X170109523Y-460802380D01*
X169490476Y-460802380D01*
X168633333Y-460135714D02*
X168633333Y-460802380D01*
X168871428Y-459754761D02*
X169109523Y-460469047D01*
X168490476Y-460469047D01*
X168342857Y-459807142D02*
X168390476Y-459854761D01*
X168533333Y-459902380D01*
X168628571Y-459902380D01*
X168771428Y-459854761D01*
X168866666Y-459759523D01*
X168914285Y-459664285D01*
X168961904Y-459473809D01*
X168961904Y-459330952D01*
X168914285Y-459140476D01*
X168866666Y-459045238D01*
X168771428Y-458950000D01*
X168628571Y-458902380D01*
X168533333Y-458902380D01*
X168390476Y-458950000D01*
X168342857Y-458997619D01*
X167961904Y-458997619D02*
X167914285Y-458950000D01*
X167819047Y-458902380D01*
X167580952Y-458902380D01*
X167485714Y-458950000D01*
X167438095Y-458997619D01*
X167390476Y-459092857D01*
X167390476Y-459188095D01*
X167438095Y-459330952D01*
X168009523Y-459902380D01*
X167390476Y-459902380D01*
X166771428Y-458902380D02*
X166676190Y-458902380D01*
X166580952Y-458950000D01*
X166533333Y-458997619D01*
X166485714Y-459092857D01*
X166438095Y-459283333D01*
X166438095Y-459521428D01*
X166485714Y-459711904D01*
X166533333Y-459807142D01*
X166580952Y-459854761D01*
X166676190Y-459902380D01*
X166771428Y-459902380D01*
X166866666Y-459854761D01*
X166914285Y-459807142D01*
X166961904Y-459711904D01*
X167009523Y-459521428D01*
X167009523Y-459283333D01*
X166961904Y-459092857D01*
X166914285Y-458997619D01*
X166866666Y-458950000D01*
X166771428Y-458902380D01*
X159507142Y-440857142D02*
X159554761Y-440809523D01*
X159602380Y-440666666D01*
X159602380Y-440571428D01*
X159554761Y-440428571D01*
X159459523Y-440333333D01*
X159364285Y-440285714D01*
X159173809Y-440238095D01*
X159030952Y-440238095D01*
X158840476Y-440285714D01*
X158745238Y-440333333D01*
X158650000Y-440428571D01*
X158602380Y-440571428D01*
X158602380Y-440666666D01*
X158650000Y-440809523D01*
X158697619Y-440857142D01*
X159602380Y-441809523D02*
X159602380Y-441238095D01*
X159602380Y-441523809D02*
X158602380Y-441523809D01*
X158745238Y-441428571D01*
X158840476Y-441333333D01*
X158888095Y-441238095D01*
X159030952Y-442380952D02*
X158983333Y-442285714D01*
X158935714Y-442238095D01*
X158840476Y-442190476D01*
X158792857Y-442190476D01*
X158697619Y-442238095D01*
X158650000Y-442285714D01*
X158602380Y-442380952D01*
X158602380Y-442571428D01*
X158650000Y-442666666D01*
X158697619Y-442714285D01*
X158792857Y-442761904D01*
X158840476Y-442761904D01*
X158935714Y-442714285D01*
X158983333Y-442666666D01*
X159030952Y-442571428D01*
X159030952Y-442380952D01*
X159078571Y-442285714D01*
X159126190Y-442238095D01*
X159221428Y-442190476D01*
X159411904Y-442190476D01*
X159507142Y-442238095D01*
X159554761Y-442285714D01*
X159602380Y-442380952D01*
X159602380Y-442571428D01*
X159554761Y-442666666D01*
X159507142Y-442714285D01*
X159411904Y-442761904D01*
X159221428Y-442761904D01*
X159126190Y-442714285D01*
X159078571Y-442666666D01*
X159030952Y-442571428D01*
X183842857Y-457807142D02*
X183890476Y-457854761D01*
X184033333Y-457902380D01*
X184128571Y-457902380D01*
X184271428Y-457854761D01*
X184366666Y-457759523D01*
X184414285Y-457664285D01*
X184461904Y-457473809D01*
X184461904Y-457330952D01*
X184414285Y-457140476D01*
X184366666Y-457045238D01*
X184271428Y-456950000D01*
X184128571Y-456902380D01*
X184033333Y-456902380D01*
X183890476Y-456950000D01*
X183842857Y-456997619D01*
X183461904Y-456997619D02*
X183414285Y-456950000D01*
X183319047Y-456902380D01*
X183080952Y-456902380D01*
X182985714Y-456950000D01*
X182938095Y-456997619D01*
X182890476Y-457092857D01*
X182890476Y-457188095D01*
X182938095Y-457330952D01*
X183509523Y-457902380D01*
X182890476Y-457902380D01*
X182509523Y-456997619D02*
X182461904Y-456950000D01*
X182366666Y-456902380D01*
X182128571Y-456902380D01*
X182033333Y-456950000D01*
X181985714Y-456997619D01*
X181938095Y-457092857D01*
X181938095Y-457188095D01*
X181985714Y-457330952D01*
X182557142Y-457902380D01*
X181938095Y-457902380D01*
X171407142Y-466257142D02*
X171454761Y-466209523D01*
X171502380Y-466066666D01*
X171502380Y-465971428D01*
X171454761Y-465828571D01*
X171359523Y-465733333D01*
X171264285Y-465685714D01*
X171073809Y-465638095D01*
X170930952Y-465638095D01*
X170740476Y-465685714D01*
X170645238Y-465733333D01*
X170550000Y-465828571D01*
X170502380Y-465971428D01*
X170502380Y-466066666D01*
X170550000Y-466209523D01*
X170597619Y-466257142D01*
X170597619Y-466638095D02*
X170550000Y-466685714D01*
X170502380Y-466780952D01*
X170502380Y-467019047D01*
X170550000Y-467114285D01*
X170597619Y-467161904D01*
X170692857Y-467209523D01*
X170788095Y-467209523D01*
X170930952Y-467161904D01*
X171502380Y-466590476D01*
X171502380Y-467209523D01*
X170502380Y-467542857D02*
X170502380Y-468161904D01*
X170883333Y-467828571D01*
X170883333Y-467971428D01*
X170930952Y-468066666D01*
X170978571Y-468114285D01*
X171073809Y-468161904D01*
X171311904Y-468161904D01*
X171407142Y-468114285D01*
X171454761Y-468066666D01*
X171502380Y-467971428D01*
X171502380Y-467685714D01*
X171454761Y-467590476D01*
X171407142Y-467542857D01*
D12*
X174974523Y-455760238D02*
X173704523Y-455760238D01*
X174853571Y-457090714D02*
X174914047Y-457030238D01*
X174974523Y-456848809D01*
X174974523Y-456727857D01*
X174914047Y-456546428D01*
X174793095Y-456425476D01*
X174672142Y-456365000D01*
X174430238Y-456304523D01*
X174248809Y-456304523D01*
X174006904Y-456365000D01*
X173885952Y-456425476D01*
X173765000Y-456546428D01*
X173704523Y-456727857D01*
X173704523Y-456848809D01*
X173765000Y-457030238D01*
X173825476Y-457090714D01*
X173704523Y-457514047D02*
X173704523Y-458300238D01*
X174188333Y-457876904D01*
X174188333Y-458058333D01*
X174248809Y-458179285D01*
X174309285Y-458239761D01*
X174430238Y-458300238D01*
X174732619Y-458300238D01*
X174853571Y-458239761D01*
X174914047Y-458179285D01*
X174974523Y-458058333D01*
X174974523Y-457695476D01*
X174914047Y-457574523D01*
X174853571Y-457514047D01*
D10*
X160192380Y-436448095D02*
X161001904Y-436448095D01*
X161097142Y-436495714D01*
X161144761Y-436543333D01*
X161192380Y-436638571D01*
X161192380Y-436829047D01*
X161144761Y-436924285D01*
X161097142Y-436971904D01*
X161001904Y-437019523D01*
X160192380Y-437019523D01*
X160287619Y-437448095D02*
X160240000Y-437495714D01*
X160192380Y-437590952D01*
X160192380Y-437829047D01*
X160240000Y-437924285D01*
X160287619Y-437971904D01*
X160382857Y-438019523D01*
X160478095Y-438019523D01*
X160620952Y-437971904D01*
X161192380Y-437400476D01*
X161192380Y-438019523D01*
D12*
X210505120Y-456671492D02*
X210345525Y-456776865D01*
X210302762Y-456850933D01*
X210275652Y-456983416D01*
X210322609Y-457158663D01*
X210412329Y-457259841D01*
X210486397Y-457302605D01*
X210618880Y-457329715D01*
X211086205Y-457204496D01*
X210757504Y-455977770D01*
X210348596Y-456087337D01*
X210247417Y-456177057D01*
X210204654Y-456251125D01*
X210177543Y-456383609D01*
X210208848Y-456500440D01*
X210298568Y-456601618D01*
X210372636Y-456644382D01*
X210505120Y-456671492D01*
X210914028Y-456561926D01*
X209297116Y-456369080D02*
X209063454Y-456431690D01*
X208962276Y-456521410D01*
X208876750Y-456669546D01*
X208880944Y-456918860D01*
X208990510Y-457327769D01*
X209111535Y-457545779D01*
X209259671Y-457631305D01*
X209392155Y-457658416D01*
X209625817Y-457595806D01*
X209726995Y-457506086D01*
X209812522Y-457357950D01*
X209808327Y-457108635D01*
X209698761Y-456699727D01*
X209577736Y-456481717D01*
X209429600Y-456396191D01*
X209297116Y-456369080D01*
X208011975Y-456713433D02*
X207778313Y-456776042D01*
X207677134Y-456865763D01*
X207591608Y-457013898D01*
X207595802Y-457263213D01*
X207705369Y-457672121D01*
X207826394Y-457890131D01*
X207974530Y-457975657D01*
X208107013Y-458002768D01*
X208340675Y-457940159D01*
X208441854Y-457850438D01*
X208527380Y-457702302D01*
X208523186Y-457452988D01*
X208413619Y-457044079D01*
X208292594Y-456826070D01*
X208144459Y-456740543D01*
X208011975Y-456713433D01*
X207135742Y-456948219D02*
X206434756Y-457136047D01*
X207113950Y-458268859D02*
X206785249Y-457042133D01*
X206397311Y-458398272D02*
X206237717Y-458503645D01*
X205945639Y-458581907D01*
X205813156Y-458554796D01*
X205739088Y-458512033D01*
X205649368Y-458410854D01*
X205618063Y-458294023D01*
X205645174Y-458161540D01*
X205687937Y-458087472D01*
X205789115Y-457997751D01*
X206007125Y-457876726D01*
X206108304Y-457787006D01*
X206151067Y-457712938D01*
X206178178Y-457580455D01*
X206146873Y-457463624D01*
X206057152Y-457362445D01*
X205983085Y-457319682D01*
X205850601Y-457292571D01*
X205558524Y-457370833D01*
X205398929Y-457476206D01*
X205014061Y-458142817D02*
X204605153Y-458252384D01*
X204602082Y-458941912D02*
X205186238Y-458785388D01*
X204857537Y-457558662D01*
X204273382Y-457715186D01*
X203492188Y-459239307D02*
X204076343Y-459082783D01*
X203747643Y-457856057D01*
X202844299Y-458223326D02*
X202770231Y-458180563D01*
X202637748Y-458153453D01*
X202345670Y-458231715D01*
X202244492Y-458321435D01*
X202201728Y-458395503D01*
X202174618Y-458527986D01*
X202205923Y-458644817D01*
X202311295Y-458804411D01*
X203200110Y-459317569D01*
X202440708Y-459521050D01*
X199838293Y-460155811D02*
X200090678Y-459462089D01*
X200539279Y-459967982D02*
X200210579Y-458741256D01*
X199743255Y-458866476D01*
X199642076Y-458956196D01*
X199599313Y-459030264D01*
X199572202Y-459162747D01*
X199619159Y-459337994D01*
X199708880Y-459439172D01*
X199782948Y-459481936D01*
X199915431Y-459509046D01*
X200382755Y-459383827D01*
X198983853Y-459069957D02*
X199249944Y-460063020D01*
X199222833Y-460195504D01*
X199180070Y-460269572D01*
X199078891Y-460359292D01*
X198845229Y-460421902D01*
X198712746Y-460394791D01*
X198638678Y-460352028D01*
X198548957Y-460250849D01*
X198282867Y-459257785D01*
X198027412Y-460641035D02*
X197698712Y-459414309D01*
X197326426Y-460828864D01*
X196997726Y-459602138D01*
X196503291Y-459859840D02*
X196429223Y-459817077D01*
X196296739Y-459789967D01*
X196004662Y-459868229D01*
X195903483Y-459957949D01*
X195860720Y-460032017D01*
X195833609Y-460164500D01*
X195864914Y-460281331D01*
X195970287Y-460440925D01*
X196859102Y-460954083D01*
X196099700Y-461157564D01*
X159574523Y-460360238D02*
X158304523Y-460360238D01*
X159453571Y-461690714D02*
X159514047Y-461630238D01*
X159574523Y-461448809D01*
X159574523Y-461327857D01*
X159514047Y-461146428D01*
X159393095Y-461025476D01*
X159272142Y-460965000D01*
X159030238Y-460904523D01*
X158848809Y-460904523D01*
X158606904Y-460965000D01*
X158485952Y-461025476D01*
X158365000Y-461146428D01*
X158304523Y-461327857D01*
X158304523Y-461448809D01*
X158365000Y-461630238D01*
X158425476Y-461690714D01*
X158727857Y-462779285D02*
X159574523Y-462779285D01*
X158244047Y-462476904D02*
X159151190Y-462174523D01*
X159151190Y-462960714D01*
D10*
X179728929Y-427482702D02*
X179728929Y-426482702D01*
X179395596Y-427196988D01*
X179062263Y-426482702D01*
X179062263Y-427482702D01*
X178681310Y-426482702D02*
X178014644Y-427482702D01*
X178014644Y-426482702D02*
X178681310Y-427482702D01*
X177681310Y-426577941D02*
X177633691Y-426530322D01*
X177538453Y-426482702D01*
X177300358Y-426482702D01*
X177205120Y-426530322D01*
X177157501Y-426577941D01*
X177109882Y-426673179D01*
X177109882Y-426768417D01*
X177157501Y-426911274D01*
X177728929Y-427482702D01*
X177109882Y-427482702D01*
X176538453Y-426911274D02*
X176633691Y-426863655D01*
X176681310Y-426816036D01*
X176728929Y-426720798D01*
X176728929Y-426673179D01*
X176681310Y-426577941D01*
X176633691Y-426530322D01*
X176538453Y-426482702D01*
X176347977Y-426482702D01*
X176252739Y-426530322D01*
X176205120Y-426577941D01*
X176157501Y-426673179D01*
X176157501Y-426720798D01*
X176205120Y-426816036D01*
X176252739Y-426863655D01*
X176347977Y-426911274D01*
X176538453Y-426911274D01*
X176633691Y-426958893D01*
X176681310Y-427006512D01*
X176728929Y-427101750D01*
X176728929Y-427292226D01*
X176681310Y-427387464D01*
X176633691Y-427435083D01*
X176538453Y-427482702D01*
X176347977Y-427482702D01*
X176252739Y-427435083D01*
X176205120Y-427387464D01*
X176157501Y-427292226D01*
X176157501Y-427101750D01*
X176205120Y-427006512D01*
X176252739Y-426958893D01*
X176347977Y-426911274D01*
X198228929Y-453482703D02*
X198228929Y-452482703D01*
X197895596Y-453196989D01*
X197562263Y-452482703D01*
X197562263Y-453482703D01*
X197181310Y-452482703D02*
X196514644Y-453482703D01*
X196514644Y-452482703D02*
X197181310Y-453482703D01*
X196228929Y-452482703D02*
X195609882Y-452482703D01*
X195943215Y-452863656D01*
X195800358Y-452863656D01*
X195705120Y-452911275D01*
X195657501Y-452958894D01*
X195609882Y-453054132D01*
X195609882Y-453292227D01*
X195657501Y-453387465D01*
X195705120Y-453435084D01*
X195800358Y-453482703D01*
X196086072Y-453482703D01*
X196181310Y-453435084D01*
X196228929Y-453387465D01*
X194752739Y-452816037D02*
X194752739Y-453482703D01*
X194990834Y-452435084D02*
X195228929Y-453149370D01*
X194609882Y-453149370D01*
X156268249Y-401763174D02*
X156268249Y-402477460D01*
X156315868Y-402620317D01*
X156411106Y-402715555D01*
X156553964Y-402763174D01*
X156649202Y-402763174D01*
X155363487Y-402096508D02*
X155363487Y-402763174D01*
X155601583Y-401715555D02*
X155839678Y-402429841D01*
X155220630Y-402429841D01*
X154315868Y-402763174D02*
X154887297Y-402763174D01*
X154601583Y-402763174D02*
X154601583Y-401763174D01*
X154696821Y-401906032D01*
X154792059Y-402001270D01*
X154887297Y-402048889D01*
X216728929Y-458482702D02*
X216728929Y-457482702D01*
X216395596Y-458196988D01*
X216062263Y-457482702D01*
X216062263Y-458482702D01*
X215681310Y-457482702D02*
X215014644Y-458482702D01*
X215014644Y-457482702D02*
X215681310Y-458482702D01*
X214728929Y-457482702D02*
X214109882Y-457482702D01*
X214443215Y-457863655D01*
X214300358Y-457863655D01*
X214205120Y-457911274D01*
X214157501Y-457958893D01*
X214109882Y-458054131D01*
X214109882Y-458292226D01*
X214157501Y-458387464D01*
X214205120Y-458435083D01*
X214300358Y-458482702D01*
X214586072Y-458482702D01*
X214681310Y-458435083D01*
X214728929Y-458387464D01*
X213538453Y-457911274D02*
X213633691Y-457863655D01*
X213681310Y-457816036D01*
X213728929Y-457720798D01*
X213728929Y-457673179D01*
X213681310Y-457577941D01*
X213633691Y-457530322D01*
X213538453Y-457482702D01*
X213347977Y-457482702D01*
X213252739Y-457530322D01*
X213205120Y-457577941D01*
X213157501Y-457673179D01*
X213157501Y-457720798D01*
X213205120Y-457816036D01*
X213252739Y-457863655D01*
X213347977Y-457911274D01*
X213538453Y-457911274D01*
X213633691Y-457958893D01*
X213681310Y-458006512D01*
X213728929Y-458101750D01*
X213728929Y-458292226D01*
X213681310Y-458387464D01*
X213633691Y-458435083D01*
X213538453Y-458482702D01*
X213347977Y-458482702D01*
X213252739Y-458435083D01*
X213205120Y-458387464D01*
X213157501Y-458292226D01*
X213157501Y-458101750D01*
X213205120Y-458006512D01*
X213252739Y-457958893D01*
X213347977Y-457911274D01*
X170118929Y-426742702D02*
X170118929Y-425742702D01*
X169785596Y-426456988D01*
X169452263Y-425742702D01*
X169452263Y-426742702D01*
X169071310Y-425742702D02*
X168404644Y-426742702D01*
X168404644Y-425742702D02*
X169071310Y-426742702D01*
X168071310Y-425837941D02*
X168023691Y-425790322D01*
X167928453Y-425742702D01*
X167690358Y-425742702D01*
X167595120Y-425790322D01*
X167547501Y-425837941D01*
X167499882Y-425933179D01*
X167499882Y-426028417D01*
X167547501Y-426171274D01*
X168118929Y-426742702D01*
X167499882Y-426742702D01*
X166595120Y-425742702D02*
X167071310Y-425742702D01*
X167118929Y-426218893D01*
X167071310Y-426171274D01*
X166976072Y-426123655D01*
X166737977Y-426123655D01*
X166642739Y-426171274D01*
X166595120Y-426218893D01*
X166547501Y-426314131D01*
X166547501Y-426552226D01*
X166595120Y-426647464D01*
X166642739Y-426695083D01*
X166737977Y-426742702D01*
X166976072Y-426742702D01*
X167071310Y-426695083D01*
X167118929Y-426647464D01*
X179728929Y-409982703D02*
X179728929Y-408982703D01*
X179395596Y-409696989D01*
X179062263Y-408982703D01*
X179062263Y-409982703D01*
X178681310Y-408982703D02*
X178014644Y-409982703D01*
X178014644Y-408982703D02*
X178681310Y-409982703D01*
X177681310Y-409077942D02*
X177633691Y-409030323D01*
X177538453Y-408982703D01*
X177300358Y-408982703D01*
X177205120Y-409030323D01*
X177157501Y-409077942D01*
X177109882Y-409173180D01*
X177109882Y-409268418D01*
X177157501Y-409411275D01*
X177728929Y-409982703D01*
X177109882Y-409982703D01*
X176776548Y-408982703D02*
X176109882Y-408982703D01*
X176538453Y-409982703D01*
X156221542Y-450062660D02*
X156221542Y-450776946D01*
X156269161Y-450919803D01*
X156364399Y-451015041D01*
X156507257Y-451062660D01*
X156602495Y-451062660D01*
X155316780Y-450395994D02*
X155316780Y-451062660D01*
X155554876Y-450015041D02*
X155792971Y-450729327D01*
X155173923Y-450729327D01*
X154888209Y-450062660D02*
X154269161Y-450062660D01*
X154602495Y-450443613D01*
X154459638Y-450443613D01*
X154364399Y-450491232D01*
X154316780Y-450538851D01*
X154269161Y-450634089D01*
X154269161Y-450872184D01*
X154316780Y-450967422D01*
X154364399Y-451015041D01*
X154459638Y-451062660D01*
X154745352Y-451062660D01*
X154840590Y-451015041D01*
X154888209Y-450967422D01*
X179728929Y-444982702D02*
X179728929Y-443982702D01*
X179395596Y-444696988D01*
X179062263Y-443982702D01*
X179062263Y-444982702D01*
X178681310Y-443982702D02*
X178014644Y-444982702D01*
X178014644Y-443982702D02*
X178681310Y-444982702D01*
X177681310Y-444077941D02*
X177633691Y-444030322D01*
X177538453Y-443982702D01*
X177300358Y-443982702D01*
X177205120Y-444030322D01*
X177157501Y-444077941D01*
X177109882Y-444173179D01*
X177109882Y-444268417D01*
X177157501Y-444411274D01*
X177728929Y-444982702D01*
X177109882Y-444982702D01*
X176633691Y-444982702D02*
X176443215Y-444982702D01*
X176347977Y-444935083D01*
X176300358Y-444887464D01*
X176205120Y-444744607D01*
X176157501Y-444554131D01*
X176157501Y-444173179D01*
X176205120Y-444077941D01*
X176252739Y-444030322D01*
X176347977Y-443982702D01*
X176538453Y-443982702D01*
X176633691Y-444030322D01*
X176681310Y-444077941D01*
X176728929Y-444173179D01*
X176728929Y-444411274D01*
X176681310Y-444506512D01*
X176633691Y-444554131D01*
X176538453Y-444601750D01*
X176347977Y-444601750D01*
X176252739Y-444554131D01*
X176205120Y-444506512D01*
X176157501Y-444411274D01*
X229221548Y-448232702D02*
X229221548Y-448946988D01*
X229269167Y-449089845D01*
X229364405Y-449185083D01*
X229507263Y-449232702D01*
X229602501Y-449232702D01*
X228792977Y-448327941D02*
X228745358Y-448280322D01*
X228650120Y-448232702D01*
X228412025Y-448232702D01*
X228316786Y-448280322D01*
X228269167Y-448327941D01*
X228221548Y-448423179D01*
X228221548Y-448518417D01*
X228269167Y-448661274D01*
X228840596Y-449232702D01*
X228221548Y-449232702D01*
X227364405Y-448566036D02*
X227364405Y-449232702D01*
X227602501Y-448185083D02*
X227840596Y-448899369D01*
X227221548Y-448899369D01*
X187839102Y-428148323D02*
X188553388Y-428148323D01*
X188696245Y-428100704D01*
X188791483Y-428005466D01*
X188839102Y-427862608D01*
X188839102Y-427767370D01*
X187934341Y-428576894D02*
X187886722Y-428624513D01*
X187839102Y-428719751D01*
X187839102Y-428957847D01*
X187886722Y-429053085D01*
X187934341Y-429100704D01*
X188029579Y-429148323D01*
X188124817Y-429148323D01*
X188267674Y-429100704D01*
X188839102Y-428529275D01*
X188839102Y-429148323D01*
X187839102Y-429481656D02*
X187839102Y-430148323D01*
X188839102Y-429719751D01*
X188141392Y-410582487D02*
X188855678Y-410582487D01*
X188998535Y-410534868D01*
X189093773Y-410439630D01*
X189141392Y-410296772D01*
X189141392Y-410201534D01*
X188236631Y-411011058D02*
X188189012Y-411058677D01*
X188141392Y-411153915D01*
X188141392Y-411392011D01*
X188189012Y-411487249D01*
X188236631Y-411534868D01*
X188331869Y-411582487D01*
X188427107Y-411582487D01*
X188569964Y-411534868D01*
X189141392Y-410963439D01*
X189141392Y-411582487D01*
X188141392Y-412439630D02*
X188141392Y-412249153D01*
X188189012Y-412153915D01*
X188236631Y-412106296D01*
X188379488Y-412011058D01*
X188569964Y-411963439D01*
X188950916Y-411963439D01*
X189046154Y-412011058D01*
X189093773Y-412058677D01*
X189141392Y-412153915D01*
X189141392Y-412344391D01*
X189093773Y-412439630D01*
X189046154Y-412487249D01*
X188950916Y-412534868D01*
X188712821Y-412534868D01*
X188617583Y-412487249D01*
X188569964Y-412439630D01*
X188522345Y-412344391D01*
X188522345Y-412153915D01*
X188569964Y-412058677D01*
X188617583Y-412011058D01*
X188712821Y-411963439D01*
X175334405Y-391600798D02*
X176048691Y-391600798D01*
X176191548Y-391553179D01*
X176286786Y-391457941D01*
X176334405Y-391315083D01*
X176334405Y-391219845D01*
X175429644Y-392029369D02*
X175382025Y-392076988D01*
X175334405Y-392172226D01*
X175334405Y-392410322D01*
X175382025Y-392505560D01*
X175429644Y-392553179D01*
X175524882Y-392600798D01*
X175620120Y-392600798D01*
X175762977Y-392553179D01*
X176334405Y-391981750D01*
X176334405Y-392600798D01*
X175334405Y-393505560D02*
X175334405Y-393029369D01*
X175810596Y-392981750D01*
X175762977Y-393029369D01*
X175715358Y-393124607D01*
X175715358Y-393362702D01*
X175762977Y-393457941D01*
X175810596Y-393505560D01*
X175905834Y-393553179D01*
X176143929Y-393553179D01*
X176239167Y-393505560D01*
X176286786Y-393457941D01*
X176334405Y-393362702D01*
X176334405Y-393124607D01*
X176286786Y-393029369D01*
X176239167Y-392981750D01*
X161228930Y-406982702D02*
X161228930Y-405982702D01*
X160895597Y-406696988D01*
X160562264Y-405982702D01*
X160562264Y-406982702D01*
X160181311Y-405982702D02*
X159514645Y-406982702D01*
X159514645Y-405982702D02*
X160181311Y-406982702D01*
X159181311Y-406077941D02*
X159133692Y-406030322D01*
X159038454Y-405982702D01*
X158800359Y-405982702D01*
X158705121Y-406030322D01*
X158657502Y-406077941D01*
X158609883Y-406173179D01*
X158609883Y-406268417D01*
X158657502Y-406411274D01*
X159228930Y-406982702D01*
X158609883Y-406982702D01*
X158276549Y-405982702D02*
X157657502Y-405982702D01*
X157990835Y-406363655D01*
X157847978Y-406363655D01*
X157752740Y-406411274D01*
X157705121Y-406458893D01*
X157657502Y-406554131D01*
X157657502Y-406792226D01*
X157705121Y-406887464D01*
X157752740Y-406935083D01*
X157847978Y-406982702D01*
X158133692Y-406982702D01*
X158228930Y-406935083D01*
X158276549Y-406887464D01*
D12*
X186720021Y-456417068D02*
X187324783Y-456417068D01*
X186054783Y-455993734D02*
X186720021Y-456417068D01*
X186054783Y-456840401D01*
X186175736Y-457203258D02*
X186115260Y-457263734D01*
X186054783Y-457384687D01*
X186054783Y-457687068D01*
X186115260Y-457808020D01*
X186175736Y-457868496D01*
X186296688Y-457928972D01*
X186417640Y-457928972D01*
X186599069Y-457868496D01*
X187324783Y-457142782D01*
X187324783Y-457928972D01*
D10*
X164339542Y-474225776D02*
X163649595Y-474410647D01*
X163523930Y-474493618D01*
X163456587Y-474610260D01*
X163447565Y-474760574D01*
X163472214Y-474852567D01*
X163114797Y-473518669D02*
X163262694Y-474070627D01*
X163188745Y-473794648D02*
X164154671Y-473535829D01*
X164041331Y-473664796D01*
X163973988Y-473781439D01*
X163952641Y-473885756D01*
X163890132Y-472916528D02*
X163923804Y-472858207D01*
X163945151Y-472753889D01*
X163883528Y-472523907D01*
X163812882Y-472444239D01*
X163754560Y-472410567D01*
X163650243Y-472389220D01*
X163558250Y-472413869D01*
X163432585Y-472496840D01*
X163028524Y-473196694D01*
X162868303Y-472598740D01*
D12*
X159504523Y-409671904D02*
X160411666Y-409671904D01*
X160593095Y-409611428D01*
X160714047Y-409490476D01*
X160774523Y-409309047D01*
X160774523Y-409188095D01*
X159927857Y-410820952D02*
X160774523Y-410820952D01*
X159444047Y-410518571D02*
X160351190Y-410216190D01*
X160351190Y-411002380D01*
X159504523Y-412030476D02*
X159504523Y-411788571D01*
X159565000Y-411667619D01*
X159625476Y-411607142D01*
X159806904Y-411486190D01*
X160048809Y-411425714D01*
X160532619Y-411425714D01*
X160653571Y-411486190D01*
X160714047Y-411546666D01*
X160774523Y-411667619D01*
X160774523Y-411909523D01*
X160714047Y-412030476D01*
X160653571Y-412090952D01*
X160532619Y-412151428D01*
X160230238Y-412151428D01*
X160109285Y-412090952D01*
X160048809Y-412030476D01*
X159988333Y-411909523D01*
X159988333Y-411667619D01*
X160048809Y-411546666D01*
X160109285Y-411486190D01*
X160230238Y-411425714D01*
D10*
X169319523Y-397372380D02*
X169319523Y-398086666D01*
X169367142Y-398229523D01*
X169462380Y-398324761D01*
X169605238Y-398372380D01*
X169700476Y-398372380D01*
X168938571Y-397372380D02*
X168319523Y-397372380D01*
X168652857Y-397753333D01*
X168510000Y-397753333D01*
X168414761Y-397800952D01*
X168367142Y-397848571D01*
X168319523Y-397943809D01*
X168319523Y-398181904D01*
X168367142Y-398277142D01*
X168414761Y-398324761D01*
X168510000Y-398372380D01*
X168795714Y-398372380D01*
X168890952Y-398324761D01*
X168938571Y-398277142D01*
X167986190Y-397372380D02*
X167319523Y-397372380D01*
X167748095Y-398372380D01*
M02*
