%FSLAX45Y45*%
G04 Gerber Fmt 4.5, Leading zero omitted, Abs format (unit mm)*
G04 Created by KiCad (PCBNEW (5.1.4)-1) date 2023-01-28 07:42:07*
%MOMM*%
%LPD*%
G04 APERTURE LIST*
%ADD10C,0.050000*%
%ADD11C,0.200000*%
%ADD12C,0.300000*%
G04 APERTURE END LIST*
D10*
X18671203Y-38991032D02*
X15621203Y-38991032D01*
X18671203Y-38991032D02*
X18941203Y-39261032D01*
X20641203Y-43841032D02*
X21151203Y-44331032D01*
X18941203Y-39261032D02*
X18941203Y-43411032D01*
X22971202Y-44881032D02*
X22971202Y-45891032D01*
X21911203Y-46011032D02*
X22831202Y-46011032D01*
X22971202Y-44881032D02*
X22531202Y-44331032D01*
X21151203Y-44331032D02*
X22531202Y-44331032D01*
X21911203Y-46011032D02*
X21891203Y-46011032D01*
X22971202Y-45891032D02*
X22831202Y-46011032D01*
X19381203Y-43831032D02*
X18941203Y-43411032D01*
X15508251Y-47394663D02*
X16430391Y-47480918D01*
X15402324Y-39381494D02*
X15402190Y-39205639D01*
X15402190Y-39205639D02*
X15621203Y-38991032D01*
X15399750Y-43338677D02*
X15400903Y-45039647D01*
X15508251Y-47394663D02*
X15220438Y-46318483D01*
X15401485Y-45141609D02*
X15400903Y-45039647D01*
X15400249Y-45873435D02*
X15401485Y-45141609D01*
X15402324Y-39381494D02*
X15399750Y-43338677D01*
X15400249Y-45873435D02*
X15220438Y-46318483D01*
X21891203Y-46011032D02*
X16430391Y-47480918D01*
X20641203Y-43841032D02*
X20640000Y-43840000D01*
X20640000Y-43840000D02*
X19390000Y-43840000D01*
X19390000Y-43840000D02*
X19381203Y-43831032D01*
D11*
X15650000Y-41765000D02*
X15690000Y-41805000D01*
X15690000Y-41765000D02*
X15650000Y-41805000D01*
X15660000Y-42270000D02*
X15700000Y-42310000D01*
X15700000Y-42270000D02*
X15660000Y-42310000D01*
X15890000Y-44572500D02*
X15930000Y-44612500D01*
X15930000Y-44572500D02*
X15890000Y-44612500D01*
X15890000Y-44572500D02*
X15930000Y-44612500D01*
X15930000Y-44572500D02*
X15890000Y-44612500D01*
X16390000Y-45580000D02*
X16430000Y-45620000D01*
X16430000Y-45580000D02*
X16390000Y-45620000D01*
X16602300Y-46092699D02*
X16642300Y-46132699D01*
X16642300Y-46092699D02*
X16602300Y-46132699D01*
X16680000Y-45577599D02*
X16720000Y-45617599D01*
X16720000Y-45577599D02*
X16680000Y-45617599D01*
X16680001Y-45925000D02*
X16720001Y-45965000D01*
X16720001Y-45925000D02*
X16680001Y-45965000D01*
X16744999Y-44669999D02*
X16784999Y-44709999D01*
X16784999Y-44669999D02*
X16744999Y-44709999D01*
X16759299Y-45655299D02*
X16799299Y-45695299D01*
X16799299Y-45655299D02*
X16759299Y-45695299D01*
X16760000Y-45060000D02*
X16800000Y-45100000D01*
X16800000Y-45060000D02*
X16760000Y-45100000D01*
X16785000Y-46615000D02*
X16825000Y-46655000D01*
X16825000Y-46615000D02*
X16785000Y-46655000D01*
X16805000Y-39690000D02*
X16845000Y-39730000D01*
X16845000Y-39690000D02*
X16805000Y-39730000D01*
X16845000Y-44945401D02*
X16885000Y-44985401D01*
X16885000Y-44945401D02*
X16845000Y-44985401D01*
X16847498Y-45922502D02*
X16887498Y-45962502D01*
X16887498Y-45922502D02*
X16847498Y-45962502D01*
X16898247Y-45833005D02*
X16938247Y-45873005D01*
X16938247Y-45833005D02*
X16898247Y-45873005D01*
X16900000Y-46355000D02*
X16940000Y-46395000D01*
X16940000Y-46355000D02*
X16900000Y-46395000D01*
X16900000Y-46355000D02*
X16940000Y-46395000D01*
X16940000Y-46355000D02*
X16900000Y-46395000D01*
X16915000Y-39690000D02*
X16955000Y-39730000D01*
X16955000Y-39690000D02*
X16915000Y-39730000D01*
X16935000Y-43930000D02*
X16975000Y-43970000D01*
X16975000Y-43930000D02*
X16935000Y-43970000D01*
X16935000Y-44530000D02*
X16975000Y-44570000D01*
X16975000Y-44530000D02*
X16935000Y-44570000D01*
X16960021Y-45763886D02*
X17000021Y-45803886D01*
X17000021Y-45763886D02*
X16960021Y-45803886D01*
X16985000Y-44765000D02*
X17025000Y-44805000D01*
X17025000Y-44765000D02*
X16985000Y-44805000D01*
X16995000Y-46470000D02*
X17035000Y-46510000D01*
X17035000Y-46470000D02*
X16995000Y-46510000D01*
X17050000Y-43710000D02*
X17090000Y-43750000D01*
X17090000Y-43710000D02*
X17050000Y-43750000D01*
X17120000Y-44770000D02*
X17160000Y-44810000D01*
X17160000Y-44770000D02*
X17120000Y-44810000D01*
X17128447Y-43792762D02*
X17168447Y-43832762D01*
X17168447Y-43792762D02*
X17128447Y-43832762D01*
X17204991Y-44330341D02*
X17244991Y-44370341D01*
X17244991Y-44330341D02*
X17204991Y-44370341D01*
X17225000Y-44770000D02*
X17265000Y-44810000D01*
X17265000Y-44770000D02*
X17225000Y-44810000D01*
X17255000Y-44430000D02*
X17295000Y-44470000D01*
X17295000Y-44430000D02*
X17255000Y-44470000D01*
X17350000Y-43720000D02*
X17390000Y-43760000D01*
X17390000Y-43720000D02*
X17350000Y-43760000D01*
X17400199Y-46281495D02*
X17440199Y-46321495D01*
X17440199Y-46281495D02*
X17400199Y-46321495D01*
X17400200Y-46723600D02*
X17440200Y-46763600D01*
X17440200Y-46723600D02*
X17400200Y-46763600D01*
X17456097Y-46191701D02*
X17496097Y-46231701D01*
X17496097Y-46191701D02*
X17456097Y-46231701D01*
X17462901Y-46615000D02*
X17502901Y-46655000D01*
X17502901Y-46615000D02*
X17462901Y-46655000D01*
X17520000Y-44760000D02*
X17560000Y-44800000D01*
X17560000Y-44760000D02*
X17520000Y-44800000D01*
X17553000Y-46469999D02*
X17593000Y-46509999D01*
X17593000Y-46469999D02*
X17553000Y-46509999D01*
X17556833Y-46356363D02*
X17596833Y-46396363D01*
X17596833Y-46356363D02*
X17556833Y-46396363D01*
X17627700Y-45832300D02*
X17667700Y-45872300D01*
X17667700Y-45832300D02*
X17627700Y-45872300D01*
X17690000Y-45055000D02*
X17730000Y-45095000D01*
X17730000Y-45055000D02*
X17690000Y-45095000D01*
X17690000Y-44930000D02*
X17730000Y-44970000D01*
X17730000Y-44930000D02*
X17690000Y-44970000D01*
X17730400Y-46550000D02*
X17770400Y-46590000D01*
X17770400Y-46550000D02*
X17730400Y-46590000D01*
X17876915Y-46470000D02*
X17916915Y-46510000D01*
X17916915Y-46470000D02*
X17876915Y-46510000D01*
X17900000Y-46020000D02*
X17940000Y-46060000D01*
X17940000Y-46020000D02*
X17900000Y-46060000D01*
X17931836Y-45711836D02*
X17971836Y-45751836D01*
X17971836Y-45711836D02*
X17931836Y-45751836D01*
X18020923Y-45929077D02*
X18060923Y-45969077D01*
X18060923Y-45929077D02*
X18020923Y-45969077D01*
X18108382Y-45347895D02*
X18148382Y-45387895D01*
X18148382Y-45347895D02*
X18108382Y-45387895D01*
X18117210Y-45915478D02*
X18157210Y-45955478D01*
X18157210Y-45915478D02*
X18117210Y-45955478D01*
X18312500Y-45785000D02*
X18352500Y-45825000D01*
X18352500Y-45785000D02*
X18312500Y-45825000D01*
X19742000Y-46028000D02*
X19782000Y-46068000D01*
X19782000Y-46028000D02*
X19742000Y-46068000D01*
X19742000Y-46028000D02*
X19782000Y-46068000D01*
X19782000Y-46028000D02*
X19742000Y-46068000D01*
X16449000Y-39110000D02*
G75*
G03X16449000Y-39110000I-30000J0D01*
G01*
X16399000Y-39070000D02*
X16399000Y-39150000D01*
X16439000Y-39070000D02*
X16439000Y-39150000D01*
X16399000Y-39150000D02*
G75*
G03X16439000Y-39150000I20000J0D01*
G01*
X16439000Y-39070000D02*
G75*
G03X16399000Y-39070000I-20000J0D01*
G01*
X16449000Y-39527000D02*
G75*
G03X16449000Y-39527000I-30000J0D01*
G01*
X16399000Y-39472000D02*
X16399000Y-39582000D01*
X16439000Y-39472000D02*
X16439000Y-39582000D01*
X16399000Y-39582000D02*
G75*
G03X16439000Y-39582000I20000J0D01*
G01*
X16439000Y-39472000D02*
G75*
G03X16399000Y-39472000I-20000J0D01*
G01*
X17313000Y-39110000D02*
G75*
G03X17313000Y-39110000I-30000J0D01*
G01*
X17263000Y-39070000D02*
X17263000Y-39150000D01*
X17303000Y-39070000D02*
X17303000Y-39150000D01*
X17263000Y-39150000D02*
G75*
G03X17303000Y-39150000I20000J0D01*
G01*
X17303000Y-39070000D02*
G75*
G03X17263000Y-39070000I-20000J0D01*
G01*
X17313000Y-39527000D02*
G75*
G03X17313000Y-39527000I-30000J0D01*
G01*
X17263000Y-39472000D02*
X17263000Y-39582000D01*
X17303000Y-39472000D02*
X17303000Y-39582000D01*
X17263000Y-39582000D02*
G75*
G03X17303000Y-39582000I20000J0D01*
G01*
X17303000Y-39472000D02*
G75*
G03X17263000Y-39472000I-20000J0D01*
G01*
X19272643Y-45730790D02*
X19272643Y-45830790D01*
X19222643Y-45780790D02*
X19322643Y-45780790D01*
X19338383Y-45976135D02*
X19338383Y-46076135D01*
X19288383Y-46026135D02*
X19388383Y-46026135D01*
X19404123Y-46221481D02*
X19404123Y-46321481D01*
X19354123Y-46271481D02*
X19454123Y-46271481D01*
X19469863Y-46466826D02*
X19469863Y-46566826D01*
X19419863Y-46516826D02*
X19519863Y-46516826D01*
X17821203Y-39191032D02*
X17821203Y-39291032D01*
X17771203Y-39241032D02*
X17871203Y-39241032D01*
X18075203Y-39191032D02*
X18075203Y-39291032D01*
X18025203Y-39241032D02*
X18125203Y-39241032D01*
X18329203Y-39191032D02*
X18329203Y-39291032D01*
X18279203Y-39241032D02*
X18379203Y-39241032D01*
X18583203Y-39191032D02*
X18583203Y-39291032D01*
X18533203Y-39241032D02*
X18633203Y-39241032D01*
X15441893Y-46395462D02*
X15441893Y-46495462D01*
X15391893Y-46445462D02*
X15491893Y-46445462D01*
X15507633Y-46640807D02*
X15507633Y-46740807D01*
X15457633Y-46690807D02*
X15557633Y-46690807D01*
X15573373Y-46886153D02*
X15573373Y-46986153D01*
X15523373Y-46936153D02*
X15623373Y-46936153D01*
X15639113Y-47131498D02*
X15639113Y-47231498D01*
X15589113Y-47181498D02*
X15689113Y-47181498D01*
X15541202Y-44016028D02*
X15541202Y-44116028D01*
X15491202Y-44066028D02*
X15591202Y-44066028D01*
X15541202Y-44270028D02*
X15541202Y-44370028D01*
X15491202Y-44320028D02*
X15591202Y-44320028D01*
X15541202Y-44524028D02*
X15541202Y-44624028D01*
X15491202Y-44574028D02*
X15591202Y-44574028D01*
X15541202Y-44778028D02*
X15541202Y-44878028D01*
X15491202Y-44828028D02*
X15591202Y-44828028D01*
X22841202Y-45061032D02*
X22841202Y-45161032D01*
X22791202Y-45111032D02*
X22891202Y-45111032D01*
X22841202Y-45315032D02*
X22841202Y-45415032D01*
X22791202Y-45365032D02*
X22891202Y-45365032D01*
X22841202Y-45569032D02*
X22841202Y-45669032D01*
X22791202Y-45619032D02*
X22891202Y-45619032D01*
X22841202Y-45823032D02*
X22841202Y-45923032D01*
X22791202Y-45873032D02*
X22891202Y-45873032D01*
X17873901Y-41089201D02*
X17873901Y-41189201D01*
X17823901Y-41139201D02*
X17923901Y-41139201D01*
X18127901Y-41089201D02*
X18127901Y-41189201D01*
X18077901Y-41139201D02*
X18177901Y-41139201D01*
X18381901Y-41089201D02*
X18381901Y-41189201D01*
X18331901Y-41139201D02*
X18431901Y-41139201D01*
X18635901Y-41089201D02*
X18635901Y-41189201D01*
X18585901Y-41139201D02*
X18685901Y-41139201D01*
X15619592Y-45058497D02*
X15619592Y-45158497D01*
X15569592Y-45108497D02*
X15669592Y-45108497D01*
X15873592Y-45058497D02*
X15873592Y-45158497D01*
X15823592Y-45108497D02*
X15923592Y-45108497D01*
X16127592Y-45058497D02*
X16127592Y-45158497D01*
X16077592Y-45108497D02*
X16177592Y-45108497D01*
X16381592Y-45058497D02*
X16381592Y-45158497D01*
X16331592Y-45108497D02*
X16431592Y-45108497D01*
X15545873Y-39186079D02*
X15545873Y-39286079D01*
X15495873Y-39236079D02*
X15595873Y-39236079D01*
X15545873Y-39440079D02*
X15545873Y-39540079D01*
X15495873Y-39490079D02*
X15595873Y-39490079D01*
X15545873Y-39694079D02*
X15545873Y-39794079D01*
X15495873Y-39744079D02*
X15595873Y-39744079D01*
X15545873Y-39948079D02*
X15545873Y-40048079D01*
X15495873Y-39998079D02*
X15595873Y-39998079D01*
X16585167Y-47248252D02*
X16585167Y-47348252D01*
X16535167Y-47298252D02*
X16635167Y-47298252D01*
X16830512Y-47182512D02*
X16830512Y-47282512D01*
X16780512Y-47232512D02*
X16880512Y-47232512D01*
X17075857Y-47116772D02*
X17075857Y-47216772D01*
X17025857Y-47166772D02*
X17125857Y-47166772D01*
X17321203Y-47051032D02*
X17321203Y-47151032D01*
X17271203Y-47101032D02*
X17371203Y-47101032D01*
X18255167Y-46798252D02*
X18255167Y-46898252D01*
X18205167Y-46848252D02*
X18305167Y-46848252D01*
X18500512Y-46732512D02*
X18500512Y-46832512D01*
X18450512Y-46782512D02*
X18550512Y-46782512D01*
X18745857Y-46666772D02*
X18745857Y-46766772D01*
X18695857Y-46716772D02*
X18795857Y-46716772D01*
X18991202Y-46601032D02*
X18991202Y-46701032D01*
X18941202Y-46651032D02*
X19041202Y-46651032D01*
X17843672Y-42845785D02*
X17843672Y-42945785D01*
X17793672Y-42895785D02*
X17893672Y-42895785D01*
X18097672Y-42845785D02*
X18097672Y-42945785D01*
X18047672Y-42895785D02*
X18147672Y-42895785D01*
X18351672Y-42845785D02*
X18351672Y-42945785D01*
X18301672Y-42895785D02*
X18401672Y-42895785D01*
X18605672Y-42845785D02*
X18605672Y-42945785D01*
X18555672Y-42895785D02*
X18655672Y-42895785D01*
X15713033Y-40883034D02*
X15713033Y-40776967D01*
X15606966Y-40776967D01*
X15606966Y-40883034D01*
X15713033Y-40883034D01*
X15903033Y-41388034D02*
X15903033Y-41281967D01*
X15796966Y-41281967D01*
X15796966Y-41388034D01*
X15903033Y-41388034D01*
X15770000Y-41162500D02*
X15850000Y-41082500D01*
X15770000Y-41002500D01*
X15690000Y-41082500D01*
X15770000Y-41162500D01*
X16470000Y-41162500D02*
X16550000Y-41082500D01*
X16470000Y-41002500D01*
X16390000Y-41082500D01*
X16470000Y-41162500D01*
X16490000Y-40742500D02*
X16690000Y-40942500D01*
X16690000Y-40742500D02*
X16490000Y-40942500D01*
X16690000Y-40842500D02*
G75*
G03X16690000Y-40842500I-100000J0D01*
G01*
D12*
X15504366Y-47949133D02*
X15504366Y-47649133D01*
X15575795Y-47649133D01*
X15618652Y-47663419D01*
X15647223Y-47691990D01*
X15661509Y-47720561D01*
X15675795Y-47777704D01*
X15675795Y-47820561D01*
X15661509Y-47877704D01*
X15647223Y-47906276D01*
X15618652Y-47934847D01*
X15575795Y-47949133D01*
X15504366Y-47949133D01*
X15804366Y-47949133D02*
X15804366Y-47749133D01*
X15804366Y-47806276D02*
X15818652Y-47777704D01*
X15832938Y-47763419D01*
X15861509Y-47749133D01*
X15890080Y-47749133D01*
X15990080Y-47949133D02*
X15990080Y-47749133D01*
X15990080Y-47649133D02*
X15975795Y-47663419D01*
X15990080Y-47677704D01*
X16004366Y-47663419D01*
X15990080Y-47649133D01*
X15990080Y-47677704D01*
X16175795Y-47949133D02*
X16147223Y-47934847D01*
X16132938Y-47906276D01*
X16132938Y-47649133D01*
X16332938Y-47949133D02*
X16304366Y-47934847D01*
X16290080Y-47906276D01*
X16290080Y-47649133D01*
X16675795Y-47949133D02*
X16675795Y-47649133D01*
X16775795Y-47863419D01*
X16875795Y-47649133D01*
X16875795Y-47949133D01*
X17147223Y-47949133D02*
X17147223Y-47791990D01*
X17132938Y-47763419D01*
X17104366Y-47749133D01*
X17047223Y-47749133D01*
X17018652Y-47763419D01*
X17147223Y-47934847D02*
X17118652Y-47949133D01*
X17047223Y-47949133D01*
X17018652Y-47934847D01*
X17004366Y-47906276D01*
X17004366Y-47877704D01*
X17018652Y-47849133D01*
X17047223Y-47834847D01*
X17118652Y-47834847D01*
X17147223Y-47820561D01*
X17290081Y-47749133D02*
X17290081Y-48049133D01*
X17290081Y-47763419D02*
X17318652Y-47749133D01*
X17375795Y-47749133D01*
X17404366Y-47763419D01*
X17418652Y-47777704D01*
X17432938Y-47806276D01*
X17432938Y-47891990D01*
X17418652Y-47920561D01*
X17404366Y-47934847D01*
X17375795Y-47949133D01*
X17318652Y-47949133D01*
X17290081Y-47934847D01*
X17561509Y-47920561D02*
X17575795Y-47934847D01*
X17561509Y-47949133D01*
X17547223Y-47934847D01*
X17561509Y-47920561D01*
X17561509Y-47949133D01*
X17561509Y-47763419D02*
X17575795Y-47777704D01*
X17561509Y-47791990D01*
X17547223Y-47777704D01*
X17561509Y-47763419D01*
X17561509Y-47791990D01*
X15177938Y-48423419D02*
X15217938Y-48463419D01*
X15217938Y-48423419D02*
X15177938Y-48463419D01*
X15561509Y-48279133D02*
X15590080Y-48279133D01*
X15618652Y-48293419D01*
X15632938Y-48307704D01*
X15647223Y-48336276D01*
X15661509Y-48393419D01*
X15661509Y-48464847D01*
X15647223Y-48521990D01*
X15632938Y-48550561D01*
X15618652Y-48564847D01*
X15590080Y-48579133D01*
X15561509Y-48579133D01*
X15532938Y-48564847D01*
X15518652Y-48550561D01*
X15504366Y-48521990D01*
X15490080Y-48464847D01*
X15490080Y-48393419D01*
X15504366Y-48336276D01*
X15518652Y-48307704D01*
X15532938Y-48293419D01*
X15561509Y-48279133D01*
X15790080Y-48550561D02*
X15804366Y-48564847D01*
X15790080Y-48579133D01*
X15775795Y-48564847D01*
X15790080Y-48550561D01*
X15790080Y-48579133D01*
X16061509Y-48379133D02*
X16061509Y-48579133D01*
X15990080Y-48264847D02*
X15918652Y-48479133D01*
X16104366Y-48479133D01*
X16275795Y-48279133D02*
X16304366Y-48279133D01*
X16332938Y-48293419D01*
X16347223Y-48307704D01*
X16361509Y-48336276D01*
X16375795Y-48393419D01*
X16375795Y-48464847D01*
X16361509Y-48521990D01*
X16347223Y-48550561D01*
X16332938Y-48564847D01*
X16304366Y-48579133D01*
X16275795Y-48579133D01*
X16247223Y-48564847D01*
X16232938Y-48550561D01*
X16218652Y-48521990D01*
X16204366Y-48464847D01*
X16204366Y-48393419D01*
X16218652Y-48336276D01*
X16232938Y-48307704D01*
X16247223Y-48293419D01*
X16275795Y-48279133D01*
X16504366Y-48579133D02*
X16504366Y-48379133D01*
X16504366Y-48407704D02*
X16518652Y-48393419D01*
X16547223Y-48379133D01*
X16590080Y-48379133D01*
X16618652Y-48393419D01*
X16632938Y-48421990D01*
X16632938Y-48579133D01*
X16632938Y-48421990D02*
X16647223Y-48393419D01*
X16675795Y-48379133D01*
X16718652Y-48379133D01*
X16747223Y-48393419D01*
X16761509Y-48421990D01*
X16761509Y-48579133D01*
X16904366Y-48579133D02*
X16904366Y-48379133D01*
X16904366Y-48407704D02*
X16918652Y-48393419D01*
X16947223Y-48379133D01*
X16990081Y-48379133D01*
X17018652Y-48393419D01*
X17032938Y-48421990D01*
X17032938Y-48579133D01*
X17032938Y-48421990D02*
X17047223Y-48393419D01*
X17075795Y-48379133D01*
X17118652Y-48379133D01*
X17147223Y-48393419D01*
X17161509Y-48421990D01*
X17161509Y-48579133D01*
X17747223Y-48264847D02*
X17490081Y-48650561D01*
X18132938Y-48279133D02*
X18161509Y-48279133D01*
X18190081Y-48293419D01*
X18204366Y-48307704D01*
X18218652Y-48336276D01*
X18232938Y-48393419D01*
X18232938Y-48464847D01*
X18218652Y-48521990D01*
X18204366Y-48550561D01*
X18190081Y-48564847D01*
X18161509Y-48579133D01*
X18132938Y-48579133D01*
X18104366Y-48564847D01*
X18090081Y-48550561D01*
X18075795Y-48521990D01*
X18061509Y-48464847D01*
X18061509Y-48393419D01*
X18075795Y-48336276D01*
X18090081Y-48307704D01*
X18104366Y-48293419D01*
X18132938Y-48279133D01*
X18361509Y-48550561D02*
X18375795Y-48564847D01*
X18361509Y-48579133D01*
X18347223Y-48564847D01*
X18361509Y-48550561D01*
X18361509Y-48579133D01*
X18561509Y-48279133D02*
X18590081Y-48279133D01*
X18618652Y-48293419D01*
X18632938Y-48307704D01*
X18647223Y-48336276D01*
X18661509Y-48393419D01*
X18661509Y-48464847D01*
X18647223Y-48521990D01*
X18632938Y-48550561D01*
X18618652Y-48564847D01*
X18590081Y-48579133D01*
X18561509Y-48579133D01*
X18532938Y-48564847D01*
X18518652Y-48550561D01*
X18504366Y-48521990D01*
X18490081Y-48464847D01*
X18490081Y-48393419D01*
X18504366Y-48336276D01*
X18518652Y-48307704D01*
X18532938Y-48293419D01*
X18561509Y-48279133D01*
X18947223Y-48579133D02*
X18775795Y-48579133D01*
X18861509Y-48579133D02*
X18861509Y-48279133D01*
X18832938Y-48321990D01*
X18804366Y-48350561D01*
X18775795Y-48364847D01*
X19204366Y-48279133D02*
X19147223Y-48279133D01*
X19118652Y-48293419D01*
X19104366Y-48307704D01*
X19075795Y-48350561D01*
X19061509Y-48407704D01*
X19061509Y-48521990D01*
X19075795Y-48550561D01*
X19090081Y-48564847D01*
X19118652Y-48579133D01*
X19175795Y-48579133D01*
X19204366Y-48564847D01*
X19218652Y-48550561D01*
X19232938Y-48521990D01*
X19232938Y-48450561D01*
X19218652Y-48421990D01*
X19204366Y-48407704D01*
X19175795Y-48393419D01*
X19118652Y-48393419D01*
X19090081Y-48407704D01*
X19075795Y-48421990D01*
X19061509Y-48450561D01*
X19347223Y-48279133D02*
X19347223Y-48336276D01*
X19461509Y-48279133D02*
X19461509Y-48336276D01*
X19904366Y-48693419D02*
X19890081Y-48679133D01*
X19861509Y-48636276D01*
X19847223Y-48607704D01*
X19832938Y-48564847D01*
X19818652Y-48493419D01*
X19818652Y-48436276D01*
X19832938Y-48364847D01*
X19847223Y-48321990D01*
X19861509Y-48293419D01*
X19890081Y-48250561D01*
X19904366Y-48236276D01*
X20161509Y-48279133D02*
X20018652Y-48279133D01*
X20004366Y-48421990D01*
X20018652Y-48407704D01*
X20047223Y-48393419D01*
X20118652Y-48393419D01*
X20147223Y-48407704D01*
X20161509Y-48421990D01*
X20175795Y-48450561D01*
X20175795Y-48521990D01*
X20161509Y-48550561D01*
X20147223Y-48564847D01*
X20118652Y-48579133D01*
X20047223Y-48579133D01*
X20018652Y-48564847D01*
X20004366Y-48550561D01*
X20461509Y-48579133D02*
X20290081Y-48579133D01*
X20375795Y-48579133D02*
X20375795Y-48279133D01*
X20347223Y-48321990D01*
X20318652Y-48350561D01*
X20290081Y-48364847D01*
X20818652Y-48579133D02*
X20818652Y-48279133D01*
X20947223Y-48579133D02*
X20947223Y-48421990D01*
X20932938Y-48393419D01*
X20904366Y-48379133D01*
X20861509Y-48379133D01*
X20832938Y-48393419D01*
X20818652Y-48407704D01*
X21132938Y-48579133D02*
X21104366Y-48564847D01*
X21090081Y-48550561D01*
X21075795Y-48521990D01*
X21075795Y-48436276D01*
X21090081Y-48407704D01*
X21104366Y-48393419D01*
X21132938Y-48379133D01*
X21175795Y-48379133D01*
X21204366Y-48393419D01*
X21218652Y-48407704D01*
X21232938Y-48436276D01*
X21232938Y-48521990D01*
X21218652Y-48550561D01*
X21204366Y-48564847D01*
X21175795Y-48579133D01*
X21132938Y-48579133D01*
X21404366Y-48579133D02*
X21375795Y-48564847D01*
X21361509Y-48536276D01*
X21361509Y-48279133D01*
X21632938Y-48564847D02*
X21604366Y-48579133D01*
X21547223Y-48579133D01*
X21518652Y-48564847D01*
X21504366Y-48536276D01*
X21504366Y-48421990D01*
X21518652Y-48393419D01*
X21547223Y-48379133D01*
X21604366Y-48379133D01*
X21632938Y-48393419D01*
X21647223Y-48421990D01*
X21647223Y-48450561D01*
X21504366Y-48479133D01*
X21761509Y-48564847D02*
X21790081Y-48579133D01*
X21847223Y-48579133D01*
X21875795Y-48564847D01*
X21890081Y-48536276D01*
X21890081Y-48521990D01*
X21875795Y-48493419D01*
X21847223Y-48479133D01*
X21804366Y-48479133D01*
X21775795Y-48464847D01*
X21761509Y-48436276D01*
X21761509Y-48421990D01*
X21775795Y-48393419D01*
X21804366Y-48379133D01*
X21847223Y-48379133D01*
X21875795Y-48393419D01*
X21990081Y-48693419D02*
X22004366Y-48679133D01*
X22032938Y-48636276D01*
X22047223Y-48607704D01*
X22061509Y-48564847D01*
X22075795Y-48493419D01*
X22075795Y-48436276D01*
X22061509Y-48364847D01*
X22047223Y-48321990D01*
X22032938Y-48293419D01*
X22004366Y-48250561D01*
X21990081Y-48236276D01*
X15217938Y-48839419D02*
G75*
G03X15217938Y-48839419I-30000J0D01*
G01*
X15561509Y-48675133D02*
X15590080Y-48675133D01*
X15618652Y-48689419D01*
X15632938Y-48703704D01*
X15647223Y-48732276D01*
X15661509Y-48789419D01*
X15661509Y-48860847D01*
X15647223Y-48917990D01*
X15632938Y-48946561D01*
X15618652Y-48960847D01*
X15590080Y-48975133D01*
X15561509Y-48975133D01*
X15532938Y-48960847D01*
X15518652Y-48946561D01*
X15504366Y-48917990D01*
X15490080Y-48860847D01*
X15490080Y-48789419D01*
X15504366Y-48732276D01*
X15518652Y-48703704D01*
X15532938Y-48689419D01*
X15561509Y-48675133D01*
X15790080Y-48946561D02*
X15804366Y-48960847D01*
X15790080Y-48975133D01*
X15775795Y-48960847D01*
X15790080Y-48946561D01*
X15790080Y-48975133D01*
X16061509Y-48675133D02*
X16004366Y-48675133D01*
X15975795Y-48689419D01*
X15961509Y-48703704D01*
X15932938Y-48746561D01*
X15918652Y-48803704D01*
X15918652Y-48917990D01*
X15932938Y-48946561D01*
X15947223Y-48960847D01*
X15975795Y-48975133D01*
X16032938Y-48975133D01*
X16061509Y-48960847D01*
X16075795Y-48946561D01*
X16090080Y-48917990D01*
X16090080Y-48846561D01*
X16075795Y-48817990D01*
X16061509Y-48803704D01*
X16032938Y-48789419D01*
X15975795Y-48789419D01*
X15947223Y-48803704D01*
X15932938Y-48817990D01*
X15918652Y-48846561D01*
X16275795Y-48675133D02*
X16304366Y-48675133D01*
X16332938Y-48689419D01*
X16347223Y-48703704D01*
X16361509Y-48732276D01*
X16375795Y-48789419D01*
X16375795Y-48860847D01*
X16361509Y-48917990D01*
X16347223Y-48946561D01*
X16332938Y-48960847D01*
X16304366Y-48975133D01*
X16275795Y-48975133D01*
X16247223Y-48960847D01*
X16232938Y-48946561D01*
X16218652Y-48917990D01*
X16204366Y-48860847D01*
X16204366Y-48789419D01*
X16218652Y-48732276D01*
X16232938Y-48703704D01*
X16247223Y-48689419D01*
X16275795Y-48675133D01*
X16504366Y-48975133D02*
X16504366Y-48775133D01*
X16504366Y-48803704D02*
X16518652Y-48789419D01*
X16547223Y-48775133D01*
X16590080Y-48775133D01*
X16618652Y-48789419D01*
X16632938Y-48817990D01*
X16632938Y-48975133D01*
X16632938Y-48817990D02*
X16647223Y-48789419D01*
X16675795Y-48775133D01*
X16718652Y-48775133D01*
X16747223Y-48789419D01*
X16761509Y-48817990D01*
X16761509Y-48975133D01*
X16904366Y-48975133D02*
X16904366Y-48775133D01*
X16904366Y-48803704D02*
X16918652Y-48789419D01*
X16947223Y-48775133D01*
X16990081Y-48775133D01*
X17018652Y-48789419D01*
X17032938Y-48817990D01*
X17032938Y-48975133D01*
X17032938Y-48817990D02*
X17047223Y-48789419D01*
X17075795Y-48775133D01*
X17118652Y-48775133D01*
X17147223Y-48789419D01*
X17161509Y-48817990D01*
X17161509Y-48975133D01*
X17747223Y-48660847D02*
X17490081Y-49046561D01*
X18132938Y-48675133D02*
X18161509Y-48675133D01*
X18190081Y-48689419D01*
X18204366Y-48703704D01*
X18218652Y-48732276D01*
X18232938Y-48789419D01*
X18232938Y-48860847D01*
X18218652Y-48917990D01*
X18204366Y-48946561D01*
X18190081Y-48960847D01*
X18161509Y-48975133D01*
X18132938Y-48975133D01*
X18104366Y-48960847D01*
X18090081Y-48946561D01*
X18075795Y-48917990D01*
X18061509Y-48860847D01*
X18061509Y-48789419D01*
X18075795Y-48732276D01*
X18090081Y-48703704D01*
X18104366Y-48689419D01*
X18132938Y-48675133D01*
X18361509Y-48946561D02*
X18375795Y-48960847D01*
X18361509Y-48975133D01*
X18347223Y-48960847D01*
X18361509Y-48946561D01*
X18361509Y-48975133D01*
X18561509Y-48675133D02*
X18590081Y-48675133D01*
X18618652Y-48689419D01*
X18632938Y-48703704D01*
X18647223Y-48732276D01*
X18661509Y-48789419D01*
X18661509Y-48860847D01*
X18647223Y-48917990D01*
X18632938Y-48946561D01*
X18618652Y-48960847D01*
X18590081Y-48975133D01*
X18561509Y-48975133D01*
X18532938Y-48960847D01*
X18518652Y-48946561D01*
X18504366Y-48917990D01*
X18490081Y-48860847D01*
X18490081Y-48789419D01*
X18504366Y-48732276D01*
X18518652Y-48703704D01*
X18532938Y-48689419D01*
X18561509Y-48675133D01*
X18775795Y-48703704D02*
X18790081Y-48689419D01*
X18818652Y-48675133D01*
X18890081Y-48675133D01*
X18918652Y-48689419D01*
X18932938Y-48703704D01*
X18947223Y-48732276D01*
X18947223Y-48760847D01*
X18932938Y-48803704D01*
X18761509Y-48975133D01*
X18947223Y-48975133D01*
X19204366Y-48775133D02*
X19204366Y-48975133D01*
X19132938Y-48660847D02*
X19061509Y-48875133D01*
X19247223Y-48875133D01*
X19347223Y-48675133D02*
X19347223Y-48732276D01*
X19461509Y-48675133D02*
X19461509Y-48732276D01*
X19904366Y-49089419D02*
X19890081Y-49075133D01*
X19861509Y-49032276D01*
X19847223Y-49003704D01*
X19832938Y-48960847D01*
X19818652Y-48889419D01*
X19818652Y-48832276D01*
X19832938Y-48760847D01*
X19847223Y-48717990D01*
X19861509Y-48689419D01*
X19890081Y-48646561D01*
X19904366Y-48632276D01*
X20075795Y-48675133D02*
X20104366Y-48675133D01*
X20132938Y-48689419D01*
X20147223Y-48703704D01*
X20161509Y-48732276D01*
X20175795Y-48789419D01*
X20175795Y-48860847D01*
X20161509Y-48917990D01*
X20147223Y-48946561D01*
X20132938Y-48960847D01*
X20104366Y-48975133D01*
X20075795Y-48975133D01*
X20047223Y-48960847D01*
X20032938Y-48946561D01*
X20018652Y-48917990D01*
X20004366Y-48860847D01*
X20004366Y-48789419D01*
X20018652Y-48732276D01*
X20032938Y-48703704D01*
X20047223Y-48689419D01*
X20075795Y-48675133D01*
X20532938Y-48975133D02*
X20532938Y-48675133D01*
X20661509Y-48975133D02*
X20661509Y-48817990D01*
X20647223Y-48789419D01*
X20618652Y-48775133D01*
X20575795Y-48775133D01*
X20547223Y-48789419D01*
X20532938Y-48803704D01*
X20847223Y-48975133D02*
X20818652Y-48960847D01*
X20804366Y-48946561D01*
X20790081Y-48917990D01*
X20790081Y-48832276D01*
X20804366Y-48803704D01*
X20818652Y-48789419D01*
X20847223Y-48775133D01*
X20890081Y-48775133D01*
X20918652Y-48789419D01*
X20932938Y-48803704D01*
X20947223Y-48832276D01*
X20947223Y-48917990D01*
X20932938Y-48946561D01*
X20918652Y-48960847D01*
X20890081Y-48975133D01*
X20847223Y-48975133D01*
X21118652Y-48975133D02*
X21090081Y-48960847D01*
X21075795Y-48932276D01*
X21075795Y-48675133D01*
X21347223Y-48960847D02*
X21318652Y-48975133D01*
X21261509Y-48975133D01*
X21232938Y-48960847D01*
X21218652Y-48932276D01*
X21218652Y-48817990D01*
X21232938Y-48789419D01*
X21261509Y-48775133D01*
X21318652Y-48775133D01*
X21347223Y-48789419D01*
X21361509Y-48817990D01*
X21361509Y-48846561D01*
X21218652Y-48875133D01*
X21475795Y-48960847D02*
X21504366Y-48975133D01*
X21561509Y-48975133D01*
X21590081Y-48960847D01*
X21604366Y-48932276D01*
X21604366Y-48917990D01*
X21590081Y-48889419D01*
X21561509Y-48875133D01*
X21518652Y-48875133D01*
X21490081Y-48860847D01*
X21475795Y-48832276D01*
X21475795Y-48817990D01*
X21490081Y-48789419D01*
X21518652Y-48775133D01*
X21561509Y-48775133D01*
X21590081Y-48789419D01*
X21961509Y-48860847D02*
X22190081Y-48860847D01*
X22075795Y-48975133D02*
X22075795Y-48746561D01*
X22690080Y-48775133D02*
X22690080Y-48975133D01*
X22618652Y-48660847D02*
X22547223Y-48875133D01*
X22732938Y-48875133D01*
X23061509Y-48960847D02*
X23090080Y-48975133D01*
X23147223Y-48975133D01*
X23175795Y-48960847D01*
X23190080Y-48932276D01*
X23190080Y-48917990D01*
X23175795Y-48889419D01*
X23147223Y-48875133D01*
X23104366Y-48875133D01*
X23075795Y-48860847D01*
X23061509Y-48832276D01*
X23061509Y-48817990D01*
X23075795Y-48789419D01*
X23104366Y-48775133D01*
X23147223Y-48775133D01*
X23175795Y-48789419D01*
X23361509Y-48975133D02*
X23332938Y-48960847D01*
X23318652Y-48932276D01*
X23318652Y-48675133D01*
X23518652Y-48975133D02*
X23490080Y-48960847D01*
X23475795Y-48946561D01*
X23461509Y-48917990D01*
X23461509Y-48832276D01*
X23475795Y-48803704D01*
X23490080Y-48789419D01*
X23518652Y-48775133D01*
X23561509Y-48775133D01*
X23590080Y-48789419D01*
X23604366Y-48803704D01*
X23618652Y-48832276D01*
X23618652Y-48917990D01*
X23604366Y-48946561D01*
X23590080Y-48960847D01*
X23561509Y-48975133D01*
X23518652Y-48975133D01*
X23704366Y-48775133D02*
X23818652Y-48775133D01*
X23747223Y-48675133D02*
X23747223Y-48932276D01*
X23761509Y-48960847D01*
X23790080Y-48975133D01*
X23818652Y-48975133D01*
X23904366Y-48960847D02*
X23932938Y-48975133D01*
X23990080Y-48975133D01*
X24018652Y-48960847D01*
X24032938Y-48932276D01*
X24032938Y-48917990D01*
X24018652Y-48889419D01*
X23990080Y-48875133D01*
X23947223Y-48875133D01*
X23918652Y-48860847D01*
X23904366Y-48832276D01*
X23904366Y-48817990D01*
X23918652Y-48789419D01*
X23947223Y-48775133D01*
X23990080Y-48775133D01*
X24018652Y-48789419D01*
X24132938Y-49089419D02*
X24147223Y-49075133D01*
X24175795Y-49032276D01*
X24190080Y-49003704D01*
X24204366Y-48960847D01*
X24218652Y-48889419D01*
X24218652Y-48832276D01*
X24204366Y-48760847D01*
X24190080Y-48717990D01*
X24175795Y-48689419D01*
X24147223Y-48646561D01*
X24132938Y-48632276D01*
X15167938Y-49185419D02*
X15167938Y-49285419D01*
X15117938Y-49235419D02*
X15217938Y-49235419D01*
X15661509Y-49371133D02*
X15490080Y-49371133D01*
X15575795Y-49371133D02*
X15575795Y-49071133D01*
X15547223Y-49113990D01*
X15518652Y-49142561D01*
X15490080Y-49156847D01*
X15790080Y-49342561D02*
X15804366Y-49356847D01*
X15790080Y-49371133D01*
X15775795Y-49356847D01*
X15790080Y-49342561D01*
X15790080Y-49371133D01*
X15990080Y-49071133D02*
X16018652Y-49071133D01*
X16047223Y-49085419D01*
X16061509Y-49099704D01*
X16075795Y-49128276D01*
X16090080Y-49185419D01*
X16090080Y-49256847D01*
X16075795Y-49313990D01*
X16061509Y-49342561D01*
X16047223Y-49356847D01*
X16018652Y-49371133D01*
X15990080Y-49371133D01*
X15961509Y-49356847D01*
X15947223Y-49342561D01*
X15932938Y-49313990D01*
X15918652Y-49256847D01*
X15918652Y-49185419D01*
X15932938Y-49128276D01*
X15947223Y-49099704D01*
X15961509Y-49085419D01*
X15990080Y-49071133D01*
X16275795Y-49071133D02*
X16304366Y-49071133D01*
X16332938Y-49085419D01*
X16347223Y-49099704D01*
X16361509Y-49128276D01*
X16375795Y-49185419D01*
X16375795Y-49256847D01*
X16361509Y-49313990D01*
X16347223Y-49342561D01*
X16332938Y-49356847D01*
X16304366Y-49371133D01*
X16275795Y-49371133D01*
X16247223Y-49356847D01*
X16232938Y-49342561D01*
X16218652Y-49313990D01*
X16204366Y-49256847D01*
X16204366Y-49185419D01*
X16218652Y-49128276D01*
X16232938Y-49099704D01*
X16247223Y-49085419D01*
X16275795Y-49071133D01*
X16504366Y-49371133D02*
X16504366Y-49171133D01*
X16504366Y-49199704D02*
X16518652Y-49185419D01*
X16547223Y-49171133D01*
X16590080Y-49171133D01*
X16618652Y-49185419D01*
X16632938Y-49213990D01*
X16632938Y-49371133D01*
X16632938Y-49213990D02*
X16647223Y-49185419D01*
X16675795Y-49171133D01*
X16718652Y-49171133D01*
X16747223Y-49185419D01*
X16761509Y-49213990D01*
X16761509Y-49371133D01*
X16904366Y-49371133D02*
X16904366Y-49171133D01*
X16904366Y-49199704D02*
X16918652Y-49185419D01*
X16947223Y-49171133D01*
X16990081Y-49171133D01*
X17018652Y-49185419D01*
X17032938Y-49213990D01*
X17032938Y-49371133D01*
X17032938Y-49213990D02*
X17047223Y-49185419D01*
X17075795Y-49171133D01*
X17118652Y-49171133D01*
X17147223Y-49185419D01*
X17161509Y-49213990D01*
X17161509Y-49371133D01*
X17747223Y-49056847D02*
X17490081Y-49442561D01*
X18132938Y-49071133D02*
X18161509Y-49071133D01*
X18190081Y-49085419D01*
X18204366Y-49099704D01*
X18218652Y-49128276D01*
X18232938Y-49185419D01*
X18232938Y-49256847D01*
X18218652Y-49313990D01*
X18204366Y-49342561D01*
X18190081Y-49356847D01*
X18161509Y-49371133D01*
X18132938Y-49371133D01*
X18104366Y-49356847D01*
X18090081Y-49342561D01*
X18075795Y-49313990D01*
X18061509Y-49256847D01*
X18061509Y-49185419D01*
X18075795Y-49128276D01*
X18090081Y-49099704D01*
X18104366Y-49085419D01*
X18132938Y-49071133D01*
X18361509Y-49342561D02*
X18375795Y-49356847D01*
X18361509Y-49371133D01*
X18347223Y-49356847D01*
X18361509Y-49342561D01*
X18361509Y-49371133D01*
X18561509Y-49071133D02*
X18590081Y-49071133D01*
X18618652Y-49085419D01*
X18632938Y-49099704D01*
X18647223Y-49128276D01*
X18661509Y-49185419D01*
X18661509Y-49256847D01*
X18647223Y-49313990D01*
X18632938Y-49342561D01*
X18618652Y-49356847D01*
X18590081Y-49371133D01*
X18561509Y-49371133D01*
X18532938Y-49356847D01*
X18518652Y-49342561D01*
X18504366Y-49313990D01*
X18490081Y-49256847D01*
X18490081Y-49185419D01*
X18504366Y-49128276D01*
X18518652Y-49099704D01*
X18532938Y-49085419D01*
X18561509Y-49071133D01*
X18761509Y-49071133D02*
X18947223Y-49071133D01*
X18847223Y-49185419D01*
X18890081Y-49185419D01*
X18918652Y-49199704D01*
X18932938Y-49213990D01*
X18947223Y-49242561D01*
X18947223Y-49313990D01*
X18932938Y-49342561D01*
X18918652Y-49356847D01*
X18890081Y-49371133D01*
X18804366Y-49371133D01*
X18775795Y-49356847D01*
X18761509Y-49342561D01*
X19090081Y-49371133D02*
X19147223Y-49371133D01*
X19175795Y-49356847D01*
X19190081Y-49342561D01*
X19218652Y-49299704D01*
X19232938Y-49242561D01*
X19232938Y-49128276D01*
X19218652Y-49099704D01*
X19204366Y-49085419D01*
X19175795Y-49071133D01*
X19118652Y-49071133D01*
X19090081Y-49085419D01*
X19075795Y-49099704D01*
X19061509Y-49128276D01*
X19061509Y-49199704D01*
X19075795Y-49228276D01*
X19090081Y-49242561D01*
X19118652Y-49256847D01*
X19175795Y-49256847D01*
X19204366Y-49242561D01*
X19218652Y-49228276D01*
X19232938Y-49199704D01*
X19347223Y-49071133D02*
X19347223Y-49128276D01*
X19461509Y-49071133D02*
X19461509Y-49128276D01*
X19904366Y-49485419D02*
X19890081Y-49471133D01*
X19861509Y-49428276D01*
X19847223Y-49399704D01*
X19832938Y-49356847D01*
X19818652Y-49285419D01*
X19818652Y-49228276D01*
X19832938Y-49156847D01*
X19847223Y-49113990D01*
X19861509Y-49085419D01*
X19890081Y-49042561D01*
X19904366Y-49028276D01*
X20147223Y-49171133D02*
X20147223Y-49371133D01*
X20075795Y-49056847D02*
X20004366Y-49271133D01*
X20190081Y-49271133D01*
X20432938Y-49171133D02*
X20432938Y-49371133D01*
X20361509Y-49056847D02*
X20290081Y-49271133D01*
X20475795Y-49271133D01*
X20818652Y-49371133D02*
X20818652Y-49071133D01*
X20947223Y-49371133D02*
X20947223Y-49213990D01*
X20932938Y-49185419D01*
X20904366Y-49171133D01*
X20861509Y-49171133D01*
X20832938Y-49185419D01*
X20818652Y-49199704D01*
X21132938Y-49371133D02*
X21104366Y-49356847D01*
X21090081Y-49342561D01*
X21075795Y-49313990D01*
X21075795Y-49228276D01*
X21090081Y-49199704D01*
X21104366Y-49185419D01*
X21132938Y-49171133D01*
X21175795Y-49171133D01*
X21204366Y-49185419D01*
X21218652Y-49199704D01*
X21232938Y-49228276D01*
X21232938Y-49313990D01*
X21218652Y-49342561D01*
X21204366Y-49356847D01*
X21175795Y-49371133D01*
X21132938Y-49371133D01*
X21404366Y-49371133D02*
X21375795Y-49356847D01*
X21361509Y-49328276D01*
X21361509Y-49071133D01*
X21632938Y-49356847D02*
X21604366Y-49371133D01*
X21547223Y-49371133D01*
X21518652Y-49356847D01*
X21504366Y-49328276D01*
X21504366Y-49213990D01*
X21518652Y-49185419D01*
X21547223Y-49171133D01*
X21604366Y-49171133D01*
X21632938Y-49185419D01*
X21647223Y-49213990D01*
X21647223Y-49242561D01*
X21504366Y-49271133D01*
X21761509Y-49356847D02*
X21790081Y-49371133D01*
X21847223Y-49371133D01*
X21875795Y-49356847D01*
X21890081Y-49328276D01*
X21890081Y-49313990D01*
X21875795Y-49285419D01*
X21847223Y-49271133D01*
X21804366Y-49271133D01*
X21775795Y-49256847D01*
X21761509Y-49228276D01*
X21761509Y-49213990D01*
X21775795Y-49185419D01*
X21804366Y-49171133D01*
X21847223Y-49171133D01*
X21875795Y-49185419D01*
X21990081Y-49485419D02*
X22004366Y-49471133D01*
X22032938Y-49428276D01*
X22047223Y-49399704D01*
X22061509Y-49356847D01*
X22075795Y-49285419D01*
X22075795Y-49228276D01*
X22061509Y-49156847D01*
X22047223Y-49113990D01*
X22032938Y-49085419D01*
X22004366Y-49042561D01*
X21990081Y-49028276D01*
X15195971Y-49684452D02*
X15195971Y-49578385D01*
X15089904Y-49578385D01*
X15089904Y-49684452D01*
X15195971Y-49684452D01*
X15661509Y-49767133D02*
X15490080Y-49767133D01*
X15575795Y-49767133D02*
X15575795Y-49467133D01*
X15547223Y-49509990D01*
X15518652Y-49538561D01*
X15490080Y-49552847D01*
X15790080Y-49738561D02*
X15804366Y-49752847D01*
X15790080Y-49767133D01*
X15775795Y-49752847D01*
X15790080Y-49738561D01*
X15790080Y-49767133D01*
X16075795Y-49467133D02*
X15932938Y-49467133D01*
X15918652Y-49609990D01*
X15932938Y-49595704D01*
X15961509Y-49581419D01*
X16032938Y-49581419D01*
X16061509Y-49595704D01*
X16075795Y-49609990D01*
X16090080Y-49638561D01*
X16090080Y-49709990D01*
X16075795Y-49738561D01*
X16061509Y-49752847D01*
X16032938Y-49767133D01*
X15961509Y-49767133D01*
X15932938Y-49752847D01*
X15918652Y-49738561D01*
X16275795Y-49467133D02*
X16304366Y-49467133D01*
X16332938Y-49481419D01*
X16347223Y-49495704D01*
X16361509Y-49524276D01*
X16375795Y-49581419D01*
X16375795Y-49652847D01*
X16361509Y-49709990D01*
X16347223Y-49738561D01*
X16332938Y-49752847D01*
X16304366Y-49767133D01*
X16275795Y-49767133D01*
X16247223Y-49752847D01*
X16232938Y-49738561D01*
X16218652Y-49709990D01*
X16204366Y-49652847D01*
X16204366Y-49581419D01*
X16218652Y-49524276D01*
X16232938Y-49495704D01*
X16247223Y-49481419D01*
X16275795Y-49467133D01*
X16504366Y-49767133D02*
X16504366Y-49567133D01*
X16504366Y-49595704D02*
X16518652Y-49581419D01*
X16547223Y-49567133D01*
X16590080Y-49567133D01*
X16618652Y-49581419D01*
X16632938Y-49609990D01*
X16632938Y-49767133D01*
X16632938Y-49609990D02*
X16647223Y-49581419D01*
X16675795Y-49567133D01*
X16718652Y-49567133D01*
X16747223Y-49581419D01*
X16761509Y-49609990D01*
X16761509Y-49767133D01*
X16904366Y-49767133D02*
X16904366Y-49567133D01*
X16904366Y-49595704D02*
X16918652Y-49581419D01*
X16947223Y-49567133D01*
X16990081Y-49567133D01*
X17018652Y-49581419D01*
X17032938Y-49609990D01*
X17032938Y-49767133D01*
X17032938Y-49609990D02*
X17047223Y-49581419D01*
X17075795Y-49567133D01*
X17118652Y-49567133D01*
X17147223Y-49581419D01*
X17161509Y-49609990D01*
X17161509Y-49767133D01*
X17747223Y-49452847D02*
X17490081Y-49838561D01*
X18132938Y-49467133D02*
X18161509Y-49467133D01*
X18190081Y-49481419D01*
X18204366Y-49495704D01*
X18218652Y-49524276D01*
X18232938Y-49581419D01*
X18232938Y-49652847D01*
X18218652Y-49709990D01*
X18204366Y-49738561D01*
X18190081Y-49752847D01*
X18161509Y-49767133D01*
X18132938Y-49767133D01*
X18104366Y-49752847D01*
X18090081Y-49738561D01*
X18075795Y-49709990D01*
X18061509Y-49652847D01*
X18061509Y-49581419D01*
X18075795Y-49524276D01*
X18090081Y-49495704D01*
X18104366Y-49481419D01*
X18132938Y-49467133D01*
X18361509Y-49738561D02*
X18375795Y-49752847D01*
X18361509Y-49767133D01*
X18347223Y-49752847D01*
X18361509Y-49738561D01*
X18361509Y-49767133D01*
X18561509Y-49467133D02*
X18590081Y-49467133D01*
X18618652Y-49481419D01*
X18632938Y-49495704D01*
X18647223Y-49524276D01*
X18661509Y-49581419D01*
X18661509Y-49652847D01*
X18647223Y-49709990D01*
X18632938Y-49738561D01*
X18618652Y-49752847D01*
X18590081Y-49767133D01*
X18561509Y-49767133D01*
X18532938Y-49752847D01*
X18518652Y-49738561D01*
X18504366Y-49709990D01*
X18490081Y-49652847D01*
X18490081Y-49581419D01*
X18504366Y-49524276D01*
X18518652Y-49495704D01*
X18532938Y-49481419D01*
X18561509Y-49467133D01*
X18932938Y-49467133D02*
X18790081Y-49467133D01*
X18775795Y-49609990D01*
X18790081Y-49595704D01*
X18818652Y-49581419D01*
X18890081Y-49581419D01*
X18918652Y-49595704D01*
X18932938Y-49609990D01*
X18947223Y-49638561D01*
X18947223Y-49709990D01*
X18932938Y-49738561D01*
X18918652Y-49752847D01*
X18890081Y-49767133D01*
X18818652Y-49767133D01*
X18790081Y-49752847D01*
X18775795Y-49738561D01*
X19090081Y-49767133D02*
X19147223Y-49767133D01*
X19175795Y-49752847D01*
X19190081Y-49738561D01*
X19218652Y-49695704D01*
X19232938Y-49638561D01*
X19232938Y-49524276D01*
X19218652Y-49495704D01*
X19204366Y-49481419D01*
X19175795Y-49467133D01*
X19118652Y-49467133D01*
X19090081Y-49481419D01*
X19075795Y-49495704D01*
X19061509Y-49524276D01*
X19061509Y-49595704D01*
X19075795Y-49624276D01*
X19090081Y-49638561D01*
X19118652Y-49652847D01*
X19175795Y-49652847D01*
X19204366Y-49638561D01*
X19218652Y-49624276D01*
X19232938Y-49595704D01*
X19347223Y-49467133D02*
X19347223Y-49524276D01*
X19461509Y-49467133D02*
X19461509Y-49524276D01*
X19904366Y-49881419D02*
X19890081Y-49867133D01*
X19861509Y-49824276D01*
X19847223Y-49795704D01*
X19832938Y-49752847D01*
X19818652Y-49681419D01*
X19818652Y-49624276D01*
X19832938Y-49552847D01*
X19847223Y-49509990D01*
X19861509Y-49481419D01*
X19890081Y-49438561D01*
X19904366Y-49424276D01*
X20004366Y-49495704D02*
X20018652Y-49481419D01*
X20047223Y-49467133D01*
X20118652Y-49467133D01*
X20147223Y-49481419D01*
X20161509Y-49495704D01*
X20175795Y-49524276D01*
X20175795Y-49552847D01*
X20161509Y-49595704D01*
X19990081Y-49767133D01*
X20175795Y-49767133D01*
X20532938Y-49767133D02*
X20532938Y-49467133D01*
X20661509Y-49767133D02*
X20661509Y-49609990D01*
X20647223Y-49581419D01*
X20618652Y-49567133D01*
X20575795Y-49567133D01*
X20547223Y-49581419D01*
X20532938Y-49595704D01*
X20847223Y-49767133D02*
X20818652Y-49752847D01*
X20804366Y-49738561D01*
X20790081Y-49709990D01*
X20790081Y-49624276D01*
X20804366Y-49595704D01*
X20818652Y-49581419D01*
X20847223Y-49567133D01*
X20890081Y-49567133D01*
X20918652Y-49581419D01*
X20932938Y-49595704D01*
X20947223Y-49624276D01*
X20947223Y-49709990D01*
X20932938Y-49738561D01*
X20918652Y-49752847D01*
X20890081Y-49767133D01*
X20847223Y-49767133D01*
X21118652Y-49767133D02*
X21090081Y-49752847D01*
X21075795Y-49724276D01*
X21075795Y-49467133D01*
X21347223Y-49752847D02*
X21318652Y-49767133D01*
X21261509Y-49767133D01*
X21232938Y-49752847D01*
X21218652Y-49724276D01*
X21218652Y-49609990D01*
X21232938Y-49581419D01*
X21261509Y-49567133D01*
X21318652Y-49567133D01*
X21347223Y-49581419D01*
X21361509Y-49609990D01*
X21361509Y-49638561D01*
X21218652Y-49667133D01*
X21475795Y-49752847D02*
X21504366Y-49767133D01*
X21561509Y-49767133D01*
X21590081Y-49752847D01*
X21604366Y-49724276D01*
X21604366Y-49709990D01*
X21590081Y-49681419D01*
X21561509Y-49667133D01*
X21518652Y-49667133D01*
X21490081Y-49652847D01*
X21475795Y-49624276D01*
X21475795Y-49609990D01*
X21490081Y-49581419D01*
X21518652Y-49567133D01*
X21561509Y-49567133D01*
X21590081Y-49581419D01*
X21704366Y-49881419D02*
X21718652Y-49867133D01*
X21747223Y-49824276D01*
X21761509Y-49795704D01*
X21775795Y-49752847D01*
X21790081Y-49681419D01*
X21790081Y-49624276D01*
X21775795Y-49552847D01*
X21761509Y-49509990D01*
X21747223Y-49481419D01*
X21718652Y-49438561D01*
X21704366Y-49424276D01*
X15137938Y-50107419D02*
X15217938Y-50027419D01*
X15137938Y-49947419D01*
X15057938Y-50027419D01*
X15137938Y-50107419D01*
X15661509Y-50163133D02*
X15490080Y-50163133D01*
X15575795Y-50163133D02*
X15575795Y-49863133D01*
X15547223Y-49905990D01*
X15518652Y-49934561D01*
X15490080Y-49948847D01*
X15790080Y-50134561D02*
X15804366Y-50148847D01*
X15790080Y-50163133D01*
X15775795Y-50148847D01*
X15790080Y-50134561D01*
X15790080Y-50163133D01*
X16061509Y-49863133D02*
X16004366Y-49863133D01*
X15975795Y-49877419D01*
X15961509Y-49891704D01*
X15932938Y-49934561D01*
X15918652Y-49991704D01*
X15918652Y-50105990D01*
X15932938Y-50134561D01*
X15947223Y-50148847D01*
X15975795Y-50163133D01*
X16032938Y-50163133D01*
X16061509Y-50148847D01*
X16075795Y-50134561D01*
X16090080Y-50105990D01*
X16090080Y-50034561D01*
X16075795Y-50005990D01*
X16061509Y-49991704D01*
X16032938Y-49977419D01*
X15975795Y-49977419D01*
X15947223Y-49991704D01*
X15932938Y-50005990D01*
X15918652Y-50034561D01*
X16275795Y-49863133D02*
X16304366Y-49863133D01*
X16332938Y-49877419D01*
X16347223Y-49891704D01*
X16361509Y-49920276D01*
X16375795Y-49977419D01*
X16375795Y-50048847D01*
X16361509Y-50105990D01*
X16347223Y-50134561D01*
X16332938Y-50148847D01*
X16304366Y-50163133D01*
X16275795Y-50163133D01*
X16247223Y-50148847D01*
X16232938Y-50134561D01*
X16218652Y-50105990D01*
X16204366Y-50048847D01*
X16204366Y-49977419D01*
X16218652Y-49920276D01*
X16232938Y-49891704D01*
X16247223Y-49877419D01*
X16275795Y-49863133D01*
X16504366Y-50163133D02*
X16504366Y-49963133D01*
X16504366Y-49991704D02*
X16518652Y-49977419D01*
X16547223Y-49963133D01*
X16590080Y-49963133D01*
X16618652Y-49977419D01*
X16632938Y-50005990D01*
X16632938Y-50163133D01*
X16632938Y-50005990D02*
X16647223Y-49977419D01*
X16675795Y-49963133D01*
X16718652Y-49963133D01*
X16747223Y-49977419D01*
X16761509Y-50005990D01*
X16761509Y-50163133D01*
X16904366Y-50163133D02*
X16904366Y-49963133D01*
X16904366Y-49991704D02*
X16918652Y-49977419D01*
X16947223Y-49963133D01*
X16990081Y-49963133D01*
X17018652Y-49977419D01*
X17032938Y-50005990D01*
X17032938Y-50163133D01*
X17032938Y-50005990D02*
X17047223Y-49977419D01*
X17075795Y-49963133D01*
X17118652Y-49963133D01*
X17147223Y-49977419D01*
X17161509Y-50005990D01*
X17161509Y-50163133D01*
X17747223Y-49848847D02*
X17490081Y-50234561D01*
X18132938Y-49863133D02*
X18161509Y-49863133D01*
X18190081Y-49877419D01*
X18204366Y-49891704D01*
X18218652Y-49920276D01*
X18232938Y-49977419D01*
X18232938Y-50048847D01*
X18218652Y-50105990D01*
X18204366Y-50134561D01*
X18190081Y-50148847D01*
X18161509Y-50163133D01*
X18132938Y-50163133D01*
X18104366Y-50148847D01*
X18090081Y-50134561D01*
X18075795Y-50105990D01*
X18061509Y-50048847D01*
X18061509Y-49977419D01*
X18075795Y-49920276D01*
X18090081Y-49891704D01*
X18104366Y-49877419D01*
X18132938Y-49863133D01*
X18361509Y-50134561D02*
X18375795Y-50148847D01*
X18361509Y-50163133D01*
X18347223Y-50148847D01*
X18361509Y-50134561D01*
X18361509Y-50163133D01*
X18561509Y-49863133D02*
X18590081Y-49863133D01*
X18618652Y-49877419D01*
X18632938Y-49891704D01*
X18647223Y-49920276D01*
X18661509Y-49977419D01*
X18661509Y-50048847D01*
X18647223Y-50105990D01*
X18632938Y-50134561D01*
X18618652Y-50148847D01*
X18590081Y-50163133D01*
X18561509Y-50163133D01*
X18532938Y-50148847D01*
X18518652Y-50134561D01*
X18504366Y-50105990D01*
X18490081Y-50048847D01*
X18490081Y-49977419D01*
X18504366Y-49920276D01*
X18518652Y-49891704D01*
X18532938Y-49877419D01*
X18561509Y-49863133D01*
X18918652Y-49863133D02*
X18861509Y-49863133D01*
X18832938Y-49877419D01*
X18818652Y-49891704D01*
X18790081Y-49934561D01*
X18775795Y-49991704D01*
X18775795Y-50105990D01*
X18790081Y-50134561D01*
X18804366Y-50148847D01*
X18832938Y-50163133D01*
X18890081Y-50163133D01*
X18918652Y-50148847D01*
X18932938Y-50134561D01*
X18947223Y-50105990D01*
X18947223Y-50034561D01*
X18932938Y-50005990D01*
X18918652Y-49991704D01*
X18890081Y-49977419D01*
X18832938Y-49977419D01*
X18804366Y-49991704D01*
X18790081Y-50005990D01*
X18775795Y-50034561D01*
X19047223Y-49863133D02*
X19232938Y-49863133D01*
X19132938Y-49977419D01*
X19175795Y-49977419D01*
X19204366Y-49991704D01*
X19218652Y-50005990D01*
X19232938Y-50034561D01*
X19232938Y-50105990D01*
X19218652Y-50134561D01*
X19204366Y-50148847D01*
X19175795Y-50163133D01*
X19090081Y-50163133D01*
X19061509Y-50148847D01*
X19047223Y-50134561D01*
X19347223Y-49863133D02*
X19347223Y-49920276D01*
X19461509Y-49863133D02*
X19461509Y-49920276D01*
X19904366Y-50277419D02*
X19890081Y-50263133D01*
X19861509Y-50220276D01*
X19847223Y-50191704D01*
X19832938Y-50148847D01*
X19818652Y-50077419D01*
X19818652Y-50020276D01*
X19832938Y-49948847D01*
X19847223Y-49905990D01*
X19861509Y-49877419D01*
X19890081Y-49834561D01*
X19904366Y-49820276D01*
X20004366Y-49891704D02*
X20018652Y-49877419D01*
X20047223Y-49863133D01*
X20118652Y-49863133D01*
X20147223Y-49877419D01*
X20161509Y-49891704D01*
X20175795Y-49920276D01*
X20175795Y-49948847D01*
X20161509Y-49991704D01*
X19990081Y-50163133D01*
X20175795Y-50163133D01*
X20532938Y-50163133D02*
X20532938Y-49863133D01*
X20661509Y-50163133D02*
X20661509Y-50005990D01*
X20647223Y-49977419D01*
X20618652Y-49963133D01*
X20575795Y-49963133D01*
X20547223Y-49977419D01*
X20532938Y-49991704D01*
X20847223Y-50163133D02*
X20818652Y-50148847D01*
X20804366Y-50134561D01*
X20790081Y-50105990D01*
X20790081Y-50020276D01*
X20804366Y-49991704D01*
X20818652Y-49977419D01*
X20847223Y-49963133D01*
X20890081Y-49963133D01*
X20918652Y-49977419D01*
X20932938Y-49991704D01*
X20947223Y-50020276D01*
X20947223Y-50105990D01*
X20932938Y-50134561D01*
X20918652Y-50148847D01*
X20890081Y-50163133D01*
X20847223Y-50163133D01*
X21118652Y-50163133D02*
X21090081Y-50148847D01*
X21075795Y-50120276D01*
X21075795Y-49863133D01*
X21347223Y-50148847D02*
X21318652Y-50163133D01*
X21261509Y-50163133D01*
X21232938Y-50148847D01*
X21218652Y-50120276D01*
X21218652Y-50005990D01*
X21232938Y-49977419D01*
X21261509Y-49963133D01*
X21318652Y-49963133D01*
X21347223Y-49977419D01*
X21361509Y-50005990D01*
X21361509Y-50034561D01*
X21218652Y-50063133D01*
X21475795Y-50148847D02*
X21504366Y-50163133D01*
X21561509Y-50163133D01*
X21590081Y-50148847D01*
X21604366Y-50120276D01*
X21604366Y-50105990D01*
X21590081Y-50077419D01*
X21561509Y-50063133D01*
X21518652Y-50063133D01*
X21490081Y-50048847D01*
X21475795Y-50020276D01*
X21475795Y-50005990D01*
X21490081Y-49977419D01*
X21518652Y-49963133D01*
X21561509Y-49963133D01*
X21590081Y-49977419D01*
X21704366Y-50277419D02*
X21718652Y-50263133D01*
X21747223Y-50220276D01*
X21761509Y-50191704D01*
X21775795Y-50148847D01*
X21790081Y-50077419D01*
X21790081Y-50020276D01*
X21775795Y-49948847D01*
X21761509Y-49905990D01*
X21747223Y-49877419D01*
X21718652Y-49834561D01*
X21704366Y-49820276D01*
X15017938Y-50323419D02*
X15217938Y-50523419D01*
X15217938Y-50323419D02*
X15017938Y-50523419D01*
X15217938Y-50423419D02*
G75*
G03X15217938Y-50423419I-100000J0D01*
G01*
X15490080Y-50287704D02*
X15504366Y-50273419D01*
X15532938Y-50259133D01*
X15604366Y-50259133D01*
X15632938Y-50273419D01*
X15647223Y-50287704D01*
X15661509Y-50316276D01*
X15661509Y-50344847D01*
X15647223Y-50387704D01*
X15475795Y-50559133D01*
X15661509Y-50559133D01*
X15790080Y-50530561D02*
X15804366Y-50544847D01*
X15790080Y-50559133D01*
X15775795Y-50544847D01*
X15790080Y-50530561D01*
X15790080Y-50559133D01*
X15990080Y-50259133D02*
X16018652Y-50259133D01*
X16047223Y-50273419D01*
X16061509Y-50287704D01*
X16075795Y-50316276D01*
X16090080Y-50373419D01*
X16090080Y-50444847D01*
X16075795Y-50501990D01*
X16061509Y-50530561D01*
X16047223Y-50544847D01*
X16018652Y-50559133D01*
X15990080Y-50559133D01*
X15961509Y-50544847D01*
X15947223Y-50530561D01*
X15932938Y-50501990D01*
X15918652Y-50444847D01*
X15918652Y-50373419D01*
X15932938Y-50316276D01*
X15947223Y-50287704D01*
X15961509Y-50273419D01*
X15990080Y-50259133D01*
X16275795Y-50259133D02*
X16304366Y-50259133D01*
X16332938Y-50273419D01*
X16347223Y-50287704D01*
X16361509Y-50316276D01*
X16375795Y-50373419D01*
X16375795Y-50444847D01*
X16361509Y-50501990D01*
X16347223Y-50530561D01*
X16332938Y-50544847D01*
X16304366Y-50559133D01*
X16275795Y-50559133D01*
X16247223Y-50544847D01*
X16232938Y-50530561D01*
X16218652Y-50501990D01*
X16204366Y-50444847D01*
X16204366Y-50373419D01*
X16218652Y-50316276D01*
X16232938Y-50287704D01*
X16247223Y-50273419D01*
X16275795Y-50259133D01*
X16504366Y-50559133D02*
X16504366Y-50359133D01*
X16504366Y-50387704D02*
X16518652Y-50373419D01*
X16547223Y-50359133D01*
X16590080Y-50359133D01*
X16618652Y-50373419D01*
X16632938Y-50401990D01*
X16632938Y-50559133D01*
X16632938Y-50401990D02*
X16647223Y-50373419D01*
X16675795Y-50359133D01*
X16718652Y-50359133D01*
X16747223Y-50373419D01*
X16761509Y-50401990D01*
X16761509Y-50559133D01*
X16904366Y-50559133D02*
X16904366Y-50359133D01*
X16904366Y-50387704D02*
X16918652Y-50373419D01*
X16947223Y-50359133D01*
X16990081Y-50359133D01*
X17018652Y-50373419D01*
X17032938Y-50401990D01*
X17032938Y-50559133D01*
X17032938Y-50401990D02*
X17047223Y-50373419D01*
X17075795Y-50359133D01*
X17118652Y-50359133D01*
X17147223Y-50373419D01*
X17161509Y-50401990D01*
X17161509Y-50559133D01*
X17747223Y-50244847D02*
X17490081Y-50630561D01*
X18132938Y-50259133D02*
X18161509Y-50259133D01*
X18190081Y-50273419D01*
X18204366Y-50287704D01*
X18218652Y-50316276D01*
X18232938Y-50373419D01*
X18232938Y-50444847D01*
X18218652Y-50501990D01*
X18204366Y-50530561D01*
X18190081Y-50544847D01*
X18161509Y-50559133D01*
X18132938Y-50559133D01*
X18104366Y-50544847D01*
X18090081Y-50530561D01*
X18075795Y-50501990D01*
X18061509Y-50444847D01*
X18061509Y-50373419D01*
X18075795Y-50316276D01*
X18090081Y-50287704D01*
X18104366Y-50273419D01*
X18132938Y-50259133D01*
X18361509Y-50530561D02*
X18375795Y-50544847D01*
X18361509Y-50559133D01*
X18347223Y-50544847D01*
X18361509Y-50530561D01*
X18361509Y-50559133D01*
X18561509Y-50259133D02*
X18590081Y-50259133D01*
X18618652Y-50273419D01*
X18632938Y-50287704D01*
X18647223Y-50316276D01*
X18661509Y-50373419D01*
X18661509Y-50444847D01*
X18647223Y-50501990D01*
X18632938Y-50530561D01*
X18618652Y-50544847D01*
X18590081Y-50559133D01*
X18561509Y-50559133D01*
X18532938Y-50544847D01*
X18518652Y-50530561D01*
X18504366Y-50501990D01*
X18490081Y-50444847D01*
X18490081Y-50373419D01*
X18504366Y-50316276D01*
X18518652Y-50287704D01*
X18532938Y-50273419D01*
X18561509Y-50259133D01*
X18761509Y-50259133D02*
X18961509Y-50259133D01*
X18832938Y-50559133D01*
X19090081Y-50559133D02*
X19147223Y-50559133D01*
X19175795Y-50544847D01*
X19190081Y-50530561D01*
X19218652Y-50487704D01*
X19232938Y-50430561D01*
X19232938Y-50316276D01*
X19218652Y-50287704D01*
X19204366Y-50273419D01*
X19175795Y-50259133D01*
X19118652Y-50259133D01*
X19090081Y-50273419D01*
X19075795Y-50287704D01*
X19061509Y-50316276D01*
X19061509Y-50387704D01*
X19075795Y-50416276D01*
X19090081Y-50430561D01*
X19118652Y-50444847D01*
X19175795Y-50444847D01*
X19204366Y-50430561D01*
X19218652Y-50416276D01*
X19232938Y-50387704D01*
X19347223Y-50259133D02*
X19347223Y-50316276D01*
X19461509Y-50259133D02*
X19461509Y-50316276D01*
X19904366Y-50673419D02*
X19890081Y-50659133D01*
X19861509Y-50616276D01*
X19847223Y-50587704D01*
X19832938Y-50544847D01*
X19818652Y-50473419D01*
X19818652Y-50416276D01*
X19832938Y-50344847D01*
X19847223Y-50301990D01*
X19861509Y-50273419D01*
X19890081Y-50230561D01*
X19904366Y-50216276D01*
X20175795Y-50559133D02*
X20004366Y-50559133D01*
X20090081Y-50559133D02*
X20090081Y-50259133D01*
X20061509Y-50301990D01*
X20032938Y-50330561D01*
X20004366Y-50344847D01*
X20532938Y-50559133D02*
X20532938Y-50259133D01*
X20661509Y-50559133D02*
X20661509Y-50401990D01*
X20647223Y-50373419D01*
X20618652Y-50359133D01*
X20575795Y-50359133D01*
X20547223Y-50373419D01*
X20532938Y-50387704D01*
X20847223Y-50559133D02*
X20818652Y-50544847D01*
X20804366Y-50530561D01*
X20790081Y-50501990D01*
X20790081Y-50416276D01*
X20804366Y-50387704D01*
X20818652Y-50373419D01*
X20847223Y-50359133D01*
X20890081Y-50359133D01*
X20918652Y-50373419D01*
X20932938Y-50387704D01*
X20947223Y-50416276D01*
X20947223Y-50501990D01*
X20932938Y-50530561D01*
X20918652Y-50544847D01*
X20890081Y-50559133D01*
X20847223Y-50559133D01*
X21118652Y-50559133D02*
X21090081Y-50544847D01*
X21075795Y-50516276D01*
X21075795Y-50259133D01*
X21347223Y-50544847D02*
X21318652Y-50559133D01*
X21261509Y-50559133D01*
X21232938Y-50544847D01*
X21218652Y-50516276D01*
X21218652Y-50401990D01*
X21232938Y-50373419D01*
X21261509Y-50359133D01*
X21318652Y-50359133D01*
X21347223Y-50373419D01*
X21361509Y-50401990D01*
X21361509Y-50430561D01*
X21218652Y-50459133D01*
X21461509Y-50673419D02*
X21475795Y-50659133D01*
X21504366Y-50616276D01*
X21518652Y-50587704D01*
X21532938Y-50544847D01*
X21547223Y-50473419D01*
X21547223Y-50416276D01*
X21532938Y-50344847D01*
X21518652Y-50301990D01*
X21504366Y-50273419D01*
X21475795Y-50230561D01*
X21461509Y-50216276D01*
M02*
