G04 #@! TF.GenerationSoftware,KiCad,Pcbnew,(5.1.4)-1*
G04 #@! TF.CreationDate,2023-01-28T07:42:01-05:00*
G04 #@! TF.ProjectId,ThumbsUp,5468756d-6273-4557-902e-6b696361645f,rev?*
G04 #@! TF.SameCoordinates,Original*
G04 #@! TF.FileFunction,Soldermask,Top*
G04 #@! TF.FilePolarity,Negative*
%FSLAX46Y46*%
G04 Gerber Fmt 4.6, Leading zero omitted, Abs format (unit mm)*
G04 Created by KiCad (PCBNEW (5.1.4)-1) date 2023-01-28 07:42:01*
%MOMM*%
%LPD*%
G04 APERTURE LIST*
%ADD10C,0.100000*%
G04 APERTURE END LIST*
D10*
G36*
X166955165Y-473619626D02*
G01*
X165214567Y-474086018D01*
X164748175Y-472345420D01*
X166488773Y-471879028D01*
X166955165Y-473619626D01*
X166955165Y-473619626D01*
G37*
G36*
X168415564Y-471430641D02*
G01*
X168481749Y-471437160D01*
X168651588Y-471488680D01*
X168808113Y-471572345D01*
X168843851Y-471601675D01*
X168945308Y-471684937D01*
X169028570Y-471786394D01*
X169057900Y-471822132D01*
X169141565Y-471978657D01*
X169193085Y-472148496D01*
X169210481Y-472325123D01*
X169193085Y-472501750D01*
X169141565Y-472671589D01*
X169057900Y-472828114D01*
X169028570Y-472863852D01*
X168945308Y-472965309D01*
X168843851Y-473048571D01*
X168808113Y-473077901D01*
X168651588Y-473161566D01*
X168481749Y-473213086D01*
X168415565Y-473219604D01*
X168349382Y-473226123D01*
X168260862Y-473226123D01*
X168194679Y-473219604D01*
X168128495Y-473213086D01*
X167958656Y-473161566D01*
X167802131Y-473077901D01*
X167766393Y-473048571D01*
X167664936Y-472965309D01*
X167581674Y-472863852D01*
X167552344Y-472828114D01*
X167468679Y-472671589D01*
X167417159Y-472501750D01*
X167399763Y-472325123D01*
X167417159Y-472148496D01*
X167468679Y-471978657D01*
X167552344Y-471822132D01*
X167581674Y-471786394D01*
X167664936Y-471684937D01*
X167766393Y-471601675D01*
X167802131Y-471572345D01*
X167958656Y-471488680D01*
X168128495Y-471437160D01*
X168194680Y-471430641D01*
X168260862Y-471424123D01*
X168349382Y-471424123D01*
X168415564Y-471430641D01*
X168415564Y-471430641D01*
G37*
G36*
X156501573Y-470920497D02*
G01*
X156567757Y-470927015D01*
X156737596Y-470978535D01*
X156894121Y-471062200D01*
X156929859Y-471091530D01*
X157031316Y-471174792D01*
X157114578Y-471276249D01*
X157143908Y-471311987D01*
X157227573Y-471468512D01*
X157279093Y-471638351D01*
X157296489Y-471814978D01*
X157279093Y-471991605D01*
X157227573Y-472161444D01*
X157143908Y-472317969D01*
X157121379Y-472345420D01*
X157031316Y-472455164D01*
X156929859Y-472538426D01*
X156894121Y-472567756D01*
X156737596Y-472651421D01*
X156567757Y-472702941D01*
X156501572Y-472709460D01*
X156435390Y-472715978D01*
X156346870Y-472715978D01*
X156280688Y-472709460D01*
X156214503Y-472702941D01*
X156044664Y-472651421D01*
X155888139Y-472567756D01*
X155852401Y-472538426D01*
X155750944Y-472455164D01*
X155660881Y-472345420D01*
X155638352Y-472317969D01*
X155554687Y-472161444D01*
X155503167Y-471991605D01*
X155485771Y-471814978D01*
X155503167Y-471638351D01*
X155554687Y-471468512D01*
X155638352Y-471311987D01*
X155667682Y-471276249D01*
X155750944Y-471174792D01*
X155852401Y-471091530D01*
X155888139Y-471062200D01*
X156044664Y-470978535D01*
X156214503Y-470927015D01*
X156280687Y-470920497D01*
X156346870Y-470913978D01*
X156435390Y-470913978D01*
X156501573Y-470920497D01*
X156501573Y-470920497D01*
G37*
G36*
X170869016Y-470773241D02*
G01*
X170935200Y-470779759D01*
X171105039Y-470831279D01*
X171261564Y-470914944D01*
X171276272Y-470927015D01*
X171398759Y-471027536D01*
X171482021Y-471128993D01*
X171511351Y-471164731D01*
X171595016Y-471321256D01*
X171646536Y-471491095D01*
X171663932Y-471667722D01*
X171646536Y-471844349D01*
X171595016Y-472014188D01*
X171511351Y-472170713D01*
X171482021Y-472206451D01*
X171398759Y-472307908D01*
X171297302Y-472391170D01*
X171261564Y-472420500D01*
X171105039Y-472504165D01*
X170935200Y-472555685D01*
X170869016Y-472562203D01*
X170802833Y-472568722D01*
X170714313Y-472568722D01*
X170648130Y-472562203D01*
X170581946Y-472555685D01*
X170412107Y-472504165D01*
X170255582Y-472420500D01*
X170219844Y-472391170D01*
X170118387Y-472307908D01*
X170035125Y-472206451D01*
X170005795Y-472170713D01*
X169922130Y-472014188D01*
X169870610Y-471844349D01*
X169853214Y-471667722D01*
X169870610Y-471491095D01*
X169922130Y-471321256D01*
X170005795Y-471164731D01*
X170035125Y-471128993D01*
X170118387Y-471027536D01*
X170240874Y-470927015D01*
X170255582Y-470914944D01*
X170412107Y-470831279D01*
X170581946Y-470779759D01*
X170648130Y-470773241D01*
X170714313Y-470766722D01*
X170802833Y-470766722D01*
X170869016Y-470773241D01*
X170869016Y-470773241D01*
G37*
G36*
X173322468Y-470115841D02*
G01*
X173388652Y-470122359D01*
X173558491Y-470173879D01*
X173715016Y-470257544D01*
X173750754Y-470286874D01*
X173852211Y-470370136D01*
X173935473Y-470471593D01*
X173964803Y-470507331D01*
X174048468Y-470663856D01*
X174099988Y-470833695D01*
X174117384Y-471010322D01*
X174099988Y-471186949D01*
X174048468Y-471356788D01*
X173964803Y-471513313D01*
X173935473Y-471549051D01*
X173852211Y-471650508D01*
X173750754Y-471733770D01*
X173715016Y-471763100D01*
X173558491Y-471846765D01*
X173388652Y-471898285D01*
X173322468Y-471904803D01*
X173256285Y-471911322D01*
X173167765Y-471911322D01*
X173101582Y-471904803D01*
X173035398Y-471898285D01*
X172865559Y-471846765D01*
X172709034Y-471763100D01*
X172673296Y-471733770D01*
X172571839Y-471650508D01*
X172488577Y-471549051D01*
X172459247Y-471513313D01*
X172375582Y-471356788D01*
X172324062Y-471186949D01*
X172306666Y-471010322D01*
X172324062Y-470833695D01*
X172375582Y-470663856D01*
X172459247Y-470507331D01*
X172488577Y-470471593D01*
X172571839Y-470370136D01*
X172673296Y-470286874D01*
X172709034Y-470257544D01*
X172865559Y-470173879D01*
X173035398Y-470122359D01*
X173101582Y-470115841D01*
X173167765Y-470109322D01*
X173256285Y-470109322D01*
X173322468Y-470115841D01*
X173322468Y-470115841D01*
G37*
G36*
X155826562Y-468465310D02*
G01*
X155910357Y-468473563D01*
X156080196Y-468525083D01*
X156236721Y-468608748D01*
X156272459Y-468638078D01*
X156373916Y-468721340D01*
X156457178Y-468822797D01*
X156486508Y-468858535D01*
X156570173Y-469015060D01*
X156621693Y-469184899D01*
X156639089Y-469361526D01*
X156621693Y-469538153D01*
X156570173Y-469707992D01*
X156486508Y-469864517D01*
X156457178Y-469900255D01*
X156373916Y-470001712D01*
X156272459Y-470084974D01*
X156236721Y-470114304D01*
X156080196Y-470197969D01*
X155910357Y-470249489D01*
X155844173Y-470256007D01*
X155777990Y-470262526D01*
X155689470Y-470262526D01*
X155623287Y-470256007D01*
X155557103Y-470249489D01*
X155387264Y-470197969D01*
X155230739Y-470114304D01*
X155195001Y-470084974D01*
X155093544Y-470001712D01*
X155010282Y-469900255D01*
X154980952Y-469864517D01*
X154897287Y-469707992D01*
X154845767Y-469538153D01*
X154828371Y-469361526D01*
X154845767Y-469184899D01*
X154897287Y-469015060D01*
X154980952Y-468858535D01*
X155010282Y-468822797D01*
X155093544Y-468721340D01*
X155195001Y-468638078D01*
X155230739Y-468608748D01*
X155387264Y-468525083D01*
X155557103Y-468473563D01*
X155640898Y-468465310D01*
X155689470Y-468460526D01*
X155777990Y-468460526D01*
X155826562Y-468465310D01*
X155826562Y-468465310D01*
G37*
G36*
X182662112Y-467588043D02*
G01*
X182728296Y-467594561D01*
X182898135Y-467646081D01*
X183054660Y-467729746D01*
X183090398Y-467759076D01*
X183191855Y-467842338D01*
X183275117Y-467943795D01*
X183304447Y-467979533D01*
X183388112Y-468136058D01*
X183439632Y-468305897D01*
X183457028Y-468482524D01*
X183439632Y-468659151D01*
X183388112Y-468828990D01*
X183304447Y-468985515D01*
X183280200Y-469015060D01*
X183191855Y-469122710D01*
X183090398Y-469205972D01*
X183054660Y-469235302D01*
X182898135Y-469318967D01*
X182728296Y-469370487D01*
X182662112Y-469377005D01*
X182595929Y-469383524D01*
X182507409Y-469383524D01*
X182441226Y-469377005D01*
X182375042Y-469370487D01*
X182205203Y-469318967D01*
X182048678Y-469235302D01*
X182012940Y-469205972D01*
X181911483Y-469122710D01*
X181823138Y-469015060D01*
X181798891Y-468985515D01*
X181715226Y-468828990D01*
X181663706Y-468659151D01*
X181646310Y-468482524D01*
X181663706Y-468305897D01*
X181715226Y-468136058D01*
X181798891Y-467979533D01*
X181828221Y-467943795D01*
X181911483Y-467842338D01*
X182012940Y-467759076D01*
X182048678Y-467729746D01*
X182205203Y-467646081D01*
X182375042Y-467594561D01*
X182441226Y-467588043D01*
X182507409Y-467581524D01*
X182595929Y-467581524D01*
X182662112Y-467588043D01*
X182662112Y-467588043D01*
G37*
G36*
X185115564Y-466930643D02*
G01*
X185181748Y-466937161D01*
X185351587Y-466988681D01*
X185508112Y-467072346D01*
X185543850Y-467101676D01*
X185645307Y-467184938D01*
X185728569Y-467286395D01*
X185757899Y-467322133D01*
X185841564Y-467478658D01*
X185893084Y-467648497D01*
X185910480Y-467825124D01*
X185893084Y-468001751D01*
X185841564Y-468171590D01*
X185757899Y-468328115D01*
X185728569Y-468363853D01*
X185645307Y-468465310D01*
X185543850Y-468548572D01*
X185508112Y-468577902D01*
X185351587Y-468661567D01*
X185181748Y-468713087D01*
X185115564Y-468719605D01*
X185049381Y-468726124D01*
X184960861Y-468726124D01*
X184894678Y-468719605D01*
X184828494Y-468713087D01*
X184658655Y-468661567D01*
X184502130Y-468577902D01*
X184466392Y-468548572D01*
X184364935Y-468465310D01*
X184281673Y-468363853D01*
X184252343Y-468328115D01*
X184168678Y-468171590D01*
X184117158Y-468001751D01*
X184099762Y-467825124D01*
X184117158Y-467648497D01*
X184168678Y-467478658D01*
X184252343Y-467322133D01*
X184281673Y-467286395D01*
X184364935Y-467184938D01*
X184466392Y-467101676D01*
X184502130Y-467072346D01*
X184658655Y-466988681D01*
X184828494Y-466937161D01*
X184894678Y-466930643D01*
X184960861Y-466924124D01*
X185049381Y-466924124D01*
X185115564Y-466930643D01*
X185115564Y-466930643D01*
G37*
G36*
X187569014Y-466273241D02*
G01*
X187635199Y-466279760D01*
X187805038Y-466331280D01*
X187961563Y-466414945D01*
X187997301Y-466444275D01*
X188098758Y-466527537D01*
X188182020Y-466628994D01*
X188211350Y-466664732D01*
X188295015Y-466821257D01*
X188346535Y-466991096D01*
X188363931Y-467167723D01*
X188346535Y-467344350D01*
X188295015Y-467514189D01*
X188211350Y-467670714D01*
X188182020Y-467706452D01*
X188098758Y-467807909D01*
X187997301Y-467891171D01*
X187961563Y-467920501D01*
X187805038Y-468004166D01*
X187635199Y-468055686D01*
X187569014Y-468062205D01*
X187502832Y-468068723D01*
X187414312Y-468068723D01*
X187348130Y-468062205D01*
X187281945Y-468055686D01*
X187112106Y-468004166D01*
X186955581Y-467920501D01*
X186919843Y-467891171D01*
X186818386Y-467807909D01*
X186735124Y-467706452D01*
X186705794Y-467670714D01*
X186622129Y-467514189D01*
X186570609Y-467344350D01*
X186553213Y-467167723D01*
X186570609Y-466991096D01*
X186622129Y-466821257D01*
X186705794Y-466664732D01*
X186735124Y-466628994D01*
X186818386Y-466527537D01*
X186919843Y-466444275D01*
X186955581Y-466414945D01*
X187112106Y-466331280D01*
X187281945Y-466279760D01*
X187348130Y-466273241D01*
X187414312Y-466266723D01*
X187502832Y-466266723D01*
X187569014Y-466273241D01*
X187569014Y-466273241D01*
G37*
G36*
X155186772Y-466013594D02*
G01*
X155252956Y-466020112D01*
X155422795Y-466071632D01*
X155579320Y-466155297D01*
X155615058Y-466184627D01*
X155716515Y-466267889D01*
X155799777Y-466369346D01*
X155829107Y-466405084D01*
X155912772Y-466561609D01*
X155964292Y-466731448D01*
X155981688Y-466908075D01*
X155964292Y-467084702D01*
X155912772Y-467254541D01*
X155829107Y-467411066D01*
X155799777Y-467446804D01*
X155716515Y-467548261D01*
X155636632Y-467613818D01*
X155579320Y-467660853D01*
X155422795Y-467744518D01*
X155252956Y-467796038D01*
X155186772Y-467802556D01*
X155120589Y-467809075D01*
X155032069Y-467809075D01*
X154965886Y-467802556D01*
X154899702Y-467796038D01*
X154729863Y-467744518D01*
X154573338Y-467660853D01*
X154516026Y-467613818D01*
X154436143Y-467548261D01*
X154352881Y-467446804D01*
X154323551Y-467411066D01*
X154239886Y-467254541D01*
X154188366Y-467084702D01*
X154170970Y-466908075D01*
X154188366Y-466731448D01*
X154239886Y-466561609D01*
X154323551Y-466405084D01*
X154352881Y-466369346D01*
X154436143Y-466267889D01*
X154537600Y-466184627D01*
X154573338Y-466155297D01*
X154729863Y-466071632D01*
X154899702Y-466020112D01*
X154965886Y-466013594D01*
X155032069Y-466007075D01*
X155120589Y-466007075D01*
X155186772Y-466013594D01*
X155186772Y-466013594D01*
G37*
G36*
X191015519Y-467147426D02*
G01*
X189274921Y-467613818D01*
X188808529Y-465873220D01*
X190549127Y-465406828D01*
X191015519Y-467147426D01*
X191015519Y-467147426D01*
G37*
G36*
X194809069Y-464273777D02*
G01*
X194875253Y-464280295D01*
X195045092Y-464331815D01*
X195201617Y-464415480D01*
X195237355Y-464444810D01*
X195338812Y-464528072D01*
X195422074Y-464629529D01*
X195451404Y-464665267D01*
X195535069Y-464821792D01*
X195586589Y-464991631D01*
X195603985Y-465168258D01*
X195586589Y-465344885D01*
X195535069Y-465514724D01*
X195451404Y-465671249D01*
X195422074Y-465706987D01*
X195338812Y-465808444D01*
X195259881Y-465873220D01*
X195201617Y-465921036D01*
X195045092Y-466004701D01*
X194875253Y-466056221D01*
X194809068Y-466062740D01*
X194742886Y-466069258D01*
X194654366Y-466069258D01*
X194588184Y-466062740D01*
X194521999Y-466056221D01*
X194352160Y-466004701D01*
X194195635Y-465921036D01*
X194137371Y-465873220D01*
X194058440Y-465808444D01*
X193975178Y-465706987D01*
X193945848Y-465671249D01*
X193862183Y-465514724D01*
X193810663Y-465344885D01*
X193793267Y-465168258D01*
X193810663Y-464991631D01*
X193862183Y-464821792D01*
X193945848Y-464665267D01*
X193975178Y-464629529D01*
X194058440Y-464528072D01*
X194159897Y-464444810D01*
X194195635Y-464415480D01*
X194352160Y-464331815D01*
X194521999Y-464280295D01*
X194588183Y-464273777D01*
X194654366Y-464267258D01*
X194742886Y-464267258D01*
X194809069Y-464273777D01*
X194809069Y-464273777D01*
G37*
G36*
X155522424Y-465091726D02*
G01*
X153781826Y-465558118D01*
X153315434Y-463817520D01*
X155056032Y-463351128D01*
X155522424Y-465091726D01*
X155522424Y-465091726D01*
G37*
G36*
X194151668Y-461820324D02*
G01*
X194217853Y-461826843D01*
X194387692Y-461878363D01*
X194544217Y-461962028D01*
X194579955Y-461991358D01*
X194681412Y-462074620D01*
X194764674Y-462176077D01*
X194794004Y-462211815D01*
X194877669Y-462368340D01*
X194929189Y-462538179D01*
X194946585Y-462714806D01*
X194929189Y-462891433D01*
X194877669Y-463061272D01*
X194794004Y-463217797D01*
X194764674Y-463253535D01*
X194681412Y-463354992D01*
X194579955Y-463438254D01*
X194544217Y-463467584D01*
X194387692Y-463551249D01*
X194217853Y-463602769D01*
X194151669Y-463609287D01*
X194085486Y-463615806D01*
X193996966Y-463615806D01*
X193930783Y-463609287D01*
X193864599Y-463602769D01*
X193694760Y-463551249D01*
X193538235Y-463467584D01*
X193502497Y-463438254D01*
X193401040Y-463354992D01*
X193317778Y-463253535D01*
X193288448Y-463217797D01*
X193204783Y-463061272D01*
X193153263Y-462891433D01*
X193135867Y-462714806D01*
X193153263Y-462538179D01*
X193204783Y-462368340D01*
X193288448Y-462211815D01*
X193317778Y-462176077D01*
X193401040Y-462074620D01*
X193502497Y-461991358D01*
X193538235Y-461962028D01*
X193694760Y-461878363D01*
X193864599Y-461826843D01*
X193930784Y-461820324D01*
X193996966Y-461813806D01*
X194085486Y-461813806D01*
X194151668Y-461820324D01*
X194151668Y-461820324D01*
G37*
G36*
X193494267Y-459366873D02*
G01*
X193560452Y-459373392D01*
X193730291Y-459424912D01*
X193886816Y-459508577D01*
X193922554Y-459537907D01*
X194024011Y-459621169D01*
X194107273Y-459722626D01*
X194136603Y-459758364D01*
X194220268Y-459914889D01*
X194271788Y-460084728D01*
X194289184Y-460261355D01*
X194271788Y-460437982D01*
X194220268Y-460607821D01*
X194136603Y-460764346D01*
X194107273Y-460800084D01*
X194024011Y-460901541D01*
X193922554Y-460984803D01*
X193886816Y-461014133D01*
X193730291Y-461097798D01*
X193560452Y-461149318D01*
X193494268Y-461155836D01*
X193428085Y-461162355D01*
X193339565Y-461162355D01*
X193273382Y-461155836D01*
X193207198Y-461149318D01*
X193037359Y-461097798D01*
X192880834Y-461014133D01*
X192845096Y-460984803D01*
X192743639Y-460901541D01*
X192660377Y-460800084D01*
X192631047Y-460764346D01*
X192547382Y-460607821D01*
X192495862Y-460437982D01*
X192478466Y-460261355D01*
X192495862Y-460084728D01*
X192547382Y-459914889D01*
X192631047Y-459758364D01*
X192660377Y-459722626D01*
X192743639Y-459621169D01*
X192845096Y-459537907D01*
X192880834Y-459508577D01*
X193037359Y-459424912D01*
X193207198Y-459373392D01*
X193273383Y-459366873D01*
X193339565Y-459360355D01*
X193428085Y-459360355D01*
X193494267Y-459366873D01*
X193494267Y-459366873D01*
G37*
G36*
X228522467Y-457835840D02*
G01*
X228588652Y-457842359D01*
X228758491Y-457893879D01*
X228915016Y-457977544D01*
X228950754Y-458006874D01*
X229052211Y-458090136D01*
X229135473Y-458191593D01*
X229164803Y-458227331D01*
X229248468Y-458383856D01*
X229299988Y-458553695D01*
X229317384Y-458730322D01*
X229299988Y-458906949D01*
X229248468Y-459076788D01*
X229164803Y-459233313D01*
X229135473Y-459269051D01*
X229052211Y-459370508D01*
X228985917Y-459424913D01*
X228915016Y-459483100D01*
X228758491Y-459566765D01*
X228588652Y-459618285D01*
X228522467Y-459624804D01*
X228456285Y-459631322D01*
X228367765Y-459631322D01*
X228301583Y-459624804D01*
X228235398Y-459618285D01*
X228065559Y-459566765D01*
X227909034Y-459483100D01*
X227838133Y-459424913D01*
X227771839Y-459370508D01*
X227688577Y-459269051D01*
X227659247Y-459233313D01*
X227575582Y-459076788D01*
X227524062Y-458906949D01*
X227506666Y-458730322D01*
X227524062Y-458553695D01*
X227575582Y-458383856D01*
X227659247Y-458227331D01*
X227688577Y-458191593D01*
X227771839Y-458090136D01*
X227873296Y-458006874D01*
X227909034Y-457977544D01*
X228065559Y-457893879D01*
X228235398Y-457842359D01*
X228301583Y-457835840D01*
X228367765Y-457829322D01*
X228456285Y-457829322D01*
X228522467Y-457835840D01*
X228522467Y-457835840D01*
G37*
G36*
X193829920Y-458445006D02*
G01*
X192089322Y-458911398D01*
X191622930Y-457170800D01*
X193363528Y-456704408D01*
X193829920Y-458445006D01*
X193829920Y-458445006D01*
G37*
G36*
X219714610Y-454839124D02*
G01*
X219864435Y-454868926D01*
X220146699Y-454985843D01*
X220400730Y-455155581D01*
X220616766Y-455371617D01*
X220786504Y-455625648D01*
X220903421Y-455907912D01*
X220963025Y-456207562D01*
X220963025Y-456513082D01*
X220903421Y-456812732D01*
X220786504Y-457094996D01*
X220616766Y-457349027D01*
X220400730Y-457565063D01*
X220146699Y-457734801D01*
X219864435Y-457851718D01*
X219714610Y-457881520D01*
X219564786Y-457911322D01*
X219259264Y-457911322D01*
X219109440Y-457881520D01*
X218959615Y-457851718D01*
X218677351Y-457734801D01*
X218423320Y-457565063D01*
X218207284Y-457349027D01*
X218037546Y-457094996D01*
X217920629Y-456812732D01*
X217861025Y-456513082D01*
X217861025Y-456207562D01*
X217920629Y-455907912D01*
X218037546Y-455625648D01*
X218207284Y-455371617D01*
X218423320Y-455155581D01*
X218677351Y-454985843D01*
X218959615Y-454868926D01*
X219109440Y-454839124D01*
X219259264Y-454809322D01*
X219564786Y-454809322D01*
X219714610Y-454839124D01*
X219714610Y-454839124D01*
G37*
G36*
X228522467Y-455295840D02*
G01*
X228588652Y-455302359D01*
X228758491Y-455353879D01*
X228915016Y-455437544D01*
X228950754Y-455466874D01*
X229052211Y-455550136D01*
X229135473Y-455651593D01*
X229164803Y-455687331D01*
X229248468Y-455843856D01*
X229299988Y-456013695D01*
X229317384Y-456190322D01*
X229299988Y-456366949D01*
X229248468Y-456536788D01*
X229164803Y-456693313D01*
X229135473Y-456729051D01*
X229052211Y-456830508D01*
X228950754Y-456913770D01*
X228915016Y-456943100D01*
X228758491Y-457026765D01*
X228588652Y-457078285D01*
X228522468Y-457084803D01*
X228456285Y-457091322D01*
X228367765Y-457091322D01*
X228301582Y-457084803D01*
X228235398Y-457078285D01*
X228065559Y-457026765D01*
X227909034Y-456943100D01*
X227873296Y-456913770D01*
X227771839Y-456830508D01*
X227688577Y-456729051D01*
X227659247Y-456693313D01*
X227575582Y-456536788D01*
X227524062Y-456366949D01*
X227506666Y-456190322D01*
X227524062Y-456013695D01*
X227575582Y-455843856D01*
X227659247Y-455687331D01*
X227688577Y-455651593D01*
X227771839Y-455550136D01*
X227873296Y-455466874D01*
X227909034Y-455437544D01*
X228065559Y-455353879D01*
X228235398Y-455302359D01*
X228301583Y-455295840D01*
X228367765Y-455289322D01*
X228456285Y-455289322D01*
X228522467Y-455295840D01*
X228522467Y-455295840D01*
G37*
G36*
X214714610Y-452639124D02*
G01*
X214864435Y-452668926D01*
X215146699Y-452785843D01*
X215400730Y-452955581D01*
X215616766Y-453171617D01*
X215786504Y-453425648D01*
X215903421Y-453707912D01*
X215903421Y-453707913D01*
X215960883Y-453996790D01*
X215963025Y-454007562D01*
X215963025Y-454313082D01*
X215903421Y-454612732D01*
X215786504Y-454894996D01*
X215616766Y-455149027D01*
X215400730Y-455365063D01*
X215146699Y-455534801D01*
X214864435Y-455651718D01*
X214714610Y-455681520D01*
X214564786Y-455711322D01*
X214259264Y-455711322D01*
X214109440Y-455681520D01*
X213959615Y-455651718D01*
X213677351Y-455534801D01*
X213423320Y-455365063D01*
X213207284Y-455149027D01*
X213037546Y-454894996D01*
X212920629Y-454612732D01*
X212861025Y-454313082D01*
X212861025Y-454007562D01*
X212863168Y-453996790D01*
X212920629Y-453707913D01*
X212920629Y-453707912D01*
X213037546Y-453425648D01*
X213207284Y-453171617D01*
X213423320Y-452955581D01*
X213677351Y-452785843D01*
X213959615Y-452668926D01*
X214109440Y-452639124D01*
X214259264Y-452609322D01*
X214564786Y-452609322D01*
X214714610Y-452639124D01*
X214714610Y-452639124D01*
G37*
G36*
X228522468Y-452755841D02*
G01*
X228588652Y-452762359D01*
X228758491Y-452813879D01*
X228915016Y-452897544D01*
X228950754Y-452926874D01*
X229052211Y-453010136D01*
X229135473Y-453111593D01*
X229164803Y-453147331D01*
X229248468Y-453303856D01*
X229299988Y-453473695D01*
X229317384Y-453650322D01*
X229299988Y-453826949D01*
X229248468Y-453996788D01*
X229164803Y-454153313D01*
X229135473Y-454189051D01*
X229052211Y-454290508D01*
X228950754Y-454373770D01*
X228915016Y-454403100D01*
X228758491Y-454486765D01*
X228588652Y-454538285D01*
X228522468Y-454544803D01*
X228456285Y-454551322D01*
X228367765Y-454551322D01*
X228301582Y-454544803D01*
X228235398Y-454538285D01*
X228065559Y-454486765D01*
X227909034Y-454403100D01*
X227873296Y-454373770D01*
X227771839Y-454290508D01*
X227688577Y-454189051D01*
X227659247Y-454153313D01*
X227575582Y-453996788D01*
X227524062Y-453826949D01*
X227506666Y-453650322D01*
X227524062Y-453473695D01*
X227575582Y-453303856D01*
X227659247Y-453147331D01*
X227688577Y-453111593D01*
X227771839Y-453010136D01*
X227873296Y-452926874D01*
X227909034Y-452897544D01*
X228065559Y-452813879D01*
X228235398Y-452762359D01*
X228301582Y-452755841D01*
X228367765Y-452749322D01*
X228456285Y-452749322D01*
X228522468Y-452755841D01*
X228522468Y-452755841D01*
G37*
G36*
X201195853Y-449835394D02*
G01*
X201364435Y-449868927D01*
X201646699Y-449985844D01*
X201900730Y-450155582D01*
X202116766Y-450371618D01*
X202286504Y-450625649D01*
X202403421Y-450907913D01*
X202403421Y-450907914D01*
X202463025Y-451207562D01*
X202463025Y-451513084D01*
X202433223Y-451662908D01*
X202403421Y-451812733D01*
X202286504Y-452094997D01*
X202116766Y-452349028D01*
X201900730Y-452565064D01*
X201646699Y-452734802D01*
X201364435Y-452851719D01*
X201214610Y-452881521D01*
X201064786Y-452911323D01*
X200759264Y-452911323D01*
X200609440Y-452881521D01*
X200459615Y-452851719D01*
X200177351Y-452734802D01*
X199923320Y-452565064D01*
X199707284Y-452349028D01*
X199537546Y-452094997D01*
X199420629Y-451812733D01*
X199390827Y-451662908D01*
X199361025Y-451513084D01*
X199361025Y-451207562D01*
X199420629Y-450907914D01*
X199420629Y-450907913D01*
X199537546Y-450625649D01*
X199707284Y-450371618D01*
X199923320Y-450155582D01*
X200177351Y-449985844D01*
X200459615Y-449868927D01*
X200628197Y-449835394D01*
X200759264Y-449809323D01*
X201064786Y-449809323D01*
X201195853Y-449835394D01*
X201195853Y-449835394D01*
G37*
G36*
X219927001Y-448712669D02*
G01*
X220248301Y-448845756D01*
X220248303Y-448845757D01*
X220537465Y-449038969D01*
X220783378Y-449284882D01*
X220932743Y-449508422D01*
X220976591Y-449574046D01*
X221109678Y-449895346D01*
X221177525Y-450236434D01*
X221177525Y-450584210D01*
X221109678Y-450925298D01*
X221032809Y-451110876D01*
X220976590Y-451246600D01*
X220783378Y-451535762D01*
X220537465Y-451781675D01*
X220248303Y-451974887D01*
X220248302Y-451974888D01*
X220248301Y-451974888D01*
X219927001Y-452107975D01*
X219585913Y-452175822D01*
X219238137Y-452175822D01*
X218897049Y-452107975D01*
X218575749Y-451974888D01*
X218575748Y-451974888D01*
X218575747Y-451974887D01*
X218286585Y-451781675D01*
X218040672Y-451535762D01*
X217847460Y-451246600D01*
X217791241Y-451110876D01*
X217714372Y-450925298D01*
X217646525Y-450584210D01*
X217646525Y-450236434D01*
X217714372Y-449895346D01*
X217847459Y-449574046D01*
X217891308Y-449508422D01*
X218040672Y-449284882D01*
X218286585Y-449038969D01*
X218575747Y-448845757D01*
X218575749Y-448845756D01*
X218897049Y-448712669D01*
X219238137Y-448644822D01*
X219585913Y-448644822D01*
X219927001Y-448712669D01*
X219927001Y-448712669D01*
G37*
G36*
X229313025Y-452011322D02*
G01*
X227511025Y-452011322D01*
X227511025Y-450209322D01*
X229313025Y-450209322D01*
X229313025Y-452011322D01*
X229313025Y-452011322D01*
G37*
G36*
X164716921Y-451985972D02*
G01*
X162914921Y-451985972D01*
X162914921Y-450183972D01*
X164716921Y-450183972D01*
X164716921Y-451985972D01*
X164716921Y-451985972D01*
G37*
G36*
X156306363Y-450190490D02*
G01*
X156372548Y-450197009D01*
X156542387Y-450248529D01*
X156698912Y-450332194D01*
X156734650Y-450361524D01*
X156836107Y-450444786D01*
X156909980Y-450534802D01*
X156948699Y-450581981D01*
X157032364Y-450738506D01*
X157083884Y-450908345D01*
X157101280Y-451084972D01*
X157083884Y-451261599D01*
X157032364Y-451431438D01*
X156948699Y-451587963D01*
X156919369Y-451623701D01*
X156836107Y-451725158D01*
X156734650Y-451808420D01*
X156698912Y-451837750D01*
X156542387Y-451921415D01*
X156372548Y-451972935D01*
X156306364Y-451979453D01*
X156240181Y-451985972D01*
X156151661Y-451985972D01*
X156085478Y-451979453D01*
X156019294Y-451972935D01*
X155849455Y-451921415D01*
X155692930Y-451837750D01*
X155657192Y-451808420D01*
X155555735Y-451725158D01*
X155472473Y-451623701D01*
X155443143Y-451587963D01*
X155359478Y-451431438D01*
X155307958Y-451261599D01*
X155290562Y-451084972D01*
X155307958Y-450908345D01*
X155359478Y-450738506D01*
X155443143Y-450581981D01*
X155481862Y-450534802D01*
X155555735Y-450444786D01*
X155657192Y-450361524D01*
X155692930Y-450332194D01*
X155849455Y-450248529D01*
X156019294Y-450197009D01*
X156085479Y-450190490D01*
X156151661Y-450183972D01*
X156240181Y-450183972D01*
X156306363Y-450190490D01*
X156306363Y-450190490D01*
G37*
G36*
X161386363Y-450190490D02*
G01*
X161452548Y-450197009D01*
X161622387Y-450248529D01*
X161778912Y-450332194D01*
X161814650Y-450361524D01*
X161916107Y-450444786D01*
X161989980Y-450534802D01*
X162028699Y-450581981D01*
X162112364Y-450738506D01*
X162163884Y-450908345D01*
X162181280Y-451084972D01*
X162163884Y-451261599D01*
X162112364Y-451431438D01*
X162028699Y-451587963D01*
X161999369Y-451623701D01*
X161916107Y-451725158D01*
X161814650Y-451808420D01*
X161778912Y-451837750D01*
X161622387Y-451921415D01*
X161452548Y-451972935D01*
X161386364Y-451979453D01*
X161320181Y-451985972D01*
X161231661Y-451985972D01*
X161165478Y-451979453D01*
X161099294Y-451972935D01*
X160929455Y-451921415D01*
X160772930Y-451837750D01*
X160737192Y-451808420D01*
X160635735Y-451725158D01*
X160552473Y-451623701D01*
X160523143Y-451587963D01*
X160439478Y-451431438D01*
X160387958Y-451261599D01*
X160370562Y-451084972D01*
X160387958Y-450908345D01*
X160439478Y-450738506D01*
X160523143Y-450581981D01*
X160561862Y-450534802D01*
X160635735Y-450444786D01*
X160737192Y-450361524D01*
X160772930Y-450332194D01*
X160929455Y-450248529D01*
X161099294Y-450197009D01*
X161165479Y-450190490D01*
X161231661Y-450183972D01*
X161320181Y-450183972D01*
X161386363Y-450190490D01*
X161386363Y-450190490D01*
G37*
G36*
X158846363Y-450190490D02*
G01*
X158912548Y-450197009D01*
X159082387Y-450248529D01*
X159238912Y-450332194D01*
X159274650Y-450361524D01*
X159376107Y-450444786D01*
X159449980Y-450534802D01*
X159488699Y-450581981D01*
X159572364Y-450738506D01*
X159623884Y-450908345D01*
X159641280Y-451084972D01*
X159623884Y-451261599D01*
X159572364Y-451431438D01*
X159488699Y-451587963D01*
X159459369Y-451623701D01*
X159376107Y-451725158D01*
X159274650Y-451808420D01*
X159238912Y-451837750D01*
X159082387Y-451921415D01*
X158912548Y-451972935D01*
X158846364Y-451979453D01*
X158780181Y-451985972D01*
X158691661Y-451985972D01*
X158625478Y-451979453D01*
X158559294Y-451972935D01*
X158389455Y-451921415D01*
X158232930Y-451837750D01*
X158197192Y-451808420D01*
X158095735Y-451725158D01*
X158012473Y-451623701D01*
X157983143Y-451587963D01*
X157899478Y-451431438D01*
X157847958Y-451261599D01*
X157830562Y-451084972D01*
X157847958Y-450908345D01*
X157899478Y-450738506D01*
X157983143Y-450581981D01*
X158021862Y-450534802D01*
X158095735Y-450444786D01*
X158197192Y-450361524D01*
X158232930Y-450332194D01*
X158389455Y-450248529D01*
X158559294Y-450197009D01*
X158625479Y-450190490D01*
X158691661Y-450183972D01*
X158780181Y-450183972D01*
X158846363Y-450190490D01*
X158846363Y-450190490D01*
G37*
G36*
X214087977Y-449525752D02*
G01*
X214175100Y-449543081D01*
X214284523Y-449588406D01*
X214339236Y-449611069D01*
X214485958Y-449709105D01*
X214486953Y-449709770D01*
X214612577Y-449835394D01*
X214612579Y-449835397D01*
X214711278Y-449983111D01*
X214711278Y-449983112D01*
X214779266Y-450147247D01*
X214813925Y-450321493D01*
X214813925Y-450499151D01*
X214779266Y-450673397D01*
X214733941Y-450782820D01*
X214711278Y-450837533D01*
X214652635Y-450925299D01*
X214612577Y-450985250D01*
X214486953Y-451110874D01*
X214486950Y-451110876D01*
X214339236Y-451209575D01*
X214284523Y-451232238D01*
X214175100Y-451277563D01*
X214087977Y-451294893D01*
X214000856Y-451312222D01*
X213823194Y-451312222D01*
X213736073Y-451294893D01*
X213648950Y-451277563D01*
X213539527Y-451232238D01*
X213484814Y-451209575D01*
X213337100Y-451110876D01*
X213337097Y-451110874D01*
X213211473Y-450985250D01*
X213171415Y-450925299D01*
X213112772Y-450837533D01*
X213090109Y-450782820D01*
X213044784Y-450673397D01*
X213010125Y-450499151D01*
X213010125Y-450321493D01*
X213044784Y-450147247D01*
X213112772Y-449983112D01*
X213112772Y-449983111D01*
X213211471Y-449835397D01*
X213211473Y-449835394D01*
X213337097Y-449709770D01*
X213338092Y-449709105D01*
X213484814Y-449611069D01*
X213539527Y-449588406D01*
X213648950Y-449543081D01*
X213736073Y-449525752D01*
X213823194Y-449508422D01*
X214000856Y-449508422D01*
X214087977Y-449525752D01*
X214087977Y-449525752D01*
G37*
G36*
X225087977Y-449525752D02*
G01*
X225175100Y-449543081D01*
X225284523Y-449588406D01*
X225339236Y-449611069D01*
X225485958Y-449709105D01*
X225486953Y-449709770D01*
X225612577Y-449835394D01*
X225612579Y-449835397D01*
X225711278Y-449983111D01*
X225711278Y-449983112D01*
X225779266Y-450147247D01*
X225813925Y-450321493D01*
X225813925Y-450499151D01*
X225779266Y-450673397D01*
X225733941Y-450782820D01*
X225711278Y-450837533D01*
X225652635Y-450925299D01*
X225612577Y-450985250D01*
X225486953Y-451110874D01*
X225486950Y-451110876D01*
X225339236Y-451209575D01*
X225284523Y-451232238D01*
X225175100Y-451277563D01*
X225087977Y-451294893D01*
X225000856Y-451312222D01*
X224823194Y-451312222D01*
X224736073Y-451294893D01*
X224648950Y-451277563D01*
X224539527Y-451232238D01*
X224484814Y-451209575D01*
X224337100Y-451110876D01*
X224337097Y-451110874D01*
X224211473Y-450985250D01*
X224171415Y-450925299D01*
X224112772Y-450837533D01*
X224090109Y-450782820D01*
X224044784Y-450673397D01*
X224010125Y-450499151D01*
X224010125Y-450321493D01*
X224044784Y-450147247D01*
X224112772Y-449983112D01*
X224112772Y-449983111D01*
X224211471Y-449835397D01*
X224211473Y-449835394D01*
X224337097Y-449709770D01*
X224338092Y-449709105D01*
X224484814Y-449611069D01*
X224539527Y-449588406D01*
X224648950Y-449543081D01*
X224736073Y-449525752D01*
X224823194Y-449508422D01*
X225000856Y-449508422D01*
X225087977Y-449525752D01*
X225087977Y-449525752D01*
G37*
G36*
X196214610Y-447639125D02*
G01*
X196364435Y-447668927D01*
X196646699Y-447785844D01*
X196900730Y-447955582D01*
X197116766Y-448171618D01*
X197286504Y-448425649D01*
X197403421Y-448707913D01*
X197463025Y-449007563D01*
X197463025Y-449313083D01*
X197403421Y-449612733D01*
X197286504Y-449894997D01*
X197116766Y-450149028D01*
X196900730Y-450365064D01*
X196646699Y-450534802D01*
X196364435Y-450651719D01*
X196255462Y-450673395D01*
X196064786Y-450711323D01*
X195759264Y-450711323D01*
X195568588Y-450673395D01*
X195459615Y-450651719D01*
X195177351Y-450534802D01*
X194923320Y-450365064D01*
X194707284Y-450149028D01*
X194537546Y-449894997D01*
X194420629Y-449612733D01*
X194361025Y-449313083D01*
X194361025Y-449007563D01*
X194420629Y-448707913D01*
X194537546Y-448425649D01*
X194707284Y-448171618D01*
X194923320Y-447955582D01*
X195177351Y-447785844D01*
X195459615Y-447668927D01*
X195609440Y-447639125D01*
X195759264Y-447609323D01*
X196064786Y-447609323D01*
X196214610Y-447639125D01*
X196214610Y-447639125D01*
G37*
G36*
X156313019Y-449181280D02*
G01*
X154511019Y-449181280D01*
X154511019Y-447379280D01*
X156313019Y-447379280D01*
X156313019Y-449181280D01*
X156313019Y-449181280D01*
G37*
G36*
X201427001Y-443712670D02*
G01*
X201735525Y-443840465D01*
X201748303Y-443845758D01*
X202037465Y-444038970D01*
X202283378Y-444284883D01*
X202432743Y-444508423D01*
X202476591Y-444574047D01*
X202609678Y-444895347D01*
X202677525Y-445236435D01*
X202677525Y-445584211D01*
X202609678Y-445925299D01*
X202476591Y-446246599D01*
X202476590Y-446246601D01*
X202283378Y-446535763D01*
X202037465Y-446781676D01*
X201748303Y-446974888D01*
X201748302Y-446974889D01*
X201748301Y-446974889D01*
X201427001Y-447107976D01*
X201085913Y-447175823D01*
X200738137Y-447175823D01*
X200397049Y-447107976D01*
X200075749Y-446974889D01*
X200075748Y-446974889D01*
X200075747Y-446974888D01*
X199786585Y-446781676D01*
X199540672Y-446535763D01*
X199347460Y-446246601D01*
X199347459Y-446246599D01*
X199214372Y-445925299D01*
X199146525Y-445584211D01*
X199146525Y-445236435D01*
X199214372Y-444895347D01*
X199347459Y-444574047D01*
X199391308Y-444508423D01*
X199540672Y-444284883D01*
X199786585Y-444038970D01*
X200075747Y-443845758D01*
X200088525Y-443840465D01*
X200397049Y-443712670D01*
X200738137Y-443644823D01*
X201085913Y-443644823D01*
X201427001Y-443712670D01*
X201427001Y-443712670D01*
G37*
G36*
X155522461Y-444845798D02*
G01*
X155588646Y-444852317D01*
X155758485Y-444903837D01*
X155915010Y-444987502D01*
X155950748Y-445016832D01*
X156052205Y-445100094D01*
X156135467Y-445201551D01*
X156164797Y-445237289D01*
X156248462Y-445393814D01*
X156299982Y-445563653D01*
X156317378Y-445740280D01*
X156299982Y-445916907D01*
X156248462Y-446086746D01*
X156164797Y-446243271D01*
X156162064Y-446246601D01*
X156052205Y-446380466D01*
X155950748Y-446463728D01*
X155915010Y-446493058D01*
X155758485Y-446576723D01*
X155588646Y-446628243D01*
X155522461Y-446634762D01*
X155456279Y-446641280D01*
X155367759Y-446641280D01*
X155301577Y-446634762D01*
X155235392Y-446628243D01*
X155065553Y-446576723D01*
X154909028Y-446493058D01*
X154873290Y-446463728D01*
X154771833Y-446380466D01*
X154661974Y-446246601D01*
X154659241Y-446243271D01*
X154575576Y-446086746D01*
X154524056Y-445916907D01*
X154506660Y-445740280D01*
X154524056Y-445563653D01*
X154575576Y-445393814D01*
X154659241Y-445237289D01*
X154688571Y-445201551D01*
X154771833Y-445100094D01*
X154873290Y-445016832D01*
X154909028Y-444987502D01*
X155065553Y-444903837D01*
X155235392Y-444852317D01*
X155301577Y-444845798D01*
X155367759Y-444839280D01*
X155456279Y-444839280D01*
X155522461Y-444845798D01*
X155522461Y-444845798D01*
G37*
G36*
X195587977Y-444525752D02*
G01*
X195675100Y-444543082D01*
X195784523Y-444588407D01*
X195839236Y-444611070D01*
X195985958Y-444709106D01*
X195986953Y-444709771D01*
X196112577Y-444835395D01*
X196112579Y-444835398D01*
X196211278Y-444983112D01*
X196211278Y-444983113D01*
X196279266Y-445147248D01*
X196313925Y-445321494D01*
X196313925Y-445499152D01*
X196279266Y-445673398D01*
X196251562Y-445740280D01*
X196211278Y-445837534D01*
X196152635Y-445925300D01*
X196112577Y-445985251D01*
X195986953Y-446110875D01*
X195986950Y-446110877D01*
X195839236Y-446209576D01*
X195784523Y-446232239D01*
X195675100Y-446277564D01*
X195587977Y-446294893D01*
X195500856Y-446312223D01*
X195323194Y-446312223D01*
X195236073Y-446294893D01*
X195148950Y-446277564D01*
X195039527Y-446232239D01*
X194984814Y-446209576D01*
X194837100Y-446110877D01*
X194837097Y-446110875D01*
X194711473Y-445985251D01*
X194671415Y-445925300D01*
X194612772Y-445837534D01*
X194572488Y-445740280D01*
X194544784Y-445673398D01*
X194510125Y-445499152D01*
X194510125Y-445321494D01*
X194544784Y-445147248D01*
X194612772Y-444983113D01*
X194612772Y-444983112D01*
X194711471Y-444835398D01*
X194711473Y-444835395D01*
X194837097Y-444709771D01*
X194838092Y-444709106D01*
X194984814Y-444611070D01*
X195039527Y-444588407D01*
X195148950Y-444543082D01*
X195236073Y-444525752D01*
X195323194Y-444508423D01*
X195500856Y-444508423D01*
X195587977Y-444525752D01*
X195587977Y-444525752D01*
G37*
G36*
X206587977Y-444525752D02*
G01*
X206675100Y-444543082D01*
X206784523Y-444588407D01*
X206839236Y-444611070D01*
X206985958Y-444709106D01*
X206986953Y-444709771D01*
X207112577Y-444835395D01*
X207112579Y-444835398D01*
X207211278Y-444983112D01*
X207211278Y-444983113D01*
X207279266Y-445147248D01*
X207313925Y-445321494D01*
X207313925Y-445499152D01*
X207279266Y-445673398D01*
X207251562Y-445740280D01*
X207211278Y-445837534D01*
X207152635Y-445925300D01*
X207112577Y-445985251D01*
X206986953Y-446110875D01*
X206986950Y-446110877D01*
X206839236Y-446209576D01*
X206784523Y-446232239D01*
X206675100Y-446277564D01*
X206587977Y-446294893D01*
X206500856Y-446312223D01*
X206323194Y-446312223D01*
X206236073Y-446294893D01*
X206148950Y-446277564D01*
X206039527Y-446232239D01*
X205984814Y-446209576D01*
X205837100Y-446110877D01*
X205837097Y-446110875D01*
X205711473Y-445985251D01*
X205671415Y-445925300D01*
X205612772Y-445837534D01*
X205572488Y-445740280D01*
X205544784Y-445673398D01*
X205510125Y-445499152D01*
X205510125Y-445321494D01*
X205544784Y-445147248D01*
X205612772Y-444983113D01*
X205612772Y-444983112D01*
X205711471Y-444835398D01*
X205711473Y-444835395D01*
X205837097Y-444709771D01*
X205838092Y-444709106D01*
X205984814Y-444611070D01*
X206039527Y-444588407D01*
X206148950Y-444543082D01*
X206236073Y-444525752D01*
X206323194Y-444508423D01*
X206500856Y-444508423D01*
X206587977Y-444525752D01*
X206587977Y-444525752D01*
G37*
G36*
X182714610Y-441339124D02*
G01*
X182864435Y-441368926D01*
X183146699Y-441485843D01*
X183400730Y-441655581D01*
X183616766Y-441871617D01*
X183786504Y-442125648D01*
X183903421Y-442407912D01*
X183963025Y-442707562D01*
X183963025Y-443013082D01*
X183903421Y-443312732D01*
X183786504Y-443594996D01*
X183616766Y-443849027D01*
X183400730Y-444065063D01*
X183146699Y-444234801D01*
X182864435Y-444351718D01*
X182714610Y-444381520D01*
X182564786Y-444411322D01*
X182259264Y-444411322D01*
X182109440Y-444381520D01*
X181959615Y-444351718D01*
X181677351Y-444234801D01*
X181423320Y-444065063D01*
X181207284Y-443849027D01*
X181037546Y-443594996D01*
X180920629Y-443312732D01*
X180861025Y-443013082D01*
X180861025Y-442707562D01*
X180920629Y-442407912D01*
X181037546Y-442125648D01*
X181207284Y-441871617D01*
X181423320Y-441655581D01*
X181677351Y-441485843D01*
X181959615Y-441368926D01*
X182109440Y-441339124D01*
X182259264Y-441309322D01*
X182564786Y-441309322D01*
X182714610Y-441339124D01*
X182714610Y-441339124D01*
G37*
G36*
X155522462Y-442305799D02*
G01*
X155588646Y-442312317D01*
X155758485Y-442363837D01*
X155915010Y-442447502D01*
X155950748Y-442476832D01*
X156052205Y-442560094D01*
X156135467Y-442661551D01*
X156164797Y-442697289D01*
X156248462Y-442853814D01*
X156299982Y-443023653D01*
X156317378Y-443200280D01*
X156299982Y-443376907D01*
X156248462Y-443546746D01*
X156164797Y-443703271D01*
X156135467Y-443739009D01*
X156052205Y-443840466D01*
X155950748Y-443923728D01*
X155915010Y-443953058D01*
X155758485Y-444036723D01*
X155588646Y-444088243D01*
X155522461Y-444094762D01*
X155456279Y-444101280D01*
X155367759Y-444101280D01*
X155301577Y-444094762D01*
X155235392Y-444088243D01*
X155065553Y-444036723D01*
X154909028Y-443953058D01*
X154873290Y-443923728D01*
X154771833Y-443840466D01*
X154688571Y-443739009D01*
X154659241Y-443703271D01*
X154575576Y-443546746D01*
X154524056Y-443376907D01*
X154506660Y-443200280D01*
X154524056Y-443023653D01*
X154575576Y-442853814D01*
X154659241Y-442697289D01*
X154688571Y-442661551D01*
X154771833Y-442560094D01*
X154873290Y-442476832D01*
X154909028Y-442447502D01*
X155065553Y-442363837D01*
X155235392Y-442312317D01*
X155301576Y-442305799D01*
X155367759Y-442299280D01*
X155456279Y-442299280D01*
X155522462Y-442305799D01*
X155522462Y-442305799D01*
G37*
G36*
X177714610Y-439139124D02*
G01*
X177864435Y-439168926D01*
X178146699Y-439285843D01*
X178400730Y-439455581D01*
X178616766Y-439671617D01*
X178786504Y-439925648D01*
X178903421Y-440207912D01*
X178963025Y-440507562D01*
X178963025Y-440813082D01*
X178903421Y-441112732D01*
X178786504Y-441394996D01*
X178616766Y-441649027D01*
X178400730Y-441865063D01*
X178146699Y-442034801D01*
X177864435Y-442151718D01*
X177714610Y-442181520D01*
X177564786Y-442211322D01*
X177259264Y-442211322D01*
X177109440Y-442181520D01*
X176959615Y-442151718D01*
X176677351Y-442034801D01*
X176423320Y-441865063D01*
X176207284Y-441649027D01*
X176037546Y-441394996D01*
X175920629Y-441112732D01*
X175861025Y-440813082D01*
X175861025Y-440507562D01*
X175920629Y-440207912D01*
X176037546Y-439925648D01*
X176207284Y-439671617D01*
X176423320Y-439455581D01*
X176677351Y-439285843D01*
X176959615Y-439168926D01*
X177109440Y-439139124D01*
X177259264Y-439109322D01*
X177564786Y-439109322D01*
X177714610Y-439139124D01*
X177714610Y-439139124D01*
G37*
G36*
X155522462Y-439765799D02*
G01*
X155588646Y-439772317D01*
X155758485Y-439823837D01*
X155915010Y-439907502D01*
X155937121Y-439925648D01*
X156052205Y-440020094D01*
X156135467Y-440121551D01*
X156164797Y-440157289D01*
X156248462Y-440313814D01*
X156299982Y-440483653D01*
X156317378Y-440660280D01*
X156299982Y-440836907D01*
X156248462Y-441006746D01*
X156164797Y-441163271D01*
X156135467Y-441199009D01*
X156052205Y-441300466D01*
X155968785Y-441368926D01*
X155915010Y-441413058D01*
X155758485Y-441496723D01*
X155588646Y-441548243D01*
X155522462Y-441554761D01*
X155456279Y-441561280D01*
X155367759Y-441561280D01*
X155301576Y-441554761D01*
X155235392Y-441548243D01*
X155065553Y-441496723D01*
X154909028Y-441413058D01*
X154855253Y-441368926D01*
X154771833Y-441300466D01*
X154688571Y-441199009D01*
X154659241Y-441163271D01*
X154575576Y-441006746D01*
X154524056Y-440836907D01*
X154506660Y-440660280D01*
X154524056Y-440483653D01*
X154575576Y-440313814D01*
X154659241Y-440157289D01*
X154688571Y-440121551D01*
X154771833Y-440020094D01*
X154886917Y-439925648D01*
X154909028Y-439907502D01*
X155065553Y-439823837D01*
X155235392Y-439772317D01*
X155301576Y-439765799D01*
X155367759Y-439759280D01*
X155456279Y-439759280D01*
X155522462Y-439765799D01*
X155522462Y-439765799D01*
G37*
G36*
X182927001Y-435212669D02*
G01*
X183248301Y-435345756D01*
X183248303Y-435345757D01*
X183537465Y-435538969D01*
X183783378Y-435784882D01*
X183932743Y-436008422D01*
X183976591Y-436074046D01*
X184109678Y-436395346D01*
X184177525Y-436736434D01*
X184177525Y-437084210D01*
X184109678Y-437425298D01*
X184032809Y-437610876D01*
X183976590Y-437746600D01*
X183783378Y-438035762D01*
X183537465Y-438281675D01*
X183248303Y-438474887D01*
X183248302Y-438474888D01*
X183248301Y-438474888D01*
X182927001Y-438607975D01*
X182585913Y-438675822D01*
X182238137Y-438675822D01*
X181897049Y-438607975D01*
X181575749Y-438474888D01*
X181575748Y-438474888D01*
X181575747Y-438474887D01*
X181286585Y-438281675D01*
X181040672Y-438035762D01*
X180847460Y-437746600D01*
X180791241Y-437610876D01*
X180714372Y-437425298D01*
X180646525Y-437084210D01*
X180646525Y-436736434D01*
X180714372Y-436395346D01*
X180847459Y-436074046D01*
X180891308Y-436008422D01*
X181040672Y-435784882D01*
X181286585Y-435538969D01*
X181575747Y-435345757D01*
X181575749Y-435345756D01*
X181897049Y-435212669D01*
X182238137Y-435144822D01*
X182585913Y-435144822D01*
X182927001Y-435212669D01*
X182927001Y-435212669D01*
G37*
G36*
X188087977Y-436025751D02*
G01*
X188175100Y-436043081D01*
X188284523Y-436088406D01*
X188339236Y-436111069D01*
X188485958Y-436209105D01*
X188486953Y-436209770D01*
X188612577Y-436335394D01*
X188612579Y-436335397D01*
X188711278Y-436483111D01*
X188711278Y-436483112D01*
X188779266Y-436647247D01*
X188813925Y-436821493D01*
X188813925Y-436999151D01*
X188779266Y-437173397D01*
X188733941Y-437282820D01*
X188711278Y-437337533D01*
X188652635Y-437425299D01*
X188612577Y-437485250D01*
X188486953Y-437610874D01*
X188486950Y-437610876D01*
X188339236Y-437709575D01*
X188284523Y-437732238D01*
X188175100Y-437777563D01*
X188087977Y-437794892D01*
X188000856Y-437812222D01*
X187823194Y-437812222D01*
X187736073Y-437794892D01*
X187648950Y-437777563D01*
X187539527Y-437732238D01*
X187484814Y-437709575D01*
X187337100Y-437610876D01*
X187337097Y-437610874D01*
X187211473Y-437485250D01*
X187171415Y-437425299D01*
X187112772Y-437337533D01*
X187090109Y-437282820D01*
X187044784Y-437173397D01*
X187010125Y-436999151D01*
X187010125Y-436821493D01*
X187044784Y-436647247D01*
X187112772Y-436483112D01*
X187112772Y-436483111D01*
X187211471Y-436335397D01*
X187211473Y-436335394D01*
X187337097Y-436209770D01*
X187338092Y-436209105D01*
X187484814Y-436111069D01*
X187539527Y-436088406D01*
X187648950Y-436043081D01*
X187736073Y-436025751D01*
X187823194Y-436008422D01*
X188000856Y-436008422D01*
X188087977Y-436025751D01*
X188087977Y-436025751D01*
G37*
G36*
X177087977Y-436025751D02*
G01*
X177175100Y-436043081D01*
X177284523Y-436088406D01*
X177339236Y-436111069D01*
X177485958Y-436209105D01*
X177486953Y-436209770D01*
X177612577Y-436335394D01*
X177612579Y-436335397D01*
X177711278Y-436483111D01*
X177711278Y-436483112D01*
X177779266Y-436647247D01*
X177813925Y-436821493D01*
X177813925Y-436999151D01*
X177779266Y-437173397D01*
X177733941Y-437282820D01*
X177711278Y-437337533D01*
X177652635Y-437425299D01*
X177612577Y-437485250D01*
X177486953Y-437610874D01*
X177486950Y-437610876D01*
X177339236Y-437709575D01*
X177284523Y-437732238D01*
X177175100Y-437777563D01*
X177087977Y-437794892D01*
X177000856Y-437812222D01*
X176823194Y-437812222D01*
X176736073Y-437794892D01*
X176648950Y-437777563D01*
X176539527Y-437732238D01*
X176484814Y-437709575D01*
X176337100Y-437610876D01*
X176337097Y-437610874D01*
X176211473Y-437485250D01*
X176171415Y-437425299D01*
X176112772Y-437337533D01*
X176090109Y-437282820D01*
X176044784Y-437173397D01*
X176010125Y-436999151D01*
X176010125Y-436821493D01*
X176044784Y-436647247D01*
X176112772Y-436483112D01*
X176112772Y-436483111D01*
X176211471Y-436335397D01*
X176211473Y-436335394D01*
X176337097Y-436209770D01*
X176338092Y-436209105D01*
X176484814Y-436111069D01*
X176539527Y-436088406D01*
X176648950Y-436043081D01*
X176736073Y-436025751D01*
X176823194Y-436008422D01*
X177000856Y-436008422D01*
X177087977Y-436025751D01*
X177087977Y-436025751D01*
G37*
G36*
X164427001Y-432212669D02*
G01*
X164748301Y-432345756D01*
X164748303Y-432345757D01*
X165037465Y-432538969D01*
X165283378Y-432784882D01*
X165432743Y-433008422D01*
X165476591Y-433074046D01*
X165609678Y-433395346D01*
X165677525Y-433736434D01*
X165677525Y-434084210D01*
X165609678Y-434425298D01*
X165532809Y-434610876D01*
X165476590Y-434746600D01*
X165283378Y-435035762D01*
X165037465Y-435281675D01*
X164748303Y-435474887D01*
X164748302Y-435474888D01*
X164748301Y-435474888D01*
X164427001Y-435607975D01*
X164085913Y-435675822D01*
X163738137Y-435675822D01*
X163397049Y-435607975D01*
X163075749Y-435474888D01*
X163075748Y-435474888D01*
X163075747Y-435474887D01*
X162786585Y-435281675D01*
X162540672Y-435035762D01*
X162347460Y-434746600D01*
X162291241Y-434610876D01*
X162214372Y-434425298D01*
X162146525Y-434084210D01*
X162146525Y-433736434D01*
X162214372Y-433395346D01*
X162347459Y-433074046D01*
X162391308Y-433008422D01*
X162540672Y-432784882D01*
X162786585Y-432538969D01*
X163075747Y-432345757D01*
X163075749Y-432345756D01*
X163397049Y-432212669D01*
X163738137Y-432144822D01*
X164085913Y-432144822D01*
X164427001Y-432212669D01*
X164427001Y-432212669D01*
G37*
G36*
X169587977Y-433025751D02*
G01*
X169675100Y-433043081D01*
X169784523Y-433088406D01*
X169839236Y-433111069D01*
X169985958Y-433209105D01*
X169986953Y-433209770D01*
X170112577Y-433335394D01*
X170112579Y-433335397D01*
X170211278Y-433483111D01*
X170211278Y-433483112D01*
X170279266Y-433647247D01*
X170313925Y-433821493D01*
X170313925Y-433999151D01*
X170279266Y-434173397D01*
X170233941Y-434282820D01*
X170211278Y-434337533D01*
X170152635Y-434425299D01*
X170112577Y-434485250D01*
X169986953Y-434610874D01*
X169986950Y-434610876D01*
X169839236Y-434709575D01*
X169784523Y-434732238D01*
X169675100Y-434777563D01*
X169587977Y-434794893D01*
X169500856Y-434812222D01*
X169323194Y-434812222D01*
X169236073Y-434794893D01*
X169148950Y-434777563D01*
X169039527Y-434732238D01*
X168984814Y-434709575D01*
X168837100Y-434610876D01*
X168837097Y-434610874D01*
X168711473Y-434485250D01*
X168671415Y-434425299D01*
X168612772Y-434337533D01*
X168590109Y-434282820D01*
X168544784Y-434173397D01*
X168510125Y-433999151D01*
X168510125Y-433821493D01*
X168544784Y-433647247D01*
X168612772Y-433483112D01*
X168612772Y-433483111D01*
X168711471Y-433335397D01*
X168711473Y-433335394D01*
X168837097Y-433209770D01*
X168838092Y-433209105D01*
X168984814Y-433111069D01*
X169039527Y-433088406D01*
X169148950Y-433043081D01*
X169236073Y-433025751D01*
X169323194Y-433008422D01*
X169500856Y-433008422D01*
X169587977Y-433025751D01*
X169587977Y-433025751D01*
G37*
G36*
X158587977Y-433025751D02*
G01*
X158675100Y-433043081D01*
X158784523Y-433088406D01*
X158839236Y-433111069D01*
X158985958Y-433209105D01*
X158986953Y-433209770D01*
X159112577Y-433335394D01*
X159112579Y-433335397D01*
X159211278Y-433483111D01*
X159211278Y-433483112D01*
X159279266Y-433647247D01*
X159313925Y-433821493D01*
X159313925Y-433999151D01*
X159279266Y-434173397D01*
X159233941Y-434282820D01*
X159211278Y-434337533D01*
X159152635Y-434425299D01*
X159112577Y-434485250D01*
X158986953Y-434610874D01*
X158986950Y-434610876D01*
X158839236Y-434709575D01*
X158784523Y-434732238D01*
X158675100Y-434777563D01*
X158587977Y-434794893D01*
X158500856Y-434812222D01*
X158323194Y-434812222D01*
X158236073Y-434794893D01*
X158148950Y-434777563D01*
X158039527Y-434732238D01*
X157984814Y-434709575D01*
X157837100Y-434610876D01*
X157837097Y-434610874D01*
X157711473Y-434485250D01*
X157671415Y-434425299D01*
X157612772Y-434337533D01*
X157590109Y-434282820D01*
X157544784Y-434173397D01*
X157510125Y-433999151D01*
X157510125Y-433821493D01*
X157544784Y-433647247D01*
X157612772Y-433483112D01*
X157612772Y-433483111D01*
X157711471Y-433335397D01*
X157711473Y-433335394D01*
X157837097Y-433209770D01*
X157838092Y-433209105D01*
X157984814Y-433111069D01*
X158039527Y-433088406D01*
X158148950Y-433043081D01*
X158236073Y-433025751D01*
X158323194Y-433008422D01*
X158500856Y-433008422D01*
X158587977Y-433025751D01*
X158587977Y-433025751D01*
G37*
G36*
X169214610Y-428639124D02*
G01*
X169364435Y-428668926D01*
X169646699Y-428785843D01*
X169900730Y-428955581D01*
X170116766Y-429171617D01*
X170286504Y-429425648D01*
X170403421Y-429707912D01*
X170463025Y-430007562D01*
X170463025Y-430313082D01*
X170403421Y-430612732D01*
X170286504Y-430894996D01*
X170116766Y-431149027D01*
X169900730Y-431365063D01*
X169646699Y-431534801D01*
X169364435Y-431651718D01*
X169214610Y-431681520D01*
X169064786Y-431711322D01*
X168759264Y-431711322D01*
X168609440Y-431681520D01*
X168459615Y-431651718D01*
X168177351Y-431534801D01*
X167923320Y-431365063D01*
X167707284Y-431149027D01*
X167537546Y-430894996D01*
X167420629Y-430612732D01*
X167361025Y-430313082D01*
X167361025Y-430007562D01*
X167420629Y-429707912D01*
X167537546Y-429425648D01*
X167707284Y-429171617D01*
X167923320Y-428955581D01*
X168177351Y-428785843D01*
X168459615Y-428668926D01*
X168609440Y-428639124D01*
X168759264Y-428609322D01*
X169064786Y-428609322D01*
X169214610Y-428639124D01*
X169214610Y-428639124D01*
G37*
G36*
X183627164Y-428063365D02*
G01*
X183693349Y-428069884D01*
X183863188Y-428121404D01*
X184019713Y-428205069D01*
X184055451Y-428234399D01*
X184156908Y-428317661D01*
X184240170Y-428419118D01*
X184269500Y-428454856D01*
X184269501Y-428454858D01*
X184352065Y-428609322D01*
X184353165Y-428611381D01*
X184404685Y-428781220D01*
X184422081Y-428957847D01*
X184404685Y-429134474D01*
X184353165Y-429304313D01*
X184269500Y-429460838D01*
X184240170Y-429496576D01*
X184156908Y-429598033D01*
X184055451Y-429681295D01*
X184019713Y-429710625D01*
X183863188Y-429794290D01*
X183693349Y-429845810D01*
X183627164Y-429852329D01*
X183560982Y-429858847D01*
X183472462Y-429858847D01*
X183406280Y-429852329D01*
X183340095Y-429845810D01*
X183170256Y-429794290D01*
X183013731Y-429710625D01*
X182977993Y-429681295D01*
X182876536Y-429598033D01*
X182793274Y-429496576D01*
X182763944Y-429460838D01*
X182680279Y-429304313D01*
X182628759Y-429134474D01*
X182611363Y-428957847D01*
X182628759Y-428781220D01*
X182680279Y-428611381D01*
X182681380Y-428609322D01*
X182763943Y-428454858D01*
X182763944Y-428454856D01*
X182793274Y-428419118D01*
X182876536Y-428317661D01*
X182977993Y-428234399D01*
X183013731Y-428205069D01*
X183170256Y-428121404D01*
X183340095Y-428069884D01*
X183406280Y-428063365D01*
X183472462Y-428056847D01*
X183560982Y-428056847D01*
X183627164Y-428063365D01*
X183627164Y-428063365D01*
G37*
G36*
X178547164Y-428063365D02*
G01*
X178613349Y-428069884D01*
X178783188Y-428121404D01*
X178939713Y-428205069D01*
X178975451Y-428234399D01*
X179076908Y-428317661D01*
X179160170Y-428419118D01*
X179189500Y-428454856D01*
X179189501Y-428454858D01*
X179272065Y-428609322D01*
X179273165Y-428611381D01*
X179324685Y-428781220D01*
X179342081Y-428957847D01*
X179324685Y-429134474D01*
X179273165Y-429304313D01*
X179189500Y-429460838D01*
X179160170Y-429496576D01*
X179076908Y-429598033D01*
X178975451Y-429681295D01*
X178939713Y-429710625D01*
X178783188Y-429794290D01*
X178613349Y-429845810D01*
X178547164Y-429852329D01*
X178480982Y-429858847D01*
X178392462Y-429858847D01*
X178326280Y-429852329D01*
X178260095Y-429845810D01*
X178090256Y-429794290D01*
X177933731Y-429710625D01*
X177897993Y-429681295D01*
X177796536Y-429598033D01*
X177713274Y-429496576D01*
X177683944Y-429460838D01*
X177600279Y-429304313D01*
X177548759Y-429134474D01*
X177531363Y-428957847D01*
X177548759Y-428781220D01*
X177600279Y-428611381D01*
X177601380Y-428609322D01*
X177683943Y-428454858D01*
X177683944Y-428454856D01*
X177713274Y-428419118D01*
X177796536Y-428317661D01*
X177897993Y-428234399D01*
X177933731Y-428205069D01*
X178090256Y-428121404D01*
X178260095Y-428069884D01*
X178326280Y-428063365D01*
X178392462Y-428056847D01*
X178480982Y-428056847D01*
X178547164Y-428063365D01*
X178547164Y-428063365D01*
G37*
G36*
X186957722Y-429858847D02*
G01*
X185155722Y-429858847D01*
X185155722Y-428056847D01*
X186957722Y-428056847D01*
X186957722Y-429858847D01*
X186957722Y-429858847D01*
G37*
G36*
X181087164Y-428063365D02*
G01*
X181153349Y-428069884D01*
X181323188Y-428121404D01*
X181479713Y-428205069D01*
X181515451Y-428234399D01*
X181616908Y-428317661D01*
X181700170Y-428419118D01*
X181729500Y-428454856D01*
X181729501Y-428454858D01*
X181812065Y-428609322D01*
X181813165Y-428611381D01*
X181864685Y-428781220D01*
X181882081Y-428957847D01*
X181864685Y-429134474D01*
X181813165Y-429304313D01*
X181729500Y-429460838D01*
X181700170Y-429496576D01*
X181616908Y-429598033D01*
X181515451Y-429681295D01*
X181479713Y-429710625D01*
X181323188Y-429794290D01*
X181153349Y-429845810D01*
X181087164Y-429852329D01*
X181020982Y-429858847D01*
X180932462Y-429858847D01*
X180866280Y-429852329D01*
X180800095Y-429845810D01*
X180630256Y-429794290D01*
X180473731Y-429710625D01*
X180437993Y-429681295D01*
X180336536Y-429598033D01*
X180253274Y-429496576D01*
X180223944Y-429460838D01*
X180140279Y-429304313D01*
X180088759Y-429134474D01*
X180071363Y-428957847D01*
X180088759Y-428781220D01*
X180140279Y-428611381D01*
X180141380Y-428609322D01*
X180223943Y-428454858D01*
X180223944Y-428454856D01*
X180253274Y-428419118D01*
X180336536Y-428317661D01*
X180437993Y-428234399D01*
X180473731Y-428205069D01*
X180630256Y-428121404D01*
X180800095Y-428069884D01*
X180866280Y-428063365D01*
X180932462Y-428056847D01*
X181020982Y-428056847D01*
X181087164Y-428063365D01*
X181087164Y-428063365D01*
G37*
G36*
X164214610Y-426439124D02*
G01*
X164364435Y-426468926D01*
X164646699Y-426585843D01*
X164900730Y-426755581D01*
X165116766Y-426971617D01*
X165286504Y-427225648D01*
X165403421Y-427507912D01*
X165403421Y-427507913D01*
X165463025Y-427807561D01*
X165463025Y-428113083D01*
X165444728Y-428205068D01*
X165403421Y-428412732D01*
X165286504Y-428694996D01*
X165116766Y-428949027D01*
X164900730Y-429165063D01*
X164646699Y-429334801D01*
X164364435Y-429451718D01*
X164214610Y-429481520D01*
X164064786Y-429511322D01*
X163759264Y-429511322D01*
X163609440Y-429481520D01*
X163459615Y-429451718D01*
X163177351Y-429334801D01*
X162923320Y-429165063D01*
X162707284Y-428949027D01*
X162537546Y-428694996D01*
X162420629Y-428412732D01*
X162379322Y-428205068D01*
X162361025Y-428113083D01*
X162361025Y-427807561D01*
X162420629Y-427507913D01*
X162420629Y-427507912D01*
X162537546Y-427225648D01*
X162707284Y-426971617D01*
X162923320Y-426755581D01*
X163177351Y-426585843D01*
X163459615Y-426468926D01*
X163609440Y-426439124D01*
X163759264Y-426409322D01*
X164064786Y-426409322D01*
X164214610Y-426439124D01*
X164214610Y-426439124D01*
G37*
G36*
X182714610Y-423839124D02*
G01*
X182864435Y-423868926D01*
X183146699Y-423985843D01*
X183400730Y-424155581D01*
X183616766Y-424371617D01*
X183786504Y-424625648D01*
X183903421Y-424907912D01*
X183963025Y-425207562D01*
X183963025Y-425513082D01*
X183903421Y-425812732D01*
X183786504Y-426094996D01*
X183616766Y-426349027D01*
X183400730Y-426565063D01*
X183146699Y-426734801D01*
X182864435Y-426851718D01*
X182714610Y-426881520D01*
X182564786Y-426911322D01*
X182259264Y-426911322D01*
X182109440Y-426881520D01*
X181959615Y-426851718D01*
X181677351Y-426734801D01*
X181423320Y-426565063D01*
X181207284Y-426349027D01*
X181037546Y-426094996D01*
X180920629Y-425812732D01*
X180861025Y-425513082D01*
X180861025Y-425207562D01*
X180920629Y-424907912D01*
X181037546Y-424625648D01*
X181207284Y-424371617D01*
X181423320Y-424155581D01*
X181677351Y-423985843D01*
X181959615Y-423868926D01*
X182109440Y-423839124D01*
X182259264Y-423809322D01*
X182564786Y-423809322D01*
X182714610Y-423839124D01*
X182714610Y-423839124D01*
G37*
G36*
X177646877Y-421625651D02*
G01*
X177864435Y-421668926D01*
X178146699Y-421785843D01*
X178400730Y-421955581D01*
X178616766Y-422171617D01*
X178786504Y-422425648D01*
X178903421Y-422707912D01*
X178963025Y-423007562D01*
X178963025Y-423313082D01*
X178903421Y-423612732D01*
X178786504Y-423894996D01*
X178616766Y-424149027D01*
X178400730Y-424365063D01*
X178146699Y-424534801D01*
X177864435Y-424651718D01*
X177714610Y-424681520D01*
X177564786Y-424711322D01*
X177259264Y-424711322D01*
X177109440Y-424681520D01*
X176959615Y-424651718D01*
X176677351Y-424534801D01*
X176423320Y-424365063D01*
X176207284Y-424149027D01*
X176037546Y-423894996D01*
X175920629Y-423612732D01*
X175861025Y-423313082D01*
X175861025Y-423007562D01*
X175920629Y-422707912D01*
X176037546Y-422425648D01*
X176207284Y-422171617D01*
X176423320Y-421955581D01*
X176677351Y-421785843D01*
X176959615Y-421668926D01*
X177177173Y-421625651D01*
X177259264Y-421609322D01*
X177564786Y-421609322D01*
X177646877Y-421625651D01*
X177646877Y-421625651D01*
G37*
G36*
X164214610Y-420839125D02*
G01*
X164364435Y-420868927D01*
X164646699Y-420985844D01*
X164900730Y-421155582D01*
X165116766Y-421371618D01*
X165286504Y-421625649D01*
X165403421Y-421907913D01*
X165463025Y-422207563D01*
X165463025Y-422513083D01*
X165403421Y-422812733D01*
X165286504Y-423094997D01*
X165116766Y-423349028D01*
X164900730Y-423565064D01*
X164646699Y-423734802D01*
X164364435Y-423851719D01*
X164277929Y-423868926D01*
X164064786Y-423911323D01*
X163759264Y-423911323D01*
X163546121Y-423868926D01*
X163459615Y-423851719D01*
X163177351Y-423734802D01*
X162923320Y-423565064D01*
X162707284Y-423349028D01*
X162537546Y-423094997D01*
X162420629Y-422812733D01*
X162361025Y-422513083D01*
X162361025Y-422207563D01*
X162420629Y-421907913D01*
X162537546Y-421625649D01*
X162707284Y-421371618D01*
X162923320Y-421155582D01*
X163177351Y-420985844D01*
X163459615Y-420868927D01*
X163609440Y-420839125D01*
X163759264Y-420809323D01*
X164064786Y-420809323D01*
X164214610Y-420839125D01*
X164214610Y-420839125D01*
G37*
G36*
X159214610Y-418639125D02*
G01*
X159364435Y-418668927D01*
X159646699Y-418785844D01*
X159900730Y-418955582D01*
X160116766Y-419171618D01*
X160286504Y-419425649D01*
X160389123Y-419673395D01*
X160403421Y-419707914D01*
X160446662Y-419925298D01*
X160463025Y-420007563D01*
X160463025Y-420313083D01*
X160403421Y-420612733D01*
X160286504Y-420894997D01*
X160116766Y-421149028D01*
X159900730Y-421365064D01*
X159646699Y-421534802D01*
X159364435Y-421651719D01*
X159277929Y-421668926D01*
X159064786Y-421711323D01*
X158759264Y-421711323D01*
X158546121Y-421668926D01*
X158459615Y-421651719D01*
X158177351Y-421534802D01*
X157923320Y-421365064D01*
X157707284Y-421149028D01*
X157537546Y-420894997D01*
X157420629Y-420612733D01*
X157361025Y-420313083D01*
X157361025Y-420007563D01*
X157377389Y-419925298D01*
X157420629Y-419707914D01*
X157434927Y-419673395D01*
X157537546Y-419425649D01*
X157707284Y-419171618D01*
X157923320Y-418955582D01*
X158177351Y-418785844D01*
X158459615Y-418668927D01*
X158609440Y-418639125D01*
X158759264Y-418609323D01*
X159064786Y-418609323D01*
X159214610Y-418639125D01*
X159214610Y-418639125D01*
G37*
G36*
X182927001Y-417712669D02*
G01*
X183093598Y-417781676D01*
X183248303Y-417845757D01*
X183537465Y-418038969D01*
X183783378Y-418284882D01*
X183932743Y-418508422D01*
X183976591Y-418574046D01*
X184109678Y-418895346D01*
X184177525Y-419236434D01*
X184177525Y-419584210D01*
X184109678Y-419925298D01*
X184032809Y-420110876D01*
X183976590Y-420246600D01*
X183783378Y-420535762D01*
X183537465Y-420781675D01*
X183248303Y-420974887D01*
X183248302Y-420974888D01*
X183248301Y-420974888D01*
X182927001Y-421107975D01*
X182585913Y-421175822D01*
X182238137Y-421175822D01*
X181897049Y-421107975D01*
X181575749Y-420974888D01*
X181575748Y-420974888D01*
X181575747Y-420974887D01*
X181286585Y-420781675D01*
X181040672Y-420535762D01*
X180847460Y-420246600D01*
X180791241Y-420110876D01*
X180714372Y-419925298D01*
X180646525Y-419584210D01*
X180646525Y-419236434D01*
X180714372Y-418895346D01*
X180847459Y-418574046D01*
X180891308Y-418508422D01*
X181040672Y-418284882D01*
X181286585Y-418038969D01*
X181575747Y-417845757D01*
X181730452Y-417781676D01*
X181897049Y-417712669D01*
X182238137Y-417644822D01*
X182585913Y-417644822D01*
X182927001Y-417712669D01*
X182927001Y-417712669D01*
G37*
G36*
X177087977Y-418525752D02*
G01*
X177175100Y-418543081D01*
X177284523Y-418588406D01*
X177339236Y-418611069D01*
X177425827Y-418668927D01*
X177486953Y-418709770D01*
X177612577Y-418835394D01*
X177612579Y-418835397D01*
X177711278Y-418983111D01*
X177711278Y-418983112D01*
X177779266Y-419147247D01*
X177813925Y-419321493D01*
X177813925Y-419499151D01*
X177779266Y-419673397D01*
X177764968Y-419707914D01*
X177711278Y-419837533D01*
X177652635Y-419925299D01*
X177612577Y-419985250D01*
X177486953Y-420110874D01*
X177486950Y-420110876D01*
X177339236Y-420209575D01*
X177284523Y-420232238D01*
X177175100Y-420277563D01*
X177087977Y-420294893D01*
X177000856Y-420312222D01*
X176823194Y-420312222D01*
X176736073Y-420294892D01*
X176648950Y-420277563D01*
X176539527Y-420232238D01*
X176484814Y-420209575D01*
X176337100Y-420110876D01*
X176337097Y-420110874D01*
X176211473Y-419985250D01*
X176171415Y-419925299D01*
X176112772Y-419837533D01*
X176059082Y-419707914D01*
X176044784Y-419673397D01*
X176010125Y-419499151D01*
X176010125Y-419321493D01*
X176044784Y-419147247D01*
X176112772Y-418983112D01*
X176112772Y-418983111D01*
X176211471Y-418835397D01*
X176211473Y-418835394D01*
X176337097Y-418709770D01*
X176398223Y-418668927D01*
X176484814Y-418611069D01*
X176539527Y-418588406D01*
X176648950Y-418543081D01*
X176736073Y-418525752D01*
X176823194Y-418508422D01*
X177000856Y-418508422D01*
X177087977Y-418525752D01*
X177087977Y-418525752D01*
G37*
G36*
X188087977Y-418525752D02*
G01*
X188175100Y-418543081D01*
X188284523Y-418588406D01*
X188339236Y-418611069D01*
X188425827Y-418668927D01*
X188486953Y-418709770D01*
X188612577Y-418835394D01*
X188612579Y-418835397D01*
X188711278Y-418983111D01*
X188711278Y-418983112D01*
X188779266Y-419147247D01*
X188813925Y-419321493D01*
X188813925Y-419499151D01*
X188779266Y-419673397D01*
X188764968Y-419707914D01*
X188711278Y-419837533D01*
X188652635Y-419925299D01*
X188612577Y-419985250D01*
X188486953Y-420110874D01*
X188486950Y-420110876D01*
X188339236Y-420209575D01*
X188284523Y-420232238D01*
X188175100Y-420277563D01*
X188087977Y-420294893D01*
X188000856Y-420312222D01*
X187823194Y-420312222D01*
X187736073Y-420294892D01*
X187648950Y-420277563D01*
X187539527Y-420232238D01*
X187484814Y-420209575D01*
X187337100Y-420110876D01*
X187337097Y-420110874D01*
X187211473Y-419985250D01*
X187171415Y-419925299D01*
X187112772Y-419837533D01*
X187059082Y-419707914D01*
X187044784Y-419673397D01*
X187010125Y-419499151D01*
X187010125Y-419321493D01*
X187044784Y-419147247D01*
X187112772Y-418983112D01*
X187112772Y-418983111D01*
X187211471Y-418835397D01*
X187211473Y-418835394D01*
X187337097Y-418709770D01*
X187398223Y-418668927D01*
X187484814Y-418611069D01*
X187539527Y-418588406D01*
X187648950Y-418543081D01*
X187736073Y-418525752D01*
X187823194Y-418508422D01*
X188000856Y-418508422D01*
X188087977Y-418525752D01*
X188087977Y-418525752D01*
G37*
G36*
X164427001Y-414712670D02*
G01*
X164748301Y-414845757D01*
X164748303Y-414845758D01*
X165037465Y-415038970D01*
X165283378Y-415284883D01*
X165432743Y-415508423D01*
X165476591Y-415574047D01*
X165609678Y-415895347D01*
X165677525Y-416236435D01*
X165677525Y-416584211D01*
X165609678Y-416925299D01*
X165532809Y-417110877D01*
X165476590Y-417246601D01*
X165283378Y-417535763D01*
X165037465Y-417781676D01*
X164748303Y-417974888D01*
X164748302Y-417974889D01*
X164748301Y-417974889D01*
X164427001Y-418107976D01*
X164085913Y-418175823D01*
X163738137Y-418175823D01*
X163397049Y-418107976D01*
X163075749Y-417974889D01*
X163075748Y-417974889D01*
X163075747Y-417974888D01*
X162786585Y-417781676D01*
X162540672Y-417535763D01*
X162347460Y-417246601D01*
X162291241Y-417110877D01*
X162214372Y-416925299D01*
X162146525Y-416584211D01*
X162146525Y-416236435D01*
X162214372Y-415895347D01*
X162347459Y-415574047D01*
X162391308Y-415508423D01*
X162540672Y-415284883D01*
X162786585Y-415038970D01*
X163075747Y-414845758D01*
X163075749Y-414845757D01*
X163397049Y-414712670D01*
X163738137Y-414644823D01*
X164085913Y-414644823D01*
X164427001Y-414712670D01*
X164427001Y-414712670D01*
G37*
G36*
X169587977Y-415525752D02*
G01*
X169675100Y-415543082D01*
X169784523Y-415588407D01*
X169839236Y-415611070D01*
X169985958Y-415709106D01*
X169986953Y-415709771D01*
X170112577Y-415835395D01*
X170112579Y-415835398D01*
X170211278Y-415983112D01*
X170211278Y-415983113D01*
X170279266Y-416147248D01*
X170313925Y-416321494D01*
X170313925Y-416499152D01*
X170279266Y-416673398D01*
X170233941Y-416782821D01*
X170211278Y-416837534D01*
X170152635Y-416925300D01*
X170112577Y-416985251D01*
X169986953Y-417110875D01*
X169986950Y-417110877D01*
X169839236Y-417209576D01*
X169784523Y-417232239D01*
X169675100Y-417277564D01*
X169587977Y-417294894D01*
X169500856Y-417312223D01*
X169323194Y-417312223D01*
X169236073Y-417294894D01*
X169148950Y-417277564D01*
X169039527Y-417232239D01*
X168984814Y-417209576D01*
X168837100Y-417110877D01*
X168837097Y-417110875D01*
X168711473Y-416985251D01*
X168671415Y-416925300D01*
X168612772Y-416837534D01*
X168590109Y-416782821D01*
X168544784Y-416673398D01*
X168510125Y-416499152D01*
X168510125Y-416321494D01*
X168544784Y-416147248D01*
X168612772Y-415983113D01*
X168612772Y-415983112D01*
X168711471Y-415835398D01*
X168711473Y-415835395D01*
X168837097Y-415709771D01*
X168838092Y-415709106D01*
X168984814Y-415611070D01*
X169039527Y-415588407D01*
X169148950Y-415543082D01*
X169236073Y-415525753D01*
X169323194Y-415508423D01*
X169500856Y-415508423D01*
X169587977Y-415525752D01*
X169587977Y-415525752D01*
G37*
G36*
X158587977Y-415525752D02*
G01*
X158675100Y-415543082D01*
X158784523Y-415588407D01*
X158839236Y-415611070D01*
X158985958Y-415709106D01*
X158986953Y-415709771D01*
X159112577Y-415835395D01*
X159112579Y-415835398D01*
X159211278Y-415983112D01*
X159211278Y-415983113D01*
X159279266Y-416147248D01*
X159313925Y-416321494D01*
X159313925Y-416499152D01*
X159279266Y-416673398D01*
X159233941Y-416782821D01*
X159211278Y-416837534D01*
X159152635Y-416925300D01*
X159112577Y-416985251D01*
X158986953Y-417110875D01*
X158986950Y-417110877D01*
X158839236Y-417209576D01*
X158784523Y-417232239D01*
X158675100Y-417277564D01*
X158587977Y-417294894D01*
X158500856Y-417312223D01*
X158323194Y-417312223D01*
X158236073Y-417294894D01*
X158148950Y-417277564D01*
X158039527Y-417232239D01*
X157984814Y-417209576D01*
X157837100Y-417110877D01*
X157837097Y-417110875D01*
X157711473Y-416985251D01*
X157671415Y-416925300D01*
X157612772Y-416837534D01*
X157590109Y-416782821D01*
X157544784Y-416673398D01*
X157510125Y-416499152D01*
X157510125Y-416321494D01*
X157544784Y-416147248D01*
X157612772Y-415983113D01*
X157612772Y-415983112D01*
X157711471Y-415835398D01*
X157711473Y-415835395D01*
X157837097Y-415709771D01*
X157838092Y-415709106D01*
X157984814Y-415611070D01*
X158039527Y-415588407D01*
X158148950Y-415543082D01*
X158236073Y-415525753D01*
X158323194Y-415508423D01*
X158500856Y-415508423D01*
X158587977Y-415525752D01*
X158587977Y-415525752D01*
G37*
G36*
X158691560Y-412189064D02*
G01*
X158843027Y-412219193D01*
X159057045Y-412307842D01*
X159057046Y-412307843D01*
X159249654Y-412436539D01*
X159413461Y-412600346D01*
X159499258Y-412728751D01*
X159542158Y-412792955D01*
X159630807Y-413006973D01*
X159676000Y-413234174D01*
X159676000Y-413465826D01*
X159630807Y-413693027D01*
X159542158Y-413907045D01*
X159542157Y-413907046D01*
X159413461Y-414099654D01*
X159249654Y-414263461D01*
X159121249Y-414349258D01*
X159057045Y-414392158D01*
X158843027Y-414480807D01*
X158691560Y-414510936D01*
X158615827Y-414526000D01*
X158384173Y-414526000D01*
X158308440Y-414510936D01*
X158156973Y-414480807D01*
X157942955Y-414392158D01*
X157878751Y-414349258D01*
X157750346Y-414263461D01*
X157586539Y-414099654D01*
X157457843Y-413907046D01*
X157457842Y-413907045D01*
X157369193Y-413693027D01*
X157324000Y-413465826D01*
X157324000Y-413234174D01*
X157369193Y-413006973D01*
X157457842Y-412792955D01*
X157500742Y-412728751D01*
X157586539Y-412600346D01*
X157750346Y-412436539D01*
X157942954Y-412307843D01*
X157942955Y-412307842D01*
X158156973Y-412219193D01*
X158308440Y-412189064D01*
X158384173Y-412174000D01*
X158615827Y-412174000D01*
X158691560Y-412189064D01*
X158691560Y-412189064D01*
G37*
G36*
X183929454Y-410497529D02*
G01*
X183995639Y-410504048D01*
X184165478Y-410555568D01*
X184322003Y-410639233D01*
X184357741Y-410668563D01*
X184459198Y-410751825D01*
X184542460Y-410853282D01*
X184571790Y-410889020D01*
X184655455Y-411045545D01*
X184706975Y-411215384D01*
X184724371Y-411392011D01*
X184706975Y-411568638D01*
X184655455Y-411738477D01*
X184571790Y-411895002D01*
X184542460Y-411930740D01*
X184459198Y-412032197D01*
X184357741Y-412115459D01*
X184322003Y-412144789D01*
X184165478Y-412228454D01*
X183995639Y-412279974D01*
X183929455Y-412286492D01*
X183863272Y-412293011D01*
X183774752Y-412293011D01*
X183708569Y-412286492D01*
X183642385Y-412279974D01*
X183472546Y-412228454D01*
X183316021Y-412144789D01*
X183280283Y-412115459D01*
X183178826Y-412032197D01*
X183095564Y-411930740D01*
X183066234Y-411895002D01*
X182982569Y-411738477D01*
X182931049Y-411568638D01*
X182913653Y-411392011D01*
X182931049Y-411215384D01*
X182982569Y-411045545D01*
X183066234Y-410889020D01*
X183095564Y-410853282D01*
X183178826Y-410751825D01*
X183280283Y-410668563D01*
X183316021Y-410639233D01*
X183472546Y-410555568D01*
X183642385Y-410504048D01*
X183708570Y-410497529D01*
X183774752Y-410491011D01*
X183863272Y-410491011D01*
X183929454Y-410497529D01*
X183929454Y-410497529D01*
G37*
G36*
X181389454Y-410497529D02*
G01*
X181455639Y-410504048D01*
X181625478Y-410555568D01*
X181782003Y-410639233D01*
X181817741Y-410668563D01*
X181919198Y-410751825D01*
X182002460Y-410853282D01*
X182031790Y-410889020D01*
X182115455Y-411045545D01*
X182166975Y-411215384D01*
X182184371Y-411392011D01*
X182166975Y-411568638D01*
X182115455Y-411738477D01*
X182031790Y-411895002D01*
X182002460Y-411930740D01*
X181919198Y-412032197D01*
X181817741Y-412115459D01*
X181782003Y-412144789D01*
X181625478Y-412228454D01*
X181455639Y-412279974D01*
X181389455Y-412286492D01*
X181323272Y-412293011D01*
X181234752Y-412293011D01*
X181168569Y-412286492D01*
X181102385Y-412279974D01*
X180932546Y-412228454D01*
X180776021Y-412144789D01*
X180740283Y-412115459D01*
X180638826Y-412032197D01*
X180555564Y-411930740D01*
X180526234Y-411895002D01*
X180442569Y-411738477D01*
X180391049Y-411568638D01*
X180373653Y-411392011D01*
X180391049Y-411215384D01*
X180442569Y-411045545D01*
X180526234Y-410889020D01*
X180555564Y-410853282D01*
X180638826Y-410751825D01*
X180740283Y-410668563D01*
X180776021Y-410639233D01*
X180932546Y-410555568D01*
X181102385Y-410504048D01*
X181168570Y-410497529D01*
X181234752Y-410491011D01*
X181323272Y-410491011D01*
X181389454Y-410497529D01*
X181389454Y-410497529D01*
G37*
G36*
X178849454Y-410497529D02*
G01*
X178915639Y-410504048D01*
X179085478Y-410555568D01*
X179242003Y-410639233D01*
X179277741Y-410668563D01*
X179379198Y-410751825D01*
X179462460Y-410853282D01*
X179491790Y-410889020D01*
X179575455Y-411045545D01*
X179626975Y-411215384D01*
X179644371Y-411392011D01*
X179626975Y-411568638D01*
X179575455Y-411738477D01*
X179491790Y-411895002D01*
X179462460Y-411930740D01*
X179379198Y-412032197D01*
X179277741Y-412115459D01*
X179242003Y-412144789D01*
X179085478Y-412228454D01*
X178915639Y-412279974D01*
X178849455Y-412286492D01*
X178783272Y-412293011D01*
X178694752Y-412293011D01*
X178628569Y-412286492D01*
X178562385Y-412279974D01*
X178392546Y-412228454D01*
X178236021Y-412144789D01*
X178200283Y-412115459D01*
X178098826Y-412032197D01*
X178015564Y-411930740D01*
X177986234Y-411895002D01*
X177902569Y-411738477D01*
X177851049Y-411568638D01*
X177833653Y-411392011D01*
X177851049Y-411215384D01*
X177902569Y-411045545D01*
X177986234Y-410889020D01*
X178015564Y-410853282D01*
X178098826Y-410751825D01*
X178200283Y-410668563D01*
X178236021Y-410639233D01*
X178392546Y-410555568D01*
X178562385Y-410504048D01*
X178628570Y-410497529D01*
X178694752Y-410491011D01*
X178783272Y-410491011D01*
X178849454Y-410497529D01*
X178849454Y-410497529D01*
G37*
G36*
X187260012Y-412293011D02*
G01*
X185458012Y-412293011D01*
X185458012Y-410491011D01*
X187260012Y-410491011D01*
X187260012Y-412293011D01*
X187260012Y-412293011D01*
G37*
G36*
X157831552Y-410391331D02*
G01*
X157913627Y-410425328D01*
X157913629Y-410425329D01*
X157950813Y-410450175D01*
X157987495Y-410474685D01*
X158050315Y-410537505D01*
X158099672Y-410611373D01*
X158133669Y-410693448D01*
X158151000Y-410780579D01*
X158151000Y-410869421D01*
X158133669Y-410956552D01*
X158099672Y-411038627D01*
X158099671Y-411038629D01*
X158050314Y-411112496D01*
X157987496Y-411175314D01*
X157913629Y-411224671D01*
X157913628Y-411224672D01*
X157913627Y-411224672D01*
X157831552Y-411258669D01*
X157744421Y-411276000D01*
X157655579Y-411276000D01*
X157568448Y-411258669D01*
X157486373Y-411224672D01*
X157486372Y-411224672D01*
X157486371Y-411224671D01*
X157412504Y-411175314D01*
X157349686Y-411112496D01*
X157300329Y-411038629D01*
X157300328Y-411038627D01*
X157266331Y-410956552D01*
X157249000Y-410869421D01*
X157249000Y-410780579D01*
X157266331Y-410693448D01*
X157300328Y-410611373D01*
X157349685Y-410537505D01*
X157412505Y-410474685D01*
X157449187Y-410450175D01*
X157486371Y-410425329D01*
X157486373Y-410425328D01*
X157568448Y-410391331D01*
X157655579Y-410374000D01*
X157744421Y-410374000D01*
X157831552Y-410391331D01*
X157831552Y-410391331D01*
G37*
G36*
X164831552Y-410391331D02*
G01*
X164913627Y-410425328D01*
X164913629Y-410425329D01*
X164950813Y-410450175D01*
X164987495Y-410474685D01*
X165050315Y-410537505D01*
X165099672Y-410611373D01*
X165133669Y-410693448D01*
X165151000Y-410780579D01*
X165151000Y-410869421D01*
X165133669Y-410956552D01*
X165099672Y-411038627D01*
X165099671Y-411038629D01*
X165050314Y-411112496D01*
X164987496Y-411175314D01*
X164913629Y-411224671D01*
X164913628Y-411224672D01*
X164913627Y-411224672D01*
X164831552Y-411258669D01*
X164744421Y-411276000D01*
X164655579Y-411276000D01*
X164568448Y-411258669D01*
X164486373Y-411224672D01*
X164486372Y-411224672D01*
X164486371Y-411224671D01*
X164412504Y-411175314D01*
X164349686Y-411112496D01*
X164300329Y-411038629D01*
X164300328Y-411038627D01*
X164266331Y-410956552D01*
X164249000Y-410869421D01*
X164249000Y-410780579D01*
X164266331Y-410693448D01*
X164300328Y-410611373D01*
X164349685Y-410537505D01*
X164412505Y-410474685D01*
X164449187Y-410450175D01*
X164486371Y-410425329D01*
X164486373Y-410425328D01*
X164568448Y-410391331D01*
X164655579Y-410374000D01*
X164744421Y-410374000D01*
X164831552Y-410391331D01*
X164831552Y-410391331D01*
G37*
G36*
X166202585Y-406903802D02*
G01*
X166352410Y-406933604D01*
X166634674Y-407050521D01*
X166888705Y-407220259D01*
X167104741Y-407436295D01*
X167274479Y-407690326D01*
X167391396Y-407972590D01*
X167399451Y-408013084D01*
X167451000Y-408272239D01*
X167451000Y-408577761D01*
X167438018Y-408643025D01*
X167391396Y-408877410D01*
X167274479Y-409159674D01*
X167104741Y-409413705D01*
X166888705Y-409629741D01*
X166634674Y-409799479D01*
X166352410Y-409916396D01*
X166202585Y-409946198D01*
X166052761Y-409976000D01*
X165747239Y-409976000D01*
X165597415Y-409946198D01*
X165447590Y-409916396D01*
X165165326Y-409799479D01*
X164911295Y-409629741D01*
X164695259Y-409413705D01*
X164525521Y-409159674D01*
X164408604Y-408877410D01*
X164361982Y-408643025D01*
X164349000Y-408577761D01*
X164349000Y-408272239D01*
X164400549Y-408013084D01*
X164408604Y-407972590D01*
X164525521Y-407690326D01*
X164695259Y-407436295D01*
X164911295Y-407220259D01*
X165165326Y-407050521D01*
X165447590Y-406933604D01*
X165597415Y-406903802D01*
X165747239Y-406874000D01*
X166052761Y-406874000D01*
X166202585Y-406903802D01*
X166202585Y-406903802D01*
G37*
G36*
X156791560Y-407139064D02*
G01*
X156943027Y-407169193D01*
X157157045Y-407257842D01*
X157157046Y-407257843D01*
X157349654Y-407386539D01*
X157513461Y-407550346D01*
X157599258Y-407678751D01*
X157642158Y-407742955D01*
X157730807Y-407956973D01*
X157776000Y-408184174D01*
X157776000Y-408415826D01*
X157730807Y-408643027D01*
X157642158Y-408857045D01*
X157642157Y-408857046D01*
X157513461Y-409049654D01*
X157349654Y-409213461D01*
X157221249Y-409299258D01*
X157157045Y-409342158D01*
X156943027Y-409430807D01*
X156791560Y-409460936D01*
X156715827Y-409476000D01*
X156484173Y-409476000D01*
X156408440Y-409460936D01*
X156256973Y-409430807D01*
X156042955Y-409342158D01*
X155978751Y-409299258D01*
X155850346Y-409213461D01*
X155686539Y-409049654D01*
X155557843Y-408857046D01*
X155557842Y-408857045D01*
X155469193Y-408643027D01*
X155424000Y-408415826D01*
X155424000Y-408184174D01*
X155469193Y-407956973D01*
X155557842Y-407742955D01*
X155600742Y-407678751D01*
X155686539Y-407550346D01*
X155850346Y-407386539D01*
X156042954Y-407257843D01*
X156042955Y-407257842D01*
X156256973Y-407169193D01*
X156408440Y-407139064D01*
X156484173Y-407124000D01*
X156715827Y-407124000D01*
X156791560Y-407139064D01*
X156791560Y-407139064D01*
G37*
G36*
X182714610Y-406339125D02*
G01*
X182864435Y-406368927D01*
X183146699Y-406485844D01*
X183400730Y-406655582D01*
X183616766Y-406871618D01*
X183786504Y-407125649D01*
X183903421Y-407407913D01*
X183909067Y-407436296D01*
X183959597Y-407690326D01*
X183963025Y-407707563D01*
X183963025Y-408013083D01*
X183903421Y-408312733D01*
X183786504Y-408594997D01*
X183616766Y-408849028D01*
X183400730Y-409065064D01*
X183146699Y-409234802D01*
X182864435Y-409351719D01*
X182714610Y-409381521D01*
X182564786Y-409411323D01*
X182259264Y-409411323D01*
X182109440Y-409381521D01*
X181959615Y-409351719D01*
X181677351Y-409234802D01*
X181423320Y-409065064D01*
X181207284Y-408849028D01*
X181037546Y-408594997D01*
X180920629Y-408312733D01*
X180861025Y-408013083D01*
X180861025Y-407707563D01*
X180864454Y-407690326D01*
X180914983Y-407436296D01*
X180920629Y-407407913D01*
X181037546Y-407125649D01*
X181207284Y-406871618D01*
X181423320Y-406655582D01*
X181677351Y-406485844D01*
X181959615Y-406368927D01*
X182109440Y-406339125D01*
X182259264Y-406309323D01*
X182564786Y-406309323D01*
X182714610Y-406339125D01*
X182714610Y-406339125D01*
G37*
G36*
X177714610Y-404139125D02*
G01*
X177864435Y-404168927D01*
X178146699Y-404285844D01*
X178400730Y-404455582D01*
X178616766Y-404671618D01*
X178786504Y-404925649D01*
X178903421Y-405207913D01*
X178963025Y-405507563D01*
X178963025Y-405813083D01*
X178903421Y-406112733D01*
X178786504Y-406394997D01*
X178616766Y-406649028D01*
X178400730Y-406865064D01*
X178146699Y-407034802D01*
X177864435Y-407151719D01*
X177776587Y-407169193D01*
X177564786Y-407211323D01*
X177259264Y-407211323D01*
X177047463Y-407169193D01*
X176959615Y-407151719D01*
X176677351Y-407034802D01*
X176423320Y-406865064D01*
X176207284Y-406649028D01*
X176037546Y-406394997D01*
X175920629Y-406112733D01*
X175861025Y-405813083D01*
X175861025Y-405507563D01*
X175920629Y-405207913D01*
X176037546Y-404925649D01*
X176207284Y-404671618D01*
X176423320Y-404455582D01*
X176677351Y-404285844D01*
X176959615Y-404168927D01*
X177109440Y-404139125D01*
X177259264Y-404109323D01*
X177564786Y-404109323D01*
X177714610Y-404139125D01*
X177714610Y-404139125D01*
G37*
G36*
X164214611Y-403339124D02*
G01*
X164364436Y-403368926D01*
X164646700Y-403485843D01*
X164900731Y-403655581D01*
X165116767Y-403871617D01*
X165286505Y-404125648D01*
X165403422Y-404407912D01*
X165463026Y-404707562D01*
X165463026Y-405013082D01*
X165403422Y-405312732D01*
X165286505Y-405594996D01*
X165116767Y-405849027D01*
X164900731Y-406065063D01*
X164646700Y-406234801D01*
X164364436Y-406351718D01*
X164277920Y-406368927D01*
X164064787Y-406411322D01*
X163759265Y-406411322D01*
X163546132Y-406368927D01*
X163459616Y-406351718D01*
X163177352Y-406234801D01*
X162923321Y-406065063D01*
X162707285Y-405849027D01*
X162537547Y-405594996D01*
X162420630Y-405312732D01*
X162361026Y-405013082D01*
X162361026Y-404707562D01*
X162420630Y-404407912D01*
X162537547Y-404125648D01*
X162707285Y-403871617D01*
X162923321Y-403655581D01*
X163177352Y-403485843D01*
X163459616Y-403368926D01*
X163609441Y-403339124D01*
X163759265Y-403309322D01*
X164064787Y-403309322D01*
X164214611Y-403339124D01*
X164214611Y-403339124D01*
G37*
G36*
X159214611Y-401139124D02*
G01*
X159364436Y-401168926D01*
X159646700Y-401285843D01*
X159900731Y-401455581D01*
X160116767Y-401671617D01*
X160286505Y-401925648D01*
X160403422Y-402207912D01*
X160403422Y-402207913D01*
X160458588Y-402485248D01*
X160463026Y-402507562D01*
X160463026Y-402813082D01*
X160403422Y-403112732D01*
X160286505Y-403394996D01*
X160116767Y-403649027D01*
X159900731Y-403865063D01*
X159646700Y-404034801D01*
X159364436Y-404151718D01*
X159277920Y-404168927D01*
X159064787Y-404211322D01*
X158759265Y-404211322D01*
X158546132Y-404168927D01*
X158459616Y-404151718D01*
X158177352Y-404034801D01*
X157923321Y-403865063D01*
X157707285Y-403649027D01*
X157537547Y-403394996D01*
X157420630Y-403112732D01*
X157361026Y-402813082D01*
X157361026Y-402507562D01*
X157365465Y-402485248D01*
X157420630Y-402207913D01*
X157420630Y-402207912D01*
X157537547Y-401925648D01*
X157707285Y-401671617D01*
X157923321Y-401455581D01*
X158177352Y-401285843D01*
X158459616Y-401168926D01*
X158609441Y-401139124D01*
X158759265Y-401109322D01*
X159064787Y-401109322D01*
X159214611Y-401139124D01*
X159214611Y-401139124D01*
G37*
G36*
X182927001Y-400212670D02*
G01*
X183248301Y-400345757D01*
X183248303Y-400345758D01*
X183537465Y-400538970D01*
X183783378Y-400784883D01*
X183932743Y-401008423D01*
X183976591Y-401074047D01*
X184109678Y-401395347D01*
X184177525Y-401736435D01*
X184177525Y-402084211D01*
X184109678Y-402425299D01*
X184032809Y-402610877D01*
X183976590Y-402746601D01*
X183783378Y-403035763D01*
X183537465Y-403281676D01*
X183248303Y-403474888D01*
X183248302Y-403474889D01*
X183248301Y-403474889D01*
X182927001Y-403607976D01*
X182585913Y-403675823D01*
X182238137Y-403675823D01*
X181897049Y-403607976D01*
X181575749Y-403474889D01*
X181575748Y-403474889D01*
X181575747Y-403474888D01*
X181286585Y-403281676D01*
X181040672Y-403035763D01*
X180847460Y-402746601D01*
X180791241Y-402610877D01*
X180714372Y-402425299D01*
X180646525Y-402084211D01*
X180646525Y-401736435D01*
X180714372Y-401395347D01*
X180847459Y-401074047D01*
X180891308Y-401008423D01*
X181040672Y-400784883D01*
X181286585Y-400538970D01*
X181575747Y-400345758D01*
X181575749Y-400345757D01*
X181897049Y-400212670D01*
X182238137Y-400144823D01*
X182585913Y-400144823D01*
X182927001Y-400212670D01*
X182927001Y-400212670D01*
G37*
G36*
X188087977Y-401025753D02*
G01*
X188175100Y-401043082D01*
X188284523Y-401088407D01*
X188339236Y-401111070D01*
X188425824Y-401168926D01*
X188486953Y-401209771D01*
X188612577Y-401335395D01*
X188612579Y-401335398D01*
X188711278Y-401483112D01*
X188711278Y-401483113D01*
X188779266Y-401647248D01*
X188813925Y-401821494D01*
X188813925Y-401999152D01*
X188779266Y-402173398D01*
X188764969Y-402207913D01*
X188711278Y-402337534D01*
X188652635Y-402425300D01*
X188612577Y-402485251D01*
X188486953Y-402610875D01*
X188486950Y-402610877D01*
X188339236Y-402709576D01*
X188284523Y-402732239D01*
X188175100Y-402777564D01*
X188087977Y-402794894D01*
X188000856Y-402812223D01*
X187823194Y-402812223D01*
X187736073Y-402794893D01*
X187648950Y-402777564D01*
X187539527Y-402732239D01*
X187484814Y-402709576D01*
X187337100Y-402610877D01*
X187337097Y-402610875D01*
X187211473Y-402485251D01*
X187171415Y-402425300D01*
X187112772Y-402337534D01*
X187059081Y-402207913D01*
X187044784Y-402173398D01*
X187010125Y-401999152D01*
X187010125Y-401821494D01*
X187044784Y-401647248D01*
X187112772Y-401483113D01*
X187112772Y-401483112D01*
X187211471Y-401335398D01*
X187211473Y-401335395D01*
X187337097Y-401209771D01*
X187398226Y-401168926D01*
X187484814Y-401111070D01*
X187539527Y-401088407D01*
X187648950Y-401043082D01*
X187736073Y-401025753D01*
X187823194Y-401008423D01*
X188000856Y-401008423D01*
X188087977Y-401025753D01*
X188087977Y-401025753D01*
G37*
G36*
X177087977Y-401025753D02*
G01*
X177175100Y-401043082D01*
X177284523Y-401088407D01*
X177339236Y-401111070D01*
X177425824Y-401168926D01*
X177486953Y-401209771D01*
X177612577Y-401335395D01*
X177612579Y-401335398D01*
X177711278Y-401483112D01*
X177711278Y-401483113D01*
X177779266Y-401647248D01*
X177813925Y-401821494D01*
X177813925Y-401999152D01*
X177779266Y-402173398D01*
X177764969Y-402207913D01*
X177711278Y-402337534D01*
X177652635Y-402425300D01*
X177612577Y-402485251D01*
X177486953Y-402610875D01*
X177486950Y-402610877D01*
X177339236Y-402709576D01*
X177284523Y-402732239D01*
X177175100Y-402777564D01*
X177087977Y-402794894D01*
X177000856Y-402812223D01*
X176823194Y-402812223D01*
X176736073Y-402794893D01*
X176648950Y-402777564D01*
X176539527Y-402732239D01*
X176484814Y-402709576D01*
X176337100Y-402610877D01*
X176337097Y-402610875D01*
X176211473Y-402485251D01*
X176171415Y-402425300D01*
X176112772Y-402337534D01*
X176059081Y-402207913D01*
X176044784Y-402173398D01*
X176010125Y-401999152D01*
X176010125Y-401821494D01*
X176044784Y-401647248D01*
X176112772Y-401483113D01*
X176112772Y-401483112D01*
X176211471Y-401335398D01*
X176211473Y-401335395D01*
X176337097Y-401209771D01*
X176398226Y-401168926D01*
X176484814Y-401111070D01*
X176539527Y-401088407D01*
X176648950Y-401043082D01*
X176736073Y-401025753D01*
X176823194Y-401008423D01*
X177000856Y-401008423D01*
X177087977Y-401025753D01*
X177087977Y-401025753D01*
G37*
G36*
X156359726Y-400881794D02*
G01*
X154557726Y-400881794D01*
X154557726Y-399079794D01*
X156359726Y-399079794D01*
X156359726Y-400881794D01*
X156359726Y-400881794D01*
G37*
G36*
X164427002Y-397212669D02*
G01*
X164748302Y-397345756D01*
X164748304Y-397345757D01*
X165037466Y-397538969D01*
X165283379Y-397784882D01*
X165432744Y-398008422D01*
X165476592Y-398074046D01*
X165609679Y-398395346D01*
X165677526Y-398736434D01*
X165677526Y-399084210D01*
X165609679Y-399425298D01*
X165532810Y-399610876D01*
X165476591Y-399746600D01*
X165283379Y-400035762D01*
X165037466Y-400281675D01*
X164748304Y-400474887D01*
X164748303Y-400474888D01*
X164748302Y-400474888D01*
X164427002Y-400607975D01*
X164085914Y-400675822D01*
X163738138Y-400675822D01*
X163397050Y-400607975D01*
X163075750Y-400474888D01*
X163075749Y-400474888D01*
X163075748Y-400474887D01*
X162786586Y-400281675D01*
X162540673Y-400035762D01*
X162347461Y-399746600D01*
X162291242Y-399610876D01*
X162214373Y-399425298D01*
X162146526Y-399084210D01*
X162146526Y-398736434D01*
X162214373Y-398395346D01*
X162347460Y-398074046D01*
X162391309Y-398008422D01*
X162540673Y-397784882D01*
X162786586Y-397538969D01*
X163075748Y-397345757D01*
X163075750Y-397345756D01*
X163397050Y-397212669D01*
X163738138Y-397144822D01*
X164085914Y-397144822D01*
X164427002Y-397212669D01*
X164427002Y-397212669D01*
G37*
G36*
X158587978Y-398025751D02*
G01*
X158675101Y-398043081D01*
X158766593Y-398080979D01*
X158839237Y-398111069D01*
X158962712Y-398193572D01*
X158986954Y-398209770D01*
X159112578Y-398335394D01*
X159112580Y-398335397D01*
X159211279Y-398483111D01*
X159211279Y-398483112D01*
X159279267Y-398647247D01*
X159313926Y-398821493D01*
X159313926Y-398999151D01*
X159279267Y-399173397D01*
X159233942Y-399282820D01*
X159211279Y-399337533D01*
X159152636Y-399425299D01*
X159112578Y-399485250D01*
X158986954Y-399610874D01*
X158986951Y-399610876D01*
X158839237Y-399709575D01*
X158784524Y-399732238D01*
X158675101Y-399777563D01*
X158587978Y-399794893D01*
X158500857Y-399812222D01*
X158323195Y-399812222D01*
X158236074Y-399794893D01*
X158148951Y-399777563D01*
X158039528Y-399732238D01*
X157984815Y-399709575D01*
X157837101Y-399610876D01*
X157837098Y-399610874D01*
X157711474Y-399485250D01*
X157671416Y-399425299D01*
X157612773Y-399337533D01*
X157590110Y-399282820D01*
X157544785Y-399173397D01*
X157510126Y-398999151D01*
X157510126Y-398821493D01*
X157544785Y-398647247D01*
X157612773Y-398483112D01*
X157612773Y-398483111D01*
X157711472Y-398335397D01*
X157711474Y-398335394D01*
X157837098Y-398209770D01*
X157861340Y-398193572D01*
X157984815Y-398111069D01*
X158057459Y-398080979D01*
X158148951Y-398043081D01*
X158236074Y-398025752D01*
X158323195Y-398008422D01*
X158500857Y-398008422D01*
X158587978Y-398025751D01*
X158587978Y-398025751D01*
G37*
G36*
X169587978Y-398025751D02*
G01*
X169675101Y-398043081D01*
X169766593Y-398080979D01*
X169839237Y-398111069D01*
X169962712Y-398193572D01*
X169986954Y-398209770D01*
X170112578Y-398335394D01*
X170112580Y-398335397D01*
X170211279Y-398483111D01*
X170211279Y-398483112D01*
X170279267Y-398647247D01*
X170313926Y-398821493D01*
X170313926Y-398999151D01*
X170279267Y-399173397D01*
X170233942Y-399282820D01*
X170211279Y-399337533D01*
X170152636Y-399425299D01*
X170112578Y-399485250D01*
X169986954Y-399610874D01*
X169986951Y-399610876D01*
X169839237Y-399709575D01*
X169784524Y-399732238D01*
X169675101Y-399777563D01*
X169587978Y-399794893D01*
X169500857Y-399812222D01*
X169323195Y-399812222D01*
X169236074Y-399794893D01*
X169148951Y-399777563D01*
X169039528Y-399732238D01*
X168984815Y-399709575D01*
X168837101Y-399610876D01*
X168837098Y-399610874D01*
X168711474Y-399485250D01*
X168671416Y-399425299D01*
X168612773Y-399337533D01*
X168590110Y-399282820D01*
X168544785Y-399173397D01*
X168510126Y-398999151D01*
X168510126Y-398821493D01*
X168544785Y-398647247D01*
X168612773Y-398483112D01*
X168612773Y-398483111D01*
X168711472Y-398335397D01*
X168711474Y-398335394D01*
X168837098Y-398209770D01*
X168861340Y-398193572D01*
X168984815Y-398111069D01*
X169057459Y-398080979D01*
X169148951Y-398043081D01*
X169236074Y-398025752D01*
X169323195Y-398008422D01*
X169500857Y-398008422D01*
X169587978Y-398025751D01*
X169587978Y-398025751D01*
G37*
G36*
X155569168Y-396546312D02*
G01*
X155635353Y-396552831D01*
X155805192Y-396604351D01*
X155961717Y-396688016D01*
X155997455Y-396717346D01*
X156098912Y-396800608D01*
X156182174Y-396902065D01*
X156211504Y-396937803D01*
X156295169Y-397094328D01*
X156346689Y-397264167D01*
X156364085Y-397440794D01*
X156346689Y-397617421D01*
X156295169Y-397787260D01*
X156211504Y-397943785D01*
X156182174Y-397979523D01*
X156098912Y-398080980D01*
X155997455Y-398164242D01*
X155961717Y-398193572D01*
X155805192Y-398277237D01*
X155635353Y-398328757D01*
X155569169Y-398335275D01*
X155502986Y-398341794D01*
X155414466Y-398341794D01*
X155348283Y-398335275D01*
X155282099Y-398328757D01*
X155112260Y-398277237D01*
X154955735Y-398193572D01*
X154919997Y-398164242D01*
X154818540Y-398080980D01*
X154735278Y-397979523D01*
X154705948Y-397943785D01*
X154622283Y-397787260D01*
X154570763Y-397617421D01*
X154553367Y-397440794D01*
X154570763Y-397264167D01*
X154622283Y-397094328D01*
X154705948Y-396937803D01*
X154735278Y-396902065D01*
X154818540Y-396800608D01*
X154919997Y-396717346D01*
X154955735Y-396688016D01*
X155112260Y-396604351D01*
X155282099Y-396552831D01*
X155348284Y-396546312D01*
X155414466Y-396539794D01*
X155502986Y-396539794D01*
X155569168Y-396546312D01*
X155569168Y-396546312D01*
G37*
G36*
X164288213Y-394226249D02*
G01*
X164382652Y-394254897D01*
X164469687Y-394301418D01*
X164545975Y-394364025D01*
X164608582Y-394440313D01*
X164655103Y-394527348D01*
X164683751Y-394621787D01*
X164691000Y-394695388D01*
X164691000Y-395844612D01*
X164683751Y-395918213D01*
X164655103Y-396012652D01*
X164608582Y-396099687D01*
X164545975Y-396175975D01*
X164469687Y-396238582D01*
X164382651Y-396285103D01*
X164288212Y-396313751D01*
X164190000Y-396323424D01*
X164091787Y-396313751D01*
X163997348Y-396285103D01*
X163910313Y-396238582D01*
X163834025Y-396175975D01*
X163771418Y-396099687D01*
X163724897Y-396012651D01*
X163696249Y-395918212D01*
X163689000Y-395844611D01*
X163689001Y-394695388D01*
X163696250Y-394621787D01*
X163724898Y-394527348D01*
X163771419Y-394440313D01*
X163834026Y-394364025D01*
X163910314Y-394301418D01*
X163997349Y-394254897D01*
X164091788Y-394226249D01*
X164190000Y-394216576D01*
X164288213Y-394226249D01*
X164288213Y-394226249D01*
G37*
G36*
X172928213Y-394226249D02*
G01*
X173022652Y-394254897D01*
X173109687Y-394301418D01*
X173185975Y-394364025D01*
X173248582Y-394440313D01*
X173295103Y-394527348D01*
X173323751Y-394621787D01*
X173331000Y-394695388D01*
X173331000Y-395844612D01*
X173323751Y-395918213D01*
X173295103Y-396012652D01*
X173248582Y-396099687D01*
X173185975Y-396175975D01*
X173109687Y-396238582D01*
X173022651Y-396285103D01*
X172928212Y-396313751D01*
X172830000Y-396323424D01*
X172731787Y-396313751D01*
X172637348Y-396285103D01*
X172550313Y-396238582D01*
X172474025Y-396175975D01*
X172411418Y-396099687D01*
X172364897Y-396012651D01*
X172336249Y-395918212D01*
X172329000Y-395844611D01*
X172329001Y-394695388D01*
X172336250Y-394621787D01*
X172364898Y-394527348D01*
X172411419Y-394440313D01*
X172474026Y-394364025D01*
X172550314Y-394301418D01*
X172637349Y-394254897D01*
X172731788Y-394226249D01*
X172830000Y-394216576D01*
X172928213Y-394226249D01*
X172928213Y-394226249D01*
G37*
G36*
X155569169Y-394006313D02*
G01*
X155635353Y-394012831D01*
X155805192Y-394064351D01*
X155961717Y-394148016D01*
X155997455Y-394177346D01*
X156098912Y-394260608D01*
X156182174Y-394362065D01*
X156211504Y-394397803D01*
X156295169Y-394554328D01*
X156346689Y-394724167D01*
X156364085Y-394900794D01*
X156346689Y-395077421D01*
X156295169Y-395247260D01*
X156211504Y-395403785D01*
X156182174Y-395439523D01*
X156098912Y-395540980D01*
X155997455Y-395624242D01*
X155961717Y-395653572D01*
X155805192Y-395737237D01*
X155635353Y-395788757D01*
X155569168Y-395795276D01*
X155502986Y-395801794D01*
X155414466Y-395801794D01*
X155348284Y-395795276D01*
X155282099Y-395788757D01*
X155112260Y-395737237D01*
X154955735Y-395653572D01*
X154919997Y-395624242D01*
X154818540Y-395540980D01*
X154735278Y-395439523D01*
X154705948Y-395403785D01*
X154622283Y-395247260D01*
X154570763Y-395077421D01*
X154553367Y-394900794D01*
X154570763Y-394724167D01*
X154622283Y-394554328D01*
X154705948Y-394397803D01*
X154735278Y-394362065D01*
X154818540Y-394260608D01*
X154919997Y-394177346D01*
X154955735Y-394148016D01*
X155112260Y-394064351D01*
X155282099Y-394012831D01*
X155348283Y-394006313D01*
X155414466Y-393999794D01*
X155502986Y-393999794D01*
X155569169Y-394006313D01*
X155569169Y-394006313D01*
G37*
G36*
X171502383Y-394452489D02*
G01*
X171502386Y-394452490D01*
X171502385Y-394452490D01*
X171566258Y-394478946D01*
X171623748Y-394517360D01*
X171672640Y-394566252D01*
X171711054Y-394623742D01*
X171732624Y-394675818D01*
X171737511Y-394687617D01*
X171751000Y-394755430D01*
X171751000Y-394824570D01*
X171737511Y-394892383D01*
X171737510Y-394892385D01*
X171711054Y-394956258D01*
X171672640Y-395013748D01*
X171623748Y-395062640D01*
X171566258Y-395101054D01*
X171514182Y-395122624D01*
X171502383Y-395127511D01*
X171434570Y-395141000D01*
X171365430Y-395141000D01*
X171297617Y-395127511D01*
X171285818Y-395122624D01*
X171233742Y-395101054D01*
X171176252Y-395062640D01*
X171127360Y-395013748D01*
X171088946Y-394956258D01*
X171062490Y-394892385D01*
X171062489Y-394892383D01*
X171049000Y-394824570D01*
X171049000Y-394755430D01*
X171062489Y-394687617D01*
X171067376Y-394675818D01*
X171088946Y-394623742D01*
X171127360Y-394566252D01*
X171176252Y-394517360D01*
X171233742Y-394478946D01*
X171297615Y-394452490D01*
X171297614Y-394452490D01*
X171297617Y-394452489D01*
X171365430Y-394439000D01*
X171434570Y-394439000D01*
X171502383Y-394452489D01*
X171502383Y-394452489D01*
G37*
G36*
X165722383Y-394452489D02*
G01*
X165722386Y-394452490D01*
X165722385Y-394452490D01*
X165786258Y-394478946D01*
X165843748Y-394517360D01*
X165892640Y-394566252D01*
X165931054Y-394623742D01*
X165952624Y-394675818D01*
X165957511Y-394687617D01*
X165971000Y-394755430D01*
X165971000Y-394824570D01*
X165957511Y-394892383D01*
X165957510Y-394892385D01*
X165931054Y-394956258D01*
X165892640Y-395013748D01*
X165843748Y-395062640D01*
X165786258Y-395101054D01*
X165734182Y-395122624D01*
X165722383Y-395127511D01*
X165654570Y-395141000D01*
X165585430Y-395141000D01*
X165517617Y-395127511D01*
X165505818Y-395122624D01*
X165453742Y-395101054D01*
X165396252Y-395062640D01*
X165347360Y-395013748D01*
X165308946Y-394956258D01*
X165282490Y-394892385D01*
X165282489Y-394892383D01*
X165269000Y-394824570D01*
X165269000Y-394755430D01*
X165282489Y-394687617D01*
X165287376Y-394675818D01*
X165308946Y-394623742D01*
X165347360Y-394566252D01*
X165396252Y-394517360D01*
X165453742Y-394478946D01*
X165517615Y-394452490D01*
X165517614Y-394452490D01*
X165517617Y-394452489D01*
X165585430Y-394439000D01*
X165654570Y-394439000D01*
X165722383Y-394452489D01*
X165722383Y-394452489D01*
G37*
G36*
X179113025Y-393311322D02*
G01*
X177311025Y-393311322D01*
X177311025Y-391509322D01*
X179113025Y-391509322D01*
X179113025Y-393311322D01*
X179113025Y-393311322D01*
G37*
G36*
X180862468Y-391515841D02*
G01*
X180928652Y-391522359D01*
X181098491Y-391573879D01*
X181098493Y-391573880D01*
X181144016Y-391598213D01*
X181255016Y-391657544D01*
X181290754Y-391686874D01*
X181392211Y-391770136D01*
X181462655Y-391855974D01*
X181504803Y-391907331D01*
X181588468Y-392063856D01*
X181639988Y-392233695D01*
X181657384Y-392410322D01*
X181639988Y-392586949D01*
X181588468Y-392756788D01*
X181504803Y-392913313D01*
X181475473Y-392949051D01*
X181392211Y-393050508D01*
X181290754Y-393133770D01*
X181255016Y-393163100D01*
X181098491Y-393246765D01*
X180928652Y-393298285D01*
X180862468Y-393304803D01*
X180796285Y-393311322D01*
X180707765Y-393311322D01*
X180641582Y-393304803D01*
X180575398Y-393298285D01*
X180405559Y-393246765D01*
X180249034Y-393163100D01*
X180213296Y-393133770D01*
X180111839Y-393050508D01*
X180028577Y-392949051D01*
X179999247Y-392913313D01*
X179915582Y-392756788D01*
X179864062Y-392586949D01*
X179846666Y-392410322D01*
X179864062Y-392233695D01*
X179915582Y-392063856D01*
X179999247Y-391907331D01*
X180041395Y-391855974D01*
X180111839Y-391770136D01*
X180213296Y-391686874D01*
X180249034Y-391657544D01*
X180360034Y-391598213D01*
X180405557Y-391573880D01*
X180405559Y-391573879D01*
X180575398Y-391522359D01*
X180641582Y-391515841D01*
X180707765Y-391509322D01*
X180796285Y-391509322D01*
X180862468Y-391515841D01*
X180862468Y-391515841D01*
G37*
G36*
X183402468Y-391515841D02*
G01*
X183468652Y-391522359D01*
X183638491Y-391573879D01*
X183638493Y-391573880D01*
X183684016Y-391598213D01*
X183795016Y-391657544D01*
X183830754Y-391686874D01*
X183932211Y-391770136D01*
X184002655Y-391855974D01*
X184044803Y-391907331D01*
X184128468Y-392063856D01*
X184179988Y-392233695D01*
X184197384Y-392410322D01*
X184179988Y-392586949D01*
X184128468Y-392756788D01*
X184044803Y-392913313D01*
X184015473Y-392949051D01*
X183932211Y-393050508D01*
X183830754Y-393133770D01*
X183795016Y-393163100D01*
X183638491Y-393246765D01*
X183468652Y-393298285D01*
X183402468Y-393304803D01*
X183336285Y-393311322D01*
X183247765Y-393311322D01*
X183181582Y-393304803D01*
X183115398Y-393298285D01*
X182945559Y-393246765D01*
X182789034Y-393163100D01*
X182753296Y-393133770D01*
X182651839Y-393050508D01*
X182568577Y-392949051D01*
X182539247Y-392913313D01*
X182455582Y-392756788D01*
X182404062Y-392586949D01*
X182386666Y-392410322D01*
X182404062Y-392233695D01*
X182455582Y-392063856D01*
X182539247Y-391907331D01*
X182581395Y-391855974D01*
X182651839Y-391770136D01*
X182753296Y-391686874D01*
X182789034Y-391657544D01*
X182900034Y-391598213D01*
X182945557Y-391573880D01*
X182945559Y-391573879D01*
X183115398Y-391522359D01*
X183181582Y-391515841D01*
X183247765Y-391509322D01*
X183336285Y-391509322D01*
X183402468Y-391515841D01*
X183402468Y-391515841D01*
G37*
G36*
X185942468Y-391515841D02*
G01*
X186008652Y-391522359D01*
X186178491Y-391573879D01*
X186178493Y-391573880D01*
X186224016Y-391598213D01*
X186335016Y-391657544D01*
X186370754Y-391686874D01*
X186472211Y-391770136D01*
X186542655Y-391855974D01*
X186584803Y-391907331D01*
X186668468Y-392063856D01*
X186719988Y-392233695D01*
X186737384Y-392410322D01*
X186719988Y-392586949D01*
X186668468Y-392756788D01*
X186584803Y-392913313D01*
X186555473Y-392949051D01*
X186472211Y-393050508D01*
X186370754Y-393133770D01*
X186335016Y-393163100D01*
X186178491Y-393246765D01*
X186008652Y-393298285D01*
X185942468Y-393304803D01*
X185876285Y-393311322D01*
X185787765Y-393311322D01*
X185721582Y-393304803D01*
X185655398Y-393298285D01*
X185485559Y-393246765D01*
X185329034Y-393163100D01*
X185293296Y-393133770D01*
X185191839Y-393050508D01*
X185108577Y-392949051D01*
X185079247Y-392913313D01*
X184995582Y-392756788D01*
X184944062Y-392586949D01*
X184926666Y-392410322D01*
X184944062Y-392233695D01*
X184995582Y-392063856D01*
X185079247Y-391907331D01*
X185121395Y-391855974D01*
X185191839Y-391770136D01*
X185293296Y-391686874D01*
X185329034Y-391657544D01*
X185440034Y-391598213D01*
X185485557Y-391573880D01*
X185485559Y-391573879D01*
X185655398Y-391522359D01*
X185721582Y-391515841D01*
X185787765Y-391509322D01*
X185876285Y-391509322D01*
X185942468Y-391515841D01*
X185942468Y-391515841D01*
G37*
G36*
X155569169Y-391466313D02*
G01*
X155635353Y-391472831D01*
X155805192Y-391524351D01*
X155805194Y-391524352D01*
X155805680Y-391524612D01*
X155961717Y-391608016D01*
X155997455Y-391637346D01*
X156098912Y-391720608D01*
X156182174Y-391822065D01*
X156211504Y-391857803D01*
X156211505Y-391857805D01*
X156268858Y-391965103D01*
X156295169Y-392014328D01*
X156346689Y-392184167D01*
X156364085Y-392360794D01*
X156346689Y-392537421D01*
X156295169Y-392707260D01*
X156211504Y-392863785D01*
X156182174Y-392899523D01*
X156098912Y-393000980D01*
X155997455Y-393084242D01*
X155961717Y-393113572D01*
X155805192Y-393197237D01*
X155635353Y-393248757D01*
X155569169Y-393255275D01*
X155502986Y-393261794D01*
X155414466Y-393261794D01*
X155348283Y-393255275D01*
X155282099Y-393248757D01*
X155112260Y-393197237D01*
X154955735Y-393113572D01*
X154919997Y-393084242D01*
X154818540Y-393000980D01*
X154735278Y-392899523D01*
X154705948Y-392863785D01*
X154622283Y-392707260D01*
X154570763Y-392537421D01*
X154553367Y-392360794D01*
X154570763Y-392184167D01*
X154622283Y-392014328D01*
X154648595Y-391965103D01*
X154705947Y-391857805D01*
X154705948Y-391857803D01*
X154735278Y-391822065D01*
X154818540Y-391720608D01*
X154919997Y-391637346D01*
X154955735Y-391608016D01*
X155111772Y-391524612D01*
X155112258Y-391524352D01*
X155112260Y-391524351D01*
X155282099Y-391472831D01*
X155348283Y-391466313D01*
X155414466Y-391459794D01*
X155502986Y-391459794D01*
X155569169Y-391466313D01*
X155569169Y-391466313D01*
G37*
G36*
X172928213Y-390206249D02*
G01*
X173022652Y-390234897D01*
X173109687Y-390281418D01*
X173185975Y-390344025D01*
X173248582Y-390420313D01*
X173295103Y-390507348D01*
X173323751Y-390601787D01*
X173331000Y-390675388D01*
X173331000Y-391524612D01*
X173323751Y-391598213D01*
X173295103Y-391692652D01*
X173248582Y-391779687D01*
X173185975Y-391855975D01*
X173109687Y-391918582D01*
X173022651Y-391965103D01*
X172928212Y-391993751D01*
X172830000Y-392003424D01*
X172731787Y-391993751D01*
X172637348Y-391965103D01*
X172550313Y-391918582D01*
X172474025Y-391855975D01*
X172411418Y-391779687D01*
X172364897Y-391692651D01*
X172336249Y-391598212D01*
X172329000Y-391524611D01*
X172329000Y-390675398D01*
X172336250Y-390601786D01*
X172346846Y-390566856D01*
X172364898Y-390507348D01*
X172411419Y-390420313D01*
X172474026Y-390344025D01*
X172550314Y-390281418D01*
X172637349Y-390234897D01*
X172731788Y-390206249D01*
X172830000Y-390196576D01*
X172928213Y-390206249D01*
X172928213Y-390206249D01*
G37*
G36*
X164288213Y-390206249D02*
G01*
X164382652Y-390234897D01*
X164469687Y-390281418D01*
X164545975Y-390344025D01*
X164608582Y-390420313D01*
X164655103Y-390507348D01*
X164683751Y-390601787D01*
X164691000Y-390675388D01*
X164691000Y-391524612D01*
X164683751Y-391598213D01*
X164655103Y-391692652D01*
X164608582Y-391779687D01*
X164545975Y-391855975D01*
X164469687Y-391918582D01*
X164382651Y-391965103D01*
X164288212Y-391993751D01*
X164190000Y-392003424D01*
X164091787Y-391993751D01*
X163997348Y-391965103D01*
X163910313Y-391918582D01*
X163834025Y-391855975D01*
X163771418Y-391779687D01*
X163724897Y-391692651D01*
X163696249Y-391598212D01*
X163689000Y-391524611D01*
X163689000Y-390675398D01*
X163696250Y-390601786D01*
X163706846Y-390566856D01*
X163724898Y-390507348D01*
X163771419Y-390420313D01*
X163834026Y-390344025D01*
X163910314Y-390281418D01*
X163997349Y-390234897D01*
X164091788Y-390206249D01*
X164190000Y-390196576D01*
X164288213Y-390206249D01*
X164288213Y-390206249D01*
G37*
M02*
