G04 #@! TF.GenerationSoftware,KiCad,Pcbnew,(5.1.4)-1*
G04 #@! TF.CreationDate,2023-01-28T07:42:01-05:00*
G04 #@! TF.ProjectId,ThumbsUp,5468756d-6273-4557-902e-6b696361645f,rev?*
G04 #@! TF.SameCoordinates,Original*
G04 #@! TF.FileFunction,Copper,L1,Top*
G04 #@! TF.FilePolarity,Positive*
%FSLAX46Y46*%
G04 Gerber Fmt 4.6, Leading zero omitted, Abs format (unit mm)*
G04 Created by KiCad (PCBNEW (5.1.4)-1) date 2023-01-28 07:42:01*
%MOMM*%
%LPD*%
G04 APERTURE LIST*
%ADD10C,1.700000*%
%ADD11C,1.700000*%
%ADD12C,0.100000*%
%ADD13O,1.700000X1.700000*%
%ADD14R,1.700000X1.700000*%
%ADD15C,0.800000*%
%ADD16C,2.250000*%
%ADD17C,3.000000*%
%ADD18O,0.900000X1.700000*%
%ADD19O,0.900000X2.000000*%
%ADD20C,0.500000*%
%ADD21C,0.200000*%
G04 APERTURE END LIST*
D10*
X156391130Y-471814978D03*
D11*
X156391130Y-471814978D02*
X156391130Y-471814978D01*
D10*
X155733730Y-469361526D03*
D11*
X155733730Y-469361526D02*
X155733730Y-469361526D01*
D10*
X155076329Y-466908075D03*
D11*
X155076329Y-466908075D02*
X155076329Y-466908075D01*
D10*
X154418929Y-464454623D03*
D12*
G36*
X153817888Y-465495656D02*
G01*
X153377896Y-463853582D01*
X155019970Y-463413590D01*
X155459962Y-465055664D01*
X153817888Y-465495656D01*
X153817888Y-465495656D01*
G37*
D10*
X182551669Y-468482524D03*
D11*
X182551669Y-468482524D02*
X182551669Y-468482524D01*
D10*
X185005121Y-467825124D03*
D11*
X185005121Y-467825124D02*
X185005121Y-467825124D01*
D10*
X187458572Y-467167723D03*
D11*
X187458572Y-467167723D02*
X187458572Y-467167723D01*
D10*
X189912024Y-466510323D03*
D12*
G36*
X188870991Y-465909282D02*
G01*
X190513065Y-465469290D01*
X190953057Y-467111364D01*
X189310983Y-467551356D01*
X188870991Y-465909282D01*
X188870991Y-465909282D01*
G37*
D13*
X156195921Y-451084972D03*
X158735921Y-451084972D03*
X161275921Y-451084972D03*
D14*
X163815921Y-451084972D03*
D13*
X155458726Y-392360794D03*
X155458726Y-394900794D03*
X155458726Y-397440794D03*
D14*
X155458726Y-399980794D03*
D10*
X194698626Y-465168258D03*
D11*
X194698626Y-465168258D02*
X194698626Y-465168258D01*
D10*
X194041226Y-462714806D03*
D11*
X194041226Y-462714806D02*
X194041226Y-462714806D01*
D10*
X193383825Y-460261355D03*
D11*
X193383825Y-460261355D02*
X193383825Y-460261355D01*
D10*
X192726425Y-457807903D03*
D12*
G36*
X192125384Y-458848936D02*
G01*
X191685392Y-457206862D01*
X193327466Y-456766870D01*
X193767458Y-458408944D01*
X192125384Y-458848936D01*
X192125384Y-458848936D01*
G37*
D13*
X155412019Y-440660280D03*
X155412019Y-443200280D03*
X155412019Y-445740280D03*
D14*
X155412019Y-448280280D03*
D13*
X228412025Y-458730322D03*
X228412025Y-456190322D03*
X228412025Y-453650322D03*
D14*
X228412025Y-451110322D03*
D13*
X178436722Y-428957847D03*
X180976722Y-428957847D03*
X183516722Y-428957847D03*
D14*
X186056722Y-428957847D03*
D13*
X178739012Y-411392011D03*
X181279012Y-411392011D03*
X183819012Y-411392011D03*
D14*
X186359012Y-411392011D03*
D13*
X185832025Y-392410322D03*
X183292025Y-392410322D03*
X180752025Y-392410322D03*
D14*
X178212025Y-392410322D03*
D10*
X173212025Y-471010322D03*
D11*
X173212025Y-471010322D02*
X173212025Y-471010322D01*
D10*
X170758573Y-471667722D03*
D11*
X170758573Y-471667722D02*
X170758573Y-471667722D01*
D10*
X168305122Y-472325123D03*
D11*
X168305122Y-472325123D02*
X168305122Y-472325123D01*
D10*
X165851670Y-472982523D03*
D12*
G36*
X164810637Y-472381482D02*
G01*
X166452711Y-471941490D01*
X166892703Y-473583564D01*
X165250629Y-474023556D01*
X164810637Y-472381482D01*
X164810637Y-472381482D01*
G37*
D15*
X164700000Y-410825000D03*
X157700000Y-410825000D03*
D16*
X158500000Y-413350000D03*
D17*
X165900000Y-408425000D03*
D16*
X156600000Y-408300000D03*
D18*
X172830000Y-391100000D03*
X164190000Y-391100000D03*
D19*
X172830000Y-395270000D03*
X164190000Y-395270000D03*
D15*
X168674981Y-459425019D03*
X180409225Y-459490771D03*
X167792990Y-456752990D03*
X174201994Y-463014951D03*
X174760972Y-462117010D03*
X174829010Y-466350000D03*
X168050000Y-466350000D03*
X172450000Y-447900000D03*
X169800213Y-457838858D03*
X171400000Y-447900000D03*
X169182472Y-458530050D03*
X169350000Y-397100002D03*
X171484465Y-438127618D03*
X168250000Y-397100000D03*
X170700000Y-437300000D03*
X175729995Y-464899995D03*
X167000000Y-455975990D03*
X181372097Y-459354784D03*
X170150000Y-464900000D03*
X173700000Y-437400000D03*
X181283820Y-453678953D03*
X169550000Y-445500000D03*
X170050000Y-447850000D03*
X183325000Y-458050000D03*
X177100003Y-449500003D03*
X176477000Y-458523000D03*
X178969145Y-464900000D03*
X169550000Y-439500000D03*
X168650000Y-449654011D03*
X175400000Y-447800000D03*
X166223005Y-461126995D03*
X159100000Y-445925000D03*
X159100000Y-445925000D03*
X177504000Y-465700000D03*
X174202000Y-467436000D03*
X172249914Y-443503414D03*
X156700000Y-417850000D03*
X156800000Y-422900000D03*
X172750000Y-444500000D03*
X175768328Y-463763626D03*
X167000006Y-459450000D03*
X164100000Y-456000004D03*
X167800000Y-450800000D03*
X169200000Y-463750000D03*
X179518356Y-457318356D03*
X177100000Y-450750000D03*
X167649989Y-446899991D03*
X169200000Y-463750000D03*
X179200000Y-460400000D03*
X197620000Y-460480000D03*
X197620000Y-460480000D03*
D20*
X167792990Y-458543028D02*
X168674981Y-459425019D01*
X167792990Y-456752990D02*
X167792990Y-458543028D01*
X168674981Y-459425019D02*
X180343473Y-459425019D01*
X180343473Y-459425019D02*
X180409225Y-459490771D01*
D21*
X174767679Y-463014951D02*
X174201994Y-463014951D01*
X185005121Y-467825124D02*
X180194948Y-463014951D01*
X180194948Y-463014951D02*
X174767679Y-463014951D01*
X187458572Y-467167723D02*
X182407859Y-462117010D01*
X182407859Y-462117010D02*
X175326657Y-462117010D01*
X175326657Y-462117010D02*
X174760972Y-462117010D01*
X168050000Y-466350000D02*
X174829010Y-466350000D01*
X169800213Y-457838858D02*
X169800213Y-450649787D01*
X172450000Y-448000000D02*
X172450000Y-447900000D01*
X169800213Y-450649787D02*
X172450000Y-448000000D01*
X169182472Y-458530050D02*
X169150000Y-458497578D01*
X171000001Y-448299999D02*
X171400000Y-447900000D01*
X169150000Y-450150000D02*
X171000001Y-448299999D01*
X169150000Y-458497578D02*
X169150000Y-450150000D01*
X170450002Y-397100002D02*
X171484465Y-398134465D01*
X171484465Y-437561933D02*
X171484465Y-438127618D01*
X169350000Y-397100002D02*
X170450002Y-397100002D01*
X171484465Y-398134465D02*
X171484465Y-437561933D01*
X170700000Y-436734315D02*
X170700000Y-437300000D01*
X167650000Y-397700000D02*
X167650000Y-400400000D01*
X170700000Y-403450000D02*
X170700000Y-436734315D01*
X168250000Y-397100000D02*
X167650000Y-397700000D01*
X167650000Y-400400000D02*
X170700000Y-403450000D01*
D20*
X169550000Y-439500000D02*
X171600000Y-439500000D01*
X175400000Y-447800000D02*
X176700004Y-449100004D01*
X173100000Y-445500000D02*
X175400000Y-447800000D01*
X175730000Y-464900000D02*
X175729995Y-464899995D01*
X178969145Y-464900000D02*
X175730000Y-464900000D01*
X181372097Y-459354784D02*
X181283820Y-459266507D01*
X181278953Y-453678953D02*
X181283820Y-453678953D01*
X171600000Y-439500000D02*
X173700000Y-437400000D01*
X177100003Y-449500003D02*
X181278953Y-453678953D01*
X170150000Y-464900000D02*
X175729990Y-464900000D01*
X181223000Y-458523000D02*
X176477000Y-458523000D01*
X181283820Y-457916180D02*
X181417640Y-458050000D01*
X181417640Y-458050000D02*
X183325000Y-458050000D01*
X181283820Y-459266507D02*
X181283820Y-453678953D01*
X175729990Y-464900000D02*
X175729995Y-464899995D01*
X166200000Y-461150000D02*
X166223005Y-461126995D01*
X176700004Y-449100004D02*
X177100003Y-449500003D01*
X169200038Y-464900000D02*
X166200000Y-461899962D01*
X178969145Y-464900000D02*
X182551669Y-468482524D01*
X169550000Y-445500000D02*
X173100000Y-445500000D01*
X166200000Y-461899962D02*
X166200000Y-461150000D01*
X170150000Y-464900000D02*
X169200038Y-464900000D01*
X168650000Y-454325990D02*
X167000000Y-455975990D01*
X168650000Y-449654011D02*
X168650000Y-454325990D01*
X168650000Y-449654011D02*
X168650000Y-449250000D01*
X168650000Y-449250000D02*
X170050000Y-447850000D01*
D21*
X157500000Y-456727962D02*
X166472038Y-465700000D01*
X166472038Y-465700000D02*
X176938315Y-465700000D01*
X157500000Y-450050000D02*
X157500000Y-456727962D01*
X156850000Y-449400000D02*
X157500000Y-450050000D01*
X156850000Y-445925000D02*
X159100000Y-445925000D01*
X159325000Y-415000000D02*
X156350000Y-415000000D01*
X176400000Y-465650000D02*
X176350000Y-465700000D01*
X155172999Y-416177001D02*
X155172999Y-422972999D01*
X176938315Y-465700000D02*
X177504000Y-465700000D01*
X156350000Y-415000000D02*
X155172999Y-416177001D01*
X165900000Y-408425000D02*
X159325000Y-415000000D01*
X156850000Y-424650000D02*
X156850000Y-449400000D01*
X176350000Y-465700000D02*
X177504000Y-465700000D01*
X155172999Y-422972999D02*
X156850000Y-424650000D01*
X173694000Y-467944000D02*
X168253578Y-467944000D01*
X168253578Y-467944000D02*
X154800000Y-454490422D01*
X155412019Y-449330280D02*
X155412019Y-448280280D01*
X174202000Y-467436000D02*
X173694000Y-467944000D01*
X154800000Y-449942299D02*
X155412019Y-449330280D01*
X154800000Y-454490422D02*
X154800000Y-449942299D01*
X156700000Y-421250000D02*
X160377011Y-424927011D01*
X160377011Y-433814549D02*
X170065876Y-443503414D01*
X156700000Y-417850000D02*
X156700000Y-421250000D01*
X170065876Y-443503414D02*
X171684229Y-443503414D01*
X160377011Y-424927011D02*
X160377011Y-433814549D01*
X171684229Y-443503414D02*
X172249914Y-443503414D01*
X156800000Y-422900000D02*
X160050000Y-426150000D01*
X160050000Y-426150000D02*
X160050000Y-433950000D01*
X160050000Y-433950000D02*
X170600000Y-444500000D01*
X170600000Y-444500000D02*
X172184315Y-444500000D01*
X172184315Y-444500000D02*
X172750000Y-444500000D01*
D20*
X169765685Y-463750000D02*
X169880683Y-463864998D01*
X169880683Y-463864998D02*
X175666956Y-463864998D01*
X169200000Y-463750000D02*
X169765685Y-463750000D01*
X175666956Y-463864998D02*
X175768328Y-463763626D01*
X179518356Y-453168356D02*
X179518356Y-456752671D01*
X177100000Y-450750000D02*
X179518356Y-453168356D01*
X179518356Y-456752671D02*
X179518356Y-457318356D01*
X169200000Y-463750000D02*
X167000006Y-461550006D01*
X165550000Y-450800000D02*
X165515685Y-450834315D01*
X167000006Y-459450000D02*
X165515685Y-457965679D01*
X167000006Y-461550006D02*
X167000006Y-460015685D01*
X167649989Y-446899991D02*
X173249991Y-446899991D01*
X167800000Y-450800000D02*
X165550000Y-450800000D01*
X167000006Y-460015685D02*
X167000006Y-459450000D01*
X176700001Y-450350001D02*
X177100000Y-450750000D01*
X165515685Y-456000004D02*
X164100000Y-456000004D01*
X165515685Y-457965679D02*
X165515685Y-450834315D01*
X173249991Y-446899991D02*
X176700001Y-450350001D01*
X165515685Y-450834315D02*
X165515685Y-449034295D01*
X165515685Y-449034295D02*
X167249990Y-447299990D01*
X167249990Y-447299990D02*
X167649989Y-446899991D01*
D21*
X179599999Y-460799999D02*
X179200000Y-460400000D01*
X180199999Y-461399999D02*
X179599999Y-460799999D01*
X196700001Y-461399999D02*
X180199999Y-461399999D01*
X197620000Y-460480000D02*
X196700001Y-461399999D01*
M02*
