M48
; DRILL file {KiCad (5.1.4)-1} date 1/28/2023 7:42:05 AM
; FORMAT={-:-/ absolute / metric / decimal}
; #@! TF.CreationDate,2023-01-28T07:42:05-05:00
; #@! TF.GenerationSoftware,Kicad,Pcbnew,(5.1.4)-1
; #@! TF.FileFunction,NonPlated,1,2,NPTH
FMAT,2
METRIC
T1C0.600
T2C1.702
T3C3.000
T4C3.429
%
G90
G05
T1
X165.62Y-394.79
X171.4Y-394.79
T2
X158.412Y-398.91
X169.412Y-398.91
X176.912Y-401.91
X187.912Y-401.91
X176.912Y-436.91
X187.912Y-436.91
X195.412Y-445.41
X206.412Y-445.41
X158.412Y-416.41
X169.412Y-416.41
X213.912Y-450.41
X224.912Y-450.41
X158.412Y-433.91
X169.412Y-433.91
X176.912Y-419.41
X187.912Y-419.41
T3
X158.912Y-402.66
X163.912Y-404.86
X177.412Y-405.66
X182.412Y-407.86
X177.412Y-440.66
X182.412Y-442.86
X195.912Y-449.16
X200.912Y-451.36
X158.912Y-420.16
X163.912Y-422.36
X214.412Y-454.16
X219.412Y-456.36
X163.912Y-427.96
X168.912Y-430.16
X177.412Y-423.16
X182.412Y-425.36
T4
X163.912Y-398.91
X182.412Y-401.91
X182.412Y-436.91
X200.912Y-445.41
X163.912Y-416.41
X219.412Y-450.41
X163.912Y-433.91
X182.412Y-419.41
T0
M30
