M48
; DRILL file {KiCad (5.1.4)-1} date 1/28/2023 7:42:05 AM
; FORMAT={-:-/ absolute / metric / decimal}
; #@! TF.CreationDate,2023-01-28T07:42:05-05:00
; #@! TF.GenerationSoftware,Kicad,Pcbnew,(5.1.4)-1
; #@! TF.FileFunction,Plated,1,2,PTH
FMAT,2
METRIC
T1C0.400
T2C0.600
T3C1.000
T4C1.500
T5C1.600
T6C2.000
%
G90
G05
T1
X156.7Y-417.85
X156.8Y-422.9
X159.1Y-445.925
X159.1Y-445.925
X164.1Y-456.0
X166.223Y-461.127
X167.0Y-455.976
X167.0Y-459.45
X167.65Y-446.9
X167.793Y-456.753
X167.8Y-450.8
X168.05Y-466.35
X168.25Y-397.1
X168.65Y-449.654
X168.675Y-459.425
X169.182Y-458.53
X169.2Y-463.75
X169.2Y-463.75
X169.35Y-397.1
X169.55Y-439.5
X169.55Y-445.5
X169.8Y-457.839
X170.05Y-447.85
X170.15Y-464.9
X170.7Y-437.3
X171.4Y-447.9
X171.484Y-438.128
X172.25Y-443.503
X172.45Y-447.9
X172.75Y-444.5
X173.7Y-437.4
X174.202Y-463.015
X174.202Y-467.436
X174.761Y-462.117
X174.829Y-466.35
X175.4Y-447.8
X175.73Y-464.9
X175.768Y-463.764
X176.477Y-458.523
X177.1Y-450.75
X177.1Y-449.5
X177.504Y-465.7
X178.969Y-464.9
X179.2Y-460.4
X179.518Y-457.318
X180.409Y-459.491
X181.284Y-453.679
X181.372Y-459.355
X183.325Y-458.05
X197.62Y-460.48
X197.62Y-460.48
T3
X192.726Y-457.808
X193.384Y-460.261
X194.041Y-462.715
X194.699Y-465.168
X178.212Y-392.41
X180.752Y-392.41
X183.292Y-392.41
X185.832Y-392.41
X154.419Y-464.455
X155.076Y-466.908
X155.734Y-469.362
X156.391Y-471.815
X155.412Y-440.66
X155.412Y-443.2
X155.412Y-445.74
X155.412Y-448.28
X228.412Y-451.11
X228.412Y-453.65
X228.412Y-456.19
X228.412Y-458.73
X178.739Y-411.392
X181.279Y-411.392
X183.819Y-411.392
X186.359Y-411.392
X156.196Y-451.085
X158.736Y-451.085
X161.276Y-451.085
X163.816Y-451.085
X155.459Y-392.361
X155.459Y-394.901
X155.459Y-397.441
X155.459Y-399.981
X165.852Y-472.983
X168.305Y-472.325
X170.759Y-471.668
X173.212Y-471.01
X182.552Y-468.483
X185.005Y-467.825
X187.459Y-467.168
X189.912Y-466.51
X178.437Y-428.958
X180.977Y-428.958
X183.517Y-428.958
X186.057Y-428.958
T4
X156.6Y-408.3
X158.5Y-413.35
T5
X157.7Y-410.825
X164.7Y-410.825
T6
X165.9Y-408.425
T2
X164.19Y-390.7G85X164.19Y-391.5
G05
X164.19Y-394.72G85X164.19Y-395.82
G05
X172.83Y-390.7G85X172.83Y-391.5
G05
X172.83Y-394.72G85X172.83Y-395.82
G05
T0
M30
