G04 #@! TF.GenerationSoftware,KiCad,Pcbnew,(5.1.4)-1*
G04 #@! TF.CreationDate,2023-02-10T21:18:41-05:00*
G04 #@! TF.ProjectId,ThumbsUp,5468756d-6273-4557-902e-6b696361645f,rev?*
G04 #@! TF.SameCoordinates,Original*
G04 #@! TF.FileFunction,Legend,Bot*
G04 #@! TF.FilePolarity,Positive*
%FSLAX46Y46*%
G04 Gerber Fmt 4.6, Leading zero omitted, Abs format (unit mm)*
G04 Created by KiCad (PCBNEW (5.1.4)-1) date 2023-02-10 21:18:41*
%MOMM*%
%LPD*%
G04 APERTURE LIST*
%ADD10C,0.150000*%
%ADD11C,0.120000*%
%ADD12C,0.200000*%
%ADD13C,0.100000*%
%ADD14C,0.254000*%
G04 APERTURE END LIST*
D10*
X184629295Y-358825026D02*
X185116740Y-358508379D01*
X185159114Y-359039087D02*
X185533721Y-358111903D01*
X185180508Y-357969196D01*
X185074366Y-357977671D01*
X185012376Y-358003984D01*
X184932548Y-358074449D01*
X184879033Y-358206904D01*
X184887508Y-358313045D01*
X184913821Y-358375035D01*
X184984286Y-358454864D01*
X185337499Y-358597571D01*
X184231931Y-358664481D02*
X184606537Y-357737297D01*
X183661515Y-357406842D02*
X183767657Y-357398367D01*
X183900111Y-357451882D01*
X184014728Y-357549549D01*
X184067354Y-357673529D01*
X184075829Y-357779671D01*
X184048627Y-357974116D01*
X183995112Y-358106570D01*
X183879607Y-358265338D01*
X183799778Y-358335803D01*
X183675798Y-358388430D01*
X183525505Y-358379066D01*
X183437202Y-358343389D01*
X183322585Y-358245722D01*
X183296272Y-358183732D01*
X183421141Y-357874671D01*
X183597747Y-357946025D01*
X182863231Y-358111490D02*
X183237837Y-357184306D01*
X183059453Y-357625822D02*
X182529634Y-357411761D01*
X182333411Y-357897429D02*
X182708018Y-356970245D01*
X182398957Y-356845376D02*
X181869137Y-356631315D01*
X181759440Y-357665530D02*
X182134047Y-356738346D01*
X180366205Y-356537679D02*
X180675266Y-356662548D01*
X180479044Y-357148216D02*
X180853650Y-356221032D01*
X180412134Y-356042648D01*
X179154495Y-356613064D02*
X179641941Y-356296416D01*
X179684315Y-356827124D02*
X180058921Y-355899941D01*
X179705708Y-355757233D01*
X179599567Y-355765708D01*
X179537577Y-355792021D01*
X179457748Y-355862486D01*
X179404233Y-355994941D01*
X179412708Y-356101083D01*
X179439021Y-356163073D01*
X179509486Y-356242901D01*
X179862699Y-356385608D01*
X178955131Y-355453980D02*
X178778524Y-355382627D01*
X178672383Y-355391102D01*
X178548403Y-355443728D01*
X178432897Y-355602496D01*
X178308029Y-355911557D01*
X178280827Y-356106002D01*
X178333453Y-356229982D01*
X178403918Y-356309811D01*
X178580524Y-356381164D01*
X178686666Y-356372689D01*
X178810646Y-356320063D01*
X178926151Y-356161295D01*
X179051020Y-355852234D01*
X179078222Y-355657789D01*
X179025596Y-355533809D01*
X178955131Y-355453980D01*
X177785795Y-356060073D02*
X178160402Y-355132889D01*
X177583764Y-355670294D01*
X177542279Y-354883151D01*
X177167673Y-355810335D01*
X175906892Y-354736000D02*
X175756599Y-354726636D01*
X175694609Y-354752949D01*
X175614780Y-354823414D01*
X175561265Y-354955869D01*
X175569740Y-355062011D01*
X175596053Y-355124001D01*
X175666518Y-355203829D01*
X176019731Y-355346536D01*
X176394337Y-354419353D01*
X176085276Y-354294484D01*
X175979134Y-354302959D01*
X175917144Y-354329272D01*
X175837316Y-354399737D01*
X175801639Y-354488040D01*
X175810114Y-354594181D01*
X175836427Y-354656171D01*
X175906892Y-354736000D01*
X176215953Y-354860869D01*
X175288769Y-354486262D02*
X174979708Y-354361393D01*
X174651031Y-354793546D02*
X175092547Y-354971930D01*
X175467153Y-354044746D01*
X175025637Y-353866362D01*
X173812150Y-354454616D02*
X174253666Y-354633000D01*
X174628273Y-353705816D01*
X173701089Y-353331210D02*
X173524483Y-353259856D01*
X173418341Y-353268331D01*
X173294361Y-353320957D01*
X173178856Y-353479725D01*
X173053987Y-353788787D01*
X173026785Y-353983231D01*
X173079411Y-354107211D01*
X173149876Y-354187040D01*
X173326482Y-354258394D01*
X173432624Y-354249919D01*
X173556604Y-354197292D01*
X173672109Y-354038524D01*
X173796978Y-353729463D01*
X173824180Y-353535018D01*
X173771554Y-353411038D01*
X173701089Y-353331210D01*
X172994663Y-353045795D02*
X172399299Y-353883787D01*
X172490268Y-353150159D01*
X172046086Y-353741080D01*
X172199934Y-352724704D01*
X106206513Y-355673139D02*
X106648029Y-355494755D01*
X106273422Y-354567571D01*
X105701229Y-355312340D02*
X105392167Y-355437209D01*
X105455935Y-355976392D02*
X105897451Y-355798008D01*
X105522845Y-354870824D01*
X105081329Y-355049208D01*
X104553287Y-355776139D02*
X104862348Y-355651270D01*
X105058571Y-356136938D02*
X104683964Y-355209754D01*
X104242448Y-355388138D01*
X104021690Y-355477330D02*
X103491870Y-355691391D01*
X104131387Y-356511545D02*
X103756780Y-355584361D01*
X109365791Y-355611343D02*
X109674852Y-355486474D01*
X109871075Y-355972142D02*
X109496468Y-355044958D01*
X109054952Y-355223342D01*
X108546526Y-356507294D02*
X108677204Y-355940909D01*
X109076346Y-356293233D02*
X108701739Y-355366050D01*
X108348526Y-355508757D01*
X108278061Y-355588585D01*
X108251748Y-355650575D01*
X108243273Y-355756717D01*
X108296789Y-355889172D01*
X108376617Y-355959637D01*
X108438607Y-355985950D01*
X108544749Y-355994425D01*
X108897962Y-355851717D01*
X107597949Y-355812010D02*
X107421342Y-355883364D01*
X107350878Y-355963192D01*
X107298251Y-356087172D01*
X107325453Y-356281617D01*
X107450322Y-356590678D01*
X107565827Y-356749446D01*
X107689807Y-356802073D01*
X107795949Y-356810547D01*
X107972555Y-356739194D01*
X108043020Y-356659365D01*
X108095647Y-356535385D01*
X108068445Y-356340940D01*
X107943576Y-356031879D01*
X107828071Y-355873111D01*
X107704090Y-355820485D01*
X107597949Y-355812010D01*
X107177826Y-357060285D02*
X106803220Y-356133101D01*
X106761735Y-356920244D01*
X106185097Y-356382839D01*
X106559704Y-357310023D01*
X104906478Y-357413023D02*
X104791862Y-357510689D01*
X104765549Y-357572679D01*
X104757074Y-357678821D01*
X104810589Y-357811276D01*
X104890417Y-357881741D01*
X104952407Y-357908054D01*
X105058549Y-357916529D01*
X105411762Y-357773821D01*
X105037155Y-356846638D01*
X104728094Y-356971506D01*
X104657629Y-357051335D01*
X104631316Y-357113325D01*
X104622841Y-357219467D01*
X104658518Y-357307770D01*
X104738346Y-357378235D01*
X104800337Y-357404548D01*
X104906478Y-357413023D01*
X105215539Y-357288154D01*
X104288356Y-357662760D02*
X103979294Y-357787629D01*
X104043062Y-358326812D02*
X104484578Y-358148428D01*
X104109971Y-357221244D01*
X103668455Y-357399628D01*
X103204181Y-358665742D02*
X103645697Y-358487358D01*
X103271091Y-357560174D01*
X102343907Y-357934781D02*
X102167301Y-358006134D01*
X102096836Y-358085963D01*
X102044209Y-358209943D01*
X102071411Y-358404388D01*
X102196280Y-358713449D01*
X102311785Y-358872217D01*
X102435766Y-358924843D01*
X102541907Y-358933318D01*
X102718514Y-358861964D01*
X102788978Y-358782136D01*
X102841605Y-358658156D01*
X102814403Y-358463711D01*
X102689534Y-358154650D01*
X102574029Y-357995882D01*
X102450049Y-357943255D01*
X102343907Y-357934781D01*
X101637481Y-358220195D02*
X101791330Y-359236571D01*
X101347147Y-358645650D01*
X101438117Y-359379278D01*
X100842752Y-358541286D01*
D11*
X167805000Y-372720000D02*
X167805000Y-370920000D01*
X167805000Y-367210000D02*
X167805000Y-368670000D01*
X176745000Y-367210000D02*
X176745000Y-368670000D01*
X176745000Y-372720000D02*
X176745000Y-370920000D01*
X176745000Y-367210000D02*
X167805000Y-367210000D01*
X154128726Y-380710794D02*
X155458726Y-380710794D01*
X154128726Y-379380794D02*
X154128726Y-380710794D01*
X154128726Y-378110794D02*
X156788726Y-378110794D01*
X156788726Y-378110794D02*
X156788726Y-370430794D01*
X154128726Y-378110794D02*
X154128726Y-370430794D01*
X154128726Y-370430794D02*
X156788726Y-370430794D01*
D12*
X157750000Y-384150000D02*
G75*
G03X157750000Y-384050000I0J50000D01*
G01*
X157750000Y-384050000D02*
G75*
G03X157750000Y-384150000I0J-50000D01*
G01*
X157750000Y-384150000D02*
G75*
G03X157750000Y-384050000I0J50000D01*
G01*
X157750000Y-384050000D02*
X157750000Y-384050000D01*
X157750000Y-384150000D02*
X157750000Y-384150000D01*
X157750000Y-384050000D02*
X157750000Y-384050000D01*
D13*
X159350000Y-385575000D02*
X165100000Y-385575000D01*
X159350000Y-385575000D02*
X159350000Y-385575000D01*
X165100000Y-385575000D02*
X159350000Y-385575000D01*
X165100000Y-385575000D02*
X165100000Y-385575000D01*
X168850000Y-385575000D02*
X169850000Y-385575000D01*
X168850000Y-385575000D02*
X168850000Y-385575000D01*
X169850000Y-385575000D02*
X168850000Y-385575000D01*
X169850000Y-385575000D02*
X169850000Y-385575000D01*
X169850000Y-391575000D02*
X169850000Y-391575000D01*
X169850000Y-385575000D02*
X169850000Y-391575000D01*
X169850000Y-385575000D02*
X169850000Y-385575000D01*
X169850000Y-391575000D02*
X169850000Y-385575000D01*
X169850000Y-391575000D02*
X161100000Y-391575000D01*
X169850000Y-391575000D02*
X169850000Y-391575000D01*
X161100000Y-391575000D02*
X169850000Y-391575000D01*
X161100000Y-391575000D02*
X161100000Y-391575000D01*
X158100000Y-391575000D02*
X155350000Y-391575000D01*
X158100000Y-391575000D02*
X158100000Y-391575000D01*
X155350000Y-391575000D02*
X158100000Y-391575000D01*
X155350000Y-391575000D02*
X155350000Y-391575000D01*
X155350000Y-391100000D02*
X155350000Y-391100000D01*
X155350000Y-391575000D02*
X155350000Y-391100000D01*
X155350000Y-391575000D02*
X155350000Y-391575000D01*
X155350000Y-391100000D02*
X155350000Y-391575000D01*
X152850000Y-386050000D02*
X155350000Y-386050000D01*
X152850000Y-391075000D02*
X152850000Y-386050000D01*
X155350000Y-391075000D02*
X152850000Y-391075000D01*
X155350000Y-386050000D02*
X155350000Y-391075000D01*
X155350000Y-385575000D02*
X155350000Y-385575000D01*
X155350000Y-386050000D02*
X155350000Y-385575000D01*
X155350000Y-386050000D02*
X155350000Y-386050000D01*
X155350000Y-385575000D02*
X155350000Y-386050000D01*
X155350000Y-385575000D02*
X156350000Y-385575000D01*
X155350000Y-385575000D02*
X155350000Y-385575000D01*
X156350000Y-385575000D02*
X155350000Y-385575000D01*
X156350000Y-385575000D02*
X156350000Y-385575000D01*
D11*
X154082019Y-431060280D02*
X155412019Y-431060280D01*
X154082019Y-429730280D02*
X154082019Y-431060280D01*
X154082019Y-428460280D02*
X156742019Y-428460280D01*
X156742019Y-428460280D02*
X156742019Y-420780280D01*
X154082019Y-428460280D02*
X154082019Y-420780280D01*
X154082019Y-420780280D02*
X156742019Y-420780280D01*
X177880000Y-369530000D02*
X177880000Y-370860000D01*
X179210000Y-369530000D02*
X177880000Y-369530000D01*
X180480000Y-369530000D02*
X180480000Y-372190000D01*
X180480000Y-372190000D02*
X188160000Y-372190000D01*
X180480000Y-369530000D02*
X188160000Y-369530000D01*
X188160000Y-369530000D02*
X188160000Y-372190000D01*
D13*
X209949385Y-458605965D02*
G75*
G03X210045977Y-458580083I48296J12941D01*
G01*
X210045977Y-458580083D02*
G75*
G03X209949385Y-458605965I-48296J-12941D01*
G01*
X210045977Y-458580083D02*
X210045977Y-458580083D01*
X209949385Y-458605965D02*
X209949385Y-458605965D01*
D12*
X207623763Y-458426774D02*
X206029985Y-458853826D01*
X208374338Y-461227959D02*
X206828857Y-461642070D01*
X206948793Y-462282862D02*
X206780561Y-461655011D01*
X208590867Y-461842870D02*
X206948793Y-462282862D01*
X208422635Y-461215018D02*
X208590867Y-461842870D01*
X165580000Y-466125000D02*
X165580000Y-464475000D01*
X160360000Y-464125000D02*
X165640000Y-464125000D01*
X160360000Y-459275000D02*
X160360000Y-464125000D01*
X165640000Y-459275000D02*
X160360000Y-459275000D01*
X165640000Y-464125000D02*
X165640000Y-459275000D01*
D11*
X164222759Y-472042071D02*
X164566989Y-473326752D01*
X165507441Y-471697842D02*
X164222759Y-472042071D01*
X166734166Y-471369141D02*
X167422625Y-473938504D01*
X167422625Y-473938504D02*
X174840935Y-471950774D01*
X166734166Y-471369141D02*
X174152477Y-469381411D01*
X174152477Y-469381411D02*
X174840935Y-471950774D01*
D14*
X171300000Y-453125000D02*
G75*
G03X171300000Y-453125000I-100000J0D01*
G01*
X187935880Y-463630000D02*
G75*
G03X187935880Y-463630000I-125880J0D01*
G01*
D12*
X188700000Y-449825000D02*
X187600000Y-449825000D01*
X183900000Y-449825000D02*
X185000000Y-449825000D01*
X183900000Y-461225000D02*
X185000000Y-461225000D01*
X188700000Y-461225000D02*
X187600000Y-461225000D01*
X183900000Y-461225000D02*
X183900000Y-449825000D01*
X188700000Y-461225000D02*
X188700000Y-449825000D01*
D11*
X176882025Y-389530322D02*
X176882025Y-390860322D01*
X178212025Y-389530322D02*
X176882025Y-389530322D01*
X179482025Y-389530322D02*
X179482025Y-392190322D01*
X179482025Y-392190322D02*
X187162025Y-392190322D01*
X179482025Y-389530322D02*
X187162025Y-389530322D01*
X187162025Y-389530322D02*
X187162025Y-392190322D01*
X229742025Y-449780322D02*
X228412025Y-449780322D01*
X229742025Y-451110322D02*
X229742025Y-449780322D01*
X229742025Y-452380322D02*
X227082025Y-452380322D01*
X227082025Y-452380322D02*
X227082025Y-460060322D01*
X229742025Y-452380322D02*
X229742025Y-460060322D01*
X229742025Y-460060322D02*
X227082025Y-460060322D01*
X187689012Y-411172011D02*
X187689012Y-409842011D01*
X186359012Y-411172011D02*
X187689012Y-411172011D01*
X185089012Y-411172011D02*
X185089012Y-408512011D01*
X185089012Y-408512011D02*
X177409012Y-408512011D01*
X185089012Y-411172011D02*
X177409012Y-411172011D01*
X177409012Y-411172011D02*
X177409012Y-408512011D01*
X187386722Y-430287847D02*
X187386722Y-428957847D01*
X186056722Y-430287847D02*
X187386722Y-430287847D01*
X184786722Y-430287847D02*
X184786722Y-427627847D01*
X184786722Y-427627847D02*
X177106722Y-427627847D01*
X184786722Y-430287847D02*
X177106722Y-430287847D01*
X177106722Y-430287847D02*
X177106722Y-427627847D01*
X167750000Y-428335000D02*
X173760000Y-428335000D01*
X170000000Y-421515000D02*
X173760000Y-421515000D01*
X173760000Y-428335000D02*
X173760000Y-427075000D01*
X173760000Y-421515000D02*
X173760000Y-422775000D01*
D13*
X202899385Y-460505965D02*
G75*
G03X202995977Y-460480083I48296J12941D01*
G01*
X202995977Y-460480083D02*
G75*
G03X202899385Y-460505965I-48296J-12941D01*
G01*
X202995977Y-460480083D02*
X202995977Y-460480083D01*
X202899385Y-460505965D02*
X202899385Y-460505965D01*
D12*
X200573763Y-460326774D02*
X198979985Y-460753826D01*
X201324338Y-463127959D02*
X199778857Y-463542070D01*
X199898793Y-464182862D02*
X199730561Y-463555011D01*
X201540867Y-463742870D02*
X199898793Y-464182862D01*
X201372635Y-463115018D02*
X201540867Y-463742870D01*
D11*
X171615000Y-388877064D02*
X171615000Y-387672936D01*
X173435000Y-388877064D02*
X173435000Y-387672936D01*
D10*
X165532380Y-424833333D02*
X165056190Y-424500000D01*
X165532380Y-424261904D02*
X164532380Y-424261904D01*
X164532380Y-424642857D01*
X164580000Y-424738095D01*
X164627619Y-424785714D01*
X164722857Y-424833333D01*
X164865714Y-424833333D01*
X164960952Y-424785714D01*
X165008571Y-424738095D01*
X165056190Y-424642857D01*
X165056190Y-424261904D01*
X164532380Y-425738095D02*
X164532380Y-425261904D01*
X165008571Y-425214285D01*
X164960952Y-425261904D01*
X164913333Y-425357142D01*
X164913333Y-425595238D01*
X164960952Y-425690476D01*
X165008571Y-425738095D01*
X165103809Y-425785714D01*
X165341904Y-425785714D01*
X165437142Y-425738095D01*
X165484761Y-425690476D01*
X165532380Y-425595238D01*
X165532380Y-425357142D01*
X165484761Y-425261904D01*
X165437142Y-425214285D01*
X173084523Y-376082380D02*
X173084523Y-376796666D01*
X173132142Y-376939523D01*
X173227380Y-377034761D01*
X173370238Y-377082380D01*
X173465476Y-377082380D01*
X172703571Y-376082380D02*
X172084523Y-376082380D01*
X172417857Y-376463333D01*
X172275000Y-376463333D01*
X172179761Y-376510952D01*
X172132142Y-376558571D01*
X172084523Y-376653809D01*
X172084523Y-376891904D01*
X172132142Y-376987142D01*
X172179761Y-377034761D01*
X172275000Y-377082380D01*
X172560714Y-377082380D01*
X172655952Y-377034761D01*
X172703571Y-376987142D01*
X171751190Y-376082380D02*
X171084523Y-376082380D01*
X171513095Y-377082380D01*
X156268249Y-381163174D02*
X156268249Y-381877460D01*
X156315868Y-382020317D01*
X156411106Y-382115555D01*
X156553964Y-382163174D01*
X156649202Y-382163174D01*
X155363487Y-381496508D02*
X155363487Y-382163174D01*
X155601583Y-381115555D02*
X155839678Y-381829841D01*
X155220630Y-381829841D01*
X154315868Y-382163174D02*
X154887297Y-382163174D01*
X154601583Y-382163174D02*
X154601583Y-381163174D01*
X154696821Y-381306032D01*
X154792059Y-381401270D01*
X154887297Y-381448889D01*
D14*
X160654523Y-387421904D02*
X161561666Y-387421904D01*
X161743095Y-387361428D01*
X161864047Y-387240476D01*
X161924523Y-387059047D01*
X161924523Y-386938095D01*
X161077857Y-388570952D02*
X161924523Y-388570952D01*
X160594047Y-388268571D02*
X161501190Y-387966190D01*
X161501190Y-388752380D01*
X160654523Y-389780476D02*
X160654523Y-389538571D01*
X160715000Y-389417619D01*
X160775476Y-389357142D01*
X160956904Y-389236190D01*
X161198809Y-389175714D01*
X161682619Y-389175714D01*
X161803571Y-389236190D01*
X161864047Y-389296666D01*
X161924523Y-389417619D01*
X161924523Y-389659523D01*
X161864047Y-389780476D01*
X161803571Y-389840952D01*
X161682619Y-389901428D01*
X161380238Y-389901428D01*
X161259285Y-389840952D01*
X161198809Y-389780476D01*
X161138333Y-389659523D01*
X161138333Y-389417619D01*
X161198809Y-389296666D01*
X161259285Y-389236190D01*
X161380238Y-389175714D01*
D10*
X156221542Y-431512660D02*
X156221542Y-432226946D01*
X156269161Y-432369803D01*
X156364399Y-432465041D01*
X156507257Y-432512660D01*
X156602495Y-432512660D01*
X155316780Y-431845994D02*
X155316780Y-432512660D01*
X155554876Y-431465041D02*
X155792971Y-432179327D01*
X155173923Y-432179327D01*
X154888209Y-431512660D02*
X154269161Y-431512660D01*
X154602495Y-431893613D01*
X154459638Y-431893613D01*
X154364399Y-431941232D01*
X154316780Y-431988851D01*
X154269161Y-432084089D01*
X154269161Y-432322184D01*
X154316780Y-432417422D01*
X154364399Y-432465041D01*
X154459638Y-432512660D01*
X154745352Y-432512660D01*
X154840590Y-432465041D01*
X154888209Y-432417422D01*
X176332380Y-370050476D02*
X177046666Y-370050476D01*
X177189523Y-370002857D01*
X177284761Y-369907619D01*
X177332380Y-369764761D01*
X177332380Y-369669523D01*
X176332380Y-371002857D02*
X176332380Y-370526666D01*
X176808571Y-370479047D01*
X176760952Y-370526666D01*
X176713333Y-370621904D01*
X176713333Y-370860000D01*
X176760952Y-370955238D01*
X176808571Y-371002857D01*
X176903809Y-371050476D01*
X177141904Y-371050476D01*
X177237142Y-371002857D01*
X177284761Y-370955238D01*
X177332380Y-370860000D01*
X177332380Y-370621904D01*
X177284761Y-370526666D01*
X177237142Y-370479047D01*
X176427619Y-371431428D02*
X176380000Y-371479047D01*
X176332380Y-371574285D01*
X176332380Y-371812380D01*
X176380000Y-371907619D01*
X176427619Y-371955238D01*
X176522857Y-372002857D01*
X176618095Y-372002857D01*
X176760952Y-371955238D01*
X177332380Y-371383809D01*
X177332380Y-372002857D01*
D14*
X210505120Y-456671492D02*
X210345525Y-456776865D01*
X210302762Y-456850933D01*
X210275652Y-456983416D01*
X210322609Y-457158663D01*
X210412329Y-457259841D01*
X210486397Y-457302605D01*
X210618880Y-457329715D01*
X211086205Y-457204496D01*
X210757504Y-455977770D01*
X210348596Y-456087337D01*
X210247417Y-456177057D01*
X210204654Y-456251125D01*
X210177543Y-456383609D01*
X210208848Y-456500440D01*
X210298568Y-456601618D01*
X210372636Y-456644382D01*
X210505120Y-456671492D01*
X210914028Y-456561926D01*
X209297116Y-456369080D02*
X209063454Y-456431690D01*
X208962276Y-456521410D01*
X208876750Y-456669546D01*
X208880944Y-456918860D01*
X208990510Y-457327769D01*
X209111535Y-457545779D01*
X209259671Y-457631305D01*
X209392155Y-457658416D01*
X209625817Y-457595806D01*
X209726995Y-457506086D01*
X209812522Y-457357950D01*
X209808327Y-457108635D01*
X209698761Y-456699727D01*
X209577736Y-456481717D01*
X209429600Y-456396191D01*
X209297116Y-456369080D01*
X208011975Y-456713433D02*
X207778313Y-456776042D01*
X207677134Y-456865763D01*
X207591608Y-457013898D01*
X207595802Y-457263213D01*
X207705369Y-457672121D01*
X207826394Y-457890131D01*
X207974530Y-457975657D01*
X208107013Y-458002768D01*
X208340675Y-457940159D01*
X208441854Y-457850438D01*
X208527380Y-457702302D01*
X208523186Y-457452988D01*
X208413619Y-457044079D01*
X208292594Y-456826070D01*
X208144459Y-456740543D01*
X208011975Y-456713433D01*
X207135742Y-456948219D02*
X206434756Y-457136047D01*
X207113950Y-458268859D02*
X206785249Y-457042133D01*
X206397311Y-458398272D02*
X206237717Y-458503645D01*
X205945639Y-458581907D01*
X205813156Y-458554796D01*
X205739088Y-458512033D01*
X205649368Y-458410854D01*
X205618063Y-458294023D01*
X205645174Y-458161540D01*
X205687937Y-458087472D01*
X205789115Y-457997751D01*
X206007125Y-457876726D01*
X206108304Y-457787006D01*
X206151067Y-457712938D01*
X206178178Y-457580455D01*
X206146873Y-457463624D01*
X206057152Y-457362445D01*
X205983085Y-457319682D01*
X205850601Y-457292571D01*
X205558524Y-457370833D01*
X205398929Y-457476206D01*
X205014061Y-458142817D02*
X204605153Y-458252384D01*
X204602082Y-458941912D02*
X205186238Y-458785388D01*
X204857537Y-457558662D01*
X204273382Y-457715186D01*
X203492188Y-459239307D02*
X204076343Y-459082783D01*
X203747643Y-457856057D01*
X202844299Y-458223326D02*
X202770231Y-458180563D01*
X202637748Y-458153453D01*
X202345670Y-458231715D01*
X202244492Y-458321435D01*
X202201728Y-458395503D01*
X202174618Y-458527986D01*
X202205923Y-458644817D01*
X202311295Y-458804411D01*
X203200110Y-459317569D01*
X202440708Y-459521050D01*
X166099523Y-466685238D02*
X164829523Y-466685238D01*
X165978571Y-468015714D02*
X166039047Y-467955238D01*
X166099523Y-467773809D01*
X166099523Y-467652857D01*
X166039047Y-467471428D01*
X165918095Y-467350476D01*
X165797142Y-467290000D01*
X165555238Y-467229523D01*
X165373809Y-467229523D01*
X165131904Y-467290000D01*
X165010952Y-467350476D01*
X164890000Y-467471428D01*
X164829523Y-467652857D01*
X164829523Y-467773809D01*
X164890000Y-467955238D01*
X164950476Y-468015714D01*
X165252857Y-469104285D02*
X166099523Y-469104285D01*
X164769047Y-468801904D02*
X165676190Y-468499523D01*
X165676190Y-469285714D01*
D10*
X164339542Y-474225776D02*
X163649595Y-474410647D01*
X163523930Y-474493618D01*
X163456587Y-474610260D01*
X163447565Y-474760574D01*
X163472214Y-474852567D01*
X163114797Y-473518669D02*
X163262694Y-474070627D01*
X163188745Y-473794648D02*
X164154671Y-473535829D01*
X164041331Y-473664796D01*
X163973988Y-473781439D01*
X163952641Y-473885756D01*
X163890132Y-472916528D02*
X163923804Y-472858207D01*
X163945151Y-472753889D01*
X163883528Y-472523907D01*
X163812882Y-472444239D01*
X163754560Y-472410567D01*
X163650243Y-472389220D01*
X163558250Y-472413869D01*
X163432585Y-472496840D01*
X163028524Y-473196694D01*
X162868303Y-472598740D01*
D14*
X172449523Y-450160238D02*
X171179523Y-450160238D01*
X172328571Y-451490714D02*
X172389047Y-451430238D01*
X172449523Y-451248809D01*
X172449523Y-451127857D01*
X172389047Y-450946428D01*
X172268095Y-450825476D01*
X172147142Y-450765000D01*
X171905238Y-450704523D01*
X171723809Y-450704523D01*
X171481904Y-450765000D01*
X171360952Y-450825476D01*
X171240000Y-450946428D01*
X171179523Y-451127857D01*
X171179523Y-451248809D01*
X171240000Y-451430238D01*
X171300476Y-451490714D01*
X171179523Y-451914047D02*
X171179523Y-452700238D01*
X171663333Y-452276904D01*
X171663333Y-452458333D01*
X171723809Y-452579285D01*
X171784285Y-452639761D01*
X171905238Y-452700238D01*
X172207619Y-452700238D01*
X172328571Y-452639761D01*
X172389047Y-452579285D01*
X172449523Y-452458333D01*
X172449523Y-452095476D01*
X172389047Y-451974523D01*
X172328571Y-451914047D01*
X186320021Y-455292068D02*
X186924783Y-455292068D01*
X185654783Y-454868734D02*
X186320021Y-455292068D01*
X185654783Y-455715401D01*
X185775736Y-456078258D02*
X185715260Y-456138734D01*
X185654783Y-456259687D01*
X185654783Y-456562068D01*
X185715260Y-456683020D01*
X185775736Y-456743496D01*
X185896688Y-456803972D01*
X186017640Y-456803972D01*
X186199069Y-456743496D01*
X186924783Y-456017782D01*
X186924783Y-456803972D01*
D10*
X175334405Y-390050798D02*
X176048691Y-390050798D01*
X176191548Y-390003179D01*
X176286786Y-389907941D01*
X176334405Y-389765083D01*
X176334405Y-389669845D01*
X175429644Y-390479369D02*
X175382025Y-390526988D01*
X175334405Y-390622226D01*
X175334405Y-390860322D01*
X175382025Y-390955560D01*
X175429644Y-391003179D01*
X175524882Y-391050798D01*
X175620120Y-391050798D01*
X175762977Y-391003179D01*
X176334405Y-390431750D01*
X176334405Y-391050798D01*
X175334405Y-391955560D02*
X175334405Y-391479369D01*
X175810596Y-391431750D01*
X175762977Y-391479369D01*
X175715358Y-391574607D01*
X175715358Y-391812702D01*
X175762977Y-391907941D01*
X175810596Y-391955560D01*
X175905834Y-392003179D01*
X176143929Y-392003179D01*
X176239167Y-391955560D01*
X176286786Y-391907941D01*
X176334405Y-391812702D01*
X176334405Y-391574607D01*
X176286786Y-391479369D01*
X176239167Y-391431750D01*
X229221548Y-448232702D02*
X229221548Y-448946988D01*
X229269167Y-449089845D01*
X229364405Y-449185083D01*
X229507263Y-449232702D01*
X229602501Y-449232702D01*
X228792977Y-448327941D02*
X228745358Y-448280322D01*
X228650120Y-448232702D01*
X228412025Y-448232702D01*
X228316786Y-448280322D01*
X228269167Y-448327941D01*
X228221548Y-448423179D01*
X228221548Y-448518417D01*
X228269167Y-448661274D01*
X228840596Y-449232702D01*
X228221548Y-449232702D01*
X227364405Y-448566036D02*
X227364405Y-449232702D01*
X227602501Y-448185083D02*
X227840596Y-448899369D01*
X227221548Y-448899369D01*
X188141392Y-409032487D02*
X188855678Y-409032487D01*
X188998535Y-408984868D01*
X189093773Y-408889630D01*
X189141392Y-408746772D01*
X189141392Y-408651534D01*
X188236631Y-409461058D02*
X188189012Y-409508677D01*
X188141392Y-409603915D01*
X188141392Y-409842011D01*
X188189012Y-409937249D01*
X188236631Y-409984868D01*
X188331869Y-410032487D01*
X188427107Y-410032487D01*
X188569964Y-409984868D01*
X189141392Y-409413439D01*
X189141392Y-410032487D01*
X188141392Y-410889630D02*
X188141392Y-410699153D01*
X188189012Y-410603915D01*
X188236631Y-410556296D01*
X188379488Y-410461058D01*
X188569964Y-410413439D01*
X188950916Y-410413439D01*
X189046154Y-410461058D01*
X189093773Y-410508677D01*
X189141392Y-410603915D01*
X189141392Y-410794391D01*
X189093773Y-410889630D01*
X189046154Y-410937249D01*
X188950916Y-410984868D01*
X188712821Y-410984868D01*
X188617583Y-410937249D01*
X188569964Y-410889630D01*
X188522345Y-410794391D01*
X188522345Y-410603915D01*
X188569964Y-410508677D01*
X188617583Y-410461058D01*
X188712821Y-410413439D01*
X187839102Y-428148323D02*
X188553388Y-428148323D01*
X188696245Y-428100704D01*
X188791483Y-428005466D01*
X188839102Y-427862608D01*
X188839102Y-427767370D01*
X187934341Y-428576894D02*
X187886722Y-428624513D01*
X187839102Y-428719751D01*
X187839102Y-428957847D01*
X187886722Y-429053085D01*
X187934341Y-429100704D01*
X188029579Y-429148323D01*
X188124817Y-429148323D01*
X188267674Y-429100704D01*
X188839102Y-428529275D01*
X188839102Y-429148323D01*
X187839102Y-429481656D02*
X187839102Y-430148323D01*
X188839102Y-429719751D01*
X169986904Y-429352380D02*
X169986904Y-430161904D01*
X169939285Y-430257142D01*
X169891666Y-430304761D01*
X169796428Y-430352380D01*
X169605952Y-430352380D01*
X169510714Y-430304761D01*
X169463095Y-430257142D01*
X169415476Y-430161904D01*
X169415476Y-429352380D01*
X168986904Y-429447619D02*
X168939285Y-429400000D01*
X168844047Y-429352380D01*
X168605952Y-429352380D01*
X168510714Y-429400000D01*
X168463095Y-429447619D01*
X168415476Y-429542857D01*
X168415476Y-429638095D01*
X168463095Y-429780952D01*
X169034523Y-430352380D01*
X168415476Y-430352380D01*
D14*
X199838293Y-460155811D02*
X200090678Y-459462089D01*
X200539279Y-459967982D02*
X200210579Y-458741256D01*
X199743255Y-458866476D01*
X199642076Y-458956196D01*
X199599313Y-459030264D01*
X199572202Y-459162747D01*
X199619159Y-459337994D01*
X199708880Y-459439172D01*
X199782948Y-459481936D01*
X199915431Y-459509046D01*
X200382755Y-459383827D01*
X198983853Y-459069957D02*
X199249944Y-460063020D01*
X199222833Y-460195504D01*
X199180070Y-460269572D01*
X199078891Y-460359292D01*
X198845229Y-460421902D01*
X198712746Y-460394791D01*
X198638678Y-460352028D01*
X198548957Y-460250849D01*
X198282867Y-459257785D01*
X198027412Y-460641035D02*
X197698712Y-459414309D01*
X197326426Y-460828864D01*
X196997726Y-459602138D01*
X196503291Y-459859840D02*
X196429223Y-459817077D01*
X196296739Y-459789967D01*
X196004662Y-459868229D01*
X195903483Y-459957949D01*
X195860720Y-460032017D01*
X195833609Y-460164500D01*
X195864914Y-460281331D01*
X195970287Y-460440925D01*
X196859102Y-460954083D01*
X196099700Y-461157564D01*
D10*
X170442857Y-460707142D02*
X170490476Y-460754761D01*
X170633333Y-460802380D01*
X170728571Y-460802380D01*
X170871428Y-460754761D01*
X170966666Y-460659523D01*
X171014285Y-460564285D01*
X171061904Y-460373809D01*
X171061904Y-460230952D01*
X171014285Y-460040476D01*
X170966666Y-459945238D01*
X170871428Y-459850000D01*
X170728571Y-459802380D01*
X170633333Y-459802380D01*
X170490476Y-459850000D01*
X170442857Y-459897619D01*
X170061904Y-459897619D02*
X170014285Y-459850000D01*
X169919047Y-459802380D01*
X169680952Y-459802380D01*
X169585714Y-459850000D01*
X169538095Y-459897619D01*
X169490476Y-459992857D01*
X169490476Y-460088095D01*
X169538095Y-460230952D01*
X170109523Y-460802380D01*
X169490476Y-460802380D01*
X168633333Y-460135714D02*
X168633333Y-460802380D01*
X168871428Y-459754761D02*
X169109523Y-460469047D01*
X168490476Y-460469047D01*
X168342857Y-459807142D02*
X168390476Y-459854761D01*
X168533333Y-459902380D01*
X168628571Y-459902380D01*
X168771428Y-459854761D01*
X168866666Y-459759523D01*
X168914285Y-459664285D01*
X168961904Y-459473809D01*
X168961904Y-459330952D01*
X168914285Y-459140476D01*
X168866666Y-459045238D01*
X168771428Y-458950000D01*
X168628571Y-458902380D01*
X168533333Y-458902380D01*
X168390476Y-458950000D01*
X168342857Y-458997619D01*
X167961904Y-458997619D02*
X167914285Y-458950000D01*
X167819047Y-458902380D01*
X167580952Y-458902380D01*
X167485714Y-458950000D01*
X167438095Y-458997619D01*
X167390476Y-459092857D01*
X167390476Y-459188095D01*
X167438095Y-459330952D01*
X168009523Y-459902380D01*
X167390476Y-459902380D01*
X166771428Y-458902380D02*
X166676190Y-458902380D01*
X166580952Y-458950000D01*
X166533333Y-458997619D01*
X166485714Y-459092857D01*
X166438095Y-459283333D01*
X166438095Y-459521428D01*
X166485714Y-459711904D01*
X166533333Y-459807142D01*
X166580952Y-459854761D01*
X166676190Y-459902380D01*
X166771428Y-459902380D01*
X166866666Y-459854761D01*
X166914285Y-459807142D01*
X166961904Y-459711904D01*
X167009523Y-459521428D01*
X167009523Y-459283333D01*
X166961904Y-459092857D01*
X166914285Y-458997619D01*
X166866666Y-458950000D01*
X166771428Y-458902380D01*
X165942857Y-455207142D02*
X165990476Y-455254761D01*
X166133333Y-455302380D01*
X166228571Y-455302380D01*
X166371428Y-455254761D01*
X166466666Y-455159523D01*
X166514285Y-455064285D01*
X166561904Y-454873809D01*
X166561904Y-454730952D01*
X166514285Y-454540476D01*
X166466666Y-454445238D01*
X166371428Y-454350000D01*
X166228571Y-454302380D01*
X166133333Y-454302380D01*
X165990476Y-454350000D01*
X165942857Y-454397619D01*
X164990476Y-455302380D02*
X165561904Y-455302380D01*
X165276190Y-455302380D02*
X165276190Y-454302380D01*
X165371428Y-454445238D01*
X165466666Y-454540476D01*
X165561904Y-454588095D01*
X164514285Y-455302380D02*
X164323809Y-455302380D01*
X164228571Y-455254761D01*
X164180952Y-455207142D01*
X164085714Y-455064285D01*
X164038095Y-454873809D01*
X164038095Y-454492857D01*
X164085714Y-454397619D01*
X164133333Y-454350000D01*
X164228571Y-454302380D01*
X164419047Y-454302380D01*
X164514285Y-454350000D01*
X164561904Y-454397619D01*
X164609523Y-454492857D01*
X164609523Y-454730952D01*
X164561904Y-454826190D01*
X164514285Y-454873809D01*
X164419047Y-454921428D01*
X164228571Y-454921428D01*
X164133333Y-454873809D01*
X164085714Y-454826190D01*
X164038095Y-454730952D01*
X171407142Y-466257142D02*
X171454761Y-466209523D01*
X171502380Y-466066666D01*
X171502380Y-465971428D01*
X171454761Y-465828571D01*
X171359523Y-465733333D01*
X171264285Y-465685714D01*
X171073809Y-465638095D01*
X170930952Y-465638095D01*
X170740476Y-465685714D01*
X170645238Y-465733333D01*
X170550000Y-465828571D01*
X170502380Y-465971428D01*
X170502380Y-466066666D01*
X170550000Y-466209523D01*
X170597619Y-466257142D01*
X170597619Y-466638095D02*
X170550000Y-466685714D01*
X170502380Y-466780952D01*
X170502380Y-467019047D01*
X170550000Y-467114285D01*
X170597619Y-467161904D01*
X170692857Y-467209523D01*
X170788095Y-467209523D01*
X170930952Y-467161904D01*
X171502380Y-466590476D01*
X171502380Y-467209523D01*
X170502380Y-467542857D02*
X170502380Y-468161904D01*
X170883333Y-467828571D01*
X170883333Y-467971428D01*
X170930952Y-468066666D01*
X170978571Y-468114285D01*
X171073809Y-468161904D01*
X171311904Y-468161904D01*
X171407142Y-468114285D01*
X171454761Y-468066666D01*
X171502380Y-467971428D01*
X171502380Y-467685714D01*
X171454761Y-467590476D01*
X171407142Y-467542857D01*
X183842857Y-457807142D02*
X183890476Y-457854761D01*
X184033333Y-457902380D01*
X184128571Y-457902380D01*
X184271428Y-457854761D01*
X184366666Y-457759523D01*
X184414285Y-457664285D01*
X184461904Y-457473809D01*
X184461904Y-457330952D01*
X184414285Y-457140476D01*
X184366666Y-457045238D01*
X184271428Y-456950000D01*
X184128571Y-456902380D01*
X184033333Y-456902380D01*
X183890476Y-456950000D01*
X183842857Y-456997619D01*
X183461904Y-456997619D02*
X183414285Y-456950000D01*
X183319047Y-456902380D01*
X183080952Y-456902380D01*
X182985714Y-456950000D01*
X182938095Y-456997619D01*
X182890476Y-457092857D01*
X182890476Y-457188095D01*
X182938095Y-457330952D01*
X183509523Y-457902380D01*
X182890476Y-457902380D01*
X182509523Y-456997619D02*
X182461904Y-456950000D01*
X182366666Y-456902380D01*
X182128571Y-456902380D01*
X182033333Y-456950000D01*
X181985714Y-456997619D01*
X181938095Y-457092857D01*
X181938095Y-457188095D01*
X181985714Y-457330952D01*
X182557142Y-457902380D01*
X181938095Y-457902380D01*
X170606666Y-419662142D02*
X170654285Y-419709761D01*
X170797142Y-419757380D01*
X170892380Y-419757380D01*
X171035238Y-419709761D01*
X171130476Y-419614523D01*
X171178095Y-419519285D01*
X171225714Y-419328809D01*
X171225714Y-419185952D01*
X171178095Y-418995476D01*
X171130476Y-418900238D01*
X171035238Y-418805000D01*
X170892380Y-418757380D01*
X170797142Y-418757380D01*
X170654285Y-418805000D01*
X170606666Y-418852619D01*
X170035238Y-419185952D02*
X170130476Y-419138333D01*
X170178095Y-419090714D01*
X170225714Y-418995476D01*
X170225714Y-418947857D01*
X170178095Y-418852619D01*
X170130476Y-418805000D01*
X170035238Y-418757380D01*
X169844761Y-418757380D01*
X169749523Y-418805000D01*
X169701904Y-418852619D01*
X169654285Y-418947857D01*
X169654285Y-418995476D01*
X169701904Y-419090714D01*
X169749523Y-419138333D01*
X169844761Y-419185952D01*
X170035238Y-419185952D01*
X170130476Y-419233571D01*
X170178095Y-419281190D01*
X170225714Y-419376428D01*
X170225714Y-419566904D01*
X170178095Y-419662142D01*
X170130476Y-419709761D01*
X170035238Y-419757380D01*
X169844761Y-419757380D01*
X169749523Y-419709761D01*
X169701904Y-419662142D01*
X169654285Y-419566904D01*
X169654285Y-419376428D01*
X169701904Y-419281190D01*
X169749523Y-419233571D01*
X169844761Y-419185952D01*
X165407142Y-426682142D02*
X165454761Y-426634523D01*
X165502380Y-426491666D01*
X165502380Y-426396428D01*
X165454761Y-426253571D01*
X165359523Y-426158333D01*
X165264285Y-426110714D01*
X165073809Y-426063095D01*
X164930952Y-426063095D01*
X164740476Y-426110714D01*
X164645238Y-426158333D01*
X164550000Y-426253571D01*
X164502380Y-426396428D01*
X164502380Y-426491666D01*
X164550000Y-426634523D01*
X164597619Y-426682142D01*
X165502380Y-427634523D02*
X165502380Y-427063095D01*
X165502380Y-427348809D02*
X164502380Y-427348809D01*
X164645238Y-427253571D01*
X164740476Y-427158333D01*
X164788095Y-427063095D01*
X164930952Y-428205952D02*
X164883333Y-428110714D01*
X164835714Y-428063095D01*
X164740476Y-428015476D01*
X164692857Y-428015476D01*
X164597619Y-428063095D01*
X164550000Y-428110714D01*
X164502380Y-428205952D01*
X164502380Y-428396428D01*
X164550000Y-428491666D01*
X164597619Y-428539285D01*
X164692857Y-428586904D01*
X164740476Y-428586904D01*
X164835714Y-428539285D01*
X164883333Y-428491666D01*
X164930952Y-428396428D01*
X164930952Y-428205952D01*
X164978571Y-428110714D01*
X165026190Y-428063095D01*
X165121428Y-428015476D01*
X165311904Y-428015476D01*
X165407142Y-428063095D01*
X165454761Y-428110714D01*
X165502380Y-428205952D01*
X165502380Y-428396428D01*
X165454761Y-428491666D01*
X165407142Y-428539285D01*
X165311904Y-428586904D01*
X165121428Y-428586904D01*
X165026190Y-428539285D01*
X164978571Y-428491666D01*
X164930952Y-428396428D01*
X183742857Y-454107142D02*
X183790476Y-454154761D01*
X183933333Y-454202380D01*
X184028571Y-454202380D01*
X184171428Y-454154761D01*
X184266666Y-454059523D01*
X184314285Y-453964285D01*
X184361904Y-453773809D01*
X184361904Y-453630952D01*
X184314285Y-453440476D01*
X184266666Y-453345238D01*
X184171428Y-453250000D01*
X184028571Y-453202380D01*
X183933333Y-453202380D01*
X183790476Y-453250000D01*
X183742857Y-453297619D01*
X183361904Y-453297619D02*
X183314285Y-453250000D01*
X183219047Y-453202380D01*
X182980952Y-453202380D01*
X182885714Y-453250000D01*
X182838095Y-453297619D01*
X182790476Y-453392857D01*
X182790476Y-453488095D01*
X182838095Y-453630952D01*
X183409523Y-454202380D01*
X182790476Y-454202380D01*
X181838095Y-454202380D02*
X182409523Y-454202380D01*
X182123809Y-454202380D02*
X182123809Y-453202380D01*
X182219047Y-453345238D01*
X182314285Y-453440476D01*
X182409523Y-453488095D01*
X172027380Y-442567142D02*
X171551190Y-442233809D01*
X172027380Y-441995714D02*
X171027380Y-441995714D01*
X171027380Y-442376666D01*
X171075000Y-442471904D01*
X171122619Y-442519523D01*
X171217857Y-442567142D01*
X171360714Y-442567142D01*
X171455952Y-442519523D01*
X171503571Y-442471904D01*
X171551190Y-442376666D01*
X171551190Y-441995714D01*
X172027380Y-443519523D02*
X172027380Y-442948095D01*
X172027380Y-443233809D02*
X171027380Y-443233809D01*
X171170238Y-443138571D01*
X171265476Y-443043333D01*
X171313095Y-442948095D01*
X171360714Y-444376666D02*
X172027380Y-444376666D01*
X170979761Y-444138571D02*
X171694047Y-443900476D01*
X171694047Y-444519523D01*
X168292857Y-465527380D02*
X168626190Y-465051190D01*
X168864285Y-465527380D02*
X168864285Y-464527380D01*
X168483333Y-464527380D01*
X168388095Y-464575000D01*
X168340476Y-464622619D01*
X168292857Y-464717857D01*
X168292857Y-464860714D01*
X168340476Y-464955952D01*
X168388095Y-465003571D01*
X168483333Y-465051190D01*
X168864285Y-465051190D01*
X167340476Y-465527380D02*
X167911904Y-465527380D01*
X167626190Y-465527380D02*
X167626190Y-464527380D01*
X167721428Y-464670238D01*
X167816666Y-464765476D01*
X167911904Y-464813095D01*
X166959523Y-464622619D02*
X166911904Y-464575000D01*
X166816666Y-464527380D01*
X166578571Y-464527380D01*
X166483333Y-464575000D01*
X166435714Y-464622619D01*
X166388095Y-464717857D01*
X166388095Y-464813095D01*
X166435714Y-464955952D01*
X167007142Y-465527380D01*
X166388095Y-465527380D01*
X177202142Y-449867142D02*
X177249761Y-449819523D01*
X177297380Y-449676666D01*
X177297380Y-449581428D01*
X177249761Y-449438571D01*
X177154523Y-449343333D01*
X177059285Y-449295714D01*
X176868809Y-449248095D01*
X176725952Y-449248095D01*
X176535476Y-449295714D01*
X176440238Y-449343333D01*
X176345000Y-449438571D01*
X176297380Y-449581428D01*
X176297380Y-449676666D01*
X176345000Y-449819523D01*
X176392619Y-449867142D01*
X176297380Y-450200476D02*
X176297380Y-450819523D01*
X176678333Y-450486190D01*
X176678333Y-450629047D01*
X176725952Y-450724285D01*
X176773571Y-450771904D01*
X176868809Y-450819523D01*
X177106904Y-450819523D01*
X177202142Y-450771904D01*
X177249761Y-450724285D01*
X177297380Y-450629047D01*
X177297380Y-450343333D01*
X177249761Y-450248095D01*
X177202142Y-450200476D01*
X176392619Y-451200476D02*
X176345000Y-451248095D01*
X176297380Y-451343333D01*
X176297380Y-451581428D01*
X176345000Y-451676666D01*
X176392619Y-451724285D01*
X176487857Y-451771904D01*
X176583095Y-451771904D01*
X176725952Y-451724285D01*
X177297380Y-451152857D01*
X177297380Y-451771904D01*
X176895142Y-466107142D02*
X176942761Y-466059523D01*
X176990380Y-465916666D01*
X176990380Y-465821428D01*
X176942761Y-465678571D01*
X176847523Y-465583333D01*
X176752285Y-465535714D01*
X176561809Y-465488095D01*
X176418952Y-465488095D01*
X176228476Y-465535714D01*
X176133238Y-465583333D01*
X176038000Y-465678571D01*
X175990380Y-465821428D01*
X175990380Y-465916666D01*
X176038000Y-466059523D01*
X176085619Y-466107142D01*
X175990380Y-466440476D02*
X175990380Y-467059523D01*
X176371333Y-466726190D01*
X176371333Y-466869047D01*
X176418952Y-466964285D01*
X176466571Y-467011904D01*
X176561809Y-467059523D01*
X176799904Y-467059523D01*
X176895142Y-467011904D01*
X176942761Y-466964285D01*
X176990380Y-466869047D01*
X176990380Y-466583333D01*
X176942761Y-466488095D01*
X176895142Y-466440476D01*
X176990380Y-468011904D02*
X176990380Y-467440476D01*
X176990380Y-467726190D02*
X175990380Y-467726190D01*
X176133238Y-467630952D01*
X176228476Y-467535714D01*
X176276095Y-467440476D01*
X181092857Y-455602380D02*
X181426190Y-455126190D01*
X181664285Y-455602380D02*
X181664285Y-454602380D01*
X181283333Y-454602380D01*
X181188095Y-454650000D01*
X181140476Y-454697619D01*
X181092857Y-454792857D01*
X181092857Y-454935714D01*
X181140476Y-455030952D01*
X181188095Y-455078571D01*
X181283333Y-455126190D01*
X181664285Y-455126190D01*
X180140476Y-455602380D02*
X180711904Y-455602380D01*
X180426190Y-455602380D02*
X180426190Y-454602380D01*
X180521428Y-454745238D01*
X180616666Y-454840476D01*
X180711904Y-454888095D01*
X179283333Y-454602380D02*
X179473809Y-454602380D01*
X179569047Y-454650000D01*
X179616666Y-454697619D01*
X179711904Y-454840476D01*
X179759523Y-455030952D01*
X179759523Y-455411904D01*
X179711904Y-455507142D01*
X179664285Y-455554761D01*
X179569047Y-455602380D01*
X179378571Y-455602380D01*
X179283333Y-455554761D01*
X179235714Y-455507142D01*
X179188095Y-455411904D01*
X179188095Y-455173809D01*
X179235714Y-455078571D01*
X179283333Y-455030952D01*
X179378571Y-454983333D01*
X179569047Y-454983333D01*
X179664285Y-455030952D01*
X179711904Y-455078571D01*
X179759523Y-455173809D01*
X170627380Y-442542142D02*
X170151190Y-442208809D01*
X170627380Y-441970714D02*
X169627380Y-441970714D01*
X169627380Y-442351666D01*
X169675000Y-442446904D01*
X169722619Y-442494523D01*
X169817857Y-442542142D01*
X169960714Y-442542142D01*
X170055952Y-442494523D01*
X170103571Y-442446904D01*
X170151190Y-442351666D01*
X170151190Y-441970714D01*
X170627380Y-443494523D02*
X170627380Y-442923095D01*
X170627380Y-443208809D02*
X169627380Y-443208809D01*
X169770238Y-443113571D01*
X169865476Y-443018333D01*
X169913095Y-442923095D01*
X169627380Y-444399285D02*
X169627380Y-443923095D01*
X170103571Y-443875476D01*
X170055952Y-443923095D01*
X170008333Y-444018333D01*
X170008333Y-444256428D01*
X170055952Y-444351666D01*
X170103571Y-444399285D01*
X170198809Y-444446904D01*
X170436904Y-444446904D01*
X170532142Y-444399285D01*
X170579761Y-444351666D01*
X170627380Y-444256428D01*
X170627380Y-444018333D01*
X170579761Y-443923095D01*
X170532142Y-443875476D01*
X181342857Y-459757142D02*
X181390476Y-459804761D01*
X181533333Y-459852380D01*
X181628571Y-459852380D01*
X181771428Y-459804761D01*
X181866666Y-459709523D01*
X181914285Y-459614285D01*
X181961904Y-459423809D01*
X181961904Y-459280952D01*
X181914285Y-459090476D01*
X181866666Y-458995238D01*
X181771428Y-458900000D01*
X181628571Y-458852380D01*
X181533333Y-458852380D01*
X181390476Y-458900000D01*
X181342857Y-458947619D01*
X180961904Y-458947619D02*
X180914285Y-458900000D01*
X180819047Y-458852380D01*
X180580952Y-458852380D01*
X180485714Y-458900000D01*
X180438095Y-458947619D01*
X180390476Y-459042857D01*
X180390476Y-459138095D01*
X180438095Y-459280952D01*
X181009523Y-459852380D01*
X180390476Y-459852380D01*
X179914285Y-459852380D02*
X179723809Y-459852380D01*
X179628571Y-459804761D01*
X179580952Y-459757142D01*
X179485714Y-459614285D01*
X179438095Y-459423809D01*
X179438095Y-459042857D01*
X179485714Y-458947619D01*
X179533333Y-458900000D01*
X179628571Y-458852380D01*
X179819047Y-458852380D01*
X179914285Y-458900000D01*
X179961904Y-458947619D01*
X180009523Y-459042857D01*
X180009523Y-459280952D01*
X179961904Y-459376190D01*
X179914285Y-459423809D01*
X179819047Y-459471428D01*
X179628571Y-459471428D01*
X179533333Y-459423809D01*
X179485714Y-459376190D01*
X179438095Y-459280952D01*
X170492857Y-463452380D02*
X170826190Y-462976190D01*
X171064285Y-463452380D02*
X171064285Y-462452380D01*
X170683333Y-462452380D01*
X170588095Y-462500000D01*
X170540476Y-462547619D01*
X170492857Y-462642857D01*
X170492857Y-462785714D01*
X170540476Y-462880952D01*
X170588095Y-462928571D01*
X170683333Y-462976190D01*
X171064285Y-462976190D01*
X169540476Y-463452380D02*
X170111904Y-463452380D01*
X169826190Y-463452380D02*
X169826190Y-462452380D01*
X169921428Y-462595238D01*
X170016666Y-462690476D01*
X170111904Y-462738095D01*
X169207142Y-462452380D02*
X168588095Y-462452380D01*
X168921428Y-462833333D01*
X168778571Y-462833333D01*
X168683333Y-462880952D01*
X168635714Y-462928571D01*
X168588095Y-463023809D01*
X168588095Y-463261904D01*
X168635714Y-463357142D01*
X168683333Y-463404761D01*
X168778571Y-463452380D01*
X169064285Y-463452380D01*
X169159523Y-463404761D01*
X169207142Y-463357142D01*
X181292857Y-461057142D02*
X181340476Y-461104761D01*
X181483333Y-461152380D01*
X181578571Y-461152380D01*
X181721428Y-461104761D01*
X181816666Y-461009523D01*
X181864285Y-460914285D01*
X181911904Y-460723809D01*
X181911904Y-460580952D01*
X181864285Y-460390476D01*
X181816666Y-460295238D01*
X181721428Y-460200000D01*
X181578571Y-460152380D01*
X181483333Y-460152380D01*
X181340476Y-460200000D01*
X181292857Y-460247619D01*
X180911904Y-460247619D02*
X180864285Y-460200000D01*
X180769047Y-460152380D01*
X180530952Y-460152380D01*
X180435714Y-460200000D01*
X180388095Y-460247619D01*
X180340476Y-460342857D01*
X180340476Y-460438095D01*
X180388095Y-460580952D01*
X180959523Y-461152380D01*
X180340476Y-461152380D01*
X179769047Y-460580952D02*
X179864285Y-460533333D01*
X179911904Y-460485714D01*
X179959523Y-460390476D01*
X179959523Y-460342857D01*
X179911904Y-460247619D01*
X179864285Y-460200000D01*
X179769047Y-460152380D01*
X179578571Y-460152380D01*
X179483333Y-460200000D01*
X179435714Y-460247619D01*
X179388095Y-460342857D01*
X179388095Y-460390476D01*
X179435714Y-460485714D01*
X179483333Y-460533333D01*
X179578571Y-460580952D01*
X179769047Y-460580952D01*
X179864285Y-460628571D01*
X179911904Y-460676190D01*
X179959523Y-460771428D01*
X179959523Y-460961904D01*
X179911904Y-461057142D01*
X179864285Y-461104761D01*
X179769047Y-461152380D01*
X179578571Y-461152380D01*
X179483333Y-461104761D01*
X179435714Y-461057142D01*
X179388095Y-460961904D01*
X179388095Y-460771428D01*
X179435714Y-460676190D01*
X179483333Y-460628571D01*
X179578571Y-460580952D01*
X170727142Y-451872142D02*
X170774761Y-451824523D01*
X170822380Y-451681666D01*
X170822380Y-451586428D01*
X170774761Y-451443571D01*
X170679523Y-451348333D01*
X170584285Y-451300714D01*
X170393809Y-451253095D01*
X170250952Y-451253095D01*
X170060476Y-451300714D01*
X169965238Y-451348333D01*
X169870000Y-451443571D01*
X169822380Y-451586428D01*
X169822380Y-451681666D01*
X169870000Y-451824523D01*
X169917619Y-451872142D01*
X169917619Y-452253095D02*
X169870000Y-452300714D01*
X169822380Y-452395952D01*
X169822380Y-452634047D01*
X169870000Y-452729285D01*
X169917619Y-452776904D01*
X170012857Y-452824523D01*
X170108095Y-452824523D01*
X170250952Y-452776904D01*
X170822380Y-452205476D01*
X170822380Y-452824523D01*
X169822380Y-453157857D02*
X169822380Y-453824523D01*
X170822380Y-453395952D01*
X170492857Y-461957142D02*
X170540476Y-462004761D01*
X170683333Y-462052380D01*
X170778571Y-462052380D01*
X170921428Y-462004761D01*
X171016666Y-461909523D01*
X171064285Y-461814285D01*
X171111904Y-461623809D01*
X171111904Y-461480952D01*
X171064285Y-461290476D01*
X171016666Y-461195238D01*
X170921428Y-461100000D01*
X170778571Y-461052380D01*
X170683333Y-461052380D01*
X170540476Y-461100000D01*
X170492857Y-461147619D01*
X170111904Y-461147619D02*
X170064285Y-461100000D01*
X169969047Y-461052380D01*
X169730952Y-461052380D01*
X169635714Y-461100000D01*
X169588095Y-461147619D01*
X169540476Y-461242857D01*
X169540476Y-461338095D01*
X169588095Y-461480952D01*
X170159523Y-462052380D01*
X169540476Y-462052380D01*
X168635714Y-461052380D02*
X169111904Y-461052380D01*
X169159523Y-461528571D01*
X169111904Y-461480952D01*
X169016666Y-461433333D01*
X168778571Y-461433333D01*
X168683333Y-461480952D01*
X168635714Y-461528571D01*
X168588095Y-461623809D01*
X168588095Y-461861904D01*
X168635714Y-461957142D01*
X168683333Y-462004761D01*
X168778571Y-462052380D01*
X169016666Y-462052380D01*
X169111904Y-462004761D01*
X169159523Y-461957142D01*
X174273571Y-387941666D02*
X174273571Y-387608333D01*
X174797380Y-387608333D02*
X173797380Y-387608333D01*
X173797380Y-388084523D01*
X173892619Y-388417857D02*
X173845000Y-388465476D01*
X173797380Y-388560714D01*
X173797380Y-388798809D01*
X173845000Y-388894047D01*
X173892619Y-388941666D01*
X173987857Y-388989285D01*
X174083095Y-388989285D01*
X174225952Y-388941666D01*
X174797380Y-388370238D01*
X174797380Y-388989285D01*
X182522857Y-373082380D02*
X182856190Y-372606190D01*
X183094285Y-373082380D02*
X183094285Y-372082380D01*
X182713333Y-372082380D01*
X182618095Y-372130000D01*
X182570476Y-372177619D01*
X182522857Y-372272857D01*
X182522857Y-372415714D01*
X182570476Y-372510952D01*
X182618095Y-372558571D01*
X182713333Y-372606190D01*
X183094285Y-372606190D01*
X181570476Y-373082380D02*
X182141904Y-373082380D01*
X181856190Y-373082380D02*
X181856190Y-372082380D01*
X181951428Y-372225238D01*
X182046666Y-372320476D01*
X182141904Y-372368095D01*
X180951428Y-372082380D02*
X180856190Y-372082380D01*
X180760952Y-372130000D01*
X180713333Y-372177619D01*
X180665714Y-372272857D01*
X180618095Y-372463333D01*
X180618095Y-372701428D01*
X180665714Y-372891904D01*
X180713333Y-372987142D01*
X180760952Y-373034761D01*
X180856190Y-373082380D01*
X180951428Y-373082380D01*
X181046666Y-373034761D01*
X181094285Y-372987142D01*
X181141904Y-372891904D01*
X181189523Y-372701428D01*
X181189523Y-372463333D01*
X181141904Y-372272857D01*
X181094285Y-372177619D01*
X181046666Y-372130000D01*
X180951428Y-372082380D01*
X182527857Y-374162380D02*
X182861190Y-373686190D01*
X183099285Y-374162380D02*
X183099285Y-373162380D01*
X182718333Y-373162380D01*
X182623095Y-373210000D01*
X182575476Y-373257619D01*
X182527857Y-373352857D01*
X182527857Y-373495714D01*
X182575476Y-373590952D01*
X182623095Y-373638571D01*
X182718333Y-373686190D01*
X183099285Y-373686190D01*
X181575476Y-374162380D02*
X182146904Y-374162380D01*
X181861190Y-374162380D02*
X181861190Y-373162380D01*
X181956428Y-373305238D01*
X182051666Y-373400476D01*
X182146904Y-373448095D01*
X180623095Y-374162380D02*
X181194523Y-374162380D01*
X180908809Y-374162380D02*
X180908809Y-373162380D01*
X181004047Y-373305238D01*
X181099285Y-373400476D01*
X181194523Y-373448095D01*
X168742857Y-456607142D02*
X168790476Y-456654761D01*
X168933333Y-456702380D01*
X169028571Y-456702380D01*
X169171428Y-456654761D01*
X169266666Y-456559523D01*
X169314285Y-456464285D01*
X169361904Y-456273809D01*
X169361904Y-456130952D01*
X169314285Y-455940476D01*
X169266666Y-455845238D01*
X169171428Y-455750000D01*
X169028571Y-455702380D01*
X168933333Y-455702380D01*
X168790476Y-455750000D01*
X168742857Y-455797619D01*
X168361904Y-455797619D02*
X168314285Y-455750000D01*
X168219047Y-455702380D01*
X167980952Y-455702380D01*
X167885714Y-455750000D01*
X167838095Y-455797619D01*
X167790476Y-455892857D01*
X167790476Y-455988095D01*
X167838095Y-456130952D01*
X168409523Y-456702380D01*
X167790476Y-456702380D01*
X166933333Y-455702380D02*
X167123809Y-455702380D01*
X167219047Y-455750000D01*
X167266666Y-455797619D01*
X167361904Y-455940476D01*
X167409523Y-456130952D01*
X167409523Y-456511904D01*
X167361904Y-456607142D01*
X167314285Y-456654761D01*
X167219047Y-456702380D01*
X167028571Y-456702380D01*
X166933333Y-456654761D01*
X166885714Y-456607142D01*
X166838095Y-456511904D01*
X166838095Y-456273809D01*
X166885714Y-456178571D01*
X166933333Y-456130952D01*
X167028571Y-456083333D01*
X167219047Y-456083333D01*
X167314285Y-456130952D01*
X167361904Y-456178571D01*
X167409523Y-456273809D01*
M02*
